<?xml version="1.0" encoding="utf-8"?>
<!-- Generator: Adobe Illustrator 24.2.1, SVG Export Plug-In . SVG Version: 6.00 Build 0)  -->
<svg version="1.1" id="_x32_022SeasonSvg" xmlns="http://www.w3.org/2000/svg" xmlns:xlink="http://www.w3.org/1999/xlink" x="0px"
	 y="0px" width="3840px" height="2160px" viewBox="0 0 3840 2160" enable-background="new 0 0 3840 2160" xml:space="preserve">
<g id="_x2D_.contentScene-">
	<g id="_x2D_.moveElements-">
		<g>
			<g>
				<circle fill="#012B48" cx="1620.75" cy="1199.55" r="2.52"/>
				<circle fill="#012B48" cx="1688.4" cy="1185.73" r="2.52"/>
				<circle fill="#012B48" cx="1749.76" cy="1182.91" r="2.52"/>
				<circle fill="#012B48" cx="1741.85" cy="1161.1" r="2.52"/>
				<circle fill="#012B48" cx="1755.39" cy="1150.24" r="2.52"/>
				<circle fill="#012B48" cx="1805.28" cy="1183.2" r="2.52"/>
				<circle fill="#012B48" cx="1839.86" cy="1155.35" r="2.52"/>
				<circle fill="#012B48" cx="1891.33" cy="1113.22" r="2.52"/>
				<circle fill="#012B48" cx="1891.33" cy="1217.74" r="2.52"/>
				<circle fill="#012B48" cx="1895.88" cy="1221.12" r="2.52"/>
				<circle fill="#012B48" cx="1898.41" cy="1223.64" r="2.52"/>
				<circle fill="#012B48" cx="1895.88" cy="1109.85" r="2.52"/>
				<circle fill="#012B48" cx="1898.7" cy="1107.33" r="2.52"/>
				<circle fill="#012B48" cx="1803.16" cy="1112.38" r="2.52"/>
				<circle fill="#012B48" cx="1802.75" cy="1109.11" r="2.52"/>
				<circle fill="#012B48" cx="1802.75" cy="1106.58" r="2.52"/>
				<circle fill="#012B48" cx="1719.75" cy="1127.52" r="2.52"/>
				<circle fill="#012B48" cx="1711.79" cy="1130.05" r="2.52"/>
				<circle fill="#012B48" cx="1694.09" cy="1132.59" r="2.52"/>
				<circle fill="#012B48" cx="1696.61" cy="1112.28" r="2.52"/>
				<circle fill="#012B48" cx="1705.59" cy="1109.11" r="2.52"/>
				<circle fill="#012B48" cx="1714.32" cy="1106.58" r="2.52"/>
				<circle fill="#012B48" cx="1623.28" cy="1076.62" r="2.52"/>
				<circle fill="#012B48" cx="1681.34" cy="1056.51" r="2.52"/>
				<circle fill="#012B48" cx="1618.56" cy="1047.11" r="2.52"/>
				<circle fill="#012B48" cx="1616.88" cy="1044.04" r="2.52"/>
				<circle fill="#012B48" cx="1615.29" cy="1040.57" r="2.52"/>
				<circle fill="#012B48" cx="1597.26" cy="1059.89" r="2.52"/>
				<circle fill="#012B48" cx="1594.79" cy="1057.52" r="2.52"/>
				<circle fill="#012B48" cx="1592.86" cy="1054.92" r="2.52"/>
				<circle fill="#012B48" cx="1549.4" cy="1111.63" r="2.52"/>
				<circle fill="#012B48" cx="1546.88" cy="1109.85" r="2.52"/>
				<circle fill="#012B48" cx="1544.36" cy="1107.33" r="2.52"/>
				<circle fill="#012B48" cx="1534.81" cy="1137.38" r="2.52"/>
				<circle fill="#012B48" cx="1531.05" cy="1134.86" r="2.52"/>
				<circle fill="#012B48" cx="1527.59" cy="1132.85" r="2.52"/>
				<circle fill="#012B48" cx="1521.15" cy="1173.71" r="2.52"/>
				<circle fill="#012B48" cx="1517.82" cy="1172.39" r="2.52"/>
				<circle fill="#012B48" cx="1514.44" cy="1171.59" r="2.52"/>
				<circle fill="#012B48" cx="1515.29" cy="1202.08" r="2.52"/>
				<circle fill="#012B48" cx="1518.62" cy="1202.08" r="2.52"/>
				<circle fill="#012B48" cx="1511.92" cy="1202.08" r="2.52"/>
				<circle fill="#012B48" cx="1717.8" cy="1043.1" r="2.52"/>
				<circle fill="#012B48" cx="1701.66" cy="995.55" r="2.52"/>
				<circle fill="#012B48" cx="1699.14" cy="992.3" r="2.52"/>
				<circle fill="#012B48" cx="1696.68" cy="989.77" r="2.52"/>
				<circle fill="#012B48" cx="1749.76" cy="1007.52" r="2.52"/>
				<circle fill="#012B48" cx="1783.4" cy="1063.35" r="2.52"/>
				<circle fill="#012B48" cx="1785.28" cy="1066.81" r="2.52"/>
				<circle fill="#012B48" cx="1786.86" cy="1069.34" r="2.52"/>
				<circle fill="#012B48" cx="1792.05" cy="1010.04" r="2.52"/>
				<circle fill="#012B48" cx="1839.7" cy="1020.58" r="2.52"/>
				<circle fill="#012B48" cx="1842.39" cy="1023.11" r="2.52"/>
				<circle fill="#012B48" cx="1844.91" cy="1025.63" r="2.52"/>
				<circle fill="#012B48" cx="1807.88" cy="969.77" r="2.52"/>
				<circle fill="#012B48" cx="1753.87" cy="955.56" r="2.52"/>
				<circle fill="#012B48" cx="1751.35" cy="954.12" r="2.52"/>
				<circle fill="#012B48" cx="1748.82" cy="953.03" r="2.52"/>
				<circle fill="#012B48" cx="1760.33" cy="941.62" r="2.52"/>
				<circle fill="#012B48" cx="1757.34" cy="941.62" r="2.52"/>
				<circle fill="#012B48" cx="1754.18" cy="941.72" r="2.52"/>
				<circle fill="#012B48" cx="1760.39" cy="933.22" r="2.52"/>
				<circle fill="#012B48" cx="1757.86" cy="933.22" r="2.52"/>
				<circle fill="#012B48" cx="1755.28" cy="933.22" r="2.52"/>
				<circle fill="#012B48" cx="1871.99" cy="978.79" r="2.52"/>
				<circle fill="#012B48" cx="1874.52" cy="981.32" r="2.52"/>
				<circle fill="#012B48" cx="1877.04" cy="982.82" r="2.52"/>
				<circle fill="#012B48" cx="1824.68" cy="933.22" r="2.52"/>
				<circle fill="#012B48" cx="1885.92" cy="930.69" r="2.52"/>
				<circle fill="#012B48" cx="1889.38" cy="930.69" r="2.52"/>
				<circle fill="#012B48" cx="1892.34" cy="931.03" r="2.52"/>
				<circle fill="#012B48" cx="1880.87" cy="884.44" r="2.52"/>
				<circle fill="#012B48" cx="1884.77" cy="883.8" r="2.52"/>
				<circle fill="#012B48" cx="1889.82" cy="883.8" r="2.52"/>
				<circle fill="#012B48" cx="1811.62" cy="878.75" r="2.52"/>
				<circle fill="#012B48" cx="1855.7" cy="833.79" r="2.52"/>
				<circle fill="#012B48" cx="1859.27" cy="831.26" r="2.52"/>
				<circle fill="#012B48" cx="1861.8" cy="829.68" r="2.52"/>
				<circle fill="#012B48" cx="1824.55" cy="808.15" r="2.52"/>
				<circle fill="#012B48" cx="1826.21" cy="805.47" r="2.52"/>
				<circle fill="#012B48" cx="1828.73" cy="802.95" r="2.52"/>
				<circle fill="#012B48" cx="1789.52" cy="849.22" r="2.52"/>
				<circle fill="#012B48" cx="1749.47" cy="895.33" r="2.52"/>
				<circle fill="#012B48" cx="1746.95" cy="897.86" r="2.52"/>
				<circle fill="#012B48" cx="1744.42" cy="900.38" r="2.52"/>
				<circle fill="#012B48" cx="1716.56" cy="879.69" r="2.52"/>
				<circle fill="#012B48" cx="1716.56" cy="882.21" r="2.52"/>
				<circle fill="#012B48" cx="1716.56" cy="884.73" r="2.52"/>
				<circle fill="#012B48" cx="1727.11" cy="820.13" r="2.52"/>
				<circle fill="#012B48" cx="1733.84" cy="782.6" r="2.52"/>
				<circle fill="#012B48" cx="1733.84" cy="779.05" r="2.52"/>
				<circle fill="#012B48" cx="1733.84" cy="775.41" r="2.52"/>
				<circle fill="#012B48" cx="1707.65" cy="808" r="2.52"/>
				<circle fill="#012B48" cx="1661.4" cy="787.65" r="2.52"/>
				<circle fill="#012B48" cx="1659.81" cy="783.54" r="2.52"/>
				<circle fill="#012B48" cx="1658.23" cy="779.05" r="2.52"/>
				<circle fill="#012B48" cx="1677.87" cy="837.25" r="2.52"/>
				<circle fill="#012B48" cx="1686.73" cy="881.92" r="2.52"/>
				<circle fill="#012B48" cx="1687.7" cy="883.8" r="2.52"/>
				<circle fill="#012B48" cx="1689.58" cy="886.97" r="2.52"/>
				<circle fill="#012B48" cx="1665.85" cy="893.8" r="2.52"/>
				<circle fill="#012B48" cx="1668.38" cy="896.92" r="2.52"/>
				<circle fill="#012B48" cx="1670.9" cy="899.44" r="2.52"/>
				<circle fill="#012B48" cx="1632.08" cy="853.37" r="2.52"/>
				<circle fill="#012B48" cx="1596.62" cy="813.05" r="2.52"/>
				<circle fill="#012B48" cx="1594.09" cy="809.09" r="2.52"/>
				<circle fill="#012B48" cx="1591.83" cy="806.56" r="2.52"/>
				<circle fill="#012B48" cx="1591.83" cy="852.82" r="2.52"/>
				<circle fill="#012B48" cx="1614.35" cy="898.49" r="2.52"/>
				<circle fill="#012B48" cx="1577.93" cy="881.92" r="2.52"/>
				<circle fill="#012B48" cx="1557.82" cy="911.61" r="2.52"/>
				<circle fill="#012B48" cx="1571.24" cy="935.74" r="2.52"/>
				<circle fill="#012B48" cx="1633.54" cy="952.87" r="2.52"/>
				<circle fill="#012B48" cx="1602.07" cy="931.03" r="2.52"/>
				<circle fill="#012B48" cx="1645.41" cy="928.17" r="2.52"/>
				<circle fill="#012B48" cx="1649.81" cy="929.8" r="2.52"/>
				<circle fill="#012B48" cx="1652.34" cy="931.03" r="2.52"/>
				<circle fill="#012B48" cx="1649.81" cy="918.63" r="2.52"/>
				<circle fill="#012B48" cx="1653.27" cy="919.44" r="2.52"/>
				<circle fill="#012B48" cx="1656.07" cy="921.15" r="2.52"/>
				<circle fill="#012B48" cx="1642.89" cy="968.48" r="2.52"/>
				<circle fill="#012B48" cx="1645.59" cy="971.44" r="2.52"/>
				<circle fill="#012B48" cx="1647.94" cy="973.53" r="2.52"/>
				<circle fill="#012B48" cx="1527.59" cy="944.14" r="2.52"/>
				<circle fill="#012B48" cx="1524.03" cy="944.14" r="2.52"/>
				<circle fill="#012B48" cx="1520.57" cy="944.39" r="2.52"/>
				<circle fill="#012B48" cx="1527.59" cy="967.24" r="2.52"/>
				<circle fill="#012B48" cx="1524.03" cy="971.01" r="2.52"/>
				<circle fill="#012B48" cx="1521.51" cy="973.53" r="2.52"/>
				<circle fill="#012B48" cx="1537.47" cy="889.4" r="2.52"/>
				<circle fill="#012B48" cx="1533.61" cy="888.24" r="2.52"/>
				<circle fill="#012B48" cx="1530.11" cy="886.88" r="2.52"/>
				<circle fill="#012B48" cx="1549.77" cy="863.63" r="2.52"/>
				<circle fill="#012B48" cx="1545.66" cy="861.82" r="2.52"/>
				<circle fill="#012B48" cx="1542.52" cy="859.29" r="2.52"/>
				<circle fill="#012B48" cx="1758.78" cy="914.27" r="2.52"/>
				<circle fill="#012B48" cx="1755.28" cy="915.36" r="2.52"/>
				<circle fill="#012B48" cx="1752.75" cy="916.8" r="2.52"/>
				<circle fill="#012B48" cx="1763.18" cy="1217.74" r="2.52"/>
				<circle fill="#012B48" cx="1763.18" cy="1221.12" r="2.52"/>
				<circle fill="#012B48" cx="1763.18" cy="1223.64" r="2.52"/>
				<circle fill="#012B48" cx="1678.81" cy="1217.74" r="2.52"/>
				<circle fill="#012B48" cx="1678.81" cy="1221.12" r="2.52"/>
				<circle fill="#012B48" cx="1678.81" cy="1223.64" r="2.52"/>
				<circle fill="#012B48" cx="1586.96" cy="1176.64" r="2.52"/>
				<circle fill="#012B48" cx="1631.8" cy="1143.77" r="2.52"/>
				<circle fill="#012B48" cx="1567.73" cy="1141.25" r="2.52"/>
				<circle fill="#012B48" cx="1550.05" cy="1160.07" r="2.52"/>
				<circle fill="#012B48" cx="1547.53" cy="1176.23" r="2.52"/>
				<circle fill="#012B48" cx="1532.29" cy="1190.06" r="2.52"/>
				<circle fill="#012B48" cx="1529.76" cy="1202.08" r="2.52"/>
				<circle fill="#012B48" cx="1518.62" cy="1217.36" r="2.52"/>
				<circle fill="#012B48" cx="1515.16" cy="1220.27" r="2.52"/>
				<circle fill="#012B48" cx="1512.77" cy="1222.79" r="2.52"/>
				<g>
					<g>
						<path fill="none" stroke="#012B48" d="M1527.58,968.48c-6.79-117.96,66.7-185.89,182.18-185.89
							c104.37,0,175.39,43.85,175.39,135.25c0,109.93-107.46,144.51-188.36,193.92v0.62h194.53v104.99h-372.39
							c-2.47-41.38,9.88-77.2,30.88-106.22c35.82-50.02,97.58-82.75,152.54-116.1c22.23-13.59,58.05-30.88,58.05-62.37
							c0-38.91-22.85-52.49-51.88-52.49c-49.41,0-66.08,35.82-64.84,88.31H1527.58z"/>
					</g>
				</g>
				<g>
					<g>
						<path fill="none" stroke="#012B48" d="M1524.61,971.44c-9.32-125.79,73.17-193.58,186.89-193.51
							c107.07,0.07,179.92,53.34,178.04,138.74c-2.69,122.24-130.14,156.38-184.78,192.99c19.81-1.48,191.11,0,191.11,0v110.52
							h-380.14c-2.53-42.45,5.44-75.44,26.98-105.21c36.74-51.32,96.75-86.81,156.48-121.92c22.81-13.94,59.15-28.87,58.61-61.17
							c-0.51-30.65-17.81-49.77-47.58-50.1c-46.91-0.51-65.91,35.81-64.64,89.66H1524.61z"/>
					</g>
				</g>
				<g>
					<g>
						<path fill="none" stroke="#012B48" d="M1521.41,974.92c-9.4-126.87,69.01-200.82,188.51-200.82
							c107.99,0,184.19,53.94,183.35,142.76c-1.15,121.1-140.32,167.07-177.94,189.97c19.98-1.5,183.38,0,183.38,0v117.11h-386.24
							c-2.56-42.81,3.61-77.04,25.34-107.07c38.71-58.2,102.84-92.22,159.71-126.73c23-14.06,57.24-25.36,57.24-57.95
							c0-40.26-27.59-46.47-46.12-47.71c-38.31-2.56-63.22,33.41-60.5,90.44H1521.41z"/>
					</g>
				</g>
				<polyline fill="none" stroke="#012B48" points="1527.59,968.48 1634.26,952.87 1641.89,967.18 				"/>
				<polyline fill="none" stroke="#012B48" points="1527.59,968.48 1571,934.17 1634.26,952.87 1601.67,931.3 1647.01,928.24 				
					"/>
				<polyline fill="none" stroke="#012B48" points="1558.54,912.13 1602.07,931.24 1571.44,934.59 1558.54,911.75 1528.86,942.8 
					1571.1,934.21 				"/>
				<polyline fill="none" stroke="#012B48" points="1602.07,931.03 1613.17,898.29 1649.81,919.6 1592.03,852.82 1578.19,883.85 
					1539.07,889.04 				"/>
				<path fill="none" stroke="#012B48" d="M1613.17,894.4"/>
				<line fill="none" stroke="#012B48" x1="1613.13" y1="898.49" x2="1590.56" y2="853.37"/>
				<line fill="none" stroke="#012B48" x1="1590.56" y1="853.37" x2="1549.77" y2="863.63"/>
				<polyline fill="none" stroke="#012B48" points="1665.37,892.86 1591.83,852.22 1630.43,853.37 1665.37,892.86 1677.87,838.32 
					1630.43,853.37 1596.4,813.9 1591.83,852.22 1537.47,889.62 1557.58,910.67 1578.19,883.85 1613.17,898.23 1558.62,911.61 				
					"/>
				<polyline fill="none" stroke="#012B48" points="1597.78,812.56 1677.35,837.32 1661.1,787.04 1707.55,808.43 1677.91,836.38 
					1728.2,820.11 1708.07,808.13 1733.95,782.6 1727.72,819.53 1789.06,849.82 1733.95,782.6 				"/>
				<polyline fill="none" stroke="#012B48" points="1687.07,881.92 1678.39,838.38 1716.65,879.69 1727.11,820.13 				"/>
				<polyline fill="none" stroke="#012B48" points="1716.65,879.69 1788.06,850.94 1751.2,894.4 1804.92,880.69 1812.55,878.75 
					1789.06,850 1824.05,809.09 1812.07,877.81 1855.2,834.48 				"/>
				<polyline fill="none" stroke="#012B48" points="1760.33,913.63 1812.43,878.82 1824.53,933.22 1881.52,883.89 1813.09,878.75 
									"/>
				<polyline fill="none" stroke="#012B48" points="1759.41,913.35 1824.68,933.22 1760.39,933.22 				"/>
				<polyline fill="none" stroke="#012B48" points="1883.4,931.03 1824.53,933.22 1872.41,978.27 1760.37,940.92 1806.8,970.6 
					1870.92,978.79 				"/>
				<polyline fill="none" stroke="#012B48" points="1807.71,970.68 1754.08,956.3 1792.5,1010.38 1807.71,971.62 1839.86,1020.44 
					1792.28,1010.88 1782.35,1061.66 1749.76,1007.5 1793.76,1010.86 				"/>
				<polyline fill="none" stroke="#012B48" points="1753.58,957.34 1750.7,1008.34 1702.38,996.02 1780.87,1062.6 1717.65,1042.49 
					1701.81,996.04 1681.71,1056.39 1718.55,1042.59 1696.8,1112.38 1681.71,1056.97 1623.22,1076.62 1619.4,1047.76 
					1681.63,1056.37 				"/>
				<polyline fill="none" stroke="#012B48" points="1696.46,1110.98 1623.28,1076.62 1632.34,1143.61 1696.5,1112.98 
					1694.63,1132.11 1712.36,1129.69 1697.32,1113 1719.61,1127.32 1803.44,1112.38 1755.03,1149.84 1805.36,1182.91 1803.42,1114 
									"/>
				<polyline fill="none" stroke="#012B48" points="1694.09,1132.59 1632.34,1143.61 1688.4,1185.73 1741.62,1161.34 
					1712.44,1129.77 1720.93,1127.89 1755.39,1150.3 				"/>
				<line fill="none" stroke="#012B48" x1="1694.09" y1="1132.59" x2="1688.4" y2="1185.73"/>
				<polyline fill="none" stroke="#012B48" points="1754.74,1150.24 1741.91,1161.04 1805.28,1182.91 1749.76,1182.91 
					1741.85,1162.46 				"/>
				<polyline fill="none" stroke="#012B48" points="1749.76,1182.91 1688.43,1185.73 1763.18,1217.36 1750.43,1184.65 				"/>
				<polyline fill="none" stroke="#012B48" points="1765.58,1215.87 1804.62,1182.91 1890.53,1215.87 1839.86,1155.35 
					1889.59,1115.1 				"/>
				<polyline fill="none" stroke="#012B48" points="1804.1,1113.22 1839.7,1155.43 1805.98,1182.03 				"/>
				<polyline fill="none" stroke="#012B48" points="1688.4,1185.73 1678.59,1217.74 1620.14,1199.2 1688.4,1185.73 				"/>
				<polyline fill="none" stroke="#012B48" points="1632.34,1143.87 1621.08,1199.29 1585.96,1176.56 1631.8,1143.77 
					1567.88,1141.34 1549.55,1113.22 				"/>
				<polyline fill="none" stroke="#012B48" points="1566.88,1141.69 1534.81,1138.46 1549.91,1159.16 1568.82,1141.26 
					1585.96,1176.64 1550.55,1159.01 1547.39,1174.76 1584.86,1176.56 				"/>
				<polyline fill="none" stroke="#012B48" points="1523.23,1173.33 1546.97,1175.2 1532.52,1189.64 1520.08,1201.74 
					1529.46,1201.74 1532.94,1189.86 1585.08,1177.42 				"/>
				<polyline fill="none" stroke="#012B48" points="1532.94,1189.86 1620.54,1199.29 1529.46,1201.74 1519.98,1216.8 
					1620.54,1199.29 				"/>
				<line fill="none" stroke="#012B48" x1="1551.64" y1="1111.44" x2="1630.43" y2="1143.61"/>
				<path fill="#012B48" d="M1619.4,1046.82c0,0-32.94,23.59-40.88,31.67c-8.27,8.42-28.77,32-28.77,32l82.04,33.27L1619.4,1046.82z
					"/>
				<line fill="none" stroke="#012B48" x1="1634.19" y1="952.12" x2="1644.76" y2="928.86"/>
				<rect fill="none" width="3840" height="2160"/>
			</g>
		</g>
		<g>
			<g>
				<circle fill="#012B48" cx="2422.3" cy="1199.55" r="2.52"/>
				<circle fill="#012B48" cx="2489.95" cy="1185.73" r="2.52"/>
				<circle fill="#012B48" cx="2551.31" cy="1182.91" r="2.52"/>
				<circle fill="#012B48" cx="2543.41" cy="1161.1" r="2.52"/>
				<circle fill="#012B48" cx="2556.95" cy="1150.24" r="2.52"/>
				<circle fill="#012B48" cx="2606.83" cy="1183.2" r="2.52"/>
				<circle fill="#012B48" cx="2641.42" cy="1155.35" r="2.52"/>
				<circle fill="#012B48" cx="2692.88" cy="1113.22" r="2.52"/>
				<circle fill="#012B48" cx="2692.88" cy="1217.74" r="2.52"/>
				<circle fill="#012B48" cx="2697.44" cy="1221.12" r="2.52"/>
				<circle fill="#012B48" cx="2699.96" cy="1223.64" r="2.52"/>
				<circle fill="#012B48" cx="2697.44" cy="1109.85" r="2.52"/>
				<circle fill="#012B48" cx="2700.25" cy="1107.33" r="2.52"/>
				<circle fill="#012B48" cx="2604.71" cy="1112.38" r="2.52"/>
				<circle fill="#012B48" cx="2604.3" cy="1109.11" r="2.52"/>
				<circle fill="#012B48" cx="2604.3" cy="1106.58" r="2.52"/>
				<circle fill="#012B48" cx="2521.3" cy="1127.52" r="2.52"/>
				<circle fill="#012B48" cx="2513.34" cy="1130.05" r="2.52"/>
				<circle fill="#012B48" cx="2495.64" cy="1132.59" r="2.52"/>
				<circle fill="#012B48" cx="2498.16" cy="1112.28" r="2.52"/>
				<circle fill="#012B48" cx="2507.14" cy="1109.11" r="2.52"/>
				<circle fill="#012B48" cx="2515.87" cy="1106.58" r="2.52"/>
				<circle fill="#012B48" cx="2424.83" cy="1076.62" r="2.52"/>
				<circle fill="#012B48" cx="2482.89" cy="1056.51" r="2.52"/>
				<circle fill="#012B48" cx="2420.11" cy="1047.11" r="2.52"/>
				<circle fill="#012B48" cx="2418.43" cy="1044.04" r="2.52"/>
				<circle fill="#012B48" cx="2416.84" cy="1040.57" r="2.52"/>
				<circle fill="#012B48" cx="2398.81" cy="1059.89" r="2.52"/>
				<circle fill="#012B48" cx="2396.34" cy="1057.52" r="2.52"/>
				<circle fill="#012B48" cx="2394.41" cy="1054.92" r="2.52"/>
				<circle fill="#012B48" cx="2350.96" cy="1111.63" r="2.52"/>
				<circle fill="#012B48" cx="2348.43" cy="1109.85" r="2.52"/>
				<circle fill="#012B48" cx="2345.91" cy="1107.33" r="2.52"/>
				<circle fill="#012B48" cx="2336.37" cy="1137.38" r="2.52"/>
				<circle fill="#012B48" cx="2332.6" cy="1134.86" r="2.52"/>
				<circle fill="#012B48" cx="2329.14" cy="1132.85" r="2.52"/>
				<circle fill="#012B48" cx="2322.7" cy="1173.71" r="2.52"/>
				<circle fill="#012B48" cx="2319.37" cy="1172.39" r="2.52"/>
				<circle fill="#012B48" cx="2315.99" cy="1171.59" r="2.52"/>
				<circle fill="#012B48" cx="2316.84" cy="1202.08" r="2.52"/>
				<circle fill="#012B48" cx="2320.17" cy="1202.08" r="2.52"/>
				<circle fill="#012B48" cx="2313.47" cy="1202.08" r="2.52"/>
				<circle fill="#012B48" cx="2519.36" cy="1043.1" r="2.52"/>
				<circle fill="#012B48" cx="2503.21" cy="995.55" r="2.52"/>
				<circle fill="#012B48" cx="2500.69" cy="992.3" r="2.52"/>
				<circle fill="#012B48" cx="2498.23" cy="989.77" r="2.52"/>
				<circle fill="#012B48" cx="2551.31" cy="1007.52" r="2.52"/>
				<circle fill="#012B48" cx="2584.95" cy="1063.35" r="2.52"/>
				<circle fill="#012B48" cx="2586.83" cy="1066.81" r="2.52"/>
				<circle fill="#012B48" cx="2588.41" cy="1069.34" r="2.52"/>
				<circle fill="#012B48" cx="2593.6" cy="1010.04" r="2.52"/>
				<circle fill="#012B48" cx="2641.26" cy="1020.58" r="2.52"/>
				<circle fill="#012B48" cx="2643.94" cy="1023.11" r="2.52"/>
				<circle fill="#012B48" cx="2646.46" cy="1025.63" r="2.52"/>
				<circle fill="#012B48" cx="2609.43" cy="969.77" r="2.52"/>
				<circle fill="#012B48" cx="2555.42" cy="955.56" r="2.52"/>
				<circle fill="#012B48" cx="2552.9" cy="954.12" r="2.52"/>
				<circle fill="#012B48" cx="2550.38" cy="953.03" r="2.52"/>
				<circle fill="#012B48" cx="2561.88" cy="941.62" r="2.52"/>
				<circle fill="#012B48" cx="2558.89" cy="941.62" r="2.52"/>
				<circle fill="#012B48" cx="2555.73" cy="941.72" r="2.52"/>
				<circle fill="#012B48" cx="2561.94" cy="933.22" r="2.52"/>
				<circle fill="#012B48" cx="2559.41" cy="933.22" r="2.52"/>
				<circle fill="#012B48" cx="2556.83" cy="933.22" r="2.52"/>
				<circle fill="#012B48" cx="2673.55" cy="978.79" r="2.52"/>
				<circle fill="#012B48" cx="2676.07" cy="981.32" r="2.52"/>
				<circle fill="#012B48" cx="2678.6" cy="982.82" r="2.52"/>
				<circle fill="#012B48" cx="2626.23" cy="933.22" r="2.52"/>
				<circle fill="#012B48" cx="2687.47" cy="930.69" r="2.52"/>
				<circle fill="#012B48" cx="2690.94" cy="930.69" r="2.52"/>
				<circle fill="#012B48" cx="2693.9" cy="931.03" r="2.52"/>
				<circle fill="#012B48" cx="2682.42" cy="884.44" r="2.52"/>
				<circle fill="#012B48" cx="2686.32" cy="883.8" r="2.52"/>
				<circle fill="#012B48" cx="2691.37" cy="883.8" r="2.52"/>
				<circle fill="#012B48" cx="2613.17" cy="878.75" r="2.52"/>
				<circle fill="#012B48" cx="2657.25" cy="833.79" r="2.52"/>
				<circle fill="#012B48" cx="2660.83" cy="831.26" r="2.52"/>
				<circle fill="#012B48" cx="2663.35" cy="829.68" r="2.52"/>
				<circle fill="#012B48" cx="2626.1" cy="808.15" r="2.52"/>
				<circle fill="#012B48" cx="2627.76" cy="805.47" r="2.52"/>
				<circle fill="#012B48" cx="2630.28" cy="802.95" r="2.52"/>
				<circle fill="#012B48" cx="2591.07" cy="849.22" r="2.52"/>
				<circle fill="#012B48" cx="2551.02" cy="895.33" r="2.52"/>
				<circle fill="#012B48" cx="2548.5" cy="897.86" r="2.52"/>
				<circle fill="#012B48" cx="2545.97" cy="900.38" r="2.52"/>
				<circle fill="#012B48" cx="2518.11" cy="879.69" r="2.52"/>
				<circle fill="#012B48" cx="2518.11" cy="882.21" r="2.52"/>
				<circle fill="#012B48" cx="2518.11" cy="884.73" r="2.52"/>
				<circle fill="#012B48" cx="2528.66" cy="820.13" r="2.52"/>
				<circle fill="#012B48" cx="2535.39" cy="782.6" r="2.52"/>
				<circle fill="#012B48" cx="2535.39" cy="779.05" r="2.52"/>
				<circle fill="#012B48" cx="2535.39" cy="775.41" r="2.52"/>
				<circle fill="#012B48" cx="2509.2" cy="808" r="2.52"/>
				<circle fill="#012B48" cx="2462.95" cy="787.65" r="2.52"/>
				<circle fill="#012B48" cx="2461.36" cy="783.54" r="2.52"/>
				<circle fill="#012B48" cx="2459.78" cy="779.05" r="2.52"/>
				<circle fill="#012B48" cx="2479.43" cy="837.25" r="2.52"/>
				<circle fill="#012B48" cx="2488.28" cy="881.92" r="2.52"/>
				<circle fill="#012B48" cx="2489.25" cy="883.8" r="2.52"/>
				<circle fill="#012B48" cx="2491.13" cy="886.97" r="2.52"/>
				<circle fill="#012B48" cx="2467.4" cy="893.8" r="2.52"/>
				<circle fill="#012B48" cx="2469.93" cy="896.92" r="2.52"/>
				<circle fill="#012B48" cx="2472.45" cy="899.44" r="2.52"/>
				<circle fill="#012B48" cx="2433.64" cy="853.37" r="2.52"/>
				<circle fill="#012B48" cx="2398.17" cy="813.05" r="2.52"/>
				<circle fill="#012B48" cx="2395.65" cy="809.09" r="2.52"/>
				<circle fill="#012B48" cx="2393.38" cy="806.56" r="2.52"/>
				<circle fill="#012B48" cx="2393.38" cy="852.82" r="2.52"/>
				<circle fill="#012B48" cx="2415.9" cy="898.49" r="2.52"/>
				<circle fill="#012B48" cx="2379.48" cy="881.92" r="2.52"/>
				<circle fill="#012B48" cx="2359.37" cy="911.61" r="2.52"/>
				<circle fill="#012B48" cx="2372.79" cy="935.74" r="2.52"/>
				<circle fill="#012B48" cx="2435.09" cy="952.87" r="2.52"/>
				<circle fill="#012B48" cx="2403.62" cy="931.03" r="2.52"/>
				<circle fill="#012B48" cx="2446.96" cy="928.17" r="2.52"/>
				<circle fill="#012B48" cx="2451.36" cy="929.8" r="2.52"/>
				<circle fill="#012B48" cx="2453.89" cy="931.03" r="2.52"/>
				<circle fill="#012B48" cx="2451.36" cy="918.63" r="2.52"/>
				<circle fill="#012B48" cx="2454.83" cy="919.44" r="2.52"/>
				<circle fill="#012B48" cx="2457.62" cy="921.15" r="2.52"/>
				<circle fill="#012B48" cx="2444.44" cy="968.48" r="2.52"/>
				<circle fill="#012B48" cx="2447.15" cy="971.44" r="2.52"/>
				<circle fill="#012B48" cx="2449.49" cy="973.53" r="2.52"/>
				<circle fill="#012B48" cx="2329.14" cy="944.14" r="2.52"/>
				<circle fill="#012B48" cx="2325.58" cy="944.14" r="2.52"/>
				<circle fill="#012B48" cx="2322.12" cy="944.39" r="2.52"/>
				<circle fill="#012B48" cx="2329.14" cy="967.24" r="2.52"/>
				<circle fill="#012B48" cx="2325.58" cy="971.01" r="2.52"/>
				<circle fill="#012B48" cx="2323.06" cy="973.53" r="2.52"/>
				<circle fill="#012B48" cx="2339.02" cy="889.4" r="2.52"/>
				<circle fill="#012B48" cx="2335.17" cy="888.24" r="2.52"/>
				<circle fill="#012B48" cx="2331.66" cy="886.88" r="2.52"/>
				<circle fill="#012B48" cx="2351.32" cy="863.63" r="2.52"/>
				<circle fill="#012B48" cx="2347.21" cy="861.82" r="2.52"/>
				<circle fill="#012B48" cx="2344.07" cy="859.29" r="2.52"/>
				<circle fill="#012B48" cx="2560.33" cy="914.27" r="2.52"/>
				<circle fill="#012B48" cx="2556.83" cy="915.36" r="2.52"/>
				<circle fill="#012B48" cx="2554.31" cy="916.8" r="2.52"/>
				<circle fill="#012B48" cx="2564.73" cy="1217.74" r="2.52"/>
				<circle fill="#012B48" cx="2564.73" cy="1221.12" r="2.52"/>
				<circle fill="#012B48" cx="2564.73" cy="1223.64" r="2.52"/>
				<circle fill="#012B48" cx="2480.36" cy="1217.74" r="2.52"/>
				<circle fill="#012B48" cx="2480.36" cy="1221.12" r="2.52"/>
				<circle fill="#012B48" cx="2480.36" cy="1223.64" r="2.52"/>
				<circle fill="#012B48" cx="2388.52" cy="1176.64" r="2.52"/>
				<circle fill="#012B48" cx="2433.36" cy="1143.77" r="2.52"/>
				<circle fill="#012B48" cx="2369.29" cy="1141.25" r="2.52"/>
				<circle fill="#012B48" cx="2351.6" cy="1160.07" r="2.52"/>
				<circle fill="#012B48" cx="2349.08" cy="1176.23" r="2.52"/>
				<circle fill="#012B48" cx="2333.84" cy="1190.06" r="2.52"/>
				<circle fill="#012B48" cx="2331.32" cy="1202.08" r="2.52"/>
				<circle fill="#012B48" cx="2320.17" cy="1217.36" r="2.52"/>
				<circle fill="#012B48" cx="2316.71" cy="1220.27" r="2.52"/>
				<circle fill="#012B48" cx="2314.32" cy="1222.79" r="2.52"/>
				<g>
					<g>
						<path fill="none" stroke="#012B48" d="M2329.14,968.48c-6.79-117.96,66.7-185.89,182.18-185.89
							c104.37,0,175.39,43.85,175.39,135.25c0,109.93-107.46,144.51-188.36,193.92v0.62h194.53v104.99h-372.39
							c-2.47-41.38,9.88-77.2,30.88-106.22c35.82-50.02,97.58-82.75,152.54-116.1c22.23-13.59,58.05-30.88,58.05-62.37
							c0-38.91-22.85-52.49-51.88-52.49c-49.41,0-66.08,35.82-64.84,88.31H2329.14z"/>
					</g>
				</g>
				<g>
					<g>
						<path fill="none" stroke="#012B48" d="M2326.17,971.44c-9.32-125.79,73.17-193.58,186.89-193.51
							c107.07,0.07,179.92,53.34,178.04,138.74c-2.69,122.24-130.14,156.38-184.78,192.99c19.81-1.48,191.11,0,191.11,0v110.52
							H2317.3c-2.53-42.45,5.44-75.44,26.98-105.21c36.74-51.32,96.75-86.81,156.48-121.92c22.81-13.94,59.15-28.87,58.61-61.17
							c-0.51-30.65-17.81-49.77-47.58-50.1c-46.91-0.51-65.91,35.81-64.64,89.66H2326.17z"/>
					</g>
				</g>
				<g>
					<g>
						<path fill="none" stroke="#012B48" d="M2322.96,974.92c-9.4-126.87,69.01-200.82,188.51-200.82
							c107.99,0,184.19,53.94,183.35,142.76c-1.15,121.1-140.32,167.07-177.94,189.97c19.98-1.5,183.38,0,183.38,0v117.11h-386.24
							c-2.56-42.81,3.61-77.04,25.34-107.07c38.71-58.2,102.84-92.22,159.71-126.73c23-14.06,57.24-25.36,57.24-57.95
							c0-40.26-27.59-46.47-46.12-47.71c-38.31-2.56-63.22,33.41-60.5,90.44H2322.96z"/>
					</g>
				</g>
				<polyline fill="none" stroke="#012B48" points="2329.14,968.48 2435.81,952.87 2443.44,967.18 				"/>
				<polyline fill="none" stroke="#012B48" points="2329.14,968.48 2372.55,934.17 2435.81,952.87 2403.22,931.3 2448.57,928.24 
									"/>
				<polyline fill="none" stroke="#012B48" points="2360.09,912.13 2403.62,931.24 2372.99,934.59 2360.09,911.75 2330.41,942.8 
					2372.65,934.21 				"/>
				<polyline fill="none" stroke="#012B48" points="2403.62,931.03 2414.72,898.29 2451.36,919.6 2393.58,852.82 2379.74,883.85 
					2340.63,889.04 				"/>
				<path fill="none" stroke="#012B48" d="M2414.72,894.4"/>
				<line fill="none" stroke="#012B48" x1="2414.68" y1="898.49" x2="2392.11" y2="853.37"/>
				<line fill="none" stroke="#012B48" x1="2392.11" y1="853.37" x2="2351.32" y2="863.63"/>
				<polyline fill="none" stroke="#012B48" points="2466.92,892.86 2393.38,852.22 2431.98,853.37 2466.92,892.86 2479.43,838.32 
					2431.98,853.37 2397.95,813.9 2393.38,852.22 2339.02,889.62 2359.13,910.67 2379.74,883.85 2414.72,898.23 2360.17,911.61 				
					"/>
				<polyline fill="none" stroke="#012B48" points="2399.33,812.56 2478.91,837.32 2462.65,787.04 2509.1,808.43 2479.47,836.38 
					2529.75,820.11 2509.62,808.13 2535.5,782.6 2529.27,819.53 2590.61,849.82 2535.5,782.6 				"/>
				<polyline fill="none" stroke="#012B48" points="2488.62,881.92 2479.94,838.38 2518.21,879.69 2528.66,820.13 				"/>
				<polyline fill="none" stroke="#012B48" points="2518.21,879.69 2589.62,850.94 2552.75,894.4 2606.47,880.69 2614.1,878.75 
					2590.61,850 2625.6,809.09 2613.62,877.81 2656.75,834.48 				"/>
				<polyline fill="none" stroke="#012B48" points="2561.88,913.63 2613.98,878.82 2626.08,933.22 2683.07,883.89 2614.64,878.75 
									"/>
				<polyline fill="none" stroke="#012B48" points="2560.97,913.35 2626.23,933.22 2561.94,933.22 				"/>
				<polyline fill="none" stroke="#012B48" points="2684.95,931.03 2626.08,933.22 2673.97,978.27 2561.92,940.92 2608.35,970.6 
					2672.47,978.79 				"/>
				<polyline fill="none" stroke="#012B48" points="2609.27,970.68 2555.63,956.3 2594.05,1010.38 2609.27,971.62 2641.42,1020.44 
					2593.83,1010.88 2583.9,1061.66 2551.31,1007.5 2595.31,1010.86 				"/>
				<polyline fill="none" stroke="#012B48" points="2555.13,957.34 2552.25,1008.34 2503.93,996.02 2582.43,1062.6 2519.2,1042.49 
					2503.37,996.04 2483.26,1056.39 2520.1,1042.59 2498.35,1112.38 2483.26,1056.97 2424.77,1076.62 2420.96,1047.76 
					2483.18,1056.37 				"/>
				<polyline fill="none" stroke="#012B48" points="2498.02,1110.98 2424.83,1076.62 2433.9,1143.61 2498.06,1112.98 
					2496.18,1132.11 2513.91,1129.69 2498.88,1113 2521.16,1127.32 2604.99,1112.38 2556.59,1149.84 2606.91,1182.91 2604.97,1114 
									"/>
				<polyline fill="none" stroke="#012B48" points="2495.64,1132.59 2433.9,1143.61 2489.95,1185.73 2543.17,1161.34 
					2513.99,1129.77 2522.48,1127.89 2556.95,1150.3 				"/>
				<line fill="none" stroke="#012B48" x1="2495.64" y1="1132.59" x2="2489.95" y2="1185.73"/>
				<polyline fill="none" stroke="#012B48" points="2556.29,1150.24 2543.47,1161.04 2606.83,1182.91 2551.31,1182.91 
					2543.41,1162.46 				"/>
				<polyline fill="none" stroke="#012B48" points="2551.31,1182.91 2489.98,1185.73 2564.73,1217.36 2551.99,1184.65 				"/>
				<polyline fill="none" stroke="#012B48" points="2567.13,1215.87 2606.17,1182.91 2692.08,1215.87 2641.42,1155.35 
					2691.14,1115.1 				"/>
				<polyline fill="none" stroke="#012B48" points="2605.65,1113.22 2641.26,1155.43 2607.53,1182.03 				"/>
				<polyline fill="none" stroke="#012B48" points="2489.95,1185.73 2480.14,1217.74 2421.69,1199.2 2489.95,1185.73 				"/>
				<polyline fill="none" stroke="#012B48" points="2433.9,1143.87 2422.63,1199.29 2387.51,1176.56 2433.36,1143.77 
					2369.43,1141.34 2351.1,1113.22 				"/>
				<polyline fill="none" stroke="#012B48" points="2368.44,1141.69 2336.37,1138.46 2351.46,1159.16 2370.37,1141.26 
					2387.51,1176.64 2352.1,1159.01 2348.95,1174.76 2386.41,1176.56 				"/>
				<polyline fill="none" stroke="#012B48" points="2324.78,1173.33 2348.53,1175.2 2334.07,1189.64 2321.63,1201.74 
					2331.01,1201.74 2334.49,1189.86 2386.63,1177.42 				"/>
				<polyline fill="none" stroke="#012B48" points="2334.49,1189.86 2422.09,1199.29 2331.01,1201.74 2321.53,1216.8 
					2422.09,1199.29 				"/>
				<line fill="none" stroke="#012B48" x1="2353.19" y1="1111.44" x2="2431.98" y2="1143.61"/>
				<path fill="#012B48" d="M2420.96,1046.82c0,0-32.94,23.59-40.88,31.67c-8.27,8.42-28.77,32-28.77,32l82.04,33.27
					L2420.96,1046.82z"/>
				<line fill="none" stroke="#012B48" x1="2435.74" y1="952.12" x2="2446.32" y2="928.86"/>
				<rect fill="none" width="3840" height="2160"/>
			</g>
		</g>
		<g>
			<g>
				<polyline fill="none" stroke="#012B48" points="2138.81,785.12 2092.8,819.63 2128.72,826.22 2115.8,876.22 2092.8,820.19 
					2086.57,878.75 2058.77,816.21 2078.42,785.12 2092.3,819.96 				"/>
				<polyline fill="none" stroke="#012B48" points="2128.72,826.24 2138.81,784.74 2146.48,857.47 2128.8,827.51 				"/>
				<polyline fill="none" stroke="#012B48" points="2138.81,785.12 2186.74,876.22 2146.48,858.01 2153.19,897.86 2186.7,875.93 
					2222.18,905.98 2155.16,899.44 				"/>
				<polyline fill="none" stroke="#012B48" points="2196.8,806.12 2187.44,874.83 2238.91,840.01 				"/>
				<polyline fill="none" stroke="#012B48" points="2187.2,875.93 2279.67,912.4 2222.18,905.98 2202.05,946.13 2278.65,913.04 
					2249.52,953.03 2201.59,946.18 2170.02,936.38 				"/>
				<polyline fill="none" stroke="#012B48" points="2201.51,946.76 2175.71,976.27 2249,953.58 2233.7,985.34 2288.8,964.83 
					2249.6,953.18 				"/>
				<polyline fill="none" stroke="#012B48" points="2234.54,985.34 2174.77,976.54 2212.24,1032.98 2234.13,985.08 				"/>
				<polyline fill="none" stroke="#012B48" points="2289.89,965.37 2213.13,1032.98 2286.4,1060.83 2216.89,1070.28 
					2212.24,1032.98 2172.9,1055.89 2216.93,1070.92 2205.93,1122.56 2171.96,1056.03 				"/>
				<polyline fill="none" stroke="#012B48" points="2286.58,1061.46 2205.93,1122.56 2247.6,1154.28 2196.56,1159.31 
					2205.93,1122.56 2159.9,1098.56 2196.56,1159.31 2138.81,1219.34 2159.84,1098.18 				"/>
				<polyline fill="none" stroke="#012B48" points="2124.67,1127.32 2145.75,1174.97 2132.94,1183.89 2124.67,1127.32 
					2086.57,1186.27 2132.94,1183.89 				"/>
				<polyline fill="none" stroke="#012B48" points="2133.66,1184.09 2137.83,1219.53 2085.69,1185.97 2092.9,1127.32 
					2045.29,1164.54 2077.72,1218.39 2085.63,1186.27 2045.29,1164.58 				"/>
				<polyline fill="none" stroke="#012B48" points="2063.78,1104.8 1991.44,1118.93 2044.35,1027.17 1984.73,1070.78 
					1991.44,1118.93 1934.14,1069.81 1983.76,1070.55 1930.07,1040.57 1963.62,1036.5 1984.73,1070.78 				"/>
				<polyline fill="none" stroke="#012B48" points="1963.92,1036.48 2043.38,1027.4 1999.1,1013.99 1963.62,1036.5 1927.49,1002.31 
					1999.27,1013.75 1966.75,993.36 1927.99,1001.76 1966.51,973.71 1966.27,993.54 2043.38,976.54 1999.36,1013.71 
					2043.38,1001.51 				"/>
				<polyline fill="none" stroke="#012B48" points="1928.19,970.6 1967.47,973.67 1936.86,920.51 1979.25,959.1 1966.81,973.67 
					2043.38,976.54 1979.27,959.3 2012.28,939.69 1936.86,920.51 1999.82,918.12 2011.56,939.39 2046.23,949.5 				"/>
				<polyline fill="none" stroke="#012B48" points="1936.86,920.51 1990.98,881.27 1998.88,917.86 2053.98,916.2 1991.48,880.18 
					2024.26,878.75 2054.18,916.14 				"/>
				<polyline fill="none" stroke="#012B48" points="1958.85,872.83 1991.62,880.18 2004.38,817.73 2024.5,878.75 2036.99,854.38 
					2004.64,816.99 2041.04,828.5 2037.46,854.08 2070.42,891.98 				"/>
				<polyline fill="none" stroke="#012B48" points="2048.25,794.01 2058.77,816.21 2040.8,828.95 2086.63,880.18 				"/>
				<polyline fill="none" stroke="#012B48" points="1990.96,1118.81 1990.96,1175.98 2045.25,1164.48 				"/>
				<path fill="#012B48" d="M2063.96,1105.07l-73.01,13.74l-0.2,57.43l54.5-12.06l48.41-37.8c0,0-14.08-5.01-19.11-9.33
					S2063.96,1105.07,2063.96,1105.07z"/>
				<g>
					<g>
						<path fill="none" stroke="#012B48" d="M2108.89,782.59c78.43,0,183.42,53.73,183.42,219.85s-104.99,219.85-182.8,219.85
							c-77.81,0-182.8-53.73-182.8-219.85S2031.7,782.59,2108.89,782.59z M2108.89,1127.82c62.99,0,66.08-79.67,66.08-125.37
							c0-44.46-3.09-125.37-64.84-125.37c-63.61,0-66.08,79.05-66.08,125.37C2044.05,1047.53,2046.52,1127.82,2108.89,1127.82z"/>
					</g>
				</g>
				<g>
					<g>
						<path fill="none" stroke="#012B48" d="M2109.11,777.85c79.95,0,186.96,54.77,186.96,224.1c0,169.34-107.02,224.1-186.33,224.1
							s-186.33-54.77-186.33-224.1C1923.41,832.62,2030.42,777.85,2109.11,777.85z M2109.4,1124.44c61.37,0,62.5-77.61,62.5-122.13
							c0-43.32-1.13-122.13-61.29-122.13c-61.97,0-64.37,77.01-64.37,122.13C2046.23,1046.23,2048.64,1124.44,2109.4,1124.44z"/>
					</g>
				</g>
				<g>
					<g>
						<path fill="none" stroke="#012B48" d="M2108.93,772.88c81.65,0,190.95,55.93,190.95,228.88
							c0,172.95-109.3,228.88-190.31,228.88c-81.01,0-190.3-55.93-190.3-228.88C1919.27,828.81,2028.57,772.88,2108.93,772.88z
							 M2109.34,1120.69c59.48,0,60.58-75.23,60.58-118.39c0-41.99-1.1-118.39-59.41-118.39c-60.07,0-62.4,74.65-62.4,118.39
							C2048.11,1044.87,2050.44,1120.69,2109.34,1120.69z"/>
					</g>
				</g>
				<circle fill="#012B48" cx="2043.38" cy="976.54" r="2.52"/>
				<circle fill="#012B48" cx="2045.9" cy="976.54" r="2.52"/>
				<circle fill="#012B48" cx="2048.42" cy="976.54" r="2.52"/>
				<circle fill="#012B48" cx="2043.38" cy="1001.36" r="2.52"/>
				<circle fill="#012B48" cx="2045.9" cy="1001.36" r="2.52"/>
				<circle fill="#012B48" cx="2048.42" cy="1001.36" r="2.52"/>
				<circle fill="#012B48" cx="2045.25" cy="1027.17" r="2.52"/>
				<circle fill="#012B48" cx="2047.78" cy="1027.17" r="2.52"/>
				<circle fill="#012B48" cx="2050.3" cy="1027.17" r="2.52"/>
				<circle fill="#012B48" cx="1984.73" cy="1070.78" r="2.52"/>
				<circle fill="#012B48" cx="1999.58" cy="1013.73" r="2.52"/>
				<circle fill="#012B48" cx="1966.75" cy="993.36" r="2.52"/>
				<circle fill="#012B48" cx="1963.92" cy="1036.48" r="2.52"/>
				<circle fill="#012B48" cx="1927.49" cy="1002.31" r="2.52"/>
				<circle fill="#012B48" cx="1923.41" cy="1001.96" r="2.52"/>
				<circle fill="#012B48" cx="1919.27" cy="1001.36" r="2.52"/>
				<circle fill="#012B48" cx="1929.08" cy="1040.5" r="2.52"/>
				<circle fill="#012B48" cx="1924.97" cy="1040.5" r="2.52"/>
				<circle fill="#012B48" cx="1920.88" cy="1041.44" r="2.52"/>
				<circle fill="#012B48" cx="1932.59" cy="1069.09" r="2.52"/>
				<circle fill="#012B48" cx="1990.96" cy="1118.16" r="2.52"/>
				<circle fill="#012B48" cx="1990.02" cy="1175.98" r="2.52"/>
				<circle fill="#012B48" cx="1987.49" cy="1178.51" r="2.52"/>
				<circle fill="#012B48" cx="1984.97" cy="1181.03" r="2.52"/>
				<circle fill="#012B48" cx="2045.9" cy="1164.98" r="2.52"/>
				<circle fill="#012B48" cx="2063.78" cy="1104.8" r="2.52"/>
				<circle fill="#012B48" cx="2066.31" cy="1102.55" r="2.52"/>
				<circle fill="#012B48" cx="2068.83" cy="1100.02" r="2.52"/>
				<circle fill="#012B48" cx="2093.66" cy="1126.38" r="2.52"/>
				<circle fill="#012B48" cx="2085.63" cy="1186.27" r="2.52"/>
				<circle fill="#012B48" cx="2077.94" cy="1219.34" r="2.52"/>
				<circle fill="#012B48" cx="2077.94" cy="1223.53" r="2.52"/>
				<circle fill="#012B48" cx="2077.94" cy="1227.75" r="2.52"/>
				<circle fill="#012B48" cx="2138.81" cy="1220.07" r="2.52"/>
				<circle fill="#012B48" cx="2138.81" cy="1223.53" r="2.52"/>
				<circle fill="#012B48" cx="2138.81" cy="1227.75" r="2.52"/>
				<circle fill="#012B48" cx="2132.94" cy="1183.89" r="2.52"/>
				<circle fill="#012B48" cx="2145.75" cy="1173.42" r="2.52"/>
				<circle fill="#012B48" cx="2124.67" cy="1125.44" r="2.52"/>
				<circle fill="#012B48" cx="2124.67" cy="1121.63" r="2.52"/>
				<circle fill="#012B48" cx="2124.67" cy="1119.1" r="2.52"/>
				<circle fill="#012B48" cx="2158.7" cy="1097.5" r="2.52"/>
				<circle fill="#012B48" cx="2156.17" cy="1095.93" r="2.52"/>
				<circle fill="#012B48" cx="2153.65" cy="1094.97" r="2.52"/>
				<circle fill="#012B48" cx="2196.56" cy="1159.31" r="2.52"/>
				<circle fill="#012B48" cx="2205.6" cy="1122.56" r="2.52"/>
				<circle fill="#012B48" cx="2247.6" cy="1154.28" r="2.52"/>
				<circle fill="#012B48" cx="2251.68" cy="1156.78" r="2.52"/>
				<circle fill="#012B48" cx="2255.75" cy="1159.31" r="2.52"/>
				<circle fill="#012B48" cx="2216.89" cy="1070.28" r="2.52"/>
				<circle fill="#012B48" cx="2286.58" cy="1061.46" r="2.52"/>
				<circle fill="#012B48" cx="2291.32" cy="1061.46" r="2.52"/>
				<circle fill="#012B48" cx="2296.07" cy="1061.46" r="2.52"/>
				<circle fill="#012B48" cx="2171.96" cy="1056.03" r="2.52"/>
				<circle fill="#012B48" cx="2169.43" cy="1056.03" r="2.52"/>
				<circle fill="#012B48" cx="2165.89" cy="1056.03" r="2.52"/>
				<circle fill="#012B48" cx="2212.52" cy="1032.98" r="2.52"/>
				<circle fill="#012B48" cx="2234.13" cy="985.08" r="2.52"/>
				<circle fill="#012B48" cx="2289.89" cy="965.37" r="2.52"/>
				<circle fill="#012B48" cx="2293.85" cy="965.37" r="2.52"/>
				<circle fill="#012B48" cx="2298.6" cy="965.37" r="2.52"/>
				<circle fill="#012B48" cx="2248.99" cy="953.03" r="2.52"/>
				<circle fill="#012B48" cx="2202.13" cy="946.76" r="2.52"/>
				<circle fill="#012B48" cx="2279.67" cy="911.96" r="2.52"/>
				<circle fill="#012B48" cx="2284.06" cy="910.69" r="2.52"/>
				<circle fill="#012B48" cx="2286.58" cy="909.43" r="2.52"/>
				<circle fill="#012B48" cx="2221.94" cy="905.98" r="2.52"/>
				<circle fill="#012B48" cx="2169.72" cy="935.67" r="2.52"/>
				<circle fill="#012B48" cx="2166.91" cy="937.05" r="2.52"/>
				<circle fill="#012B48" cx="2164.38" cy="939.57" r="2.52"/>
				<circle fill="#012B48" cx="2153.43" cy="898.47" r="2.52"/>
				<circle fill="#012B48" cx="2186.7" cy="875.93" r="2.52"/>
				<circle fill="#012B48" cx="2146.48" cy="857.47" r="2.52"/>
				<circle fill="#012B48" cx="2116.04" cy="877.36" r="2.52"/>
				<circle fill="#012B48" cx="2116.04" cy="880.18" r="2.52"/>
				<circle fill="#012B48" cx="2116.04" cy="883.92" r="2.52"/>
				<circle fill="#012B48" cx="2128.8" cy="827.51" r="2.52"/>
				<circle fill="#012B48" cx="2138.81" cy="785.12" r="2.52"/>
				<circle fill="#012B48" cx="2138.81" cy="780.16" r="2.52"/>
				<circle fill="#012B48" cx="2092.8" cy="819.63" r="2.52"/>
				<circle fill="#012B48" cx="2078.42" cy="785.12" r="2.52"/>
				<circle fill="#012B48" cx="2058.77" cy="816.21" r="2.52"/>
				<circle fill="#012B48" cx="2040.8" cy="828.95" r="2.52"/>
				<circle fill="#012B48" cx="2004.38" cy="816.21" r="2.52"/>
				<circle fill="#012B48" cx="2000.91" cy="813.69" r="2.52"/>
				<circle fill="#012B48" cx="1998.39" cy="810.22" r="2.52"/>
				<circle fill="#012B48" cx="2036.99" cy="854.38" r="2.52"/>
				<circle fill="#012B48" cx="2070.42" cy="891.98" r="2.52"/>
				<circle fill="#012B48" cx="2072.95" cy="894.5" r="2.52"/>
				<circle fill="#012B48" cx="2075.47" cy="897.02" r="2.52"/>
				<circle fill="#012B48" cx="2055.31" cy="916.84" r="2.52"/>
				<circle fill="#012B48" cx="2057.83" cy="918.12" r="2.52"/>
				<circle fill="#012B48" cx="2060.36" cy="920.01" r="2.52"/>
				<circle fill="#012B48" cx="2024.26" cy="878.75" r="2.52"/>
				<circle fill="#012B48" cx="1991.48" cy="880.18" r="2.52"/>
				<circle fill="#012B48" cx="1935.92" cy="920.51" r="2.52"/>
				<circle fill="#012B48" cx="1932.46" cy="919.58" r="2.52"/>
				<circle fill="#012B48" cx="1929.08" cy="971.19" r="2.52"/>
				<circle fill="#012B48" cx="1924.97" cy="971.19" r="2.52"/>
				<circle fill="#012B48" cx="1920.88" cy="971.19" r="2.52"/>
				<circle fill="#012B48" cx="1979.27" cy="959.3" r="2.52"/>
				<circle fill="#012B48" cx="1929.08" cy="918.12" r="2.52"/>
				<circle fill="#012B48" cx="1999.58" cy="917.48" r="2.52"/>
				<circle fill="#012B48" cx="2012.28" cy="939.69" r="2.52"/>
				<circle fill="#012B48" cx="2046.23" cy="949.5" r="2.52"/>
				<circle fill="#012B48" cx="2048.75" cy="950.51" r="2.52"/>
				<circle fill="#012B48" cx="2050.95" cy="952.02" r="2.52"/>
				<circle fill="#012B48" cx="1956.32" cy="872.31" r="2.52"/>
				<circle fill="#012B48" cx="1952.38" cy="870.88" r="2.52"/>
				<circle fill="#012B48" cx="1948.27" cy="869.79" r="2.52"/>
				<circle fill="#012B48" cx="2078.42" cy="780.16" r="2.52"/>
				<circle fill="#012B48" cx="2078.42" cy="774.93" r="2.52"/>
				<circle fill="#012B48" cx="2048.25" cy="793.07" r="2.52"/>
				<circle fill="#012B48" cx="2046.23" cy="788.96" r="2.52"/>
				<circle fill="#012B48" cx="2043.7" cy="785.12" r="2.52"/>
				<circle fill="#012B48" cx="2086.63" cy="881.39" r="2.52"/>
				<circle fill="#012B48" cx="2087.75" cy="884.29" r="2.52"/>
				<circle fill="#012B48" cx="2089.15" cy="887.92" r="2.52"/>
				<circle fill="#012B48" cx="2138.81" cy="774.93" r="2.52"/>
				<circle fill="#012B48" cx="2238.91" cy="840.01" r="2.52"/>
				<circle fill="#012B48" cx="2243.03" cy="837.48" r="2.52"/>
				<circle fill="#012B48" cx="2246.66" cy="834.96" r="2.52"/>
				<circle fill="#012B48" cx="2196.8" cy="806.12" r="2.52"/>
				<circle fill="#012B48" cx="2199.32" cy="802.5" r="2.52"/>
				<circle fill="#012B48" cx="2202.13" cy="798.78" r="2.52"/>
				<circle fill="#012B48" cx="2150.9" cy="900.99" r="2.52"/>
				<circle fill="#012B48" cx="2148.38" cy="903.52" r="2.52"/>
				<circle fill="#012B48" cx="2174.77" cy="976.85" r="2.52"/>
				<circle fill="#012B48" cx="2172.25" cy="976.85" r="2.52"/>
				<circle fill="#012B48" cx="2169.72" cy="976.85" r="2.52"/>
				<circle fill="#012B48" cx="2093.66" cy="1122.56" r="2.52"/>
				<circle fill="#012B48" cx="2094.6" cy="1119.1" r="2.52"/>
				<circle fill="#012B48" cx="1929.08" cy="1070.53" r="2.52"/>
				<circle fill="#012B48" cx="1925.93" cy="1071.61" r="2.52"/>
				<circle fill="#012B48" cx="1966.51" cy="973.71" r="2.52"/>
				<rect fill="none" width="3840" height="2160"/>
			</g>
		</g>
		<g>
			<g>
				<circle fill="#012B48" cx="2826.48" cy="1199.55" r="2.52"/>
				<circle fill="#012B48" cx="2894.12" cy="1185.73" r="2.52"/>
				<circle fill="#012B48" cx="2955.49" cy="1182.91" r="2.52"/>
				<circle fill="#012B48" cx="2947.58" cy="1161.1" r="2.52"/>
				<circle fill="#012B48" cx="2961.12" cy="1150.24" r="2.52"/>
				<circle fill="#012B48" cx="3011" cy="1183.2" r="2.52"/>
				<circle fill="#012B48" cx="3045.59" cy="1155.35" r="2.52"/>
				<circle fill="#012B48" cx="3097.05" cy="1113.22" r="2.52"/>
				<circle fill="#012B48" cx="3097.05" cy="1217.74" r="2.52"/>
				<circle fill="#012B48" cx="3101.61" cy="1221.12" r="2.52"/>
				<circle fill="#012B48" cx="3104.13" cy="1223.64" r="2.52"/>
				<circle fill="#012B48" cx="3101.61" cy="1109.85" r="2.52"/>
				<circle fill="#012B48" cx="3104.42" cy="1107.33" r="2.52"/>
				<circle fill="#012B48" cx="3008.88" cy="1112.38" r="2.52"/>
				<circle fill="#012B48" cx="3008.48" cy="1109.11" r="2.52"/>
				<circle fill="#012B48" cx="3008.48" cy="1106.58" r="2.52"/>
				<circle fill="#012B48" cx="2925.47" cy="1127.52" r="2.52"/>
				<circle fill="#012B48" cx="2917.52" cy="1130.05" r="2.52"/>
				<circle fill="#012B48" cx="2899.81" cy="1132.59" r="2.52"/>
				<circle fill="#012B48" cx="2902.34" cy="1112.28" r="2.52"/>
				<circle fill="#012B48" cx="2911.31" cy="1109.11" r="2.52"/>
				<circle fill="#012B48" cx="2920.04" cy="1106.58" r="2.52"/>
				<circle fill="#012B48" cx="2829" cy="1076.62" r="2.52"/>
				<circle fill="#012B48" cx="2887.06" cy="1056.51" r="2.52"/>
				<circle fill="#012B48" cx="2824.28" cy="1047.11" r="2.52"/>
				<circle fill="#012B48" cx="2822.6" cy="1044.04" r="2.52"/>
				<circle fill="#012B48" cx="2821.02" cy="1040.57" r="2.52"/>
				<circle fill="#012B48" cx="2802.98" cy="1059.89" r="2.52"/>
				<circle fill="#012B48" cx="2800.51" cy="1057.52" r="2.52"/>
				<circle fill="#012B48" cx="2798.58" cy="1054.92" r="2.52"/>
				<circle fill="#012B48" cx="2755.13" cy="1111.63" r="2.52"/>
				<circle fill="#012B48" cx="2752.6" cy="1109.85" r="2.52"/>
				<circle fill="#012B48" cx="2750.08" cy="1107.33" r="2.52"/>
				<circle fill="#012B48" cx="2740.54" cy="1137.38" r="2.52"/>
				<circle fill="#012B48" cx="2736.77" cy="1134.86" r="2.52"/>
				<circle fill="#012B48" cx="2733.31" cy="1132.85" r="2.52"/>
				<circle fill="#012B48" cx="2726.87" cy="1173.71" r="2.52"/>
				<circle fill="#012B48" cx="2723.54" cy="1172.39" r="2.52"/>
				<circle fill="#012B48" cx="2720.17" cy="1171.59" r="2.52"/>
				<circle fill="#012B48" cx="2721.01" cy="1202.08" r="2.52"/>
				<circle fill="#012B48" cx="2724.34" cy="1202.08" r="2.52"/>
				<circle fill="#012B48" cx="2717.64" cy="1202.08" r="2.52"/>
				<circle fill="#012B48" cx="2923.53" cy="1043.1" r="2.52"/>
				<circle fill="#012B48" cx="2907.38" cy="995.55" r="2.52"/>
				<circle fill="#012B48" cx="2904.86" cy="992.3" r="2.52"/>
				<circle fill="#012B48" cx="2902.4" cy="989.77" r="2.52"/>
				<circle fill="#012B48" cx="2955.49" cy="1007.52" r="2.52"/>
				<circle fill="#012B48" cx="2989.12" cy="1063.35" r="2.52"/>
				<circle fill="#012B48" cx="2991" cy="1066.81" r="2.52"/>
				<circle fill="#012B48" cx="2992.59" cy="1069.34" r="2.52"/>
				<circle fill="#012B48" cx="2997.77" cy="1010.04" r="2.52"/>
				<circle fill="#012B48" cx="3045.43" cy="1020.58" r="2.52"/>
				<circle fill="#012B48" cx="3048.11" cy="1023.11" r="2.52"/>
				<circle fill="#012B48" cx="3050.64" cy="1025.63" r="2.52"/>
				<circle fill="#012B48" cx="3013.6" cy="969.77" r="2.52"/>
				<circle fill="#012B48" cx="2959.6" cy="955.56" r="2.52"/>
				<circle fill="#012B48" cx="2957.07" cy="954.12" r="2.52"/>
				<circle fill="#012B48" cx="2954.55" cy="953.03" r="2.52"/>
				<circle fill="#012B48" cx="2966.05" cy="941.62" r="2.52"/>
				<circle fill="#012B48" cx="2963.06" cy="941.62" r="2.52"/>
				<circle fill="#012B48" cx="2959.9" cy="941.72" r="2.52"/>
				<circle fill="#012B48" cx="2966.11" cy="933.22" r="2.52"/>
				<circle fill="#012B48" cx="2963.59" cy="933.22" r="2.52"/>
				<circle fill="#012B48" cx="2961" cy="933.22" r="2.52"/>
				<circle fill="#012B48" cx="3077.72" cy="978.79" r="2.52"/>
				<circle fill="#012B48" cx="3080.24" cy="981.32" r="2.52"/>
				<circle fill="#012B48" cx="3082.77" cy="982.82" r="2.52"/>
				<circle fill="#012B48" cx="3030.4" cy="933.22" r="2.52"/>
				<circle fill="#012B48" cx="3091.64" cy="930.69" r="2.52"/>
				<circle fill="#012B48" cx="3095.11" cy="930.69" r="2.52"/>
				<circle fill="#012B48" cx="3098.07" cy="931.03" r="2.52"/>
				<circle fill="#012B48" cx="3086.6" cy="884.44" r="2.52"/>
				<circle fill="#012B48" cx="3090.49" cy="883.8" r="2.52"/>
				<circle fill="#012B48" cx="3095.54" cy="883.8" r="2.52"/>
				<circle fill="#012B48" cx="3017.34" cy="878.75" r="2.52"/>
				<circle fill="#012B48" cx="3061.42" cy="833.79" r="2.52"/>
				<circle fill="#012B48" cx="3065" cy="831.26" r="2.52"/>
				<circle fill="#012B48" cx="3067.52" cy="829.68" r="2.52"/>
				<circle fill="#012B48" cx="3030.27" cy="808.15" r="2.52"/>
				<circle fill="#012B48" cx="3031.93" cy="805.47" r="2.52"/>
				<circle fill="#012B48" cx="3034.45" cy="802.95" r="2.52"/>
				<circle fill="#012B48" cx="2995.24" cy="849.22" r="2.52"/>
				<circle fill="#012B48" cx="2955.19" cy="895.33" r="2.52"/>
				<circle fill="#012B48" cx="2952.67" cy="897.86" r="2.52"/>
				<circle fill="#012B48" cx="2950.15" cy="900.38" r="2.52"/>
				<circle fill="#012B48" cx="2922.29" cy="879.69" r="2.52"/>
				<circle fill="#012B48" cx="2922.29" cy="882.21" r="2.52"/>
				<circle fill="#012B48" cx="2922.29" cy="884.73" r="2.52"/>
				<circle fill="#012B48" cx="2932.83" cy="820.13" r="2.52"/>
				<circle fill="#012B48" cx="2939.56" cy="782.6" r="2.52"/>
				<circle fill="#012B48" cx="2939.56" cy="779.05" r="2.52"/>
				<circle fill="#012B48" cx="2939.56" cy="775.41" r="2.52"/>
				<circle fill="#012B48" cx="2913.37" cy="808" r="2.52"/>
				<circle fill="#012B48" cx="2867.12" cy="787.65" r="2.52"/>
				<circle fill="#012B48" cx="2865.54" cy="783.54" r="2.52"/>
				<circle fill="#012B48" cx="2863.95" cy="779.05" r="2.52"/>
				<circle fill="#012B48" cx="2883.6" cy="837.25" r="2.52"/>
				<circle fill="#012B48" cx="2892.45" cy="881.92" r="2.52"/>
				<circle fill="#012B48" cx="2893.42" cy="883.8" r="2.52"/>
				<circle fill="#012B48" cx="2895.3" cy="886.97" r="2.52"/>
				<circle fill="#012B48" cx="2871.57" cy="893.8" r="2.52"/>
				<circle fill="#012B48" cx="2874.1" cy="896.92" r="2.52"/>
				<circle fill="#012B48" cx="2876.62" cy="899.44" r="2.52"/>
				<circle fill="#012B48" cx="2837.81" cy="853.37" r="2.52"/>
				<circle fill="#012B48" cx="2802.34" cy="813.05" r="2.52"/>
				<circle fill="#012B48" cx="2799.82" cy="809.09" r="2.52"/>
				<circle fill="#012B48" cx="2797.55" cy="806.56" r="2.52"/>
				<circle fill="#012B48" cx="2797.55" cy="852.82" r="2.52"/>
				<circle fill="#012B48" cx="2820.07" cy="898.49" r="2.52"/>
				<circle fill="#012B48" cx="2783.65" cy="881.92" r="2.52"/>
				<circle fill="#012B48" cx="2763.54" cy="911.61" r="2.52"/>
				<circle fill="#012B48" cx="2776.96" cy="935.74" r="2.52"/>
				<circle fill="#012B48" cx="2839.26" cy="952.87" r="2.52"/>
				<circle fill="#012B48" cx="2807.79" cy="931.03" r="2.52"/>
				<circle fill="#012B48" cx="2851.13" cy="928.17" r="2.52"/>
				<circle fill="#012B48" cx="2855.54" cy="929.8" r="2.52"/>
				<circle fill="#012B48" cx="2858.06" cy="931.03" r="2.52"/>
				<circle fill="#012B48" cx="2855.54" cy="918.63" r="2.52"/>
				<circle fill="#012B48" cx="2859" cy="919.44" r="2.52"/>
				<circle fill="#012B48" cx="2861.79" cy="921.15" r="2.52"/>
				<circle fill="#012B48" cx="2848.61" cy="968.48" r="2.52"/>
				<circle fill="#012B48" cx="2851.32" cy="971.44" r="2.52"/>
				<circle fill="#012B48" cx="2853.66" cy="973.53" r="2.52"/>
				<circle fill="#012B48" cx="2733.31" cy="944.14" r="2.52"/>
				<circle fill="#012B48" cx="2729.75" cy="944.14" r="2.52"/>
				<circle fill="#012B48" cx="2726.29" cy="944.39" r="2.52"/>
				<circle fill="#012B48" cx="2733.31" cy="967.24" r="2.52"/>
				<circle fill="#012B48" cx="2729.75" cy="971.01" r="2.52"/>
				<circle fill="#012B48" cx="2727.23" cy="973.53" r="2.52"/>
				<circle fill="#012B48" cx="2743.19" cy="889.4" r="2.52"/>
				<circle fill="#012B48" cx="2739.34" cy="888.24" r="2.52"/>
				<circle fill="#012B48" cx="2735.83" cy="886.88" r="2.52"/>
				<circle fill="#012B48" cx="2755.49" cy="863.63" r="2.52"/>
				<circle fill="#012B48" cx="2751.38" cy="861.82" r="2.52"/>
				<circle fill="#012B48" cx="2748.24" cy="859.29" r="2.52"/>
				<circle fill="#012B48" cx="2964.5" cy="914.27" r="2.52"/>
				<circle fill="#012B48" cx="2961" cy="915.36" r="2.52"/>
				<circle fill="#012B48" cx="2958.48" cy="916.8" r="2.52"/>
				<circle fill="#012B48" cx="2968.91" cy="1217.74" r="2.52"/>
				<circle fill="#012B48" cx="2968.91" cy="1221.12" r="2.52"/>
				<circle fill="#012B48" cx="2968.91" cy="1223.64" r="2.52"/>
				<circle fill="#012B48" cx="2884.53" cy="1217.74" r="2.52"/>
				<circle fill="#012B48" cx="2884.53" cy="1221.12" r="2.52"/>
				<circle fill="#012B48" cx="2884.53" cy="1223.64" r="2.52"/>
				<circle fill="#012B48" cx="2792.69" cy="1176.64" r="2.52"/>
				<circle fill="#012B48" cx="2837.53" cy="1143.77" r="2.52"/>
				<circle fill="#012B48" cx="2773.46" cy="1141.25" r="2.52"/>
				<circle fill="#012B48" cx="2755.77" cy="1160.07" r="2.52"/>
				<circle fill="#012B48" cx="2753.25" cy="1176.23" r="2.52"/>
				<circle fill="#012B48" cx="2738.01" cy="1190.06" r="2.52"/>
				<circle fill="#012B48" cx="2735.49" cy="1202.08" r="2.52"/>
				<circle fill="#012B48" cx="2724.34" cy="1217.36" r="2.52"/>
				<circle fill="#012B48" cx="2720.88" cy="1220.27" r="2.52"/>
				<circle fill="#012B48" cx="2718.49" cy="1222.79" r="2.52"/>
				<g>
					<g>
						<path fill="none" stroke="#012B48" d="M2733.31,968.48c-6.79-117.96,66.7-185.89,182.18-185.89
							c104.37,0,175.39,43.85,175.39,135.25c0,109.93-107.46,144.51-188.36,193.92v0.62h194.53v104.99h-372.39
							c-2.47-41.38,9.88-77.2,30.88-106.22c35.82-50.02,97.58-82.75,152.54-116.1c22.23-13.59,58.05-30.88,58.05-62.37
							c0-38.91-22.85-52.49-51.88-52.49c-49.41,0-66.08,35.82-64.84,88.31H2733.31z"/>
					</g>
				</g>
				<g>
					<g>
						<path fill="none" stroke="#012B48" d="M2730.34,971.44c-9.32-125.79,73.17-193.58,186.89-193.51
							c107.07,0.07,179.92,53.34,178.04,138.74c-2.69,122.24-130.14,156.38-184.78,192.99c19.81-1.48,191.11,0,191.11,0v110.52
							h-380.14c-2.53-42.45,5.44-75.44,26.98-105.21c36.74-51.32,96.75-86.81,156.48-121.92c22.81-13.94,59.15-28.87,58.61-61.17
							c-0.51-30.65-17.81-49.77-47.58-50.1c-46.91-0.51-65.91,35.81-64.64,89.66H2730.34z"/>
					</g>
				</g>
				<g>
					<g>
						<path fill="none" stroke="#012B48" d="M2727.13,974.92c-9.4-126.87,69.01-200.82,188.51-200.82
							c107.99,0,184.19,53.94,183.35,142.76c-1.15,121.1-140.32,167.07-177.94,189.97c19.98-1.5,183.38,0,183.38,0v117.11h-386.24
							c-2.56-42.81,3.61-77.04,25.34-107.07c38.71-58.2,102.84-92.22,159.71-126.73c23-14.06,57.24-25.36,57.24-57.95
							c0-40.26-27.58-46.47-46.12-47.71c-38.31-2.56-63.22,33.41-60.5,90.44H2727.13z"/>
					</g>
				</g>
				<polyline fill="none" stroke="#012B48" points="2733.31,968.48 2839.98,952.87 2847.61,967.18 				"/>
				<polyline fill="none" stroke="#012B48" points="2733.31,968.48 2776.72,934.17 2839.98,952.87 2807.39,931.3 2852.74,928.24 
									"/>
				<polyline fill="none" stroke="#012B48" points="2764.26,912.13 2807.79,931.24 2777.16,934.59 2764.26,911.75 2734.59,942.8 
					2776.82,934.21 				"/>
				<polyline fill="none" stroke="#012B48" points="2807.79,931.03 2818.9,898.29 2855.54,919.6 2797.75,852.82 2783.91,883.85 
					2744.8,889.04 				"/>
				<path fill="none" stroke="#012B48" d="M2818.9,894.4"/>
				<line fill="none" stroke="#012B48" x1="2818.86" y1="898.49" x2="2796.28" y2="853.37"/>
				<line fill="none" stroke="#012B48" x1="2796.28" y1="853.37" x2="2755.49" y2="863.63"/>
				<polyline fill="none" stroke="#012B48" points="2871.1,892.86 2797.55,852.22 2836.15,853.37 2871.1,892.86 2883.6,838.32 
					2836.15,853.37 2802.12,813.9 2797.55,852.22 2743.19,889.62 2763.3,910.67 2783.91,883.85 2818.9,898.23 2764.34,911.61 				
					"/>
				<polyline fill="none" stroke="#012B48" points="2803.51,812.56 2883.08,837.32 2866.82,787.04 2913.27,808.43 2883.64,836.38 
					2933.92,820.11 2913.79,808.13 2939.67,782.6 2933.44,819.53 2994.79,849.82 2939.67,782.6 				"/>
				<polyline fill="none" stroke="#012B48" points="2892.79,881.92 2884.12,838.38 2922.38,879.69 2932.83,820.13 				"/>
				<polyline fill="none" stroke="#012B48" points="2922.38,879.69 2993.79,850.94 2956.92,894.4 3010.64,880.69 3018.27,878.75 
					2994.79,850 3029.77,809.09 3017.79,877.81 3060.92,834.48 				"/>
				<polyline fill="none" stroke="#012B48" points="2966.05,913.63 3018.15,878.82 3030.25,933.22 3087.24,883.89 3018.81,878.75 
									"/>
				<polyline fill="none" stroke="#012B48" points="2965.14,913.35 3030.4,933.22 2966.11,933.22 				"/>
				<polyline fill="none" stroke="#012B48" points="3089.12,931.03 3030.25,933.22 3078.14,978.27 2966.09,940.92 3012.52,970.6 
					3076.65,978.79 				"/>
				<polyline fill="none" stroke="#012B48" points="3013.44,970.68 2959.8,956.3 2998.23,1010.38 3013.44,971.62 3045.59,1020.44 
					2998,1010.88 2988.08,1061.66 2955.49,1007.5 2999.48,1010.86 				"/>
				<polyline fill="none" stroke="#012B48" points="2959.3,957.34 2956.42,1008.34 2908.1,996.02 2986.6,1062.6 2923.38,1042.49 
					2907.54,996.04 2887.43,1056.39 2924.27,1042.59 2902.52,1112.38 2887.43,1056.97 2828.94,1076.62 2825.13,1047.76 
					2887.35,1056.37 				"/>
				<polyline fill="none" stroke="#012B48" points="2902.19,1110.98 2829,1076.62 2838.07,1143.61 2902.23,1112.98 2900.35,1132.11 
					2918.08,1129.69 2903.05,1113 2925.33,1127.32 3009.16,1112.38 2960.76,1149.84 3011.08,1182.91 3009.14,1114 				"/>
				<polyline fill="none" stroke="#012B48" points="2899.81,1132.59 2838.07,1143.61 2894.12,1185.73 2947.34,1161.34 
					2918.16,1129.77 2926.65,1127.89 2961.12,1150.3 				"/>
				<line fill="none" stroke="#012B48" x1="2899.81" y1="1132.59" x2="2894.12" y2="1185.73"/>
				<polyline fill="none" stroke="#012B48" points="2960.46,1150.24 2947.64,1161.04 3011,1182.91 2955.49,1182.91 2947.58,1162.46 
									"/>
				<polyline fill="none" stroke="#012B48" points="2955.49,1182.91 2894.15,1185.73 2968.91,1217.36 2956.16,1184.65 				"/>
				<polyline fill="none" stroke="#012B48" points="2971.3,1215.87 3010.34,1182.91 3096.25,1215.87 3045.59,1155.35 
					3095.31,1115.1 				"/>
				<polyline fill="none" stroke="#012B48" points="3009.82,1113.22 3045.43,1155.43 3011.7,1182.03 				"/>
				<polyline fill="none" stroke="#012B48" points="2894.12,1185.73 2884.32,1217.74 2825.87,1199.2 2894.12,1185.73 				"/>
				<polyline fill="none" stroke="#012B48" points="2838.07,1143.87 2826.8,1199.29 2791.68,1176.56 2837.53,1143.77 
					2773.61,1141.34 2755.27,1113.22 				"/>
				<polyline fill="none" stroke="#012B48" points="2772.61,1141.69 2740.54,1138.46 2755.63,1159.16 2774.54,1141.26 
					2791.68,1176.64 2756.27,1159.01 2753.12,1174.76 2790.58,1176.56 				"/>
				<polyline fill="none" stroke="#012B48" points="2728.95,1173.33 2752.7,1175.2 2738.24,1189.64 2725.8,1201.74 2735.19,1201.74 
					2738.66,1189.86 2790.8,1177.42 				"/>
				<polyline fill="none" stroke="#012B48" points="2738.66,1189.86 2826.26,1199.29 2735.19,1201.74 2725.7,1216.8 
					2826.26,1199.29 				"/>
				<line fill="none" stroke="#012B48" x1="2757.36" y1="1111.44" x2="2836.15" y2="1143.61"/>
				<path fill="#012B48" d="M2825.13,1046.82c0,0-32.94,23.59-40.88,31.67c-8.27,8.42-28.77,32-28.77,32l82.04,33.27
					L2825.13,1046.82z"/>
				<line fill="none" stroke="#012B48" x1="2839.91" y1="952.12" x2="2850.49" y2="928.86"/>
				<rect fill="none" width="3840" height="2160"/>
			</g>
		</g>
		<g>
			<g>
				
					<text transform="matrix(1 0 0 1 995.7659 1034.98)" fill="#FFFFFF" font-family="'HelveticaNeueLTStd-LtIt'" font-size="310px" letter-spacing="-4">The</text>
				<rect fill="none" width="3840" height="2160"/>
			</g>
		</g>
		<g>
			<g>
				
					<text transform="matrix(1 0 0 1 1488.3945 1444.2441)" fill="#FFFFFF" font-family="'HelveticaNeueLTStd-Hv'" font-size="145px" letter-spacing="-1">season is coming soon.</text>
				<rect fill="none" width="3840" height="2160"/>
			</g>
		</g>
	</g>
</g>
<rect fill="none" width="3840" height="2160"/>
</svg>
