<?xml version="1.0" encoding="utf-8"?>
<!-- Generator: Adobe Illustrator 24.2.1, SVG Export Plug-In . SVG Version: 6.00 Build 0)  -->
<svg version="1.1" id="_x32_022SeasonSvg" xmlns="http://www.w3.org/2000/svg" xmlns:xlink="http://www.w3.org/1999/xlink" x="0px"
	 y="0px" width="3840px" height="2160px" viewBox="0 0 3840 2160" enable-background="new 0 0 3840 2160" xml:space="preserve">
<g id="_x2D_.contentScene-">
	<g id="_x2D_.contForPoint-" opacity="0.3">
		<g id="_x2D_.moveElements-_2_">
			<g>
				<g>
					<rect id="_x2D_.contForPointB-_3_" x="1946.82" y="1603.72" opacity="0.33" fill="#0010B9" width="2038.6" height="1112.56"/>
					<rect id="_x2D_.contForPointB-_4_" x="-794.8" y="-125.65" opacity="0.33" fill="#0010B9" width="1941.97" height="1059.83"/>
					<rect id="_x2D_.contForPointB-_2_" x="-121.28" y="1332.66" opacity="0.33" fill="#0010B9" width="2157.7" height="1177.56"/>
					<rect id="_x2D_.contForPointB-_1_" x="-1047.17" y="902.38" opacity="0.33" fill="#0010B9" width="1867.28" height="1019.07"/>
					<rect x="0" y="1.89" fill="none" width="3836.96" height="2158.11"/>
				</g>
			</g>
		</g>
	</g>
	<g id="_x2D_.moveElements-">
		<g>
			<g>
				<circle fill="#A4CD38" cx="2790.14" cy="1213.89" r="6.5"/>
				<circle fill="#A4CD38" cx="2374.78" cy="929.06" r="6.5"/>
				<circle fill="#A4CD38" cx="2508.88" cy="932" r="6.5"/>
				<circle fill="#A4CD38" cx="2630.29" cy="913.53" r="6.5"/>
				<circle fill="#A4CD38" cx="2449.05" cy="798.6" r="6.5"/>
				<circle fill="#A4CD38" cx="2545.46" cy="778.7" r="6.5"/>
				<circle fill="#A4CD38" cx="2591.15" cy="829.09" r="6.5"/>
				<circle fill="#A4CD38" cx="2714.78" cy="743.26" r="6.5"/>
				<circle fill="#A4CD38" cx="2699.17" cy="826.37" r="6.5"/>
				<circle fill="#A4CD38" cx="2692.67" cy="929.06" r="6.5"/>
				<circle fill="#A4CD38" cx="2670.43" cy="1038.97" r="6.5"/>
				<circle fill="#A4CD38" cx="2551.96" cy="1032.47" r="6.5"/>
				<circle fill="#A4CD38" cx="2575.25" cy="1092.66" r="6.5"/>
				<circle fill="#A4CD38" cx="2735.16" cy="1141.58" r="6.5"/>
				<circle fill="#A4CD38" cx="2691.23" cy="1093.74" r="6.5"/>
				<circle fill="#A4CD38" cx="2481.16" cy="1194.17" r="6.5"/>
				<circle fill="#A4CD38" cx="2398.26" cy="1163.49" r="6.5"/>
				<circle fill="#A4CD38" cx="2630.29" cy="1174.46" r="6.5"/>
				<polygon fill="#A4CD38" points="2604.36,759.26 2591.15,827.44 2672.88,794.55 				"/>
				<polygon fill="#A4CD38" points="2700.9,826.37 2714.24,889.56 2779.83,832.26 				"/>
				<polygon fill="#A4CD38" points="2630.12,974.68 2666.34,1035.69 2677.96,977.01 				"/>
				<polygon fill="#A4CD38" points="2635.08,1136.61 2692.67,1174.46 2691.23,1094.7 				"/>
				<polygon fill="#A4CD38" points="2693.38,1173.45 2790.14,1212.17 2732.16,1142.92 				"/>
				<polygon fill="#A4CD38" points="2547.6,1214.32 2644.4,1213.89 2558.82,1177.68 				"/>
				<polygon fill="#A4CD38" points="2410.3,863.98 2460.02,886.2 2472.73,848.73 				"/>
				<polygon fill="#A4CD38" points="2386.09,928.55 2505.59,927.58 2496.78,910.33 				"/>
				<polygon fill="#A4CD38" points="2453.53,752.16 2492.48,797.33 2546.18,778.96 				"/>
				<path fill="#A4CD38" d="M2479.86,1018.71c0,0-37.7,27-46.78,36.25c-9.46,9.64-32.92,36.63-32.92,36.63l93.89,38.08
					L2479.86,1018.71z"/>
				<g>
					<g>
						<path fill="none" stroke="#012B48" d="M2371.38,932.44c-10.67-143.95,83.74-221.54,213.88-221.45
							c122.53,0.08,205.91,61.05,203.76,158.78c-3.08,139.9-148.93,178.96-211.46,220.86c22.67-1.7,218.71,0,218.71,0v126.48
							h-435.04c-2.9-48.58,6.23-86.33,30.88-120.41c42.05-58.73,110.72-99.35,179.08-139.53c26.1-15.95,67.69-33.03,67.08-70
							c-0.59-35.08-20.38-56.96-54.46-57.33c-53.68-0.58-75.43,40.98-73.98,102.6H2371.38z"/>
					</g>
				</g>
				<g>
					<g>
						<path fill="none" stroke="#012B48" stroke-dasharray="12" d="M2367.71,936.43c-10.76-145.2,78.98-229.82,215.73-229.82
							c123.59,0,210.79,61.73,209.82,163.37c-1.32,138.58-160.59,191.2-203.63,217.4c22.87-1.71,209.86,0,209.86,0v134.02h-442.02
							c-2.92-49,4.14-88.16,29-122.53c44.3-66.61,117.69-105.54,182.77-145.03c26.33-16.09,65.51-29.02,65.51-66.31
							c0-46.07-31.57-53.18-52.78-54.6c-43.84-2.93-72.35,38.23-69.24,103.5H2367.71z"/>
					</g>
				</g>
				<polyline fill="none" stroke="#012B48" points="2374.78,929.06 2496.86,911.19 2505.59,927.58 				"/>
				<polyline fill="none" stroke="#012B48" stroke-dasharray="12" points="2374.78,929.06 2424.46,889.8 2496.86,911.19 
					2459.57,886.51 2511.46,883.01 				"/>
				<polyline fill="none" stroke="#012B48" stroke-dasharray="12" points="2410.2,864.57 2460.02,886.44 2424.97,890.28 
					2410.2,864.14 2376.24,899.67 2424.58,889.85 				"/>
				<polyline fill="none" stroke="#012B48" points="2460.02,886.2 2472.73,848.73 2514.66,873.12 2448.53,796.7 2432.69,832.21 
					2387.93,838.15 				"/>
				<path fill="none" stroke="#012B48" d="M2472.73,844.28"/>
				<line fill="none" stroke="#012B48" x1="2472.68" y1="848.97" x2="2446.85" y2="797.33"/>
				<line fill="none" stroke="#012B48" x1="2446.85" y1="797.33" x2="2400.17" y2="809.07"/>
				<polyline fill="none" stroke="#012B48" stroke-dasharray="12" points="2532.47,842.52 2448.3,796.01 2492.48,797.33 
					2532.47,842.52 2546.77,780.11 2492.48,797.33 2453.53,752.16 2448.3,796.01 2386.09,838.82 2409.11,862.9 2432.69,832.21 
					2472.73,848.66 2410.3,863.98 				"/>
				<polyline fill="none" stroke="#012B48" stroke-dasharray="12" points="2455.12,750.63 2546.18,778.96 2527.58,721.42 
					2580.73,745.89 2546.82,777.89 2604.36,759.26 2581.33,745.55 2610.95,716.33 2603.82,758.6 2674.02,793.27 2610.95,716.33 				
					"/>
				<polyline fill="none" stroke="#012B48" points="2557.3,830 2547.37,780.17 2591.15,827.44 2603.12,759.29 				"/>
				<polyline fill="none" stroke="#012B48" points="2591.15,827.44 2672.88,794.55 2630.69,844.28 2692.17,828.6 2700.9,826.37 
					2674.02,793.47 2714.06,746.65 2700.35,825.29 2749.71,775.71 				"/>
				<polyline fill="none" stroke="#012B48" points="2641.13,866.28 2700.76,826.45 2714.61,888.7 2779.83,832.26 2701.51,826.37 
									"/>
				<polyline fill="none" stroke="#012B48" points="2640.09,865.97 2714.78,888.7 2641.2,888.7 				"/>
				<polyline fill="none" stroke="#012B48" stroke-dasharray="12" points="2781.98,886.2 2714.61,888.7 2769.41,940.26 
					2641.18,897.52 2694.31,931.48 2767.7,940.87 				"/>
				<polyline fill="none" stroke="#012B48" stroke-dasharray="12" points="2695.36,931.58 2633.98,915.12 2677.96,977.01 
					2695.36,932.65 2732.16,988.53 2677.7,977.58 2666.34,1035.69 2629.05,973.72 2679.39,977.56 				"/>
				<polyline fill="none" stroke="#012B48" points="2633.41,916.31 2630.12,974.68 2574.81,960.58 2664.65,1036.77 2592.3,1013.76 
					2574.17,960.6 2551.16,1029.66 2593.33,1013.87 2568.44,1093.74 2551.16,1030.32 2484.23,1052.82 2479.86,1019.79 
					2551.07,1029.64 				"/>
				<polyline fill="none" stroke="#012B48" stroke-dasharray="12" points="2568.05,1092.14 2484.29,1052.82 2494.67,1129.48 
					2568.1,1094.43 2565.95,1116.32 2586.24,1113.56 2569.03,1094.45 2594.54,1110.84 2690.47,1093.74 2635.08,1136.61 
					2692.67,1174.46 2690.45,1095.59 				"/>
				<polyline fill="none" stroke="#012B48" stroke-dasharray="12" points="2565.33,1116.87 2494.67,1129.48 2558.82,1177.68 
					2619.72,1149.78 2586.33,1113.65 2596.05,1111.49 2635.49,1137.14 				"/>
				<line fill="none" stroke="#012B48" x1="2565.33" y1="1116.87" x2="2558.82" y2="1177.68"/>
				<polyline fill="none" stroke="#012B48" points="2634.74,1137.07 2620.06,1149.42 2692.58,1174.46 2629.05,1174.46 2620,1151.06 
									"/>
				<polyline fill="none" stroke="#012B48" points="2629.05,1174.46 2558.85,1177.68 2644.4,1213.89 2629.81,1176.45 				"/>
				<polyline fill="none" stroke="#012B48" stroke-dasharray="12" points="2647.15,1212.17 2691.82,1174.46 2790.14,1212.17 
					2732.16,1142.92 2789.06,1096.85 				"/>
				<polyline fill="none" stroke="#012B48" points="2691.23,1094.7 2731.98,1143.01 2693.38,1173.45 				"/>
				<polyline fill="none" stroke="#012B48" points="2558.82,1177.68 2547.6,1214.32 2480.71,1193.1 2558.82,1177.68 				"/>
				<polyline fill="none" stroke="#012B48" points="2494.67,1129.78 2481.78,1193.2 2441.58,1167.19 2494.05,1129.67 
					2420.9,1126.88 2399.92,1094.7 				"/>
				<polyline fill="none" stroke="#012B48" points="2419.76,1127.29 2383.05,1123.59 2400.33,1147.28 2421.97,1126.79 
					2441.58,1167.28 2401.06,1147.1 2397.45,1165.13 2440.32,1167.19 				"/>
				<polyline fill="none" stroke="#012B48" points="2369.8,1163.49 2396.97,1165.64 2380.43,1182.16 2366.19,1196 2376.93,1196 
					2380.91,1182.41 2440.58,1168.17 				"/>
				<polyline fill="none" stroke="#012B48" points="2380.91,1182.41 2481.16,1193.2 2376.93,1196 2366.07,1213.25 2481.16,1193.2 
									"/>
				<line fill="none" stroke="#012B48" x1="2402.31" y1="1092.66" x2="2492.48" y2="1129.48"/>
				<line fill="none" stroke="#012B48" x1="2496.78" y1="910.33" x2="2508.88" y2="883.72"/>
				<circle id="_x2D_.elCircle-_11_" fill="none" stroke="#012B48" cx="2374.78" cy="926.28" r="23.5"/>
				<circle id="_x2D_.elCircle-_12_" fill="none" stroke="#012B48" cx="2545.46" cy="778.7" r="23.5"/>
				<circle id="_x2D_.elCircle-_13_" fill="none" stroke="#012B48" cx="2714.78" cy="743.03" r="23.5"/>
				<circle id="_x2D_.elCircle-_14_" fill="none" stroke="#012B48" cx="2692.58" cy="929.06" r="23.5"/>
				<circle id="_x2D_.elCircle-_15_" fill="none" stroke="#012B48" cx="2551.96" cy="1026.09" r="23.5"/>
				<circle id="_x2D_.elCircle-_16_" fill="none" stroke="#012B48" cx="2400.17" cy="1160.78" r="23.5"/>
				<circle id="_x2D_.elCircle-_17_" fill="none" stroke="#012B48" cx="2630.12" cy="1169.99" r="23.5"/>
				<circle id="_x2D_.elCircle-_18_" fill="none" stroke="#012B48" cx="2692.36" cy="1096.7" r="23.5"/>
				<g>
					<defs>
						<path id="SVGID_1_" d="M2523.72,716.45l-2.71-11.69l0.97-0.23l2.71,11.69L2523.72,716.45z M2518.3,693.07l-2.71-11.69
							l0.97-0.23l2.71,11.69L2518.3,693.07z M2512.89,669.69l-2.71-11.69l0.97-0.23l2.71,11.69L2512.89,669.69z M2507.47,646.31
							l-2.71-11.69l0.97-0.23l2.71,11.69L2507.47,646.31z M2502.05,622.93l-2.71-11.69l0.97-0.23l2.71,11.69L2502.05,622.93z
							 M2496.63,599.55l-2.71-11.69l0.97-0.23l2.71,11.69L2496.63,599.55z M2491.21,576.17l-2.71-11.69l0.97-0.23l2.71,11.69
							L2491.21,576.17z M2485.79,552.79l-2.71-11.69l0.97-0.23l2.71,11.69L2485.79,552.79z M2480.37,529.41l-2.71-11.69l0.97-0.23
							l2.71,11.69L2480.37,529.41z M2474.95,506.03l-2.71-11.69l0.97-0.23l2.71,11.69L2474.95,506.03z M2469.53,482.65l-2.71-11.69
							l0.97-0.23l2.71,11.69L2469.53,482.65z M2464.11,459.27l-2.71-11.69l0.97-0.23l2.71,11.69L2464.11,459.27z M2458.7,435.88
							l-2.71-11.69l0.97-0.23l2.71,11.69L2458.7,435.88z M2453.28,412.5l-2.71-11.69l0.97-0.23l2.71,11.69L2453.28,412.5z
							 M2447.86,389.12l-2.5-10.79l0.97-0.23l2.5,10.79L2447.86,389.12z"/>
					</defs>
					<clipPath id="SVGID_2_">
						<use xlink:href="#SVGID_1_"  overflow="visible"/>
					</clipPath>
					<g clip-path="url(#SVGID_2_)">
						
							<line id="_x2D_.elLine-_29_" fill="none" stroke="#012B48" stroke-width="3" stroke-dasharray="12" x1="2524.21" y1="716.33" x2="2445.84" y2="378.22"/>
					</g>
				</g>
				<g>
					<defs>
						<path id="SVGID_3_" d="M2455.24,739.89l-1-0.09l1.12-11.95l1,0.09L2455.24,739.89z M2457.49,715.99l-1-0.09l1.12-11.95l1,0.09
							L2457.49,715.99z M2459.73,692.1l-1-0.09l1.12-11.95l1,0.09L2459.73,692.1z M2461.98,668.2l-1-0.09l1.12-11.95l1,0.09
							L2461.98,668.2z M2464.22,644.31l-1-0.09l1.12-11.95l1,0.09L2464.22,644.31z M2466.46,620.41l-1-0.09l1.12-11.95l1,0.09
							L2466.46,620.41z M2468.71,596.52l-1-0.09l1.12-11.95l1,0.09L2468.71,596.52z M2470.95,572.62l-1-0.09l1.12-11.95l1,0.09
							L2470.95,572.62z M2473.2,548.73l-1-0.09l1.12-11.95l1,0.09L2473.2,548.73z M2475.44,524.83l-1-0.09l1.12-11.95l1,0.09
							L2475.44,524.83z M2477.69,500.94l-1-0.09l1.12-11.95l1,0.09L2477.69,500.94z M2479.93,477.04l-1-0.09l0.43-4.56l1,0.09
							L2479.93,477.04z"/>
					</defs>
					<clipPath id="SVGID_4_">
						<use xlink:href="#SVGID_3_"  overflow="visible"/>
					</clipPath>
					<g clip-path="url(#SVGID_4_)">
						
							<line id="_x2D_.elLine-_28_" fill="none" stroke="#012B48" stroke-width="3" stroke-dasharray="12" x1="2454.75" y1="739.84" x2="2479.86" y2="472.43"/>
					</g>
				</g>
				<g>
					<defs>
						<path id="SVGID_5_" d="M2613.41,714.29l-0.65-0.76l9.16-7.75l0.65,0.76L2613.41,714.29z M2631.74,698.79l-0.65-0.76l9.16-7.75
							l0.65,0.76L2631.74,698.79z M2650.06,683.29l-0.65-0.76l9.16-7.75l0.65,0.76L2650.06,683.29z M2668.38,667.78l-0.65-0.76
							l9.16-7.75l0.65,0.76L2668.38,667.78z M2686.7,652.28l-0.65-0.76l9.16-7.75l0.65,0.76L2686.7,652.28z M2705.03,636.78
							l-0.65-0.76l9.16-7.75l0.65,0.76L2705.03,636.78z M2723.35,621.28l-0.65-0.76l9.16-7.75l0.65,0.76L2723.35,621.28z
							 M2741.67,605.78l-0.65-0.76l9.16-7.75l0.65,0.76L2741.67,605.78z M2759.99,590.28l-0.65-0.76l9.16-7.75l0.65,0.76
							L2759.99,590.28z M2778.31,574.78l-0.65-0.76l9.16-7.75l0.65,0.76L2778.31,574.78z M2796.64,559.27l-0.65-0.76l9.16-7.75
							l0.65,0.76L2796.64,559.27z M2814.96,543.77l-0.65-0.76l9.16-7.75l0.65,0.76L2814.96,543.77z M2833.28,528.27l-0.65-0.76
							l9.16-7.75l0.65,0.76L2833.28,528.27z M2851.6,512.77l-0.65-0.76l9.16-7.75l0.65,0.76L2851.6,512.77z M2869.93,497.27
							l-0.65-0.76l9.16-7.75l0.65,0.76L2869.93,497.27z M2888.25,481.77l-0.65-0.76l9.16-7.75l0.65,0.76L2888.25,481.77z
							 M2906.57,466.27l-0.65-0.76l9.16-7.75l0.65,0.76L2906.57,466.27z M2924.89,450.76l-0.65-0.76l9.16-7.75l0.65,0.76
							L2924.89,450.76z M2943.22,435.26l-0.65-0.76l9.16-7.75l0.65,0.76L2943.22,435.26z M2961.54,419.76l-0.65-0.76l9.16-7.75
							l0.65,0.76L2961.54,419.76z M2979.86,404.26l-0.65-0.76l9.16-7.75l0.65,0.76L2979.86,404.26z M2998.18,388.76l-0.65-0.76
							l9.16-7.75l0.65,0.76L2998.18,388.76z M3016.5,373.26l-0.65-0.76l3.64-3.08l0.65,0.76L3016.5,373.26z"/>
					</defs>
					<clipPath id="SVGID_6_">
						<use xlink:href="#SVGID_5_"  overflow="visible"/>
					</clipPath>
					<g clip-path="url(#SVGID_6_)">
						
							<line id="_x2D_.elLine-_27_" fill="none" stroke="#012B48" stroke-width="3" stroke-dasharray="12" x1="2613.09" y1="713.91" x2="3019.82" y2="369.79"/>
					</g>
				</g>
				<g>
					<defs>
						<path id="SVGID_7_" d="M2605.78,706.87l-6.21-10.27l0.86-0.52l6.21,10.27L2605.78,706.87z M2593.36,686.33l-6.21-10.27
							l0.86-0.52l6.21,10.27L2593.36,686.33z M2580.94,665.79l-6.21-10.27l0.86-0.52l6.21,10.27L2580.94,665.79z M2568.53,645.25
							l-6.21-10.27l0.86-0.52l6.21,10.27L2568.53,645.25z M2556.11,624.72l-6.21-10.27l0.86-0.52l6.21,10.27L2556.11,624.72z"/>
					</defs>
					<clipPath id="SVGID_8_">
						<use xlink:href="#SVGID_7_"  overflow="visible"/>
					</clipPath>
					<g clip-path="url(#SVGID_8_)">
						
							<line id="_x2D_.elLine-_26_" fill="none" stroke="#012B48" stroke-width="3" stroke-dasharray="12" x1="2606.21" y1="706.61" x2="2545.46" y2="606.14"/>
					</g>
				</g>
				<g>
					<defs>
						<path id="SVGID_9_" d="M2865.55,1049.06l-0.79-0.89l0.75-0.66l0.79,0.89L2865.55,1049.06z M2856.78,1039.21l-7.98-8.97
							l0.75-0.67l7.98,8.97L2856.78,1039.21z M2840.82,1021.28l-7.98-8.96l0.75-0.67l7.98,8.96L2840.82,1021.28z M2824.87,1003.35
							l-7.98-8.96l0.75-0.67l7.98,8.96L2824.87,1003.35z M2808.92,985.42l-7.98-8.97l0.75-0.67l7.98,8.97L2808.92,985.42z
							 M2792.96,967.49l-7.98-8.97l0.75-0.67l7.98,8.97L2792.96,967.49z M2777.01,949.56l-7.98-8.97l0.75-0.67l7.98,8.97
							L2777.01,949.56z"/>
					</defs>
					<clipPath id="SVGID_10_">
						<use xlink:href="#SVGID_9_"  overflow="visible"/>
					</clipPath>
					<g clip-path="url(#SVGID_10_)">
						
							<line id="_x2D_.elLine-_21_" fill="none" stroke="#012B48" stroke-width="3" stroke-dasharray="12" x1="2769.41" y1="940.26" x2="2865.92" y2="1048.73"/>
					</g>
				</g>
				<g>
					<defs>
						<path id="SVGID_11_" d="M2872.71,1004.76l-11.92-1.4l0.12-0.99l11.92,1.4L2872.71,1004.76z M2848.87,1001.97l-11.92-1.4
							l0.12-0.99l11.92,1.4L2848.87,1001.97z M2825.04,999.18l-11.92-1.39l0.12-0.99l11.92,1.39L2825.04,999.18z M2801.2,996.39
							l-11.92-1.39l0.12-0.99l11.92,1.39L2801.2,996.39z M2777.36,993.6l-11.92-1.4l0.12-0.99l11.92,1.4L2777.36,993.6z
							 M2753.53,990.81l-11.92-1.4l0.12-0.99l11.92,1.4L2753.53,990.81z"/>
					</defs>
					<clipPath id="SVGID_12_">
						<use xlink:href="#SVGID_11_"  overflow="visible"/>
					</clipPath>
					<g clip-path="url(#SVGID_12_)">
						
							<line id="_x2D_.elLine-_14_" fill="none" stroke="#012B48" stroke-width="3" stroke-dasharray="12" x1="2741.66" y1="988.92" x2="2880.67" y2="1005.19"/>
					</g>
				</g>
				<g>
					<defs>
						<path id="SVGID_13_" d="M2691.31,1094.23l-0.16-0.99l11.84-1.95l0.16,0.99L2691.31,1094.23z M2714.99,1090.32l-0.16-0.99
							l11.84-1.95l0.16,0.99L2714.99,1090.32z M2738.67,1086.42l-0.16-0.99l11.84-1.95l0.16,0.99L2738.67,1086.42z M2762.35,1082.51
							l-0.16-0.99l11.84-1.95l0.16,0.99L2762.35,1082.51z M2786.03,1078.6l-0.16-0.99l11.84-1.95l0.16,0.99L2786.03,1078.6z
							 M2809.71,1074.69l-0.16-0.99l11.84-1.95l0.16,0.99L2809.71,1074.69z M2833.39,1070.78l-0.16-0.99l11.84-1.95l0.16,0.99
							L2833.39,1070.78z M2857.07,1066.88l-0.16-0.99l0.18-0.03l0.16,0.99L2857.07,1066.88z"/>
					</defs>
					<clipPath id="SVGID_14_">
						<use xlink:href="#SVGID_13_"  overflow="visible"/>
					</clipPath>
					<g clip-path="url(#SVGID_14_)">
						
							<line id="_x2D_.elLine-_13_" fill="none" stroke="#012B48" stroke-width="3" stroke-dasharray="12" x1="2691.23" y1="1093.74" x2="2857.17" y2="1066.35"/>
					</g>
				</g>
				<g>
					<defs>
						<path id="SVGID_15_" d="M2400.49,1420.31l-0.64-0.77l8.21-6.91l0.64,0.77L2400.49,1420.31z M2417.89,1405.67l-0.64-0.77
							l9.18-7.72l0.64,0.77L2417.89,1405.67z M2436.25,1390.22l-0.64-0.77l9.18-7.72l0.64,0.77L2436.25,1390.22z M2454.62,1374.77
							l-0.64-0.77l9.18-7.72l0.64,0.77L2454.62,1374.77z M2472.99,1359.32l-0.64-0.77l9.18-7.72l0.64,0.77L2472.99,1359.32z
							 M2491.35,1343.87l-0.64-0.77l9.18-7.72l0.64,0.77L2491.35,1343.87z M2509.72,1328.42l-0.64-0.77l9.18-7.72l0.64,0.77
							L2509.72,1328.42z M2528.09,1312.98l-0.64-0.77l9.18-7.72l0.64,0.77L2528.09,1312.98z M2546.45,1297.53l-0.64-0.77l9.18-7.72
							l0.64,0.77L2546.45,1297.53z M2564.82,1282.08l-0.64-0.77l9.18-7.72l0.64,0.77L2564.82,1282.08z M2583.18,1266.63l-0.64-0.77
							l9.18-7.72l0.64,0.77L2583.18,1266.63z M2601.55,1251.18l-0.64-0.77l9.18-7.72l0.64,0.77L2601.55,1251.18z M2619.92,1235.73
							l-0.64-0.77l9.18-7.72l0.64,0.77L2619.92,1235.73z M2638.28,1220.28l-0.64-0.77l9.18-7.72l0.64,0.77L2638.28,1220.28z"/>
					</defs>
					<clipPath id="SVGID_16_">
						<use xlink:href="#SVGID_15_"  overflow="visible"/>
					</clipPath>
					<g clip-path="url(#SVGID_16_)">
						
							<line id="_x2D_.elLine-_12_" fill="none" stroke="#012B48" stroke-width="3" stroke-dasharray="12" x1="2647.15" y1="1212.17" x2="2400.17" y2="1419.92"/>
					</g>
				</g>
				<g>
					<defs>
						<path id="SVGID_17_" d="M2871.12,1323.9l-10.81-5.22l0.44-0.9l10.81,5.22L2871.12,1323.9z M2849.51,1313.47l-10.81-5.22
							l0.44-0.9l10.81,5.22L2849.51,1313.47z M2827.89,1303.03l-10.81-5.22l0.44-0.9l10.81,5.22L2827.89,1303.03z M2806.28,1292.6
							l-10.81-5.22l0.44-0.9l10.81,5.22L2806.28,1292.6z M2784.67,1282.17l-10.81-5.22l0.44-0.9l10.81,5.22L2784.67,1282.17z
							 M2763.05,1271.73l-10.81-5.22l0.44-0.9l10.81,5.22L2763.05,1271.73z M2741.44,1261.29l-10.81-5.22l0.44-0.9l10.81,5.22
							L2741.44,1261.29z M2719.83,1250.86l-10.81-5.22l0.44-0.9l10.81,5.22L2719.83,1250.86z M2698.22,1240.42l-10.81-5.22l0.44-0.9
							l10.81,5.22L2698.22,1240.42z M2676.6,1229.99l-10.81-5.22l0.44-0.9l10.81,5.22L2676.6,1229.99z M2654.99,1219.55l-10.81-5.22
							l0.44-0.9l10.81,5.22L2654.99,1219.55z"/>
					</defs>
					<clipPath id="SVGID_18_">
						<use xlink:href="#SVGID_17_"  overflow="visible"/>
					</clipPath>
					<g clip-path="url(#SVGID_18_)">
						
							<line id="_x2D_.elLine-_11_" fill="none" stroke="#012B48" stroke-width="3" stroke-dasharray="12" x1="2644.4" y1="1213.89" x2="2872.83" y2="1324.18"/>
					</g>
				</g>
				<rect x="176.18" y="-514.29" fill="none" width="3840" height="2160"/>
			</g>
		</g>
		<g>
			<g>
				<circle fill="#A4CD38" cx="2880.53" cy="1127.44" r="6.5"/>
				<circle fill="#A4CD38" cx="2940.03" cy="1194.83" r="6.5"/>
				<circle fill="#A4CD38" cx="3028.74" cy="1094.3" r="6.5"/>
				<circle fill="#A4CD38" cx="2826.24" cy="1217.78" r="6.5"/>
				<circle fill="#A4CD38" cx="3032.42" cy="959.71" r="6.5"/>
				<circle fill="#A4CD38" cx="3174.95" cy="890.34" r="6.5"/>
				<circle fill="#A4CD38" cx="3134.19" cy="790.01" r="6.5"/>
				<circle fill="#A4CD38" cx="3051.32" cy="830.72" r="6.5"/>
				<circle fill="#A4CD38" cx="2911.46" cy="751.39" r="6.5"/>
				<circle fill="#A4CD38" cx="2932.9" cy="850.6" r="6.5"/>
				<circle fill="#A4CD38" cx="2920.19" cy="887.83" r="6.5"/>
				<circle fill="#A4CD38" cx="2832.74" cy="898.66" r="6.5"/>
				<circle fill="#A4CD38" cx="3140.77" cy="977.04" r="6.5"/>
				<circle fill="#A4CD38" cx="3152.34" cy="1176.31" r="6.5"/>
				<circle fill="#A4CD38" cx="3080.16" cy="1154.2" r="6.5"/>
				<path fill="#A4CD38" d="M2940.03,1020.35c0,0-37.7,27-46.78,36.25c-9.46,9.64-32.92,36.63-32.92,36.63l93.89,38.08
					L2940.03,1020.35z"/>
				<polygon fill="#A4CD38" points="3105.39,900.69 3154.48,933.12 3227.87,942.5 				"/>
				<polygon fill="#A4CD38" points="3053.49,1015.5 3028.74,1094.3 3124.82,1038.4 				"/>
				<polygon fill="#A4CD38" points="2952.64,798.96 2992.63,844.16 3006.94,781.74 				"/>
				<polygon fill="#A4CD38" points="3063.98,760.23 3134.19,794.9 3071.11,717.97 				"/>
				<polygon fill="#A4CD38" points="2892.86,833.84 2870.46,865.61 2932.9,850.37 				"/>
				<polygon fill="#A4CD38" points="2885.13,891.91 2834.95,930.69 2956.95,911.97 				"/>
				<polygon fill="#A4CD38" points="3150.64,1095.37 3095.24,1138.25 3152.34,1176.31 				"/>
				<polygon fill="#A4CD38" points="3026.11,1117.95 3018.98,1179.31 3079.89,1151.41 				"/>
				<polygon fill="#A4CD38" points="3192.14,1144.65 3251.22,1215.95 3251.11,1098.33 				"/>
				<g>
					<g>
						<path fill="none" stroke="#012B48" stroke-dasharray="12" d="M2831.55,934.08c-10.67-143.95,83.74-221.54,213.88-221.45
							c122.53,0.08,205.91,61.05,203.76,158.78c-3.08,139.9-148.93,178.96-211.46,220.86c22.67-1.7,218.71,0,218.71,0v126.48H2821.4
							c-2.9-48.58,6.23-86.33,30.88-120.41c42.05-58.73,110.72-99.35,179.08-139.53c26.1-15.95,67.69-33.03,67.08-70
							c-0.59-35.08-20.38-56.96-54.46-57.33c-53.68-0.58-75.43,40.98-73.98,102.6H2831.55z"/>
					</g>
				</g>
				<g>
					<g>
						<path fill="none" stroke="#012B48" d="M2827.88,938.06c-10.76-145.2,78.98-229.82,215.73-229.82
							c123.59,0,210.79,61.73,209.82,163.37c-1.32,138.58-160.59,191.2-203.63,217.4c22.87-1.71,209.86,0,209.86,0v134.02h-442.02
							c-2.92-49,4.14-88.16,29-122.53c44.3-66.61,117.69-105.54,182.77-145.03c26.33-16.09,65.51-29.02,65.51-66.31
							c0-46.07-31.57-53.18-52.78-54.6c-43.84-2.93-72.35,38.23-69.24,103.5H2827.88z"/>
					</g>
				</g>
				<polyline fill="none" stroke="#012B48" points="2834.95,930.69 2957.03,912.82 2965.76,929.21 				"/>
				<polyline fill="none" stroke="#012B48" points="2834.95,930.69 2884.63,891.43 2957.03,912.82 2919.73,888.14 2971.62,884.64 
									"/>
				<polyline fill="none" stroke="#012B48" points="2870.37,866.2 2920.19,888.07 2885.13,891.91 2870.37,865.77 2836.41,901.31 
					2884.74,891.48 				"/>
				<polyline fill="none" stroke="#012B48" points="2920.19,887.83 2932.9,850.37 2974.83,874.75 2908.69,798.33 2892.86,833.84 
					2848.1,839.78 				"/>
				<path fill="none" stroke="#012B48" d="M2932.9,845.91"/>
				<line fill="none" stroke="#012B48" x1="2932.85" y1="850.6" x2="2907.02" y2="798.96"/>
				<line fill="none" stroke="#012B48" x1="2907.02" y1="798.96" x2="2860.33" y2="810.71"/>
				<polyline fill="none" stroke="#012B48" stroke-dasharray="12" points="2992.63,844.16 2908.47,797.64 2952.64,798.96 
					2992.63,844.16 3006.94,781.74 2952.64,798.96 2913.7,753.79 2908.47,797.64 2846.26,840.45 2869.27,864.53 2892.86,833.84 
					2932.9,850.3 2870.46,865.61 				"/>
				<polyline fill="none" stroke="#012B48" stroke-dasharray="12" points="2915.28,752.26 3006.35,780.6 2987.74,723.05 
					3040.9,747.53 3006.99,779.52 3064.53,760.9 3041.49,747.18 3071.11,717.97 3063.98,760.23 3134.19,794.9 3071.11,717.97 				
					"/>
				<polyline fill="none" stroke="#012B48" points="3017.46,831.63 3007.53,781.81 3051.32,829.08 3063.29,760.92 				"/>
				<polyline fill="none" stroke="#012B48" points="3051.32,829.08 3133.04,796.18 3090.86,845.91 3152.33,830.23 3161.06,828 
					3134.19,795.11 3174.23,748.28 3160.51,826.93 3209.87,777.35 				"/>
				<polyline fill="none" stroke="#012B48" stroke-dasharray="12" points="3101.3,867.92 3160.93,828.08 3174.77,890.34 
					3240,833.89 3161.68,828 				"/>
				<polyline fill="none" stroke="#012B48" points="3100.26,867.6 3174.95,890.34 3101.37,890.34 				"/>
				<polyline fill="none" stroke="#012B48" points="3242.14,887.83 3174.77,890.34 3229.58,941.89 3101.35,899.16 3154.48,933.12 
					3227.87,942.5 				"/>
				<polyline fill="none" stroke="#012B48" stroke-dasharray="12" points="3155.53,933.21 3094.15,916.75 3138.12,978.64 
					3155.53,934.28 3192.32,990.16 3137.87,979.21 3126.51,1037.33 3089.21,975.35 3139.56,979.19 				"/>
				<polyline fill="none" stroke="#012B48" points="3093.58,917.94 3090.29,976.31 3034.98,962.21 3124.82,1038.4 3052.46,1015.39 
					3034.34,962.23 3011.33,1031.29 3053.49,1015.5 3028.6,1095.37 3011.33,1031.96 2944.39,1054.45 2940.03,1021.42 
					3011.24,1031.27 				"/>
				<polyline fill="none" stroke="#012B48" stroke-dasharray="12" points="3028.22,1093.77 2944.46,1054.45 2954.84,1131.12 
					3028.26,1096.06 3026.11,1117.95 3046.41,1115.19 3029.2,1096.08 3054.7,1112.47 3150.64,1095.37 3095.24,1138.25 
					3152.83,1176.09 3150.62,1097.23 				"/>
				<polyline fill="none" stroke="#012B48" points="3025.5,1118.5 2954.84,1131.12 3018.98,1179.31 3079.89,1151.41 3046.5,1115.28 
					3056.21,1113.12 3095.66,1138.77 				"/>
				<line fill="none" stroke="#012B48" x1="3025.5" y1="1118.5" x2="3018.98" y2="1179.31"/>
				<polyline fill="none" stroke="#012B48" stroke-dasharray="12" points="3094.9,1138.7 3080.23,1151.06 3152.74,1176.09 
					3089.21,1176.09 3080.16,1152.69 				"/>
				<polyline fill="none" stroke="#012B48" points="3089.21,1176.09 3019.02,1179.31 3104.57,1215.52 3089.98,1178.08 				"/>
				<polyline fill="none" stroke="#012B48" points="3151.4,1096.33 3192.14,1144.65 3153.54,1175.09 				"/>
				<polyline fill="none" stroke="#012B48" stroke-dasharray="12" points="3018.98,1179.31 3007.76,1215.95 2940.87,1194.73 
					3018.98,1179.31 				"/>
				<polyline fill="none" stroke="#012B48" stroke-dasharray="12" points="2954.84,1131.41 2941.95,1194.83 2901.75,1168.82 
					2954.22,1131.3 2881.07,1128.51 2860.09,1096.33 				"/>
				<polyline fill="none" stroke="#012B48" points="2879.92,1128.92 2843.22,1125.22 2860.5,1148.91 2882.14,1128.42 
					2901.75,1168.92 2861.23,1148.74 2857.62,1166.77 2900.49,1168.82 				"/>
				<polyline fill="none" stroke="#012B48" points="2829.97,1165.12 2857.14,1167.27 2840.59,1183.79 2826.36,1197.63 
					2837.1,1197.63 2841.07,1184.04 2900.74,1169.81 				"/>
				<polyline fill="none" stroke="#012B48" stroke-dasharray="12" points="2841.07,1184.04 2941.33,1194.83 2837.1,1197.63 
					2826.24,1214.88 2941.33,1194.83 				"/>
				<line fill="none" stroke="#012B48" x1="2862.47" y1="1094.3" x2="2952.64" y2="1131.12"/>
				<line fill="none" stroke="#012B48" x1="2956.95" y1="911.97" x2="2969.05" y2="885.35"/>
				<polyline fill="none" stroke="#012B48" points="3254.11,1096.33 3191.78,1144.55 3251.22,1215.95 3153.34,1177.57 				"/>
				<line fill="none" stroke="#012B48" x1="3152.83" y1="1176.09" x2="3104.57" y2="1215.52"/>
				<circle id="_x2D_.elCircle-_26_" fill="none" stroke="#012B48" cx="2920.19" cy="887.83" r="23.5"/>
				<circle id="_x2D_.elCircle-_25_" fill="none" stroke="#012B48" cx="2915.28" cy="756.43" r="23.5"/>
				<circle id="_x2D_.elCircle-_24_" fill="none" stroke="#012B48" cx="3181.45" cy="891.19" r="23.5"/>
				<circle id="_x2D_.elCircle-_23_" fill="none" stroke="#012B48" cx="3035.41" cy="962.51" r="23.5"/>
				<circle id="_x2D_.elCircle-_22_" fill="none" stroke="#012B48" cx="2878.3" cy="1125.22" r="23.5"/>
				<circle id="_x2D_.elCircle-_21_" fill="none" stroke="#012B48" cx="2940.03" cy="1197" r="23.5"/>
				<circle id="_x2D_.elCircle-_20_" fill="none" stroke="#012B48" cx="3147.27" cy="1100.53" r="23.5"/>
				<circle id="_x2D_.elCircle-_19_" fill="none" stroke="#012B48" cx="3147.27" cy="1176.31" r="23.5"/>
				<g>
					<defs>
						<path id="SVGID_19_" d="M3055.33,1548.7l-7.5-9.37l0.78-0.63l7.5,9.37L3055.33,1548.7z M3040.34,1529.96l-7.5-9.37l0.78-0.63
							l7.5,9.37L3040.34,1529.96z M3025.34,1511.22l-7.5-9.37l0.78-0.63l7.5,9.37L3025.34,1511.22z M3010.34,1492.49l-7.5-9.37
							l0.78-0.63l7.5,9.37L3010.34,1492.49z M2995.34,1473.75l-7.5-9.37l0.78-0.63l7.5,9.37L2995.34,1473.75z M2980.34,1455.02
							l-7.5-9.37l0.78-0.63l7.5,9.37L2980.34,1455.02z M2965.34,1436.28l-7.5-9.37l0.78-0.63l7.5,9.37L2965.34,1436.28z
							 M2950.34,1417.54l-7.5-9.37l0.78-0.63l7.5,9.37L2950.34,1417.54z M2935.34,1398.81l-7.5-9.37l0.78-0.63l7.5,9.37
							L2935.34,1398.81z M2920.35,1380.07l-7.5-9.37l0.78-0.63l7.5,9.37L2920.35,1380.07z M2905.35,1361.34l-7.5-9.37l0.78-0.63
							l7.5,9.37L2905.35,1361.34z M2890.35,1342.6l-7.5-9.37l0.78-0.63l7.5,9.37L2890.35,1342.6z M2875.35,1323.86l-7.5-9.37
							l0.78-0.63l7.5,9.37L2875.35,1323.86z M2860.35,1305.13l-7.5-9.37l0.78-0.63l7.5,9.37L2860.35,1305.13z M2845.35,1286.39
							l-7.5-9.37l0.78-0.63l7.5,9.37L2845.35,1286.39z M2830.35,1267.66l-7.5-9.37l0.78-0.63l7.5,9.37L2830.35,1267.66z
							 M2815.35,1248.92l-7.5-9.37l0.78-0.63l7.5,9.37L2815.35,1248.92z M2800.36,1230.18l-7.5-9.37l0.78-0.63l7.5,9.37
							L2800.36,1230.18z"/>
					</defs>
					<clipPath id="SVGID_20_">
						<use xlink:href="#SVGID_19_"  overflow="visible"/>
					</clipPath>
					<g clip-path="url(#SVGID_20_)">
						
							<line id="_x2D_.elLine-_35_" fill="none" stroke="#012B48" stroke-width="3" stroke-dasharray="12" x1="2793.25" y1="1220.5" x2="3057.82" y2="1551"/>
					</g>
				</g>
				<g>
					<defs>
						<path id="SVGID_21_" d="M2987.19,719.94l-11.17-4.39l0.37-0.93l11.17,4.39L2987.19,719.94z M2964.86,711.15l-11.17-4.39
							l0.37-0.93l11.17,4.39L2964.86,711.15z M2942.53,702.36l-11.17-4.39l0.37-0.93l11.17,4.39L2942.53,702.36z M2920.19,693.58
							l-11.17-4.39l0.37-0.93l11.17,4.39L2920.19,693.58z M2897.86,684.79l-11.17-4.39l0.37-0.93l11.17,4.39L2897.86,684.79z
							 M2875.53,676l-11.17-4.39l0.37-0.93l11.17,4.39L2875.53,676z M2853.19,667.21l-11.17-4.39l0.37-0.93l11.17,4.39
							L2853.19,667.21z M2830.86,658.42l-11.17-4.39l0.37-0.93l11.17,4.39L2830.86,658.42z M2808.53,649.64l-11.17-4.39l0.37-0.93
							l11.17,4.39L2808.53,649.64z"/>
					</defs>
					<clipPath id="SVGID_22_">
						<use xlink:href="#SVGID_21_"  overflow="visible"/>
					</clipPath>
					<g clip-path="url(#SVGID_22_)">
						
							<line id="_x2D_.elLine-_34_" fill="none" stroke="#012B48" stroke-width="3" stroke-dasharray="12" x1="2987.37" y1="719.47" x2="2793.9" y2="643.34"/>
					</g>
				</g>
				<g>
					<defs>
						<path id="SVGID_23_" d="M3073.97,711.55l-0.62-0.78l9.38-7.48l0.62,0.78L3073.97,711.55z M3092.73,696.58l-0.62-0.78
							l9.38-7.48l0.62,0.78L3092.73,696.58z M3111.49,681.61l-0.62-0.78l9.38-7.48l0.62,0.78L3111.49,681.61z M3130.25,666.65
							l-0.62-0.78l9.38-7.48l0.62,0.78L3130.25,666.65z M3149.01,651.68l-0.62-0.78l9.38-7.48l0.62,0.78L3149.01,651.68z
							 M3167.77,636.71l-0.62-0.78l9.38-7.48l0.62,0.78L3167.77,636.71z M3186.53,621.74l-0.62-0.78l9.38-7.48l0.62,0.78
							L3186.53,621.74z M3205.29,606.77l-0.62-0.78l9.38-7.48l0.62,0.78L3205.29,606.77z M3224.05,591.8l-0.62-0.78l9.38-7.48
							l0.62,0.78L3224.05,591.8z M3242.81,576.83l-0.62-0.78l9.38-7.48l0.62,0.78L3242.81,576.83z M3261.57,561.87l-0.62-0.78
							l9.38-7.48l0.62,0.78L3261.57,561.87z M3280.33,546.9l-0.62-0.78l9.38-7.48l0.62,0.78L3280.33,546.9z M3299.09,531.93
							l-0.62-0.78l9.38-7.48l0.62,0.78L3299.09,531.93z M3317.85,516.96l-0.62-0.78l9.38-7.48l0.62,0.78L3317.85,516.96z
							 M3336.61,501.99l-0.62-0.78l9.38-7.48l0.62,0.78L3336.61,501.99z M3355.37,487.02l-0.62-0.78l9.38-7.48l0.62,0.78
							L3355.37,487.02z M3374.13,472.05l-0.62-0.78l9.38-7.48l0.62,0.78L3374.13,472.05z M3392.89,457.08l-0.62-0.78l9.38-7.48
							l0.62,0.78L3392.89,457.08z M3411.65,442.12l-0.62-0.78l9.38-7.48l0.62,0.78L3411.65,442.12z M3430.41,427.15l-0.62-0.78
							l9.38-7.48l0.62,0.78L3430.41,427.15z M3449.17,412.18l-0.62-0.78l7.87-6.28l0.62,0.78L3449.17,412.18z"/>
					</defs>
					<clipPath id="SVGID_24_">
						<use xlink:href="#SVGID_23_"  overflow="visible"/>
					</clipPath>
					<g clip-path="url(#SVGID_24_)">
						
							<line id="_x2D_.elLine-_33_" fill="none" stroke="#012B48" stroke-width="3" stroke-dasharray="12" x1="3073.66" y1="711.16" x2="3456.73" y2="405.51"/>
					</g>
				</g>
				<g>
					<defs>
						<path id="SVGID_25_" d="M3073.22,711.39l-5.44-10.69l0.89-0.45l5.44,10.69L3073.22,711.39z M3062.33,690l-5.44-10.69
							l0.89-0.45l5.44,10.69L3062.33,690z M3051.44,668.61l-5.44-10.69l0.89-0.45l5.44,10.69L3051.44,668.61z M3040.56,647.22
							l-5.44-10.69l0.89-0.45l5.44,10.69L3040.56,647.22z M3029.67,625.83l-5.44-10.69l0.89-0.45l5.44,10.69L3029.67,625.83z
							 M3018.78,604.44l-5.44-10.69l0.89-0.45l5.44,10.69L3018.78,604.44z M3007.9,583.06l-5.44-10.69l0.89-0.45l5.44,10.69
							L3007.9,583.06z M2997.01,561.67l-5.44-10.69l0.89-0.45l5.44,10.69L2997.01,561.67z M2986.12,540.28l-5.44-10.69l0.89-0.45
							l5.44,10.69L2986.12,540.28z M2975.24,518.89l-5.44-10.69l0.89-0.45l5.44,10.69L2975.24,518.89z M2964.35,497.5l-5.44-10.69
							l0.89-0.45l5.44,10.69L2964.35,497.5z M2953.46,476.11l-5.44-10.69l0.89-0.45l5.44,10.69L2953.46,476.11z M2942.58,454.72
							l-5.44-10.69l0.89-0.45l5.44,10.69L2942.58,454.72z M2931.69,433.33l-5.44-10.69l0.89-0.45l5.44,10.69L2931.69,433.33z
							 M2920.8,411.94l-5.44-10.69l0.89-0.45l5.44,10.69L2920.8,411.94z M2909.92,390.56l-5.44-10.69l0.89-0.45l5.44,10.69
							L2909.92,390.56z"/>
					</defs>
					<clipPath id="SVGID_26_">
						<use xlink:href="#SVGID_25_"  overflow="visible"/>
					</clipPath>
					<g clip-path="url(#SVGID_26_)">
						
							<line id="_x2D_.elLine-_32_" fill="none" stroke="#012B48" stroke-width="3" stroke-dasharray="12" x1="3073.66" y1="711.16" x2="2900.74" y2="371.43"/>
					</g>
				</g>
				<g>
					<defs>
						<path id="SVGID_27_" d="M3493.49,836.64l-8.05-0.08l0.01-1l8.05,0.08L3493.49,836.64z M3473.44,836.45l-12-0.12l0.01-1
							l12,0.12L3473.44,836.45z M3449.44,836.21l-12-0.12l0.01-1l12,0.12L3449.44,836.21z M3425.44,835.98l-12-0.12l0.01-1l12,0.12
							L3425.44,835.98z M3401.44,835.75l-12-0.12l0.01-1l12,0.12L3401.44,835.75z M3377.44,835.52l-12-0.12l0.01-1l12,0.12
							L3377.44,835.52z M3353.44,835.28l-12-0.12l0.01-1l12,0.12L3353.44,835.28z M3329.45,835.05l-12-0.12l0.01-1l12,0.12
							L3329.45,835.05z M3305.45,834.82l-12-0.12l0.01-1l12,0.12L3305.45,834.82z M3281.45,834.59l-12-0.12l0.01-1l12,0.12
							L3281.45,834.59z M3257.45,834.35l-12-0.12l0.01-1l12,0.12L3257.45,834.35z"/>
					</defs>
					<clipPath id="SVGID_28_">
						<use xlink:href="#SVGID_27_"  overflow="visible"/>
					</clipPath>
					<g clip-path="url(#SVGID_28_)">
						
							<line id="_x2D_.elLine-_31_" fill="none" stroke="#012B48" stroke-width="3" stroke-dasharray="12" x1="3245.45" y1="833.74" x2="3493.49" y2="836.14"/>
					</g>
				</g>
				<g>
					<defs>
						<path id="SVGID_29_" d="M3245.79,834.11l-0.66-0.75l8.97-7.97l0.66,0.75L3245.79,834.11z M3263.73,818.18l-0.66-0.75
							l8.97-7.97l0.66,0.75L3263.73,818.18z M3281.68,802.24l-0.66-0.75l8.97-7.97l0.66,0.75L3281.68,802.24z M3299.63,786.31
							l-0.66-0.75l8.97-7.97l0.66,0.75L3299.63,786.31z M3317.58,770.38l-0.66-0.75l8.97-7.97l0.66,0.75L3317.58,770.38z
							 M3335.52,754.44l-0.66-0.75l8.97-7.97l0.66,0.75L3335.52,754.44z M3353.47,738.51l-0.66-0.75l8.97-7.97l0.66,0.75
							L3353.47,738.51z M3371.42,722.57l-0.66-0.75l8.97-7.97l0.66,0.75L3371.42,722.57z M3389.37,706.64l-0.66-0.75l8.97-7.97
							l0.66,0.75L3389.37,706.64z M3407.32,690.71l-0.66-0.75l8.97-7.97l0.66,0.75L3407.32,690.71z M3425.26,674.77l-0.66-0.75
							l8.97-7.97l0.66,0.75L3425.26,674.77z"/>
					</defs>
					<clipPath id="SVGID_30_">
						<use xlink:href="#SVGID_29_"  overflow="visible"/>
					</clipPath>
					<g clip-path="url(#SVGID_30_)">
						
							<line id="_x2D_.elLine-_30_" fill="none" stroke="#012B48" stroke-width="3" stroke-dasharray="12" x1="3245.45" y1="833.74" x2="3438.34" y2="662.49"/>
					</g>
				</g>
				<g>
					<defs>
						<path id="SVGID_31_" d="M3250.82,1068.29l-0.96-1.27l0.8-0.6l0.96,1.27L3250.82,1068.29z M3242.61,1057.44l-7.24-9.57l0.8-0.6
							l7.24,9.57L3242.61,1057.44z M3228.13,1038.31l-7.24-9.57l0.8-0.6l7.24,9.57L3228.13,1038.31z M3213.65,1019.17l-7.24-9.57
							l0.8-0.6l7.24,9.57L3213.65,1019.17z M3199.17,1000.03l-7.24-9.57l0.8-0.6l7.24,9.57L3199.17,1000.03z"/>
					</defs>
					<clipPath id="SVGID_32_">
						<use xlink:href="#SVGID_31_"  overflow="visible"/>
					</clipPath>
					<g clip-path="url(#SVGID_32_)">
						
							<line id="_x2D_.elLine-_15_" fill="none" stroke="#012B48" stroke-width="3" stroke-dasharray="12" x1="3192.32" y1="990.16" x2="3251.22" y2="1067.99"/>
					</g>
				</g>
				<g>
					<defs>
						<path id="SVGID_33_" d="M3440.04,1036.45l-11.8-2.18l0.18-0.98l11.8,2.18L3440.04,1036.45z M3416.44,1032.09l-11.8-2.18
							l0.18-0.98l11.8,2.18L3416.44,1032.09z M3392.84,1027.73l-11.8-2.18l0.18-0.98l11.8,2.18L3392.84,1027.73z M3369.24,1023.36
							l-11.8-2.18l0.18-0.98l11.8,2.18L3369.24,1023.36z M3345.64,1019l-11.8-2.18l0.18-0.98l11.8,2.18L3345.64,1019z
							 M3322.04,1014.64l-11.8-2.18l0.18-0.98l11.8,2.18L3322.04,1014.64z M3298.44,1010.28l-11.8-2.18l0.18-0.98l11.8,2.18
							L3298.44,1010.28z M3274.83,1005.92l-11.8-2.18l0.18-0.98l11.8,2.18L3274.83,1005.92z M3251.24,1001.55l-11.8-2.18l0.18-0.98
							l11.8,2.18L3251.24,1001.55z M3227.63,997.19l-11.8-2.18l0.18-0.98l11.8,2.18L3227.63,997.19z M3204.03,992.83l-11.8-2.18
							l0.18-0.98l11.8,2.18L3204.03,992.83z"/>
					</defs>
					<clipPath id="SVGID_34_">
						<use xlink:href="#SVGID_33_"  overflow="visible"/>
					</clipPath>
					<g clip-path="url(#SVGID_34_)">
						
							<line id="_x2D_.elLine-_20_" fill="none" stroke="#012B48" stroke-width="3" stroke-dasharray="12" x1="3192.32" y1="990.16" x2="3447.54" y2="1037.33"/>
					</g>
				</g>
				<g>
					<defs>
						<path id="SVGID_35_" d="M2872.96,1678.67l-0.96-0.28l0.55-1.88l0.96,0.28L2872.96,1678.67z M2876.88,1665.28l-0.96-0.28
							l3.37-11.52l0.96,0.28L2876.88,1665.28z M2883.62,1642.24l-0.96-0.28l3.37-11.52l0.96,0.28L2883.62,1642.24z M2890.35,1619.21
							l-0.96-0.28l3.37-11.52l0.96,0.28L2890.35,1619.21z M2897.09,1596.17l-0.96-0.28l3.37-11.52l0.96,0.28L2897.09,1596.17z
							 M2903.83,1573.14l-0.96-0.28l3.37-11.52l0.96,0.28L2903.83,1573.14z M2910.56,1550.1l-0.96-0.28l3.37-11.52l0.96,0.28
							L2910.56,1550.1z M2917.3,1527.07l-0.96-0.28l3.37-11.52l0.96,0.28L2917.3,1527.07z M2924.04,1504.03l-0.96-0.28l3.37-11.52
							l0.96,0.28L2924.04,1504.03z M2930.77,1481l-0.96-0.28l3.37-11.52l0.96,0.28L2930.77,1481z M2937.51,1457.96l-0.96-0.28
							l3.37-11.52l0.96,0.28L2937.51,1457.96z M2944.25,1434.93l-0.96-0.28l3.37-11.52l0.96,0.28L2944.25,1434.93z M2950.98,1411.89
							l-0.96-0.28l3.37-11.52l0.96,0.28L2950.98,1411.89z M2957.72,1388.86l-0.96-0.28l3.37-11.52l0.96,0.28L2957.72,1388.86z
							 M2964.46,1365.82l-0.96-0.28l3.37-11.52l0.96,0.28L2964.46,1365.82z M2971.19,1342.79l-0.96-0.28l3.37-11.52l0.96,0.28
							L2971.19,1342.79z M2977.93,1319.75l-0.96-0.28l3.37-11.52l0.96,0.28L2977.93,1319.75z M2984.67,1296.72l-0.96-0.28
							l3.37-11.52l0.96,0.28L2984.67,1296.72z M2991.4,1273.68l-0.96-0.28l3.37-11.52l0.96,0.28L2991.4,1273.68z M2998.14,1250.65
							l-0.96-0.28l3.37-11.52l0.96,0.28L2998.14,1250.65z M3004.88,1227.61l-0.96-0.28l3.37-11.52l0.96,0.28L3004.88,1227.61z"/>
					</defs>
					<clipPath id="SVGID_36_">
						<use xlink:href="#SVGID_35_"  overflow="visible"/>
					</clipPath>
					<g clip-path="url(#SVGID_36_)">
						
							<line id="_x2D_.elLine-_7_" fill="none" stroke="#012B48" stroke-width="3" stroke-dasharray="12" x1="3007.76" y1="1215.95" x2="2872.48" y2="1678.53"/>
					</g>
				</g>
				<g>
					<defs>
						<path id="SVGID_37_" d="M2991.8,722.07l-2.68-11.7l0.97-0.22l2.68,11.7L2991.8,722.07z M2986.45,698.67l-2.68-11.7l0.97-0.22
							l2.68,11.7L2986.45,698.67z M2981.09,675.28l-2.68-11.7l0.97-0.22l2.68,11.7L2981.09,675.28z M2975.73,651.88l-2.68-11.7
							l0.97-0.22l2.68,11.7L2975.73,651.88z M2970.37,628.49l-2.68-11.7l0.97-0.22l2.68,11.7L2970.37,628.49z M2965.01,605.1
							l-2.68-11.7l0.97-0.22l2.68,11.7L2965.01,605.1z M2959.65,581.7l-2.68-11.7l0.97-0.22l2.68,11.7L2959.65,581.7z
							 M2954.29,558.31l-2.68-11.7l0.97-0.22l2.68,11.7L2954.29,558.31z"/>
					</defs>
					<clipPath id="SVGID_38_">
						<use xlink:href="#SVGID_37_"  overflow="visible"/>
					</clipPath>
					<g clip-path="url(#SVGID_38_)">
						
							<line id="_x2D_.elLine-_6_" fill="none" stroke="#012B48" stroke-width="3" stroke-dasharray="12" x1="2992.29" y1="721.95" x2="2951.76" y2="545.02"/>
					</g>
				</g>
				<g>
					<defs>
						<path id="SVGID_39_" d="M3254.02,1328.42l-5.02-2.22l0.4-0.91l5.02,2.22L3254.02,1328.42z M3238.02,1321.35l-10.97-4.85
							l0.4-0.91l10.97,4.85L3238.02,1321.35z M3216.08,1311.64l-10.97-4.85l0.4-0.91l10.97,4.85L3216.08,1311.64z M3194.13,1301.93
							l-10.97-4.85l0.4-0.91l10.97,4.85L3194.13,1301.93z M3172.18,1292.22l-10.97-4.85l0.4-0.91l10.97,4.85L3172.18,1292.22z
							 M3150.23,1282.51l-10.97-4.85l0.4-0.91l10.97,4.85L3150.23,1282.51z M3128.28,1272.81l-10.97-4.85l0.4-0.91l10.97,4.85
							L3128.28,1272.81z M3106.33,1263.1l-10.97-4.85l0.4-0.91l10.97,4.85L3106.33,1263.1z M3084.38,1253.39l-10.97-4.85l0.4-0.91
							l10.97,4.85L3084.38,1253.39z M3062.43,1243.68l-10.97-4.85l0.4-0.91l10.97,4.85L3062.43,1243.68z M3040.48,1233.97
							l-10.97-4.85l0.4-0.91l10.97,4.85L3040.48,1233.97z M3018.54,1224.26l-10.97-4.85l0.4-0.91l10.97,4.85L3018.54,1224.26z"/>
					</defs>
					<clipPath id="SVGID_40_">
						<use xlink:href="#SVGID_39_"  overflow="visible"/>
					</clipPath>
					<g clip-path="url(#SVGID_40_)">
						
							<line id="_x2D_.elLine-_5_" fill="none" stroke="#012B48" stroke-width="3" stroke-dasharray="12" x1="3007.76" y1="1218.95" x2="3254.22" y2="1327.96"/>
					</g>
				</g>
				<rect x="176.18" y="-514.29" fill="none" width="3840" height="2160"/>
			</g>
		</g>
		<g>
			<g>
				<circle fill="#A4CD38" cx="1994.89" cy="820.7" r="6.5"/>
				<circle fill="#A4CD38" cx="2015.71" cy="889.71" r="6.5"/>
				<circle fill="#A4CD38" cx="1964.87" cy="927.74" r="6.5"/>
				<circle fill="#A4CD38" cx="2001.95" cy="972.46" r="6.5"/>
				<circle fill="#A4CD38" cx="2092.56" cy="1209.98" r="6.5"/>
				<circle fill="#A4CD38" cx="2146.79" cy="1100.23" r="6.5"/>
				<circle fill="#A4CD38" cx="2240.36" cy="1098.08" r="6.5"/>
				<circle fill="#A4CD38" cx="2290.77" cy="1134.27" r="6.5"/>
				<circle fill="#A4CD38" cx="2337.22" cy="918.18" r="6.5"/>
				<circle fill="#A4CD38" cx="2233.86" cy="896.21" r="6.5"/>
				<circle fill="#A4CD38" cx="2202.26" cy="931.18" r="6.5"/>
				<circle fill="#A4CD38" cx="2219.98" cy="812.56" r="6.5"/>
				<circle fill="#A4CD38" cx="2164.32" cy="711.91" r="6.5"/>
				<circle fill="#A4CD38" cx="2103.91" cy="820.7" r="6.5"/>
				<g>
					<defs>
						<path id="SVGID_41_" d="M2010.59,748.85l-11.18-4.35l0.36-0.93l11.18,4.35L2010.59,748.85z M1988.22,740.15l-11.18-4.35
							l0.36-0.93l11.18,4.35L1988.22,740.15z M1965.85,731.46l-11.18-4.35l0.36-0.93l11.18,4.35L1965.85,731.46z M1943.48,722.76
							l-11.18-4.35l0.36-0.93l11.18,4.35L1943.48,722.76z M1921.11,714.06l-11.18-4.35l0.36-0.93l11.19,4.35L1921.11,714.06z
							 M1898.75,705.36l-11.18-4.35l0.36-0.93l11.18,4.35L1898.75,705.36z M1876.38,696.66l-11.18-4.35l0.36-0.93l11.18,4.35
							L1876.38,696.66z M1854.01,687.97l-11.18-4.35l0.36-0.93l11.18,4.35L1854.01,687.97z"/>
					</defs>
					<clipPath id="SVGID_42_">
						<use xlink:href="#SVGID_41_"  overflow="visible"/>
					</clipPath>
					
						<line id="_x2D_.elLine-" clip-path="url(#SVGID_42_)" fill="none" stroke="#012B48" stroke-width="3" stroke-dasharray="12" x1="2010.77" y1="748.39" x2="1839.75" y2="681.89"/>
				</g>
				<path fill="#A4CD38" d="M2078.67,1078.06l-83.55,15.72l-0.23,65.72l62.37-13.8l55.4-43.26c0,0-16.11-5.74-21.87-10.67
					S2078.67,1078.06,2078.67,1078.06z"/>
				<polygon fill="#A4CD38" points="2004.19,863.82 2018.71,889.71 2058.37,900.02 				"/>
				<polygon fill="#A4CD38" points="2047.79,791.17 2033.51,819.06 2086.06,834.19 				"/>
				<polygon fill="#A4CD38" points="2095.21,711.91 2072.72,747.49 2111.09,751.78 				"/>
				<polygon fill="#A4CD38" points="2290.42,904.7 2208.76,931.18 2273.41,940.74 				"/>
				<polygon fill="#A4CD38" points="2259.73,850.22 2237.86,895.5 2324.36,858.3 				"/>
				<polygon fill="#A4CD38" points="2333.23,1027.43 2249.38,995.56 2253.73,1038.98 				"/>
				<polygon fill="#A4CD38" points="2158.42,1168.49 2146.79,1106.73 2104.54,1170.98 				"/>
				<polygon fill="#A4CD38" points="1986.88,1038.56 2055.1,989.18 1963.83,999.59 				"/>
				<polygon fill="#A4CD38" points="1995.66,1093.92 1986.88,1038.56 1930.1,1037.71 				"/>
				<polyline fill="none" stroke="#012B48" points="2164.32,711.91 2111.67,751.4 2152.78,758.94 2137.99,816.17 2111.67,752.04 
					2104.54,819.06 2072.72,747.49 2095.21,711.91 2111.09,751.78 				"/>
				<polyline fill="none" stroke="#012B48" points="2152.78,758.97 2164.32,711.48 2173.1,794.71 2152.87,760.42 				"/>
				<polyline fill="none" stroke="#012B48" stroke-dasharray="12" points="2164.32,711.91 2219.17,816.17 2173.1,795.33 
					2180.77,840.93 2219.12,815.83 2259.73,850.22 2183.04,842.74 				"/>
				<polyline fill="none" stroke="#012B48" points="2230.69,735.94 2219.98,814.58 2278.88,774.72 				"/>
				<polyline fill="none" stroke="#012B48" stroke-dasharray="12" points="2219.7,815.83 2325.53,857.56 2259.73,850.22 
					2236.7,896.16 2324.36,858.3 2291.02,904.07 2236.17,896.22 2200.04,885.02 				"/>
				<polyline fill="none" stroke="#012B48" points="2236.08,896.89 2206.55,930.66 2290.42,904.7 2272.92,941.05 2335.97,917.57 
					2291.11,904.24 				"/>
				<polyline fill="none" stroke="#012B48" points="2273.88,941.05 2205.48,930.97 2248.36,995.56 2273.41,940.74 				"/>
				<polyline fill="none" stroke="#012B48" stroke-dasharray="12" points="2337.22,918.18 2249.38,995.56 2333.23,1027.43 
					2253.68,1038.24 2248.36,995.56 2203.33,1021.78 2253.73,1038.98 2241.13,1098.08 2202.26,1021.94 				"/>
				<polyline fill="none" stroke="#012B48" stroke-dasharray="12" points="2333.43,1028.15 2241.13,1098.08 2288.82,1134.37 
					2230.41,1140.13 2241.13,1098.08 2188.45,1070.61 2230.41,1140.13 2164.32,1208.83 2188.38,1070.18 				"/>
				<polyline fill="none" stroke="#012B48" points="2148.14,1103.52 2172.26,1158.06 2632.35,1168.27 2622.88,1103.52 
					2104.54,1170.98 2157.6,1168.27 				"/>
				<polyline fill="none" stroke="#012B48" stroke-dasharray="12" points="2158.42,1168.49 2163.2,1209.05 2103.53,1170.64 
					2111.78,1103.52 2057.3,1146.12 2094.41,1207.75 2103.46,1170.98 2057.3,1146.16 				"/>
				<polyline fill="none" stroke="#012B48" stroke-dasharray="12" points="2078.46,1077.76 1995.66,1093.92 2056.22,988.91 
					1987.98,1038.83 1995.66,1093.92 1930.1,1037.71 1986.88,1038.56 1925.44,1004.25 1963.83,999.59 1987.98,1038.83 				"/>
				<polyline fill="none" stroke="#012B48" stroke-dasharray="12" points="1964.17,999.56 2055.1,989.18 2004.44,973.83 
					1963.83,999.59 1922.49,960.46 2004.63,973.56 1967.42,950.22 1923.06,959.83 1967.14,927.74 1966.87,950.43 2055.1,930.97 
					2004.74,973.51 2055.1,959.55 				"/>
				<polyline fill="none" stroke="#012B48" stroke-dasharray="12" points="1923.29,924.17 1968.24,927.69 1933.21,866.86 
					1981.72,911.01 1967.49,927.69 2055.1,930.97 1981.75,911.24 2019.52,888.79 1933.21,866.86 2005.26,864.11 2018.7,888.45 
					2058.37,900.02 				"/>
				<polyline fill="none" stroke="#012B48" points="1933.21,866.86 1995.14,821.94 2004.19,863.82 2067.24,861.92 1995.71,820.7 
					2033.23,819.06 2067.47,861.85 				"/>
				<polyline fill="none" stroke="#012B48" stroke-dasharray="12" points="1958.37,812.28 1995.87,820.7 2010.47,749.23 
					2033.51,819.06 2047.79,791.17 2010.77,748.39 2052.43,761.55 2048.34,790.82 2086.06,834.19 				"/>
				<polyline fill="none" stroke="#012B48" points="2060.68,722.08 2072.72,747.49 2052.16,762.07 2104.6,820.7 				"/>
				<polyline fill="none" stroke="#012B48" points="1995.12,1093.79 1995.12,1159.22 2057.25,1146.05 				"/>
				<g>
					<g>
						<path fill="none" stroke="#012B48" stroke-dasharray="12" d="M2130.33,703.59c91.49,0,213.96,62.68,213.96,256.47
							c0,193.79-122.47,256.47-213.24,256.47c-90.77,0-213.24-62.68-213.24-256.47C1917.81,766.27,2040.28,703.59,2130.33,703.59z
							 M2130.66,1100.23c70.23,0,71.52-88.82,71.52-139.77c0-49.57-1.29-139.77-70.15-139.77c-70.92,0-73.67,88.13-73.67,139.77
							C2058.37,1010.73,2061.12,1100.23,2130.66,1100.23z"/>
					</g>
				</g>
				<g>
					<g>
						<path fill="none" stroke="#012B48" d="M2130.13,697.9c93.44,0,218.52,64.01,218.52,261.93
							c0,197.92-125.08,261.93-217.79,261.93c-92.71,0-217.79-64.01-217.79-261.93C1913.08,761.91,2038.16,697.9,2130.13,697.9z
							 M2130.6,1095.94c68.07,0,69.33-86.09,69.33-135.48c0-48.05-1.25-135.48-67.99-135.48c-68.74,0-71.41,85.43-71.41,135.48
							C2060.52,1009.17,2063.19,1095.94,2130.6,1095.94z"/>
					</g>
				</g>
				<circle id="_x2D_.elCircle-_10_" fill="none" stroke="#012B48" cx="2162.94" cy="709.02" r="23.5"/>
				<circle id="_x2D_.elCircle-_9_" fill="none" stroke="#012B48" cx="1963.83" cy="927.74" r="23.5"/>
				<circle id="_x2D_.elCircle-_8_" fill="none" stroke="#012B48" cx="2246.86" cy="1098.08" r="23.5"/>
				<circle id="_x2D_.elCircle-_7_" fill="none" stroke="#012B48" cx="2091.28" cy="1213.07" r="23.5"/>
				<circle id="_x2D_.elCircle-_6_" fill="none" stroke="#012B48" cx="2205.48" cy="927.74" r="23.5"/>
				<circle id="_x2D_.elCircle-_5_" fill="none" stroke="#012B48" cx="2278.88" cy="771.39" r="23.5"/>
				<g>
					<defs>
						<path id="SVGID_43_" d="M2290,1510.92l-0.43-0.67l0.84-0.54l0.43,0.67L2290,1510.92z M2283.05,1500.18l-6.52-10.07l0.84-0.54
							l6.52,10.07L2283.05,1500.18z M2270.01,1480.03l-6.52-10.07l0.84-0.54l6.52,10.07L2270.01,1480.03z M2256.98,1459.88
							l-6.52-10.07l0.84-0.54l6.52,10.07L2256.98,1459.88z M2243.94,1439.74l-6.52-10.07l0.84-0.54l6.52,10.07L2243.94,1439.74z
							 M2230.9,1419.59l-6.52-10.08l0.84-0.54l6.52,10.08L2230.9,1419.59z M2217.86,1399.44l-6.52-10.08l0.84-0.54l6.52,10.08
							L2217.86,1399.44z M2204.82,1379.29l-6.52-10.07l0.84-0.54l6.52,10.07L2204.82,1379.29z M2191.78,1359.14l-6.52-10.07
							l0.84-0.54l6.52,10.07L2191.78,1359.14z M2178.74,1338.99l-6.52-10.07l0.84-0.54l6.52,10.07L2178.74,1338.99z
							 M2165.71,1318.84l-6.52-10.08l0.84-0.54l6.52,10.08L2165.71,1318.84z M2152.67,1298.69l-6.52-10.08l0.84-0.54l6.52,10.08
							L2152.67,1298.69z M2139.63,1278.54l-6.52-10.08l0.84-0.54l6.52,10.08L2139.63,1278.54z M2126.59,1258.39l-6.52-10.07
							l0.84-0.54l6.52,10.07L2126.59,1258.39z M2113.55,1238.24l-6.52-10.07l0.84-0.54l6.52,10.07L2113.55,1238.24z
							 M2100.51,1218.09l-6.52-10.07l0.84-0.54l6.52,10.07L2100.51,1218.09z"/>
					</defs>
					<clipPath id="SVGID_44_">
						<use xlink:href="#SVGID_43_"  overflow="visible"/>
					</clipPath>
					<g clip-path="url(#SVGID_44_)">
						
							<line id="_x2D_.elLine-_42_" fill="none" stroke="#012B48" stroke-width="3" stroke-dasharray="12" x1="2094.41" y1="1207.75" x2="2290.42" y2="1510.65"/>
					</g>
				</g>
				<g>
					<defs>
						<path id="SVGID_45_" d="M1974.36,1448.3l-0.9-0.45l5.34-10.75l0.9,0.45L1974.36,1448.3z M1985.04,1426.8l-0.9-0.45l5.34-10.75
							l0.9,0.45L1985.04,1426.8z M1995.72,1405.31l-0.9-0.45l5.34-10.75l0.9,0.45L1995.72,1405.31z M2006.4,1383.82l-0.9-0.45
							l5.34-10.75l0.9,0.45L2006.4,1383.82z M2017.08,1362.33l-0.9-0.45l5.34-10.75l0.9,0.45L2017.08,1362.33z M2027.76,1340.83
							l-0.9-0.45l5.34-10.75l0.9,0.45L2027.76,1340.83z M2038.44,1319.34l-0.9-0.45l5.34-10.75l0.9,0.45L2038.44,1319.34z
							 M2049.12,1297.85l-0.9-0.45l5.34-10.75l0.9,0.45L2049.12,1297.85z M2059.8,1276.36l-0.89-0.45l5.34-10.75l0.9,0.45
							L2059.8,1276.36z M2070.48,1254.86l-0.9-0.45l5.34-10.75l0.9,0.45L2070.48,1254.86z M2081.16,1233.37l-0.9-0.45l5.34-10.75
							l0.9,0.45L2081.16,1233.37z"/>
					</defs>
					<clipPath id="SVGID_46_">
						<use xlink:href="#SVGID_45_"  overflow="visible"/>
					</clipPath>
					<g clip-path="url(#SVGID_46_)">
						
							<line id="_x2D_.elLine-_41_" fill="none" stroke="#012B48" stroke-width="3" stroke-dasharray="12" x1="2086.06" y1="1222.4" x2="1971.37" y2="1453.21"/>
					</g>
				</g>
				<g>
					<defs>
						<path id="SVGID_47_" d="M2011.59,748.19l-0.98-0.21l2.47-11.74l0.98,0.21L2011.59,748.19z M2016.53,724.71l-0.98-0.21
							l2.47-11.74l0.98,0.21L2016.53,724.71z M2021.46,701.22l-0.98-0.21l2.47-11.74l0.98,0.21L2021.46,701.22z M2026.4,677.73
							l-0.98-0.21l2.47-11.74l0.98,0.21L2026.4,677.73z M2031.33,654.24l-0.98-0.21l2.47-11.74l0.98,0.21L2031.33,654.24z
							 M2036.27,630.76l-0.98-0.21l2.47-11.74l0.98,0.21L2036.27,630.76z M2041.2,607.27l-0.98-0.21l2.47-11.74l0.98,0.21
							L2041.2,607.27z M2046.14,583.78l-0.98-0.21l1.26-6l0.98,0.21L2046.14,583.78z"/>
					</defs>
					<clipPath id="SVGID_48_">
						<use xlink:href="#SVGID_47_"  overflow="visible"/>
					</clipPath>
					<g clip-path="url(#SVGID_48_)">
						
							<line id="_x2D_.elLine-_40_" fill="none" stroke="#012B48" stroke-width="3" stroke-dasharray="12" x1="2011.11" y1="748.09" x2="2046.91" y2="577.68"/>
					</g>
				</g>
				<g>
					<defs>
						<path id="SVGID_49_" d="M2163.85,705.59l-4.4-11.16l0.93-0.37l4.4,11.16L2163.85,705.59z M2155.05,683.27l-4.4-11.16
							l0.93-0.37l4.4,11.16L2155.05,683.27z M2146.25,660.94l-4.4-11.16l0.93-0.37l4.4,11.16L2146.25,660.94z M2137.44,638.61
							l-4.4-11.16l0.93-0.37l4.4,11.16L2137.44,638.61z M2128.63,616.29l-4.4-11.16l0.93-0.37l4.4,11.16L2128.63,616.29z
							 M2119.83,593.96l-4.4-11.16l0.93-0.37l4.4,11.16L2119.83,593.96z M2111.03,571.63l-4.4-11.16l0.93-0.37l4.4,11.16
							L2111.03,571.63z M2102.22,549.31l-4.4-11.16l0.93-0.37l4.4,11.16L2102.22,549.31z M2093.42,526.98l-1.97-5l0.93-0.37l1.97,5
							L2093.42,526.98z"/>
					</defs>
					<clipPath id="SVGID_50_">
						<use xlink:href="#SVGID_49_"  overflow="visible"/>
					</clipPath>
					<g clip-path="url(#SVGID_50_)">
						
							<line id="_x2D_.elLine-_39_" fill="none" stroke="#012B48" stroke-width="3" stroke-dasharray="12" x1="2164.32" y1="705.41" x2="2091.91" y2="521.8"/>
					</g>
				</g>
				<g>
					<defs>
						<path id="SVGID_51_" d="M2397.17,1302.66l-11.15-4.44l0.37-0.93l11.15,4.44L2397.17,1302.66z M2374.87,1293.79l-11.15-4.44
							l0.37-0.93l11.15,4.44L2374.87,1293.79z M2352.57,1284.92l-11.15-4.44l0.37-0.93l11.15,4.44L2352.57,1284.92z
							 M2330.27,1276.05l-11.15-4.44l0.37-0.93l11.15,4.44L2330.27,1276.05z M2307.97,1267.18l-11.15-4.43l0.37-0.93l11.15,4.43
							L2307.97,1267.18z M2285.67,1258.31l-11.15-4.44l0.37-0.93l11.15,4.44L2285.67,1258.31z M2263.37,1249.44l-11.15-4.44
							l0.37-0.93l11.15,4.44L2263.37,1249.44z M2241.07,1240.57l-11.15-4.44l0.37-0.93l11.15,4.44L2241.07,1240.57z M2218.77,1231.7
							l-11.15-4.44l0.37-0.93l11.15,4.44L2218.77,1231.7z M2196.47,1222.83l-11.15-4.43l0.37-0.93l11.15,4.43L2196.47,1222.83z
							 M2174.17,1213.96l-11.15-4.44l0.37-0.93l11.15,4.44L2174.17,1213.96z"/>
					</defs>
					<clipPath id="SVGID_52_">
						<use xlink:href="#SVGID_51_"  overflow="visible"/>
					</clipPath>
					<g clip-path="url(#SVGID_52_)">
						
							<line id="_x2D_.elLine-_38_" fill="none" stroke="#012B48" stroke-width="3" stroke-dasharray="12" x1="2163.2" y1="1209.05" x2="2407.27" y2="1306.14"/>
					</g>
				</g>
				<g>
					<defs>
						<path id="SVGID_53_" d="M1945.22,1412.97l-0.68-0.73l7.68-7.16l0.68,0.73L1945.22,1412.97z M1961.67,1397.63l-0.68-0.73
							l8.78-8.18l0.68,0.73L1961.67,1397.63z M1979.23,1381.27l-0.68-0.73l8.78-8.18l0.68,0.73L1979.23,1381.27z M1996.78,1364.9
							l-0.68-0.73l8.78-8.18l0.68,0.73L1996.78,1364.9z M2014.33,1348.54l-0.68-0.73l8.78-8.18l0.68,0.73L2014.33,1348.54z
							 M2031.89,1332.17l-0.68-0.73l8.78-8.18l0.68,0.73L2031.89,1332.17z M2049.44,1315.8l-0.68-0.73l8.78-8.18l0.68,0.73
							L2049.44,1315.8z M2066.99,1299.44l-0.68-0.73l8.78-8.18l0.68,0.73L2066.99,1299.44z M2084.55,1283.07l-0.68-0.73l8.78-8.18
							l0.68,0.73L2084.55,1283.07z M2102.1,1266.7l-0.68-0.73l8.78-8.18l0.68,0.73L2102.1,1266.7z M2119.66,1250.34l-0.68-0.73
							l8.78-8.18l0.68,0.73L2119.66,1250.34z M2137.21,1233.97l-0.68-0.73l8.78-8.18l0.68,0.73L2137.21,1233.97z M2154.76,1217.6
							l-0.68-0.73l8.78-8.18l0.68,0.73L2154.76,1217.6z"/>
					</defs>
					<clipPath id="SVGID_54_">
						<use xlink:href="#SVGID_53_"  overflow="visible"/>
					</clipPath>
					<g clip-path="url(#SVGID_54_)">
						
							<line id="_x2D_.elLine-_37_" fill="none" stroke="#012B48" stroke-width="3" stroke-dasharray="12" x1="2163.2" y1="1209.05" x2="1944.88" y2="1412.61"/>
					</g>
				</g>
				<g>
					<defs>
						<path id="SVGID_55_" d="M2284.53,769.19l-0.53-0.85l10.16-6.39l0.53,0.85L2284.53,769.19z M2304.85,756.4l-0.53-0.85
							l10.16-6.39l0.53,0.85L2304.85,756.4z M2325.16,743.62l-0.53-0.85l10.16-6.39l0.53,0.85L2325.16,743.62z M2345.47,730.84
							l-0.53-0.85l10.16-6.39l0.53,0.85L2345.47,730.84z M2365.79,718.06l-0.53-0.85l10.16-6.39l0.53,0.85L2365.79,718.06z
							 M2386.1,705.28l-0.53-0.85l10.16-6.39l0.53,0.85L2386.1,705.28z M2406.41,692.5l-0.53-0.85l10.16-6.39l0.53,0.85
							L2406.41,692.5z M2426.73,679.71l-0.53-0.85l10.16-6.39l0.53,0.85L2426.73,679.71z M2447.04,666.93l-0.53-0.85l10.16-6.39
							l0.53,0.85L2447.04,666.93z M2467.35,654.15l-0.53-0.85l0.29-0.18l0.53,0.85L2467.35,654.15z"/>
					</defs>
					<clipPath id="SVGID_56_">
						<use xlink:href="#SVGID_55_"  overflow="visible"/>
					</clipPath>
					<g clip-path="url(#SVGID_56_)">
						
							<line id="_x2D_.elLine-_36_" fill="none" stroke="#012B48" stroke-width="3" stroke-dasharray="12" x1="2284.27" y1="768.76" x2="2467.38" y2="653.55"/>
					</g>
				</g>
				<rect x="176.18" y="-514.29" fill="none" width="3840" height="2160"/>
			</g>
		</g>
		<g>
			<g>
				<circle fill="#A4CD38" cx="1469.24" cy="1213.1" r="6.5"/>
				<circle fill="#A4CD38" cx="1543.61" cy="1167.28" r="6.5"/>
				<circle fill="#A4CD38" cx="1668.75" cy="1094.7" r="6.5"/>
				<circle fill="#A4CD38" cx="1722.04" cy="1150.28" r="6.5"/>
				<circle fill="#A4CD38" cx="1732.46" cy="1173.78" r="6.5"/>
				<circle fill="#A4CD38" cx="1794.65" cy="1174.46" r="6.5"/>
				<circle fill="#A4CD38" cx="1893.56" cy="1093.74" r="6.5"/>
				<circle fill="#A4CD38" cx="1838.76" cy="991.7" r="6.5"/>
				<circle fill="#A4CD38" cx="1675.25" cy="959.1" r="6.5"/>
				<circle fill="#A4CD38" cx="1796.09" cy="932" r="6.5"/>
				<circle fill="#A4CD38" cx="1802.59" cy="826.37" r="6.5"/>
				<circle fill="#A4CD38" cx="1774.63" cy="793.45" r="6.5"/>
				<circle fill="#A4CD38" cx="1714.04" cy="714.33" r="6.5"/>
				<circle fill="#A4CD38" cx="1550.71" cy="797.33" r="6.5"/>
				<circle fill="#A4CD38" cx="1598.09" cy="911.38" r="6.5"/>
				<circle fill="#A4CD38" cx="1478.2" cy="929.06" r="6.5"/>
				<circle fill="#A4CD38" cx="1486.47" cy="1123.59" r="6.5"/>
				<g>
					
						<text transform="matrix(1 0 0 1 1443.5712 1213.8861)" fill="none" stroke="#012B48" font-family="'HelveticaNeueLTStd-Blk'" font-size="706.7555px">2</text>
				</g>
				<g>
					<g>
						<path fill="none" stroke="#012B48" stroke-dasharray="12" d="M1474.8,932.44c-10.67-143.95,83.73-221.54,213.88-221.45
							c122.53,0.08,205.91,61.05,203.76,158.78c-3.08,139.9-148.93,178.96-211.46,220.86c22.67-1.7,218.71,0,218.71,0v126.48
							h-435.04c-2.9-48.58,6.23-86.33,30.88-120.41c42.05-58.73,110.72-99.35,179.08-139.53c26.1-15.95,67.69-33.03,67.08-70
							c-0.58-35.08-20.38-56.96-54.46-57.33c-53.68-0.58-75.43,40.98-73.98,102.6H1474.8z"/>
					</g>
				</g>
				<g>
					<g>
						<path fill="none" stroke="#012B48" stroke-dasharray="12" d="M1471.13,936.43c-10.76-145.2,78.98-229.82,215.73-229.82
							c123.59,0,210.79,61.73,209.82,163.37c-1.32,138.58-160.59,191.2-203.63,217.4c22.87-1.71,209.86,0,209.86,0v134.02h-442.02
							c-2.92-49,4.14-88.16,29-122.53c44.3-66.61,117.69-105.54,182.77-145.03c26.33-16.09,65.51-29.02,65.51-66.31
							c0-46.07-31.57-53.18-52.78-54.6c-43.84-2.93-72.35,38.23-69.24,103.5H1471.13z"/>
					</g>
				</g>
				<path fill="#A4CD38" d="M1583.28,1018.71c0,0-37.7,27-46.78,36.25c-9.46,9.64-32.92,36.63-32.92,36.63l93.89,38.08
					L1583.28,1018.71z"/>
				<polygon fill="#A4CD38" points="1804.59,826.87 1744.55,866.28 1818.03,888.7 				"/>
				<polygon fill="#A4CD38" points="1706.54,759.29 1650.79,779.17 1694.57,827.44 				"/>
				<polygon fill="#A4CD38" points="1513.62,864.57 1479.66,899.67 1529.65,890.53 				"/>
				<polygon fill="#A4CD38" points="1526.65,890.53 1480.7,928.06 1598.09,911.38 				"/>
				<polygon fill="#A4CD38" points="1781.38,977.01 1733.54,974.68 1769.76,1035.69 				"/>
				<polygon fill="#A4CD38" points="1662.24,1177.68 1652.48,1212.03 1744.96,1213.05 				"/>
				<polygon fill="#A4CD38" points="1795.65,1094.7 1835.58,1142.92 1893.56,1094.74 				"/>
				<polyline fill="none" stroke="#012B48" points="1478.2,929.06 1600.28,911.19 1609.01,927.58 				"/>
				<polyline fill="none" stroke="#012B48" points="1478.2,929.06 1527.88,889.8 1600.28,911.19 1562.99,886.51 1614.88,883.01 				
					"/>
				<polyline fill="none" stroke="#012B48" points="1513.62,864.57 1563.44,886.44 1528.39,890.28 1513.62,864.14 1479.66,899.67 
					1528,889.85 				"/>
				<polyline fill="none" stroke="#012B48" points="1563.44,886.2 1576.15,848.73 1618.08,873.12 1551.95,796.7 1536.11,832.21 
					1491.35,838.15 				"/>
				<path fill="none" stroke="#012B48" d="M1576.15,844.28"/>
				<line fill="none" stroke="#012B48" x1="1576.1" y1="848.97" x2="1550.27" y2="797.33"/>
				<line fill="none" stroke="#012B48" x1="1550.27" y1="797.33" x2="1503.59" y2="809.07"/>
				<polyline fill="none" stroke="#012B48" stroke-dasharray="12" points="1635.89,842.52 1551.72,796.01 1595.89,797.33 
					1635.89,842.52 1650.19,780.11 1595.89,797.33 1556.95,752.16 1551.72,796.01 1489.51,838.82 1512.53,862.9 1536.11,832.21 
					1576.15,848.66 1513.71,863.98 				"/>
				<polyline fill="none" stroke="#012B48" points="1558.54,750.63 1649.6,778.96 1631,721.42 1684.15,745.89 1650.24,777.89 
					1707.78,759.26 1684.75,745.55 1714.37,716.33 1707.24,758.6 1777.44,793.27 1714.37,716.33 				"/>
				<polyline fill="none" stroke="#012B48" points="1660.72,830 1650.79,780.17 1694.57,827.44 1706.54,759.29 				"/>
				<polyline fill="none" stroke="#012B48" stroke-dasharray="12" points="1694.57,827.44 1776.3,794.55 1734.11,844.28 
					1795.59,828.6 1804.32,826.37 1777.44,793.47 1817.48,746.65 1803.77,825.29 1853.13,775.71 				"/>
				<polyline fill="none" stroke="#012B48" points="1744.55,866.28 1804.18,826.45 1818.03,888.7 1883.25,832.26 1804.93,826.37 
									"/>
				<polyline fill="none" stroke="#012B48" points="1743.51,865.97 1818.2,888.7 1744.62,888.7 				"/>
				<polyline fill="none" stroke="#012B48" stroke-dasharray="12" points="1885.4,886.2 1818.03,888.7 1872.83,940.26 
					1744.6,897.52 1797.73,931.48 1871.12,940.87 				"/>
				<polyline fill="none" stroke="#012B48" points="1798.78,931.58 1737.4,915.12 1781.38,977.01 1798.78,932.65 1835.58,988.53 
					1781.12,977.58 1769.76,1035.69 1732.46,973.72 1782.81,977.56 				"/>
				<polyline fill="none" stroke="#012B48" stroke-dasharray="12" points="1736.83,916.31 1733.54,974.68 1678.23,960.58 
					1768.07,1036.77 1695.72,1013.76 1677.59,960.6 1654.58,1029.66 1696.75,1013.87 1671.86,1093.74 1654.58,1030.32 
					1587.64,1052.82 1583.28,1019.79 1654.49,1029.64 				"/>
				<polyline fill="none" stroke="#012B48" stroke-dasharray="12" points="1671.47,1092.14 1587.71,1052.82 1598.09,1129.48 
					1671.52,1094.43 1669.37,1116.32 1689.66,1113.56 1672.45,1094.45 1697.96,1110.84 1793.89,1093.74 1738.5,1136.61 
					1796.09,1174.46 1793.87,1095.59 				"/>
				<polyline fill="none" stroke="#012B48" points="1668.75,1116.87 1598.09,1129.48 1662.24,1177.68 1723.14,1149.78 
					1689.75,1113.65 1699.46,1111.49 1738.91,1137.14 				"/>
				<line fill="none" stroke="#012B48" x1="1668.75" y1="1116.87" x2="1662.24" y2="1177.68"/>
				<polyline fill="none" stroke="#012B48" points="1738.16,1137.07 1723.48,1149.42 1796,1174.46 1732.46,1174.46 1723.42,1151.06 
									"/>
				<polyline fill="none" stroke="#012B48" points="1732.46,1174.46 1662.27,1177.68 1747.82,1213.89 1733.23,1176.45 				"/>
				<polyline fill="none" stroke="#012B48" points="1750.56,1212.17 1795.24,1174.46 1893.56,1212.17 1835.58,1142.92 
					1892.48,1096.85 				"/>
				<polyline fill="none" stroke="#012B48" points="1794.65,1094.7 1835.4,1143.01 1796.8,1173.45 				"/>
				<polyline fill="none" stroke="#012B48" points="1598.09,1129.78 1585.2,1193.2 1545,1167.19 1597.47,1129.67 1524.32,1126.88 
					1503.34,1094.7 				"/>
				<polyline fill="none" stroke="#012B48" points="1523.18,1127.29 1486.47,1123.59 1503.75,1147.28 1525.39,1126.79 1545,1167.28 
					1504.48,1147.1 1500.87,1165.13 1543.74,1167.19 				"/>
				<polyline fill="none" stroke="#012B48" stroke-dasharray="12" points="1473.22,1163.49 1500.39,1165.64 1483.85,1182.16 
					1469.61,1196 1480.35,1196 1484.33,1182.41 1544,1168.17 				"/>
				<polyline fill="none" stroke="#012B48" stroke-dasharray="12" points="1484.33,1182.41 1584.58,1193.2 1480.35,1196 
					1469.49,1213.25 1584.58,1193.2 				"/>
				<line fill="none" stroke="#012B48" x1="1505.73" y1="1092.66" x2="1595.9" y2="1129.48"/>
				<line fill="none" stroke="#012B48" x1="1600.2" y1="910.33" x2="1612.3" y2="883.72"/>
				<polygon fill="none" stroke="#012B48" stroke-dasharray="12" points="1585.2,1193.2 1662.24,1177.68 1651.27,1215.29 				"/>
				<circle id="_x2D_.elCircle-_4_" fill="none" stroke="#012B48" cx="1714.41" cy="716.07" r="23.5"/>
				<circle id="_x2D_.elCircle-_3_" fill="none" stroke="#012B48" cx="1775.44" cy="793.83" r="23.5"/>
				<circle id="_x2D_.elCircle-_2_" fill="none" stroke="#012B48" cx="1675.67" cy="959.1" r="23.5"/>
				<circle id="_x2D_.elCircle-_1_" fill="none" stroke="#012B48" cx="1721.42" cy="1150.08" r="23.5"/>
				<circle id="_x2D_.elCircle-" fill="none" stroke="#012B48" cx="1471.7" cy="1207.39" r="23.5"/>
				<g>
					<defs>
						<path id="SVGID_57_" d="M1473.57,1221.91h-12v-1h12V1221.91z M1449.57,1221.91h-12v-1h12V1221.91z M1425.57,1221.91h-12v-1h12
							V1221.91z M1401.57,1221.91h-12v-1h12V1221.91z M1377.57,1221.91h-12v-1h12V1221.91z M1353.57,1221.91h-12v-1h12V1221.91z
							 M1329.57,1221.91h-12v-1h12V1221.91z M1305.57,1221.91h-12v-1h12V1221.91z M1281.57,1221.91h-12v-1h12V1221.91z
							 M1257.57,1221.91h-12v-1h12V1221.91z M1233.57,1221.91h-12v-1h12V1221.91z M1209.57,1221.91h-12v-1h12V1221.91z
							 M1185.57,1221.91h-12v-1h12V1221.91z M1161.57,1221.91h-12v-1h12V1221.91z M1137.57,1221.91h-12v-1h12V1221.91z
							 M1113.57,1221.91h-12v-1h12V1221.91z M1089.57,1221.91h-12v-1h12V1221.91z M1065.57,1221.91h-12v-1h12V1221.91z
							 M1041.57,1221.91h-12v-1h12V1221.91z M1017.57,1221.91h-12v-1h12V1221.91z M993.57,1221.91h-12v-1h12V1221.91z
							 M969.57,1221.91h-12v-1h12V1221.91z M945.57,1221.91h-12v-1h12V1221.91z M921.57,1221.91h-12v-1h12V1221.91z M897.57,1221.91
							h-12v-1h12V1221.91z M873.57,1221.91h-12v-1h12V1221.91z M849.57,1221.91h-5.79v-1h5.79V1221.91z"/>
					</defs>
					<clipPath id="SVGID_58_">
						<use xlink:href="#SVGID_57_"  overflow="visible"/>
					</clipPath>
					<g clip-path="url(#SVGID_58_)">
						
							<line id="_x2D_.elLine-_45_" fill="none" stroke="#012B48" stroke-width="3" stroke-dasharray="12" x1="1473.57" y1="1221.41" x2="843.78" y2="1221.41"/>
					</g>
				</g>
				<g>
					<defs>
						<path id="SVGID_59_" d="M1903.41,1088.89h-1v-12h1V1088.89z M1903.41,1064.89h-1v-12h1V1064.89z M1903.41,1040.89h-1v-12h1
							V1040.89z M1903.41,1016.89h-1v-12h1V1016.89z M1903.41,992.89h-1v-12h1V992.89z"/>
					</defs>
					<clipPath id="SVGID_60_">
						<use xlink:href="#SVGID_59_"  overflow="visible"/>
					</clipPath>
					<g clip-path="url(#SVGID_60_)">
						
							<line id="_x2D_.elLine-_19_" fill="none" stroke="#012B48" stroke-width="3" stroke-dasharray="12" x1="1902.91" y1="1088.89" x2="1902.91" y2="972.48"/>
					</g>
				</g>
				<g>
					<defs>
						<path id="SVGID_61_" d="M1165.14,1066.43l-0.57-0.82l9.82-6.89l0.57,0.82L1165.14,1066.43z M1184.79,1052.64l-0.57-0.82
							l9.82-6.89l0.57,0.82L1184.79,1052.64z M1204.43,1038.85l-0.57-0.82l9.82-6.89l0.57,0.82L1204.43,1038.85z M1224.08,1025.06
							l-0.57-0.82l9.82-6.89l0.57,0.82L1224.08,1025.06z M1243.72,1011.27l-0.57-0.82l9.82-6.89l0.57,0.82L1243.72,1011.27z
							 M1263.36,997.49l-0.57-0.82l9.82-6.89l0.57,0.82L1263.36,997.49z M1283.01,983.7l-0.57-0.82l9.82-6.89l0.57,0.82
							L1283.01,983.7z M1302.65,969.91l-0.57-0.82l9.82-6.89l0.57,0.82L1302.65,969.91z M1322.29,956.12l-0.57-0.82l9.82-6.89
							l0.57,0.82L1322.29,956.12z M1341.94,942.33l-0.57-0.82l9.82-6.89l0.57,0.82L1341.94,942.33z M1361.58,928.54l-0.57-0.82
							l9.82-6.89l0.57,0.82L1361.58,928.54z M1381.22,914.75l-0.57-0.82l9.82-6.89l0.57,0.82L1381.22,914.75z M1400.87,900.97
							l-0.57-0.82l9.82-6.89l0.57,0.82L1400.87,900.97z M1420.51,887.18l-0.57-0.82l9.82-6.89l0.57,0.82L1420.51,887.18z
							 M1440.16,873.39l-0.57-0.82l9.82-6.89l0.57,0.82L1440.16,873.39z M1459.8,859.6l-0.57-0.82l9.82-6.89l0.57,0.82L1459.8,859.6
							z M1479.44,845.81l-0.57-0.82l9.82-6.89l0.57,0.82L1479.44,845.81z"/>
					</defs>
					<clipPath id="SVGID_62_">
						<use xlink:href="#SVGID_61_"  overflow="visible"/>
					</clipPath>
					<g clip-path="url(#SVGID_62_)">
						
							<line id="_x2D_.elLine-_18_" fill="none" stroke="#012B48" stroke-width="3" stroke-dasharray="12" x1="1488.98" y1="838.51" x2="1159.36" y2="1069.88"/>
					</g>
				</g>
				<g>
					<defs>
						<path id="SVGID_63_" d="M1819.91,743.33l-0.99-0.15l1.77-11.87l0.99,0.15L1819.91,743.33z M1823.46,719.59l-0.99-0.15
							l1.77-11.87l0.99,0.15L1823.46,719.59z M1827.01,695.86l-0.99-0.15l1.77-11.87l0.99,0.15L1827.01,695.86z M1830.55,672.12
							l-0.99-0.15l1.77-11.87l0.99,0.15L1830.55,672.12z M1834.1,648.38l-0.99-0.15l1.77-11.87l0.99,0.15L1834.1,648.38z
							 M1837.65,624.65l-0.99-0.15l1.77-11.87l0.99,0.15L1837.65,624.65z M1841.2,600.91l-0.99-0.15l1.77-11.87l0.99,0.15
							L1841.2,600.91z M1844.75,577.18l-0.99-0.15l1.77-11.87l0.99,0.15L1844.75,577.18z M1848.3,553.44l-0.99-0.15l1.77-11.87
							l0.99,0.15L1848.3,553.44z M1851.85,529.7l-0.99-0.15l1.77-11.83l0.99,0.15L1851.85,529.7z"/>
					</defs>
					<clipPath id="SVGID_64_">
						<use xlink:href="#SVGID_63_"  overflow="visible"/>
					</clipPath>
					<g clip-path="url(#SVGID_64_)">
						
							<line id="_x2D_.elLine-_17_" fill="none" stroke="#012B48" stroke-width="3" stroke-dasharray="12" x1="1819.41" y1="743.26" x2="1853.13" y2="517.8"/>
					</g>
				</g>
				<g>
					<defs>
						<path id="SVGID_65_" d="M1823.55,740.18l-0.73-0.68l8.19-8.77l0.73,0.68L1823.55,740.18z M1839.93,722.64l-0.73-0.68
							l8.19-8.77l0.73,0.68L1839.93,722.64z M1856.31,705.1l-0.73-0.68l8.19-8.77l0.73,0.68L1856.31,705.1z M1872.7,687.57
							l-0.73-0.68l8.19-8.77l0.73,0.68L1872.7,687.57z M1889.08,670.03l-0.73-0.68l8.19-8.77l0.73,0.68L1889.08,670.03z
							 M1905.46,652.49l-0.73-0.68l8.19-8.77l0.73,0.68L1905.46,652.49z M1921.85,634.95l-0.73-0.68l8.19-8.77l0.73,0.68
							L1921.85,634.95z M1938.23,617.41l-0.73-0.68l5.61-6l0.73,0.68L1938.23,617.41z"/>
					</defs>
					<clipPath id="SVGID_66_">
						<use xlink:href="#SVGID_65_"  overflow="visible"/>
					</clipPath>
					<g clip-path="url(#SVGID_66_)">
						
							<line id="_x2D_.elLine-_16_" fill="none" stroke="#012B48" stroke-width="3" stroke-dasharray="12" x1="1823.18" y1="739.84" x2="1943.47" y2="611.07"/>
					</g>
				</g>
				<g>
					<defs>
						<path id="SVGID_67_" d="M2428.81,1440.67l-11.53-3.33l0.28-0.96l11.53,3.33L2428.81,1440.67z M2405.75,1434.01l-11.53-3.33
							l0.28-0.96l11.53,3.33L2405.75,1434.01z M2382.69,1427.36l-11.53-3.33l0.28-0.96l11.53,3.33L2382.69,1427.36z
							 M2359.63,1420.71l-11.53-3.33l0.28-0.96l11.53,3.33L2359.63,1420.71z M2336.57,1414.05l-11.53-3.33l0.28-0.96l11.53,3.33
							L2336.57,1414.05z M2313.51,1407.4l-11.53-3.33l0.28-0.96l11.53,3.33L2313.51,1407.4z M2290.46,1400.75l-11.53-3.33l0.28-0.96
							l11.53,3.33L2290.46,1400.75z M2267.4,1394.09l-11.53-3.33l0.28-0.96l11.53,3.33L2267.4,1394.09z M2244.34,1387.44
							l-11.53-3.33l0.28-0.96l11.53,3.33L2244.34,1387.44z M2221.28,1380.79l-11.53-3.33l0.28-0.96l11.53,3.33L2221.28,1380.79z
							 M2198.22,1374.13l-11.53-3.33l0.28-0.96l11.53,3.33L2198.22,1374.13z M2175.16,1367.48l-11.53-3.33l0.28-0.96l11.53,3.33
							L2175.16,1367.48z M2152.1,1360.83l-11.53-3.33l0.28-0.96l11.53,3.33L2152.1,1360.83z M2129.04,1354.17l-11.53-3.33l0.28-0.96
							l11.53,3.33L2129.04,1354.17z M2105.98,1347.52l-11.53-3.33l0.28-0.96l11.53,3.33L2105.98,1347.52z M2082.92,1340.87
							l-11.53-3.33l0.28-0.96l11.53,3.33L2082.92,1340.87z M2059.86,1334.21l-11.53-3.33l0.28-0.96l11.53,3.33L2059.86,1334.21z
							 M2036.8,1327.56l-11.53-3.33l0.28-0.96l11.53,3.33L2036.8,1327.56z M2013.74,1320.9l-11.53-3.33l0.28-0.96l11.53,3.33
							L2013.74,1320.9z M1990.69,1314.25l-11.53-3.33l0.28-0.96l11.53,3.33L1990.69,1314.25z M1967.63,1307.6l-11.53-3.33l0.28-0.96
							l11.53,3.33L1967.63,1307.6z M1944.57,1300.94l-11.53-3.33l0.28-0.96l11.53,3.33L1944.57,1300.94z M1921.51,1294.29
							l-11.53-3.33l0.28-0.96l11.53,3.33L1921.51,1294.29z M1898.45,1287.64l-11.53-3.33l0.28-0.96l11.53,3.33L1898.45,1287.64z
							 M1875.39,1280.98l-11.53-3.33l0.28-0.96l11.53,3.33L1875.39,1280.98z M1852.33,1274.33l-11.53-3.33l0.28-0.96l11.53,3.33
							L1852.33,1274.33z M1829.27,1267.68l-11.53-3.33l0.28-0.96l11.53,3.33L1829.27,1267.68z M1806.21,1261.02l-11.53-3.33
							l0.28-0.96l11.53,3.33L1806.21,1261.02z M1783.15,1254.37l-11.53-3.33l0.28-0.96l11.53,3.33L1783.15,1254.37z
							 M1760.09,1247.72l-11.53-3.33l0.28-0.96l11.53,3.33L1760.09,1247.72z M1737.03,1241.06l-11.53-3.33l0.28-0.96l11.53,3.33
							L1737.03,1241.06z M1713.97,1234.41l-11.53-3.33l0.28-0.96l11.53,3.33L1713.97,1234.41z M1690.91,1227.75l-11.53-3.33
							l0.28-0.96l11.53,3.33L1690.91,1227.75z M1667.86,1221.1l-11.53-3.33l0.28-0.96l11.53,3.33L1667.86,1221.1z"/>
					</defs>
					<clipPath id="SVGID_68_">
						<use xlink:href="#SVGID_67_"  overflow="visible"/>
					</clipPath>
					<g clip-path="url(#SVGID_68_)">
						
							<line id="_x2D_.elLine-_4_" fill="none" stroke="#012B48" stroke-width="3" stroke-dasharray="12" x1="1656.46" y1="1217.29" x2="2433.04" y2="1441.37"/>
					</g>
				</g>
				<g>
					<defs>
						<path id="SVGID_69_" d="M1469.61,1196.5l-12-0.06l0-1l12,0.06L1469.61,1196.5z M1445.61,1196.39l-12-0.06l0-1l12,0.06
							L1445.61,1196.39z M1421.61,1196.27l-12-0.06l0-1l12,0.06L1421.61,1196.27z M1397.61,1196.16l-12-0.06l0-1l12,0.06
							L1397.61,1196.16z M1373.61,1196.04l-12-0.06l0-1l12,0.06L1373.61,1196.04z M1349.61,1195.92l-12-0.06l0-1l12,0.06
							L1349.61,1195.92z M1325.61,1195.81l-12-0.06l0-1l12,0.06L1325.61,1195.81z M1301.61,1195.69l-12-0.06l0-1l12,0.06
							L1301.61,1195.69z M1277.61,1195.58l-12-0.06l0-1l12,0.06L1277.61,1195.58z M1253.61,1195.46l-12-0.06l0-1l12,0.06
							L1253.61,1195.46z M1229.61,1195.35l-12-0.06l0-1l12,0.06L1229.61,1195.35z M1205.61,1195.23l-12-0.06l0-1l12,0.06
							L1205.61,1195.23z M1181.61,1195.12l-12-0.06l0-1l12,0.06L1181.61,1195.12z M1157.61,1195l-12-0.06l0-1l12,0.06L1157.61,1195z
							 M1133.61,1194.89l-12-0.06l0-1l12,0.06L1133.61,1194.89z M1109.61,1194.77l-12-0.06l0-1l12,0.06L1109.61,1194.77z"/>
					</defs>
					<clipPath id="SVGID_70_">
						<use xlink:href="#SVGID_69_"  overflow="visible"/>
					</clipPath>
					<g clip-path="url(#SVGID_70_)">
						
							<line id="_x2D_.elLine-_3_" fill="none" stroke="#012B48" stroke-width="3" stroke-dasharray="12" x1="1469.61" y1="1196" x2="1088.89" y2="1194.17"/>
					</g>
				</g>
				<g>
					<defs>
						<path id="SVGID_71_" d="M1489.08,839.07l-6.07-10.35l0.86-0.51l6.07,10.35L1489.08,839.07z M1476.95,818.36l-6.07-10.35
							l0.86-0.51l6.07,10.35L1476.95,818.36z M1464.81,797.66l-6.07-10.35l0.86-0.51l6.07,10.35L1464.81,797.66z M1452.68,776.95
							l-6.07-10.35l0.86-0.51l6.07,10.35L1452.68,776.95z M1440.54,756.24l-6.07-10.35l0.86-0.51l6.07,10.35L1440.54,756.24z
							 M1428.41,735.54l-6.07-10.35l0.86-0.51l6.07,10.35L1428.41,735.54z M1416.27,714.83l-6.07-10.35l0.86-0.51l6.07,10.35
							L1416.27,714.83z M1404.14,694.12l-6.07-10.35l0.86-0.51l6.07,10.35L1404.14,694.12z M1392,673.42l-6.07-10.35l0.86-0.51
							l6.07,10.35L1392,673.42z M1379.87,652.71l-6.07-10.35l0.86-0.51l6.07,10.35L1379.87,652.71z M1367.73,632.01l-6.07-10.35
							l0.86-0.51l6.07,10.35L1367.73,632.01z M1355.6,611.3l-6.07-10.35l0.86-0.51l6.07,10.35L1355.6,611.3z M1343.46,590.59
							l-6.07-10.35l0.86-0.51l6.07,10.35L1343.46,590.59z"/>
					</defs>
					<clipPath id="SVGID_72_">
						<use xlink:href="#SVGID_71_"  overflow="visible"/>
					</clipPath>
					<g clip-path="url(#SVGID_72_)">
						
							<line id="_x2D_.elLine-_2_" fill="none" stroke="#012B48" stroke-width="3" stroke-dasharray="12" x1="1489.51" y1="838.82" x2="1336.29" y2="577.37"/>
					</g>
				</g>
				<g>
					<defs>
						<path id="SVGID_73_" d="M1544.38,1460.84l-0.77-0.64l5.07-6.13l0.77,0.64L1544.38,1460.84z M1557.09,1445.45l-0.77-0.64
							l7.64-9.25l0.77,0.64L1557.09,1445.45z M1572.38,1426.95l-0.77-0.64l7.64-9.25l0.77,0.64L1572.38,1426.95z M1587.67,1408.45
							l-0.77-0.64l7.64-9.25l0.77,0.64L1587.67,1408.45z M1602.96,1389.95l-0.77-0.64l7.64-9.25l0.77,0.64L1602.96,1389.95z
							 M1618.25,1371.45l-0.77-0.64l7.64-9.25l0.77,0.64L1618.25,1371.45z M1633.54,1352.95l-0.77-0.64l7.64-9.25l0.77,0.64
							L1633.54,1352.95z M1648.83,1334.45l-0.77-0.64l7.64-9.25l0.77,0.64L1648.83,1334.45z M1664.12,1315.95l-0.77-0.64l7.64-9.25
							l0.77,0.64L1664.12,1315.95z M1679.41,1297.45l-0.77-0.64l7.64-9.25l0.77,0.64L1679.41,1297.45z M1694.7,1278.95l-0.77-0.64
							l7.64-9.25l0.77,0.64L1694.7,1278.95z M1709.98,1260.46l-0.77-0.64l7.64-9.25l0.77,0.64L1709.98,1260.46z M1725.27,1241.96
							l-0.77-0.64l7.64-9.25l0.77,0.64L1725.27,1241.96z M1740.56,1223.46l-0.77-0.64l7.64-9.25l0.77,0.64L1740.56,1223.46z"/>
					</defs>
					<clipPath id="SVGID_74_">
						<use xlink:href="#SVGID_73_"  overflow="visible"/>
					</clipPath>
					<g clip-path="url(#SVGID_74_)">
						
							<line id="_x2D_.elLine-_1_" fill="none" stroke="#012B48" stroke-width="3" stroke-dasharray="12" x1="1747.82" y1="1213.89" x2="1544" y2="1460.52"/>
					</g>
				</g>
				<rect x="176.18" y="-514.29" fill="none" width="3840" height="2160"/>
			</g>
		</g>
		<g>
			<g>
				
					<text transform="matrix(1 0 0 1 820.1063 1080)" fill="#012B48" font-family="'HelveticaNeueLTStd-LtIt'" font-size="310px" letter-spacing="-4">The</text>
				<rect fill="none" width="3840" height="2160"/>
			</g>
		</g>
		<g>
			<g>
				
					<text transform="matrix(1 0 0 1 1563.1882 1493.2654)" fill="#012B48" font-family="'HelveticaNeueLTStd-Hv'" font-size="145px" letter-spacing="-1">season is coming soon.</text>
				<rect fill="none" width="3840" height="2160"/>
			</g>
		</g>
	</g>
</g>
<rect fill="none" width="3840" height="2160"/>
</svg>
