<?xml version="1.0" encoding="utf-8"?>
<!-- Generator: Adobe Illustrator 24.2.1, SVG Export Plug-In . SVG Version: 6.00 Build 0)  -->
<svg version="1.1" id="trianglesSvg" xmlns="http://www.w3.org/2000/svg" xmlns:xlink="http://www.w3.org/1999/xlink" x="0px"
	 y="0px" width="1920px" height="1099px" viewBox="0 0 1920 1099" enable-background="new 0 0 1920 1099" xml:space="preserve">
<rect id="_x2D_.bgColor-" x="-3.81" y="-0.03" fill="#F2F2F2" width="1923.81" height="1098.84"/>
<g id="_x2D_.contentScene-">
	<g id="_x2D_.gTriangleImage.moveElements-">
		<g>
			<g>
				<polygon fill="#001F48" points="274.95,421.11 156.54,746.74 661.76,766.48 				"/>
				<g>
					
						<image overflow="visible" width="218" height="78" xlink:href="../../img/TestProducts2/corvus.png"  transform="matrix(1.1724 0.1023 -0.1023 1.1724 200.1812 588.0455)">
					</image>
				</g>
				<rect x="-3.81" y="-0.03" fill="none" width="1923.81" height="1098.84"/>
			</g>
		</g>
		<g>
			<g>
				<polygon fill="#001F48" points="1423.54,446.77 1920,178.37 1743.25,632.28 				"/>
				<g>
					
						<image overflow="visible" width="1754" height="350" xlink:href="../../img/TestProducts2/baythroid.PNG"  transform="matrix(0.1497 0.0603 -0.0603 0.1497 1572.9535 382.4479)">
					</image>
				</g>
				<rect x="-3.81" y="-0.03" fill="none" width="1923.81" height="1098.84"/>
			</g>
		</g>
		<g>
			<g>
				<polygon fill="#001F48" points="950.11,639.96 1073.04,961.52 1372.96,849.88 				"/>
				<g>
					
						<image overflow="visible" width="981" height="438" xlink:href="../../img/TestProducts2/balance.PNG"  transform="matrix(0.2043 0.0854 -0.0854 0.2043 1045.2102 741.1949)">
					</image>
				</g>
				<rect x="-3.81" y="-0.03" fill="none" width="1923.81" height="1098.84"/>
			</g>
		</g>
		<g>
			<g>
				<polygon fill="#001F48" points="878.85,103.38 594.66,529.66 1186.72,438.87 				"/>
				<g>
					
						<image overflow="visible" width="737" height="154" xlink:href="../../img/TestProducts2/axiom.PNG"  transform="matrix(0.4275 -0.1581 0.1581 0.4275 732.2894 364.4923)">
					</image>
				</g>
				<rect x="-3.81" y="-0.03" fill="none" width="1923.81" height="1098.84"/>
			</g>
		</g>
	</g>
</g>
<rect x="-3.81" y="-0.03" fill="none" width="1923.81" height="1098.84"/>
</svg>
