<?xml version="1.0" encoding="utf-8"?>
<!-- Generator: Adobe Illustrator 24.2.1, SVG Export Plug-In . SVG Version: 6.00 Build 0)  -->
<svg version="1.1" id="_x31_250inRewardSvg" xmlns="http://www.w3.org/2000/svg" xmlns:xlink="http://www.w3.org/1999/xlink"
	 x="0px" y="0px" width="3840px" height="2165.6px" viewBox="0 0 3840 2165.6" enable-background="new 0 0 3840 2165.6"
	 xml:space="preserve">
<g id="_x2D_.contentScene-">
	<g id="_x2D_.moveElements-_1_">
		<g>
			<g>
				
					<text transform="matrix(1 0 0 1 593.996 1593.2311)" fill="#012B48" font-family="'HelveticaNeueLTStd-Bd'" font-size="151.0856px" letter-spacing="-1">in rewards didn’t reach the $1500 minimum</text>
				<rect y="-9.01" fill="none" width="3840" height="2174.61"/>
			</g>
		</g>
		<g>
			<g>
				<g>
					
						<text transform="matrix(1 0 0 1 674.4556 1409.5988)" fill="#002C4F" font-family="'HelveticaNeueLTStd-ThIt'" font-size="336.497px" letter-spacing="-5">1250</text>
				</g>
				<g>
					
						<text transform="matrix(1 0 0 1 580.262 1305.9307)" fill="#002C4F" font-family="'HelveticaNeueLTStd-Th'" font-size="177.1729px" letter-spacing="-3">$</text>
				</g>
				<rect y="-9.01" fill="none" width="3840" height="2174.61"/>
			</g>
		</g>
		<g>
			<g>
				
					<text transform="matrix(1 0 0 1 590.2555 1072.704)" fill="#012B48" font-family="'HelveticaNeueLTStd-Bd'" font-size="151.0856px" letter-spacing="-1">While your </text>
				<rect y="-9.01" fill="none" width="3840" height="2174.61"/>
			</g>
		</g>
	</g>
	<g id="_x2D_.moveElements-">
		<g>
			<g>
				<polygon fill="#A4CD38" points="2421.95,1812.19 2431.27,1854.37 2542.33,1766.89 				"/>
				<polygon fill="#A4CD38" points="2719.35,1507.18 2748.61,1528.38 2748.61,1481.71 				"/>
				<polygon fill="#A4CD38" points="2280.87,1863.58 2339.3,1857.56 2353.95,1836.76 				"/>
				<g>
					<g>
						<line fill="none" stroke="#08274B" stroke-miterlimit="10" x1="2748.61" y1="1528.38" x2="2748.61" y2="1534.38"/>
						<polyline fill="none" stroke="#08274B" stroke-miterlimit="10" stroke-dasharray="12.3632,12.3632" points="2748.61,1546.74 
							2748.61,1634.67 2679.36,1877.03 						"/>
						<polyline fill="none" stroke="#08274B" stroke-miterlimit="10" points="2677.67,1882.97 2676.02,1888.74 2679.48,1893.65 
													"/>
						
							<line fill="none" stroke="#08274B" stroke-miterlimit="10" stroke-dasharray="12.1953,12.1953" x1="2686.51" y1="1903.61" x2="2936.08" y2="2257.37"/>
						<line fill="none" stroke="#08274B" stroke-miterlimit="10" x1="2939.59" y1="2262.35" x2="2943.05" y2="2267.26"/>
					</g>
				</g>
				<g>
					<g>
						<line fill="none" stroke="#08274B" stroke-miterlimit="10" x1="2748.61" y1="1634.67" x2="2743.55" y2="1637.9"/>
						<polyline fill="none" stroke="#08274B" stroke-miterlimit="10" stroke-dasharray="12.0843,12.0843" points="2733.36,1644.39 
							2541.2,1766.89 2170.47,1904.59 1731.09,2281.71 						"/>
						<line fill="none" stroke="#08274B" stroke-miterlimit="10" x1="1726.51" y1="2285.65" x2="1721.96" y2="2289.56"/>
					</g>
				</g>
				<g>
					<g>
						<line fill="none" stroke="#08274B" stroke-miterlimit="10" x1="2748.61" y1="1481.71" x2="2744.08" y2="1485.65"/>
						<polyline fill="none" stroke="#08274B" stroke-miterlimit="10" stroke-dasharray="11.9095,11.9095" points="2735.1,1493.47 
							2380.8,1801.84 2024.65,2279.97 						"/>
						<line fill="none" stroke="#08274B" stroke-miterlimit="10" x1="2021.09" y1="2284.75" x2="2017.51" y2="2289.56"/>
					</g>
				</g>
				<g>
					<g>
						<line fill="none" stroke="#08274B" stroke-miterlimit="10" x1="2748.61" y1="1528.38" x2="2743.94" y2="1532.14"/>
						<polyline fill="none" stroke="#08274B" stroke-miterlimit="10" stroke-dasharray="11.932,11.932" points="2734.65,1539.63 
							2427.13,1787.63 1790.91,2298.65 						"/>
						<line fill="none" stroke="#08274B" stroke-miterlimit="10" x1="1786.26" y1="2302.39" x2="1781.58" y2="2306.14"/>
					</g>
				</g>
				<g>
					<g>
						<line fill="none" stroke="#08274B" stroke-miterlimit="10" x1="2886.01" y1="1897.82" x2="2883.32" y2="1903.18"/>
						
							<line fill="none" stroke="#08274B" stroke-miterlimit="10" stroke-dasharray="12.1857,12.1857" x1="2877.84" y1="1914.06" x2="2694.41" y2="2278.75"/>
						<line fill="none" stroke="#08274B" stroke-miterlimit="10" x1="2691.68" y1="2284.2" x2="2688.98" y2="2289.56"/>
					</g>
				</g>
				<g>
					<g>
						<line fill="none" stroke="#08274B" stroke-miterlimit="10" x1="2421.95" y1="1812.19" x2="2423.31" y2="1818.03"/>
						
							<line fill="none" stroke="#08274B" stroke-miterlimit="10" stroke-dasharray="12.3058,12.3058" x1="2426.11" y1="1830.02" x2="2525.48" y2="2255.42"/>
						<line fill="none" stroke="#08274B" stroke-miterlimit="10" x1="2526.88" y1="2261.41" x2="2528.24" y2="2267.26"/>
					</g>
				</g>
				<g>
					<g>
						<line fill="none" stroke="#08274B" stroke-miterlimit="10" x1="1641.59" y1="2199.85" x2="1646.88" y2="2197.03"/>
						<path fill="none" stroke="#08274B" stroke-miterlimit="10" stroke-dasharray="11.89,11.89" d="M1657.38,2191.45L2528.24,1728
							c0,0,164.31-101.88,208.79-126.47"/>
						<path fill="none" stroke="#08274B" stroke-miterlimit="10" d="M2742.26,1598.71c2.88-1.5,4.76-2.36,5.46-2.46"/>
					</g>
				</g>
				<g>
					<g>
						<line fill="none" stroke="#08274B" stroke-miterlimit="10" x1="2809.53" y1="1720.23" x2="2805.84" y2="1724.96"/>
						
							<line fill="none" stroke="#08274B" stroke-miterlimit="10" stroke-dasharray="12.083,12.083" x1="2798.4" y1="1734.48" x2="2415.41" y2="2224.93"/>
						<line fill="none" stroke="#08274B" stroke-miterlimit="10" x1="2411.69" y1="2229.69" x2="2408" y2="2234.42"/>
					</g>
				</g>
				<g>
					<g>
						<line fill="none" stroke="#08274B" stroke-miterlimit="10" x1="2366.19" y1="1905.88" x2="2368.44" y2="1911.44"/>
						
							<line fill="none" stroke="#08274B" stroke-miterlimit="10" stroke-dasharray="11.995,11.995" x1="2372.95" y1="1922.56" x2="2523.74" y2="2295.02"/>
						<line fill="none" stroke="#08274B" stroke-miterlimit="10" x1="2525.99" y1="2300.58" x2="2528.24" y2="2306.14"/>
					</g>
				</g>
				<g>
					<g>
						<line fill="none" stroke="#08274B" stroke-miterlimit="10" x1="2551.57" y1="1760.28" x2="2546.85" y2="1763.98"/>
						
							<line fill="none" stroke="#08274B" stroke-miterlimit="10" stroke-dasharray="12.0095,12.0095" x1="2537.4" y1="1771.39" x2="1956.09" y2="2227.01"/>
						<line fill="none" stroke="#08274B" stroke-miterlimit="10" x1="1951.37" y1="2230.72" x2="1946.64" y2="2234.42"/>
					</g>
				</g>
				<g>
					<g>
						<line fill="none" stroke="#08274B" stroke-miterlimit="10" x1="2727.29" y1="1709.28" x2="2723.71" y2="1714.09"/>
						
							<line fill="none" stroke="#08274B" stroke-miterlimit="10" stroke-dasharray="12.087,12.087" x1="2716.48" y1="1723.78" x2="2272.29" y2="2319.82"/>
						<line fill="none" stroke="#08274B" stroke-miterlimit="10" x1="2268.68" y1="2324.67" x2="2265.1" y2="2329.48"/>
					</g>
				</g>
				<g>
					<g>
						<line fill="none" stroke="#08274B" stroke-miterlimit="10" x1="2580.85" y1="1905.88" x2="2581.36" y2="1911.86"/>
						
							<line fill="none" stroke="#08274B" stroke-miterlimit="10" stroke-dasharray="12.0237,12.0237" x1="2582.37" y1="1923.84" x2="2608.1" y2="2229.36"/>
						<line fill="none" stroke="#08274B" stroke-miterlimit="10" x1="2608.6" y1="2235.35" x2="2609.1" y2="2241.33"/>
					</g>
				</g>
				<g>
					<g>
						<line fill="none" stroke="#08274B" stroke-miterlimit="10" x1="2809.53" y1="1720.23" x2="2807.3" y2="1725.79"/>
						
							<line fill="none" stroke="#08274B" stroke-miterlimit="10" stroke-dasharray="12.1465,12.1465" x1="2802.77" y1="1737.06" x2="2578.55" y2="2294.94"/>
						<line fill="none" stroke="#08274B" stroke-miterlimit="10" x1="2576.28" y1="2300.58" x2="2574.04" y2="2306.14"/>
					</g>
				</g>
				<g>
					<g>
						<line fill="none" stroke="#08274B" stroke-miterlimit="10" x1="2550.81" y1="1760.28" x2="2544.83" y2="1759.74"/>
						
							<line fill="none" stroke="#08274B" stroke-miterlimit="10" stroke-dasharray="11.558,11.558" x1="2533.32" y1="1758.7" x2="2377.92" y2="1744.62"/>
						<line fill="none" stroke="#08274B" stroke-miterlimit="10" x1="2372.17" y1="1744.1" x2="2366.19" y2="1743.56"/>
					</g>
				</g>
				<circle fill="#A4CD38" cx="2172.81" cy="1902.97" r="12.9"/>
				<circle fill="#A4CD38" cx="2173.64" cy="1902.97" r="12.9"/>
				<circle fill="#A4CD38" cx="2366.86" cy="1743.56" r="12.9"/>
				<circle id="_x2D_.elCircle-_7_" fill="none" stroke="#08274B" stroke-miterlimit="10" cx="2173.64" cy="1901.38" r="43.82"/>
				<circle fill="none" stroke="#08274B" stroke-miterlimit="10" cx="2747.72" cy="1637.48" r="42.78"/>
				<circle id="_x2D_.elCircle-_6_" fill="none" stroke="#08274B" stroke-miterlimit="10" cx="2544.11" cy="1763" r="42.78"/>
				<rect y="-9.01" fill="none" width="3840" height="2174.61"/>
				<polygon fill="#A4CD38" points="3042.17,1803.23 3072.59,1897.57 3150.9,1906.58 				"/>
				<polygon fill="#A4CD38" points="2778.13,1676.13 2809.97,1721.92 2858.15,1739.31 				"/>
				<line fill="none" stroke="#08274B" stroke-miterlimit="10" x1="2748.61" y1="1634.67" x2="2959.97" y2="1578.14"/>
				<g>
					<g>
						<line fill="none" stroke="#08274B" stroke-miterlimit="10" x1="2748.61" y1="1528.38" x2="2752.98" y2="1532.49"/>
						
							<line fill="none" stroke="#08274B" stroke-miterlimit="10" stroke-dasharray="12.0311,12.0311" x1="2761.75" y1="1540.73" x2="3476.14" y2="2212.36"/>
						<line fill="none" stroke="#08274B" stroke-miterlimit="10" x1="3480.52" y1="2216.48" x2="3484.9" y2="2220.59"/>
					</g>
				</g>
				<g>
					<g>
						<line fill="none" stroke="#08274B" stroke-miterlimit="10" x1="2748.61" y1="1528.38" x2="2754.45" y2="1529.75"/>
						<polyline fill="none" stroke="#08274B" stroke-miterlimit="10" stroke-dasharray="12.1083,12.1083" points="2766.24,1532.51 
							2958.61,1577.64 3207.49,1627.9 3716.59,1582.59 						"/>
						<line fill="none" stroke="#08274B" stroke-miterlimit="10" x1="3722.62" y1="1582.06" x2="3728.6" y2="1581.52"/>
					</g>
				</g>
				<g>
					<g>
						<line fill="none" stroke="#08274B" stroke-miterlimit="10" x1="2748.61" y1="1634.67" x2="2752.09" y2="1639.56"/>
						<polyline fill="none" stroke="#08274B" stroke-miterlimit="10" stroke-dasharray="12.0279,12.0279" points="2759.07,1649.36 
							2809.53,1720.23 2886.01,1897.82 3283.63,2213.13 						"/>
						<line fill="none" stroke="#08274B" stroke-miterlimit="10" x1="3288.35" y1="2216.86" x2="3293.05" y2="2220.59"/>
					</g>
				</g>
				<g>
					<g>
						<line fill="none" stroke="#08274B" stroke-miterlimit="10" x1="2810.65" y1="1722.82" x2="2816.32" y2="1724.79"/>
						
							<line fill="none" stroke="#08274B" stroke-miterlimit="10" stroke-dasharray="12.2678,12.2678" x1="2827.91" y1="1728.81" x2="3030.71" y2="1799.25"/>
						<polyline fill="none" stroke="#08274B" stroke-miterlimit="10" points="3036.5,1801.26 3042.17,1803.23 3044.01,1808.94 
													"/>
						<polyline fill="none" stroke="#08274B" stroke-miterlimit="10" stroke-dasharray="12.1499,12.1499" points="3047.74,1820.5 
							3072.68,1897.82 3256.68,2278.68 						"/>
						<line fill="none" stroke="#08274B" stroke-miterlimit="10" x1="3259.33" y1="2284.15" x2="3261.94" y2="2289.56"/>
					</g>
				</g>
				<g>
					<g>
						<line fill="none" stroke="#08274B" stroke-miterlimit="10" x1="3042.17" y1="1803.23" x2="3040.39" y2="1808.96"/>
						<polyline fill="none" stroke="#08274B" stroke-miterlimit="10" stroke-dasharray="12.2077,12.2077" points="3036.77,1820.62 
							2996.32,1950.96 2944.74,2317.49 						"/>
						<line fill="none" stroke="#08274B" stroke-miterlimit="10" x1="2943.89" y1="2323.54" x2="2943.05" y2="2329.48"/>
					</g>
				</g>
				<g>
					<g>
						<line fill="none" stroke="#08274B" stroke-miterlimit="10" x1="2996.32" y1="1950.96" x2="2998.12" y2="1956.69"/>
						
							<line fill="none" stroke="#08274B" stroke-miterlimit="10" stroke-dasharray="11.7709,11.7709" x1="3001.65" y1="1967.92" x2="3127.01" y2="2366.53"/>
						<line fill="none" stroke="#08274B" stroke-miterlimit="10" x1="3128.78" y1="2372.15" x2="3130.58" y2="2377.87"/>
					</g>
				</g>
				<circle fill="#A4CD38" cx="2962.23" cy="1575.67" r="12.9"/>
				<circle fill="#A4CD38" cx="3211.27" cy="1626.77" r="12.9"/>
				<circle id="_x2D_.elCircle-_2_" fill="none" stroke="#08274B" stroke-miterlimit="10" cx="2962.57" cy="1574.54" r="42.78"/>
				<circle id="_x2D_.elCircle-_3_" fill="none" stroke="#08274B" stroke-miterlimit="10" cx="2809.39" cy="1720.23" r="42.78"/>
				<circle id="_x2D_.elCircle-_5_" fill="none" stroke="#08274B" stroke-miterlimit="10" cx="2886.01" cy="1898.63" r="42.78"/>
				<circle id="_x2D_.elCircle-_4_" fill="none" stroke="#08274B" stroke-miterlimit="10" cx="3080.46" cy="1905.88" r="42.78"/>
				<rect y="-9.01" fill="none" width="3840" height="2174.61"/>
				<polygon fill="#A4CD38" points="2747.77,1309.45 2748.13,1421.71 2797.7,1274.93 				"/>
				<g>
					<g>
						<line fill="none" stroke="#08274B" stroke-miterlimit="10" x1="2743.11" y1="1308.69" x2="2738.19" y2="1305.25"/>
						<polyline fill="none" stroke="#08274B" stroke-miterlimit="10" stroke-dasharray="12.0043,12.0043" points="2728.35,1298.38 
							2551.57,1174.92 2481.19,1055.63 						"/>
						<line fill="none" stroke="#08274B" stroke-miterlimit="10" x1="2478.14" y1="1050.46" x2="2475.09" y2="1045.3"/>
					</g>
				</g>
				<g>
					<g>
						<line fill="none" stroke="#08274B" stroke-miterlimit="10" x1="2551.57" y1="1174.92" x2="2545.82" y2="1176.61"/>
						<polyline fill="none" stroke="#08274B" stroke-miterlimit="10" stroke-dasharray="12.2642,12.2642" points="2534.05,1180.07 
							2363.18,1230.23 2057.28,1246.86 						"/>
						<line fill="none" stroke="#08274B" stroke-miterlimit="10" x1="2051.15" y1="1247.19" x2="2045.16" y2="1247.52"/>
					</g>
				</g>
				<circle fill="#A4CD38" cx="2803.88" cy="1266.47" r="12.9"/>
				<circle fill="#A4CD38" cx="2361.99" cy="1231.25" r="12.9"/>
				<circle fill="#A4CD38" cx="2551.57" cy="1174.92" r="12.9"/>
				<circle fill="#A4CD38" cx="2475.09" cy="1044" r="12.9"/>
				<circle id="_x2D_.elCircle-_8_" fill="none" stroke="#08274B" stroke-miterlimit="10" cx="2805.07" cy="1264.42" r="42.78"/>
				<circle id="_x2D_.elCircle-_9_" fill="none" stroke="#08274B" stroke-miterlimit="10" cx="2361.99" cy="1228.77" r="42.78"/>
				<rect y="-9.01" fill="none" width="3840" height="2174.61"/>
				<polygon fill="#A4CD38" points="3087.67,1009.84 3080.46,941.59 3052.57,991.52 				"/>
				<polygon fill="#A4CD38" points="3077.57,942.14 3019.7,953.26 2990.58,977.89 				"/>
				<polyline fill="none" stroke="#08274B" stroke-miterlimit="10" points="2750.03,1307.19 2871.32,1223.32 2923.17,1060.85 
					2990.58,977.89 3128.85,856.9 3223.91,822.34 3550.57,870.73 3275.76,1152.46 3208.36,1197.39 3056.26,1233.69 2878.12,1229.18 
									"/>
				<g id="_x2D_.elLine-_11_">
					<g>
						<line fill="none" stroke="#08274B" stroke-miterlimit="10" x1="3569.59" y1="858.63" x2="3574.18" y2="854.78"/>
						
							<line fill="none" stroke="#08274B" stroke-miterlimit="10" stroke-dasharray="11.8406,11.8406" x1="3583.25" y1="847.17" x2="4032.3" y2="470.5"/>
						<line fill="none" stroke="#08274B" stroke-miterlimit="10" x1="4036.83" y1="466.69" x2="4041.43" y2="462.84"/>
					</g>
				</g>
				<g id="_x2D_.elLine-_10_">
					<g>
						<line fill="none" stroke="#08274B" stroke-miterlimit="10" x1="3342.57" y1="839.26" x2="3343.94" y2="833.42"/>
						
							<line fill="none" stroke="#08274B" stroke-miterlimit="10" stroke-dasharray="11.9085,11.9085" x1="3346.66" y1="821.83" x2="3388.83" y2="642.13"/>
						<polyline fill="none" stroke="#08274B" stroke-miterlimit="10" points="3390.19,636.33 3391.56,630.49 3396.77,627.5 						
							"/>
						
							<line fill="none" stroke="#08274B" stroke-miterlimit="10" stroke-dasharray="11.9871,11.9871" x1="3407.17" y1="621.54" x2="4005.1" y2="278.68"/>
						<line fill="none" stroke="#08274B" stroke-miterlimit="10" x1="4010.3" y1="275.7" x2="4015.51" y2="272.71"/>
					</g>
				</g>
				<g id="_x2D_.elLine-_6_">
					<g>
						<line fill="none" stroke="#08274B" stroke-miterlimit="10" x1="3216.16" y1="1195.43" x2="3221.04" y2="1198.91"/>
						
							<line fill="none" stroke="#08274B" stroke-miterlimit="10" stroke-dasharray="11.8578,11.8578" x1="3230.69" y1="1205.81" x2="3959.13" y2="1726.25"/>
						<line fill="none" stroke="#08274B" stroke-miterlimit="10" x1="3963.96" y1="1729.7" x2="3968.84" y2="1733.19"/>
					</g>
				</g>
				<polyline fill="none" stroke="#08274B" stroke-miterlimit="10" points="2903.13,1126.53 2959.97,1231.25 2992.61,1098.88 
					3080.46,941.59 3251.57,951.96 3308.6,932.95 3238.6,1064.77 3172.06,1149 3197.76,1199.92 				"/>
				<polyline fill="none" stroke="#08274B" stroke-miterlimit="10" points="3074.31,1231.43 3103.43,1122.89 3198.37,1010.2 
					3150.89,941.59 3128.85,856.9 				"/>
				<polyline fill="none" stroke="#08274B" stroke-miterlimit="10" points="2923.17,1060.85 2992.61,1098.88 3103.43,1122.89 
					3172.06,1149 3283.73,1143.67 				"/>
				<polyline fill="none" stroke="#08274B" stroke-miterlimit="10" points="3283.13,1145.21 3236.56,1067.71 3197.12,1010.2 
					3090.83,1039.68 2994.85,1098.16 2905.34,1123.77 				"/>
				<path fill="none" stroke="#08274B" stroke-miterlimit="10" d="M3308.6,932.95c-6.48,0-179.75-76.05-179.75-76.05l122.71,95.06"
					/>
				<line fill="none" stroke="#08274B" stroke-miterlimit="10" x1="3080.46" y1="941.59" x2="3128.85" y2="856.9"/>
				<line fill="none" stroke="#08274B" stroke-miterlimit="10" x1="3251.57" y1="951.96" x2="3197.12" y2="1010.2"/>
				<polyline fill="none" stroke="#08274B" stroke-miterlimit="10" points="3154.22,946.19 3090.83,1039.68 3099.39,1122.02 				"/>
				<line fill="none" stroke="#08274B" stroke-miterlimit="10" x1="3080.46" y1="941.59" x2="3090.83" y2="1039.68"/>
				<line fill="none" stroke="#08274B" stroke-miterlimit="10" x1="2923.17" y1="1060.85" x2="3080.46" y2="941.59"/>
				<polyline fill="none" stroke="#08274B" stroke-miterlimit="10" points="3308.15,933.14 3384.65,876.78 3550.57,870.73 				"/>
				<line fill="none" stroke="#08274B" stroke-miterlimit="10" x1="3384.65" y1="876.78" x2="3344.78" y2="840.24"/>
				<line fill="none" stroke="#08274B" stroke-miterlimit="10" x1="3384.65" y1="876.78" x2="3520.13" y2="901.94"/>
				<line fill="none" stroke="#08274B" stroke-miterlimit="10" x1="3309.27" y1="933.7" x2="3520.13" y2="901.94"/>
				<line fill="none" stroke="#08274B" stroke-miterlimit="10" x1="3128.85" y1="856.9" x2="3382.55" y2="876.78"/>
				<polyline fill="none" stroke="#08274B" stroke-miterlimit="10" points="3308.6,932.95 3283.13,870.23 3223.91,822.34 				"/>
				<line fill="none" stroke="#08274B" stroke-miterlimit="10" x1="3228.32" y1="825.9" x2="3382.55" y2="876.78"/>
				<polyline fill="none" stroke="#08274B" stroke-miterlimit="10" points="3104.39,1122.02 3237.47,1067.02 3359.82,1013.13 
					3520.13,901.94 				"/>
				<line fill="none" stroke="#08274B" stroke-miterlimit="10" x1="3251.57" y1="951.96" x2="3236.56" y2="1067.71"/>
				<polyline fill="none" stroke="#08274B" stroke-miterlimit="10" points="3314.3,941.59 3410.94,977.68 3451.1,972.71 				"/>
				<line fill="none" stroke="#08274B" stroke-miterlimit="10" x1="3359.82" y1="1013.13" x2="3283.73" y2="1143.67"/>
				<line fill="none" stroke="#08274B" stroke-miterlimit="10" x1="3309.27" y1="933.7" x2="3380.29" y2="1045.3"/>
				<line fill="none" stroke="#08274B" stroke-miterlimit="10" x1="3018.73" y1="953.26" x2="3080.46" y2="941.59"/>
				<line fill="none" stroke="#08274B" stroke-miterlimit="10" x1="3104.39" y1="1122.02" x2="2962.14" y2="1228.77"/>
				<line fill="none" stroke="#08274B" stroke-miterlimit="10" x1="3172.06" y1="1149" x2="3074.31" y2="1231.43"/>
				<circle id="_x2D_.elCircle-_1_" fill="none" stroke="#08274B" stroke-miterlimit="10" cx="3224.34" cy="825.9" r="42.78"/>
				<circle id="_x2D_.elCircle-" fill="none" stroke="#08274B" stroke-miterlimit="10" cx="3550.57" cy="877.64" r="42.78"/>
				<rect y="-9.01" fill="none" width="3840" height="2174.61"/>
				<polygon fill="#A4CD38" points="3081.05,1225.75 3197.76,1199.92 3172.06,1149 				"/>
				<polygon fill="#A4CD38" points="2961.34,1230.42 3020.26,1232.56 3011.83,1190.22 				"/>
				<polygon fill="#A4CD38" points="3118.18,999.33 3181.57,985.92 3154.22,946.19 				"/>
				<polygon fill="#A4CD38" points="3181.57,985.92 3208.98,949.38 3154.22,946.19 				"/>
				<polygon fill="#A4CD38" points="3283.13,870.23 3302.84,851.34 3232.1,827.15 				"/>
				<polygon fill="#A4CD38" points="3380.29,1045.3 3410.94,977.68 3359.82,1013.13 				"/>
				<polygon fill="#A4CD38" points="3252.97,1094.25 3283.73,1046.65 3236.56,1067.71 				"/>
				<polygon fill="#A4CD38" points="3178.22,1091.51 3236.56,1067.71 3221.19,1045.3 				"/>
				<polygon fill="#A4CD38" points="2727.29,1009.58 2737.63,925.89 2700.79,975.01 				"/>
				<g>
					<g>
						<line fill="none" stroke="#08274B" stroke-miterlimit="10" x1="3196.26" y1="647.77" x2="3197.28" y2="641.86"/>
						
							<line fill="none" stroke="#08274B" stroke-miterlimit="10" stroke-dasharray="11.7432,11.7432" x1="3199.28" y1="630.29" x2="3254.27" y2="312.07"/>
						<line fill="none" stroke="#08274B" stroke-miterlimit="10" x1="3255.27" y1="306.28" x2="3256.29" y2="300.37"/>
					</g>
				</g>
				<polyline fill="none" stroke="#08274B" stroke-miterlimit="10" points="2730.7,1010.2 2810.09,907.56 2943.05,768.76 
					3196.26,647.77 				"/>
				<circle fill="#A4CD38" cx="2942.56" cy="767.51" r="12.9"/>
				<circle fill="#A4CD38" cx="3194.91" cy="648.09" r="12.9"/>
				<circle id="_x2D_.elCircle-_10_" fill="none" stroke="#08274B" stroke-miterlimit="10" cx="2727.05" cy="1001.22" r="42.78"/>
				<circle id="_x2D_.elCircle-_11_" fill="none" stroke="#08274B" stroke-miterlimit="10" cx="3193.78" cy="648.68" r="42.78"/>
				<circle id="_x2D_.elCircle-_12_" fill="none" stroke="#08274B" stroke-miterlimit="10" cx="3255.7" cy="300.37" r="42.78"/>
				<rect y="-9.01" fill="none" width="3840" height="2174.61"/>
				<polygon fill="#A4CD38" points="2763.76,568.18 2780.3,614.93 2819.62,511.15 				"/>
				<polygon fill="#A4CD38" points="2830.12,489.87 2844.55,452.76 2805.96,411.02 				"/>
				<polygon fill="#A4CD38" points="2805.07,408.68 2823.25,428.98 2814.66,382.56 				"/>
				<polyline fill="none" stroke="#08274B" stroke-miterlimit="10" points="2748.61,1522.9 2747.7,1328.25 2727.29,1009.58 
					2776.26,621.85 				"/>
				<g>
					<g>
						<line fill="none" stroke="#08274B" stroke-miterlimit="10" x1="2748.61" y1="1522.9" x2="2749.15" y2="1516.93"/>
						<polyline fill="none" stroke="#08274B" stroke-miterlimit="10" stroke-dasharray="11.8893,11.8893" points="2750.22,1505.09 
							2765.75,1333.58 2745.34,1014.91 2775.33,633.75 						"/>
						<line fill="none" stroke="#08274B" stroke-miterlimit="10" x1="2775.79" y1="627.83" x2="2776.26" y2="621.85"/>
					</g>
				</g>
				<polyline fill="none" stroke="#08274B" stroke-miterlimit="10" points="2778.66,636.51 2864.41,474.93 2838.48,317.65 
					2730.7,462.84 2776.26,608.02 				"/>
				<g>
					<g>
						<line fill="none" stroke="#08274B" stroke-miterlimit="10" x1="2837.6" y1="317.29" x2="2833.67" y2="312.76"/>
						
							<line fill="none" stroke="#08274B" stroke-miterlimit="10" stroke-dasharray="12.0649,12.0649" x1="2825.77" y1="303.64" x2="2450.56" y2="-129.54"/>
						<line fill="none" stroke="#08274B" stroke-miterlimit="10" x1="2446.62" y1="-134.1" x2="2442.69" y2="-138.64"/>
					</g>
				</g>
				<g>
					<g>
						<line fill="none" stroke="#08274B" stroke-miterlimit="10" x1="2838.72" y1="316.93" x2="2839.78" y2="311.03"/>
						
							<line fill="none" stroke="#08274B" stroke-miterlimit="10" stroke-dasharray="12.2282,12.2282" x1="2841.94" y1="298.99" x2="2914.13" y2="-104.24"/>
						<line fill="none" stroke="#08274B" stroke-miterlimit="10" x1="2915.2" y1="-110.26" x2="2916.26" y2="-116.17"/>
					</g>
				</g>
				<g>
					<g>
						<line fill="none" stroke="#08274B" stroke-miterlimit="10" x1="2838.72" y1="316.93" x2="2843.33" y2="313.09"/>
						
							<line fill="none" stroke="#08274B" stroke-miterlimit="10" stroke-dasharray="12.3101,12.3101" x1="2852.78" y1="305.19" x2="3112.61" y2="88.19"/>
						<line fill="none" stroke="#08274B" stroke-miterlimit="10" x1="3117.33" y1="84.25" x2="3121.94" y2="80.4"/>
					</g>
				</g>
				<g>
					<g>
						<line fill="none" stroke="#08274B" stroke-miterlimit="10" x1="2864.41" y1="474.93" x2="2868.33" y2="470.39"/>
						<polyline fill="none" stroke="#08274B" stroke-miterlimit="10" stroke-dasharray="11.9276,11.9276" points="2876.11,461.35 
							3047.62,262.34 3117.41,91.48 						"/>
						<line fill="none" stroke="#08274B" stroke-miterlimit="10" x1="3119.67" y1="85.96" x2="3121.94" y2="80.4"/>
					</g>
				</g>
				<g>
					<g>
						<line fill="none" stroke="#08274B" stroke-miterlimit="10" x1="3047.62" y1="262.34" x2="3053.19" y2="260.12"/>
						<polyline fill="none" stroke="#08274B" stroke-miterlimit="10" stroke-dasharray="11.8591,11.8591" points="3064.21,255.74 
							3420.95,113.7 3526.9,-0.27 						"/>
						<line fill="none" stroke="#08274B" stroke-miterlimit="10" x1="3530.93" y1="-4.62" x2="3535.02" y2="-9.01"/>
					</g>
				</g>
				<polyline fill="none" stroke="#08274B" stroke-miterlimit="10" points="2838.48,317.65 2805.07,408.68 2820.62,508.93 
					2780.3,614.93 				"/>
				<line fill="none" stroke="#08274B" stroke-miterlimit="10" x1="2730.7" y1="462.84" x2="2805.07" y2="408.68"/>
				<line fill="none" stroke="#08274B" stroke-miterlimit="10" x1="2820.62" y1="508.93" x2="2839.61" y2="522.13"/>
				<line fill="none" stroke="#08274B" stroke-miterlimit="10" x1="2753.29" y1="534.83" x2="2805.07" y2="408.68"/>
				<line fill="none" stroke="#08274B" stroke-miterlimit="10" x1="2864.41" y1="474.93" x2="2805.07" y2="408.68"/>
				<line fill="none" stroke="#08274B" stroke-miterlimit="10" x1="2820.62" y1="508.93" x2="2763.76" y2="568.18"/>
				<line fill="none" stroke="#08274B" stroke-miterlimit="10" x1="2839.61" y1="522.13" x2="2805.07" y2="411.56"/>
				<line fill="none" stroke="#08274B" stroke-miterlimit="10" x1="2763.76" y1="568.18" x2="2805.07" y2="411.56"/>
				<circle fill="#A4CD38" cx="2838.48" cy="316.43" r="12.9"/>
				<circle id="_x2D_.elCircle-_14_" fill="none" stroke="#08274B" stroke-miterlimit="10" cx="2834.74" cy="319.81" r="42.78"/>
				<circle id="_x2D_.elCircle-_13_" fill="none" stroke="#08274B" stroke-miterlimit="10" cx="2864.41" cy="471.75" r="42.78"/>
				<circle id="_x2D_.elCircle-_15_" fill="none" stroke="#08274B" stroke-miterlimit="10" cx="3123.19" cy="72.37" r="42.78"/>
				<rect y="-9.01" fill="none" width="3840" height="2174.61"/>
				<polygon fill="#A4CD38" points="2475.09,886.89 2606.56,922.47 2522.19,855.18 				"/>
				<polygon fill="#A4CD38" points="2359.73,706.54 2439.49,779.13 2415.61,693.86 				"/>
				<polygon fill="#A4CD38" points="2555.9,733.33 2563.54,701.35 2517.33,649.07 				"/>
				<polygon fill="#A4CD38" points="2411.44,593.58 2460.84,607.15 2449.6,566.01 				"/>
				<polygon fill="#A4CD38" points="2194.65,601.11 2227.42,646.42 2276.77,588.36 				"/>
				<polyline fill="none" stroke="#08274B" stroke-miterlimit="10" points="2727.05,1010.44 2676.02,941.59 2676.02,829.25 
					2629.35,701.35 2449.6,564.81 2306.15,538.88 2247.38,568.27 				"/>
				<g id="_x2D_.elLine-">
					<g>
						<line fill="none" stroke="#08274B" stroke-miterlimit="10" x1="2247.38" y1="568.27" x2="2241.41" y2="567.65"/>
						
							<line fill="none" stroke="#08274B" stroke-miterlimit="10" stroke-dasharray="12.1833,12.1833" x1="2229.29" y1="566.41" x2="1653.61" y2="507.28"/>
						<line fill="none" stroke="#08274B" stroke-miterlimit="10" x1="1647.55" y1="506.66" x2="1641.59" y2="506.04"/>
					</g>
				</g>
				<polyline fill="none" stroke="#08274B" stroke-miterlimit="10" points="2676.02,941.59 2475.09,888.02 2298.37,744.56 
					2194.65,601.11 2139.98,558.26 				"/>
				<g id="_x2D_.elLine-_4_">
					<g>
						<line fill="none" stroke="#08274B" stroke-miterlimit="10" x1="2442.69" y1="544.07" x2="2442.01" y2="538.11"/>
						<polyline fill="none" stroke="#08274B" stroke-miterlimit="10" stroke-dasharray="11.9953,11.9953" points="2440.64,526.19 
							2421.95,362.59 2258.62,-60.04 						"/>
						<line fill="none" stroke="#08274B" stroke-miterlimit="10" x1="2256.46" y1="-65.64" x2="2254.29" y2="-71.23"/>
					</g>
				</g>
				
					<line id="_x2D_.elLine-_5_" fill="none" stroke="#08274B" stroke-miterlimit="10" stroke-dasharray="12" x1="2421.95" y1="362.59" x2="2162.69" y2="186.3"/>
				<g id="_x2D_.elLine-_3_">
					<g>
						<line fill="none" stroke="#08274B" stroke-miterlimit="10" x1="2306.15" y1="538.88" x2="2302.65" y2="534.01"/>
						
							<line fill="none" stroke="#08274B" stroke-miterlimit="10" stroke-dasharray="11.8025,11.8025" x1="2295.76" y1="524.42" x2="1886.18" y2="-46.01"/>
						<line fill="none" stroke="#08274B" stroke-miterlimit="10" x1="1882.74" y1="-50.8" x2="1879.24" y2="-55.68"/>
					</g>
				</g>
				<g id="_x2D_.elLine-_2_">
					<g>
						<line fill="none" stroke="#08274B" stroke-miterlimit="10" x1="2154.05" y1="362.59" x2="2148.48" y2="360.36"/>
						<polyline fill="none" stroke="#08274B" stroke-miterlimit="10" stroke-dasharray="11.9624,11.9624" points="2137.37,355.92 
							1972.57,290 1395.13,-64.96 						"/>
						<line fill="none" stroke="#08274B" stroke-miterlimit="10" x1="1390.03" y1="-68.09" x2="1384.92" y2="-71.23"/>
					</g>
				</g>
				<g id="_x2D_.elLine-_1_">
					<g>
						<line fill="none" stroke="#08274B" stroke-miterlimit="10" x1="2139.98" y1="558.26" x2="2136.79" y2="553.17"/>
						
							<line fill="none" stroke="#08274B" stroke-miterlimit="10" stroke-dasharray="12.1789,12.1789" x1="2130.32" y1="542.86" x2="1978.16" y2="300.45"/>
						<line fill="none" stroke="#08274B" stroke-miterlimit="10" x1="1974.92" y1="295.3" x2="1971.73" y2="290.21"/>
					</g>
				</g>
				<polyline fill="none" stroke="#08274B" stroke-miterlimit="10" points="2676.02,941.59 2555.9,733.33 2447.87,655.28 
					2393.43,607.15 2237.88,582.09 2143.89,558.57 				"/>
				<polyline fill="none" stroke="#08274B" stroke-miterlimit="10" points="2379.41,807.77 2438.37,779.13 2536.88,779.13 
					2615.39,836.48 				"/>
				<polyline fill="none" stroke="#08274B" stroke-miterlimit="10" points="2555.9,733.33 2513.55,643.45 2449.6,564.81 				"/>
				<polyline fill="none" stroke="#08274B" stroke-miterlimit="10" points="2276.77,588.36 2359.73,706.54 2522.19,855.18 
					2615.39,836.48 				"/>
				<polyline fill="none" stroke="#08274B" stroke-miterlimit="10" points="2472.84,887.34 2522.19,855.18 2609.1,923.46 
					2615.39,836.48 				"/>
				<line fill="none" stroke="#08274B" stroke-miterlimit="10" x1="2475.09" y1="888.02" x2="2438.37" y2="779.13"/>
				<line fill="none" stroke="#08274B" stroke-miterlimit="10" x1="2522.19" y1="855.18" x2="2536.88" y2="779.13"/>
				<line fill="none" stroke="#08274B" stroke-miterlimit="10" x1="2305.23" y1="750.13" x2="2359.73" y2="706.54"/>
				<line fill="none" stroke="#08274B" stroke-miterlimit="10" x1="2438.37" y1="779.13" x2="2305.23" y2="750.13"/>
				<polyline fill="none" stroke="#08274B" stroke-miterlimit="10" points="2359.73,706.54 2415.61,693.86 2536.88,779.13 				"/>
				<polyline fill="none" stroke="#08274B" stroke-miterlimit="10" points="2439.49,778.05 2415.61,693.86 2276.77,588.36 				"/>
				<line fill="none" stroke="#08274B" stroke-miterlimit="10" x1="2447.2" y1="654.76" x2="2276.77" y2="588.36"/>
				<polyline fill="none" stroke="#08274B" stroke-miterlimit="10" points="2415.61,693.86 2384.21,630.74 2393.43,607.15 
					2306.15,538.88 				"/>
				<line fill="none" stroke="#08274B" stroke-miterlimit="10" x1="2276.77" y1="588.36" x2="2247.38" y2="568.27"/>
				<line fill="none" stroke="#08274B" stroke-miterlimit="10" x1="2306.15" y1="538.88" x2="2276.77" y2="588.36"/>
				<line fill="none" stroke="#08274B" stroke-miterlimit="10" x1="2480.44" y1="678.88" x2="2449.6" y2="566.01"/>
				<line fill="none" stroke="#08274B" stroke-miterlimit="10" x1="2393.43" y1="607.15" x2="2449.6" y2="564.81"/>
				<line fill="none" stroke="#08274B" stroke-miterlimit="10" x1="2536.88" y1="779.13" x2="2555.9" y2="733.33"/>
				<polyline fill="none" stroke="#08274B" stroke-miterlimit="10" points="2305.23,750.13 2276.77,588.36 2194.65,601.11 				"/>
				<line fill="none" stroke="#08274B" stroke-miterlimit="10" x1="2536.88" y1="779.13" x2="2447.2" y2="654.76"/>
				<line fill="none" stroke="#08274B" stroke-miterlimit="10" x1="2385.34" y1="631.86" x2="2529.54" y2="773.96"/>
				<line fill="none" stroke="#08274B" stroke-miterlimit="10" x1="2480.44" y1="678.88" x2="2513.55" y2="643.45"/>
				<line fill="none" stroke="#08274B" stroke-miterlimit="10" x1="2555.9" y1="733.33" x2="2675.99" y2="830.61"/>
				<line fill="none" stroke="#08274B" stroke-miterlimit="10" x1="2615.39" y1="836.48" x2="2675.39" y2="830.61"/>
				<line fill="none" stroke="#08274B" stroke-miterlimit="10" x1="2629.35" y1="701.35" x2="2513.72" y2="643.95"/>
				<line fill="none" stroke="#08274B" stroke-miterlimit="10" x1="2514.85" y1="645.08" x2="2675.39" y2="830.61"/>
				<circle id="_x2D_.elCircle-_16_" fill="none" stroke="#08274B" stroke-miterlimit="10" cx="2139.98" cy="558.57" r="42.78"/>
				<circle id="_x2D_.elCircle-_17_" fill="none" stroke="#08274B" stroke-miterlimit="10" cx="1964.35" cy="290.21" r="42.78"/>
				<rect y="-9.01" fill="none" width="3840" height="2174.61"/>
			</g>
		</g>
	</g>
</g>
<rect y="-9.01" fill="none" width="3840" height="2174.61"/>
<g id="_x2D_.contForPoint-" opacity="0.35">
	<g id="_x2D_.moveElements-_3_">
		<g>
			<g>
				<rect id="_x2D_.contForPointB-_3_" x="3256.56" y="684.56" opacity="0.2" fill="#0010B9" width="2038.6" height="1112.56"/>
				<rect id="_x2D_.contForPointB-_4_" x="1983.34" y="-397.65" opacity="0.2" fill="#0010B9" width="1941.97" height="1059.83"/>
				<rect id="_x2D_.contForPointB-_2_" x="-167.11" y="-430.68" opacity="0.2" fill="#0010B9" width="2157.7" height="1177.56"/>
				<rect id="_x2D_.contForPointB-_1_" x="-1100.75" y="735.16" opacity="0.2" fill="#0010B9" width="1867.28" height="1019.07"/>
				<rect id="_x2D_.contForPointB-_5_" x="-167.11" y="1662.76" opacity="0.08" fill="#0010B9" width="1867.28" height="1019.07"/>
				<rect id="_x2D_.contForPointB-_6_" x="1284.64" y="1765.59" opacity="0.08" fill="#0010B9" width="1867.28" height="1019.07"/>
				<rect id="_x2D_.contForPointB-" x="3131.97" y="1761.63" opacity="0.08" fill="#0010B9" width="1634.8" height="892.19"/>
				<rect x="7.55" y="-1.38" fill="none" width="3836.96" height="2158.11"/>
			</g>
		</g>
	</g>
</g>
</svg>
