<?xml version="1.0" encoding="utf-8"?>
<!-- Generator: Adobe Illustrator 24.2.1, SVG Export Plug-In . SVG Version: 6.00 Build 0)  -->
<svg version="1.1" id="andThisYearSvg" xmlns="http://www.w3.org/2000/svg" xmlns:xlink="http://www.w3.org/1999/xlink" x="0px"
	 y="0px" width="3840px" height="2160px" viewBox="0 0 3840 2160" enable-background="new 0 0 3840 2160" xml:space="preserve">
<rect id="_x2D_.bgColor-" x="4" y="1.14" fill="#F2F2F2" width="3842.78" height="2162.75"/>
<g id="_x2D_.contentScene-">
	<g id="_x2D_.moveElements-">
		<g>
			<g>
				
					<line id="_x2D_.p25S.p24E-" opacity="0.3295" fill="none" stroke="#6D154F" stroke-width="0.5" stroke-miterlimit="10" x1="2661.57" y1="1078.72" x2="2714.09" y2="1224.51"/>
				
					<line id="_x2D_.p26S.p24E-" opacity="0.3295" fill="none" stroke="#6D154F" stroke-width="0.5" stroke-miterlimit="10" x1="3233.16" y1="1320.38" x2="2714.09" y2="1224.51"/>
				
					<line id="_x2D_.p24S.p27E-" opacity="0.3295" fill="none" stroke="#6D154F" stroke-width="0.5" stroke-miterlimit="10" x1="2714.09" y1="1224.51" x2="3075.88" y2="1793.64"/>
				
					<line id="_x2D_.p28S.p27E-" opacity="0.3295" fill="none" stroke="#6D154F" stroke-width="0.5" stroke-miterlimit="10" x1="2343.95" y1="1551.85" x2="3075.88" y2="1793.64"/>
				
					<line id="_x2D_.p28S.p29E-" opacity="0.3295" fill="none" stroke="#6D154F" stroke-width="0.5" stroke-miterlimit="10" x1="2343.95" y1="1551.85" x2="2634.04" y2="1188.01"/>
				
					<line id="_x2D_.p30S.p29E-" opacity="0.3295" fill="none" stroke="#6D154F" stroke-width="0.5" stroke-miterlimit="10" x1="2541.1" y1="1858.44" x2="2634.04" y2="1188.01"/>
				
					<line id="_x2D_.p30S.p28E-" opacity="0.3295" fill="none" stroke="#6D154F" stroke-width="0.5" stroke-miterlimit="10" x1="2541.1" y1="1858.44" x2="2343.95" y2="1553.56"/>
				
					<line id="_x2D_.p30S.p31E-" opacity="0.3295" fill="none" stroke="#6D154F" stroke-width="0.5" stroke-miterlimit="10" x1="2541.1" y1="1858.44" x2="3024.19" y2="1465.99"/>
				
					<line id="_x2D_.p32S.p31E-" opacity="0.3295" fill="none" stroke="#6D154F" stroke-width="0.5" stroke-miterlimit="10" x1="2287.91" y1="1698.52" x2="3024.19" y2="1465.99"/>
				
					<line id="_x2D_.p33S.p30E-" opacity="0.3295" fill="none" stroke="#0036F3" stroke-miterlimit="10" x1="1923.32" y1="1915.73" x2="2541.1" y2="1858.44"/>
				
					<line id="_x2D_.p33S.p34E-" opacity="0.3295" fill="none" stroke="#6D154F" stroke-width="0.5" stroke-miterlimit="10" x1="1923.32" y1="1915.73" x2="1661.83" y2="1361.27"/>
				
					<line id="_x2D_.p36S.p35E-" opacity="0.3295" fill="none" stroke="#0036F3" stroke-miterlimit="10" x1="2217.09" y1="889.66" x2="1864.51" y2="1632.87"/>
				
					<line id="_x2D_.p37S.p32E-" opacity="0.3295" fill="none" stroke="#0036F3" stroke-miterlimit="10" x1="1654.44" y1="1504.09" x2="2287.91" y2="1698.52"/>
				
					<line id="_x2D_.p40S.p35E-" opacity="0.3295" fill="none" stroke="#6D154F" stroke-width="0.25" stroke-miterlimit="10" x1="1750.05" y1="1303.05" x2="1864.51" y2="1632.87"/>
				
					<line id="_x2D_.p41S.p35E-" opacity="0.3295" fill="none" stroke="#6D154F" stroke-width="0.25" stroke-miterlimit="10" x1="1950.7" y1="1771.7" x2="1864.51" y2="1632.87"/>
				
					<line id="_x2D_.p46S.p35E-" opacity="0.3295" fill="none" stroke="#6D154F" stroke-width="0.25" stroke-miterlimit="10" x1="1800.79" y1="1931.18" x2="1864.51" y2="1632.87"/>
				<circle id="_x2D_.p.p24-" fill="#00C0F2" cx="2714.09" cy="1224.51" r="17.77"/>
				<circle id="_x2D_.p.p25-" fill="#00C0F2" cx="2661.57" cy="1078.72" r="17.77"/>
				<circle id="_x2D_.p.p26-" fill="#00C0F2" cx="3233.16" cy="1320.38" r="17.77"/>
				<circle id="_x2D_.p.p27-" fill="#00C0F2" cx="3075.88" cy="1793.64" r="17.77"/>
				<circle id="_x2D_.p.p28-" fill="#00C0F2" cx="2343.95" cy="1553.56" r="17.77"/>
				<circle id="_x2D_.p.p29-" fill="#00C0F2" cx="2634.04" cy="1188.01" r="17.77"/>
				<circle id="_x2D_.p.p30-" fill="#00C0F2" cx="2541.1" cy="1858.44" r="17.77"/>
				<circle id="_x2D_.p.p31-" fill="#00C0F2" cx="3024.19" cy="1465.99" r="17.77"/>
				<circle id="_x2D_.p.p32-" fill="#00C0F2" cx="2287.91" cy="1698.52" r="17.77"/>
				<circle id="_x2D_.p.p33-" fill="#00C0F2" cx="1923.32" cy="1915.73" r="17.77"/>
				<circle id="_x2D_.p.p34-" fill="#00C0F2" cx="1661.83" cy="1361.27" r="17.77"/>
				<circle id="_x2D_.p.p35-" fill="#00C0F2" cx="1864.51" cy="1632.87" r="21.08"/>
				<circle id="_x2D_.p.p36-" fill="#00C0F2" cx="2217.09" cy="889.66" r="21.08"/>
				<circle id="_x2D_.p.p37-" fill="#00C0F2" cx="1654.44" cy="1504.09" r="17.77"/>
				<circle id="_x2D_.p.p40-" fill="#00C0F2" cx="1750.05" cy="1303.05" r="15.01"/>
				<rect x="204.56" y="143.62" fill="none" width="3250.55" height="1856.64"/>
			</g>
		</g>
		<g>
			<g>
				
					<line id="_x2D_.p39S.p38E-" opacity="0.29" fill="none" stroke="#0036F3" stroke-width="6" stroke-linecap="round" stroke-miterlimit="10" x1="1618.91" y1="1118.03" x2="1618.07" y2="1369.32"/>
				
					<line id="_x2D_.p42S.p38E-" opacity="0.29" fill="none" stroke="#0036F3" stroke-width="6" stroke-linecap="round" stroke-miterlimit="10" x1="1688.96" y1="1562.92" x2="1618.07" y2="1369.32"/>
				
					<line id="_x2D_.p43S.p38E-" opacity="0.29" fill="none" stroke="#0036F3" stroke-width="6" stroke-linecap="round" stroke-miterlimit="10" x1="1548.63" y1="1693.77" x2="1618.07" y2="1369.32"/>
				
					<line id="_x2D_.p43S.p44E-" opacity="0.29" fill="none" stroke="#0036F3" stroke-width="6" stroke-linecap="round" stroke-miterlimit="10" x1="1548.63" y1="1693.77" x2="1508.28" y2="1728.28"/>
				
					<line id="_x2D_.p42S.p45E-" opacity="0.29" fill="none" stroke="#0036F3" stroke-width="6" stroke-linecap="round" stroke-miterlimit="10" x1="1688.96" y1="1562.92" x2="1501.13" y2="1738.17"/>
				
					<line id="_x2D_.p41S.p42E-_2_" opacity="0.12" fill="none" stroke="#0036F3" stroke-width="6" stroke-linecap="round" stroke-miterlimit="10" x1="1950.7" y1="1771.7" x2="1688.96" y2="1562.92"/>
				
					<line id="_x2D_.p46S.p45E-" opacity="0.29" fill="none" stroke="#0036F3" stroke-width="6" stroke-linecap="round" stroke-miterlimit="10" x1="1800.79" y1="1931.18" x2="1501.13" y2="1738.17"/>
				<path id="_x2D_.p.p38-" fill="#00C0F2" d="M1608.77,1372.11c-1.54-5.14,1.38-10.55,6.51-12.09c5.14-1.54,10.55,1.38,12.09,6.51
					c1.54,5.14-1.38,10.55-6.51,12.09C1615.72,1380.16,1610.31,1377.25,1608.77,1372.11z"/>
				<path id="_x2D_.p.p39-" fill="#00C0F2" d="M1609.5,1120.85c-1.56-5.19,1.39-10.67,6.59-12.22c5.19-1.56,10.67,1.39,12.22,6.59
					c1.56,5.19-1.39,10.67-6.59,12.23C1616.53,1129,1611.06,1126.05,1609.5,1120.85z"/>
				<path id="_x2D_.p.p41-" fill="#00C0F2" d="M1941.5,1774.46c-1.52-5.08,1.36-10.43,6.44-11.95c5.08-1.52,10.43,1.36,11.95,6.44
					c1.52,5.08-1.36,10.43-6.44,11.95C1948.38,1782.42,1943.02,1779.54,1941.5,1774.46z"/>
				<path id="_x2D_.p.p42-" fill="#00C0F2" d="M1680,1565.6c-1.48-4.95,1.33-10.16,6.27-11.65c4.95-1.48,10.16,1.33,11.65,6.27
					c1.48,4.95-1.33,10.16-6.27,11.65C1686.7,1573.36,1681.48,1570.55,1680,1565.6z"/>
				<path id="_x2D_.p.p43-" fill="#00C0F2" d="M1539.67,1696.54c-1.48-4.95,1.33-10.16,6.27-11.65c4.95-1.48,10.16,1.33,11.65,6.27
					c1.48,4.95-1.33,10.16-6.27,11.65C1546.37,1704.29,1541.15,1701.49,1539.67,1696.54z"/>
				<path id="_x2D_.p.p44-" fill="#00C0F2" d="M1499.55,1730.9c-1.45-4.82,1.29-9.91,6.11-11.35c4.82-1.45,9.91,1.29,11.35,6.12
					c1.45,4.82-1.29,9.9-6.11,11.35C1506.07,1738.46,1500.99,1735.72,1499.55,1730.9z"/>
				<path id="_x2D_.p.p45-" fill="#00C0F2" d="M1492.44,1740.78c-1.44-4.8,1.29-9.85,6.08-11.29s9.85,1.29,11.29,6.08
					c1.44,4.8-1.29,9.85-6.08,11.29C1498.93,1748.3,1493.88,1745.58,1492.44,1740.78z"/>
				<path id="_x2D_.p.p46-" fill="#00C0F2" d="M1792.22,1933.75c-1.42-4.73,1.27-9.71,6-11.13c4.73-1.42,9.71,1.27,11.13,6
					c1.42,4.73-1.27,9.71-6,11.13C1798.63,1941.17,1793.64,1938.48,1792.22,1933.75z"/>
				<rect x="204.56" y="143.62" fill="none" width="3250.55" height="1856.64"/>
			</g>
		</g>
		<g>
			<g>
				
					<line id="_x2D_.p47S.p48E-" opacity="0.3295" fill="none" stroke="#6D154F" stroke-width="0.5" stroke-miterlimit="10" x1="1210.63" y1="1042.04" x2="1296.59" y2="1296.07"/>
				
					<line id="_x2D_.p47S.p49E-" opacity="0.3295" fill="none" stroke="#6D154F" stroke-width="0.5" stroke-miterlimit="10" x1="1210.63" y1="1042.04" x2="1264.11" y2="1550.23"/>
				
					<line id="_x2D_.p47S.p50E-" opacity="0.3295" fill="none" stroke="#6D154F" stroke-width="0.5" stroke-miterlimit="10" x1="1210.63" y1="1042.04" x2="653.13" y2="571.76"/>
				
					<line id="_x2D_.p47S.p51E-" opacity="0.3295" fill="none" stroke="#6D154F" stroke-width="0.5" stroke-miterlimit="10" x1="1210.63" y1="1042.04" x2="1503.09" y2="750.21"/>
				
					<line id="_x2D_.p50S.p51E-" opacity="0.3295" fill="none" stroke="#6D154F" stroke-width="0.5" stroke-miterlimit="10" x1="653.13" y1="571.76" x2="1503.09" y2="750.21"/>
				<circle id="_x2D_.p.p47-" fill="#00C0F2" cx="1210.63" cy="1042.04" r="15.01"/>
				<circle id="_x2D_.p.p48-" fill="#00C0F2" cx="1296.59" cy="1296.07" r="15.01"/>
				<circle id="_x2D_.p.p49-" fill="#00C0F2" cx="1264.11" cy="1550.23" r="15.01"/>
				<circle id="_x2D_.p.p50-" fill="none" cx="1503.09" cy="750.21" r="12.41"/>
				<circle id="_x2D_.p.p51-" fill="none" cx="653.13" cy="571.76" r="17.72"/>
				<rect x="204.56" y="143.62" fill="none" width="3250.55" height="1856.64"/>
			</g>
		</g>
		<g>
			<g>
				
					<line id="_x2D_.p53S.p52E-" opacity="0.3295" fill="none" stroke="#6D154F" stroke-width="0.5" stroke-miterlimit="10" x1="249.24" y1="605.99" x2="354.74" y2="1009.93"/>
				
					<line id="_x2D_.p55S.p52E-" opacity="0.3295" fill="none" stroke="#6D154F" stroke-width="0.5" stroke-miterlimit="10" x1="521.92" y1="934.99" x2="354.74" y2="1009.93"/>
				
					<line id="_x2D_.p58S.p52E-" opacity="0.3295" fill="none" stroke="#6D154F" stroke-width="0.5" stroke-miterlimit="10" x1="235.59" y1="1065.6" x2="354.74" y2="1009.93"/>
				
					<line id="_x2D_.p56S.p52E-" opacity="0.3295" fill="none" stroke="#6D154F" stroke-width="0.5" stroke-miterlimit="10" x1="207.11" y1="1305.32" x2="354.74" y2="1009.93"/>
				
					<line id="_x2D_.p57S.p52E-" opacity="0.3295" fill="none" stroke="#6D154F" stroke-width="0.5" stroke-miterlimit="10" x1="423.3" y1="1125.64" x2="354.74" y2="1009.93"/>
				<circle id="_x2D_.p.p52-" fill="#26506F" cx="354.74" cy="1009.93" r="28.86"/>
				<circle id="_x2D_.p.p53-" fill="#00C0F2" cx="249.24" cy="605.99" r="18.11"/>
				<path id="_x2D_.p.p54-" fill="#00C0F2" d="M589.96,783.38c-1.55-5.18,1.39-10.64,6.57-12.2c5.18-1.55,10.64,1.39,12.2,6.57
					c1.55,5.18-1.39,10.64-6.57,12.2C596.98,791.51,591.52,788.57,589.96,783.38z"/>
				<path id="_x2D_.p.p55-" fill="#00C0F2" d="M513.43,937.53c-1.4-4.69,1.26-9.63,5.94-11.03c4.69-1.41,9.63,1.26,11.03,5.94
					c1.41,4.69-1.26,9.63-5.94,11.03C519.77,944.88,514.83,942.22,513.43,937.53z"/>
				<path id="_x2D_.p.p56-" fill="#00C0F2" d="M198.26,1307.97c-1.47-4.89,1.31-10.04,6.2-11.51c4.89-1.47,10.04,1.31,11.51,6.2
					c1.46,4.89-1.31,10.04-6.2,11.51S199.73,1312.86,198.26,1307.97z"/>
				<path id="_x2D_.p.p57-" fill="#00C0F2" d="M414.82,1128.19c-1.4-4.68,1.25-9.62,5.94-11.02c4.68-1.4,9.62,1.25,11.02,5.94
					c1.4,4.68-1.25,9.62-5.94,11.02C421.16,1135.53,416.23,1132.87,414.82,1128.19z"/>
				<path id="_x2D_.p.p58-" fill="#00C0F2" d="M227.4,1068.06c-1.36-4.53,1.21-9.3,5.74-10.65c4.53-1.36,9.29,1.21,10.65,5.74
					c1.36,4.53-1.21,9.3-5.74,10.65C233.52,1075.16,228.75,1072.59,227.4,1068.06z"/>
				<path id="_x2D_.p.p59-" fill="#00C0F2" d="M500.99,1175.5c-1.3-4.34,1.16-8.9,5.5-10.2c4.34-1.3,8.9,1.16,10.2,5.5
					c1.3,4.34-1.16,8.9-5.5,10.2C506.86,1182.3,502.29,1179.84,500.99,1175.5z"/>
				<path id="_x2D_.p.p60-" fill="#00C0F2" d="M717.64,1248.26c-1.39-4.62,1.24-9.49,5.86-10.88c4.62-1.39,9.49,1.24,10.88,5.86
					c1.39,4.62-1.24,9.49-5.86,10.88C723.9,1255.51,719.03,1252.89,717.64,1248.26z"/>
				<rect x="204.56" y="143.62" fill="none" width="3250.55" height="1856.64"/>
			</g>
		</g>
		<g>
			<g>
				
					<line id="_x2D_.p1S.p2E-" opacity="0.3295" fill="none" stroke="#6D154F" stroke-width="0.5" stroke-miterlimit="10" x1="2332.67" y1="581.53" x2="2126.1" y2="768.06"/>
				
					<line id="_x2D_.p4S.p2E-" opacity="0.3295" fill="none" stroke="#6D154F" stroke-width="0.5" stroke-miterlimit="10" x1="1956" y1="586.42" x2="2126.1" y2="768.06"/>
				
					<line id="_x2D_.p4S.p3E-" opacity="0.3295" fill="none" stroke="#6D154F" stroke-width="0.5" stroke-miterlimit="10" x1="1956" y1="586.42" x2="2087.87" y2="552.75"/>
				
					<line id="_x2D_.p1S.p3E-" opacity="0.3295" fill="none" stroke="#6D154F" stroke-width="0.5" stroke-miterlimit="10" x1="2332.67" y1="581.53" x2="2087.87" y2="552.75"/>
				<circle id="_x2D_.p.p1-" fill="#00C0F2" cx="2332.67" cy="581.53" r="14.9"/>
				<circle id="_x2D_.p.p2-" fill="#00C0F2" cx="2126.1" cy="768.06" r="14.9"/>
				<circle id="_x2D_.p.p3-" fill="#00C0F2" cx="2087.87" cy="552.75" r="14.9"/>
				<circle id="_x2D_.p.p4-" fill="#00C0F2" cx="1956" cy="586.42" r="14.9"/>
				<rect x="204.56" y="143.62" fill="none" width="3250.55" height="1856.64"/>
			</g>
		</g>
		<g>
			<g>
				
					<line id="_x2D_.p1S.p2E-_1_" opacity="0.3295" fill="none" stroke="#6D154F" stroke-width="0.5" stroke-miterlimit="10" x1="1510.18" y1="1100.79" x2="1617.84" y2="844.13"/>
				
					<line id="_x2D_.p4S.p2E-_1_" opacity="0.3295" fill="none" stroke="#6D154F" stroke-width="0.5" stroke-miterlimit="10" x1="1849.03" y1="936.21" x2="1617.84" y2="844.13"/>
				
					<line id="_x2D_.p4S.p3E-_1_" opacity="0.3295" fill="none" stroke="#6D154F" stroke-width="0.5" stroke-miterlimit="10" x1="1849.03" y1="936.21" x2="1743.98" y2="1022.75"/>
				
					<line id="_x2D_.p1S.p3E-_1_" opacity="0.3295" fill="none" stroke="#6D154F" stroke-width="0.5" stroke-miterlimit="10" x1="1510.18" y1="1100.79" x2="1743.98" y2="1022.75"/>
				<circle id="_x2D_.p.p1-_1_" fill="#00C0F2" cx="1510.18" cy="1100.79" r="14.9"/>
				<circle id="_x2D_.p.p2-_1_" fill="#00C0F2" cx="1617.84" cy="844.13" r="14.9"/>
				<circle id="_x2D_.p.p3-_1_" fill="#00C0F2" cx="1743.98" cy="1022.75" r="14.9"/>
				<circle id="_x2D_.p.p4-_1_" fill="#00C0F2" cx="1849.03" cy="936.21" r="14.9"/>
				<rect x="204.56" y="143.62" fill="none" width="3250.55" height="1856.64"/>
			</g>
		</g>
		<g>
			<g>
				
					<line id="_x2D_.p25S.p24E-_1_" opacity="0.3295" fill="none" stroke="#6D154F" stroke-width="0.5" stroke-miterlimit="10" x1="501.99" y1="2039.33" x2="418.91" y2="1953.92"/>
				
					<line id="_x2D_.p26S.p24E-_1_" opacity="0.3295" fill="none" stroke="#6D154F" stroke-width="0.5" stroke-miterlimit="10" x1="25.01" y1="2051.65" x2="418.91" y2="1953.92"/>
				
					<line id="_x2D_.p24S.p27E-_1_" opacity="0.3295" fill="none" stroke="#6D154F" stroke-width="0.5" stroke-miterlimit="10" x1="418.91" y1="1953.92" x2="-15.17" y2="1670.32"/>
				
					<line id="_x2D_.p28S.p27E-_1_" opacity="0.3295" fill="none" stroke="#6D154F" stroke-width="0.5" stroke-miterlimit="10" x1="574.12" y1="1607.16" x2="-15.17" y2="1670.32"/>
				
					<line id="_x2D_.p28S.p29E-_1_" opacity="0.3295" fill="none" stroke="#6D154F" stroke-width="0.5" stroke-miterlimit="10" x1="574.12" y1="1607.16" x2="486.56" y2="1954.06"/>
				
					<line id="_x2D_.p30S.p29E-_1_" opacity="0.3295" fill="none" stroke="#6D154F" stroke-width="0.5" stroke-miterlimit="10" x1="338.7" y1="1455.1" x2="486.56" y2="1954.06"/>
				
					<line id="_x2D_.p30S.p28E-_1_" opacity="0.3295" fill="none" stroke="#6D154F" stroke-width="0.5" stroke-miterlimit="10" x1="338.7" y1="1455.1" x2="573.58" y2="1605.96"/>
				
					<line id="_x2D_.p30S.p31E-_1_" opacity="0.3295" fill="none" stroke="#6D154F" stroke-width="0.5" stroke-miterlimit="10" x1="338.7" y1="1455.1" x2="125.08" y2="1883.33"/>
				
					<line id="_x2D_.p32S.p31E-_1_" opacity="0.3295" fill="none" stroke="#6D154F" stroke-width="0.5" stroke-miterlimit="10" x1="566.77" y1="1486.66" x2="125.08" y2="1883.33"/>
				
					<line id="_x2D_.p33S.p30E-_1_" opacity="0.3295" fill="none" stroke="#0036F3" stroke-miterlimit="10" x1="753.07" y1="1218.78" x2="338.7" y2="1455.1"/>
				
					<line id="_x2D_.p33S.p34E-_1_" opacity="0.3295" fill="none" stroke="#6D154F" stroke-width="0.5" stroke-miterlimit="10" x1="753.07" y1="1218.78" x2="1112.27" y2="1523.96"/>
				
					<line id="_x2D_.p36S.p35E-_1_" opacity="0.3295" fill="none" stroke="#0036F3" stroke-miterlimit="10" x1="873.26" y1="2030.54" x2="884.09" y2="1398.16"/>
				
					<line id="_x2D_.p37S.p32E-_1_" opacity="0.3295" fill="none" stroke="#0036F3" stroke-miterlimit="10" x1="1072.08" y1="1421.61" x2="566.77" y2="1486.66"/>
				
					<line id="_x2D_.p40S.p35E-_1_" opacity="0.3295" fill="none" stroke="#6D154F" stroke-width="0.25" stroke-miterlimit="10" x1="1068.98" y1="1592.74" x2="884.09" y2="1398.16"/>
				
					<line id="_x2D_.p41S.p35E-_1_" opacity="0.3295" fill="none" stroke="#6D154F" stroke-width="0.25" stroke-miterlimit="10" x1="779.65" y1="1328.32" x2="884.09" y2="1398.16"/>
				
					<line id="_x2D_.p46S.p35E-_1_" opacity="0.3295" fill="none" stroke="#6D154F" stroke-width="0.25" stroke-miterlimit="10" x1="833.96" y1="1169.04" x2="884.09" y2="1398.16"/>
				<circle id="_x2D_.p.p24-_1_" fill="#00C0F2" cx="418.91" cy="1953.92" r="13.66"/>
				<circle id="_x2D_.p.p25-_1_" fill="#00C0F2" cx="501.99" cy="2039.33" r="13.66"/>
				<circle id="_x2D_.p.p26-_1_" fill="#00C0F2" cx="25.01" cy="2051.65" r="13.66"/>
				<circle id="_x2D_.p.p27-_1_" fill="#00C0F2" cx="-15.17" cy="1670.32" r="13.66"/>
				<circle id="_x2D_.p.p28-_1_" fill="#00C0F2" cx="573.58" cy="1605.96" r="13.66"/>
				<circle id="_x2D_.p.p29-_1_" fill="#00C0F2" cx="486.56" cy="1954.06" r="13.66"/>
				<circle id="_x2D_.p.p30-_1_" fill="#00C0F2" cx="338.7" cy="1455.1" r="13.66"/>
				<circle id="_x2D_.p.p31-_1_" fill="#00C0F2" cx="125.08" cy="1883.33" r="13.66"/>
				<circle id="_x2D_.p.p32-_1_" fill="#00C0F2" cx="566.77" cy="1486.66" r="13.66"/>
				<circle id="_x2D_.p.p33-_1_" fill="#00C0F2" cx="753.07" cy="1218.78" r="13.66"/>
				<circle id="_x2D_.p.p34-_1_" fill="#00C0F2" cx="1112.27" cy="1523.96" r="13.66"/>
				<circle id="_x2D_.p.p35-_1_" fill="#00C0F2" cx="884.09" cy="1398.16" r="16.21"/>
				<circle id="_x2D_.p.p36-_1_" fill="#00C0F2" cx="873.26" cy="2030.54" r="16.21"/>
				<circle id="_x2D_.p.p37-_1_" fill="#00C0F2" cx="1072.08" cy="1421.61" r="13.66"/>
				<circle id="_x2D_.p.p40-_1_" fill="#00C0F2" cx="1068.98" cy="1592.74" r="11.54"/>
				<rect x="204.56" y="143.62" fill="none" width="3250.55" height="1856.64"/>
			</g>
		</g>
		<g>
			<g>
				
					<line id="_x2D_.p39S.p38E-_1_" opacity="0.29" fill="none" stroke="#0036F3" stroke-width="6" stroke-linecap="round" stroke-miterlimit="10" x1="1011.8" y1="1631.86" x2="845.58" y2="1443.39"/>
				
					<line id="_x2D_.p42S.p38E-_1_" opacity="0.29" fill="none" stroke="#0036F3" stroke-width="6" stroke-linecap="round" stroke-miterlimit="10" x1="664.05" y1="1345.68" x2="845.58" y2="1443.39"/>
				
					<line id="_x2D_.p43S.p38E-_1_" opacity="0.29" fill="none" stroke="#0036F3" stroke-width="6" stroke-linecap="round" stroke-miterlimit="10" x1="682.11" y1="1154.67" x2="845.58" y2="1443.39"/>
				
					<line id="_x2D_.p43S.p44E-_1_" opacity="0.29" fill="none" stroke="#0036F3" stroke-width="6" stroke-linecap="round" stroke-miterlimit="10" x1="682.11" y1="1154.67" x2="689.37" y2="1102.07"/>
				
					<line id="_x2D_.p42S.p45E-_1_" opacity="0.29" fill="none" stroke="#0036F3" stroke-width="6" stroke-linecap="round" stroke-miterlimit="10" x1="664.05" y1="1345.68" x2="688.15" y2="1089.92"/>
				
					<line id="_x2D_.p41S.p42E-_1_" opacity="0.12" fill="none" stroke="#0036F3" stroke-width="6" stroke-linecap="round" stroke-miterlimit="10" x1="329.7" y1="1363.33" x2="664.05" y2="1345.68"/>
				
					<line id="_x2D_.p46S.p45E-_1_" opacity="0.29" fill="none" stroke="#0036F3" stroke-width="6" stroke-linecap="round" stroke-miterlimit="10" x1="335.92" y1="1144.54" x2="688.15" y2="1089.92"/>
				<path id="_x2D_.p.p38-_1_" fill="#00C0F2" d="M850.69,1435.13c4.56,2.82,5.97,8.8,3.16,13.36c-2.82,4.56-8.8,5.97-13.36,3.16
					c-4.56-2.82-5.97-8.8-3.16-13.36C840.14,1433.72,846.13,1432.31,850.69,1435.13z"/>
				<path id="_x2D_.p.p39-_1_" fill="#00C0F2" d="M1016.96,1623.51c4.61,2.85,6.04,8.9,3.19,13.52c-2.85,4.61-8.9,6.04-13.51,3.19
					c-4.61-2.85-6.04-8.9-3.19-13.52C1006.3,1622.09,1012.35,1620.66,1016.96,1623.51z"/>
				<path id="_x2D_.p.p41-_1_" fill="#00C0F2" d="M334.75,1355.16c4.51,2.79,5.91,8.7,3.12,13.22c-2.79,4.51-8.7,5.91-13.22,3.12
					c-4.51-2.79-5.91-8.7-3.12-13.22C324.32,1353.77,330.24,1352.37,334.75,1355.16z"/>
				<path id="_x2D_.p.p42-_1_" fill="#00C0F2" d="M668.96,1337.73c4.39,2.72,5.76,8.48,3.04,12.88c-2.72,4.39-8.48,5.76-12.88,3.04
					c-4.4-2.72-5.76-8.48-3.04-12.88C658.8,1336.37,664.57,1335.01,668.96,1337.73z"/>
				<path id="_x2D_.p.p43-_1_" fill="#00C0F2" d="M686.97,1146.65c4.39,2.72,5.76,8.48,3.04,12.88c-2.72,4.39-8.48,5.76-12.88,3.04
					c-4.4-2.72-5.76-8.48-3.04-12.88C676.81,1145.29,682.58,1143.93,686.97,1146.65z"/>
				<path id="_x2D_.p.p44-_1_" fill="#00C0F2" d="M694.16,1094.31c4.28,2.65,5.61,8.26,2.96,12.55c-2.65,4.28-8.27,5.61-12.55,2.96
					c-4.28-2.65-5.61-8.26-2.96-12.55C684.26,1092.99,689.88,1091.66,694.16,1094.31z"/>
				<path id="_x2D_.p.p45-_1_" fill="#00C0F2" d="M692.92,1082.21c4.26,2.63,5.58,8.22,2.95,12.48c-2.63,4.26-8.22,5.58-12.48,2.95
					c-4.26-2.63-5.58-8.22-2.95-12.48C683.07,1080.89,688.66,1079.57,692.92,1082.21z"/>
				<path id="_x2D_.p.p46-_1_" fill="#00C0F2" d="M340.62,1136.93c4.2,2.6,5.5,8.11,2.91,12.31c-2.6,4.2-8.11,5.5-12.31,2.91
					c-4.2-2.6-5.5-8.11-2.91-12.31C330.91,1135.64,336.42,1134.34,340.62,1136.93z"/>
				<rect x="204.56" y="143.62" fill="none" width="3250.55" height="1856.64"/>
			</g>
		</g>
		<g>
			<g>
				
					<line id="_x2D_.p39S.p38E-_2_" opacity="0.29" fill="none" stroke="#0036F3" stroke-width="6" stroke-linecap="round" stroke-miterlimit="10" x1="1124.31" y1="1590.53" x2="873.14" y2="1598.47"/>
				
					<line id="_x2D_.p42S.p38E-_2_" opacity="0.29" fill="none" stroke="#0036F3" stroke-width="6" stroke-linecap="round" stroke-miterlimit="10" x1="682.14" y1="1676.07" x2="873.14" y2="1598.47"/>
				
					<line id="_x2D_.p43S.p38E-_2_" opacity="0.29" fill="none" stroke="#0036F3" stroke-width="6" stroke-linecap="round" stroke-miterlimit="10" x1="546.47" y1="1540.39" x2="873.14" y2="1598.47"/>
				
					<line id="_x2D_.p43S.p44E-_2_" opacity="0.29" fill="none" stroke="#0036F3" stroke-width="6" stroke-linecap="round" stroke-miterlimit="10" x1="546.47" y1="1540.39" x2="510.57" y2="1501.27"/>
				
					<line id="_x2D_.p42S.p45E-_2_" opacity="0.29" fill="none" stroke="#0036F3" stroke-width="6" stroke-linecap="round" stroke-miterlimit="10" x1="682.14" y1="1676.07" x2="500.43" y2="1494.46"/>
				
					<line id="_x2D_.p41S.p42E-_3_" opacity="0.12" fill="none" stroke="#0036F3" stroke-width="6" stroke-linecap="round" stroke-miterlimit="10" x1="482.62" y1="1944.93" x2="682.14" y2="1676.07"/>
				
					<line id="_x2D_.p46S.p45E-_2_" opacity="0.29" fill="none" stroke="#0036F3" stroke-width="6" stroke-linecap="round" stroke-miterlimit="10" x1="318" y1="1800.68" x2="500.43" y2="1494.46"/>
				<path id="_x2D_.p.p38-_2_" fill="#00C0F2" d="M870.03,1589.27c5.08-1.72,10.59,1.01,12.31,6.09c1.72,5.08-1.01,10.59-6.09,12.31
					c-5.08,1.72-10.59-1.01-12.31-6.09C862.23,1596.5,864.95,1590.99,870.03,1589.27z"/>
				<path id="_x2D_.p.p39-_2_" fill="#00C0F2" d="M1121.16,1581.23c5.14-1.74,10.71,1.02,12.45,6.16
					c1.74,5.14-1.02,10.71-6.16,12.45c-5.14,1.74-10.71-1.02-12.45-6.16C1113.27,1588.54,1116.03,1582.97,1121.16,1581.23z"/>
				<path id="_x2D_.p.p41-_2_" fill="#00C0F2" d="M479.54,1935.84c5.02-1.7,10.47,1,12.17,6.02c1.7,5.02-1,10.47-6.02,12.17
					c-5.02,1.7-10.47-1-12.17-6.02C471.82,1942.98,474.52,1937.54,479.54,1935.84z"/>
				<path id="_x2D_.p.p42-_2_" fill="#00C0F2" d="M679.14,1667.21c4.89-1.65,10.2,0.97,11.86,5.86c1.65,4.89-0.97,10.2-5.86,11.86
					c-4.89,1.66-10.2-0.97-11.86-5.86C671.62,1674.17,674.25,1668.86,679.14,1667.21z"/>
				<path id="_x2D_.p.p43-_2_" fill="#00C0F2" d="M543.39,1531.53c4.89-1.65,10.2,0.97,11.86,5.86c1.65,4.89-0.97,10.2-5.86,11.86
					c-4.89,1.66-10.2-0.97-11.86-5.86C535.87,1538.5,538.5,1533.19,543.39,1531.53z"/>
				<path id="_x2D_.p.p44-_2_" fill="#00C0F2" d="M507.65,1492.63c4.77-1.61,9.94,0.95,11.56,5.72c1.61,4.77-0.95,9.94-5.72,11.56
					c-4.77,1.61-9.94-0.95-11.56-5.72C500.32,1499.42,502.88,1494.24,507.65,1492.63z"/>
				<path id="_x2D_.p.p45-_2_" fill="#00C0F2" d="M497.53,1485.87c4.74-1.6,9.89,0.94,11.49,5.68s-0.94,9.89-5.68,11.49
					c-4.74,1.6-9.89-0.94-11.5-5.68C490.24,1492.63,492.79,1487.48,497.53,1485.87z"/>
				<path id="_x2D_.p.p46-_2_" fill="#00C0F2" d="M315.14,1792.21c4.68-1.58,9.75,0.93,11.34,5.61c1.58,4.68-0.93,9.75-5.61,11.33
					c-4.68,1.58-9.75-0.93-11.34-5.61C307.95,1798.87,310.46,1793.79,315.14,1792.21z"/>
				<rect x="204.56" y="143.62" fill="none" width="3250.55" height="1856.64"/>
			</g>
		</g>
		<g>
			<g>
				<polygon fill="#00C0F2" points="2958.83,1174.56 2862.11,1954.62 3458.19,1942.62 				"/>
				<rect x="4" y="1.14" fill="none" width="3842.78" height="2165.72"/>
			</g>
		</g>
		<g>
			<g>
				<polygon fill="#00C0F2" points="1507.13,920.83 1959.98,1080 1998.11,1004.83 				"/>
				<rect x="4" y="1.14" fill="none" width="3842.78" height="2165.72"/>
			</g>
		</g>
		<g>
			<g>
				
					<line id="_x2D_.p39S.p38E-_3_" opacity="0.29" fill="none" stroke="#0036F3" stroke-width="6" stroke-linecap="round" stroke-miterlimit="10" x1="1071.16" y1="1359.24" x2="994.06" y2="1598.42"/>
				
					<line id="_x2D_.p42S.p38E-_3_" opacity="0.29" fill="none" stroke="#0036F3" stroke-width="6" stroke-linecap="round" stroke-miterlimit="10" x1="1002.82" y1="1804.39" x2="994.06" y2="1598.42"/>
				
					<line id="_x2D_.p43S.p38E-_3_" opacity="0.29" fill="none" stroke="#0036F3" stroke-width="6" stroke-linecap="round" stroke-miterlimit="10" x1="829.39" y1="1886.46" x2="994.06" y2="1598.42"/>
				
					<line id="_x2D_.p43S.p44E-_3_" opacity="0.29" fill="none" stroke="#0036F3" stroke-width="6" stroke-linecap="round" stroke-miterlimit="10" x1="829.39" y1="1886.46" x2="780.46" y2="1907.09"/>
				
					<line id="_x2D_.p42S.p45E-_3_" opacity="0.29" fill="none" stroke="#0036F3" stroke-width="6" stroke-linecap="round" stroke-miterlimit="10" x1="1002.82" y1="1804.39" x2="770.64" y2="1914.35"/>
				
					<line id="_x2D_.p41S.p42E-_4_" opacity="0.12" fill="none" stroke="#0036F3" stroke-width="6" stroke-linecap="round" stroke-miterlimit="10" x1="1188.81" y1="2082.79" x2="1002.82" y2="1804.39"/>
				
					<line id="_x2D_.p46S.p45E-_3_" opacity="0.29" fill="none" stroke="#0036F3" stroke-width="6" stroke-linecap="round" stroke-miterlimit="10" x1="997.55" y1="2189.23" x2="770.64" y2="1914.35"/>
				<path id="_x2D_.p.p38-_3_" fill="#00C0F2" d="M984.36,1598.25c0.09-5.36,4.51-9.63,9.88-9.54c5.36,0.09,9.63,4.51,9.54,9.88
					c-0.09,5.36-4.51,9.63-9.88,9.54C988.53,1608.03,984.26,1603.61,984.36,1598.25z"/>
				<path id="_x2D_.p.p39-_3_" fill="#00C0F2" d="M1061.34,1359.07c0.09-5.42,4.56-9.74,9.99-9.65c5.42,0.09,9.74,4.56,9.65,9.99
					c-0.09,5.42-4.56,9.74-9.99,9.65C1065.57,1368.97,1061.25,1364.5,1061.34,1359.07z"/>
				<path id="_x2D_.p.p41-_3_" fill="#00C0F2" d="M1179.21,2082.63c0.09-5.3,4.46-9.53,9.77-9.43c5.3,0.09,9.53,4.46,9.43,9.77
					c-0.09,5.3-4.46,9.53-9.77,9.43C1183.34,2092.3,1179.12,2087.93,1179.21,2082.63z"/>
				<path id="_x2D_.p.p42-_3_" fill="#00C0F2" d="M993.47,1804.23c0.09-5.17,4.35-9.28,9.52-9.19c5.17,0.09,9.28,4.35,9.19,9.52
					c-0.09,5.17-4.35,9.28-9.52,9.19C997.5,1813.66,993.38,1809.4,993.47,1804.23z"/>
				<path id="_x2D_.p.p43-_3_" fill="#00C0F2" d="M820.01,1886.38c0.09-5.17,4.35-9.28,9.52-9.19c5.17,0.09,9.28,4.35,9.19,9.52
					c-0.09,5.17-4.35,9.28-9.52,9.19C824.04,1895.8,819.92,1891.54,820.01,1886.38z"/>
				<path id="_x2D_.p.p44-_3_" fill="#00C0F2" d="M771.35,1906.93c0.09-5.03,4.24-9.05,9.27-8.96s9.05,4.24,8.96,9.27
					c-0.09,5.03-4.24,9.04-9.27,8.96C775.27,1916.12,771.26,1911.97,771.35,1906.93z"/>
				<path id="_x2D_.p.p45-_3_" fill="#00C0F2" d="M761.58,1914.19c0.09-5.01,4.22-9,9.22-8.91s9,4.22,8.91,9.22
					c-0.09,5.01-4.22,9-9.22,8.91S761.49,1919.2,761.58,1914.19z"/>
				<path id="_x2D_.p.p46-_3_" fill="#00C0F2" d="M988.61,2189.07c0.09-4.94,4.16-8.87,9.09-8.79c4.94,0.08,8.87,4.16,8.79,9.09
					c-0.09,4.94-4.16,8.87-9.09,8.79C992.46,2198.08,988.53,2194.01,988.61,2189.07z"/>
				<rect x="204.56" y="143.62" fill="none" width="3250.55" height="1856.64"/>
			</g>
		</g>
		<g>
			<g>
				
					<line id="_x2D_.p47S.p48E-_1_" opacity="0.3295" fill="none" stroke="#6D154F" stroke-width="0.5" stroke-miterlimit="10" x1="908.53" y1="1239.8" x2="675.58" y2="1106.91"/>
				
					<line id="_x2D_.p47S.p49E-_1_" opacity="0.3295" fill="none" stroke="#6D154F" stroke-width="0.5" stroke-miterlimit="10" x1="908.53" y1="1239.8" x2="531.14" y2="895.29"/>
				
					<line id="_x2D_.p47S.p50E-_1_" opacity="0.3295" fill="none" stroke="#6D154F" stroke-width="0.5" stroke-miterlimit="10" x1="908.53" y1="1239.8" x2="1637.65" y2="1221.34"/>
				
					<line id="_x2D_.p47S.p51E-_1_" opacity="0.3295" fill="none" stroke="#6D154F" stroke-width="0.5" stroke-miterlimit="10" x1="908.53" y1="1239.8" x2="883.58" y2="1652.2"/>
				
					<line id="_x2D_.p50S.p51E-_1_" opacity="0.3295" fill="none" stroke="#6D154F" stroke-width="0.5" stroke-miterlimit="10" x1="1637.65" y1="1221.34" x2="883.58" y2="1652.2"/>
				<circle id="_x2D_.p.p47-_1_" fill="#00C0F2" cx="908.53" cy="1239.8" r="15.01"/>
				<circle id="_x2D_.p.p48-_1_" fill="#00C0F2" cx="675.58" cy="1106.91" r="15.01"/>
				<circle id="_x2D_.p.p49-_1_" fill="#00C0F2" cx="531.14" cy="895.29" r="15.01"/>
				<circle id="_x2D_.p.p50-_1_" fill="none" cx="883.58" cy="1652.2" r="12.41"/>
				<circle id="_x2D_.p.p51-_1_" fill="none" cx="1637.65" cy="1221.34" r="17.72"/>
				<rect x="204.56" y="143.62" fill="none" width="3250.55" height="1856.64"/>
			</g>
		</g>
		<g>
			<g>
				
					<line id="_x2D_.p53S.p52E-_1_" opacity="0.3295" fill="none" stroke="#6D154F" stroke-width="0.5" stroke-miterlimit="10" x1="1584.37" y1="2024.92" x2="1237.29" y2="1792.9"/>
				
					<line id="_x2D_.p55S.p52E-_1_" opacity="0.3295" fill="none" stroke="#6D154F" stroke-width="0.5" stroke-miterlimit="10" x1="1162.03" y1="1959.93" x2="1237.29" y2="1792.9"/>
				
					<line id="_x2D_.p58S.p52E-_1_" opacity="0.3295" fill="none" stroke="#6D154F" stroke-width="0.5" stroke-miterlimit="10" x1="1289.43" y1="1672.16" x2="1237.29" y2="1792.9"/>
				
					<line id="_x2D_.p56S.p52E-_1_" opacity="0.3295" fill="none" stroke="#6D154F" stroke-width="0.5" stroke-miterlimit="10" x1="1151.57" y1="1473.99" x2="1237.29" y2="1792.9"/>
				
					<line id="_x2D_.p57S.p52E-_1_" opacity="0.3295" fill="none" stroke="#6D154F" stroke-width="0.5" stroke-miterlimit="10" x1="1109.2" y1="1751.88" x2="1237.29" y2="1792.9"/>
				<circle id="_x2D_.p.p52-_1_" fill="#26506F" cx="1237.29" cy="1792.9" r="28.86"/>
				<circle id="_x2D_.p.p53-_1_" fill="#00C0F2" cx="1584.37" cy="2024.92" r="18.11"/>
				<path id="_x2D_.p.p54-_1_" fill="#00C0F2" d="M1211.8,2118.48c4.6,2.84,6.03,8.88,3.18,13.48c-2.84,4.6-8.88,6.03-13.48,3.18
					c-4.6-2.84-6.03-8.88-3.18-13.48C1201.16,2117.06,1207.2,2115.63,1211.8,2118.48z"/>
				<path id="_x2D_.p.p55-_1_" fill="#00C0F2" d="M1166.69,1952.39c4.16,2.57,5.45,8.03,2.88,12.19c-2.57,4.16-8.03,5.45-12.19,2.88
					c-4.16-2.57-5.45-8.03-2.88-12.19C1157.07,1951.11,1162.53,1949.82,1166.69,1952.39z"/>
				<path id="_x2D_.p.p56-_1_" fill="#00C0F2" d="M1156.43,1466.13c4.34,2.68,5.69,8.38,3,12.72c-2.68,4.34-8.38,5.69-12.72,3
					c-4.34-2.68-5.69-8.38-3-12.72C1146.4,1464.79,1152.09,1463.45,1156.43,1466.13z"/>
				<path id="_x2D_.p.p57-_1_" fill="#00C0F2" d="M1113.85,1744.35c4.16,2.57,5.45,8.02,2.88,12.18c-2.57,4.16-8.02,5.45-12.18,2.88
					c-4.16-2.57-5.45-8.02-2.88-12.18S1109.69,1741.79,1113.85,1744.35z"/>
				<path id="_x2D_.p.p58-_1_" fill="#00C0F2" d="M1293.93,1664.88c4.02,2.48,5.26,7.76,2.78,11.78c-2.48,4.02-7.76,5.26-11.78,2.78
					c-4.02-2.48-5.26-7.76-2.78-11.78C1284.64,1663.64,1289.91,1662.4,1293.93,1664.88z"/>
				<path id="_x2D_.p.p59-_1_" fill="#00C0F2" d="M1018,1766.18c3.85,2.38,5.04,7.43,2.66,11.28c-2.38,3.85-7.43,5.04-11.28,2.66
					c-3.85-2.38-5.04-7.43-2.66-11.28C1009.1,1765,1014.15,1763.8,1018,1766.18z"/>
				<path id="_x2D_.p.p60-_1_" fill="#00C0F2" d="M807.68,1855.61c4.11,2.54,5.38,7.92,2.84,12.03c-2.54,4.11-7.92,5.38-12.03,2.84
					c-4.11-2.54-5.38-7.92-2.84-12.03C798.19,1854.34,803.57,1853.07,807.68,1855.61z"/>
				<rect x="204.56" y="143.62" fill="none" width="3250.55" height="1856.64"/>
			</g>
		</g>
		<g>
			<g>
				
					<line id="_x2D_.p1S.p2E-_3_" opacity="0.3295" fill="none" stroke="#6D154F" stroke-width="0.5" stroke-miterlimit="10" x1="1099.91" y1="1814.38" x2="1130.55" y2="1537.75"/>
				
					<line id="_x2D_.p4S.p2E-_3_" opacity="0.3295" fill="none" stroke="#6D154F" stroke-width="0.5" stroke-miterlimit="10" x1="1378.35" y1="1560.65" x2="1130.55" y2="1537.75"/>
				
					<line id="_x2D_.p4S.p3E-_3_" opacity="0.3295" fill="none" stroke="#6D154F" stroke-width="0.5" stroke-miterlimit="10" x1="1378.35" y1="1560.65" x2="1302.08" y2="1673.38"/>
				
					<line id="_x2D_.p1S.p3E-_3_" opacity="0.3295" fill="none" stroke="#6D154F" stroke-width="0.5" stroke-miterlimit="10" x1="1099.91" y1="1814.38" x2="1302.08" y2="1673.38"/>
				<circle id="_x2D_.p.p1-_3_" fill="#00C0F2" cx="1099.91" cy="1814.38" r="14.9"/>
				<circle id="_x2D_.p.p2-_3_" fill="#00C0F2" cx="1130.55" cy="1537.75" r="14.9"/>
				<circle id="_x2D_.p.p3-_3_" fill="#00C0F2" cx="1302.08" cy="1673.38" r="14.9"/>
				<circle id="_x2D_.p.p4-_3_" fill="#00C0F2" cx="1378.35" cy="1560.65" r="14.9"/>
				<rect x="204.56" y="143.62" fill="none" width="3250.55" height="1856.64"/>
			</g>
		</g>
		<g>
			<g>
				
					<line id="_x2D_.p1S.p2E-_2_" opacity="0.3295" fill="none" stroke="#6D154F" stroke-width="0.5" stroke-miterlimit="10" x1="636.26" y1="1312.64" x2="726.16" y2="1576.05"/>
				
					<line id="_x2D_.p4S.p2E-_2_" opacity="0.3295" fill="none" stroke="#6D154F" stroke-width="0.5" stroke-miterlimit="10" x1="492.14" y1="1660.68" x2="726.16" y2="1576.05"/>
				
					<line id="_x2D_.p4S.p3E-_2_" opacity="0.3295" fill="none" stroke="#6D154F" stroke-width="0.5" stroke-miterlimit="10" x1="492.14" y1="1660.68" x2="513.23" y2="1526.23"/>
				
					<line id="_x2D_.p1S.p3E-_2_" opacity="0.3295" fill="none" stroke="#6D154F" stroke-width="0.5" stroke-miterlimit="10" x1="636.26" y1="1312.64" x2="513.23" y2="1526.23"/>
				<circle id="_x2D_.p.p1-_2_" fill="#00C0F2" cx="636.26" cy="1312.64" r="14.9"/>
				<circle id="_x2D_.p.p2-_2_" fill="#00C0F2" cx="726.16" cy="1576.05" r="14.9"/>
				<circle id="_x2D_.p.p3-_2_" fill="#00C0F2" cx="513.23" cy="1526.23" r="14.9"/>
				<circle id="_x2D_.p.p4-_2_" fill="#00C0F2" cx="492.14" cy="1660.68" r="14.9"/>
				<rect x="204.56" y="143.62" fill="none" width="3250.55" height="1856.64"/>
			</g>
		</g>
		<g>
			<g>
				<polygon fill="#00C0F2" points="1499.13,917.83 1348.74,1057.77 1852.62,1241.47 				"/>
				<rect x="4" y="1.14" fill="none" width="3842.78" height="2165.72"/>
			</g>
		</g>
		<g>
			<g>
				<polygon fill="#00C0F2" points="746.7,833.51 394.36,1447.81 1082.19,1188.91 				"/>
				<rect x="4" y="1.14" fill="none" width="3842.78" height="2165.72"/>
			</g>
		</g>
		<g>
			<g>
				<line fill="none" stroke="#00C0F2" stroke-width="3" stroke-miterlimit="10" x1="1425.34" y1="2040.53" x2="666.28" y2="2160"/>
				<rect x="4" y="1.14" fill="none" width="3842.78" height="2165.72"/>
			</g>
		</g>
		<g>
			<g>
				<polygon fill="none" stroke="#00C0F2" stroke-width="3" stroke-miterlimit="10" points="1415.38,2075.07 1082.19,2144.83 
					1596.91,2109.95 				"/>
				<rect x="4" y="1.14" fill="none" width="3842.78" height="2165.72"/>
			</g>
		</g>
		<g>
			<g>
				<polygon fill="none" stroke="#00C0F2" stroke-width="3" stroke-miterlimit="10" points="2107.45,2090.08 1718.7,2144.83 
					2413.09,2160 				"/>
				<rect x="4" y="1.14" fill="none" width="3842.78" height="2165.72"/>
			</g>
		</g>
		<g>
			<g>
				<polygon fill="none" stroke="#00C0F2" stroke-width="3" stroke-miterlimit="10" points="2740.11,2109.95 2401.17,2104.18 
					2915.7,2198.17 				"/>
				<rect x="4" y="1.14" fill="none" width="3842.78" height="2165.72"/>
			</g>
		</g>
		<g>
			<g>
				
					<text transform="matrix(1 0 0 1 1764.9191 401.9599)" fill="#012B48" font-family="'HelveticaNeueLTStd-Hv'" font-size="140.0524px">And this year can be even</text>
				<rect x="4" y="1.14" fill="none" width="3842.78" height="2165.72"/>
			</g>
		</g>
		<g>
			<g>
				
					<text transform="matrix(1 0 0 1 1364.0493 710.7998)" fill="#012B48" font-family="'HelveticaNeueLTStd-ThIt'" font-size="321.2658px" letter-spacing="10">More Rewarding</text>
				<rect x="4" y="1.14" fill="none" width="3842.78" height="2165.72"/>
			</g>
		</g>
		<g>
			<g>
				<path fill="none" stroke="#00C0F2" stroke-width="3" stroke-miterlimit="10" d="M3281.67,2092.74l-308.33,74.11
					c0,0,533.11-38.63,540-41.82C3520.23,2121.85,3281.67,2092.74,3281.67,2092.74z"/>
				<rect x="4" y="1.14" fill="none" width="3842.78" height="2165.72"/>
			</g>
		</g>
		<g>
			<g>
				<polygon fill="#A4CD38" points="2658.44,1115.13 2037.94,980.32 1998.11,1004.83 				"/>
				<rect x="4" y="1.14" fill="none" width="3842.78" height="2165.72"/>
			</g>
		</g>
		<g>
			<g>
				<polygon fill="#A4CD38" points="1339.55,1101.47 812.57,1495.3 964.23,1795.55 				"/>
				<rect x="4" y="1.14" fill="none" width="3842.78" height="2165.72"/>
			</g>
		</g>
	</g>
</g>
<rect x="4" y="1.14" fill="none" width="3842.78" height="2165.72"/>
</svg>
