<?xml version="1.0" encoding="utf-8"?>
<!-- Generator: Adobe Illustrator 24.2.1, SVG Export Plug-In . SVG Version: 6.00 Build 0)  -->
<svg version="1.1" id="justSpendSomeSvg" xmlns="http://www.w3.org/2000/svg" xmlns:xlink="http://www.w3.org/1999/xlink" x="0px"
	 y="0px" width="3840px" height="2160px" viewBox="0 0 3840 2160" enable-background="new 0 0 3840 2160" xml:space="preserve">
<g id="_x2D_.contentScene-">
	<g id="_x2D_.moveElements-">
		<g>
			<g>
				<polyline fill="none" stroke="#012B48" stroke-miterlimit="10" points="2799.1,1782.09 2843.04,1782.97 2848.05,1784.6 
					2798.17,1783.91 				"/>
				<rect x="2796.09" y="1787.82" fill="none" stroke="#012B48" stroke-miterlimit="10" width="53.62" height="2.19"/>
				<rect x="2815.53" y="1783.7" fill="#012B48" width="2.1" height="4.12"/>
				<rect x="2828.53" y="1784.7" fill="#012B48" width="2.1" height="3.12"/>
				<rect x="2832.53" y="1784.7" fill="#012B48" width="2.1" height="3.12"/>
				<polyline fill="none" stroke="#012B48" stroke-miterlimit="10" stroke-dasharray="12" points="2788.67,1709.6 2789.08,1706.93 
					2843.26,1709.92 2844.66,1783.53 				"/>
				<polyline fill="none" stroke="#012B48" stroke-miterlimit="10" stroke-dasharray="12" points="2793.63,1780.49 2793.39,1778.42 
					2834.36,1778.75 2833.18,1715.1 2835.36,1715.1 				"/>
				<polyline fill="none" stroke="#012B48" stroke-miterlimit="10" stroke-dasharray="12" points="2850.74,1714.12 2851.14,1711.44 
					2895.32,1715.44 2897.7,1783.53 2895.85,1783.63 				"/>
				<polyline fill="none" stroke="#012B48" stroke-miterlimit="10" stroke-dasharray="12" points="2855.14,1781.68 2855.25,1779.96 
					2888.42,1780.27 2886.24,1720.62 2888.42,1720.62 				"/>
				<polygon fill="none" stroke="#012B48" stroke-miterlimit="10" stroke-dasharray="12" points="2850.7,1711.88 2852.52,1711.79 
					2855.16,1789.93 2853.52,1789.93 				"/>
				<polygon fill="none" stroke="#012B48" stroke-miterlimit="10" stroke-dasharray="12" points="2855.21,1783.14 2897.64,1783.87 
					2903.65,1785.51 2855.27,1784.96 				"/>
				
					<rect x="2855.69" y="1787.72" fill="none" stroke="#012B48" stroke-miterlimit="10" stroke-dasharray="12" width="51.62" height="2.19"/>
				<rect x="2874.13" y="1784.61" fill="#012B48" width="2.1" height="3.12"/>
				<rect x="2887.13" y="1785.61" fill="#012B48" width="2.1" height="2.12"/>
				<rect x="2891.13" y="1785.61" fill="#012B48" width="2.1" height="2.12"/>
				<polyline fill="none" stroke="#012B48" stroke-miterlimit="10" stroke-dasharray="12" points="2894.36,1721.62 2894.36,1719.42 
					2851.43,1715.68 				"/>
				<polygon opacity="0.47" fill="#012B48" points="2928.46,1924.39 2914.02,1924.39 2906.26,1666.98 2917.15,1668.55 				"/>
				<path fill="none" stroke="#012B48" stroke-miterlimit="10" d="M2922.24,1668.53l8.55,253.14c0,0-3.43,3.29-9.58,3.29
					c-3.8,0-9.58-2.29-9.58-2.29l-8.55-257.14"/>
				<polygon fill="#012B48" points="2709.13,1783.33 2710.95,1783.24 2710.79,1787.32 2709.14,1787.32 				"/>
				<polygon opacity="0.47" fill="#012B48" points="535.81,1958.36 525.25,1959.36 516.04,1957.36 540.03,1622.02 554.67,1619.69 
									"/>
				<path fill="none" stroke="#012B48" stroke-miterlimit="10" stroke-dasharray="12" d="M558.59,1620.49l-20.07,335.68
					c0,0-6.99,3.85-14.13,3.85c-4.41,0-11.13-4.7-11.13-4.7l23.07-333.84"/>
				<rect x="2639.73" y="1786.46" fill="none" stroke="#012B48" stroke-miterlimit="10" width="70.96" height="2.19"/>
				<polygon fill="none" stroke="#012B48" stroke-miterlimit="10" points="2639.74,1780.73 2704.68,1781.61 2710.69,1783.24 
					2638.81,1782.55 				"/>
				<polygon fill="none" stroke="#012B48" stroke-miterlimit="10" points="2641.03,1788.88 2638.59,1789.14 2636.94,1693.21 
					2638.92,1694.13 				"/>
				<rect x="2664.17" y="1782.34" fill="#012B48" width="2.1" height="4.12"/>
				<rect x="2668.17" y="1782.34" fill="#012B48" width="2.1" height="4.12"/>
				<rect x="2687.92" y="1782.93" fill="#012B48" width="2.1" height="4.12"/>
				<polygon fill="none" stroke="#012B48" stroke-miterlimit="10" points="2637.72,1692.57 2703.9,1698.56 2705.3,1782.17 
					2703.42,1781.75 2701.83,1700.54 2637.31,1695.24 				"/>
				<polyline fill="none" stroke="#012B48" stroke-miterlimit="10" stroke-dasharray="12" points="2640.27,1777.13 2640.4,1775.05 
					2691,1775.39 2689.82,1703.74 2692,1703.74 				"/>
				<polygon fill="#012B48" points="2782.04,1784.44 2783.85,1784.35 2783.7,1788.43 2782.05,1788.43 				"/>
				<rect x="2721.63" y="1787.56" fill="none" stroke="#012B48" stroke-miterlimit="10" width="61.96" height="2.19"/>
				<polygon fill="none" stroke="#012B48" stroke-miterlimit="10" points="2721.65,1781.83 2777.58,1782.71 2784.59,1784.35 
					2720.71,1783.66 				"/>
				<polygon fill="none" stroke="#012B48" stroke-miterlimit="10" points="2722.93,1788.99 2720.5,1789.24 2716.84,1699.32 
					2718.83,1700.23 				"/>
				<polygon fill="none" stroke="#012B48" stroke-miterlimit="10" points="2718.92,1707.01 2776.06,1711.03 2776.06,1708.82 
					2718.92,1704.91 				"/>
				<rect x="2737.08" y="1783.45" fill="#012B48" width="2.1" height="4.12"/>
				<rect x="2741.08" y="1783.45" fill="#012B48" width="2.1" height="4.12"/>
				<rect x="2760.83" y="1784.03" fill="#012B48" width="2.1" height="4.12"/>
				<polyline fill="none" stroke="#012B48" stroke-miterlimit="10" stroke-dasharray="12" points="2718.22,1702.35 2718.62,1699.67 
					2777.81,1704.67 2779.2,1783.27 				"/>
				<polyline fill="none" stroke="#012B48" stroke-miterlimit="10" stroke-dasharray="12" points="2721.17,1779.24 2721.31,1777.16 
					2765.9,1777.5 2764.72,1709.85 2766.9,1709.85 				"/>
				<rect x="2791.09" y="1787.82" fill="none" stroke="#012B48" stroke-miterlimit="10" width="54.62" height="2.19"/>
				<polyline fill="none" stroke="#012B48" stroke-miterlimit="10" points="2841.05,1784.6 2793.17,1783.91 2793.1,1782.09 
					2835.04,1782.97 				"/>
				<polygon fill="none" stroke="#012B48" stroke-miterlimit="10" stroke-dasharray="12" points="2793.41,1789.75 2791.09,1790.01 
					2788.3,1706.57 2790.28,1707.49 				"/>
				
					<line fill="none" stroke="#012B48" stroke-miterlimit="10" stroke-dasharray="12" x1="2788.37" y1="1712.26" x2="2841.3" y2="1715.1"/>
				
					<line fill="none" stroke="#012B48" stroke-miterlimit="10" stroke-dasharray="12" x1="2702.15" y1="1704.72" x2="2638.01" y2="1699.81"/>
				
					<line fill="none" stroke="#012B48" stroke-miterlimit="10" stroke-dasharray="12" x1="3176.03" y1="2023.68" x2="560.29" y2="1955"/>
				<polygon fill="none" stroke="#012B48" stroke-miterlimit="10" points="1254.11,1186.46 475.51,1609.71 472.78,1612.96 
					1254.08,1194.46 				"/>
				<polygon fill="none" stroke="#012B48" stroke-miterlimit="10" points="475.49,1619.61 1253.55,1200.46 1253.99,1202.25 
					476.02,1622.15 				"/>
				
					<line fill="none" stroke="#012B48" stroke-miterlimit="10" stroke-dasharray="12" x1="1255.37" y1="1209.11" x2="356.41" y2="1703"/>
				<polygon fill="none" stroke="#012B48" stroke-miterlimit="10" points="2557.65,1963.14 2628.61,1954.14 2628.61,1956.33 
					2557.65,1965.33 				"/>
				<polygon fill="none" stroke="#012B48" stroke-miterlimit="10" points="2556.66,1957.41 2622.6,1949.29 2628.61,1950.93 
					2556.73,1959.23 				"/>
				<polygon fill="none" stroke="#012B48" stroke-miterlimit="10" points="2556.95,1965.57 2554.51,1965.82 2552.86,1683.9 
					2554.85,1685.81 				"/>
				<polygon fill="none" stroke="#012B48" stroke-miterlimit="10" points="2553.93,1693.59 2619.07,1698.6 2619.07,1696.4 
					2553.93,1691.49 				"/>
				<polygon fill="none" stroke="#012B48" stroke-miterlimit="10" points="2553.64,1684.25 2620.82,1690.25 2622.22,1949.85 
					2620.34,1949.44 2618.75,1692.22 2553.23,1686.92 				"/>
				<polyline fill="none" stroke="#012B48" stroke-miterlimit="10" stroke-dasharray="12" points="2556.32,1951.74 2606.92,1947.07 
					2605.74,1695.43 2607.92,1695.43 				"/>
				<polygon fill="none" stroke="#012B48" stroke-miterlimit="10" points="2443.65,1977.14 2540.61,1965.14 2540.61,1967.33 
					2443.65,1979.33 				"/>
				<polygon fill="#012B48" points="2444.66,1971.41 2534.6,1960.29 2540.53,1961.27 2443.65,1972.58 				"/>
				<polygon fill="none" stroke="#012B48" stroke-miterlimit="10" points="2445.95,1977.57 2443.51,1977.82 2440.86,1673.9 
					2442.85,1674.81 				"/>
				<polygon fill="none" stroke="#012B48" stroke-miterlimit="10" points="2442.93,1683.59 2531.07,1689.6 2531.07,1687.4 
					2442.93,1681.49 				"/>
				<polygon fill="none" stroke="#012B48" stroke-miterlimit="10" points="2441.64,1673.25 2532.82,1681.25 2534.22,1960.85 
					2532.34,1960.44 2530.75,1683.22 2443.23,1675.92 				"/>
				<polygon fill="none" stroke="#012B48" stroke-miterlimit="10" points="2444.32,1964.74 2518.92,1956.13 2517.74,1688.43 
					2519.92,1688.43 2521.07,1958.07 2444.19,1966.82 				"/>
				<polygon fill="none" stroke="#012B48" stroke-miterlimit="10" points="2317.41,1786.39 2314.98,1786.64 2312.32,1661.72 
					2314.31,1663.63 				"/>
				<rect x="2315.31" y="1784.04" fill="none" stroke="#012B48" stroke-miterlimit="10" width="105.96" height="2.19"/>
				<polygon fill="#012B48" points="2316.32,1777.31 2413.26,1778.19 2421.26,1778.83 2315.39,1778.13 				"/>
				<polygon fill="#012B48" points="2313.59,1669.49 2409.73,1677.5 2409.73,1675.3 2313.59,1667.39 				"/>
				<rect x="2370.75" y="1777.93" fill="#012B48" width="2.1" height="6.12"/>
				<rect x="2365.33" y="1778.46" fill="#012B48" width="2.1" height="6.12"/>
				<rect x="2389.17" y="1777.93" fill="#012B48" width="2.1" height="6.12"/>
				<polygon fill="none" stroke="#012B48" stroke-miterlimit="10" points="2312.29,1661.15 2411.48,1669.15 2412.87,1778.75 
					2411,1778.34 2409.41,1671.12 2313.89,1663.82 				"/>
				<polygon fill="none" stroke="#012B48" stroke-miterlimit="10" points="2315.98,1769.64 2397.58,1769.97 2396.39,1676.32 
					2398.58,1676.32 2399.73,1771.91 2315.84,1771.72 				"/>
				
					<line fill="none" stroke="#012B48" stroke-miterlimit="10" stroke-dasharray="12" x1="3121.2" y1="1896.64" x2="2305.69" y2="1998.02"/>
				<polygon fill="none" stroke="#012B48" stroke-miterlimit="10" points="1255.08,1178.39 1254.36,1208.79 1269.65,1208.67 
					1270,1177.77 				"/>
				<polyline fill="none" stroke="#012B48" stroke-miterlimit="10" points="1271,1206.36 1296.57,1208.44 1296.57,1210.82 
					1254.83,1208.32 				"/>
				<polygon fill="none" stroke="#012B48" stroke-miterlimit="10" points="1273.9,1199.4 1273.38,1202.34 1285.74,1203.24 
					1285.46,1200.52 				"/>
				<polygon fill="none" stroke="#012B48" stroke-miterlimit="10" points="1275.19,1184.69 1275.49,1191.88 2289.94,1560.11 
					2283.05,1554.42 				"/>
				
					<rect x="1529.45" y="1742.09" fill="none" stroke="#012B48" stroke-miterlimit="10" stroke-dasharray="12" width="51.46" height="111.26"/>
				
					<rect x="1588.1" y="1742.09" fill="none" stroke="#012B48" stroke-miterlimit="10" stroke-dasharray="12" width="51.46" height="111.26"/>
				
					<rect x="1522.63" y="1733.07" fill="none" stroke="#012B48" stroke-miterlimit="10" stroke-dasharray="12" width="118.46" height="131.26"/>
				<rect x="1347.81" y="1742.09" fill="none" stroke="#012B48" stroke-miterlimit="10" width="43.46" height="111.26"/>
				
					<rect x="1127.4" y="1678.04" fill="none" stroke="#012B48" stroke-miterlimit="10" stroke-dasharray="12" width="73.9" height="214.62"/>
				
					<rect x="1214.84" y="1680.46" fill="none" stroke="#012B48" stroke-miterlimit="10" stroke-dasharray="12" width="77.3" height="214.62"/>
				<rect x="1400.72" y="1743.68" fill="none" stroke="#012B48" stroke-miterlimit="10" width="49.46" height="111.26"/>
				<rect x="1340" y="1735.07" fill="none" stroke="#012B48" stroke-miterlimit="10" width="111.46" height="129.26"/>
				<polygon fill="none" stroke="#012B48" stroke-miterlimit="10" points="1296.57,1920.88 1107.04,1915.88 1107.04,1663.25 
					1296.57,1663.25 				"/>
				
					<rect x="881.23" y="1744.16" fill="none" stroke="#012B48" stroke-miterlimit="10" stroke-dasharray="12" width="50.46" height="105.26"/>
				<polygon fill="none" stroke="#012B48" stroke-miterlimit="10" stroke-dasharray="12" points="930.94,1873.29 861.49,1872.29 
					861.49,1855.03 930.94,1855.03 				"/>
				<polygon fill="none" stroke="#012B48" stroke-miterlimit="10" stroke-dasharray="12" points="814.2,1871.76 744.74,1869.76 
					744.74,1853.5 814.2,1854.5 				"/>
				<polygon fill="none" stroke="#012B48" stroke-miterlimit="10" points="814.46,1853.93 751,1852.93 768,1848.66 818.46,1848.66 
									"/>
				<polygon fill="none" stroke="#012B48" stroke-miterlimit="10" points="930.94,1854.93 865.49,1854.93 881.49,1848.66 
					931.94,1848.66 				"/>
				
					<rect x="768.15" y="1743.58" fill="none" stroke="#012B48" stroke-miterlimit="10" stroke-dasharray="12" width="50.46" height="105.26"/>
				<rect x="1513.29" y="1866.8" fill="none" stroke="#012B48" stroke-miterlimit="10" width="128.79" height="23.43"/>
				<rect x="1326.21" y="1865.23" fill="none" stroke="#012B48" stroke-miterlimit="10" width="123.79" height="23.43"/>
				<polygon fill="none" stroke="#012B48" stroke-miterlimit="10" points="1292.84,1968.59 1085.74,1963.59 1085.74,1916.72 
					1292.84,1921.72 				"/>
				<rect x="993.45" y="1739.67" fill="none" stroke="#012B48" stroke-miterlimit="10" width="60.22" height="47.1"/>
				
					<rect x="998.24" y="1746.19" fill="none" stroke="#012B48" stroke-miterlimit="10" stroke-dasharray="12" width="54.36" height="35.52"/>
				<polygon opacity="0.47" fill="#012B48" points="2299.39,2000.53 2278.59,2002.53 2262.82,2000.53 2264.82,1573.75 
					2292.39,1574.75 				"/>
				<path fill="none" stroke="#012B48" stroke-miterlimit="10" d="M2305.29,1576.97v421.56c0,0-14.65,4-24.27,4s-24.27-4-24.27-4
					v-424.56"/>
				<polygon fill="none" stroke="#012B48" stroke-miterlimit="10" stroke-dasharray="12" points="1321.22,1214.48 1321.22,1220.79 
					2293.89,1576 2291.44,1570.69 				"/>
				<polygon fill="none" stroke="#012B48" stroke-miterlimit="10" points="2293.72,1575.46 2921.93,1668.47 2922.55,1668.78 
					2291.36,1570.64 				"/>
				
					<line fill="none" stroke="#012B48" stroke-miterlimit="10" stroke-dasharray="12" x1="3124.93" y1="1691.9" x2="2283.05" y2="1554.42"/>
				<polygon fill="#A4CD38" points="1319.63,1231.67 2230.17,1791.6 2228.43,1572.46 				"/>
				<polygon fill="#A4CD38" points="567.29,1631.18 554.36,1932.96 660.63,1935.51 				"/>
				<polygon fill="#A4CD38" points="1128.46,1681.14 1127.71,1890.63 1201.3,1892.66 				"/>
				<polygon fill="#A4CD38" points="931.68,1744.16 881.49,1848.66 930.94,1847.03 				"/>
				<polygon fill="#A4CD38" points="1449.18,1743.68 1400.72,1743.68 1450,1855.23 				"/>
				<polygon fill="#A4CD38" points="2317.41,1878.51 2317.41,1985.4 2399.73,1975.27 				"/>
				<polygon fill="#A4CD38" points="2688.82,1703.74 2664.17,1702.26 2690,1767.66 				"/>
				<polygon fill="#A4CD38" points="2822.7,1778.13 2791.09,1713.68 2794.39,1778.42 				"/>
				<polygon fill="#A4CD38" points="2901.08,1818.32 2820.19,1925.21 2902.51,1915.07 				"/>
				
					<line fill="none" stroke="#012B48" stroke-miterlimit="10" stroke-dasharray="12" x1="476.78" y1="1610.62" x2="161.99" y2="1770.82"/>
				
					<line fill="none" stroke="#012B48" stroke-miterlimit="10" stroke-dasharray="12" x1="476.95" y1="1620.72" x2="64.16" y2="1829.92"/>
				
					<line id="_x2D_.elLine-_7_" fill="none" stroke="#012B48" stroke-miterlimit="10" stroke-dasharray="12" x1="1255.36" y1="1169.26" x2="1255.36" y2="700.83"/>
				
					<line id="_x2D_.elLine-_8_" fill="none" stroke="#012B48" stroke-miterlimit="10" stroke-dasharray="12" x1="1321.22" y1="1213.48" x2="706.3" y2="1002.15"/>
				
					<line fill="none" stroke="#012B48" stroke-miterlimit="10" stroke-dasharray="12" x1="1127.17" y1="1255.47" x2="1938.25" y2="815.51"/>
				
					<line fill="none" stroke="#012B48" stroke-miterlimit="10" stroke-dasharray="12" x1="1156.24" y1="1246.77" x2="1739.97" y2="930.13"/>
				
					<line id="_x2D_.elLine-_6_" fill="none" stroke="#012B48" stroke-miterlimit="10" stroke-dasharray="12" x1="1279.56" y1="1191.57" x2="2741.37" y2="393.64"/>
				
					<line fill="none" stroke="#012B48" stroke-miterlimit="10" stroke-dasharray="12" x1="541.14" y1="1599.32" x2="556.14" y2="1340.89"/>
				
					<line fill="none" stroke="#012B48" stroke-miterlimit="10" stroke-dasharray="12" x1="784.73" y1="1171.64" x2="1018.33" y2="1052.69"/>
				
					<line fill="none" stroke="#012B48" stroke-miterlimit="10" stroke-dasharray="12" x1="558.87" y1="1595.51" x2="628.84" y2="547.6"/>
				
					<line fill="none" stroke="#012B48" stroke-miterlimit="10" stroke-dasharray="12" x1="1269.74" y1="1468.26" x2="1269.74" y2="1079.32"/>
				
					<line fill="none" stroke="#012B48" stroke-miterlimit="10" stroke-dasharray="12" x1="1734.89" y1="1662.86" x2="719.23" y2="1663.25"/>
				
					<line fill="none" stroke="#012B48" stroke-miterlimit="10" stroke-dasharray="12" x1="978.5" y1="1743.25" x2="628.84" y2="1743.39"/>
				
					<line fill="none" stroke="#012B48" stroke-miterlimit="10" stroke-dasharray="12" x1="975.82" y1="1872.93" x2="221.74" y2="1863.92"/>
				
					<line fill="none" stroke="#012B48" stroke-miterlimit="10" stroke-dasharray="12" x1="881.23" y1="1414.66" x2="881.23" y2="1763.22"/>
				
					<line fill="none" stroke="#012B48" stroke-miterlimit="10" stroke-dasharray="12" x1="931.68" y1="1680.95" x2="931.68" y2="2029.51"/>
				
					<line fill="none" stroke="#012B48" stroke-miterlimit="10" stroke-dasharray="12" x1="1450" y1="1703.96" x2="1450" y2="2052.52"/>
				
					<line id="_x2D_.elLine-_11_" fill="none" stroke="#012B48" stroke-miterlimit="10" stroke-dasharray="12" x1="1641.55" y1="1857.85" x2="1641.55" y2="2206.4"/>
				
					<line fill="none" stroke="#012B48" stroke-miterlimit="10" stroke-dasharray="12" x1="1522.39" y1="1391.23" x2="1522.39" y2="1739.79"/>
				
					<line fill="none" stroke="#012B48" stroke-miterlimit="10" stroke-dasharray="12" x1="1639.55" y1="1376.1" x2="1639.55" y2="1724.65"/>
				
					<line fill="none" stroke="#012B48" stroke-miterlimit="10" stroke-dasharray="12" x1="818.61" y1="1425.04" x2="818.61" y2="1773.6"/>
				
					<line fill="none" stroke="#012B48" stroke-miterlimit="10" stroke-dasharray="12" x1="768.15" y1="1425.04" x2="768.15" y2="1773.6"/>
				
					<line fill="none" stroke="#012B48" stroke-miterlimit="10" stroke-dasharray="12" x1="1107.76" y1="1327.73" x2="1107.04" y2="1685.05"/>
				
					<line fill="none" stroke="#012B48" stroke-miterlimit="10" stroke-dasharray="12" x1="1296.93" y1="1340.89" x2="1296.21" y2="1698.21"/>
				
					<line fill="none" stroke="#012B48" stroke-miterlimit="10" stroke-dasharray="12" x1="1319.63" y1="1733.07" x2="1499.35" y2="1735.07"/>
				
					<line fill="none" stroke="#012B48" stroke-miterlimit="10" stroke-dasharray="12" x1="501.89" y1="1952.43" x2="176.27" y2="1937.76"/>
				
					<line id="_x2D_.elLine-_9_" fill="none" stroke="#012B48" stroke-miterlimit="10" stroke-dasharray="12" x1="660.63" y1="1935.51" x2="394.84" y2="1059.19"/>
				
					<line fill="none" stroke="#012B48" stroke-miterlimit="10" stroke-dasharray="12" x1="2305.69" y1="1556.77" x2="2305.69" y2="1253.97"/>
				
					<line id="_x2D_.elLine-_10_" fill="none" stroke="#012B48" stroke-miterlimit="10" stroke-dasharray="12" x1="2351.12" y1="1412.99" x2="2351.12" y2="1020.2"/>
				
					<line fill="none" stroke="#012B48" stroke-miterlimit="10" stroke-dasharray="12" x1="3302.16" y1="1918.23" x2="2276.55" y2="1570.71"/>
				
					<line fill="none" stroke="#012B48" stroke-miterlimit="10" stroke-dasharray="12" x1="2283.05" y1="1565.67" x2="1814.08" y2="882.86"/>
				
					<line fill="none" stroke="#012B48" stroke-miterlimit="10" stroke-dasharray="12" x1="2263.56" y1="1813.33" x2="1295.57" y2="1213.82"/>
				
					<line fill="none" stroke="#012B48" stroke-miterlimit="10" stroke-dasharray="12" x1="2703.15" y1="1892.66" x2="2703.15" y2="1704.72"/>
				
					<line fill="none" stroke="#012B48" stroke-miterlimit="10" stroke-dasharray="12" x1="2639.03" y1="1947.27" x2="2639.03" y2="1759.33"/>
				
					<line fill="none" stroke="#012B48" stroke-miterlimit="10" stroke-dasharray="12" x1="2397.73" y1="1947.18" x2="2397.73" y2="1759.24"/>
				
					<line fill="none" stroke="#012B48" stroke-miterlimit="10" stroke-dasharray="12" x1="2776.06" y1="1709.27" x2="2776.06" y2="1521.33"/>
				
					<line fill="none" stroke="#012B48" stroke-miterlimit="10" stroke-dasharray="12" x1="2636.94" y1="1719.69" x2="2636.94" y2="1371.75"/>
				
					<line fill="none" stroke="#012B48" stroke-miterlimit="10" stroke-dasharray="12" x1="2702.15" y1="1700.38" x2="2702.15" y2="1512.44"/>
				
					<line fill="none" stroke="#012B48" stroke-miterlimit="10" stroke-dasharray="12" x1="3065.35" y1="1729.96" x2="2516.16" y2="1681.49"/>
				
					<line fill="none" stroke="#012B48" stroke-miterlimit="10" stroke-dasharray="12" x1="2779.2" y1="1872.72" x2="2779.2" y2="1792.21"/>
				
					<line fill="none" stroke="#012B48" stroke-miterlimit="10" stroke-dasharray="12" x1="2841.3" y1="1891.37" x2="2841.3" y2="1790.86"/>
				
					<line fill="none" stroke="#012B48" stroke-miterlimit="10" stroke-dasharray="12" x1="2903.51" y1="1670.12" x2="2893.23" y2="1401.9"/>
				
					<line fill="none" stroke="#012B48" stroke-miterlimit="10" stroke-dasharray="12" x1="2926.14" y1="1773.97" x2="2915.86" y2="1505.76"/>
				
					<line id="_x2D_.elLine-_12_" fill="none" stroke="#012B48" stroke-miterlimit="10" stroke-dasharray="12" x1="2256.4" y1="1550.37" x2="2256.4" y2="784.28"/>
				
					<line fill="none" stroke="#012B48" stroke-miterlimit="10" stroke-dasharray="12" x1="2230.17" y1="1993.67" x2="2230.17" y2="1227.58"/>
				<circle id="_x2D_.elCircle-_6_" fill="none" stroke="#012B48" stroke-miterlimit="10" cx="2281.15" cy="1560.29" r="32.52"/>
				<circle id="_x2D_.elCircle-_12_" fill="none" stroke="#012B48" stroke-miterlimit="10" cx="2863.35" cy="834.86" r="32.52"/>
				<circle id="_x2D_.elCircle-_11_" fill="none" stroke="#012B48" stroke-miterlimit="10" cx="2964.87" cy="591.38" r="32.52"/>
				<circle id="_x2D_.elCircle-_10_" fill="none" stroke="#012B48" stroke-miterlimit="10" cx="3129.06" cy="967.11" r="32.52"/>
				<circle id="_x2D_.elCircle-_9_" fill="none" stroke="#012B48" stroke-miterlimit="10" cx="3369.23" cy="625.73" r="32.52"/>
				<circle id="_x2D_.elCircle-_8_" fill="none" stroke="#012B48" stroke-miterlimit="10" cx="2929.79" cy="1922.44" r="32.52"/>
				<circle id="_x2D_.elCircle-_7_" fill="none" stroke="#012B48" stroke-miterlimit="10" cx="2716.43" cy="1695.22" r="32.52"/>
				<circle id="_x2D_.elCircle-" fill="none" stroke="#012B48" stroke-miterlimit="10" cx="1256.18" cy="1177.77" r="32.52"/>
				<circle id="_x2D_.elCircle-_2_" fill="none" stroke="#012B48" stroke-miterlimit="10" cx="1814.08" cy="882.86" r="32.52"/>
				<circle id="_x2D_.elCircle-_3_" fill="none" stroke="#012B48" stroke-miterlimit="10" cx="2351.27" cy="1124.81" r="32.52"/>
				<circle id="_x2D_.elCircle-_14_" fill="none" stroke="#012B48" stroke-miterlimit="10" cx="2653.04" cy="444.08" r="32.52"/>
				<circle id="_x2D_.elCircle-_1_" fill="none" stroke="#012B48" stroke-miterlimit="10" cx="1018.33" cy="1051.21" r="32.52"/>
				<circle id="_x2D_.elCircle-_5_" fill="none" stroke="#012B48" stroke-miterlimit="10" cx="515.04" cy="1953.36" r="32.52"/>
				<circle id="_x2D_.elCircle-_4_" fill="none" stroke="#012B48" stroke-miterlimit="10" cx="1640.55" cy="1890.22" r="32.52"/>
				<circle fill="#A4CD38" cx="1255.86" cy="1178.14" r="6.5"/>
				<circle fill="#A4CD38" cx="1814.08" cy="882.86" r="6.5"/>
				<circle fill="#A4CD38" cx="2351.12" cy="1125.22" r="6.5"/>
				<circle fill="#A4CD38" cx="2653.04" cy="444.08" r="6.5"/>
				<circle fill="#A4CD38" cx="1018.33" cy="1052.69" r="6.5"/>
				<circle fill="#A4CD38" cx="516.04" cy="1955" r="6.5"/>
				<circle fill="#A4CD38" cx="768.15" cy="1743.58" r="6.5"/>
				<circle fill="#A4CD38" cx="861.49" cy="1857.7" r="6.5"/>
				<circle fill="#A4CD38" cx="931.94" cy="1849.42" r="6.5"/>
				<circle fill="#A4CD38" cx="1641.08" cy="1890.22" r="6.5"/>
				<circle fill="#A4CD38" cx="2283.05" cy="1560.29" r="6.5"/>
				<circle fill="#A4CD38" cx="2930.79" cy="1922.74" r="6.5"/>
				<circle fill="#A4CD38" cx="2409.73" cy="1935.74" r="6.5"/>
				<circle fill="#A4CD38" cx="2412.87" cy="1666.98" r="6.5"/>
				<circle fill="#A4CD38" cx="2619.07" cy="1691.14" r="6.5"/>
				<circle fill="#A4CD38" cx="2924.93" cy="1658.53" r="6.5"/>
				<circle fill="#A4CD38" cx="2722.93" cy="1790.01" r="6.5"/>
				<circle fill="#A4CD38" cx="2716.84" cy="1695.43" r="6.5"/>
				<polyline fill="none" stroke="#012B48" stroke-miterlimit="10" stroke-dasharray="12" points="1275.19,1184.69 2357.79,1421.89 
					2887.13,1645.3 				"/>
				<rect x="-442.57" y="-506.91" fill="none" width="3840" height="2160"/>
			</g>
		</g>
		<g>
			<g>
				<ellipse fill="none" stroke="#012B48" stroke-miterlimit="10" cx="2862.54" cy="846.1" rx="123.37" ry="71.21"/>
				<path fill="none" stroke="#012B48" stroke-miterlimit="10" d="M2959.25,897.47c16.81,12.17,26.85,27.59,26.85,44.36
					c0,39.33-55.23,71.21-123.37,71.21c-68.13,0-123.37-31.88-123.37-71.21c0-18.21,11.84-34.82,31.32-47.42"/>
				<path fill="none" stroke="#012B48" stroke-width="0.5" stroke-miterlimit="10" stroke-dasharray="12" d="M2958,870.9
					c16.81,12.17,26.85,27.59,26.85,44.36c0,39.33-55.23,71.21-123.37,71.21s-123.37-31.88-123.37-71.21
					c0-18.21,11.84-34.82,31.32-47.42"/>
				<path fill="none" stroke="#012B48" stroke-width="0.5" stroke-miterlimit="10" stroke-dasharray="12" d="M2958,885.72
					c16.81,12.17,26.85,27.59,26.85,44.36c0,39.33-55.23,71.21-123.37,71.21s-123.37-31.88-123.37-71.21
					c0-18.21,11.84-34.82,31.32-47.42"/>
				<path fill="none" stroke="#012B48" stroke-width="0.5" stroke-miterlimit="10" stroke-dasharray="12" d="M2958,915.65
					c16.81,12.17,26.85,27.59,26.85,44.36c0,39.33-55.23,71.21-123.37,71.21s-123.37-31.88-123.37-71.21
					c0-18.21,11.84-34.82,31.32-47.42"/>
				<path fill="none" stroke="#012B48" stroke-width="0.5" stroke-miterlimit="10" stroke-dasharray="12" d="M2958,930.22
					c16.81,12.17,26.85,27.59,26.85,44.36c0,39.33-55.23,71.21-123.37,71.21s-123.37-31.88-123.37-71.21
					c0-18.21,11.84-34.82,31.32-47.42"/>
				<path fill="none" stroke="#012B48" stroke-width="0.5" stroke-miterlimit="10" stroke-dasharray="12" d="M2958,947.75
					c16.81,12.17,26.85,27.59,26.85,44.36c0,39.33-55.23,71.21-123.37,71.21s-123.37-31.88-123.37-71.21
					c0-18.21,11.84-34.82,31.32-47.42"/>
				<path fill="none" stroke="#012B48" stroke-width="0.5" stroke-miterlimit="10" stroke-dasharray="12" d="M2958,963.74
					c16.81,12.17,26.85,27.59,26.85,44.36c0,39.33-55.23,71.21-123.37,71.21s-123.37-31.88-123.37-71.21
					c0-18.21,11.84-34.82,31.32-47.42"/>
				<path fill="none" stroke="#012B48" stroke-width="0.5" stroke-miterlimit="10" stroke-dasharray="12" d="M2958,999.94
					c16.81,12.17,26.85,27.59,26.85,44.36c0,39.33-55.23,71.21-123.37,71.21s-123.37-31.88-123.37-71.21
					c0-18.21,11.84-34.82,31.32-47.42"/>
				<path fill="none" stroke="#012B48" stroke-width="0.5" stroke-miterlimit="10" stroke-dasharray="12" d="M2958,1018.58
					c16.81,12.17,26.85,27.59,26.85,44.36c0,39.33-55.23,71.21-123.37,71.21s-123.37-31.88-123.37-71.21
					c0-18.21,11.84-34.82,31.32-47.42"/>
				<path fill="none" stroke="#012B48" stroke-width="0.5" stroke-miterlimit="10" stroke-dasharray="12" d="M2958,1033.42
					c16.81,12.17,26.85,27.59,26.85,44.36c0,39.33-55.23,71.21-123.37,71.21s-123.37-31.88-123.37-71.21
					c0-18.21,11.84-34.82,31.32-47.42"/>
				<path fill="none" stroke="#012B48" stroke-width="0.5" stroke-miterlimit="10" stroke-dasharray="12" d="M2958,1047.37
					c16.81,12.17,26.85,27.59,26.85,44.36c0,39.33-55.23,71.21-123.37,71.21s-123.37-31.88-123.37-71.21
					c0-18.21,11.84-34.82,31.32-47.42"/>
				<path fill="none" stroke="#012B48" stroke-width="0.5" stroke-miterlimit="10" stroke-dasharray="12" d="M2958,1074.8
					c16.81,12.17,26.85,27.59,26.85,44.36c0,39.33-55.23,71.21-123.37,71.21s-123.37-31.88-123.37-71.21
					c0-18.21,11.84-34.82,31.32-47.42"/>
				<path fill="none" stroke="#012B48" stroke-width="0.5" stroke-miterlimit="10" stroke-dasharray="12" d="M2958,856.34
					c16.81,12.17,26.85,27.59,26.85,44.36c0,39.33-55.23,71.21-123.37,71.21s-123.37-31.88-123.37-71.21
					c0-18.21,11.84-34.82,31.32-47.42"/>
				<path fill="none" stroke="#012B48" stroke-width="0.5" stroke-miterlimit="10" stroke-dasharray="12" d="M2958,843.67
					c16.81,12.17,26.85,27.59,26.85,44.36c0,39.33-55.23,71.21-123.37,71.21s-123.37-31.88-123.37-71.21
					c0-18.21,11.84-34.82,31.32-47.42"/>
				<path fill="none" stroke="#012B48" stroke-width="0.5" stroke-miterlimit="10" stroke-dasharray="12" d="M2958,829.57
					c16.81,12.17,26.85,27.59,26.85,44.36c0,39.33-55.23,71.21-123.37,71.21s-123.37-31.88-123.37-71.21
					c0-18.21,11.84-34.82,31.32-47.42"/>
				<path fill="none" stroke="#012B48" stroke-width="0.5" stroke-miterlimit="10" stroke-dasharray="12" d="M2958,811.59
					c16.81,12.17,26.85,27.59,26.85,44.36c0,39.33-55.23,71.21-123.37,71.21s-123.37-31.88-123.37-71.21
					c0-18.21,11.84-34.82,31.32-47.42"/>
				<path fill="none" stroke="#012B48" stroke-width="0.5" stroke-miterlimit="10" stroke-dasharray="12" d="M2959.25,1142.9
					c16.81,12.17,26.85,27.59,26.85,44.36c0,39.33-55.23,71.21-123.37,71.21c-68.13,0-123.37-31.88-123.37-71.21
					c0-18.21,11.84-34.82,31.32-47.42"/>
				<path fill="none" stroke="#012B48" stroke-width="0.5" stroke-miterlimit="10" stroke-dasharray="12" d="M2959.25,1157.72
					c16.81,12.17,26.85,27.59,26.85,44.36c0,39.33-55.23,71.21-123.37,71.21c-68.13,0-123.37-31.88-123.37-71.21
					c0-18.21,11.84-34.82,31.32-47.42"/>
				<path fill="none" stroke="#012B48" stroke-width="0.5" stroke-miterlimit="10" stroke-dasharray="12" d="M2959.25,1180.65
					c16.81,12.17,26.85,27.59,26.85,44.36c0,39.33-55.23,71.21-123.37,71.21c-68.13,0-123.37-31.88-123.37-71.21
					c0-18.21,11.84-34.82,31.32-47.42"/>
				<path fill="none" stroke="#012B48" stroke-width="0.5" stroke-miterlimit="10" stroke-dasharray="12" d="M2959.25,1195.22
					c16.81,12.17,26.85,27.59,26.85,44.36c0,39.33-55.23,71.21-123.37,71.21c-68.13,0-123.37-31.88-123.37-71.21
					c0-18.21,11.84-34.82,31.32-47.42"/>
				<path fill="none" stroke="#012B48" stroke-width="0.5" stroke-miterlimit="10" stroke-dasharray="12" d="M2959.25,1212.75
					c16.81,12.17,26.85,27.59,26.85,44.36c0,39.33-55.23,71.21-123.37,71.21c-68.13,0-123.37-31.88-123.37-71.21
					c0-18.21,11.84-34.82,31.32-47.42"/>
				<path fill="none" stroke="#012B48" stroke-width="0.5" stroke-miterlimit="10" stroke-dasharray="12" d="M2959.25,1228.74
					c16.81,12.17,26.85,27.59,26.85,44.36c0,39.33-55.23,71.21-123.37,71.21c-68.13,0-123.37-31.88-123.37-71.21
					c0-18.21,11.84-34.82,31.32-47.42"/>
				<path fill="none" stroke="#012B48" stroke-width="0.5" stroke-miterlimit="10" stroke-dasharray="12" d="M2959.25,1263.94
					c16.81,12.17,26.85,27.59,26.85,44.36c0,39.33-55.23,71.21-123.37,71.21c-68.13,0-123.37-31.88-123.37-71.21
					c0-18.21,11.84-34.82,31.32-47.42"/>
				<path fill="none" stroke="#012B48" stroke-width="0.5" stroke-miterlimit="10" stroke-dasharray="12" d="M2959.25,1282.58
					c16.81,12.17,26.85,27.59,26.85,44.36c0,39.33-55.23,71.21-123.37,71.21c-68.13,0-123.37-31.88-123.37-71.21
					c0-18.21,11.84-34.82,31.32-47.42"/>
				<path fill="none" stroke="#012B48" stroke-width="0.5" stroke-miterlimit="10" stroke-dasharray="12" d="M2959.25,1297.42
					c16.81,12.17,26.85,27.59,26.85,44.36c0,39.33-55.23,71.21-123.37,71.21c-68.13,0-123.37-31.88-123.37-71.21
					c0-18.21,11.84-34.82,31.32-47.42"/>
				<path fill="none" stroke="#012B48" stroke-width="0.5" stroke-miterlimit="10" stroke-dasharray="12" d="M2959.25,1311.36
					c16.81,12.17,26.85,27.59,26.85,44.36c0,39.33-55.23,71.21-123.37,71.21c-68.13,0-123.37-31.88-123.37-71.21
					c0-18.21,11.84-34.82,31.32-47.42"/>
				<path fill="none" stroke="#012B48" stroke-width="0.5" stroke-miterlimit="10" stroke-dasharray="12" d="M2959.25,1128.34
					c16.81,12.17,26.85,27.59,26.85,44.36c0,39.33-55.23,71.21-123.37,71.21c-68.13,0-123.37-31.88-123.37-71.21
					c0-18.21,11.84-34.82,31.32-47.42"/>
				<path fill="none" stroke="#012B48" stroke-width="0.5" stroke-miterlimit="10" stroke-dasharray="12" d="M2959.25,1115.67
					c16.81,12.17,26.85,27.59,26.85,44.36c0,39.33-55.23,71.21-123.37,71.21c-68.13,0-123.37-31.88-123.37-71.21
					c0-18.21,11.84-34.82,31.32-47.42"/>
				<path fill="none" stroke="#012B48" stroke-width="0.5" stroke-miterlimit="10" stroke-dasharray="12" d="M2959.25,1101.57
					c16.81,12.17,26.85,27.59,26.85,44.36c0,39.33-55.23,71.21-123.37,71.21c-68.13,0-123.37-31.88-123.37-71.21
					c0-18.21,11.84-34.82,31.32-47.42"/>
				<path fill="none" stroke="#012B48" stroke-width="0.5" stroke-miterlimit="10" stroke-dasharray="12" d="M2959.25,1083.59
					c16.81,12.17,26.85,27.59,26.85,44.36c0,39.33-55.23,71.21-123.37,71.21c-68.13,0-123.37-31.88-123.37-71.21
					c0-18.21,11.84-34.82,31.32-47.42"/>
				<path fill="none" stroke="#012B48" stroke-miterlimit="10" d="M2958.7,986.58c15.65,11.94,24.94,26.81,24.94,42.94
					c0,39.33-55.23,71.21-123.37,71.21c-68.13,0-123.37-31.88-123.37-71.21c0-16.96,10.27-32.53,27.4-44.76"/>
				<path fill="none" stroke="#012B48" stroke-miterlimit="10" d="M2963.53,1068.49c14.22,11.61,22.57,25.78,22.57,41.07
					c0,39.33-55.23,71.21-123.37,71.21c-68.13,0-123.37-31.88-123.37-71.21c0-13.29,6.31-25.73,17.28-36.37"/>
				<path fill="none" stroke="#012B48" stroke-miterlimit="10" d="M2959.93,1153.43c15.96,12,25.44,27.02,25.44,43.32
					c0,39.33-55.23,71.21-123.37,71.21c-68.13,0-123.37-31.88-123.37-71.21c0-16.55,9.78-31.78,26.18-43.87"/>
				<path fill="none" stroke="#012B48" stroke-miterlimit="10" d="M2959.22,1240.59c16.22,12.06,25.88,27.2,25.88,43.65
					c0,39.33-55.23,71.21-123.37,71.21c-68.13,0-123.37-31.88-123.37-71.21c0-16.54,9.77-31.76,26.15-43.85"/>
				<path fill="none" stroke="#012B48" stroke-miterlimit="10" d="M2957.4,1329.2c17.48,12.29,27.97,28.02,27.97,45.16
					c0,39.33-55.23,71.21-123.37,71.21c-68.13,0-123.37-31.88-123.37-71.21c0-17.05,10.38-32.71,27.7-44.97"/>
				<line fill="none" stroke="#012B48" stroke-miterlimit="10" x1="2741.37" y1="853.01" x2="2741.37" y2="1409.1"/>
				<line fill="none" stroke="#012B48" stroke-miterlimit="10" x1="2980.72" y1="822.69" x2="2980.72" y2="1394.77"/>
				<line fill="none" stroke="#012B48" stroke-miterlimit="10" x1="2862.74" y1="846.59" x2="2862.74" y2="1402.68"/>
				<path fill="none" stroke="#012B48" stroke-miterlimit="10" d="M2858.51,1446.19l44.77,104.82l-0.2,23.83
					c0,0,19.43,5.08,33.21,0.33c13.79-4.75,18.85-14.58,18.85-14.58l-0.1-21.2l26.67-146.16"/>
				<path fill="none" stroke="#012B48" stroke-miterlimit="10" d="M2877.14,1445.71l37.58,96.47v18.56c0,0,8.24,2.49,19.02-1.01
					c6.28-2.04,9.22-8.71,9.22-8.71l-0.54-13.07l22.45-122.94"/>
				<path fill="none" stroke="#012B48" stroke-miterlimit="10" d="M2854.44,1445.57l-34.53,109.86l1,18.26
					c0,0-10.64,10.34-29.07,6.32c-13.98-3.05-22.65-17.18-22.65-17.18l0.4-16.79l-28.21-136.93"/>
				<path fill="none" stroke="#012B48" stroke-miterlimit="10" d="M2920.83,1343.67l-27.53,132.86l1,18.26
					c0,0-12.68,14.34-34.07,14.32c-14.31-0.02-28.65-15.18-28.65-15.18l0.4-16.79l-34.29-134.93"/>
				<path fill="none" stroke="#012B48" stroke-miterlimit="10" stroke-dasharray="12" d="M2905.87,1330.62l-26.77,135.16l0.75,17.36
					c0,0-6.35,11.38-17.17,10.66c-10.76-0.71-17.09-14.34-17.09-14.34l0.3-15.96l-32.85-134.27"/>
				<path fill="none" stroke="#012B48" stroke-miterlimit="10" stroke-dasharray="12" d="M2837.62,1445.91l-31.71,98.51l-1.13,19.4
					c0,0-4.16,4.09-11.13,2.04c-6.97-2.04-11.49-8.17-11.49-8.17l0.62-15.83l-24.68-128.06"/>
				<polyline fill="none" stroke="#012B48" stroke-miterlimit="10" points="2792.71,1173.25 2781.11,1176.22 2763.99,1171.48 
					2776.3,1168.8 				"/>
				<polyline fill="none" stroke="#012B48" stroke-miterlimit="10" points="2792.71,1184.04 2781.11,1187.02 2763.99,1182.27 
					2776.3,1179.59 				"/>
				<polyline fill="none" stroke="#012B48" stroke-miterlimit="10" points="2792.71,1194.22 2781.11,1197.2 2763.99,1192.46 
					2776.3,1189.78 				"/>
				<polyline fill="none" stroke="#012B48" stroke-miterlimit="10" points="2792.71,1204.42 2781.11,1207.4 2763.99,1202.65 
					2776.3,1199.97 				"/>
				<polyline fill="none" stroke="#012B48" stroke-miterlimit="10" points="2792.71,1213.44 2781.11,1216.41 2763.99,1211.67 
					2776.3,1208.99 				"/>
				<polyline fill="none" stroke="#012B48" stroke-miterlimit="10" points="2792.71,1224.28 2781.11,1227.26 2763.99,1222.52 
					2776.3,1219.84 				"/>
				<polyline fill="none" stroke="#012B48" stroke-miterlimit="10" points="2792.71,1235.08 2781.11,1238.05 2763.99,1233.31 
					2776.3,1230.63 				"/>
				<polyline fill="none" stroke="#012B48" stroke-miterlimit="10" points="2792.71,1245.87 2781.11,1248.84 2763.99,1244.1 
					2776.3,1241.42 				"/>
				<polyline fill="none" stroke="#012B48" stroke-miterlimit="10" points="2792.71,1256.05 2781.11,1259.03 2763.99,1254.28 
					2776.3,1251.6 				"/>
				<polyline fill="none" stroke="#012B48" stroke-miterlimit="10" points="2792.71,1266.23 2781.11,1269.21 2763.99,1264.46 
					2776.3,1261.78 				"/>
				<polyline fill="none" stroke="#012B48" stroke-miterlimit="10" points="2792.71,1275.75 2781.11,1278.73 2763.99,1273.99 
					2776.3,1271.31 				"/>
				<polyline fill="none" stroke="#012B48" stroke-miterlimit="10" points="2792.71,1285.89 2781.11,1288.87 2763.99,1284.12 
					2776.3,1281.44 				"/>
				<polyline fill="none" stroke="#012B48" stroke-miterlimit="10" points="2792.71,1296.63 2781.11,1299.61 2763.99,1294.87 
					2776.3,1292.19 				"/>
				<polyline fill="none" stroke="#012B48" stroke-miterlimit="10" points="2792.71,1307.1 2781.11,1310.08 2763.99,1305.34 
					2776.3,1302.66 				"/>
				<polyline fill="none" stroke="#012B48" stroke-miterlimit="10" points="2792.71,1317.29 2781.11,1320.27 2763.99,1315.52 
					2776.3,1312.84 				"/>
				<polyline fill="none" stroke="#012B48" stroke-miterlimit="10" points="2792.71,1327.47 2781.11,1330.45 2763.99,1325.71 
					2776.3,1323.03 				"/>
				<polyline fill="none" stroke="#012B48" stroke-miterlimit="10" points="2792.71,1337.06 2781.11,1340.04 2763.99,1335.29 
					2776.3,1332.61 				"/>
				<polyline fill="none" stroke="#012B48" stroke-miterlimit="10" points="2792.71,1347.3 2781.11,1350.27 2763.99,1345.53 
					2776.3,1342.85 				"/>
				<polyline fill="none" stroke="#012B48" stroke-miterlimit="10" points="2792.71,1357.53 2781.11,1360.51 2763.99,1355.77 
					2776.3,1353.09 				"/>
				<polyline fill="none" stroke="#012B48" stroke-miterlimit="10" points="2792.71,1368.32 2781.11,1371.3 2763.99,1366.56 
					2776.3,1363.88 				"/>
				<polyline fill="none" stroke="#012B48" stroke-miterlimit="10" points="2792.71,1379.12 2781.11,1382.09 2763.99,1377.35 
					2776.3,1374.67 				"/>
				<polyline fill="none" stroke="#012B48" stroke-miterlimit="10" points="2792.71,1389.91 2781.11,1392.89 2763.99,1388.14 
					2776.3,1385.46 				"/>
				<polyline fill="none" stroke="#012B48" stroke-miterlimit="10" points="2792.71,1400.09 2781.11,1403.07 2763.99,1398.32 
					2776.3,1395.64 				"/>
				<polyline fill="none" stroke="#012B48" stroke-miterlimit="10" points="2792.71,1410.83 2781.11,1413.81 2763.99,1409.07 
					2776.3,1406.39 				"/>
				<polyline fill="none" stroke="#012B48" stroke-miterlimit="10" points="2792.71,1421.58 2781.11,1424.55 2763.99,1419.81 
					2776.3,1417.13 				"/>
				<polyline fill="none" stroke="#012B48" stroke-miterlimit="10" points="2792.71,1431.71 2781.11,1434.69 2763.99,1429.94 
					2776.3,1427.26 				"/>
				<polyline fill="none" stroke="#012B48" stroke-miterlimit="10" points="2792.71,903.99 2781.11,906.97 2763.99,902.22 
					2776.3,899.54 				"/>
				<polyline fill="none" stroke="#012B48" stroke-miterlimit="10" points="2792.71,914.78 2781.11,917.76 2763.99,913.02 
					2776.3,910.34 				"/>
				<polyline fill="none" stroke="#012B48" stroke-miterlimit="10" points="2792.71,924.97 2781.11,927.94 2763.99,923.2 
					2776.3,920.52 				"/>
				<polyline fill="none" stroke="#012B48" stroke-miterlimit="10" points="2792.71,935.16 2781.11,938.14 2763.99,933.4 
					2776.3,930.72 				"/>
				<polyline fill="none" stroke="#012B48" stroke-miterlimit="10" points="2792.71,944.18 2781.11,947.16 2763.99,942.41 
					2776.3,939.73 				"/>
				<polyline fill="none" stroke="#012B48" stroke-miterlimit="10" points="2792.71,955.03 2781.11,958 2763.99,953.26 
					2776.3,950.58 				"/>
				<polyline fill="none" stroke="#012B48" stroke-miterlimit="10" points="2792.71,965.82 2781.11,968.8 2763.99,964.05 
					2776.3,961.37 				"/>
				<polyline fill="none" stroke="#012B48" stroke-miterlimit="10" points="2792.71,976.61 2781.11,979.59 2763.99,974.84 
					2776.3,972.16 				"/>
				<polyline fill="none" stroke="#012B48" stroke-miterlimit="10" points="2792.71,986.79 2781.11,989.77 2763.99,985.02 
					2776.3,982.35 				"/>
				<polyline fill="none" stroke="#012B48" stroke-miterlimit="10" points="2792.71,996.97 2781.11,999.95 2763.99,995.21 
					2776.3,992.53 				"/>
				<polyline fill="none" stroke="#012B48" stroke-miterlimit="10" points="2792.71,1006.5 2781.11,1009.47 2763.99,1004.73 
					2776.3,1002.05 				"/>
				<polyline fill="none" stroke="#012B48" stroke-miterlimit="10" points="2792.71,1016.63 2781.11,1019.61 2763.99,1014.86 
					2776.3,1012.18 				"/>
				<polyline fill="none" stroke="#012B48" stroke-miterlimit="10" points="2792.71,1027.37 2781.11,1030.35 2763.99,1025.61 
					2776.3,1022.93 				"/>
				<polyline fill="none" stroke="#012B48" stroke-miterlimit="10" points="2792.71,1037.85 2781.11,1040.82 2763.99,1036.08 
					2776.3,1033.4 				"/>
				<polyline fill="none" stroke="#012B48" stroke-miterlimit="10" points="2792.71,1048.03 2781.11,1051.01 2763.99,1046.26 
					2776.3,1043.59 				"/>
				<polyline fill="none" stroke="#012B48" stroke-miterlimit="10" points="2792.71,1058.21 2781.11,1061.19 2763.99,1056.45 
					2776.3,1053.77 				"/>
				<polyline fill="none" stroke="#012B48" stroke-miterlimit="10" points="2792.71,1067.8 2781.11,1070.78 2763.99,1066.03 
					2776.3,1063.36 				"/>
				<polyline fill="none" stroke="#012B48" stroke-miterlimit="10" points="2792.71,1078.04 2781.11,1081.02 2763.99,1076.27 
					2776.3,1073.59 				"/>
				<polyline fill="none" stroke="#012B48" stroke-miterlimit="10" points="2792.71,1088.27 2781.11,1091.25 2763.99,1086.51 
					2776.3,1083.83 				"/>
				<polyline fill="none" stroke="#012B48" stroke-miterlimit="10" points="2792.71,1099.07 2781.11,1102.04 2763.99,1097.3 
					2776.3,1094.62 				"/>
				<polyline fill="none" stroke="#012B48" stroke-miterlimit="10" points="2792.71,1109.86 2781.11,1112.84 2763.99,1108.09 
					2776.3,1105.41 				"/>
				<polyline fill="none" stroke="#012B48" stroke-miterlimit="10" points="2792.71,1120.65 2781.11,1123.63 2763.99,1118.88 
					2776.3,1116.2 				"/>
				<polyline fill="none" stroke="#012B48" stroke-miterlimit="10" points="2792.71,1130.83 2781.11,1133.81 2763.99,1129.06 
					2776.3,1126.39 				"/>
				<polyline fill="none" stroke="#012B48" stroke-miterlimit="10" points="2792.71,1141.57 2781.11,1144.55 2763.99,1139.81 
					2776.3,1137.13 				"/>
				<polyline fill="none" stroke="#012B48" stroke-miterlimit="10" points="2792.71,1152.32 2781.11,1155.3 2763.99,1150.55 
					2776.3,1147.87 				"/>
				<polyline fill="none" stroke="#012B48" stroke-miterlimit="10" points="2792.71,1162.45 2781.11,1165.43 2763.99,1160.69 
					2776.3,1158.01 				"/>
				<polygon fill="none" stroke="#012B48" stroke-miterlimit="10" points="2863.04,864.63 2820.92,848.19 2863.04,831.75 
					2905.16,848.19 				"/>
				<polygon fill="none" stroke="#012B48" stroke-miterlimit="10" points="2861.48,848.19 2819.36,831.75 2861.48,815.31 
					2903.6,831.75 				"/>
				
					<line fill="none" stroke="#012B48" stroke-miterlimit="10" stroke-dasharray="12" x1="2758.1" y1="1413.8" x2="2636.94" y2="735.82"/>
				
					<line id="_x2D_.elLine-_5_" fill="none" stroke="#012B48" stroke-miterlimit="10" stroke-dasharray="12" x1="2815.05" y1="1338.83" x2="2641.03" y2="381.18"/>
				
					<line id="_x2D_.elLine-_4_" fill="none" stroke="#012B48" stroke-miterlimit="10" stroke-dasharray="12" x1="2861.48" y1="836.13" x2="2861.48" y2="91.65"/>
				<circle fill="#A4CD38" cx="2863.04" cy="833.93" r="6.5"/>
				<circle fill="#A4CD38" cx="2964.87" cy="593" r="6.5"/>
				<circle fill="#A4CD38" cx="2736.9" cy="850.94" r="6.5"/>
				<circle fill="#A4CD38" cx="2739.37" cy="1037.11" r="6.5"/>
				<circle fill="#A4CD38" cx="2738.64" cy="1389.17" r="6.5"/>
				<circle fill="#A4CD38" cx="2861.04" cy="1355.45" r="6.5"/>
				<rect fill="none" width="3840" height="2160"/>
			</g>
		</g>
		<g>
			<g>
				<ellipse fill="none" stroke="#012B48" stroke-miterlimit="10" cx="3130.13" cy="986.12" rx="137.57" ry="79.41"/>
				<path fill="none" stroke="#012B48" stroke-miterlimit="10" d="M3237.97,1043.41c18.74,13.57,29.94,30.76,29.94,49.47
					c0,43.86-61.59,79.41-137.57,79.41s-137.57-35.55-137.57-79.41c0-20.31,13.2-38.83,34.93-52.87"/>
				<path fill="none" stroke="#012B48" stroke-width="0.5" stroke-miterlimit="10" stroke-dasharray="12" d="M3236.58,1013.78
					c18.74,13.57,29.94,30.76,29.94,49.47c0,43.86-61.59,79.41-137.57,79.41c-75.98,0-137.57-35.55-137.57-79.41
					c0-20.31,13.2-38.83,34.93-52.87"/>
				<path fill="none" stroke="#012B48" stroke-width="0.5" stroke-miterlimit="10" stroke-dasharray="12" d="M3236.58,1030.3
					c18.74,13.57,29.94,30.76,29.94,49.47c0,43.86-61.59,79.41-137.57,79.41c-75.98,0-137.57-35.55-137.57-79.41
					c0-20.31,13.2-38.83,34.93-52.87"/>
				<path fill="none" stroke="#012B48" stroke-width="0.5" stroke-miterlimit="10" stroke-dasharray="12" d="M3236.58,1063.68
					c18.74,13.57,29.94,30.76,29.94,49.47c0,43.86-61.59,79.41-137.57,79.41c-75.98,0-137.57-35.55-137.57-79.41
					c0-20.31,13.2-38.83,34.93-52.87"/>
				<path fill="none" stroke="#012B48" stroke-width="0.5" stroke-miterlimit="10" stroke-dasharray="12" d="M3236.58,1079.92
					c18.74,13.57,29.94,30.76,29.94,49.47c0,43.86-61.59,79.41-137.57,79.41c-75.98,0-137.57-35.55-137.57-79.41
					c0-20.31,13.2-38.83,34.93-52.87"/>
				<path fill="none" stroke="#012B48" stroke-width="0.5" stroke-miterlimit="10" stroke-dasharray="12" d="M3236.58,1099.47
					c18.74,13.57,29.94,30.76,29.94,49.47c0,43.86-61.59,79.41-137.57,79.41c-75.98,0-137.57-35.55-137.57-79.41
					c0-20.31,13.2-38.83,34.93-52.87"/>
				<path fill="none" stroke="#012B48" stroke-width="0.5" stroke-miterlimit="10" stroke-dasharray="12" d="M3236.58,1117.3
					c18.74,13.57,29.94,30.76,29.94,49.47c0,43.86-61.59,79.41-137.57,79.41c-75.98,0-137.57-35.55-137.57-79.41
					c0-20.31,13.2-38.83,34.93-52.87"/>
				<path fill="none" stroke="#012B48" stroke-width="0.5" stroke-miterlimit="10" stroke-dasharray="12" d="M3236.58,1157.67
					c18.74,13.57,29.94,30.76,29.94,49.47c0,43.86-61.59,79.41-137.57,79.41c-75.98,0-137.57-35.55-137.57-79.41
					c0-20.31,13.2-38.83,34.93-52.87"/>
				<path fill="none" stroke="#012B48" stroke-width="0.5" stroke-miterlimit="10" stroke-dasharray="12" d="M3236.58,1178.45
					c18.74,13.57,29.94,30.76,29.94,49.47c0,43.86-61.59,79.41-137.57,79.41c-75.98,0-137.57-35.55-137.57-79.41
					c0-20.31,13.2-38.83,34.93-52.87"/>
				<path fill="none" stroke="#012B48" stroke-width="0.5" stroke-miterlimit="10" stroke-dasharray="12" d="M3236.58,1195
					c18.74,13.57,29.94,30.76,29.94,49.47c0,43.86-61.59,79.41-137.57,79.41c-75.98,0-137.57-35.55-137.57-79.41
					c0-20.31,13.2-38.83,34.93-52.87"/>
				<path fill="none" stroke="#012B48" stroke-width="0.5" stroke-miterlimit="10" stroke-dasharray="12" d="M3236.58,1210.56
					c18.74,13.57,29.94,30.76,29.94,49.47c0,43.86-61.59,79.41-137.57,79.41c-75.98,0-137.57-35.55-137.57-79.41
					c0-20.31,13.2-38.83,34.93-52.87"/>
				<path fill="none" stroke="#012B48" stroke-width="0.5" stroke-miterlimit="10" stroke-dasharray="12" d="M3236.58,1241.15
					c18.74,13.57,29.94,30.76,29.94,49.47c0,43.86-61.59,79.41-137.57,79.41c-75.98,0-137.57-35.55-137.57-79.41
					c0-20.31,13.2-38.83,34.93-52.87"/>
				<path fill="none" stroke="#012B48" stroke-width="0.5" stroke-miterlimit="10" stroke-dasharray="12" d="M3236.58,997.54
					c18.74,13.57,29.94,30.76,29.94,49.47c0,43.86-61.59,79.41-137.57,79.41c-75.98,0-137.57-35.55-137.57-79.41
					c0-20.31,13.2-38.83,34.93-52.87"/>
				<path fill="none" stroke="#012B48" stroke-width="0.5" stroke-miterlimit="10" stroke-dasharray="12" d="M3236.58,983.42
					c18.74,13.57,29.94,30.76,29.94,49.47c0,43.86-61.59,79.41-137.57,79.41c-75.98,0-137.57-35.55-137.57-79.41
					c0-20.31,13.2-38.83,34.93-52.87"/>
				<path fill="none" stroke="#012B48" stroke-width="0.5" stroke-miterlimit="10" stroke-dasharray="12" d="M3236.58,967.69
					c18.74,13.57,29.94,30.76,29.94,49.47c0,43.86-61.59,79.41-137.57,79.41c-75.98,0-137.57-35.55-137.57-79.41
					c0-20.31,13.2-38.83,34.93-52.87"/>
				<path fill="none" stroke="#012B48" stroke-width="0.5" stroke-miterlimit="10" stroke-dasharray="12" d="M3236.58,947.64
					c18.74,13.57,29.94,30.76,29.94,49.47c0,43.86-61.59,79.41-137.57,79.41c-75.98,0-137.57-35.55-137.57-79.41
					c0-20.31,13.2-38.83,34.93-52.87"/>
				<path fill="none" stroke="#012B48" stroke-width="0.5" stroke-miterlimit="10" stroke-dasharray="12" d="M3237.97,1317.09
					c18.74,13.57,29.94,30.76,29.94,49.47c0,43.86-61.59,79.41-137.57,79.41s-137.57-35.55-137.57-79.41
					c0-20.31,13.2-38.83,34.93-52.87"/>
				<path fill="none" stroke="#012B48" stroke-width="0.5" stroke-miterlimit="10" stroke-dasharray="12" d="M3237.97,1333.61
					c18.74,13.57,29.94,30.76,29.94,49.47c0,43.86-61.59,79.41-137.57,79.41s-137.57-35.55-137.57-79.41
					c0-20.31,13.2-38.83,34.93-52.87"/>
				<path fill="none" stroke="#012B48" stroke-width="0.5" stroke-miterlimit="10" stroke-dasharray="12" d="M3237.97,1359.19
					c18.74,13.57,29.94,30.76,29.94,49.47c0,43.86-61.59,79.41-137.57,79.41s-137.57-35.55-137.57-79.41
					c0-20.31,13.2-38.83,34.93-52.87"/>
				<path fill="none" stroke="#012B48" stroke-width="0.5" stroke-miterlimit="10" stroke-dasharray="12" d="M3237.97,1375.43
					c18.74,13.57,29.94,30.76,29.94,49.47c0,43.86-61.59,79.41-137.57,79.41s-137.57-35.55-137.57-79.41
					c0-20.31,13.2-38.83,34.93-52.87"/>
				<path fill="none" stroke="#012B48" stroke-width="0.5" stroke-miterlimit="10" stroke-dasharray="12" d="M3237.97,1394.98
					c18.74,13.57,29.94,30.76,29.94,49.47c0,43.86-61.59,79.41-137.57,79.41s-137.57-35.55-137.57-79.41
					c0-20.31,13.2-38.83,34.93-52.87"/>
				<path fill="none" stroke="#012B48" stroke-width="0.5" stroke-miterlimit="10" stroke-dasharray="12" d="M3237.97,1412.81
					c18.74,13.57,29.94,30.76,29.94,49.47c0,43.86-61.59,79.41-137.57,79.41s-137.57-35.55-137.57-79.41
					c0-20.31,13.2-38.83,34.93-52.87"/>
				<path fill="none" stroke="#012B48" stroke-width="0.5" stroke-miterlimit="10" stroke-dasharray="12" d="M3237.97,1452.06
					c18.74,13.57,29.94,30.76,29.94,49.47c0,43.86-61.59,79.41-137.57,79.41s-137.57-35.55-137.57-79.41
					c0-20.31,13.2-38.83,34.93-52.87"/>
				<path fill="none" stroke="#012B48" stroke-width="0.5" stroke-miterlimit="10" stroke-dasharray="12" d="M3237.97,1472.84
					c18.74,13.57,29.94,30.76,29.94,49.47c0,43.86-61.59,79.41-137.57,79.41s-137.57-35.55-137.57-79.41
					c0-20.31,13.2-38.83,34.93-52.87"/>
				<path fill="none" stroke="#012B48" stroke-width="0.5" stroke-miterlimit="10" stroke-dasharray="12" d="M3237.97,1489.39
					c18.74,13.57,29.94,30.76,29.94,49.47c0,43.86-61.59,79.41-137.57,79.41s-137.57-35.55-137.57-79.41
					c0-20.31,13.2-38.83,34.93-52.87"/>
				<path fill="none" stroke="#012B48" stroke-width="0.5" stroke-miterlimit="10" stroke-dasharray="12" d="M3237.97,1504.95
					c18.74,13.57,29.94,30.76,29.94,49.47c0,43.86-61.59,79.41-137.57,79.41s-137.57-35.55-137.57-79.41
					c0-20.31,13.2-38.83,34.93-52.87"/>
				<path fill="none" stroke="#012B48" stroke-width="0.5" stroke-miterlimit="10" stroke-dasharray="12" d="M3237.97,1300.85
					c18.74,13.57,29.94,30.76,29.94,49.47c0,43.86-61.59,79.41-137.57,79.41s-137.57-35.55-137.57-79.41
					c0-20.31,13.2-38.83,34.93-52.87"/>
				<path fill="none" stroke="#012B48" stroke-width="0.5" stroke-miterlimit="10" stroke-dasharray="12" d="M3237.97,1286.73
					c18.74,13.57,29.94,30.76,29.94,49.47c0,43.86-61.59,79.41-137.57,79.41s-137.57-35.55-137.57-79.41
					c0-20.31,13.2-38.83,34.93-52.87"/>
				<path fill="none" stroke="#012B48" stroke-width="0.5" stroke-miterlimit="10" stroke-dasharray="12" d="M3237.97,1271
					c18.74,13.57,29.94,30.76,29.94,49.47c0,43.86-61.59,79.41-137.57,79.41s-137.57-35.55-137.57-79.41
					c0-20.31,13.2-38.83,34.93-52.87"/>
				<path fill="none" stroke="#012B48" stroke-width="0.5" stroke-miterlimit="10" stroke-dasharray="12" d="M3237.97,1250.95
					c18.74,13.57,29.94,30.76,29.94,49.47c0,43.86-61.59,79.41-137.57,79.41s-137.57-35.55-137.57-79.41
					c0-20.31,13.2-38.83,34.93-52.87"/>
				<path fill="none" stroke="#012B48" stroke-miterlimit="10" d="M3237.36,1142.77c17.46,13.31,27.81,29.9,27.81,47.88
					c0,43.86-61.59,79.41-137.57,79.41s-137.57-35.55-137.57-79.41c0-18.91,11.45-36.27,30.56-49.91"/>
				<path fill="none" stroke="#012B48" stroke-miterlimit="10" d="M3242.75,1234.12c15.85,12.94,25.17,28.74,25.17,45.8
					c0,43.86-61.59,79.41-137.57,79.41s-137.57-35.55-137.57-79.41c0-14.82,7.03-28.69,19.27-40.56"/>
				<path fill="none" stroke="#012B48" stroke-miterlimit="10" d="M3238.73,1328.83c17.8,13.38,28.37,30.13,28.37,48.31
					c0,43.86-61.59,79.41-137.57,79.41s-137.57-35.55-137.57-79.41c0-18.45,10.9-35.43,29.19-48.92"/>
				<path fill="none" stroke="#012B48" stroke-miterlimit="10" d="M3237.94,1426.02c18.09,13.44,28.86,30.33,28.86,48.67
					c0,43.86-61.59,79.41-137.57,79.41s-137.57-35.55-137.57-79.41c0-18.44,10.89-35.42,29.16-48.89"/>
				<path fill="none" stroke="#012B48" stroke-miterlimit="10" d="M3235.91,1524.83c19.49,13.7,31.19,31.24,31.19,50.36
					c0,43.86-61.59,79.41-137.57,79.41s-137.57-35.55-137.57-79.41c0-19.02,11.58-36.47,30.89-50.14"/>
				<line fill="none" stroke="#012B48" stroke-miterlimit="10" x1="2995.01" y1="993.83" x2="2995.01" y2="1613.93"/>
				<line fill="none" stroke="#012B48" stroke-miterlimit="10" x1="3261.91" y1="960.02" x2="3261.91" y2="1597.96"/>
				<line fill="none" stroke="#012B48" stroke-miterlimit="10" x1="3130.35" y1="986.67" x2="3130.35" y2="1606.77"/>
				<path fill="none" stroke="#012B48" stroke-miterlimit="10" d="M3125.63,1655.29l49.93,115.78l-1.34,23.23
					c0,0,22.78,7.9,38.15,2.59c15.37-5.3,21.02-14.03,21.02-14.03l-0.11-23.64l29.74-162.99"/>
				<path fill="none" stroke="#012B48" stroke-miterlimit="10" stroke-dasharray="12" d="M3146.41,1654.76l41.9,107.58v20.7
					c0,0,9.19,2.77,21.21-1.13c7-2.27,10.28-9.71,10.28-9.71l-0.6-14.58l25.03-137.1"/>
				<path fill="none" stroke="#012B48" stroke-miterlimit="10" d="M3121.09,1654.6l-38.51,122.51l1.12,20.36
					c0,0-11.87,11.53-32.42,7.05c-15.59-3.41-25.26-19.16-25.26-19.16l0.45-18.73l-31.46-152.69"/>
				<path fill="none" stroke="#012B48" stroke-miterlimit="10" stroke-dasharray="12" d="M3195.13,1540.97l-30.7,148.15l1.12,20.36
					c0,0-14.15,15.99-37.99,15.97c-15.96-0.02-31.95-16.93-31.95-16.93l0.45-18.73l-38.24-150.46"/>
				<path fill="none" stroke="#012B48" stroke-miterlimit="10" d="M3178.45,1526.42l-29.85,150.72l0.84,19.36
					c0,0-7.08,12.69-19.15,11.89c-12-0.79-19.06-15.99-19.06-15.99l0.34-17.8l-36.63-149.73"/>
				<path fill="none" stroke="#012B48" stroke-miterlimit="10" stroke-dasharray="12" d="M3102.34,1654.98l-35.36,109.85
					l-1.26,21.64c0,0-4.64,4.56-12.42,2.28s-12.82-9.11-12.82-9.11l0.69-17.65l-27.52-142.81"/>
				<polyline fill="none" stroke="#012B48" stroke-miterlimit="10" points="3052.25,1350.93 3039.32,1354.25 3020.24,1348.96 
					3033.97,1345.97 				"/>
				<polyline fill="none" stroke="#012B48" stroke-miterlimit="10" points="3052.25,1362.96 3039.32,1366.29 3020.24,1361 
					3033.97,1358.01 				"/>
				<polyline fill="none" stroke="#012B48" stroke-miterlimit="10" points="3052.25,1374.32 3039.32,1377.64 3020.24,1372.35 
					3033.97,1369.36 				"/>
				<polyline fill="none" stroke="#012B48" stroke-miterlimit="10" points="3052.25,1385.69 3039.32,1389.01 3020.24,1383.72 
					3033.97,1380.73 				"/>
				<polyline fill="none" stroke="#012B48" stroke-miterlimit="10" points="3052.25,1395.75 3039.32,1399.07 3020.24,1393.78 
					3033.97,1390.79 				"/>
				<polyline fill="none" stroke="#012B48" stroke-miterlimit="10" points="3052.25,1407.84 3039.32,1411.16 3020.24,1405.87 
					3033.97,1402.88 				"/>
				<polyline fill="none" stroke="#012B48" stroke-miterlimit="10" points="3052.25,1419.88 3039.32,1423.2 3020.24,1417.91 
					3033.97,1414.92 				"/>
				<polyline fill="none" stroke="#012B48" stroke-miterlimit="10" points="3052.25,1431.91 3039.32,1435.23 3020.24,1429.94 
					3033.97,1426.95 				"/>
				<polyline fill="none" stroke="#012B48" stroke-miterlimit="10" points="3052.25,1443.26 3039.32,1446.58 3020.24,1441.29 
					3033.97,1438.31 				"/>
				<polyline fill="none" stroke="#012B48" stroke-miterlimit="10" points="3052.25,1454.62 3039.32,1457.94 3020.24,1452.65 
					3033.97,1449.66 				"/>
				<polyline fill="none" stroke="#012B48" stroke-miterlimit="10" points="3052.25,1465.24 3039.32,1468.56 3020.24,1463.27 
					3033.97,1460.28 				"/>
				<polyline fill="none" stroke="#012B48" stroke-miterlimit="10" points="3052.25,1476.54 3039.32,1479.86 3020.24,1474.57 
					3033.97,1471.58 				"/>
				<polyline fill="none" stroke="#012B48" stroke-miterlimit="10" points="3052.25,1488.52 3039.32,1491.84 3020.24,1486.55 
					3033.97,1483.56 				"/>
				<polyline fill="none" stroke="#012B48" stroke-miterlimit="10" points="3052.25,1500.2 3039.32,1503.52 3020.24,1498.23 
					3033.97,1495.24 				"/>
				<polyline fill="none" stroke="#012B48" stroke-miterlimit="10" points="3052.25,1511.55 3039.32,1514.87 3020.24,1509.58 
					3033.97,1506.6 				"/>
				<polyline fill="none" stroke="#012B48" stroke-miterlimit="10" points="3052.25,1522.91 3039.32,1526.23 3020.24,1520.94 
					3033.97,1517.95 				"/>
				<polyline fill="none" stroke="#012B48" stroke-miterlimit="10" points="3052.25,1533.6 3039.32,1536.92 3020.24,1531.63 
					3033.97,1528.64 				"/>
				<polyline fill="none" stroke="#012B48" stroke-miterlimit="10" points="3052.25,1545.01 3039.32,1548.33 3020.24,1543.04 
					3033.97,1540.06 				"/>
				<polyline fill="none" stroke="#012B48" stroke-miterlimit="10" points="3052.25,1556.43 3039.32,1559.75 3020.24,1554.46 
					3033.97,1551.47 				"/>
				<polyline fill="none" stroke="#012B48" stroke-miterlimit="10" points="3052.25,1568.46 3039.32,1571.78 3020.24,1566.49 
					3033.97,1563.51 				"/>
				<polyline fill="none" stroke="#012B48" stroke-miterlimit="10" points="3052.25,1580.5 3039.32,1583.82 3020.24,1578.53 
					3033.97,1575.54 				"/>
				<polyline fill="none" stroke="#012B48" stroke-miterlimit="10" points="3052.25,1592.53 3039.32,1595.85 3020.24,1590.56 
					3033.97,1587.57 				"/>
				<polyline fill="none" stroke="#012B48" stroke-miterlimit="10" points="3052.25,1603.88 3039.32,1607.21 3020.24,1601.92 
					3033.97,1598.93 				"/>
				<polyline fill="none" stroke="#012B48" stroke-miterlimit="10" points="3052.25,1615.87 3039.32,1619.19 3020.24,1613.9 
					3033.97,1610.91 				"/>
				<polyline fill="none" stroke="#012B48" stroke-miterlimit="10" points="3052.25,1627.85 3039.32,1631.17 3020.24,1625.88 
					3033.97,1622.89 				"/>
				<polyline fill="none" stroke="#012B48" stroke-miterlimit="10" points="3052.25,1639.15 3039.32,1642.47 3020.24,1637.18 
					3033.97,1634.19 				"/>
				<polyline fill="none" stroke="#012B48" stroke-miterlimit="10" points="3052.25,1050.67 3039.32,1054 3020.24,1048.71 
					3033.97,1045.72 				"/>
				<polyline fill="none" stroke="#012B48" stroke-miterlimit="10" points="3052.25,1062.71 3039.32,1066.03 3020.24,1060.74 
					3033.97,1057.75 				"/>
				<polyline fill="none" stroke="#012B48" stroke-miterlimit="10" points="3052.25,1074.07 3039.32,1077.39 3020.24,1072.1 
					3033.97,1069.11 				"/>
				<polyline fill="none" stroke="#012B48" stroke-miterlimit="10" points="3052.25,1085.44 3039.32,1088.76 3020.24,1083.47 
					3033.97,1080.48 				"/>
				<polyline fill="none" stroke="#012B48" stroke-miterlimit="10" points="3052.25,1095.49 3039.32,1098.81 3020.24,1093.52 
					3033.97,1090.54 				"/>
				<polyline fill="none" stroke="#012B48" stroke-miterlimit="10" points="3052.25,1107.59 3039.32,1110.91 3020.24,1105.62 
					3033.97,1102.63 				"/>
				<polyline fill="none" stroke="#012B48" stroke-miterlimit="10" points="3052.25,1119.62 3039.32,1122.94 3020.24,1117.65 
					3033.97,1114.66 				"/>
				<polyline fill="none" stroke="#012B48" stroke-miterlimit="10" points="3052.25,1131.66 3039.32,1134.98 3020.24,1129.69 
					3033.97,1126.7 				"/>
				<polyline fill="none" stroke="#012B48" stroke-miterlimit="10" points="3052.25,1143.01 3039.32,1146.33 3020.24,1141.04 
					3033.97,1138.05 				"/>
				<polyline fill="none" stroke="#012B48" stroke-miterlimit="10" points="3052.25,1154.36 3039.32,1157.68 3020.24,1152.39 
					3033.97,1149.41 				"/>
				<polyline fill="none" stroke="#012B48" stroke-miterlimit="10" points="3052.25,1164.98 3039.32,1168.3 3020.24,1163.01 
					3033.97,1160.03 				"/>
				<polyline fill="none" stroke="#012B48" stroke-miterlimit="10" points="3052.25,1176.28 3039.32,1179.6 3020.24,1174.31 
					3033.97,1171.33 				"/>
				<polyline fill="none" stroke="#012B48" stroke-miterlimit="10" points="3052.25,1188.26 3039.32,1191.58 3020.24,1186.29 
					3033.97,1183.31 				"/>
				<polyline fill="none" stroke="#012B48" stroke-miterlimit="10" points="3052.25,1199.94 3039.32,1203.26 3020.24,1197.97 
					3033.97,1194.99 				"/>
				<polyline fill="none" stroke="#012B48" stroke-miterlimit="10" points="3052.25,1211.3 3039.32,1214.62 3020.24,1209.33 
					3033.97,1206.34 				"/>
				<polyline fill="none" stroke="#012B48" stroke-miterlimit="10" points="3052.25,1222.65 3039.32,1225.98 3020.24,1220.69 
					3033.97,1217.7 				"/>
				<polyline fill="none" stroke="#012B48" stroke-miterlimit="10" points="3052.25,1233.35 3039.32,1236.67 3020.24,1231.38 
					3033.97,1228.39 				"/>
				<polyline fill="none" stroke="#012B48" stroke-miterlimit="10" points="3052.25,1244.76 3039.32,1248.08 3020.24,1242.79 
					3033.97,1239.8 				"/>
				<polyline fill="none" stroke="#012B48" stroke-miterlimit="10" points="3052.25,1256.18 3039.32,1259.5 3020.24,1254.21 
					3033.97,1251.22 				"/>
				<polyline fill="none" stroke="#012B48" stroke-miterlimit="10" points="3052.25,1268.21 3039.32,1271.53 3020.24,1266.24 
					3033.97,1263.25 				"/>
				<polyline fill="none" stroke="#012B48" stroke-miterlimit="10" points="3052.25,1280.24 3039.32,1283.56 3020.24,1278.27 
					3033.97,1275.29 				"/>
				<polyline fill="none" stroke="#012B48" stroke-miterlimit="10" points="3052.25,1292.28 3039.32,1295.6 3020.24,1290.31 
					3033.97,1287.32 				"/>
				<polyline fill="none" stroke="#012B48" stroke-miterlimit="10" points="3052.25,1303.63 3039.32,1306.95 3020.24,1301.66 
					3033.97,1298.67 				"/>
				<polyline fill="none" stroke="#012B48" stroke-miterlimit="10" points="3052.25,1315.61 3039.32,1318.93 3020.24,1313.64 
					3033.97,1310.65 				"/>
				<polyline fill="none" stroke="#012B48" stroke-miterlimit="10" points="3052.25,1327.59 3039.32,1330.91 3020.24,1325.62 
					3033.97,1322.63 				"/>
				<polyline fill="none" stroke="#012B48" stroke-miterlimit="10" points="3052.25,1338.89 3039.32,1342.21 3020.24,1336.92 
					3033.97,1333.94 				"/>
				<polygon fill="none" stroke="#012B48" stroke-miterlimit="10" points="3130.69,1006.78 3083.72,988.45 3130.69,970.12 
					3177.66,988.45 				"/>
				<polygon fill="none" stroke="#012B48" stroke-miterlimit="10" points="3128.95,988.45 3081.98,970.12 3128.95,951.78 
					3175.92,970.12 				"/>
				
					<line fill="none" stroke="#012B48" stroke-miterlimit="10" stroke-dasharray="12" x1="3130.07" y1="971.66" x2="3130.07" y2="572.96"/>
				
					<line fill="none" stroke="#012B48" stroke-miterlimit="10" stroke-dasharray="12" x1="3261.91" y1="946.95" x2="3261.91" y2="548.25"/>
				
					<line fill="none" stroke="#012B48" stroke-miterlimit="10" stroke-dasharray="12" x1="2964.76" y1="590.87" x2="3161.47" y2="482.72"/>
				
					<line id="_x2D_.elLine-_3_" fill="none" stroke="#012B48" stroke-miterlimit="10" stroke-dasharray="12" x1="3244.23" y1="1613.93" x2="3426.04" y2="179.69"/>
				
					<line fill="none" stroke="#012B48" stroke-miterlimit="10" stroke-dasharray="12" x1="3195.56" y1="1542.15" x2="3473.87" y2="89.02"/>
				<circle fill="#A4CD38" cx="3129.57" cy="966.98" r="7.25"/>
				<circle fill="#A4CD38" cx="3369.12" cy="622.89" r="7.25"/>
				<circle fill="#A4CD38" cx="2995.01" cy="1288.5" r="7.25"/>
				<circle fill="#A4CD38" cx="3126.46" cy="1064.44" r="7.25"/>
				<rect fill="none" width="3840" height="2160"/>
			</g>
		</g>
		<g>
			<g>
				<ellipse fill="none" stroke="#012B48" stroke-miterlimit="10" cx="3424.35" cy="1159.23" rx="160.57" ry="92.69"/>
				<path fill="none" stroke="#012B48" stroke-miterlimit="10" d="M3550.22,1226.1c21.88,15.84,34.95,35.91,34.95,57.74
					c0,51.19-71.89,92.69-160.57,92.69c-88.68,0-160.57-41.5-160.57-92.69c0-23.7,15.41-45.33,40.77-61.71"/>
				<path fill="none" stroke="#012B48" stroke-width="0.5" stroke-miterlimit="10" stroke-dasharray="12" d="M3548.59,1191.52
					c21.88,15.84,34.95,35.91,34.95,57.74c0,51.19-71.89,92.69-160.57,92.69s-160.57-41.5-160.57-92.69
					c0-23.7,15.41-45.33,40.77-61.71"/>
				<path fill="none" stroke="#012B48" stroke-width="0.5" stroke-miterlimit="10" stroke-dasharray="12" d="M3548.59,1210.8
					c21.88,15.84,34.95,35.91,34.95,57.74c0,51.19-71.89,92.69-160.57,92.69s-160.57-41.5-160.57-92.69
					c0-23.7,15.41-45.33,40.77-61.71"/>
				<path fill="none" stroke="#012B48" stroke-width="0.5" stroke-miterlimit="10" stroke-dasharray="12" d="M3548.59,1249.76
					c21.88,15.84,34.95,35.91,34.95,57.74c0,51.19-71.89,92.69-160.57,92.69s-160.57-41.5-160.57-92.69
					c0-23.7,15.41-45.33,40.77-61.71"/>
				<path fill="none" stroke="#012B48" stroke-width="0.5" stroke-miterlimit="10" stroke-dasharray="12" d="M3548.59,1268.72
					c21.88,15.84,34.95,35.91,34.95,57.74c0,51.19-71.89,92.69-160.57,92.69s-160.57-41.5-160.57-92.69
					c0-23.7,15.41-45.33,40.77-61.71"/>
				<path fill="none" stroke="#012B48" stroke-width="0.5" stroke-miterlimit="10" stroke-dasharray="12" d="M3548.59,1291.53
					c21.88,15.84,34.95,35.91,34.95,57.74c0,51.19-71.89,92.69-160.57,92.69s-160.57-41.5-160.57-92.69
					c0-23.7,15.41-45.33,40.77-61.71"/>
				<path fill="none" stroke="#012B48" stroke-width="0.5" stroke-miterlimit="10" stroke-dasharray="12" d="M3548.59,1312.35
					c21.88,15.84,34.95,35.91,34.95,57.74c0,51.19-71.89,92.69-160.57,92.69s-160.57-41.5-160.57-92.69
					c0-23.7,15.41-45.33,40.77-61.71"/>
				<path fill="none" stroke="#012B48" stroke-width="0.5" stroke-miterlimit="10" stroke-dasharray="12" d="M3548.59,1359.47
					c21.88,15.84,34.95,35.91,34.95,57.74c0,51.19-71.89,92.69-160.57,92.69s-160.57-41.5-160.57-92.69
					c0-23.7,15.41-45.33,40.77-61.71"/>
				<path fill="none" stroke="#012B48" stroke-width="0.5" stroke-miterlimit="10" stroke-dasharray="12" d="M3548.59,1383.72
					c21.88,15.84,34.95,35.91,34.95,57.74c0,51.19-71.89,92.69-160.57,92.69s-160.57-41.5-160.57-92.69
					c0-23.7,15.41-45.33,40.77-61.71"/>
				<path fill="none" stroke="#012B48" stroke-width="0.5" stroke-miterlimit="10" stroke-dasharray="12" d="M3548.59,1403.04
					c21.88,15.84,34.95,35.91,34.95,57.74c0,51.19-71.89,92.69-160.57,92.69s-160.57-41.5-160.57-92.69
					c0-23.7,15.41-45.33,40.77-61.71"/>
				<path fill="none" stroke="#012B48" stroke-width="0.5" stroke-miterlimit="10" stroke-dasharray="12" d="M3548.59,1421.19
					c21.88,15.84,34.95,35.91,34.95,57.74c0,51.19-71.89,92.69-160.57,92.69s-160.57-41.5-160.57-92.69
					c0-23.7,15.41-45.33,40.77-61.71"/>
				<path fill="none" stroke="#012B48" stroke-width="0.5" stroke-miterlimit="10" stroke-dasharray="12" d="M3548.59,1456.89
					c21.88,15.84,34.95,35.91,34.95,57.74c0,51.19-71.89,92.69-160.57,92.69s-160.57-41.5-160.57-92.69
					c0-23.7,15.41-45.33,40.77-61.71"/>
				<path fill="none" stroke="#012B48" stroke-width="0.5" stroke-miterlimit="10" stroke-dasharray="12" d="M3548.59,1172.56
					c21.88,15.84,34.95,35.91,34.95,57.74c0,51.19-71.89,92.69-160.57,92.69s-160.57-41.5-160.57-92.69
					c0-23.7,15.41-45.33,40.77-61.71"/>
				<path fill="none" stroke="#012B48" stroke-width="0.5" stroke-miterlimit="10" stroke-dasharray="12" d="M3548.59,1156.08
					c21.88,15.84,34.95,35.91,34.95,57.74c0,51.19-71.89,92.69-160.57,92.69s-160.57-41.5-160.57-92.69
					c0-23.7,15.41-45.33,40.77-61.71"/>
				<path fill="none" stroke="#012B48" stroke-width="0.5" stroke-miterlimit="10" stroke-dasharray="12" d="M3548.59,1137.72
					c21.88,15.84,34.95,35.91,34.95,57.74c0,51.19-71.89,92.69-160.57,92.69s-160.57-41.5-160.57-92.69
					c0-23.7,15.41-45.33,40.77-61.71"/>
				<path fill="none" stroke="#012B48" stroke-width="0.5" stroke-miterlimit="10" stroke-dasharray="12" d="M3548.59,1114.32
					c21.88,15.84,34.95,35.91,34.95,57.74c0,51.19-71.89,92.69-160.57,92.69s-160.57-41.5-160.57-92.69
					c0-23.7,15.41-45.33,40.77-61.71"/>
				<path fill="none" stroke="#012B48" stroke-width="0.5" stroke-miterlimit="10" stroke-dasharray="12" d="M3550.22,1545.54
					c21.88,15.84,34.95,35.91,34.95,57.74c0,51.19-71.89,92.69-160.57,92.69c-88.68,0-160.57-41.5-160.57-92.69
					c0-23.7,15.41-45.33,40.77-61.71"/>
				<path fill="none" stroke="#012B48" stroke-width="0.5" stroke-miterlimit="10" stroke-dasharray="12" d="M3550.22,1564.82
					c21.88,15.84,34.95,35.91,34.95,57.74c0,51.19-71.89,92.69-160.57,92.69c-88.68,0-160.57-41.5-160.57-92.69
					c0-23.7,15.41-45.33,40.77-61.71"/>
				<path fill="none" stroke="#012B48" stroke-width="0.5" stroke-miterlimit="10" stroke-dasharray="12" d="M3550.22,1594.67
					c21.88,15.84,34.95,35.91,34.95,57.74c0,51.19-71.89,92.69-160.57,92.69c-88.68,0-160.57-41.5-160.57-92.69
					c0-23.7,15.41-45.33,40.77-61.71"/>
				<path fill="none" stroke="#012B48" stroke-width="0.5" stroke-miterlimit="10" stroke-dasharray="12" d="M3550.22,1613.62
					c21.88,15.84,34.95,35.91,34.95,57.74c0,51.19-71.89,92.69-160.57,92.69c-88.68,0-160.57-41.5-160.57-92.69
					c0-23.7,15.41-45.33,40.77-61.71"/>
				<path fill="none" stroke="#012B48" stroke-width="0.5" stroke-miterlimit="10" stroke-dasharray="12" d="M3550.22,1636.44
					c21.88,15.84,34.95,35.91,34.95,57.74c0,51.19-71.89,92.69-160.57,92.69c-88.68,0-160.57-41.5-160.57-92.69
					c0-23.7,15.41-45.33,40.77-61.71"/>
				<path fill="none" stroke="#012B48" stroke-width="0.5" stroke-miterlimit="10" stroke-dasharray="12" d="M3550.22,1657.25
					c21.88,15.84,34.95,35.91,34.95,57.74c0,51.19-71.89,92.69-160.57,92.69c-88.68,0-160.57-41.5-160.57-92.69
					c0-23.7,15.41-45.33,40.77-61.71"/>
				<path fill="none" stroke="#012B48" stroke-width="0.5" stroke-miterlimit="10" stroke-dasharray="12" d="M3550.22,1703.07
					c21.88,15.84,34.95,35.91,34.95,57.74c0,51.19-71.89,92.69-160.57,92.69c-88.68,0-160.57-41.5-160.57-92.69
					c0-23.7,15.41-45.33,40.77-61.71"/>
				<path fill="none" stroke="#012B48" stroke-width="0.5" stroke-miterlimit="10" stroke-dasharray="12" d="M3550.22,1727.33
					c21.88,15.84,34.95,35.91,34.95,57.74c0,51.19-71.89,92.69-160.57,92.69c-88.68,0-160.57-41.5-160.57-92.69
					c0-23.7,15.41-45.33,40.77-61.71"/>
				<path fill="none" stroke="#012B48" stroke-width="0.5" stroke-miterlimit="10" stroke-dasharray="12" d="M3550.22,1746.64
					c21.88,15.84,34.95,35.91,34.95,57.74c0,51.19-71.89,92.69-160.57,92.69c-88.68,0-160.57-41.5-160.57-92.69
					c0-23.7,15.41-45.33,40.77-61.71"/>
				<path fill="none" stroke="#012B48" stroke-width="0.5" stroke-miterlimit="10" stroke-dasharray="12" d="M3550.22,1764.8
					c21.88,15.84,34.95,35.91,34.95,57.74c0,51.19-71.89,92.69-160.57,92.69c-88.68,0-160.57-41.5-160.57-92.69
					c0-23.7,15.41-45.33,40.77-61.71"/>
				<path fill="none" stroke="#012B48" stroke-width="0.5" stroke-miterlimit="10" stroke-dasharray="12" d="M3550.22,1526.58
					c21.88,15.84,34.95,35.91,34.95,57.74c0,51.19-71.89,92.69-160.57,92.69c-88.68,0-160.57-41.5-160.57-92.69
					c0-23.7,15.41-45.33,40.77-61.71"/>
				<path fill="none" stroke="#012B48" stroke-width="0.5" stroke-miterlimit="10" stroke-dasharray="12" d="M3550.22,1510.1
					c21.88,15.84,34.95,35.91,34.95,57.74c0,51.19-71.89,92.69-160.57,92.69c-88.68,0-160.57-41.5-160.57-92.69
					c0-23.7,15.41-45.33,40.77-61.71"/>
				<path fill="none" stroke="#012B48" stroke-width="0.5" stroke-miterlimit="10" stroke-dasharray="12" d="M3550.22,1491.73
					c21.88,15.84,34.95,35.91,34.95,57.74c0,51.19-71.89,92.69-160.57,92.69c-88.68,0-160.57-41.5-160.57-92.69
					c0-23.7,15.41-45.33,40.77-61.71"/>
				<path fill="none" stroke="#012B48" stroke-width="0.5" stroke-miterlimit="10" stroke-dasharray="12" d="M3550.22,1468.34
					c21.88,15.84,34.95,35.91,34.95,57.74c0,51.19-71.89,92.69-160.57,92.69c-88.68,0-160.57-41.5-160.57-92.69
					c0-23.7,15.41-45.33,40.77-61.71"/>
				<path fill="none" stroke="#012B48" stroke-miterlimit="10" d="M3549.5,1342.08c20.37,15.54,32.46,34.9,32.46,55.89
					c0,51.19-71.89,92.69-160.57,92.69s-160.57-41.5-160.57-92.69c0-22.07,13.36-42.33,35.67-58.25"/>
				<path fill="none" stroke="#012B48" stroke-miterlimit="10" d="M3555.79,1448.69c18.51,15.11,29.38,33.55,29.38,53.46
					c0,51.19-71.89,92.69-160.57,92.69c-88.68,0-160.57-41.5-160.57-92.69c0-17.3,8.21-33.48,22.5-47.34"/>
				<path fill="none" stroke="#012B48" stroke-miterlimit="10" d="M3551.1,1559.23c20.77,15.62,33.12,35.17,33.12,56.38
					c0,51.19-71.89,92.69-160.57,92.69s-160.57-41.5-160.57-92.69c0-21.54,12.73-41.36,34.07-57.09"/>
				<path fill="none" stroke="#012B48" stroke-miterlimit="10" d="M3550.18,1672.68c21.11,15.69,33.69,35.4,33.69,56.81
					c0,51.19-71.89,92.69-160.57,92.69s-160.57-41.5-160.57-92.69c0-21.53,12.71-41.34,34.04-57.07"/>
				<path fill="none" stroke="#012B48" stroke-miterlimit="10" d="M3547.81,1788c22.75,15.99,36.4,36.46,36.4,58.77
					c0,51.19-71.89,92.69-160.57,92.69s-160.57-41.5-160.57-92.69c0-22.19,13.51-42.57,36.05-58.53"/>
				<line fill="none" stroke="#012B48" stroke-miterlimit="10" x1="3266.64" y1="1168.23" x2="3266.64" y2="1892"/>
				<line fill="none" stroke="#012B48" stroke-miterlimit="10" x1="3578.16" y1="1128.77" x2="3578.16" y2="1873.36"/>
				<line fill="none" stroke="#012B48" stroke-miterlimit="10" x1="3424.6" y1="1159.88" x2="3424.6" y2="1883.65"/>
				<path fill="none" stroke="#012B48" stroke-miterlimit="10" stroke-dasharray="12" d="M3419.09,1940.27l58.27,135.13l-0.26,27.11
					c0,0,25.28,9.22,43.23,3.03c17.94-6.19,24.54-16.38,24.54-16.38l-0.13-27.59l34.72-190.24"/>
				<path fill="none" stroke="#012B48" stroke-miterlimit="10" d="M3443.35,1939.66l48.91,125.56v24.16c0,0,10.72,3.24,24.75-1.32
					c8.17-2.65,12-11.33,12-11.33l-0.7-17.01l29.22-160.02"/>
				<path fill="none" stroke="#012B48" stroke-miterlimit="10" d="M3500.21,1806.84l-35.84,172.92l1.3,23.77
					c0,0-16.51,18.67-44.35,18.64c-18.63-0.02-37.29-19.76-37.29-19.76l0.52-21.86l-44.63-175.62"/>
				<path fill="none" stroke="#012B48" stroke-miterlimit="10" d="M3480.75,1789.86l-34.84,175.91l0.98,22.6
					c0,0-8.27,14.81-22.35,13.88c-14.01-0.93-22.24-18.66-22.24-18.66l0.39-20.78l-42.75-174.76"/>
				<path fill="none" stroke="#012B48" stroke-miterlimit="10" stroke-dasharray="12" d="M3391.91,1939.91l-41.28,128.22
					l-1.47,25.26c0,0-5.42,5.32-14.49,2.66s-14.96-10.63-14.96-10.63l0.81-20.6l-32.12-166.68"/>
				<polyline fill="none" stroke="#012B48" stroke-miterlimit="10" points="3333.45,1585.03 3318.36,1588.91 3296.08,1582.73 
					3312.11,1579.24 				"/>
				<polyline fill="none" stroke="#012B48" stroke-miterlimit="10" points="3333.45,1599.08 3318.36,1602.95 3296.08,1596.78 
					3312.11,1593.29 				"/>
				<polyline fill="none" stroke="#012B48" stroke-miterlimit="10" points="3333.45,1612.33 3318.36,1616.21 3296.08,1610.03 
					3312.11,1606.55 				"/>
				<polyline fill="none" stroke="#012B48" stroke-miterlimit="10" points="3333.45,1625.6 3318.36,1629.48 3296.08,1623.31 
					3312.11,1619.82 				"/>
				<polyline fill="none" stroke="#012B48" stroke-miterlimit="10" points="3333.45,1637.34 3318.36,1641.22 3296.08,1635.04 
					3312.11,1631.55 				"/>
				<polyline fill="none" stroke="#012B48" stroke-miterlimit="10" points="3333.45,1651.46 3318.36,1655.33 3296.08,1649.16 
					3312.11,1645.67 				"/>
				<polyline fill="none" stroke="#012B48" stroke-miterlimit="10" points="3333.45,1665.5 3318.36,1669.38 3296.08,1663.2 
					3312.11,1659.72 				"/>
				<polyline fill="none" stroke="#012B48" stroke-miterlimit="10" points="3333.45,1679.55 3318.36,1683.43 3296.08,1677.25 
					3312.11,1673.76 				"/>
				<polyline fill="none" stroke="#012B48" stroke-miterlimit="10" points="3333.45,1692.8 3318.36,1696.68 3296.08,1690.5 
					3312.11,1687.02 				"/>
				<polyline fill="none" stroke="#012B48" stroke-miterlimit="10" points="3333.45,1706.05 3318.36,1709.93 3296.08,1703.75 
					3312.11,1700.27 				"/>
				<polyline fill="none" stroke="#012B48" stroke-miterlimit="10" points="3333.45,1718.45 3318.36,1722.32 3296.08,1716.15 
					3312.11,1712.66 				"/>
				<polyline fill="none" stroke="#012B48" stroke-miterlimit="10" points="3333.45,1731.64 3318.36,1735.51 3296.08,1729.34 
					3312.11,1725.85 				"/>
				<polyline fill="none" stroke="#012B48" stroke-miterlimit="10" points="3333.45,1745.62 3318.36,1749.5 3296.08,1743.32 
					3312.11,1739.84 				"/>
				<polyline fill="none" stroke="#012B48" stroke-miterlimit="10" points="3333.45,1759.25 3318.36,1763.13 3296.08,1756.95 
					3312.11,1753.47 				"/>
				<polyline fill="none" stroke="#012B48" stroke-miterlimit="10" points="3333.45,1772.51 3318.36,1776.38 3296.08,1770.21 
					3312.11,1766.72 				"/>
				<polyline fill="none" stroke="#012B48" stroke-miterlimit="10" points="3333.45,1785.76 3318.36,1789.64 3296.08,1783.46 
					3312.11,1779.98 				"/>
				<polyline fill="none" stroke="#012B48" stroke-miterlimit="10" points="3333.45,1798.24 3318.36,1802.11 3296.08,1795.94 
					3312.11,1792.45 				"/>
				<polyline fill="none" stroke="#012B48" stroke-miterlimit="10" points="3333.45,1811.56 3318.36,1815.44 3296.08,1809.26 
					3312.11,1805.78 				"/>
				<polyline fill="none" stroke="#012B48" stroke-miterlimit="10" points="3333.45,1824.89 3318.36,1828.76 3296.08,1822.59 
					3312.11,1819.1 				"/>
				<polyline fill="none" stroke="#012B48" stroke-miterlimit="10" points="3333.45,1838.93 3318.36,1842.81 3296.08,1836.63 
					3312.11,1833.15 				"/>
				<polyline fill="none" stroke="#012B48" stroke-miterlimit="10" points="3333.45,1852.98 3318.36,1856.85 3296.08,1850.68 
					3312.11,1847.19 				"/>
				<polyline fill="none" stroke="#012B48" stroke-miterlimit="10" points="3333.45,1867.02 3318.36,1870.9 3296.08,1864.72 
					3312.11,1861.24 				"/>
				<polyline fill="none" stroke="#012B48" stroke-miterlimit="10" points="3333.45,1880.28 3318.36,1884.15 3296.08,1877.98 
					3312.11,1874.49 				"/>
				<polyline fill="none" stroke="#012B48" stroke-miterlimit="10" points="3333.45,1894.26 3318.36,1898.13 3296.08,1891.96 
					3312.11,1888.47 				"/>
				<polyline fill="none" stroke="#012B48" stroke-miterlimit="10" points="3333.45,1908.24 3318.36,1912.12 3296.08,1905.94 
					3312.11,1902.46 				"/>
				<polyline fill="none" stroke="#012B48" stroke-miterlimit="10" points="3333.45,1921.43 3318.36,1925.31 3296.08,1919.13 
					3312.11,1915.65 				"/>
				<polyline fill="none" stroke="#012B48" stroke-miterlimit="10" points="3333.45,1234.58 3318.36,1238.46 3296.08,1232.28 
					3312.11,1228.79 				"/>
				<polyline fill="none" stroke="#012B48" stroke-miterlimit="10" points="3333.45,1248.63 3318.36,1252.5 3296.08,1246.33 
					3312.11,1242.84 				"/>
				<polyline fill="none" stroke="#012B48" stroke-miterlimit="10" points="3333.45,1261.88 3318.36,1265.76 3296.08,1259.58 
					3312.11,1256.1 				"/>
				<polyline fill="none" stroke="#012B48" stroke-miterlimit="10" points="3333.45,1275.15 3318.36,1279.03 3296.08,1272.86 
					3312.11,1269.37 				"/>
				<polyline fill="none" stroke="#012B48" stroke-miterlimit="10" points="3333.45,1286.89 3318.36,1290.77 3296.08,1284.59 
					3312.11,1281.1 				"/>
				<polyline fill="none" stroke="#012B48" stroke-miterlimit="10" points="3333.45,1301.01 3318.36,1304.88 3296.08,1298.71 
					3312.11,1295.22 				"/>
				<polyline fill="none" stroke="#012B48" stroke-miterlimit="10" points="3333.45,1315.05 3318.36,1318.93 3296.08,1312.75 
					3312.11,1309.27 				"/>
				<polyline fill="none" stroke="#012B48" stroke-miterlimit="10" points="3333.45,1329.1 3318.36,1332.97 3296.08,1326.8 
					3312.11,1323.31 				"/>
				<polyline fill="none" stroke="#012B48" stroke-miterlimit="10" points="3333.45,1342.35 3318.36,1346.23 3296.08,1340.05 
					3312.11,1336.56 				"/>
				<polyline fill="none" stroke="#012B48" stroke-miterlimit="10" points="3333.45,1355.6 3318.36,1359.48 3296.08,1353.3 
					3312.11,1349.82 				"/>
				<polyline fill="none" stroke="#012B48" stroke-miterlimit="10" points="3333.45,1368 3318.36,1371.87 3296.08,1365.7 
					3312.11,1362.21 				"/>
				<polyline fill="none" stroke="#012B48" stroke-miterlimit="10" points="3333.45,1381.19 3318.36,1385.06 3296.08,1378.89 
					3312.11,1375.4 				"/>
				<polyline fill="none" stroke="#012B48" stroke-miterlimit="10" points="3333.45,1395.17 3318.36,1399.05 3296.08,1392.87 
					3312.11,1389.39 				"/>
				<polyline fill="none" stroke="#012B48" stroke-miterlimit="10" points="3333.45,1408.8 3318.36,1412.68 3296.08,1406.5 
					3312.11,1403.02 				"/>
				<polyline fill="none" stroke="#012B48" stroke-miterlimit="10" points="3333.45,1422.06 3318.36,1425.93 3296.08,1419.76 
					3312.11,1416.27 				"/>
				<polyline fill="none" stroke="#012B48" stroke-miterlimit="10" points="3333.45,1435.31 3318.36,1439.19 3296.08,1433.01 
					3312.11,1429.53 				"/>
				<polyline fill="none" stroke="#012B48" stroke-miterlimit="10" points="3333.45,1447.79 3318.36,1451.66 3296.08,1445.49 
					3312.11,1442 				"/>
				<polyline fill="none" stroke="#012B48" stroke-miterlimit="10" points="3333.45,1461.11 3318.36,1464.99 3296.08,1458.81 
					3312.11,1455.33 				"/>
				<polyline fill="none" stroke="#012B48" stroke-miterlimit="10" points="3333.45,1474.44 3318.36,1478.31 3296.08,1472.14 
					3312.11,1468.65 				"/>
				<polyline fill="none" stroke="#012B48" stroke-miterlimit="10" points="3333.45,1488.48 3318.36,1492.36 3296.08,1486.18 
					3312.11,1482.7 				"/>
				<polyline fill="none" stroke="#012B48" stroke-miterlimit="10" points="3333.45,1502.53 3318.36,1506.4 3296.08,1500.23 
					3312.11,1496.74 				"/>
				<polyline fill="none" stroke="#012B48" stroke-miterlimit="10" points="3333.45,1516.57 3318.36,1520.45 3296.08,1514.27 
					3312.11,1510.79 				"/>
				<polyline fill="none" stroke="#012B48" stroke-miterlimit="10" points="3333.45,1529.83 3318.36,1533.7 3296.08,1527.53 
					3312.11,1524.04 				"/>
				<polyline fill="none" stroke="#012B48" stroke-miterlimit="10" points="3333.45,1543.81 3318.36,1547.68 3296.08,1541.51 
					3312.11,1538.02 				"/>
				<polyline fill="none" stroke="#012B48" stroke-miterlimit="10" points="3333.45,1557.79 3318.36,1561.67 3296.08,1555.49 
					3312.11,1552.01 				"/>
				<polyline fill="none" stroke="#012B48" stroke-miterlimit="10" points="3333.45,1570.98 3318.36,1574.86 3296.08,1568.68 
					3312.11,1565.2 				"/>
				<polygon fill="none" stroke="#012B48" stroke-miterlimit="10" points="3424.6,1183.35 3369.78,1161.95 3424.6,1140.55 
					3479.42,1161.95 				"/>
				<polygon fill="none" stroke="#012B48" stroke-miterlimit="10" points="3422.97,1161.95 3368.15,1140.55 3422.97,1119.16 
					3477.79,1140.55 				"/>
				<path fill="none" stroke="#012B48" stroke-miterlimit="10" d="M3413.8,1939.46l-44.95,142.99l1.3,23.77
					c0,0-13.85,13.46-37.84,8.22c-18.2-3.97-29.48-22.36-29.48-22.36l-0.69-23.16L3266.64,1892"/>
				
					<line id="_x2D_.elLine-" fill="none" stroke="#012B48" stroke-miterlimit="10" stroke-dasharray="12" x1="3425.57" y1="1141.05" x2="3425.57" y2="675.7"/>
				
					<line id="_x2D_.elLine-_1_" fill="none" stroke="#012B48" stroke-miterlimit="10" stroke-dasharray="12" x1="3581.96" y1="1141.05" x2="3581.96" y2="675.7"/>
				
					<line id="_x2D_.elLine-_2_" fill="none" stroke="#012B48" stroke-miterlimit="10" stroke-dasharray="12" x1="2988.81" y1="1004" x2="2988.81" y2="538.65"/>
				<circle id="_x2D_.elCircle-_13_" fill="none" stroke="#012B48" stroke-miterlimit="10" cx="3425.57" cy="1138.74" r="42.33"/>
				<circle fill="#A4CD38" cx="3425" cy="1136.89" r="8.46"/>
				<circle fill="#A4CD38" cx="3420.34" cy="1250.83" r="8.46"/>
				<rect fill="none" width="3840" height="2160"/>
			</g>
		</g>
		<g>
			<g>
				<text transform="matrix(1 0 0 1 426.2324 349.4727)"><tspan x="0" y="0" fill="#012B48" font-family="'HelveticaNeueLTStd-Hv'" font-size="141.043px">Just send all, or a portion, </tspan><tspan x="0" y="169.25" fill="#012B48" font-family="'HelveticaNeueLTStd-Hv'" font-size="141.043px">of your rewards check</tspan></text>
				<rect fill="none" width="3840" height="2160"/>
			</g>
		</g>
		<g>
			<g>
				
					<text transform="matrix(1 0 0 1 423.9794 796.4419)" fill="#012B48" font-family="'HelveticaNeueLTStd-ThIt'" font-size="334.8035px">to your retailer</text>
				<rect fill="none" width="3840" height="2160"/>
			</g>
		</g>
	</g>
</g>
<rect fill="none" width="3840" height="2160"/>
</svg>
