<?xml version="1.0" encoding="utf-8"?>
<!-- Generator: Adobe Illustrator 24.2.1, SVG Export Plug-In . SVG Version: 6.00 Build 0)  -->
<svg version="1.1" id="endScene" xmlns="http://www.w3.org/2000/svg" xmlns:xlink="http://www.w3.org/1999/xlink" x="0px" y="0px"
	 width="3840px" height="2160px" viewBox="0 0 3840 2160" enable-background="new 0 0 3840 2160" xml:space="preserve">
<rect id="_x2D_.bgColor-" x="4" y="1.14" fill="#F2F2F2" width="3842.78" height="2162.75"/>
<g id="_x2D_.contentScene-">
	<g id="_x2D_.contForPoint-" opacity="0.3">
		<g id="_x2D_.moveElements-_2_">
			<g>
				<g>
					<rect id="_x2D_.contForPointB-_3_" x="2827.48" y="1080.2" opacity="0.33" fill="#0010B9" width="2038.6" height="1112.56"/>
					<rect id="_x2D_.contForPointB-_4_" x="-1.39" y="-45.08" opacity="0.33" fill="#0010B9" width="1941.97" height="1059.83"/>
					<rect id="_x2D_.contForPointB-_2_" x="-1028.43" y="10.67" opacity="0.33" fill="#0010B9" width="2157.7" height="1177.56"/>
					<rect id="_x2D_.contForPointB-_1_" x="1448.65" y="1560.55" opacity="0.33" fill="#0010B9" width="1867.28" height="1019.07"/>
					<rect id="_x2D_.contForPointB-_5_" x="960.2" y="-379.88" opacity="0.33" fill="#0010B9" width="1867.28" height="1019.07"/>
					<rect x="9.82" y="1.14" fill="none" width="3836.96" height="2158.11"/>
				</g>
			</g>
		</g>
	</g>
	<g id="_x2D_.moveElements-">
		<g>
			<g>
				<rect x="565.68" y="436.08" fill="none" width="2719.41" height="1464.02"/>
				<g id="endScene-text" opacity="0">
					<text transform="matrix(1 0 0 1 565.6837 467.4964)" fill="#012B48" font-family="'HelveticaNeueLTStd-Th'" font-size="44px">XtendiMax</text>
					
						<text transform="matrix(0.583 0 0 0.583 756.2017 452.8445)" opacity="0.92" fill="#012B48" font-family="'HelveticaNeueLTStd-Th'" font-size="44px">® </text>
					<text transform="matrix(1 0 0 1 783.8546 467.4964)" fill="#012B48" font-family="'HelveticaNeueLTStd-Th'" font-size="44px">Herbicide with </text>
					
						<text transform="matrix(1 0 0 1 1054.8491 467.4964)" fill="#012B48" font-family="'HelveticaNeueLTStd-Th'" font-size="44px" letter-spacing="-1">V</text>
					<text transform="matrix(1 0 0 1 1077.6855 467.4964)" fill="#012B48" font-family="'HelveticaNeueLTStd-Th'" font-size="44px">aporGrip</text>
					
						<text transform="matrix(0.583 0 0 0.583 1236.7007 452.8445)" opacity="0.92" fill="#012B48" font-family="'HelveticaNeueLTStd-Th'" font-size="44px">® </text>
					
						<text transform="matrix(1 0 0 1 1264.3535 467.4964)" fill="#012B48" font-family="'HelveticaNeueLTStd-Th'" font-size="44px" letter-spacing="-4">T</text>
					<text transform="matrix(1 0 0 1 1283.1416 467.4964)" fill="#012B48" font-family="'HelveticaNeueLTStd-Th'" font-size="44px">echnology is part of the Roundup Ready</text>
					
						<text transform="matrix(0.583 0 0 0.583 2020.9697 452.8445)" opacity="0.92" fill="#012B48" font-family="'HelveticaNeueLTStd-Th'" font-size="44px">® </text>
					<text transform="matrix(1 0 0 1 2048.6226 467.4964)" fill="#012B48" font-family="'HelveticaNeueLTStd-Th'" font-size="44px">Xtend Crop System, is a Restricted Use Pesticide and must be </text>
					<text transform="matrix(1 0 0 1 565.6837 523.4964)" fill="#012B48" font-family="'HelveticaNeueLTStd-Th'" font-size="44px">used with </text>
					
						<text transform="matrix(1 0 0 1 754.046 523.4964)" fill="#012B48" font-family="'HelveticaNeueLTStd-Th'" font-size="44px" letter-spacing="-1">V</text>
					<text transform="matrix(1 0 0 1 776.8824 523.4964)" fill="#012B48" font-family="'HelveticaNeueLTStd-Th'" font-size="44px">aporGrip</text>
					
						<text transform="matrix(0.583 0 0 0.583 935.8975 508.8445)" opacity="0.92" fill="#012B48" font-family="'HelveticaNeueLTStd-Th'" font-size="44px">® </text>
					<text transform="matrix(1 0 0 1 963.5504 523.4964)" fill="#012B48" font-family="'HelveticaNeueLTStd-Th'" font-size="44px">Xtra Agent (or an approved equivalent vapo</text>
					
						<text transform="matrix(1 0 0 1 1751.8896 523.4964)" fill="#012B48" font-family="'HelveticaNeueLTStd-Th'" font-size="44px" letter-spacing="-2">r</text>
					<text transform="matrix(1 0 0 1 1761.7021 523.4964)" fill="#012B48" font-family="'HelveticaNeueLTStd-Th'" font-size="44px">-reducing agent). For approved tankmix products (including VRAs and DRAs), </text>
					<text transform="matrix(1 0 0 1 565.6837 579.4964)" fill="#012B48" font-family="'HelveticaNeueLTStd-Th'" font-size="44px">nozzles and other important label information, visit ww</text>
					
						<text transform="matrix(1 0 0 1 1543.353 579.4964)" fill="#012B48" font-family="'HelveticaNeueLTStd-Th'" font-size="44px" letter-spacing="-2">w</text>
					<text transform="matrix(1 0 0 1 1571.9092 579.4964)" fill="#012B48" font-family="'HelveticaNeueLTStd-Th'" font-size="44px">.XtendiMaxApplicationRequirements.com. </text>
					<text transform="matrix(1 0 0 1 565.6837 691.4964)" fill="#012B48" font-family="'HelveticaNeueLTStd-Bd'" font-size="44px">A</text>
					
						<text transform="matrix(1 0 0 1 595.8233 691.4964)" fill="#012B48" font-family="'HelveticaNeueLTStd-Bd'" font-size="44px" letter-spacing="-2">L</text>
					<text transform="matrix(1 0 0 1 619.4952 691.4964)" fill="#012B48" font-family="'HelveticaNeueLTStd-Bd'" font-size="44px">W</text>
					
						<text transform="matrix(1 0 0 1 660.2383 691.4964)" fill="#012B48" font-family="'HelveticaNeueLTStd-Bd'" font-size="44px" letter-spacing="-3">A</text>
					<text transform="matrix(1 0 0 1 687.1231 691.4964)" fill="#012B48" font-family="'HelveticaNeueLTStd-Bd'" font-size="44px">YS READ AND FOLLOW PESTICIDE LABEL DIRECTIONS. </text>
					<text transform="matrix(1 0 0 1 1898.0352 691.4964)" fill="#012B48" font-family="'HelveticaNeueLTStd-Th'" font-size="44px">Roundup </text>
					
						<text transform="matrix(1 0 0 1 2079.0498 691.4964)" fill="#012B48" font-family="'HelveticaNeueLTStd-Th'" font-size="44px" letter-spacing="-4">T</text>
					<text transform="matrix(1 0 0 1 2097.8379 691.4964)" fill="#012B48" font-family="'HelveticaNeueLTStd-Th'" font-size="44px">echnology</text>
					
						<text transform="matrix(0.583 0 0 0.583 2286.9902 676.8445)" opacity="0.92" fill="#012B48" font-family="'HelveticaNeueLTStd-Th'" font-size="44px">® </text>
					<text transform="matrix(1 0 0 1 2314.6426 691.4964)" fill="#012B48" font-family="'HelveticaNeueLTStd-Th'" font-size="44px">includes glyphosate-based </text>
					<text transform="matrix(1 0 0 1 565.6837 747.4964)" fill="#012B48" font-family="'HelveticaNeueLTStd-Th'" font-size="44px">herbicide technologies. </text>
					<text transform="matrix(1 0 0 1 565.6837 859.4964)" fill="#012B48" font-family="'HelveticaNeueLTStd-Th'" font-size="44px">Aeris</text>
					
						<text transform="matrix(0.583 0 0 0.583 655.3985 844.8445)" opacity="0.92" fill="#012B48" font-family="'HelveticaNeueLTStd-Th'" font-size="44px">®</text>
					<text transform="matrix(1 0 0 1 675.92 859.4964)" fill="#012B48" font-family="'HelveticaNeueLTStd-Th'" font-size="44px">, Balance</text>
					
						<text transform="matrix(0.583 0 0 0.583 848.0035 844.8445)" opacity="0.92" fill="#012B48" font-family="'HelveticaNeueLTStd-Th'" font-size="44px">® </text>
					<text transform="matrix(1 0 0 1 875.6563 859.4964)" fill="#012B48" font-family="'HelveticaNeueLTStd-Th'" font-size="44px">Flexx, Baythroid</text>
					
						<text transform="matrix(0.583 0 0 0.583 1163.2358 844.8445)" opacity="0.92" fill="#012B48" font-family="'HelveticaNeueLTStd-Th'" font-size="44px">®</text>
					<text transform="matrix(1 0 0 1 1183.7573 859.4964)" fill="#012B48" font-family="'HelveticaNeueLTStd-Th'" font-size="44px"> XL, Co</text>
					<text transform="matrix(1 0 0 1 1321.52 859.4964)" fill="#012B48" font-family="'HelveticaNeueLTStd-Th'" font-size="44px">r</text>
					<text transform="matrix(1 0 0 1 1334.5435 859.4964)" fill="#012B48" font-family="'HelveticaNeueLTStd-Th'" font-size="44px">vus</text>
					
						<text transform="matrix(0.583 0 0 0.583 1398.0781 844.8445)" opacity="0.92" fill="#012B48" font-family="'HelveticaNeueLTStd-Th'" font-size="44px">®</text>
					<text transform="matrix(1 0 0 1 1418.5996 859.4964)" fill="#012B48" font-family="'HelveticaNeueLTStd-Th'" font-size="44px">, Degree Xtra</text>
					
						<text transform="matrix(0.583 0 0 0.583 1659.1016 844.8445)" opacity="0.92" fill="#012B48" font-family="'HelveticaNeueLTStd-Th'" font-size="44px">®</text>
					<text transform="matrix(1 0 0 1 1679.623 859.4964)" fill="#012B48" font-family="'HelveticaNeueLTStd-Th'" font-size="44px">, Harness</text>
					
						<text transform="matrix(0.583 0 0 0.583 1855.7979 844.8445)" opacity="0.92" fill="#012B48" font-family="'HelveticaNeueLTStd-Th'" font-size="44px">® </text>
					<text transform="matrix(1 0 0 1 1883.4507 859.4964)" fill="#012B48" font-family="'HelveticaNeueLTStd-Th'" font-size="44px">Xtra, Huskie</text>
					
						<text transform="matrix(0.583 0 0 0.583 2102.0854 844.8445)" opacity="0.92" fill="#012B48" font-family="'HelveticaNeueLTStd-Th'" font-size="44px">® </text>
					<text transform="matrix(1 0 0 1 2129.7373 859.4964)" fill="#012B48" font-family="'HelveticaNeueLTStd-Th'" font-size="44px">Complete, Huskie</text>
					
						<text transform="matrix(0.583 0 0 0.583 2456.8301 844.8445)" opacity="0.92" fill="#012B48" font-family="'HelveticaNeueLTStd-Th'" font-size="44px">® </text>
					<text transform="matrix(1 0 0 1 2484.4824 859.4964)" fill="#012B48" font-family="'HelveticaNeueLTStd-Th'" font-size="44px">FX, Leverage</text>
					
						<text transform="matrix(0.583 0 0 0.583 2723.9287 844.8445)" opacity="0.92" fill="#012B48" font-family="'HelveticaNeueLTStd-Th'" font-size="44px">® </text>
					<text transform="matrix(1 0 0 1 2751.5811 859.4964)" fill="#012B48" font-family="'HelveticaNeueLTStd-Th'" font-size="44px">360, Scoparia</text>
					
						<text transform="matrix(0.583 0 0 0.583 3011.708 844.8445)" fill="#012B48" font-family="'HelveticaNeueLTStd-Th'" font-size="44px">™</text>
					<text transform="matrix(1 0 0 1 3037.1035 859.4964)" fill="#012B48" font-family="'HelveticaNeueLTStd-Th'" font-size="44px"> and </text>
					<text transform="matrix(1 0 0 1 565.6837 915.4964)" fill="#012B48" font-family="'HelveticaNeueLTStd-Th'" font-size="44px">XtendiMax</text>
					
						<text transform="matrix(0.583 0 0 0.583 756.2017 900.8445)" opacity="0.92" fill="#012B48" font-family="'HelveticaNeueLTStd-Th'" font-size="44px">® </text>
					<text transform="matrix(1 0 0 1 783.8546 915.4964)" fill="#012B48" font-family="'HelveticaNeueLTStd-Th'" font-size="44px">are Restricted Use Pesticides. Not all products are registered in all states and may be subject to use restrictions. The distribution, sale or </text>
					<text transform="matrix(1 0 0 1 565.6837 971.4964)" fill="#012B48" font-family="'HelveticaNeueLTStd-Th'" font-size="44px">use of an unregistered pesticide is a violation of federal and/or state law and is strictly prohibited. Check with your local dealer or representative for </text>
					<text transform="matrix(1 0 0 1 565.6837 1027.4963)" fill="#012B48" font-family="'HelveticaNeueLTStd-Th'" font-size="44px">the product registration status in your state. </text>
					
						<text transform="matrix(1 0 0 1 1367.7935 1027.4963)" fill="#012B48" font-family="'HelveticaNeueLTStd-Th'" font-size="44px" letter-spacing="-4">T</text>
					
						<text transform="matrix(1 0 0 1 1386.5815 1027.4963)" fill="#012B48" font-family="'HelveticaNeueLTStd-Th'" font-size="44px">ank mixtures: The applicable labeling for each product must be in the possession of the user at the time </text>
					<text transform="matrix(1 0 0 1 565.6837 1083.4963)" fill="#012B48" font-family="'HelveticaNeueLTStd-Th'" font-size="44px">of application. Follow applicable use instructions, including application rates, precautions and restrictions of each product used in the tank mixture. </text>
					<text transform="matrix(1 0 0 1 565.6837 1139.4963)" fill="#012B48" font-family="'HelveticaNeueLTStd-Th'" font-size="44px">Not all tankmix product formulations have been tested for compatibility or performance other than specifically listed by brand name. Always </text>
					<text transform="matrix(1 0 0 1 565.6837 1195.4963)" fill="#012B48" font-family="'HelveticaNeueLTStd-Th'" font-size="44px">predetermine the compatibility of tank mixtures by mixing small proportional quantities in advance. Degree</text>
					
						<text transform="matrix(0.583 0 0 0.583 2485.165 1180.8445)" opacity="0.92" fill="#012B48" font-family="'HelveticaNeueLTStd-Th'" font-size="44px">®</text>
					
						<text transform="matrix(1 0 0 1 2505.6865 1195.4963)" fill="#012B48" font-family="'HelveticaNeueLTStd-Th'" font-size="44px"> is a registered trademark of Monsanto </text>
					
						<text transform="matrix(1 0 0 1 565.6837 1251.4963)" fill="#012B48" font-family="'HelveticaNeueLTStd-Th'" font-size="44px" letter-spacing="-4">T</text>
					<text transform="matrix(1 0 0 1 584.4717 1251.4963)" fill="#012B48" font-family="'HelveticaNeueLTStd-Th'" font-size="44px">echnology LLC. Fierce</text>
					
						<text transform="matrix(0.583 0 0 0.583 996.044 1236.8445)" opacity="0.92" fill="#012B48" font-family="'HelveticaNeueLTStd-Th'" font-size="44px">®</text>
					
						<text transform="matrix(1 0 0 1 1016.5655 1251.4963)" fill="#012B48" font-family="'HelveticaNeueLTStd-Th'" font-size="44px">, Mauler</text>
					
						<text transform="matrix(0.583 0 0 0.583 1163.9209 1236.8445)" opacity="0.92" fill="#012B48" font-family="'HelveticaNeueLTStd-Th'" font-size="44px">®</text>
					
						<text transform="matrix(1 0 0 1 1184.4424 1251.4963)" fill="#012B48" font-family="'HelveticaNeueLTStd-Th'" font-size="44px">, Select Max</text>
					
						<text transform="matrix(0.583 0 0 0.583 1413.2842 1236.8445)" opacity="0.92" fill="#012B48" font-family="'HelveticaNeueLTStd-Th'" font-size="44px">® </text>
					<text transform="matrix(1 0 0 1 1440.937 1251.4963)" fill="#012B48" font-family="'HelveticaNeueLTStd-Th'" font-size="44px">Herbicide with Inside </text>
					
						<text transform="matrix(1 0 0 1 1830.335 1251.4963)" fill="#012B48" font-family="'HelveticaNeueLTStd-Th'" font-size="44px" letter-spacing="-4">T</text>
					<text transform="matrix(1 0 0 1 1849.123 1251.4963)" fill="#012B48" font-family="'HelveticaNeueLTStd-Th'" font-size="44px">echnolog</text>
					
						<text transform="matrix(1 0 0 1 2018.7412 1251.4963)" fill="#012B48" font-family="'HelveticaNeueLTStd-Th'" font-size="44px" letter-spacing="-3">y</text>
					<text transform="matrix(1 0 0 1 2035.021 1251.4963)" fill="#012B48" font-family="'HelveticaNeueLTStd-Th'" font-size="44px">,™ and </text>
					
						<text transform="matrix(1 0 0 1 2184.5762 1251.4963)" fill="#012B48" font-family="'HelveticaNeueLTStd-Th'" font-size="44px" letter-spacing="-1">V</text>
					
						<text transform="matrix(1 0 0 1 2207.4131 1251.4963)" fill="#012B48" font-family="'HelveticaNeueLTStd-Th'" font-size="44px">alor</text>
					
						<text transform="matrix(0.583 0 0 0.583 2272.6641 1236.8445)" opacity="0.92" fill="#012B48" font-family="'HelveticaNeueLTStd-Th'" font-size="44px">® </text>
					
						<text transform="matrix(1 0 0 1 2300.3164 1251.4963)" fill="#012B48" font-family="'HelveticaNeueLTStd-Th'" font-size="44px">are trademarks of </text>
					
						<text transform="matrix(1 0 0 1 2632.0322 1251.4963)" fill="#012B48" font-family="'HelveticaNeueLTStd-Th'" font-size="44px" letter-spacing="-1">V</text>
					
						<text transform="matrix(1 0 0 1 2654.8682 1251.4963)" fill="#012B48" font-family="'HelveticaNeueLTStd-Th'" font-size="44px">alent U.S.A. LLC. Select Max</text>
					
						<text transform="matrix(0.583 0 0 0.583 3189.6865 1236.8445)" opacity="0.92" fill="#012B48" font-family="'HelveticaNeueLTStd-Th'" font-size="44px">® </text>
					<text transform="matrix(1 0 0 1 565.6837 1307.4963)" fill="#012B48" font-family="'HelveticaNeueLTStd-Th'" font-size="44px">Herbicide with Inside </text>
					
						<text transform="matrix(1 0 0 1 955.0816 1307.4963)" fill="#012B48" font-family="'HelveticaNeueLTStd-Th'" font-size="44px" letter-spacing="-4">T</text>
					<text transform="matrix(1 0 0 1 973.8697 1307.4963)" fill="#012B48" font-family="'HelveticaNeueLTStd-Th'" font-size="44px">echnology</text>
					
						<text transform="matrix(0.583 0 0 0.583 1163.0229 1292.8445)" fill="#012B48" font-family="'HelveticaNeueLTStd-Th'" font-size="44px">™</text>
					<text transform="matrix(1 0 0 1 1188.418 1307.4963)" fill="#012B48" font-family="'HelveticaNeueLTStd-Th'" font-size="44px"> </text>
					<text transform="matrix(1 0 0 1 565.6837 1363.4963)" fill="#012B48" font-family="'HelveticaNeueLTStd-Th'" font-size="44px">is covered under U.S. Patent No. 7,651,977. Absolute</text>
					
						<text transform="matrix(0.583 0 0 0.583 1565.0898 1348.8445)" opacity="0.92" fill="#012B48" font-family="'HelveticaNeueLTStd-Th'" font-size="44px">®</text>
					
						<text transform="matrix(1 0 0 1 1585.6113 1363.4963)" fill="#012B48" font-family="'HelveticaNeueLTStd-Th'" font-size="44px">, Aeris</text>
					
						<text transform="matrix(0.583 0 0 0.583 1699.79 1348.8445)" opacity="0.92" fill="#012B48" font-family="'HelveticaNeueLTStd-Th'" font-size="44px">®</text>
					
						<text transform="matrix(1 0 0 1 1720.3115 1363.4963)" fill="#012B48" font-family="'HelveticaNeueLTStd-Th'" font-size="44px">, Asgrow</text>
					
						<text transform="matrix(0.583 0 0 0.583 1882.4927 1348.8445)" opacity="0.92" fill="#012B48" font-family="'HelveticaNeueLTStd-Th'" font-size="44px">®</text>
					
						<text transform="matrix(1 0 0 1 1903.0142 1363.4963)" fill="#012B48" font-family="'HelveticaNeueLTStd-Th'" font-size="44px">, Autumn</text>
					
						<text transform="matrix(0.583 0 0 0.583 2068.4961 1348.8445)" fill="#012B48" font-family="'HelveticaNeueLTStd-Th'" font-size="44px">™</text>
					
						<text transform="matrix(1 0 0 1 2093.8911 1363.4963)" fill="#012B48" font-family="'HelveticaNeueLTStd-Th'" font-size="44px">, Axiom</text>
					
						<text transform="matrix(0.583 0 0 0.583 2230.0244 1348.8445)" opacity="0.92" fill="#012B48" font-family="'HelveticaNeueLTStd-Th'" font-size="44px">®</text>
					
						<text transform="matrix(1 0 0 1 2250.5459 1363.4963)" fill="#012B48" font-family="'HelveticaNeueLTStd-Th'" font-size="44px">, Balance</text>
					
						<text transform="matrix(0.583 0 0 0.583 2422.6299 1348.8445)" opacity="0.92" fill="#012B48" font-family="'HelveticaNeueLTStd-Th'" font-size="44px">®</text>
					
						<text transform="matrix(1 0 0 1 2443.1514 1363.4963)" fill="#012B48" font-family="'HelveticaNeueLTStd-Th'" font-size="44px">, Baye</text>
					
						<text transform="matrix(1 0 0 1 2559.707 1363.4963)" fill="#012B48" font-family="'HelveticaNeueLTStd-Th'" font-size="44px" letter-spacing="-3">r</text>
					
						<text transform="matrix(1 0 0 1 2568.6836 1363.4963)" fill="#012B48" font-family="'HelveticaNeueLTStd-Th'" font-size="44px">, Bayer Cross, Baythroid</text>
					
						<text transform="matrix(0.583 0 0 0.583 3014.5322 1348.8445)" opacity="0.92" fill="#012B48" font-family="'HelveticaNeueLTStd-Th'" font-size="44px">®</text>
					
						<text transform="matrix(1 0 0 1 3035.0537 1363.4963)" fill="#012B48" font-family="'HelveticaNeueLTStd-Th'" font-size="44px">, Capreno</text>
					
						<text transform="matrix(0.583 0 0 0.583 3218.4893 1348.8445)" opacity="0.92" fill="#012B48" font-family="'HelveticaNeueLTStd-Th'" font-size="44px">®</text>
					
						<text transform="matrix(1 0 0 1 3239.0107 1363.4963)" fill="#012B48" font-family="'HelveticaNeueLTStd-Th'" font-size="44px">, </text>
					<text transform="matrix(1 0 0 1 565.6837 1419.4958)" fill="#012B48" font-family="'HelveticaNeueLTStd-Th'" font-size="44px">Co</text>
					<text transform="matrix(1 0 0 1 620.2867 1419.4958)" fill="#012B48" font-family="'HelveticaNeueLTStd-Th'" font-size="44px">r</text>
					<text transform="matrix(1 0 0 1 633.3101 1419.4958)" fill="#012B48" font-family="'HelveticaNeueLTStd-Th'" font-size="44px">vus</text>
					
						<text transform="matrix(0.583 0 0 0.583 696.8448 1404.8445)" opacity="0.92" fill="#012B48" font-family="'HelveticaNeueLTStd-Th'" font-size="44px">®</text>
					<text transform="matrix(1 0 0 1 717.3663 1419.4958)" fill="#012B48" font-family="'HelveticaNeueLTStd-Th'" font-size="44px">, Degree Xtra</text>
					
						<text transform="matrix(0.583 0 0 0.583 957.8682 1404.8445)" opacity="0.92" fill="#012B48" font-family="'HelveticaNeueLTStd-Th'" font-size="44px">®</text>
					<text transform="matrix(1 0 0 1 978.3897 1419.4958)" fill="#012B48" font-family="'HelveticaNeueLTStd-Th'" font-size="44px">, DEKALB</text>
					
						<text transform="matrix(0.583 0 0 0.583 1159.6235 1404.8445)" opacity="0.92" fill="#012B48" font-family="'HelveticaNeueLTStd-Th'" font-size="44px">®</text>
					<text transform="matrix(1 0 0 1 1180.145 1419.4958)" fill="#012B48" font-family="'HelveticaNeueLTStd-Th'" font-size="44px">, Delaro</text>
					
						<text transform="matrix(0.583 0 0 0.583 1322.0439 1404.8445)" opacity="0.92" fill="#012B48" font-family="'HelveticaNeueLTStd-Th'" font-size="44px">®</text>
					
						<text transform="matrix(1 0 0 1 1342.5654 1419.4958)" fill="#012B48" font-family="'HelveticaNeueLTStd-Th'" font-size="44px">, Deltapine</text>
					
						<text transform="matrix(0.583 0 0 0.583 1537.5283 1404.8445)" opacity="0.92" fill="#012B48" font-family="'HelveticaNeueLTStd-Th'" font-size="44px">®</text>
					
						<text transform="matrix(1 0 0 1 1558.0498 1419.4958)" fill="#012B48" font-family="'HelveticaNeueLTStd-Th'" font-size="44px">, DiFlexx</text>
					
						<text transform="matrix(0.583 0 0 0.583 1711.1675 1404.8445)" opacity="0.92" fill="#012B48" font-family="'HelveticaNeueLTStd-Th'" font-size="44px">®</text>
					<text transform="matrix(1 0 0 1 1731.689 1419.4958)" fill="#012B48" font-family="'HelveticaNeueLTStd-Th'" font-size="44px">, EverGol</text>
					
						<text transform="matrix(0.583 0 0 0.583 1899.0195 1404.8445)" opacity="0.92" fill="#012B48" font-family="'HelveticaNeueLTStd-Th'" font-size="44px">®</text>
					<text transform="matrix(1 0 0 1 1919.541 1419.4958)" fill="#012B48" font-family="'HelveticaNeueLTStd-Th'" font-size="44px">, Finish</text>
					
						<text transform="matrix(0.583 0 0 0.583 2048.2402 1404.8445)" opacity="0.92" fill="#012B48" font-family="'HelveticaNeueLTStd-Th'" font-size="44px">®</text>
					
						<text transform="matrix(1 0 0 1 2068.7617 1419.4958)" fill="#012B48" font-family="'HelveticaNeueLTStd-Th'" font-size="44px">, Gaucho</text>
					
						<text transform="matrix(0.583 0 0 0.583 2239.9639 1404.8445)" opacity="0.92" fill="#012B48" font-family="'HelveticaNeueLTStd-Th'" font-size="44px">®</text>
					
						<text transform="matrix(1 0 0 1 2260.4854 1419.4958)" fill="#012B48" font-family="'HelveticaNeueLTStd-Th'" font-size="44px">, Ginstar</text>
					
						<text transform="matrix(0.583 0 0 0.583 2414.5723 1404.8445)" opacity="0.92" fill="#012B48" font-family="'HelveticaNeueLTStd-Th'" font-size="44px">®</text>
					
						<text transform="matrix(1 0 0 1 2435.0938 1419.4958)" fill="#012B48" font-family="'HelveticaNeueLTStd-Th'" font-size="44px">, Harness</text>
					
						<text transform="matrix(0.583 0 0 0.583 2611.2686 1404.8445)" opacity="0.92" fill="#012B48" font-family="'HelveticaNeueLTStd-Th'" font-size="44px">®</text>
					<text transform="matrix(1 0 0 1 2631.79 1419.4958)" fill="#012B48" font-family="'HelveticaNeueLTStd-Th'" font-size="44px">, Huskie</text>
					
						<text transform="matrix(0.583 0 0 0.583 2780.333 1404.8445)" opacity="0.92" fill="#012B48" font-family="'HelveticaNeueLTStd-Th'" font-size="44px">®</text>
					
						<text transform="matrix(1 0 0 1 2800.8545 1419.4958)" fill="#012B48" font-family="'HelveticaNeueLTStd-Th'" font-size="44px">, Laudis</text>
					
						<text transform="matrix(0.583 0 0 0.583 2945.1738 1404.8445)" opacity="0.92" fill="#012B48" font-family="'HelveticaNeueLTStd-Th'" font-size="44px">®</text>
					
						<text transform="matrix(1 0 0 1 2965.6953 1419.4958)" fill="#012B48" font-family="'HelveticaNeueLTStd-Th'" font-size="44px">, Leverage</text>
					
						<text transform="matrix(0.583 0 0 0.583 3158.0635 1404.8445)" opacity="0.92" fill="#012B48" font-family="'HelveticaNeueLTStd-Th'" font-size="44px">®</text>
					<text transform="matrix(1 0 0 1 3178.585 1419.4958)" fill="#012B48" font-family="'HelveticaNeueLTStd-Th'" font-size="44px">, </text>
					<text transform="matrix(1 0 0 1 565.6837 1475.4958)" fill="#012B48" font-family="'HelveticaNeueLTStd-Th'" font-size="44px">Luxxur</text>
					
						<text transform="matrix(0.583 0 0 0.583 684.6578 1460.8445)" opacity="0.92" fill="#012B48" font-family="'HelveticaNeueLTStd-Th'" font-size="44px">®</text>
					<text transform="matrix(1 0 0 1 705.1793 1475.4958)" fill="#012B48" font-family="'HelveticaNeueLTStd-Th'" font-size="44px">, Nortron</text>
					
						<text transform="matrix(0.583 0 0 0.583 865.4249 1460.8445)" opacity="0.92" fill="#012B48" font-family="'HelveticaNeueLTStd-Th'" font-size="44px">®</text>
					<text transform="matrix(1 0 0 1 885.9464 1475.4958)" fill="#012B48" font-family="'HelveticaNeueLTStd-Th'" font-size="44px">, Oberon</text>
					
						<text transform="matrix(0.583 0 0 0.583 1049.0093 1460.8445)" opacity="0.92" fill="#012B48" font-family="'HelveticaNeueLTStd-Th'" font-size="44px">®</text>
					
						<text transform="matrix(1 0 0 1 1069.5308 1475.4958)" fill="#012B48" font-family="'HelveticaNeueLTStd-Th'" font-size="44px">, Olympus</text>
					
						<text transform="matrix(0.583 0 0 0.583 1257.0127 1460.8445)" opacity="0.92" fill="#012B48" font-family="'HelveticaNeueLTStd-Th'" font-size="44px">®</text>
					
						<text transform="matrix(1 0 0 1 1277.5342 1475.4958)" fill="#012B48" font-family="'HelveticaNeueLTStd-Th'" font-size="44px">, Osprey</text>
					
						<text transform="matrix(0.583 0 0 0.583 1434.8325 1460.8445)" opacity="0.92" fill="#012B48" font-family="'HelveticaNeueLTStd-Th'" font-size="44px">®</text>
					<text transform="matrix(1 0 0 1 1455.354 1475.4958)" fill="#012B48" font-family="'HelveticaNeueLTStd-Th'" font-size="44px">, Proline</text>
					
						<text transform="matrix(0.583 0 0 0.583 1602.1367 1460.8445)" opacity="0.92" fill="#012B48" font-family="'HelveticaNeueLTStd-Th'" font-size="44px">®</text>
					
						<text transform="matrix(1 0 0 1 1622.6582 1475.4958)" fill="#012B48" font-family="'HelveticaNeueLTStd-Th'" font-size="44px">, Propulse</text>
					
						<text transform="matrix(0.583 0 0 0.583 1807.6763 1460.8445)" opacity="0.92" fill="#012B48" font-family="'HelveticaNeueLTStd-Th'" font-size="44px">®</text>
					
						<text transform="matrix(1 0 0 1 1828.1978 1475.4958)" fill="#012B48" font-family="'HelveticaNeueLTStd-Th'" font-size="44px">, Prosaro</text>
					
						<text transform="matrix(0.583 0 0 0.583 1993.5474 1460.8445)" opacity="0.92" fill="#012B48" font-family="'HelveticaNeueLTStd-Th'" font-size="44px">®</text>
					
						<text transform="matrix(1 0 0 1 2014.0688 1475.4958)" fill="#012B48" font-family="'HelveticaNeueLTStd-Th'" font-size="44px">, Provost</text>
					
						<text transform="matrix(0.583 0 0 0.583 2176.1162 1460.8445)" opacity="0.92" fill="#012B48" font-family="'HelveticaNeueLTStd-Th'" font-size="44px">®</text>
					
						<text transform="matrix(1 0 0 1 2196.6377 1475.4958)" fill="#012B48" font-family="'HelveticaNeueLTStd-Th'" font-size="44px">, Raxil</text>
					
						<text transform="matrix(0.583 0 0 0.583 2305.1406 1460.8445)" opacity="0.92" fill="#012B48" font-family="'HelveticaNeueLTStd-Th'" font-size="44px">®</text>
					
						<text transform="matrix(1 0 0 1 2325.6621 1475.4958)" fill="#012B48" font-family="'HelveticaNeueLTStd-Th'" font-size="44px">, Rimfire</text>
					
						<text transform="matrix(0.583 0 0 0.583 2472.4453 1460.8445)" opacity="0.92" fill="#012B48" font-family="'HelveticaNeueLTStd-Th'" font-size="44px">®</text>
					
						<text transform="matrix(1 0 0 1 2492.9668 1475.4958)" fill="#012B48" font-family="'HelveticaNeueLTStd-Th'" font-size="44px">, Roundup</text>
					
						<text transform="matrix(0.583 0 0 0.583 2686.2139 1460.8445)" opacity="0.92" fill="#012B48" font-family="'HelveticaNeueLTStd-Th'" font-size="44px">®</text>
					
						<text transform="matrix(1 0 0 1 2706.7354 1475.4958)" fill="#012B48" font-family="'HelveticaNeueLTStd-Th'" font-size="44px">, Roundup PowerMAX</text>
					
						<text transform="matrix(0.583 0 0 0.583 3114.042 1460.8445)" opacity="0.92" fill="#012B48" font-family="'HelveticaNeueLTStd-Th'" font-size="44px">®</text>
					
						<text transform="matrix(1 0 0 1 3134.5635 1475.4958)" fill="#012B48" font-family="'HelveticaNeueLTStd-Th'" font-size="44px">, </text>
					<text transform="matrix(1 0 0 1 565.6837 1531.4958)" fill="#012B48" font-family="'HelveticaNeueLTStd-Th'" font-size="44px">Roundup Ready</text>
					
						<text transform="matrix(0.583 0 0 0.583 863.253 1516.8445)" opacity="0.92" fill="#012B48" font-family="'HelveticaNeueLTStd-Th'" font-size="44px">®</text>
					<text transform="matrix(1 0 0 1 883.7745 1531.4958)" fill="#012B48" font-family="'HelveticaNeueLTStd-Th'" font-size="44px">, Roundup </text>
					
						<text transform="matrix(1 0 0 1 1089.2529 1531.4958)" fill="#012B48" font-family="'HelveticaNeueLTStd-Th'" font-size="44px" letter-spacing="-4">T</text>
					<text transform="matrix(1 0 0 1 1108.041 1531.4958)" fill="#012B48" font-family="'HelveticaNeueLTStd-Th'" font-size="44px">echnology</text>
					
						<text transform="matrix(0.583 0 0 0.583 1297.1943 1516.8445)" opacity="0.92" fill="#012B48" font-family="'HelveticaNeueLTStd-Th'" font-size="44px">®</text>
					
						<text transform="matrix(1 0 0 1 1317.7158 1531.4958)" fill="#012B48" font-family="'HelveticaNeueLTStd-Th'" font-size="44px">, Roundup </text>
					
						<text transform="matrix(1 0 0 1 1523.1943 1531.4958)" fill="#012B48" font-family="'HelveticaNeueLTStd-Th'" font-size="44px">W</text>
					
						<text transform="matrix(1 0 0 1 1561.5186 1531.4958)" fill="#012B48" font-family="'HelveticaNeueLTStd-Th'" font-size="44px">eatherMAX</text>
					
						<text transform="matrix(0.583 0 0 0.583 1761.8047 1516.8445)" opacity="0.92" fill="#012B48" font-family="'HelveticaNeueLTStd-Th'" font-size="44px">®</text>
					
						<text transform="matrix(1 0 0 1 1782.3262 1531.4958)" fill="#012B48" font-family="'HelveticaNeueLTStd-Th'" font-size="44px">, RT 3</text>
					
						<text transform="matrix(0.583 0 0 0.583 1894.0415 1516.8445)" opacity="0.92" fill="#012B48" font-family="'HelveticaNeueLTStd-Th'" font-size="44px">®</text>
					<text transform="matrix(1 0 0 1 1914.563 1531.4958)" fill="#012B48" font-family="'HelveticaNeueLTStd-Th'" font-size="44px">, Scoparia,™ Sivanto</text>
					
						<text transform="matrix(0.583 0 0 0.583 2303.8271 1516.8445)" opacity="0.92" fill="#012B48" font-family="'HelveticaNeueLTStd-Th'" font-size="44px">®</text>
					
						<text transform="matrix(1 0 0 1 2324.3486 1531.4958)" fill="#012B48" font-family="'HelveticaNeueLTStd-Th'" font-size="44px">, Stance</text>
					
						<text transform="matrix(0.583 0 0 0.583 2478.4365 1516.8445)" opacity="0.92" fill="#012B48" font-family="'HelveticaNeueLTStd-Th'" font-size="44px">®</text>
					<text transform="matrix(1 0 0 1 2498.958 1531.4958)" fill="#012B48" font-family="'HelveticaNeueLTStd-Th'" font-size="44px">, Stratego</text>
					
						<text transform="matrix(0.583 0 0 0.583 2678.2568 1516.8445)" opacity="0.92" fill="#012B48" font-family="'HelveticaNeueLTStd-Th'" font-size="44px">®</text>
					
						<text transform="matrix(1 0 0 1 2698.7783 1531.4958)" fill="#012B48" font-family="'HelveticaNeueLTStd-Th'" font-size="44px">, </text>
					
						<text transform="matrix(1 0 0 1 2723.2432 1531.4958)" fill="#012B48" font-family="'HelveticaNeueLTStd-Th'" font-size="44px" letter-spacing="-4">T</text>
					
						<text transform="matrix(1 0 0 1 2742.0313 1531.4958)" fill="#012B48" font-family="'HelveticaNeueLTStd-Th'" font-size="44px">rilex</text>
					
						<text transform="matrix(0.583 0 0 0.583 2811.418 1516.8445)" opacity="0.92" fill="#012B48" font-family="'HelveticaNeueLTStd-Th'" font-size="44px">®</text>
					
						<text transform="matrix(1 0 0 1 2831.9395 1531.4958)" fill="#012B48" font-family="'HelveticaNeueLTStd-Th'" font-size="44px">, </text>
					
						<text transform="matrix(1 0 0 1 2856.4043 1531.4958)" fill="#012B48" font-family="'HelveticaNeueLTStd-Th'" font-size="44px" letter-spacing="-4">T</text>
					
						<text transform="matrix(1 0 0 1 2875.1924 1531.4958)" fill="#012B48" font-family="'HelveticaNeueLTStd-Th'" font-size="44px">ripleFLEX</text>
					
						<text transform="matrix(0.583 0 0 0.583 3043.2266 1516.8445)" opacity="0.92" fill="#012B48" font-family="'HelveticaNeueLTStd-Th'" font-size="44px">®</text>
					<text transform="matrix(1 0 0 1 3063.748 1531.4958)" fill="#012B48" font-family="'HelveticaNeueLTStd-Th'" font-size="44px">, </text>
					
						<text transform="matrix(1 0 0 1 565.6837 1587.4958)" fill="#012B48" font-family="'HelveticaNeueLTStd-Th'" font-size="44px" letter-spacing="-1">V</text>
					<text transform="matrix(1 0 0 1 588.5201 1587.4958)" fill="#012B48" font-family="'HelveticaNeueLTStd-Th'" font-size="44px">aporGrip</text>
					
						<text transform="matrix(0.583 0 0 0.583 747.5352 1572.8445)" opacity="0.92" fill="#012B48" font-family="'HelveticaNeueLTStd-Th'" font-size="44px">®</text>
					<text transform="matrix(1 0 0 1 768.0567 1587.4958)" fill="#012B48" font-family="'HelveticaNeueLTStd-Th'" font-size="44px">, </text>
					
						<text transform="matrix(1 0 0 1 792.5206 1587.4958)" fill="#012B48" font-family="'HelveticaNeueLTStd-Th'" font-size="44px" letter-spacing="-1">V</text>
					<text transform="matrix(1 0 0 1 815.357 1587.4958)" fill="#012B48" font-family="'HelveticaNeueLTStd-Th'" font-size="44px">arro</text>
					
						<text transform="matrix(0.583 0 0 0.583 885.4483 1572.8445)" opacity="0.92" fill="#012B48" font-family="'HelveticaNeueLTStd-Th'" font-size="44px">®</text>
					<text transform="matrix(1 0 0 1 905.9698 1587.4958)" fill="#012B48" font-family="'HelveticaNeueLTStd-Th'" font-size="44px">, </text>
					
						<text transform="matrix(1 0 0 1 930.4337 1587.4958)" fill="#012B48" font-family="'HelveticaNeueLTStd-Th'" font-size="44px" letter-spacing="-1">V</text>
					<text transform="matrix(1 0 0 1 953.2701 1587.4958)" fill="#012B48" font-family="'HelveticaNeueLTStd-Th'" font-size="44px">elum</text>
					
						<text transform="matrix(0.583 0 0 0.583 1041.3574 1572.8445)" opacity="0.92" fill="#012B48" font-family="'HelveticaNeueLTStd-Th'" font-size="44px">®</text>
					
						<text transform="matrix(1 0 0 1 1061.8789 1587.4958)" fill="#012B48" font-family="'HelveticaNeueLTStd-Th'" font-size="44px">, </text>
					
						<text transform="matrix(1 0 0 1 1086.3428 1587.4958)" fill="#012B48" font-family="'HelveticaNeueLTStd-Th'" font-size="44px">W</text>
					<text transform="matrix(1 0 0 1 1124.667 1587.4958)" fill="#012B48" font-family="'HelveticaNeueLTStd-Th'" font-size="44px">arrant</text>
					
						<text transform="matrix(0.583 0 0 0.583 1227.3623 1572.8445)" opacity="0.92" fill="#012B48" font-family="'HelveticaNeueLTStd-Th'" font-size="44px">®</text>
					
						<text transform="matrix(1 0 0 1 1247.8838 1587.4958)" fill="#012B48" font-family="'HelveticaNeueLTStd-Th'" font-size="44px">, </text>
					
						<text transform="matrix(1 0 0 1 1272.3477 1587.4958)" fill="#012B48" font-family="'HelveticaNeueLTStd-Th'" font-size="44px">W</text>
					
						<text transform="matrix(1 0 0 1 1310.6719 1587.4958)" fill="#012B48" font-family="'HelveticaNeueLTStd-Th'" font-size="44px">estBred</text>
					
						<text transform="matrix(0.583 0 0 0.583 1453.3184 1572.8445)" opacity="0.92" fill="#012B48" font-family="'HelveticaNeueLTStd-Th'" font-size="44px">®</text>
					
						<text transform="matrix(1 0 0 1 1473.8398 1587.4958)" fill="#012B48" font-family="'HelveticaNeueLTStd-Th'" font-size="44px">, </text>
					
						<text transform="matrix(1 0 0 1 1498.3037 1587.4958)" fill="#012B48" font-family="'HelveticaNeueLTStd-Th'" font-size="44px">W</text>
					
						<text transform="matrix(1 0 0 1 1536.6279 1587.4958)" fill="#012B48" font-family="'HelveticaNeueLTStd-Th'" font-size="44px">olverine</text>
					
						<text transform="matrix(0.583 0 0 0.583 1675.3145 1572.8445)" opacity="0.92" fill="#012B48" font-family="'HelveticaNeueLTStd-Th'" font-size="44px">®</text>
					
						<text transform="matrix(1 0 0 1 1695.8359 1587.4958)" fill="#012B48" font-family="'HelveticaNeueLTStd-Th'" font-size="44px">, and XtendiMax</text>
					
						<text transform="matrix(0.583 0 0 0.583 1992.3496 1572.8445)" opacity="0.92" fill="#012B48" font-family="'HelveticaNeueLTStd-Th'" font-size="44px">® </text>
					
						<text transform="matrix(1 0 0 1 2020.0024 1587.4958)" fill="#012B48" font-family="'HelveticaNeueLTStd-Th'" font-size="44px">are trademarks of </text>
					<text transform="matrix(1 0 0 1 565.6837 1643.4958)" fill="#012B48" font-family="'HelveticaNeueLTStd-Th'" font-size="44px">Bayer Group. For additional product information, call toll-free 1-866-99-B</text>
					
						<text transform="matrix(1 0 0 1 1894.7354 1643.4958)" fill="#012B48" font-family="'HelveticaNeueLTStd-Th'" font-size="44px" letter-spacing="-1">A</text>
					
						<text transform="matrix(1 0 0 1 1919.1992 1643.4958)" fill="#012B48" font-family="'HelveticaNeueLTStd-Th'" font-size="44px">YER (1-866-992-2937) or visit our website at ww</text>
					
						<text transform="matrix(1 0 0 1 2817.0537 1643.4958)" fill="#012B48" font-family="'HelveticaNeueLTStd-Th'" font-size="44px" letter-spacing="-2">w</text>
					
						<text transform="matrix(1 0 0 1 2845.6094 1643.4958)" fill="#012B48" font-family="'HelveticaNeueLTStd-Th'" font-size="44px">.BayerCropScience.us. </text>
					<text transform="matrix(1 0 0 1 565.6837 1699.4958)" fill="#012B48" font-family="'HelveticaNeueLTStd-Th'" font-size="44px">Bayer CropScience L</text>
					
						<text transform="matrix(1 0 0 1 957.0606 1699.4958)" fill="#012B48" font-family="'HelveticaNeueLTStd-Th'" font-size="44px" letter-spacing="-6">P</text>
					<text transform="matrix(1 0 0 1 976.7281 1699.4958)" fill="#012B48" font-family="'HelveticaNeueLTStd-Th'" font-size="44px">, 800 North Lindbergh Boulevard, St. Louis, MO 63167.</text>
					<text transform="matrix(1 0 0 1 565.6837 1755.4958)" fill="#012B48" font-family="'HelveticaNeueLTStd-Th'" font-size="44px">©2021 Bayer Group. All rights rese</text>
					
						<text transform="matrix(1 0 0 1 1210.8052 1755.4958)" fill="#012B48" font-family="'HelveticaNeueLTStd-Th'" font-size="44px">r</text>
					
						<text transform="matrix(1 0 0 1 1223.8286 1755.4958)" fill="#012B48" font-family="'HelveticaNeueLTStd-Th'" font-size="44px">ved.</text>
				</g>
				
					<image overflow="visible" width="1585" height="837" id="endScene-plus" xlink:href="../../img/TestProducts2/plus.png"  transform="matrix(1.1483 0 0 1.1483 1010 599.4511)">
				</image>
				<rect x="-1.39" y="-45.08" fill="none" width="3842.78" height="2165.72"/>
			</g>
		</g>
	</g>
</g>
<rect x="4" y="1.14" fill="none" width="3842.78" height="2165.72"/>
</svg>
