<?xml version="1.0" encoding="utf-8"?>
<!-- Generator: Adobe Illustrator 24.2.1, SVG Export Plug-In . SVG Version: 6.00 Build 0)  -->
<svg version="1.1" id="_x32_022SeasonBgSvg" xmlns="http://www.w3.org/2000/svg" xmlns:xlink="http://www.w3.org/1999/xlink"
	 x="0px" y="0px" width="3840px" height="2160px" viewBox="0 0 3840 2160" enable-background="new 0 0 3840 2160"
	 xml:space="preserve">
<rect id="_x2D_.bgColor-" x="-1.66" fill="#00C0F2" width="3841.66" height="2160"/>
<g id="_x2D_.bgScene-">
	<g id="_x2D_.moveElements-">
		<g>
			<g>
				<polygon fill="#A4CD38" points="3389.26,608.7 3233,960.67 3558.15,1111.63 				"/>
				<rect x="-1.66" fill="none" width="3841.66" height="2160"/>
			</g>
		</g>
		<g>
			<g>
				<polygon fill="#A4CD38" points="735.21,1052.4 897.21,1568.06 1059.21,1202.08 				"/>
				<rect x="-1.66" fill="none" width="3841.66" height="2160"/>
			</g>
		</g>
		<g>
			<g>
				<polygon fill="#A4CD38" points="510.02,311.13 711.12,1013.73 897.21,593.31 				"/>
				<rect x="-1.66" fill="none" width="3841.66" height="2160"/>
			</g>
		</g>
		<g>
			<g>
				<polygon fill="#A4CD38" points="344.57,1961 684.66,2170.11 884.57,1584.15 				"/>
				<rect x="-1.66" fill="none" width="3841.66" height="2160"/>
			</g>
		</g>
		<g>
			<g>
				<polygon fill="#A4CD38" points="3604.11,0 3407.64,579.98 3963.72,196.23 				"/>
				<rect x="-1.66" fill="none" width="3841.66" height="2160"/>
			</g>
		</g>
		<g>
			<g>
				<polyline fill="none" stroke="#FFFFFF" stroke-width="3" stroke-miterlimit="10" points="2956.53,-94.83 3532.06,679.26 
					3327.66,-46.4 3689.51,263.64 3526.45,677.62 3866.57,462.6 3689.51,263.64 3912.4,-124.7 				"/>
				<polyline fill="none" stroke="#FFFFFF" stroke-width="3" stroke-miterlimit="10" points="3532.06,679.26 3262.11,1071.86 
					3701.77,1214.84 3532.06,679.26 3864.15,837.25 3701.77,1214.84 3869.15,1617.38 3508.74,1812.4 3701.77,1214.84 
					3151.52,1607.13 3511.43,1812.4 3182.45,2277.3 3564.7,2268.11 3508.74,1812.4 3891.72,2193.85 3577.68,2276.57 				"/>
				<rect x="-1.66" fill="none" width="3841.66" height="2160"/>
			</g>
		</g>
		<g>
			<g>
				<polyline fill="none" stroke="#FFFFFF" stroke-width="3" stroke-miterlimit="10" points="714.53,-203.6 362.96,273.77 
					287.13,-311.6 -64.93,-133.38 362.96,273.77 0,485.77 167.64,878.75 362.96,269.77 728,469.99 167.64,878.75 614.57,1020.58 
					344.57,1409.51 0,1248.66 167.64,878.75 353.77,1444.24 557.09,2170.11 176.83,1820.83 344.57,1409.51 0,1634.7 178.16,1831.33 
					-38.26,2206.87 549.09,2170.11 935.13,2206.87 344.57,1409.51 				"/>
				<rect x="-1.66" fill="none" width="3841.66" height="2160"/>
			</g>
		</g>
	</g>
</g>
<rect x="-1.66" fill="none" width="3841.66" height="2160"/>
</svg>
