<?xml version="1.0" encoding="utf-8"?>
<!-- Generator: Adobe Illustrator 24.2.1, SVG Export Plug-In . SVG Version: 6.00 Build 0)  -->
<svg version="1.1" id="_x32_022SeasonSvg" xmlns="http://www.w3.org/2000/svg" xmlns:xlink="http://www.w3.org/1999/xlink" x="0px"
	 y="0px" width="3840px" height="2160px" viewBox="0 0 3840 2160" enable-background="new 0 0 3840 2160" xml:space="preserve">
<g id="_x2D_.contentScene-">
	<g id="_x2D_.moveElements-">
		<g>
			<g>
				<circle fill="#A4CD38" cx="2790.14" cy="1213.89" r="6.5"/>
				<circle fill="#A4CD38" cx="2374.78" cy="929.06" r="6.5"/>
				<circle fill="#A4CD38" cx="2508.88" cy="932" r="6.5"/>
				<circle fill="#A4CD38" cx="2630.29" cy="913.53" r="6.5"/>
				<circle fill="#A4CD38" cx="2449.05" cy="798.6" r="6.5"/>
				<circle fill="#A4CD38" cx="2545.46" cy="778.7" r="6.5"/>
				<circle fill="#A4CD38" cx="2591.15" cy="829.09" r="6.5"/>
				<circle fill="#A4CD38" cx="2714.78" cy="743.26" r="6.5"/>
				<circle fill="#A4CD38" cx="2699.17" cy="826.37" r="6.5"/>
				<circle fill="#A4CD38" cx="2692.67" cy="929.06" r="6.5"/>
				<circle fill="#A4CD38" cx="2670.43" cy="1038.97" r="6.5"/>
				<circle fill="#A4CD38" cx="2551.96" cy="1032.47" r="6.5"/>
				<circle fill="#A4CD38" cx="2575.25" cy="1092.66" r="6.5"/>
				<circle fill="#A4CD38" cx="2735.16" cy="1141.58" r="6.5"/>
				<circle fill="#A4CD38" cx="2691.23" cy="1093.74" r="6.5"/>
				<circle fill="#A4CD38" cx="2481.16" cy="1194.17" r="6.5"/>
				<circle fill="#A4CD38" cx="2398.26" cy="1163.49" r="6.5"/>
				<circle fill="#A4CD38" cx="2630.29" cy="1174.46" r="6.5"/>
				<polygon fill="#A4CD38" points="2604.36,759.26 2591.15,827.44 2672.88,794.55 				"/>
				<polygon fill="#A4CD38" points="2700.9,826.37 2714.24,889.56 2779.83,832.26 				"/>
				<polygon fill="#A4CD38" points="2630.12,974.68 2666.34,1035.69 2677.96,977.01 				"/>
				<polygon fill="#A4CD38" points="2635.08,1136.61 2692.67,1174.46 2691.23,1094.7 				"/>
				<polygon fill="#A4CD38" points="2693.38,1173.45 2790.14,1212.17 2732.16,1142.92 				"/>
				<polygon fill="#A4CD38" points="2547.6,1214.32 2644.4,1213.89 2558.82,1177.68 				"/>
				<polygon fill="#A4CD38" points="2410.3,863.98 2460.02,886.2 2472.73,848.73 				"/>
				<polygon fill="#A4CD38" points="2386.09,928.55 2505.59,927.58 2496.78,910.33 				"/>
				<polygon fill="#A4CD38" points="2453.53,752.16 2492.48,797.33 2546.18,778.96 				"/>
				<path fill="#A4CD38" d="M2479.86,1018.71c0,0-37.7,27-46.78,36.25c-9.46,9.64-32.92,36.63-32.92,36.63l93.89,38.08
					L2479.86,1018.71z"/>
				<g>
					<g>
						<path fill="none" stroke="#012B48" d="M2371.38,932.44c-10.67-143.95,83.74-221.54,213.88-221.45
							c122.53,0.08,205.91,61.05,203.76,158.78c-3.08,139.9-148.93,178.96-211.46,220.86c22.67-1.7,218.71,0,218.71,0v126.48
							h-435.04c-2.9-48.58,6.23-86.33,30.88-120.41c42.05-58.73,110.72-99.35,179.08-139.53c26.1-15.95,67.69-33.03,67.08-70
							c-0.59-35.08-20.38-56.96-54.46-57.33c-53.68-0.58-75.43,40.98-73.98,102.6H2371.38z"/>
					</g>
				</g>
				<g>
					<g>
						<path fill="none" stroke="#012B48" stroke-dasharray="12" d="M2367.71,936.43c-10.76-145.2,78.98-229.82,215.73-229.82
							c123.59,0,210.79,61.73,209.82,163.37c-1.32,138.58-160.59,191.2-203.63,217.4c22.87-1.71,209.86,0,209.86,0v134.02h-442.02
							c-2.92-49,4.14-88.16,29-122.53c44.3-66.61,117.69-105.54,182.77-145.03c26.33-16.09,65.51-29.02,65.51-66.31
							c0-46.07-31.57-53.18-52.78-54.6c-43.84-2.93-72.35,38.23-69.24,103.5H2367.71z"/>
					</g>
				</g>
				<polyline fill="none" stroke="#012B48" points="2374.78,929.06 2496.86,911.19 2505.59,927.58 				"/>
				<polyline fill="none" stroke="#012B48" stroke-dasharray="12" points="2374.78,929.06 2424.46,889.8 2496.86,911.19 
					2459.57,886.51 2511.46,883.01 				"/>
				<polyline fill="none" stroke="#012B48" stroke-dasharray="12" points="2410.2,864.57 2460.02,886.44 2424.97,890.28 
					2410.2,864.14 2376.24,899.67 2424.58,889.85 				"/>
				<polyline fill="none" stroke="#012B48" points="2460.02,886.2 2472.73,848.73 2514.66,873.12 2448.53,796.7 2432.69,832.21 
					2387.93,838.15 				"/>
				<path fill="none" stroke="#012B48" d="M2472.73,844.28"/>
				<line fill="none" stroke="#012B48" x1="2472.68" y1="848.97" x2="2446.85" y2="797.33"/>
				<line fill="none" stroke="#012B48" x1="2446.85" y1="797.33" x2="2400.17" y2="809.07"/>
				<polyline fill="none" stroke="#012B48" stroke-dasharray="12" points="2532.47,842.52 2448.3,796.01 2492.48,797.33 
					2532.47,842.52 2546.77,780.11 2492.48,797.33 2453.53,752.16 2448.3,796.01 2386.09,838.82 2409.11,862.9 2432.69,832.21 
					2472.73,848.66 2410.3,863.98 				"/>
				<polyline fill="none" stroke="#012B48" stroke-dasharray="12" points="2455.12,750.63 2546.18,778.96 2527.58,721.42 
					2580.73,745.89 2546.82,777.89 2604.36,759.26 2581.33,745.55 2610.95,716.33 2603.82,758.6 2674.02,793.27 2610.95,716.33 				
					"/>
				<polyline fill="none" stroke="#012B48" points="2557.3,830 2547.37,780.17 2591.15,827.44 2603.12,759.29 				"/>
				<polyline fill="none" stroke="#012B48" points="2591.15,827.44 2672.88,794.55 2630.69,844.28 2692.17,828.6 2700.9,826.37 
					2674.02,793.47 2714.06,746.65 2700.35,825.29 2749.71,775.71 				"/>
				<polyline fill="none" stroke="#012B48" points="2641.13,866.28 2700.76,826.45 2714.61,888.7 2779.83,832.26 2701.51,826.37 
									"/>
				<polyline fill="none" stroke="#012B48" points="2640.09,865.97 2714.78,888.7 2641.2,888.7 				"/>
				<polyline fill="none" stroke="#012B48" stroke-dasharray="12" points="2781.98,886.2 2714.61,888.7 2769.41,940.26 
					2641.18,897.52 2694.31,931.48 2767.7,940.87 				"/>
				<polyline fill="none" stroke="#012B48" stroke-dasharray="12" points="2695.36,931.58 2633.98,915.12 2677.96,977.01 
					2695.36,932.65 2732.16,988.53 2677.7,977.58 2666.34,1035.69 2629.05,973.72 2679.39,977.56 				"/>
				<polyline fill="none" stroke="#012B48" points="2633.41,916.31 2630.12,974.68 2574.81,960.58 2664.65,1036.77 2592.3,1013.76 
					2574.17,960.6 2551.16,1029.66 2593.33,1013.87 2568.44,1093.74 2551.16,1030.32 2484.23,1052.82 2479.86,1019.79 
					2551.07,1029.64 				"/>
				<polyline fill="none" stroke="#012B48" stroke-dasharray="12" points="2568.05,1092.14 2484.29,1052.82 2494.67,1129.48 
					2568.1,1094.43 2565.95,1116.32 2586.24,1113.56 2569.03,1094.45 2594.54,1110.84 2690.47,1093.74 2635.08,1136.61 
					2692.67,1174.46 2690.45,1095.59 				"/>
				<polyline fill="none" stroke="#012B48" stroke-dasharray="12" points="2565.33,1116.87 2494.67,1129.48 2558.82,1177.68 
					2619.72,1149.78 2586.33,1113.65 2596.05,1111.49 2635.49,1137.14 				"/>
				<line fill="none" stroke="#012B48" x1="2565.33" y1="1116.87" x2="2558.82" y2="1177.68"/>
				<polyline fill="none" stroke="#012B48" points="2634.74,1137.07 2620.06,1149.42 2692.58,1174.46 2629.05,1174.46 2620,1151.06 
									"/>
				<polyline fill="none" stroke="#012B48" points="2629.05,1174.46 2558.85,1177.68 2644.4,1213.89 2629.81,1176.45 				"/>
				<polyline fill="none" stroke="#012B48" stroke-dasharray="12" points="2647.15,1212.17 2691.82,1174.46 2790.14,1212.17 
					2732.16,1142.92 2789.06,1096.85 				"/>
				<polyline fill="none" stroke="#012B48" points="2691.23,1094.7 2731.98,1143.01 2693.38,1173.45 				"/>
				<polyline fill="none" stroke="#012B48" points="2558.82,1177.68 2547.6,1214.32 2480.71,1193.1 2558.82,1177.68 				"/>
				<polyline fill="none" stroke="#012B48" points="2494.67,1129.78 2481.78,1193.2 2441.58,1167.19 2494.05,1129.67 
					2420.9,1126.88 2399.92,1094.7 				"/>
				<polyline fill="none" stroke="#012B48" points="2419.76,1127.29 2383.05,1123.59 2400.33,1147.28 2421.97,1126.79 
					2441.58,1167.28 2401.06,1147.1 2397.45,1165.13 2440.32,1167.19 				"/>
				<polyline fill="none" stroke="#012B48" points="2369.8,1163.49 2396.97,1165.64 2380.43,1182.16 2366.19,1196 2376.93,1196 
					2380.91,1182.41 2440.58,1168.17 				"/>
				<polyline fill="none" stroke="#012B48" points="2380.91,1182.41 2481.16,1193.2 2376.93,1196 2366.07,1213.25 2481.16,1193.2 
									"/>
				<line fill="none" stroke="#012B48" x1="2402.31" y1="1092.66" x2="2492.48" y2="1129.48"/>
				<line fill="none" stroke="#012B48" x1="2496.78" y1="910.33" x2="2508.88" y2="883.72"/>
				<circle id="_x2D_.elCircle-_11_" fill="none" stroke="#012B48" cx="2374.78" cy="926.28" r="23.5"/>
				<circle id="_x2D_.elCircle-_12_" fill="none" stroke="#012B48" cx="2545.46" cy="778.7" r="23.5"/>
				<circle id="_x2D_.elCircle-_13_" fill="none" stroke="#012B48" cx="2714.78" cy="743.03" r="23.5"/>
				<circle id="_x2D_.elCircle-_14_" fill="none" stroke="#012B48" cx="2692.58" cy="929.06" r="23.5"/>
				<circle id="_x2D_.elCircle-_15_" fill="none" stroke="#012B48" cx="2551.96" cy="1026.09" r="23.5"/>
				<circle id="_x2D_.elCircle-_16_" fill="none" stroke="#012B48" cx="2400.17" cy="1160.78" r="23.5"/>
				<circle id="_x2D_.elCircle-_17_" fill="none" stroke="#012B48" cx="2630.12" cy="1169.99" r="23.5"/>
				<circle id="_x2D_.elCircle-_18_" fill="none" stroke="#012B48" cx="2692.36" cy="1096.7" r="23.5"/>
				
					<line id="_x2D_.elLine-_8_" fill="none" stroke="#012B48" stroke-dasharray="12" x1="2524.21" y1="716.33" x2="2445.84" y2="378.22"/>
				
					<line id="_x2D_.elLine-_29_" fill="none" stroke="#012B48" stroke-dasharray="12" x1="2454.75" y1="739.84" x2="2479.86" y2="472.43"/>
				
					<line id="_x2D_.elLine-_9_" fill="none" stroke="#012B48" stroke-dasharray="12" x1="2613.09" y1="713.91" x2="3019.82" y2="369.79"/>
				
					<line id="_x2D_.elLine-_28_" fill="none" stroke="#012B48" stroke-dasharray="12" x1="2606.21" y1="706.61" x2="2545.46" y2="606.14"/>
				
					<line id="_x2D_.elLine-_27_" fill="none" stroke="#012B48" stroke-dasharray="12" x1="2769.41" y1="940.26" x2="2865.92" y2="1048.73"/>
				
					<line id="_x2D_.elLine-_26_" fill="none" stroke="#012B48" stroke-dasharray="12" x1="2741.66" y1="988.92" x2="2880.67" y2="1005.19"/>
				
					<line id="_x2D_.elLine-_25_" fill="none" stroke="#012B48" stroke-dasharray="12" x1="2691.23" y1="1093.74" x2="2857.17" y2="1066.35"/>
				
					<line id="_x2D_.elLine-_10_" fill="none" stroke="#012B48" stroke-dasharray="12" x1="2647.15" y1="1212.17" x2="2400.17" y2="1419.92"/>
				
					<line id="_x2D_.elLine-_24_" fill="none" stroke="#012B48" stroke-dasharray="12" x1="2644.4" y1="1213.89" x2="2872.83" y2="1324.18"/>
				<rect x="176.18" y="-514.29" fill="none" width="3840" height="2160"/>
			</g>
		</g>
		<g>
			<g>
				<circle fill="#A4CD38" cx="2880.53" cy="1127.44" r="6.5"/>
				<circle fill="#A4CD38" cx="2940.03" cy="1194.83" r="6.5"/>
				<circle fill="#A4CD38" cx="3028.74" cy="1094.3" r="6.5"/>
				<circle fill="#A4CD38" cx="2826.24" cy="1217.78" r="6.5"/>
				<circle fill="#A4CD38" cx="3032.42" cy="959.71" r="6.5"/>
				<circle fill="#A4CD38" cx="3174.95" cy="890.34" r="6.5"/>
				<circle fill="#A4CD38" cx="3134.19" cy="790.01" r="6.5"/>
				<circle fill="#A4CD38" cx="3051.32" cy="830.72" r="6.5"/>
				<circle fill="#A4CD38" cx="2911.46" cy="751.39" r="6.5"/>
				<circle fill="#A4CD38" cx="2932.9" cy="850.6" r="6.5"/>
				<circle fill="#A4CD38" cx="2920.19" cy="887.83" r="6.5"/>
				<circle fill="#A4CD38" cx="2832.74" cy="898.66" r="6.5"/>
				<circle fill="#A4CD38" cx="3140.77" cy="977.04" r="6.5"/>
				<circle fill="#A4CD38" cx="3152.34" cy="1176.31" r="6.5"/>
				<circle fill="#A4CD38" cx="3080.16" cy="1154.2" r="6.5"/>
				<path fill="#A4CD38" d="M2940.03,1020.35c0,0-37.7,27-46.78,36.25c-9.46,9.64-32.92,36.63-32.92,36.63l93.89,38.08
					L2940.03,1020.35z"/>
				<polygon fill="#A4CD38" points="3105.39,900.69 3154.48,933.12 3227.87,942.5 				"/>
				<polygon fill="#A4CD38" points="3053.49,1015.5 3028.74,1094.3 3124.82,1038.4 				"/>
				<polygon fill="#A4CD38" points="2952.64,798.96 2992.63,844.16 3006.94,781.74 				"/>
				<polygon fill="#A4CD38" points="3063.98,760.23 3134.19,794.9 3071.11,717.97 				"/>
				<polygon fill="#A4CD38" points="2892.86,833.84 2870.46,865.61 2932.9,850.37 				"/>
				<polygon fill="#A4CD38" points="2885.13,891.91 2834.95,930.69 2956.95,911.97 				"/>
				<polygon fill="#A4CD38" points="3150.64,1095.37 3095.24,1138.25 3152.34,1176.31 				"/>
				<polygon fill="#A4CD38" points="3026.11,1117.95 3018.98,1179.31 3079.89,1151.41 				"/>
				<polygon fill="#A4CD38" points="3192.14,1144.65 3251.22,1215.95 3251.11,1098.33 				"/>
				<g>
					<g>
						<path fill="none" stroke="#012B48" stroke-dasharray="12" d="M2831.55,934.08c-10.67-143.95,83.74-221.54,213.88-221.45
							c122.53,0.08,205.91,61.05,203.76,158.78c-3.08,139.9-148.93,178.96-211.46,220.86c22.67-1.7,218.71,0,218.71,0v126.48H2821.4
							c-2.9-48.58,6.23-86.33,30.88-120.41c42.05-58.73,110.72-99.35,179.08-139.53c26.1-15.95,67.69-33.03,67.08-70
							c-0.59-35.08-20.38-56.96-54.46-57.33c-53.68-0.58-75.43,40.98-73.98,102.6H2831.55z"/>
					</g>
				</g>
				<g>
					<g>
						<path fill="none" stroke="#012B48" d="M2827.88,938.06c-10.76-145.2,78.98-229.82,215.73-229.82
							c123.59,0,210.79,61.73,209.82,163.37c-1.32,138.58-160.59,191.2-203.63,217.4c22.87-1.71,209.86,0,209.86,0v134.02h-442.02
							c-2.92-49,4.14-88.16,29-122.53c44.3-66.61,117.69-105.54,182.77-145.03c26.33-16.09,65.51-29.02,65.51-66.31
							c0-46.07-31.57-53.18-52.78-54.6c-43.84-2.93-72.35,38.23-69.24,103.5H2827.88z"/>
					</g>
				</g>
				<polyline fill="none" stroke="#012B48" points="2834.95,930.69 2957.03,912.82 2965.76,929.21 				"/>
				<polyline fill="none" stroke="#012B48" points="2834.95,930.69 2884.63,891.43 2957.03,912.82 2919.73,888.14 2971.62,884.64 
									"/>
				<polyline fill="none" stroke="#012B48" points="2870.37,866.2 2920.19,888.07 2885.13,891.91 2870.37,865.77 2836.41,901.31 
					2884.74,891.48 				"/>
				<polyline fill="none" stroke="#012B48" points="2920.19,887.83 2932.9,850.37 2974.83,874.75 2908.69,798.33 2892.86,833.84 
					2848.1,839.78 				"/>
				<path fill="none" stroke="#012B48" d="M2932.9,845.91"/>
				<line fill="none" stroke="#012B48" x1="2932.85" y1="850.6" x2="2907.02" y2="798.96"/>
				<line fill="none" stroke="#012B48" x1="2907.02" y1="798.96" x2="2860.33" y2="810.71"/>
				<polyline fill="none" stroke="#012B48" stroke-dasharray="12" points="2992.63,844.16 2908.47,797.64 2952.64,798.96 
					2992.63,844.16 3006.94,781.74 2952.64,798.96 2913.7,753.79 2908.47,797.64 2846.26,840.45 2869.27,864.53 2892.86,833.84 
					2932.9,850.3 2870.46,865.61 				"/>
				<polyline fill="none" stroke="#012B48" stroke-dasharray="12" points="2915.28,752.26 3006.35,780.6 2987.74,723.05 
					3040.9,747.53 3006.99,779.52 3064.53,760.9 3041.49,747.18 3071.11,717.97 3063.98,760.23 3134.19,794.9 3071.11,717.97 				
					"/>
				<polyline fill="none" stroke="#012B48" points="3017.46,831.63 3007.53,781.81 3051.32,829.08 3063.29,760.92 				"/>
				<polyline fill="none" stroke="#012B48" points="3051.32,829.08 3133.04,796.18 3090.86,845.91 3152.33,830.23 3161.06,828 
					3134.19,795.11 3174.23,748.28 3160.51,826.93 3209.87,777.35 				"/>
				<polyline fill="none" stroke="#012B48" stroke-dasharray="12" points="3101.3,867.92 3160.93,828.08 3174.77,890.34 
					3240,833.89 3161.68,828 				"/>
				<polyline fill="none" stroke="#012B48" points="3100.26,867.6 3174.95,890.34 3101.37,890.34 				"/>
				<polyline fill="none" stroke="#012B48" points="3242.14,887.83 3174.77,890.34 3229.58,941.89 3101.35,899.16 3154.48,933.12 
					3227.87,942.5 				"/>
				<polyline fill="none" stroke="#012B48" stroke-dasharray="12" points="3155.53,933.21 3094.15,916.75 3138.12,978.64 
					3155.53,934.28 3192.32,990.16 3137.87,979.21 3126.51,1037.33 3089.21,975.35 3139.56,979.19 				"/>
				<polyline fill="none" stroke="#012B48" points="3093.58,917.94 3090.29,976.31 3034.98,962.21 3124.82,1038.4 3052.46,1015.39 
					3034.34,962.23 3011.33,1031.29 3053.49,1015.5 3028.6,1095.37 3011.33,1031.96 2944.39,1054.45 2940.03,1021.42 
					3011.24,1031.27 				"/>
				<polyline fill="none" stroke="#012B48" stroke-dasharray="12" points="3028.22,1093.77 2944.46,1054.45 2954.84,1131.12 
					3028.26,1096.06 3026.11,1117.95 3046.41,1115.19 3029.2,1096.08 3054.7,1112.47 3150.64,1095.37 3095.24,1138.25 
					3152.83,1176.09 3150.62,1097.23 				"/>
				<polyline fill="none" stroke="#012B48" points="3025.5,1118.5 2954.84,1131.12 3018.98,1179.31 3079.89,1151.41 3046.5,1115.28 
					3056.21,1113.12 3095.66,1138.77 				"/>
				<line fill="none" stroke="#012B48" x1="3025.5" y1="1118.5" x2="3018.98" y2="1179.31"/>
				<polyline fill="none" stroke="#012B48" stroke-dasharray="12" points="3094.9,1138.7 3080.23,1151.06 3152.74,1176.09 
					3089.21,1176.09 3080.16,1152.69 				"/>
				<polyline fill="none" stroke="#012B48" points="3089.21,1176.09 3019.02,1179.31 3104.57,1215.52 3089.98,1178.08 				"/>
				<polyline fill="none" stroke="#012B48" points="3151.4,1096.33 3192.14,1144.65 3153.54,1175.09 				"/>
				<polyline fill="none" stroke="#012B48" stroke-dasharray="12" points="3018.98,1179.31 3007.76,1215.95 2940.87,1194.73 
					3018.98,1179.31 				"/>
				<polyline fill="none" stroke="#012B48" stroke-dasharray="12" points="2954.84,1131.41 2941.95,1194.83 2901.75,1168.82 
					2954.22,1131.3 2881.07,1128.51 2860.09,1096.33 				"/>
				<polyline fill="none" stroke="#012B48" points="2879.92,1128.92 2843.22,1125.22 2860.5,1148.91 2882.14,1128.42 
					2901.75,1168.92 2861.23,1148.74 2857.62,1166.77 2900.49,1168.82 				"/>
				<polyline fill="none" stroke="#012B48" points="2829.97,1165.12 2857.14,1167.27 2840.59,1183.79 2826.36,1197.63 
					2837.1,1197.63 2841.07,1184.04 2900.74,1169.81 				"/>
				<polyline fill="none" stroke="#012B48" stroke-dasharray="12" points="2841.07,1184.04 2941.33,1194.83 2837.1,1197.63 
					2826.24,1214.88 2941.33,1194.83 				"/>
				<line fill="none" stroke="#012B48" x1="2862.47" y1="1094.3" x2="2952.64" y2="1131.12"/>
				<line fill="none" stroke="#012B48" x1="2956.95" y1="911.97" x2="2969.05" y2="885.35"/>
				<polyline fill="none" stroke="#012B48" points="3254.11,1096.33 3191.78,1144.55 3251.22,1215.95 3153.34,1177.57 				"/>
				<line fill="none" stroke="#012B48" x1="3152.83" y1="1176.09" x2="3104.57" y2="1215.52"/>
				<circle id="_x2D_.elCircle-_26_" fill="none" stroke="#012B48" cx="2920.19" cy="887.83" r="23.5"/>
				<circle id="_x2D_.elCircle-_25_" fill="none" stroke="#012B48" cx="2915.28" cy="756.43" r="23.5"/>
				<circle id="_x2D_.elCircle-_24_" fill="none" stroke="#012B48" cx="3181.45" cy="891.19" r="23.5"/>
				<circle id="_x2D_.elCircle-_23_" fill="none" stroke="#012B48" cx="3035.41" cy="962.51" r="23.5"/>
				<circle id="_x2D_.elCircle-_22_" fill="none" stroke="#012B48" cx="2878.3" cy="1125.22" r="23.5"/>
				<circle id="_x2D_.elCircle-_21_" fill="none" stroke="#012B48" cx="2940.03" cy="1197" r="23.5"/>
				<circle id="_x2D_.elCircle-_20_" fill="none" stroke="#012B48" cx="3147.27" cy="1100.53" r="23.5"/>
				<circle id="_x2D_.elCircle-_19_" fill="none" stroke="#012B48" cx="3147.27" cy="1176.31" r="23.5"/>
				
					<line id="_x2D_.elLine-_11_" fill="none" stroke="#012B48" stroke-dasharray="12" x1="2793.25" y1="1220.5" x2="3057.82" y2="1551"/>
				
					<line id="_x2D_.elLine-_35_" fill="none" stroke="#012B48" stroke-dasharray="12" x1="2987.37" y1="719.47" x2="2793.9" y2="643.34"/>
				
					<line id="_x2D_.elLine-_13_" fill="none" stroke="#012B48" stroke-dasharray="12" x1="3073.66" y1="711.16" x2="3456.73" y2="405.51"/>
				
					<line id="_x2D_.elLine-_14_" fill="none" stroke="#012B48" stroke-dasharray="12" x1="3073.66" y1="711.16" x2="2900.74" y2="371.43"/>
				
					<line id="_x2D_.elLine-_30_" fill="none" stroke="#012B48" stroke-dasharray="12" x1="3245.45" y1="833.74" x2="3493.49" y2="836.14"/>
				
					<line id="_x2D_.elLine-_31_" fill="none" stroke="#012B48" stroke-dasharray="12" x1="3245.45" y1="833.74" x2="3438.34" y2="662.49"/>
				
					<line id="_x2D_.elLine-_32_" fill="none" stroke="#012B48" stroke-dasharray="12" x1="3192.32" y1="990.16" x2="3251.22" y2="1067.99"/>
				
					<line id="_x2D_.elLine-_15_" fill="none" stroke="#012B48" stroke-dasharray="12" x1="3192.32" y1="990.16" x2="3447.54" y2="1037.33"/>
				
					<line id="_x2D_.elLine-_12_" fill="none" stroke="#012B48" stroke-dasharray="12" x1="3007.76" y1="1215.95" x2="2872.48" y2="1678.53"/>
				
					<line id="_x2D_.elLine-_33_" fill="none" stroke="#012B48" stroke-dasharray="12" x1="2992.29" y1="721.95" x2="2951.76" y2="545.02"/>
				
					<line id="_x2D_.elLine-_34_" fill="none" stroke="#012B48" stroke-dasharray="12" x1="3007.76" y1="1218.95" x2="3254.22" y2="1327.96"/>
				<rect x="176.18" y="-514.29" fill="none" width="3840" height="2160"/>
			</g>
		</g>
		<g>
			<g>
				<circle fill="#A4CD38" cx="1994.89" cy="820.7" r="6.5"/>
				<circle fill="#A4CD38" cx="2015.71" cy="889.71" r="6.5"/>
				<circle fill="#A4CD38" cx="1964.87" cy="927.74" r="6.5"/>
				<circle fill="#A4CD38" cx="2001.95" cy="972.46" r="6.5"/>
				<circle fill="#A4CD38" cx="2092.56" cy="1209.98" r="6.5"/>
				<circle fill="#A4CD38" cx="2146.79" cy="1100.23" r="6.5"/>
				<circle fill="#A4CD38" cx="2240.36" cy="1098.08" r="6.5"/>
				<circle fill="#A4CD38" cx="2290.77" cy="1134.27" r="6.5"/>
				<circle fill="#A4CD38" cx="2337.22" cy="918.18" r="6.5"/>
				<circle fill="#A4CD38" cx="2233.86" cy="896.21" r="6.5"/>
				<circle fill="#A4CD38" cx="2202.26" cy="931.18" r="6.5"/>
				<circle fill="#A4CD38" cx="2219.98" cy="812.56" r="6.5"/>
				<circle fill="#A4CD38" cx="2164.32" cy="711.91" r="6.5"/>
				<circle fill="#A4CD38" cx="2103.91" cy="820.7" r="6.5"/>
				<line fill="none" stroke="#012B48" stroke-dasharray="12" x1="2010.77" y1="748.39" x2="1839.75" y2="681.89"/>
				<path fill="#A4CD38" d="M2078.67,1078.06l-83.55,15.72l-0.23,65.72l62.37-13.8l55.4-43.26c0,0-16.11-5.74-21.87-10.67
					S2078.67,1078.06,2078.67,1078.06z"/>
				<polygon fill="#A4CD38" points="2004.19,863.82 2018.71,889.71 2058.37,900.02 				"/>
				<polygon fill="#A4CD38" points="2047.79,791.17 2033.51,819.06 2086.06,834.19 				"/>
				<polygon fill="#A4CD38" points="2095.21,711.91 2072.72,747.49 2111.09,751.78 				"/>
				<polygon fill="#A4CD38" points="2290.42,904.7 2208.76,931.18 2273.41,940.74 				"/>
				<polygon fill="#A4CD38" points="2259.73,850.22 2237.86,895.5 2324.36,858.3 				"/>
				<polygon fill="#A4CD38" points="2333.23,1027.43 2249.38,995.56 2253.73,1038.98 				"/>
				<polygon fill="#A4CD38" points="2158.42,1168.49 2146.79,1106.73 2104.54,1170.98 				"/>
				<polygon fill="#A4CD38" points="1986.88,1038.56 2055.1,989.18 1963.83,999.59 				"/>
				<polygon fill="#A4CD38" points="1995.66,1093.92 1986.88,1038.56 1930.1,1037.71 				"/>
				<polyline fill="none" stroke="#012B48" points="2164.32,711.91 2111.67,751.4 2152.78,758.94 2137.99,816.17 2111.67,752.04 
					2104.54,819.06 2072.72,747.49 2095.21,711.91 2111.09,751.78 				"/>
				<polyline fill="none" stroke="#012B48" points="2152.78,758.97 2164.32,711.48 2173.1,794.71 2152.87,760.42 				"/>
				<polyline fill="none" stroke="#012B48" stroke-dasharray="12" points="2164.32,711.91 2219.17,816.17 2173.1,795.33 
					2180.77,840.93 2219.12,815.83 2259.73,850.22 2183.04,842.74 				"/>
				<polyline fill="none" stroke="#012B48" points="2230.69,735.94 2219.98,814.58 2278.88,774.72 				"/>
				<polyline fill="none" stroke="#012B48" stroke-dasharray="12" points="2219.7,815.83 2325.53,857.56 2259.73,850.22 
					2236.7,896.16 2324.36,858.3 2291.02,904.07 2236.17,896.22 2200.04,885.02 				"/>
				<polyline fill="none" stroke="#012B48" points="2236.08,896.89 2206.55,930.66 2290.42,904.7 2272.92,941.05 2335.97,917.57 
					2291.11,904.24 				"/>
				<polyline fill="none" stroke="#012B48" points="2273.88,941.05 2205.48,930.97 2248.36,995.56 2273.41,940.74 				"/>
				<polyline fill="none" stroke="#012B48" stroke-dasharray="12" points="2337.22,918.18 2249.38,995.56 2333.23,1027.43 
					2253.68,1038.24 2248.36,995.56 2203.33,1021.78 2253.73,1038.98 2241.13,1098.08 2202.26,1021.94 				"/>
				<polyline fill="none" stroke="#012B48" stroke-dasharray="12" points="2333.43,1028.15 2241.13,1098.08 2288.82,1134.37 
					2230.41,1140.13 2241.13,1098.08 2188.45,1070.61 2230.41,1140.13 2164.32,1208.83 2188.38,1070.18 				"/>
				<polyline fill="none" stroke="#012B48" points="2148.14,1103.52 2172.26,1158.06 2632.35,1168.27 2622.88,1103.52 
					2104.54,1170.98 2157.6,1168.27 				"/>
				<polyline fill="none" stroke="#012B48" stroke-dasharray="12" points="2158.42,1168.49 2163.2,1209.05 2103.53,1170.64 
					2111.78,1103.52 2057.3,1146.12 2094.41,1207.75 2103.46,1170.98 2057.3,1146.16 				"/>
				<polyline fill="none" stroke="#012B48" stroke-dasharray="12" points="2078.46,1077.76 1995.66,1093.92 2056.22,988.91 
					1987.98,1038.83 1995.66,1093.92 1930.1,1037.71 1986.88,1038.56 1925.44,1004.25 1963.83,999.59 1987.98,1038.83 				"/>
				<polyline fill="none" stroke="#012B48" stroke-dasharray="12" points="1964.17,999.56 2055.1,989.18 2004.44,973.83 
					1963.83,999.59 1922.49,960.46 2004.63,973.56 1967.42,950.22 1923.06,959.83 1967.14,927.74 1966.87,950.43 2055.1,930.97 
					2004.74,973.51 2055.1,959.55 				"/>
				<polyline fill="none" stroke="#012B48" stroke-dasharray="12" points="1923.29,924.17 1968.24,927.69 1933.21,866.86 
					1981.72,911.01 1967.49,927.69 2055.1,930.97 1981.75,911.24 2019.52,888.79 1933.21,866.86 2005.26,864.11 2018.7,888.45 
					2058.37,900.02 				"/>
				<polyline fill="none" stroke="#012B48" points="1933.21,866.86 1995.14,821.94 2004.19,863.82 2067.24,861.92 1995.71,820.7 
					2033.23,819.06 2067.47,861.85 				"/>
				<polyline fill="none" stroke="#012B48" stroke-dasharray="12" points="1958.37,812.28 1995.87,820.7 2010.47,749.23 
					2033.51,819.06 2047.79,791.17 2010.77,748.39 2052.43,761.55 2048.34,790.82 2086.06,834.19 				"/>
				<polyline fill="none" stroke="#012B48" points="2060.68,722.08 2072.72,747.49 2052.16,762.07 2104.6,820.7 				"/>
				<polyline fill="none" stroke="#012B48" points="1995.12,1093.79 1995.12,1159.22 2057.25,1146.05 				"/>
				<g>
					<g>
						<path fill="none" stroke="#012B48" stroke-dasharray="12" d="M2130.33,703.59c91.49,0,213.96,62.68,213.96,256.47
							c0,193.79-122.47,256.47-213.24,256.47c-90.77,0-213.24-62.68-213.24-256.47C1917.81,766.27,2040.28,703.59,2130.33,703.59z
							 M2130.66,1100.23c70.23,0,71.52-88.82,71.52-139.77c0-49.57-1.29-139.77-70.15-139.77c-70.92,0-73.67,88.13-73.67,139.77
							C2058.37,1010.73,2061.12,1100.23,2130.66,1100.23z"/>
					</g>
				</g>
				<g>
					<g>
						<path fill="none" stroke="#012B48" d="M2130.13,697.9c93.44,0,218.52,64.01,218.52,261.93
							c0,197.92-125.08,261.93-217.79,261.93c-92.71,0-217.79-64.01-217.79-261.93C1913.08,761.91,2038.16,697.9,2130.13,697.9z
							 M2130.6,1095.94c68.07,0,69.33-86.09,69.33-135.48c0-48.05-1.25-135.48-67.99-135.48c-68.74,0-71.41,85.43-71.41,135.48
							C2060.52,1009.17,2063.19,1095.94,2130.6,1095.94z"/>
					</g>
				</g>
				<circle id="_x2D_.elCircle-_10_" fill="none" stroke="#012B48" cx="2162.94" cy="709.02" r="23.5"/>
				<circle id="_x2D_.elCircle-_9_" fill="none" stroke="#012B48" cx="1963.83" cy="927.74" r="23.5"/>
				<circle id="_x2D_.elCircle-_8_" fill="none" stroke="#012B48" cx="2246.86" cy="1098.08" r="23.5"/>
				<circle id="_x2D_.elCircle-_7_" fill="none" stroke="#012B48" cx="2091.28" cy="1213.07" r="23.5"/>
				<circle id="_x2D_.elCircle-_6_" fill="none" stroke="#012B48" cx="2205.48" cy="927.74" r="23.5"/>
				<circle id="_x2D_.elCircle-_5_" fill="none" stroke="#012B48" cx="2278.88" cy="771.39" r="23.5"/>
				
					<line id="_x2D_.elLine-_5_" fill="none" stroke="#012B48" stroke-dasharray="12" x1="2094.41" y1="1207.75" x2="2290.42" y2="1510.65"/>
				
					<line id="_x2D_.elLine-_23_" fill="none" stroke="#012B48" stroke-dasharray="12" x1="2086.06" y1="1222.4" x2="1971.37" y2="1453.21"/>
				
					<line id="_x2D_.elLine-_22_" fill="none" stroke="#012B48" stroke-dasharray="12" x1="2011.11" y1="748.09" x2="2046.91" y2="577.68"/>
				
					<line id="_x2D_.elLine-_7_" fill="none" stroke="#012B48" stroke-dasharray="12" x1="2164.32" y1="705.41" x2="2091.91" y2="521.8"/>
				
					<line id="_x2D_.elLine-_21_" fill="none" stroke="#012B48" stroke-dasharray="12" x1="2163.2" y1="1209.05" x2="2407.27" y2="1306.14"/>
				
					<line id="_x2D_.elLine-_6_" fill="none" stroke="#012B48" stroke-dasharray="12" x1="2163.2" y1="1209.05" x2="1944.88" y2="1412.61"/>
				
					<line id="_x2D_.elLine-_20_" fill="none" stroke="#012B48" stroke-dasharray="12" x1="2284.27" y1="768.76" x2="2467.38" y2="653.55"/>
				<rect x="176.18" y="-514.29" fill="none" width="3840" height="2160"/>
			</g>
		</g>
		<g>
			<g>
				<circle fill="#A4CD38" cx="1469.24" cy="1213.1" r="6.5"/>
				<circle fill="#A4CD38" cx="1543.61" cy="1167.28" r="6.5"/>
				<circle fill="#A4CD38" cx="1668.75" cy="1094.7" r="6.5"/>
				<circle fill="#A4CD38" cx="1722.04" cy="1150.28" r="6.5"/>
				<circle fill="#A4CD38" cx="1732.46" cy="1173.78" r="6.5"/>
				<circle fill="#A4CD38" cx="1794.65" cy="1174.46" r="6.5"/>
				<circle fill="#A4CD38" cx="1893.56" cy="1093.74" r="6.5"/>
				<circle fill="#A4CD38" cx="1838.76" cy="991.7" r="6.5"/>
				<circle fill="#A4CD38" cx="1675.25" cy="959.1" r="6.5"/>
				<circle fill="#A4CD38" cx="1796.09" cy="932" r="6.5"/>
				<circle fill="#A4CD38" cx="1802.59" cy="826.37" r="6.5"/>
				<circle fill="#A4CD38" cx="1774.63" cy="793.45" r="6.5"/>
				<circle fill="#A4CD38" cx="1714.04" cy="714.33" r="6.5"/>
				<circle fill="#A4CD38" cx="1550.71" cy="797.33" r="6.5"/>
				<circle fill="#A4CD38" cx="1598.09" cy="911.38" r="6.5"/>
				<circle fill="#A4CD38" cx="1478.2" cy="929.06" r="6.5"/>
				<circle fill="#A4CD38" cx="1486.47" cy="1123.59" r="6.5"/>
				<g>
					
						<text transform="matrix(1 0 0 1 1443.5712 1213.8861)" fill="none" stroke="#012B48" font-family="'HelveticaNeueLTStd-Blk'" font-size="706.7555px">2</text>
				</g>
				<g>
					<g>
						<path fill="none" stroke="#012B48" stroke-dasharray="12" d="M1474.8,932.44c-10.67-143.95,83.73-221.54,213.88-221.45
							c122.53,0.08,205.91,61.05,203.76,158.78c-3.08,139.9-148.93,178.96-211.46,220.86c22.67-1.7,218.71,0,218.71,0v126.48
							h-435.04c-2.9-48.58,6.23-86.33,30.88-120.41c42.05-58.73,110.72-99.35,179.08-139.53c26.1-15.95,67.69-33.03,67.08-70
							c-0.58-35.08-20.38-56.96-54.46-57.33c-53.68-0.58-75.43,40.98-73.98,102.6H1474.8z"/>
					</g>
				</g>
				<g>
					<g>
						<path fill="none" stroke="#012B48" stroke-dasharray="12" d="M1471.13,936.43c-10.76-145.2,78.98-229.82,215.73-229.82
							c123.59,0,210.79,61.73,209.82,163.37c-1.32,138.58-160.59,191.2-203.63,217.4c22.87-1.71,209.86,0,209.86,0v134.02h-442.02
							c-2.92-49,4.14-88.16,29-122.53c44.3-66.61,117.69-105.54,182.77-145.03c26.33-16.09,65.51-29.02,65.51-66.31
							c0-46.07-31.57-53.18-52.78-54.6c-43.84-2.93-72.35,38.23-69.24,103.5H1471.13z"/>
					</g>
				</g>
				<path fill="#A4CD38" d="M1583.28,1018.71c0,0-37.7,27-46.78,36.25c-9.46,9.64-32.92,36.63-32.92,36.63l93.89,38.08
					L1583.28,1018.71z"/>
				<polygon fill="#A4CD38" points="1804.59,826.87 1744.55,866.28 1818.03,888.7 				"/>
				<polygon fill="#A4CD38" points="1706.54,759.29 1650.79,779.17 1694.57,827.44 				"/>
				<polygon fill="#A4CD38" points="1513.62,864.57 1479.66,899.67 1529.65,890.53 				"/>
				<polygon fill="#A4CD38" points="1526.65,890.53 1480.7,928.06 1598.09,911.38 				"/>
				<polygon fill="#A4CD38" points="1781.38,977.01 1733.54,974.68 1769.76,1035.69 				"/>
				<polygon fill="#A4CD38" points="1662.24,1177.68 1652.48,1212.03 1744.96,1213.05 				"/>
				<polygon fill="#A4CD38" points="1795.65,1094.7 1835.58,1142.92 1893.56,1094.74 				"/>
				<polyline fill="none" stroke="#012B48" points="1478.2,929.06 1600.28,911.19 1609.01,927.58 				"/>
				<polyline fill="none" stroke="#012B48" points="1478.2,929.06 1527.88,889.8 1600.28,911.19 1562.99,886.51 1614.88,883.01 				
					"/>
				<polyline fill="none" stroke="#012B48" points="1513.62,864.57 1563.44,886.44 1528.39,890.28 1513.62,864.14 1479.66,899.67 
					1528,889.85 				"/>
				<polyline fill="none" stroke="#012B48" points="1563.44,886.2 1576.15,848.73 1618.08,873.12 1551.95,796.7 1536.11,832.21 
					1491.35,838.15 				"/>
				<path fill="none" stroke="#012B48" d="M1576.15,844.28"/>
				<line fill="none" stroke="#012B48" x1="1576.1" y1="848.97" x2="1550.27" y2="797.33"/>
				<line fill="none" stroke="#012B48" x1="1550.27" y1="797.33" x2="1503.59" y2="809.07"/>
				<polyline fill="none" stroke="#012B48" stroke-dasharray="12" points="1635.89,842.52 1551.72,796.01 1595.89,797.33 
					1635.89,842.52 1650.19,780.11 1595.89,797.33 1556.95,752.16 1551.72,796.01 1489.51,838.82 1512.53,862.9 1536.11,832.21 
					1576.15,848.66 1513.71,863.98 				"/>
				<polyline fill="none" stroke="#012B48" points="1558.54,750.63 1649.6,778.96 1631,721.42 1684.15,745.89 1650.24,777.89 
					1707.78,759.26 1684.75,745.55 1714.37,716.33 1707.24,758.6 1777.44,793.27 1714.37,716.33 				"/>
				<polyline fill="none" stroke="#012B48" points="1660.72,830 1650.79,780.17 1694.57,827.44 1706.54,759.29 				"/>
				<polyline fill="none" stroke="#012B48" stroke-dasharray="12" points="1694.57,827.44 1776.3,794.55 1734.11,844.28 
					1795.59,828.6 1804.32,826.37 1777.44,793.47 1817.48,746.65 1803.77,825.29 1853.13,775.71 				"/>
				<polyline fill="none" stroke="#012B48" points="1744.55,866.28 1804.18,826.45 1818.03,888.7 1883.25,832.26 1804.93,826.37 
									"/>
				<polyline fill="none" stroke="#012B48" points="1743.51,865.97 1818.2,888.7 1744.62,888.7 				"/>
				<polyline fill="none" stroke="#012B48" stroke-dasharray="12" points="1885.4,886.2 1818.03,888.7 1872.83,940.26 
					1744.6,897.52 1797.73,931.48 1871.12,940.87 				"/>
				<polyline fill="none" stroke="#012B48" points="1798.78,931.58 1737.4,915.12 1781.38,977.01 1798.78,932.65 1835.58,988.53 
					1781.12,977.58 1769.76,1035.69 1732.46,973.72 1782.81,977.56 				"/>
				<polyline fill="none" stroke="#012B48" stroke-dasharray="12" points="1736.83,916.31 1733.54,974.68 1678.23,960.58 
					1768.07,1036.77 1695.72,1013.76 1677.59,960.6 1654.58,1029.66 1696.75,1013.87 1671.86,1093.74 1654.58,1030.32 
					1587.64,1052.82 1583.28,1019.79 1654.49,1029.64 				"/>
				<polyline fill="none" stroke="#012B48" stroke-dasharray="12" points="1671.47,1092.14 1587.71,1052.82 1598.09,1129.48 
					1671.52,1094.43 1669.37,1116.32 1689.66,1113.56 1672.45,1094.45 1697.96,1110.84 1793.89,1093.74 1738.5,1136.61 
					1796.09,1174.46 1793.87,1095.59 				"/>
				<polyline fill="none" stroke="#012B48" points="1668.75,1116.87 1598.09,1129.48 1662.24,1177.68 1723.14,1149.78 
					1689.75,1113.65 1699.46,1111.49 1738.91,1137.14 				"/>
				<line fill="none" stroke="#012B48" x1="1668.75" y1="1116.87" x2="1662.24" y2="1177.68"/>
				<polyline fill="none" stroke="#012B48" points="1738.16,1137.07 1723.48,1149.42 1796,1174.46 1732.46,1174.46 1723.42,1151.06 
									"/>
				<polyline fill="none" stroke="#012B48" points="1732.46,1174.46 1662.27,1177.68 1747.82,1213.89 1733.23,1176.45 				"/>
				<polyline fill="none" stroke="#012B48" points="1750.56,1212.17 1795.24,1174.46 1893.56,1212.17 1835.58,1142.92 
					1892.48,1096.85 				"/>
				<polyline fill="none" stroke="#012B48" points="1794.65,1094.7 1835.4,1143.01 1796.8,1173.45 				"/>
				<polyline fill="none" stroke="#012B48" points="1598.09,1129.78 1585.2,1193.2 1545,1167.19 1597.47,1129.67 1524.32,1126.88 
					1503.34,1094.7 				"/>
				<polyline fill="none" stroke="#012B48" points="1523.18,1127.29 1486.47,1123.59 1503.75,1147.28 1525.39,1126.79 1545,1167.28 
					1504.48,1147.1 1500.87,1165.13 1543.74,1167.19 				"/>
				<polyline fill="none" stroke="#012B48" stroke-dasharray="12" points="1473.22,1163.49 1500.39,1165.64 1483.85,1182.16 
					1469.61,1196 1480.35,1196 1484.33,1182.41 1544,1168.17 				"/>
				<polyline fill="none" stroke="#012B48" stroke-dasharray="12" points="1484.33,1182.41 1584.58,1193.2 1480.35,1196 
					1469.49,1213.25 1584.58,1193.2 				"/>
				<line fill="none" stroke="#012B48" x1="1505.73" y1="1092.66" x2="1595.9" y2="1129.48"/>
				<line fill="none" stroke="#012B48" x1="1600.2" y1="910.33" x2="1612.3" y2="883.72"/>
				<polygon fill="none" stroke="#012B48" stroke-dasharray="12" points="1585.2,1193.2 1662.24,1177.68 1651.27,1215.29 				"/>
				<circle id="_x2D_.elCircle-_4_" fill="none" stroke="#012B48" cx="1714.41" cy="716.07" r="23.5"/>
				<circle id="_x2D_.elCircle-_3_" fill="none" stroke="#012B48" cx="1775.44" cy="793.83" r="23.5"/>
				<circle id="_x2D_.elCircle-_2_" fill="none" stroke="#012B48" cx="1675.67" cy="959.1" r="23.5"/>
				<circle id="_x2D_.elCircle-_1_" fill="none" stroke="#012B48" cx="1721.42" cy="1150.08" r="23.5"/>
				<circle id="_x2D_.elCircle-" fill="none" stroke="#012B48" cx="1471.7" cy="1207.39" r="23.5"/>
				
					<line id="_x2D_.elLine-_19_" fill="none" stroke="#012B48" stroke-dasharray="12" x1="1473.57" y1="1221.41" x2="843.78" y2="1221.41"/>
				
					<line id="_x2D_.elLine-_18_" fill="none" stroke="#012B48" stroke-dasharray="12" x1="1902.91" y1="1088.89" x2="1902.91" y2="972.48"/>
				
					<line id="_x2D_.elLine-" fill="none" stroke="#012B48" stroke-dasharray="12" x1="1488.98" y1="838.51" x2="1159.36" y2="1069.88"/>
				
					<line id="_x2D_.elLine-_1_" fill="none" stroke="#012B48" stroke-dasharray="12" x1="1819.41" y1="743.26" x2="1853.13" y2="517.8"/>
				
					<line id="_x2D_.elLine-_17_" fill="none" stroke="#012B48" stroke-dasharray="12" x1="1823.18" y1="739.84" x2="1943.47" y2="611.07"/>
				
					<line id="_x2D_.elLine-_16_" fill="none" stroke="#012B48" stroke-dasharray="12" x1="1656.46" y1="1217.29" x2="2433.04" y2="1441.37"/>
				
					<line id="_x2D_.elLine-_2_" fill="none" stroke="#012B48" stroke-dasharray="12" x1="1469.61" y1="1196" x2="1088.89" y2="1194.17"/>
				
					<line id="_x2D_.elLine-_3_" fill="none" stroke="#012B48" stroke-dasharray="12" x1="1489.51" y1="838.82" x2="1336.29" y2="577.37"/>
				
					<line id="_x2D_.elLine-_4_" fill="none" stroke="#012B48" stroke-dasharray="12" x1="1747.82" y1="1213.89" x2="1544" y2="1460.52"/>
				<rect x="176.18" y="-514.29" fill="none" width="3840" height="2160"/>
			</g>
		</g>
		<g>
			<g>
				
					<text transform="matrix(1 0 0 1 820.1063 1080)" fill="#012B48" font-family="'HelveticaNeueLTStd-LtIt'" font-size="310px" letter-spacing="-4">The</text>
				<rect fill="none" width="3840" height="2160"/>
			</g>
		</g>
		<g>
			<g>
				
					<text transform="matrix(1 0 0 1 1563.1882 1493.2654)" fill="#012B48" font-family="'HelveticaNeueLTStd-Hv'" font-size="145px" letter-spacing="-1">season is coming soon.</text>
				<rect fill="none" width="3840" height="2160"/>
			</g>
		</g>
	</g>
</g>
<rect fill="none" width="3840" height="2160"/>
</svg>
