<?xml version="1.0" encoding="utf-8"?>
<!-- Generator: Adobe Illustrator 24.2.1, SVG Export Plug-In . SVG Version: 6.00 Build 0)  -->
<svg version="1.1" id="_x37_45BalanceSvg" xmlns="http://www.w3.org/2000/svg" xmlns:xlink="http://www.w3.org/1999/xlink" x="0px"
	 y="0px" width="3840px" height="2160px" viewBox="0 0 3840 2160" enable-background="new 0 0 3840 2160" xml:space="preserve">
<g id="_x2D_.contentScene-">
	<g id="_x2D_.moveElements-_2_">
		<g>
			<g>
				<circle fill="#012B48" cx="3056.06" cy="1740.4" r="10.16"/>
				<circle fill="#012B48" cx="3202.54" cy="1785.63" r="10.16"/>
				<circle fill="#012B48" cx="3322.23" cy="1777.47" r="10.16"/>
				<circle fill="#012B48" cx="3379.82" cy="1785.63" r="10.16"/>
				<circle fill="#012B48" cx="3405.1" cy="1947.28" r="10.16"/>
				<circle fill="#012B48" cx="3472.37" cy="2098.96" r="12.93"/>
				<circle fill="#012B48" cx="3600.85" cy="1959.33" r="11.04"/>
				<circle fill="#012B48" cx="3192.38" cy="1590.31" r="10.16"/>
				<circle fill="#012B48" cx="3269.54" cy="1406.06" r="10.16"/>
				<circle fill="#012B48" cx="3206.5" cy="1414.02" r="18.12"/>
				<circle fill="#012B48" cx="3244" cy="1622.71" r="15.38"/>
				<circle fill="#012B48" cx="2915.89" cy="1677.21" r="10.16"/>
				<circle fill="#012B48" cx="2870.43" cy="1656.9" r="10.16"/>
				<circle fill="#012B48" cx="2943.57" cy="1542.17" r="14.92"/>
				<circle fill="#012B48" cx="2841.92" cy="1473.02" r="10.27"/>
				<circle fill="#012B48" cx="3102.26" cy="1836.85" r="17.77"/>
				<circle fill="#012B48" cx="3176.88" cy="1978.61" r="15.51"/>
				<circle fill="#012B48" cx="3349.89" cy="1929.24" r="15.51"/>
				<circle fill="#012B48" cx="3357.8" cy="1742.57" r="17.67"/>
				<circle fill="#012B48" cx="3171.01" cy="1947.28" r="9.64"/>
				<polyline fill="none" stroke="#012B48" stroke-miterlimit="10" stroke-dasharray="12" points="2870.43,1656.9 2943.57,1542.17 
					2843.56,1476.02 				"/>
				<polyline fill="none" stroke="#012B48" stroke-miterlimit="10" stroke-dasharray="12" points="3056.06,1740.4 3102.26,1836.85 
					3202.54,1785.63 3244,1622.71 3192.38,1590.31 				"/>
				<polyline fill="none" stroke="#012B48" stroke-miterlimit="10" stroke-dasharray="12" points="3102.26,1836.85 3322.23,1777.47 
					3349.89,1929.24 3379.82,1785.63 3357.8,1742.57 3269.54,1406.06 3206.5,1414.02 3357.8,1742.57 				"/>
				<polyline fill="none" stroke="#012B48" stroke-miterlimit="10" stroke-dasharray="12" points="3056.06,2120.1 3176.88,1978.61 
					3349.89,1929.24 3472.37,2098.96 3405.1,1947.28 3600.85,1959.33 3472.37,2098.96 3252.91,2191.04 				"/>
				<polyline fill="none" stroke="#012B48" stroke-miterlimit="10" stroke-dasharray="12" points="3112.36,2208.02 3176.88,1978.61 
					3472.37,2098.96 3434.06,2264.32 				"/>
				<rect fill="none" width="3840" height="2148.64"/>
			</g>
		</g>
		<g>
			<g>
				<circle fill="#012B48" cx="3219.21" cy="532.54" r="8.58"/>
				<circle fill="#012B48" cx="2989.16" cy="532.54" r="8.58"/>
				<circle fill="#012B48" cx="2915.89" cy="821.84" r="8.58"/>
				<circle fill="#012B48" cx="2870.44" cy="331.09" r="8.58"/>
				<circle fill="#012B48" cx="2732.83" cy="264.4" r="8.58"/>
				<circle fill="#012B48" cx="3009.34" cy="179.64" r="8.58"/>
				<circle fill="#012B48" cx="2760.48" cy="123.42" r="11.95"/>
				<circle fill="#012B48" cx="3189.08" cy="372.48" r="12.85"/>
				<circle fill="#012B48" cx="2844.54" cy="27.08" r="17.32"/>
				<circle fill="#012B48" cx="3328.48" cy="192.48" r="12.85"/>
				<circle fill="#012B48" cx="2991.16" cy="559.54" r="12.85"/>
				<polyline fill="none" stroke="#012B48" stroke-miterlimit="10" stroke-dasharray="12" points="3328.48,192.48 3189.08,372.48 
					3219.21,532.54 				"/>
				<polyline fill="none" stroke="#012B48" stroke-miterlimit="10" stroke-dasharray="12" points="2870.44,331.09 3189.08,372.48 
					2989.16,532.54 				"/>
				
					<line fill="none" stroke="#012B48" stroke-miterlimit="10" stroke-dasharray="12" x1="2991.16" y1="559.54" x2="2918.45" y2="821.84"/>
				<polyline fill="none" stroke="#012B48" stroke-miterlimit="10" stroke-dasharray="12" points="2844.54,27.08 3009.34,179.64 
					2732.83,264.4 2760.48,123.42 3000.76,179.64 				"/>
				<rect fill="none" width="3840" height="2148.64"/>
			</g>
		</g>
		<g>
			<g>
				<circle fill="#012B48" cx="3524.83" cy="1656.9" r="10.16"/>
				<g>
					<circle fill="#012B48" cx="3558.8" cy="1829.05" r="13.96"/>
					<circle fill="#012B48" cx="3771.05" cy="1984.65" r="11.04"/>
					<g>
						<circle fill="#012B48" cx="3514.67" cy="1607.32" r="10.16"/>
						<circle fill="#012B48" cx="3605.44" cy="1336.13" r="10.16"/>
						<circle fill="#012B48" cx="3534.99" cy="903.98" r="10.16"/>
						<circle fill="#012B48" cx="3665.53" cy="599.07" r="14.32"/>
						<circle fill="#012B48" cx="3488.58" cy="376.75" r="17.12"/>
						<circle fill="#012B48" cx="3417.95" cy="541.12" r="8.58"/>
						<circle fill="#012B48" cx="3469.68" cy="1387.22" r="18.12"/>
						<circle fill="#012B48" cx="3744.39" cy="1090.79" r="18.12"/>
						<polyline fill="none" stroke="#012B48" stroke-miterlimit="10" stroke-dasharray="12" points="3405.1,1947.28 3558.8,1829.05 
							3357.8,1742.57 3524.83,1656.9 3514.67,1607.32 3469.68,1387.22 3358.33,1750.56 3514.67,1607.32 3892.23,1567.3 
							3524.83,1656.9 3558.8,1829.05 3879.47,1566.79 3600.85,1959.33 3771.05,1984.65 3873.15,1571.95 						"/>
						<polyline fill="none" stroke="#012B48" stroke-miterlimit="10" stroke-dasharray="12" points="3760.01,1956.93 
							3468.29,1391.76 3873.15,1571.95 3605.44,1336.13 3468.29,1391.76 3572.77,1200.4 3605.44,1336.13 3744.39,1090.79 
							3534.99,903.98 3572.77,1185.47 						"/>
						<polyline fill="none" stroke="#012B48" stroke-miterlimit="10" stroke-dasharray="12" points="3514.67,1607.32 
							3605.44,1336.13 3771.05,1984.65 3827,2174.7 						"/>
						<polyline fill="none" stroke="#012B48" stroke-miterlimit="10" stroke-dasharray="12" points="3534.99,903.98 3665.53,599.07 
							3417.95,541.12 						"/>
						
							<line fill="none" stroke="#012B48" stroke-miterlimit="10" stroke-dasharray="12" x1="3889.04" y1="365.13" x2="3488.58" y2="376.75"/>
					</g>
				</g>
				<rect fill="none" width="3840" height="2148.64"/>
			</g>
		</g>
		<g>
			<g>
				<circle fill="#012B48" cx="2721.23" cy="1241.47" r="15.51"/>
				<circle fill="#012B48" cx="2687.58" cy="1366.1" r="13.24"/>
				<circle fill="#012B48" cx="2748.91" cy="1324.83" r="11.3"/>
				<circle fill="#012B48" cx="2789.56" cy="1205.46" r="9.65"/>
				<circle fill="#012B48" cx="2989.43" cy="1131.78" r="9.65"/>
				<polygon fill="none" stroke="#012B48" stroke-miterlimit="10" stroke-dasharray="12" points="2721.23,1246.76 2687.58,1366.1 
					2748.91,1324.83 				"/>
				<rect fill="none" width="3840" height="2148.64"/>
			</g>
		</g>
		<g>
			<g>
				<circle fill="#012B48" cx="1595.38" cy="1034.19" r="19.91"/>
				<circle fill="#012B48" cx="1843.13" cy="1428.72" r="9.96"/>
				
					<line fill="none" stroke="#012B48" stroke-miterlimit="10" stroke-dasharray="12" x1="1595.38" y1="1034.19" x2="1843.13" y2="1428.72"/>
				<rect fill="none" width="3840" height="2148.64"/>
			</g>
		</g>
		<g>
			<g>
				<circle fill="#012B48" cx="1485.62" cy="1407.17" r="17"/>
				<circle fill="#012B48" cx="1533.01" cy="1414.31" r="11.86"/>
				<circle fill="#012B48" cx="1272.15" cy="1360.31" r="11.86"/>
				<circle fill="#012B48" cx="930.01" cy="1488.99" r="11.86"/>
				<circle fill="#012B48" cx="780.65" cy="2016.35" r="11.86"/>
				<circle fill="#012B48" cx="858" cy="1969.16" r="14.08"/>
				<circle fill="#012B48" cx="975.97" cy="1943.22" r="11.86"/>
				<circle fill="#012B48" cx="1048.91" cy="1754.24" r="10.12"/>
				<circle fill="#012B48" cx="1185.61" cy="1725.35" r="17.99"/>
				<circle fill="#012B48" cx="1251.02" cy="1499.84" r="8.99"/>
				<circle fill="#012B48" cx="1388.9" cy="1564.18" r="8.99"/>
				<circle fill="#012B48" cx="1158.62" cy="2019.21" r="8.99"/>
				<g>
					<g>
						<line fill="none" stroke="#012B48" stroke-miterlimit="10" x1="1533.01" y1="1414.31" x2="1527.08" y2="1413.41"/>
						<polyline fill="none" stroke="#012B48" stroke-miterlimit="10" stroke-dasharray="12.1572,12.1572" points="1515.05,1411.6 
							1485.62,1407.17 1272.15,1360.31 941.31,1484.73 						"/>
						<line fill="none" stroke="#012B48" stroke-miterlimit="10" x1="935.62" y1="1486.87" x2="930.01" y2="1488.99"/>
					</g>
				</g>
				<g>
					<g>
						<line fill="none" stroke="#012B48" stroke-miterlimit="10" x1="1388.9" y1="1564.18" x2="1383.6" y2="1561.36"/>
						
							<line fill="none" stroke="#012B48" stroke-miterlimit="10" stroke-dasharray="11.0894,11.0894" x1="1373.81" y1="1556.16" x2="1261.22" y2="1496.27"/>
						<polyline fill="none" stroke="#012B48" stroke-miterlimit="10" points="1256.32,1493.66 1251.02,1490.85 1249.41,1496.63 
													"/>
						
							<line fill="none" stroke="#012B48" stroke-miterlimit="10" stroke-dasharray="12.182,12.182" x1="1246.14" y1="1508.36" x2="1188.86" y2="1713.7"/>
						<polyline fill="none" stroke="#012B48" stroke-miterlimit="10" points="1187.22,1719.57 1185.61,1725.35 1190.41,1721.76 
													"/>
						
							<line fill="none" stroke="#012B48" stroke-miterlimit="10" stroke-dasharray="11.5208,11.5208" x1="1199.63" y1="1714.85" x2="1379.48" y2="1580.22"/>
						<polyline fill="none" stroke="#012B48" stroke-miterlimit="10" points="1384.09,1576.77 1388.9,1573.18 1387.59,1579.03 
													"/>
						
							<line fill="none" stroke="#012B48" stroke-miterlimit="10" stroke-dasharray="11.8567,11.8567" x1="1385" y1="1590.6" x2="1293.24" y2="2001.39"/>
						<polyline fill="none" stroke="#012B48" stroke-miterlimit="10" points="1291.95,2007.18 1290.64,2013.03 1288.58,2007.4 
													"/>
						
							<line fill="none" stroke="#012B48" stroke-miterlimit="10" stroke-dasharray="11.7702,11.7702" x1="1284.55" y1="1996.34" x2="1189.68" y2="1736.51"/>
						<polyline fill="none" stroke="#012B48" stroke-miterlimit="10" points="1187.66,1730.99 1185.61,1725.35 1185.06,1731.33 
													"/>
						
							<line fill="none" stroke="#012B48" stroke-miterlimit="10" stroke-dasharray="12.3087,12.3087" x1="1183.93" y1="1743.58" x2="1159.73" y2="2007.11"/>
						<polyline fill="none" stroke="#012B48" stroke-miterlimit="10" points="1159.17,2013.24 1158.62,2019.21 1153.08,2016.91 
													"/>
						
							<line fill="none" stroke="#012B48" stroke-miterlimit="10" stroke-dasharray="12.3888,12.3888" x1="1141.64" y1="2012.15" x2="987.23" y2="1947.91"/>
						<polyline fill="none" stroke="#012B48" stroke-miterlimit="10" points="981.51,1945.53 975.97,1943.22 980.13,1938.9 						
							"/>
						
							<line fill="none" stroke="#012B48" stroke-miterlimit="10" stroke-dasharray="11.6142,11.6142" x1="988.18" y1="1930.53" x2="1177.42" y2="1733.86"/>
						<polyline fill="none" stroke="#012B48" stroke-miterlimit="10" points="1181.45,1729.67 1185.61,1725.35 1179.85,1723.65 
													"/>
						
							<line fill="none" stroke="#012B48" stroke-miterlimit="10" stroke-dasharray="11.4231,11.4231" x1="1168.89" y1="1720.42" x2="999.06" y2="1670.37"/>
						<polyline fill="none" stroke="#012B48" stroke-miterlimit="10" points="993.58,1668.75 987.83,1667.05 992.97,1663.96 						
							"/>
						
							<line fill="none" stroke="#012B48" stroke-miterlimit="10" stroke-dasharray="11.8037,11.8037" x1="1003.09" y1="1657.88" x2="1240.82" y2="1514.97"/>
						<line fill="none" stroke="#012B48" stroke-miterlimit="10" x1="1245.88" y1="1511.93" x2="1251.02" y2="1508.84"/>
					</g>
				</g>
				<polyline fill="none" stroke="#012B48" stroke-miterlimit="10" stroke-dasharray="12" points="1031.64,1743.34 930.01,1516.74 
					858,1969.16 975.97,1943.22 941.87,1564.18 				"/>
				<polyline fill="none" stroke="#012B48" stroke-miterlimit="10" stroke-dasharray="12" points="858,1969.16 780.65,2016.35 
					1069.18,2198.17 975.97,1943.22 				"/>
				<polyline fill="none" stroke="#012B48" stroke-miterlimit="10" stroke-dasharray="12" points="1149.63,2040.4 1085.26,2190.23 
					1290.64,2021.21 1397.89,2059.13 1100.57,2190.23 				"/>
				<rect fill="none" width="3840" height="2148.64"/>
			</g>
		</g>
		<g>
			<g>
				<circle fill="#012B48" cx="1506.75" cy="1764.36" r="8.99"/>
				<circle fill="#012B48" cx="1510" cy="1799.33" r="15.01"/>
				<circle fill="#012B48" cx="1435.68" cy="1707.36" r="15.01"/>
				<circle fill="#012B48" cx="1707.61" cy="1607.46" r="15.01"/>
				<circle fill="#012B48" cx="1737.91" cy="1766.63" r="11.29"/>
				<circle fill="#012B48" cx="1933.09" cy="1775.47" r="8.84"/>
				<circle fill="#012B48" cx="2055.03" cy="2142.16" r="8.84"/>
				<circle fill="#012B48" cx="1290.64" cy="2021.21" r="14.18"/>
				<circle fill="#012B48" cx="1397.89" cy="2059.13" r="14.18"/>
				<circle fill="#012B48" cx="1439.63" cy="2059.35" r="18.96"/>
				<circle fill="#012B48" cx="2178.28" cy="1832.32" r="13.21"/>
				<circle fill="#012B48" cx="2246.17" cy="2075.5" r="18.02"/>
				<polyline fill="none" stroke="#012B48" stroke-miterlimit="10" stroke-dasharray="12" points="1290.64,2021.21 1510,1799.33 
					1397.89,2059.13 1439.63,2059.35 1510,1799.33 1435.68,1707.36 1506.75,1764.36 1737.91,1766.63 1707.61,1607.46 				"/>
				<polyline fill="none" stroke="#012B48" stroke-miterlimit="10" stroke-dasharray="12" points="1533.01,2190.23 1439.63,2059.35 
					1737.91,1766.63 1833.17,2230.62 1933.09,1775.47 2055.03,2133.32 1853.09,2278.11 				"/>
				
					<line fill="none" stroke="#012B48" stroke-miterlimit="10" stroke-dasharray="12" x1="1510" y1="1799.33" x2="1828.32" y2="2206.99"/>
				<polyline fill="none" stroke="#012B48" stroke-miterlimit="10" stroke-dasharray="12" points="1510,1799.33 1737.91,1766.63 
					1933.09,1775.47 				"/>
				<polyline fill="none" stroke="#012B48" stroke-miterlimit="10" stroke-dasharray="12" points="2055.03,2142.16 2246.17,2075.5 
					2178.28,1832.32 				"/>
				<rect fill="none" width="3840" height="2148.64"/>
			</g>
		</g>
		<g>
			<g>
				<circle fill="#012B48" cx="2050.66" cy="1277.13" r="13.21"/>
				<circle fill="#012B48" cx="2393.13" cy="1879.43" r="13.21"/>
				<circle fill="#012B48" cx="2621.77" cy="1836.91" r="13.21"/>
				<circle fill="#012B48" cx="2689.2" cy="1800.58" r="10.16"/>
				<circle fill="#012B48" cx="2775.25" cy="1771.93" r="13.7"/>
				<circle fill="#012B48" cx="2860.27" cy="1879.43" r="13.7"/>
				<circle fill="#012B48" cx="2642.45" cy="2120.1" r="13.21"/>
				<circle fill="#012B48" cx="2784.91" cy="2057.47" r="13.21"/>
				<circle fill="#012B48" cx="2714.65" cy="1935.42" r="9.18"/>
				<circle fill="#012B48" cx="3056.06" cy="2120.1" r="9.18"/>
				<circle fill="#012B48" cx="2318.34" cy="1225.95" r="12.91"/>
				<circle fill="#012B48" cx="2332.69" cy="1183.15" r="9.36"/>
				<circle fill="#012B48" cx="2331.25" cy="1397.26" r="12.91"/>
				<polyline fill="none" stroke="#012B48" stroke-miterlimit="10" stroke-dasharray="12" points="2318.34,2173.94 2246.17,2075.5 
					2642.45,2120.1 2667.72,2181.6 2784.91,2057.47 2642.45,2120.1 2393.13,1879.43 2331.25,1397.26 2318.34,1225.95 
					2050.66,1277.13 				"/>
				
					<line fill="none" stroke="#012B48" stroke-miterlimit="10" stroke-dasharray="12" x1="2246.17" y1="2075.5" x2="2393.13" y2="1879.43"/>
				<polyline fill="none" stroke="#012B48" stroke-miterlimit="10" stroke-dasharray="12" points="2655.66,2093.52 2860.27,1879.43 
					3102.26,1836.85 3056.06,2120.1 2784.91,2057.47 3102.26,1836.85 				"/>
				<polyline fill="none" stroke="#012B48" stroke-miterlimit="10" stroke-dasharray="12" points="2784.91,2057.47 2825.55,2193.38 
					3056.06,2120.1 2943.57,2239.81 				"/>
				<polyline fill="none" stroke="#012B48" stroke-miterlimit="10" stroke-dasharray="12" points="2714.65,1935.42 2621.77,1836.91 
					2689.2,1800.58 				"/>
				<polyline fill="none" stroke="#012B48" stroke-miterlimit="10" stroke-dasharray="12" points="2775.25,1771.93 2860.27,1879.43 
					3056.06,1740.4 2915.89,1677.21 				"/>
				<rect fill="none" width="3840" height="2148.64"/>
			</g>
		</g>
	</g>
	<g id="_x2D_.moveElements-_1_">
		<g>
			<g>
				<polygon fill="#00C0F2" points="2745.85,861.09 3306.53,1421.77 3726.28,1176.66 				"/>
				<rect fill="none" width="3840" height="2148.64"/>
			</g>
		</g>
		<g>
			<g>
				<polygon fill="#00C0F2" points="1615.3,1014.28 1673.51,1326.79 1845.09,1397.26 				"/>
				<rect fill="none" width="3840" height="2148.64"/>
			</g>
		</g>
		<g>
			<g>
				<polygon fill="#00C0F2" points="929,1492.23 552.15,2252.06 1272.15,1366.62 				"/>
				<rect fill="none" width="3840" height="2148.64"/>
			</g>
		</g>
		<g>
			<g>
				<polygon fill="#FFFFFF" points="3210.64,532.54 3171.01,1173.79 3468.29,1391.76 				"/>
				<rect fill="none" width="3840" height="2148.64"/>
			</g>
		</g>
	</g>
	<g id="_x2D_.moveElements-">
		<g>
			<g>
				<g>
					<polygon fill="#A4CD38" points="1361,52.23 956.57,1247.13 374.45,269.77 					"/>
					<rect fill="none" width="3840" height="2148.64"/>
				</g>
				<g>
					
						<text transform="matrix(1 0 0 1 804.2353 839.7217)" fill="#012B48" font-family="'HelveticaNeueLTStd-Bd'" font-size="145.4033px" letter-spacing="1">you can still redeem as of (mm/dd/yy)</text>
					<rect fill="none" width="3840" height="2148.64"/>
				</g>
				
					<text transform="matrix(1 0 0 1 651.1914 625.7349)" fill="#012B48" font-family="'HelveticaNeueLTStd-ThIt'" font-size="315.4126px" letter-spacing="-3">745 balance</text>
				
					<text transform="matrix(1 0 0 1 573.7588 528.0591)" fill="#012B48" font-family="'HelveticaNeueLTStd-Th'" font-size="181.7672px" letter-spacing="-1">$</text>
				<rect fill="none" width="3840" height="2148.64"/>
			</g>
		</g>
	</g>
</g>
<rect fill="none" width="3840" height="2148.64"/>
</svg>
