<?xml version="1.0" encoding="utf-8"?>
<!-- Generator: Adobe Illustrator 24.2.1, SVG Export Plug-In . SVG Version: 6.00 Build 0)  -->
<svg version="1.1" id="_x37_45BalanceSvg" xmlns="http://www.w3.org/2000/svg" xmlns:xlink="http://www.w3.org/1999/xlink" x="0px"
	 y="0px" width="3840px" height="2160px" viewBox="0 0 3840 2160" enable-background="new 0 0 3840 2160" xml:space="preserve">
<g id="_x2D_.contentScene-">
	<g id="_x2D_.moveElements-_1_">
		<g>
			<g>
				<polygon opacity="0.6" fill="#00C0F2" points="2745.85,861.09 3306.53,1421.77 3726.28,1176.66 				"/>
				<rect fill="none" width="3840" height="2148.64"/>
			</g>
		</g>
		<g>
			<g>
				<polygon opacity="0.6" fill="#00C0F2" points="1615.3,1014.28 1673.51,1326.79 1845.09,1397.26 				"/>
				<rect fill="none" width="3840" height="2148.64"/>
			</g>
		</g>
		<g>
			<g>
				<polygon opacity="0.6" fill="#00C0F2" points="929,1492.23 552.15,2252.06 1272.15,1366.62 				"/>
				<rect fill="none" width="3840" height="2148.64"/>
			</g>
		</g>
		<g>
			<g>
				<polygon opacity="0.6" fill="#FFFFFF" points="3210.64,532.54 3171.01,1173.79 3468.29,1391.76 				"/>
				<rect fill="none" width="3840" height="2148.64"/>
			</g>
		</g>
	</g>
	<g id="_x2D_.moveElements-">
		<g>
			<g>
				<g>
					<polygon opacity="0.6" fill="#A4CD38" points="1361,52.23 956.57,1247.13 374.45,269.77 					"/>
					<rect fill="none" width="3840" height="2148.64"/>
				</g>
				<g>
					
						<text transform="matrix(1 0 0 1 804.2356 827.4177)" fill="#012B48" font-family="'HelveticaNeueLTStd-Bd'" font-size="145.4033px" letter-spacing="1">you can still redeem</text>
					<rect fill="none" width="3840" height="2148.64"/>
				</g>
				
					<text transform="matrix(1 0 0 1 651.1917 613.4308)" fill="#012B48" font-family="'HelveticaNeueLTStd-ThIt'" font-size="315.4126px" letter-spacing="-3">745 balance*</text>
				
					<text transform="matrix(1 0 0 1 573.7588 528.0591)" fill="#012B48" font-family="'HelveticaNeueLTStd-Th'" font-size="181.7672px" letter-spacing="-1">$</text>
				<rect fill="none" width="3840" height="2148.64"/>
			</g>
		</g>
		<g>
			<g>
				
					<text transform="matrix(1 0 0 1 2655.6599 1880.8252)" fill="#012B48" font-family="'HelveticaNeueLTStd-It'" font-size="100px" letter-spacing="1">*as of (mm/dd/yy)</text>
				<rect fill="none" width="3840" height="2148.64"/>
			</g>
		</g>
	</g>
</g>
<rect fill="none" width="3840" height="2148.64"/>
</svg>
