<?xml version="1.0" encoding="utf-8"?>
<!-- Generator: Adobe Illustrator 24.2.1, SVG Export Plug-In . SVG Version: 6.00 Build 0)  -->
<svg version="1.1" id="andThoseChoicesSvg" xmlns="http://www.w3.org/2000/svg" xmlns:xlink="http://www.w3.org/1999/xlink" x="0px"
	 y="0px" width="3840px" height="2160px" viewBox="0 0 3840 2160" enable-background="new 0 0 3840 2160" xml:space="preserve">
<g id="_x2D_.contentScene-">
	<g id="_x2D_.moveElements-_2_">
		<g>
			<g>
				<line fill="none" stroke="#08274B" stroke-miterlimit="10" x1="2724.41" y1="1526.86" x2="2729.94" y2="1561.66"/>
				<line fill="none" stroke="#08274B" stroke-miterlimit="10" x1="2855.94" y1="1473.21" x2="2878.23" y2="1524.84"/>
				<polyline fill="none" stroke="#08274B" stroke-miterlimit="10" stroke-dasharray="12" points="2798.56,1292.08 2844.42,1369.45 
					2745.64,1371.61 2809.46,1419.65 2689.96,1442.62 2722.82,1526.69 2663.56,1543.74 2655.09,1681.21 2655.09,1746.82 
					2520.68,1818.79 				"/>
				<polyline fill="none" stroke="#08274B" stroke-miterlimit="10" points="1737.17,2051.74 2076.87,1945.88 2164.01,1804.15 
					2242.33,1782 2297.36,1746.82 2297.36,1706.61 				"/>
				<polyline fill="none" stroke="#08274B" stroke-miterlimit="10" points="2008.26,2245.18 2098.39,2011.41 2185.18,1950.03 
					2222.91,1966.96 2271.96,1935.21 2297.36,1867.48 2284.66,1782 2297.36,1746.82 				"/>
				<polyline fill="none" stroke="#08274B" stroke-miterlimit="10" points="2297.36,1867.48 2369.33,1856.89 2420.03,1848.43 
					2428.6,1755.29 2511.15,1634.64 2521.65,1706.61 2530.2,1746.82 2520.68,1818.79 2420.03,1848.43 2346.05,1922.51 
					2271.96,1935.21 				"/>
				<polyline fill="none" stroke="#08274B" stroke-miterlimit="10" stroke-dasharray="12" points="2647.01,1375.75 2619.02,1396.27 
					2614.87,1448.37 2578.89,1503.4 2631.81,1577.49 2578.89,1634.64 2512.24,1636.02 				"/>
				<polyline fill="none" stroke="#08274B" stroke-miterlimit="10" stroke-dasharray="12" points="2368.03,1332.22 2318.41,1406.03 
					2401.08,1469.54 2386.27,1566.9 2318.41,1690.88 				"/>
				<polyline fill="none" stroke="#08274B" stroke-miterlimit="10" stroke-dasharray="12" points="2961.44,1291.19 2994.83,1367.35 
					2883.7,1426.53 2818.65,1430.61 2855.24,1471.65 2786.33,1543.74 2720.71,1566.9 2658.96,1618.32 				"/>
				<polyline fill="none" stroke="#08274B" stroke-miterlimit="10" points="2914.36,1318.28 2885.81,1421.23 2914.36,1484.07 				
					"/>
				<polyline fill="none" stroke="#08274B" stroke-miterlimit="10" points="2814.5,1430.61 2760.93,1520.34 2732.7,1562.67 
					2766.92,1645.22 2657.58,1745.18 				"/>
				<polyline fill="none" stroke="#08274B" stroke-miterlimit="10" points="2900.08,1508.26 2796.91,1587.89 2732.7,1562.67 				"/>
				<line fill="none" stroke="#08274B" stroke-miterlimit="10" x1="2826.06" y1="1612.41" x2="2768.75" y2="1643.84"/>
				<line fill="none" stroke="#08274B" stroke-miterlimit="10" x1="2239.16" y1="1323.48" x2="2317.06" y2="1405.32"/>
				<line fill="none" stroke="#08274B" stroke-miterlimit="10" x1="2243.24" y1="1323.48" x2="2365.28" y2="1333.6"/>
				<line fill="none" stroke="#08274B" stroke-miterlimit="10" x1="2425.01" y1="1433.32" x2="2401.08" y2="1466.92"/>
				<line fill="none" stroke="#08274B" stroke-miterlimit="10" x1="2566.69" y1="1331.07" x2="2617.64" y2="1394.54"/>
				<polyline fill="none" stroke="#08274B" stroke-miterlimit="10" points="2581.11,1504.51 2641.48,1502.74 2719.8,1522.45 				"/>
				<line fill="none" stroke="#08274B" stroke-miterlimit="10" x1="2615.78" y1="1447.85" x2="2644.33" y2="1469.68"/>
				<polyline fill="none" stroke="#08274B" stroke-miterlimit="10" points="2616.81,1397.03 2552.82,1471.87 2578.39,1503.23 				
					"/>
				<polyline fill="none" stroke="#08274B" stroke-miterlimit="10" points="2578.06,1507.07 2513.68,1578.22 2578.06,1632.27 				
					"/>
				<polyline fill="none" stroke="#08274B" stroke-miterlimit="10" stroke-dasharray="12" points="2398.32,1923.48 2520.68,1818.79 
					2541.36,1897.05 				"/>
				<polyline fill="none" stroke="#08274B" stroke-miterlimit="10" points="2523.29,1820.18 2685.31,1782 2768.75,1642.96 				"/>
				<line fill="none" stroke="#08274B" stroke-miterlimit="10" x1="2657.58" y1="1746.59" x2="2545.87" y2="1893.53"/>
				<polyline fill="none" stroke="#08274B" stroke-miterlimit="10" points="2578.06,1632.27 2523.29,1703.34 2608.64,1711.9 
					2654,1744.69 				"/>
				<polyline fill="none" stroke="#08274B" stroke-miterlimit="10" points="2580.36,1633.26 2655.98,1621.22 2608.64,1711.9 
					2531.35,1756.35 				"/>
				<polyline fill="none" stroke="#08274B" stroke-miterlimit="10" points="2448.62,1502.92 2444.48,1612.41 2484.61,1628.13 				
					"/>
				<polyline fill="none" stroke="#08274B" stroke-miterlimit="10" points="2447.86,1498.03 2385.71,1569.67 2444.3,1610.86 				"/>
				<polyline fill="none" stroke="#08274B" stroke-miterlimit="10" points="2244.62,1781.93 2215.87,1845.25 2296.78,1867.07 				
					"/>
				<polyline fill="none" stroke="#08274B" stroke-miterlimit="10" stroke-dasharray="12" points="2253.56,1672.59 2243.24,1779.87 
					2191.21,1753.59 2135.52,1784.93 				"/>
				<line fill="none" stroke="#08274B" stroke-miterlimit="10" x1="2134.14" y1="1785.43" x2="2164.25" y2="1802.83"/>
				<line fill="none" stroke="#08274B" stroke-miterlimit="10" x1="2298.73" y1="1870.88" x2="2345.55" y2="1920.63"/>
				<polyline fill="none" stroke="#08274B" stroke-miterlimit="10" points="2455.38,1655.66 2425.01,1722.48 2393.68,1733.64 
					2365.28,1849.49 2427.84,1757.91 				"/>
				<line fill="none" stroke="#08274B" stroke-miterlimit="10" x1="2285.72" y1="1779.9" x2="2362.51" y2="1855.01"/>
				<line fill="none" stroke="#08274B" stroke-miterlimit="10" x1="2430.39" y1="1755.75" x2="2456.15" y2="1652.56"/>
				<line fill="none" stroke="#08274B" stroke-miterlimit="10" x1="2430.16" y1="1754.97" x2="2517.83" y2="1815.94"/>
				<polyline fill="none" stroke="#08274B" stroke-miterlimit="10" points="2300.11,1709.46 2392.62,1734.98 2408.7,1675.97 				"/>
				<polyline fill="none" stroke="#08274B" stroke-miterlimit="10" points="2881.17,1522.08 2885.31,1429.17 2857.32,1469.68 				
					"/>
				<polyline fill="none" stroke="#08274B" stroke-miterlimit="10" points="2920.5,1316.57 2991.24,1368.54 3001.17,1287.04 				"/>
				<polyline fill="none" stroke="#08274B" stroke-miterlimit="10" points="2193.16,1344.24 2238.66,1325.54 2288.49,1402.92 				
					"/>
				<line fill="none" stroke="#08274B" stroke-miterlimit="10" x1="2240.39" y1="1323.81" x2="2295.4" y2="1295.32"/>
				<line fill="none" stroke="#08274B" stroke-miterlimit="10" x1="2786.33" y1="1543.74" x2="2798.79" y2="1587.57"/>
				<polyline fill="none" stroke="#08274B" stroke-miterlimit="10" points="2798.79,1293.74 2798.79,1370.45 2809.61,1417.75 				
					"/>
				<line fill="none" stroke="#08274B" stroke-miterlimit="10" x1="2724.41" y1="1525.45" x2="2749.84" y2="1504.12"/>
				<polyline fill="none" stroke="#08274B" stroke-miterlimit="10" points="2322.14,1408.08 2311.54,1484.07 2396.95,1471.68 				
					"/>
				<polyline fill="none" stroke="#08274B" stroke-miterlimit="10" points="2312.92,1486.98 2385.36,1566.91 2311.68,1569.67 				
					"/>
				<polyline fill="none" stroke="#08274B" stroke-miterlimit="10" points="2642.95,1503.04 2661.73,1545.56 2632.63,1577.08 				
					"/>
				<line fill="none" stroke="#08274B" stroke-miterlimit="10" x1="2722.56" y1="1528.31" x2="2657.88" y2="1615.79"/>
				<polyline fill="none" stroke="#08274B" stroke-miterlimit="10" points="1975.26,1977.55 1737.17,2159.58 1737.17,2281.48 				
					"/>
				<line fill="none" stroke="#08274B" stroke-miterlimit="10" x1="2296.07" y1="1870.88" x2="2187" y2="1949.03"/>
				<line fill="none" stroke="#08274B" stroke-miterlimit="10" x1="2344.84" y1="1924.16" x2="2267.89" y2="2009.82"/>
				<polyline fill="none" stroke="#08274B" stroke-miterlimit="10" points="2098.6,2012.33 1901.54,2204.04 1768.19,2281.48 				"/>
				<line fill="none" stroke="#08274B" stroke-miterlimit="10" x1="1740.85" y1="2161.97" x2="1904.6" y2="2201.1"/>
				<polyline fill="none" stroke="#08274B" stroke-miterlimit="10" points="2273.42,1935.01 2248.77,2026.14 2186.25,1951.29 				
					"/>
				<line fill="none" stroke="#08274B" stroke-miterlimit="10" x1="2224.31" y1="1966.76" x2="2250.15" y2="2023.64"/>
				<line fill="none" stroke="#08274B" stroke-miterlimit="10" x1="1892.16" y1="1949.03" x2="2073.58" y2="1946.27"/>
				<line fill="none" stroke="#08274B" stroke-miterlimit="10" x1="2076.49" y1="1946.27" x2="2186.35" y2="1949.03"/>
				<line fill="none" stroke="#08274B" stroke-miterlimit="10" x1="2216.65" y1="1847.72" x2="2079.26" y2="1944.88"/>
				<line fill="none" stroke="#08274B" stroke-miterlimit="10" x1="1734.05" y1="2161.97" x2="1287.19" y2="2350.57"/>
				<line fill="none" stroke="#08274B" stroke-miterlimit="10" x1="2513.68" y1="1579.6" x2="2511.15" y2="1634.64"/>
				<line fill="none" stroke="#08274B" stroke-miterlimit="10" x1="2297.35" y1="1708.3" x2="2317.06" y2="1693.1"/>
				<line fill="none" stroke="#08274B" stroke-miterlimit="10" x1="2443.27" y1="1612.8" x2="2408.9" y2="1673.95"/>
				<line fill="none" stroke="#08274B" stroke-miterlimit="10" x1="2191.78" y1="1752.98" x2="2252.91" y2="1671.21"/>
				<polyline fill="none" stroke="#08274B" stroke-miterlimit="10" points="3021.58,1328.54 3027.65,1353.81 2977.48,1392.51 				
					"/>
				<line fill="none" stroke="#08274B" stroke-miterlimit="10" x1="2076.49" y1="1944.88" x2="2098.39" y2="2011.41"/>
				<line fill="none" stroke="#08274B" stroke-miterlimit="10" x1="2076.87" y1="1945.88" x2="2296.07" y2="1867.07"/>
				<line fill="none" stroke="#08274B" stroke-miterlimit="10" x1="2242.33" y1="1782" x2="2285.72" y2="1781.9"/>
				<line fill="none" stroke="#08274B" stroke-miterlimit="10" x1="2242.33" y1="1782" x2="2296.07" y2="1867.07"/>
				<line fill="none" stroke="#08274B" stroke-miterlimit="10" x1="2098.6" y1="2012.33" x2="2248.82" y2="2027.92"/>
				<line fill="none" stroke="#08274B" stroke-miterlimit="10" x1="1972.07" y1="1980.58" x2="2098.6" y2="2012.33"/>
				<line fill="none" stroke="#08274B" stroke-miterlimit="10" x1="1972.07" y1="1980.58" x2="1904.6" y2="2201.1"/>
				<line fill="none" stroke="#08274B" stroke-miterlimit="10" x1="2164.61" y1="1802.83" x2="1892.07" y2="1948.63"/>
				<line fill="none" stroke="#08274B" stroke-miterlimit="10" x1="2164.61" y1="1802.83" x2="2215.87" y2="1845.25"/>
				<line fill="none" stroke="#08274B" stroke-miterlimit="10" x1="2191.78" y1="1756.11" x2="2164.61" y2="1802.83"/>
				<line fill="none" stroke="#08274B" stroke-miterlimit="10" x1="2252.91" y1="1670.62" x2="2196.08" y2="1691.47"/>
				<line fill="none" stroke="#08274B" stroke-miterlimit="10" x1="2196.08" y1="1691.47" x2="2191.78" y2="1752.98"/>
				<polyline fill="none" stroke="#08274B" stroke-miterlimit="10" points="2253.56,1672.59 2297.36,1706.61 2242.33,1784.4 				"/>
				<line fill="none" stroke="#08274B" stroke-miterlimit="10" x1="2297.36" y1="1746.82" x2="2392.62" y2="1734.98"/>
				<line fill="none" stroke="#08274B" stroke-miterlimit="10" x1="2297.36" y1="1746.82" x2="2365.28" y2="1855.01"/>
				<line fill="none" stroke="#08274B" stroke-miterlimit="10" x1="2392.62" y1="1734.98" x2="2430.39" y2="1756.35"/>
				<line fill="none" stroke="#08274B" stroke-miterlimit="10" x1="2578.89" y1="1634.64" x2="2608.16" y2="1712.55"/>
				<line fill="none" stroke="#08274B" stroke-miterlimit="10" x1="2657.88" y1="1620.2" x2="2766.92" y2="1645.22"/>
				<line fill="none" stroke="#08274B" stroke-miterlimit="10" x1="2798.79" y1="1587.57" x2="2768.75" y2="1642.96"/>
				<line fill="none" stroke="#08274B" stroke-miterlimit="10" x1="2798.79" y1="1587.57" x2="2826.06" y2="1612.41"/>
				<line fill="none" stroke="#08274B" stroke-miterlimit="10" x1="2786.33" y1="1544.26" x2="2878.23" y2="1522.45"/>
				<line fill="none" stroke="#08274B" stroke-miterlimit="10" x1="2818.65" y1="1430.61" x2="2786.33" y2="1544.26"/>
				<line fill="none" stroke="#08274B" stroke-miterlimit="10" x1="2322.14" y1="1408.08" x2="2426.37" y2="1430.48"/>
				<line fill="none" stroke="#08274B" stroke-miterlimit="10" x1="2396.95" y1="1471.68" x2="2448.8" y2="1499.03"/>
				<line fill="none" stroke="#08274B" stroke-miterlimit="10" x1="2269.77" y1="1633.13" x2="2318.41" y2="1690.88"/>
				<line fill="none" stroke="#08274B" stroke-miterlimit="10" x1="2420.03" y1="1848.43" x2="2398.32" y2="1923.48"/>
				<line fill="none" stroke="#08274B" stroke-miterlimit="10" x1="2346.05" y1="1922.51" x2="2397.2" y2="1924.83"/>
				<line fill="none" stroke="#08274B" stroke-miterlimit="10" x1="2513.68" y1="1578.22" x2="2631.81" y2="1577.49"/>
				<line fill="none" stroke="#08274B" stroke-miterlimit="10" x1="2578.89" y1="1503.4" x2="2663.56" y2="1543.74"/>
				<polyline fill="none" stroke="#08274B" stroke-miterlimit="10" points="2521.55,1703.89 2430.39,1756.35 2531.35,1756.35 				
					"/>
				<line fill="none" stroke="#08274B" stroke-miterlimit="10" x1="2318.41" y1="1692.91" x2="2392.62" y2="1734.98"/>
				<line fill="none" stroke="#08274B" stroke-miterlimit="10" x1="2408.7" y1="1675.97" x2="2425.01" y2="1722.48"/>
				<line fill="none" stroke="#08274B" stroke-miterlimit="10" x1="2383.24" y1="1568.73" x2="2404.62" y2="1671.21"/>
				<line fill="none" stroke="#08274B" stroke-miterlimit="10" x1="2616.74" y1="1291.04" x2="2617.64" y2="1390.03"/>
				<line fill="none" stroke="#08274B" stroke-miterlimit="10" x1="2618" y1="1289.25" x2="2646.02" y2="1372.14"/>
				<line fill="none" stroke="#08274B" stroke-miterlimit="10" x1="2531.35" y1="1756.35" x2="2647.32" y2="1745.18"/>
				<polyline fill="none" stroke="#08274B" stroke-miterlimit="10" points="1290.2,2346.93 2131.6,1786.66 2196.08,1691.47 
					2269.77,1633.13 2309.69,1571.72 2309.69,1482.68 2309.69,1424.34 2272.84,1387.49 2189.94,1344.5 2211.43,1310.73 
					2275.91,1286.16 2368.03,1332.22 2426.37,1430.48 2447.86,1498.03 2472.43,1531.81 2521.56,1547.16 2552.26,1467.32 
					2552.26,1341.43 2616.74,1286.16 2693.51,1304.58 2647.45,1375.21 2644.99,1494.81 2721.14,1402.84 2761.06,1335.29 
					2804.05,1286.16 2862.39,1286.16 2880.81,1323.01 2749.08,1505.24 2923.8,1307.66 2972.93,1286.16 3015.91,1286.16 
					3045.08,1294.45 2862.39,1559.44 2727.28,1752.88 2647.45,1814.3 2541.36,1897.05 2397.2,1924.83 2285.13,1995.46 
					1859.85,2378.2 				"/>
				<polyline fill="none" stroke="#08274B" stroke-miterlimit="10" points="2858,1566.9 3067.64,1302.31 3045.08,1286.16 
					3015.91,1286.16 				"/>
				<polyline fill="none" stroke="#08274B" stroke-miterlimit="10" points="2383.24,1568.73 2269.77,1633.13 2252.91,1670.62 
					2318.41,1692.91 2408.7,1675.97 2479.4,1640.99 2517.5,1566.9 2521.65,1543.74 				"/>
				<line fill="none" stroke="#08274B" stroke-miterlimit="10" x1="1737.17" y1="2051.74" x2="1737.17" y2="2159.58"/>
				<line fill="none" stroke="#08274B" stroke-miterlimit="10" x1="1904.6" y1="2201.1" x2="2008.26" y2="2245.18"/>
				<line fill="none" stroke="#08274B" stroke-miterlimit="10" x1="2017.27" y1="1282.02" x2="3219.72" y2="1275.11"/>
				<polyline fill="none" stroke="#08274B" stroke-miterlimit="10" points="2627.01,1144.97 2654.99,1173.35 2682.55,1181.55 				
					"/>
				<polyline fill="none" stroke="#08274B" stroke-miterlimit="10" points="2641.76,1181.55 2654.99,1173.35 2658.96,1187.73 				
					"/>
				<line fill="none" stroke="#08274B" stroke-miterlimit="10" x1="2654.99" y1="1173.35" x2="2662.15" y2="1159.67"/>
				<polyline fill="none" stroke="#08274B" stroke-miterlimit="10" points="2695.06,1154.5 2725.04,1109.68 2744.7,1071.25 				"/>
				<polyline fill="none" stroke="#08274B" stroke-miterlimit="10" points="2691.21,1140.74 2725.04,1109.68 2694.81,1111.1 				"/>
				<polyline fill="none" stroke="#08274B" stroke-miterlimit="10" points="2741.36,1113.97 2725.04,1109.68 2723.98,1140.74 				
					"/>
				<circle id="_x2D_.elCircle-_15_" fill="none" stroke="#08274B" stroke-miterlimit="10" cx="2694.98" cy="797.01" r="27.64"/>
				<circle id="_x2D_.elCircle-_14_" fill="none" stroke="#08274B" stroke-miterlimit="10" cx="2473.99" cy="739.84" r="27.64"/>
				<circle id="_x2D_.elCircle-_13_" fill="none" stroke="#08274B" stroke-miterlimit="10" cx="2252.91" cy="836.39" r="27.64"/>
				<circle id="_x2D_.elCircle-_12_" fill="none" stroke="#08274B" stroke-miterlimit="10" cx="2239.16" cy="1003.06" r="27.64"/>
				<circle id="_x2D_.elCircle-_11_" fill="none" stroke="#08274B" stroke-miterlimit="10" cx="2641.68" cy="1496.27" r="27.64"/>
				<circle id="_x2D_.elCircle-_10_" fill="none" stroke="#08274B" stroke-miterlimit="10" cx="2877.99" cy="1522.08" r="27.64"/>
				<circle id="_x2D_.elCircle-_9_" fill="none" stroke="#08274B" stroke-miterlimit="10" cx="2686.41" cy="1781.9" r="27.64"/>
				<circle id="_x2D_.elCircle-_8_" fill="none" stroke="#08274B" stroke-miterlimit="10" cx="2917.31" cy="1318.15" r="27.64"/>
				<circle id="_x2D_.elCircle-_7_" fill="none" stroke="#08274B" stroke-miterlimit="10" cx="2240.24" cy="1323.96" r="27.64"/>
				<circle id="_x2D_.elCircle-_6_" fill="none" stroke="#08274B" stroke-miterlimit="10" cx="2407.18" cy="1676.97" r="27.64"/>
				<circle id="_x2D_.elCircle-_5_" fill="none" stroke="#08274B" stroke-miterlimit="10" cx="2214.87" cy="1845" r="27.64"/>
				<circle id="_x2D_.elCircle-_4_" fill="none" stroke="#08274B" stroke-miterlimit="10" cx="2925.07" cy="807.24" r="27.64"/>
				<circle id="_x2D_.elCircle-_3_" fill="none" stroke="#08274B" stroke-miterlimit="10" cx="3143.1" cy="854.6" r="27.64"/>
				<circle id="_x2D_.elCircle-_2_" fill="none" stroke="#08274B" stroke-miterlimit="10" cx="3053.07" cy="954.64" r="27.64"/>
				<circle id="_x2D_.elCircle-_1_" fill="none" stroke="#08274B" stroke-miterlimit="10" cx="2685.55" cy="1000.03" r="27.64"/>
				<circle id="_x2D_.elCircle-" fill="none" stroke="#08274B" stroke-miterlimit="10" cx="2493.99" cy="1009.95" r="27.64"/>
				<polygon fill="#A4CD38" points="2051.74,838.75 2107.53,882.21 2089.94,837.17 				"/>
				<polygon fill="#A4CD38" points="2386.73,756.2 2404.31,756.2 2408.55,693.83 				"/>
				<polygon fill="#A4CD38" points="2336.19,811.77 2378.06,839.39 2389.66,878.02 				"/>
				<polygon fill="#A4CD38" points="2164.25,738.74 2179.11,733.83 2143.3,719.9 				"/>
				<polygon fill="#A4CD38" points="2413.05,853 2443.27,811.77 2435.82,783.19 				"/>
				<polygon fill="#A4CD38" points="2517.83,1052.67 2575.83,1028.67 2597.18,1057.6 				"/>
				<polygon fill="#A4CD38" points="2480.37,1187.73 2470.94,1208.74 2493.51,1207.59 				"/>
				<path fill="#A4CD38" d="M2530.91,1172.9c-1.15-1.53-22.06,11.76-22.06,11.76l7.95,19.38L2530.91,1172.9z"/>
				<polygon fill="#A4CD38" points="2496.34,1172.9 2514.66,1169.52 2523.42,1134.78 				"/>
				<polygon fill="#A4CD38" points="2662.15,1159.67 2654.99,1173.35 2682.55,1181.55 				"/>
				<polygon fill="#A4CD38" points="2723.98,1140.74 2725.98,1109.86 2741.36,1113.97 				"/>
				<polygon fill="#A4CD38" points="2760.09,997.51 2707.52,1021.62 2727.17,1046.72 				"/>
				<polygon fill="#A4CD38" points="2844.59,1118.87 2832.66,1142.56 2844.59,1144.97 				"/>
				<polygon fill="#A4CD38" points="2893.97,1144.97 2875.47,1137.54 2852.8,1165.41 				"/>
				<polygon fill="#A4CD38" points="2677.35,862.17 2654.99,892.3 2699.86,878.02 				"/>
				<polygon fill="#A4CD38" points="2760.08,905.43 2769.16,933.91 2777.67,899.08 				"/>
				<polygon fill="#A4CD38" points="2826.89,849.87 2797.55,875.27 2814.5,882.02 				"/>
				<polygon fill="#A4CD38" points="2994.83,798.06 3045.08,798.06 3009.83,827.64 				"/>
				<polygon fill="#A4CD38" points="2960.84,843.52 2931.64,868.92 2969.49,868.92 				"/>
				<polygon fill="#A4CD38" points="3159.85,947.7 3114.95,998.7 3110.18,965.76 				"/>
				<polygon fill="#A4CD38" points="3268.94,863.36 3245.89,892.63 3229.19,889.16 				"/>
				<polygon fill="#A4CD38" points="3186.92,782.99 3235.17,795.1 3219.72,818.7 				"/>
				<polygon fill="#A4CD38" points="3163.24,888.78 3162.57,905.43 3182.09,920.99 				"/>
				<polygon fill="#A4CD38" points="2018.15,827.73 2009.64,833.99 2000.98,811.77 				"/>
				<polygon fill="#A4CD38" points="2268.89,1042.75 2287.41,1042.75 2307.95,1076.04 				"/>
				<polygon fill="#A4CD38" points="2599.5,889.16 2618.5,878.02 2599.5,914.41 				"/>
				<polygon fill="#A4CD38" points="3067.64,1090.27 3053.07,1109.68 3019.94,1069.74 				"/>
				<line fill="none" stroke="#08274B" stroke-miterlimit="10" x1="3211.07" y1="929.24" x2="3211.07" y2="1210.24"/>
				
					<line fill="none" stroke="#08274B" stroke-miterlimit="10" stroke-dasharray="12" x1="3194.32" y1="929.24" x2="3194.32" y2="1210.24"/>
				<line fill="none" stroke="#08274B" stroke-miterlimit="10" x1="3073.49" y1="1176.86" x2="3073.49" y2="1218.77"/>
				<line fill="none" stroke="#08274B" stroke-miterlimit="10" x1="3086.2" y1="1165.41" x2="3087.09" y2="1224.9"/>
				<polygon fill="none" stroke="#08274B" stroke-miterlimit="10" points="2493.51,1185.66 2466.43,1144.97 2426.09,1144.97 
					2452.66,1172.9 2470.94,1208.74 2493.51,1207.59 				"/>
				<polygon fill="none" stroke="#08274B" stroke-miterlimit="10" points="2496.34,1172.9 2526.81,1129.45 2530.91,1172.9 
					2516.8,1204.04 2499.16,1207.59 				"/>
				<polygon fill="none" stroke="#08274B" stroke-miterlimit="10" points="2658.96,1187.73 2641.76,1181.55 2627.01,1144.97 
					2662.15,1159.67 2682.55,1181.55 				"/>
				<polygon fill="none" stroke="#08274B" stroke-miterlimit="10" points="2691.21,1140.74 2694.81,1111.1 2744.7,1071.25 
					2741.36,1113.97 2723.98,1140.74 2695.06,1154.5 				"/>
				<line fill="none" stroke="#08274B" stroke-miterlimit="10" x1="2699.86" y1="1165.41" x2="2699.86" y2="1224.9"/>
				<line fill="none" stroke="#08274B" stroke-miterlimit="10" x1="2682.55" y1="1181.55" x2="2682.55" y2="1224.9"/>
				<line fill="none" stroke="#08274B" stroke-miterlimit="10" x1="2831.48" y1="1165.41" x2="2831.48" y2="1221.35"/>
				<line fill="none" stroke="#08274B" stroke-miterlimit="10" x1="2849.58" y1="1168.52" x2="2849.58" y2="1217.4"/>
				<polygon fill="none" stroke="#08274B" stroke-miterlimit="10" points="2844.59,1144.97 2844.59,1118.87 2816.39,1082.66 
					2815.87,1113.97 2827.31,1156.76 2837.82,1161.59 				"/>
				<polygon fill="none" stroke="#08274B" stroke-miterlimit="10" points="2853.08,1144.97 2863.94,1119.71 2892.6,1109.68 
					2920.5,1119.71 2893.97,1144.97 2852.8,1165.41 				"/>
				<polygon fill="none" stroke="#08274B" stroke-miterlimit="10" points="3086.2,1134.29 3067.64,1090.27 3019.94,1069.74 
					3032.57,1113.97 3063.11,1149.09 3083.25,1161.59 				"/>
				<line fill="none" stroke="#08274B" stroke-miterlimit="10" x1="2977.48" y1="875.27" x2="2977.48" y2="1221.35"/>
				<line fill="none" stroke="#08274B" stroke-miterlimit="10" x1="2992.52" y1="875.27" x2="3001.17" y2="1210.24"/>
				<polygon fill="none" stroke="#08274B" stroke-miterlimit="10" stroke-dasharray="12" points="2977.48,838.75 2952.18,787.95 
					2885.81,746.68 2895.54,811.77 2931.64,868.92 2969.49,868.92 				"/>
				<polygon fill="none" stroke="#08274B" stroke-miterlimit="10" points="2977.48,798.06 2977.48,772.08 2996.84,746.68 
					2996.84,703.81 3045.08,746.68 3045.08,798.06 3009.83,827.64 2988.78,862.17 				"/>
				<polygon fill="none" stroke="#08274B" stroke-miterlimit="10" points="2965.82,997.51 2952.18,976.87 2900.08,954.64 
					2835.76,954.64 2864.6,1005.45 2914.36,1042.75 2968.87,1040.33 				"/>
				<polygon fill="none" stroke="#08274B" stroke-miterlimit="10" stroke-dasharray="12" points="3009.83,1005.45 3051.44,954.64 
					3110.18,965.76 3162.57,946.71 3126.06,1042.75 3051.44,1062.6 3001.17,1028.58 				"/>
				<polygon fill="none" stroke="#08274B" stroke-miterlimit="10" points="3208.43,877.6 3241.95,840.34 3235.17,795.1 
					3162.57,759.38 3180.04,795.1 3187.97,858.6 				"/>
				<polygon fill="none" stroke="#08274B" stroke-miterlimit="10" points="3183.21,883.21 3140.35,855.42 3078.43,898.88 
					3113.36,913.37 3130.82,922.89 3162.57,905.43 3183.21,922.89 				"/>
				<polygon fill="none" stroke="#08274B" stroke-miterlimit="10" points="3228.38,889.16 3268.94,863.36 3257.82,905.43 
					3213.98,914.2 				"/>
				<polyline fill="none" stroke="#08274B" stroke-miterlimit="10" points="2988.78,862.17 2994.83,798.06 3011.28,770.49 
					3018.99,746.68 				"/>
				<line fill="none" stroke="#08274B" stroke-miterlimit="10" x1="2960.84" y1="843.52" x2="2925.57" y2="807.8"/>
				<polyline fill="none" stroke="#08274B" stroke-miterlimit="10" points="3011.28,1021.32 3057.79,1021.32 3114.95,998.7 				"/>
				<line fill="none" stroke="#08274B" stroke-miterlimit="10" x1="2960.84" y1="1021.32" x2="2885.31" y2="984.81"/>
				<polyline fill="none" stroke="#08274B" stroke-miterlimit="10" points="3211.07,849.87 3219.72,818.7 3199.42,795.22 				"/>
				<line fill="none" stroke="#08274B" stroke-miterlimit="10" x1="2599.5" y1="954.64" x2="2599.5" y2="1221.35"/>
				<line fill="none" stroke="#08274B" stroke-miterlimit="10" x1="2615.78" y1="954.64" x2="2616.81" y2="1221.35"/>
				<path fill="none" stroke="#08274B" stroke-miterlimit="10" d="M2624.44,895.91l22.56-40.48c0,0,24.55-7.14,30.34-27.78
					c5.79-20.64,17.31-32.54,17.31-32.54l5.2,82.92l-40.9,51.22l-42.15,6.35L2624.44,895.91z"/>
				<polygon fill="none" stroke="#08274B" stroke-miterlimit="10" points="2618.5,878.02 2618.5,843.52 2587.55,821.29 
					2545.87,821.29 2569.41,855.42 2569.41,892.73 2599.5,916.54 				"/>
				<polygon fill="none" stroke="#08274B" stroke-miterlimit="10" points="2575.83,1028.67 2457.46,1005.45 2430.39,997.51 
					2447.86,1033.52 2473.99,1069.74 2558.68,1088 2597.18,1057.6 				"/>
				<polygon fill="none" stroke="#08274B" stroke-miterlimit="10" points="2634.59,1033.52 2686,997.51 2760.09,997.51 
					2727.17,1046.72 2651.44,1065.16 2620.61,1055.98 				"/>
				<polyline fill="none" stroke="#08274B" stroke-miterlimit="10" points="2632.63,916.54 2657.88,889.16 2677.35,862.17 				"/>
				<polyline fill="none" stroke="#08274B" stroke-miterlimit="10" points="2599.5,889.16 2593.66,858.6 2578.06,843.52 				"/>
				<line fill="none" stroke="#08274B" stroke-miterlimit="10" x1="2620.61" y1="1055.98" x2="2706.95" y2="1021.32"/>
				<polygon fill="none" stroke="#08274B" stroke-miterlimit="10" stroke-dasharray="12" points="2413.05,872.46 2484.61,853.04 
					2538.86,781.6 2550.02,718.1 2473.99,741.91 2435.82,783.19 2413.05,853 				"/>
				<polygon fill="none" stroke="#08274B" stroke-miterlimit="10" points="2389.66,827.64 2386.73,756.2 2408.7,691.11 
					2421.62,759.38 2413.05,827.64 2401.74,850.64 				"/>
				<polygon fill="none" stroke="#08274B" stroke-miterlimit="10" points="2378.06,839.39 2336.19,759.38 2273.42,738.74 
					2256.32,727.63 2140.08,718.1 2164.25,738.74 2224.31,772.08 2253.56,835.58 2389.66,878.02 				"/>
				<polyline fill="none" stroke="#08274B" stroke-miterlimit="10" points="2389.66,878.02 2336.19,811.77 2288.71,784.78 
					2240.16,759.38 2140.08,718.1 				"/>
				<polygon fill="none" stroke="#08274B" stroke-miterlimit="10" points="2122.77,905.43 2079.26,905.43 2040.18,878.02 
					2033.83,860.98 2009.64,833.99 1980.72,827.64 2000.98,811.77 2051.74,819.7 2089.94,837.17 2122.77,868.92 				"/>
				<polyline fill="none" stroke="#08274B" stroke-miterlimit="10" points="2107.26,883.21 2079.26,858.6 2051.74,838.75 
					2018.3,827.64 				"/>
				<polygon fill="none" stroke="#08274B" stroke-miterlimit="10" points="2365.28,1052.28 2336.19,1033.52 2288.71,1021.32 
					2239.16,1005.45 2267.89,1042.75 2309.45,1078.47 2352.02,1071.25 2379.75,1070.21 				"/>
				<polyline fill="none" stroke="#08274B" stroke-miterlimit="10" points="2376.75,1069.21 2287.41,1042.75 2239.16,1005.45 				
					"/>
				<line fill="none" stroke="#08274B" stroke-miterlimit="10" x1="2790.13" y1="946.71" x2="2790.13" y2="1210.24"/>
				
					<line fill="none" stroke="#08274B" stroke-miterlimit="10" stroke-dasharray="12" x1="2807.21" y1="946.71" x2="2809.61" y2="1210.24"/>
				<line fill="none" stroke="#08274B" stroke-miterlimit="10" x1="2389.66" y1="883.21" x2="2383.8" y2="1221.35"/>
				<g>
					<g>
						<line fill="none" stroke="#08274B" stroke-miterlimit="10" x1="2413.05" y1="883.21" x2="2413.05" y2="889.21"/>
						
							<line fill="none" stroke="#08274B" stroke-miterlimit="10" stroke-dasharray="11.6679,11.6679" x1="2413.05" y1="900.87" x2="2413.05" y2="1198.4"/>
						<line fill="none" stroke="#08274B" stroke-miterlimit="10" x1="2413.05" y1="1204.24" x2="2413.05" y2="1210.24"/>
					</g>
				</g>
				<polygon fill="none" stroke="#08274B" stroke-miterlimit="10" points="2786.33,879.27 2760.09,849.87 2768.75,811.77 
					2741.36,759.38 2798.79,798.06 2826.89,849.87 2814.5,882.02 2798.79,890.49 				"/>
				<polygon fill="none" stroke="#08274B" stroke-miterlimit="10" points="2777.67,899.08 2736.04,862.17 2736.04,905.43 
					2768.75,935.59 2784.13,929.24 				"/>
				<polygon fill="none" stroke="#08274B" stroke-miterlimit="10" points="2815.43,899.08 2844.42,875.27 2886.88,875.27 
					2900.08,892.73 2867.08,905.43 2829.06,918.53 2806.87,909.96 				"/>
				<polyline fill="none" stroke="#08274B" stroke-miterlimit="10" points="2798.79,890.49 2794.98,843.52 2784.13,810.77 				"/>
				<line fill="none" stroke="#08274B" stroke-miterlimit="10" x1="2817.41" y1="905.43" x2="2858.24" y2="889.36"/>
				<polyline fill="none" stroke="#08274B" stroke-miterlimit="10" points="2443.27,811.77 2484.61,853.04 2485.31,782.99 
					2538.86,781.6 2519.81,759.38 2443.27,811.77 2413.05,872.46 				"/>
				<line fill="none" stroke="#08274B" stroke-miterlimit="10" x1="2550.02" y1="718.1" x2="2519.81" y2="759.38"/>
				<polyline fill="none" stroke="#08274B" stroke-miterlimit="10" points="2435.82,783.19 2443.27,811.77 2473.99,741.91 
					2485.31,782.99 				"/>
				<line fill="none" stroke="#08274B" stroke-miterlimit="10" x1="2519.81" y1="759.38" x2="2473.99" y2="741.91"/>
				<g>
					<g>
						<line fill="none" stroke="#08274B" stroke-miterlimit="10" x1="2399.93" y1="847.19" x2="2400.27" y2="841.2"/>
						
							<line fill="none" stroke="#08274B" stroke-miterlimit="10" stroke-dasharray="11.102,11.102" x1="2400.89" y1="830.12" x2="2408.05" y2="702.65"/>
						<line fill="none" stroke="#08274B" stroke-miterlimit="10" x1="2408.36" y1="697.1" x2="2408.7" y2="691.11"/>
					</g>
				</g>
				<polyline fill="none" stroke="#08274B" stroke-miterlimit="10" points="2318.88,855.42 2336.19,811.77 2253.56,835.58 
					2240.16,759.38 2224.31,772.08 				"/>
				<polyline fill="none" stroke="#08274B" stroke-miterlimit="10" stroke-dasharray="12" points="2336.19,759.38 2336.19,811.4 
					2275.42,739.91 2240.16,759.38 2256.32,727.63 				"/>
				<polyline fill="none" stroke="#08274B" stroke-miterlimit="10" points="2365.28,1052.28 2287.41,1042.75 2332.08,1032.46 				
					"/>
				<polyline fill="none" stroke="#08274B" stroke-miterlimit="10" points="2309.45,1078.47 2287.41,1042.75 2267.89,1042.75 				
					"/>
				<polyline fill="none" stroke="#08274B" stroke-miterlimit="10" points="2575.83,1028.67 2517.83,1052.67 2492.45,1012.31 
					2473.99,1033.52 2517.83,1052.67 2597.18,1057.6 				"/>
				<polyline fill="none" stroke="#08274B" stroke-miterlimit="10" stroke-dasharray="12" points="2430.39,997.51 2473.99,1033.52 
					2473.99,1069.74 2517.83,1052.67 2558.68,1088 				"/>
				<polyline fill="none" stroke="#08274B" stroke-miterlimit="10" points="2599.5,916.54 2599.5,889.16 2569.41,892.73 
					2593.66,858.6 2569.41,855.42 2578.06,843.52 2545.87,821.29 				"/>
				<polyline fill="none" stroke="#08274B" stroke-miterlimit="10" stroke-dasharray="12" points="2618.5,878.02 2593.66,858.6 
					2618.5,843.52 2578.06,843.52 2587.55,821.29 				"/>
				<polyline fill="none" stroke="#08274B" stroke-miterlimit="10" stroke-dasharray="12" points="2616.81,935.59 2632.63,916.54 
					2658.96,929.24 2654.99,892.3 2699.86,878.02 2677.35,862.17 2694.66,795.1 				"/>
				<polyline fill="none" stroke="#08274B" stroke-miterlimit="10" points="2624.44,895.91 2632.63,916.54 2647.01,855.42 
					2654.99,892.3 2669.79,842.23 2677.35,862.17 				"/>
				<polyline fill="none" stroke="#08274B" stroke-miterlimit="10" points="2634.59,1033.52 2671.38,1034.95 2686,997.51 
					2706.95,1021.32 2760.09,997.51 				"/>
				<polyline fill="none" stroke="#08274B" stroke-miterlimit="10" points="2651.44,1065.16 2671.38,1035.95 2727.17,1046.72 
					2706.95,1021.32 				"/>
				<polyline fill="none" stroke="#08274B" stroke-miterlimit="10" points="2736.04,862.17 2760.08,905.43 2777.67,899.08 
					2768.75,935.59 				"/>
				<polyline fill="none" stroke="#08274B" stroke-miterlimit="10" points="2736.04,905.43 2760.08,905.43 2768.75,935.59 				"/>
				<polyline fill="none" stroke="#08274B" stroke-miterlimit="10" points="2814.5,882.02 2797.55,875.27 2826.85,849.66 
					2795.79,843.16 2798.79,798.06 2784.13,810.77 2742.72,760.73 				"/>
				<polyline fill="none" stroke="#08274B" stroke-miterlimit="10" stroke-dasharray="12" points="2760.09,849.87 2794.95,843.52 
					2769.74,811.77 2783.95,810.77 				"/>
				<polyline fill="none" stroke="#08274B" stroke-miterlimit="10" points="2806.87,909.96 2817.41,905.43 2829.06,918.53 
					2858.24,889.36 2900.08,892.73 				"/>
				<polyline fill="none" stroke="#08274B" stroke-miterlimit="10" stroke-dasharray="12" points="2886.88,875.27 2858.24,889.36 
					2844.2,877.22 2817.41,905.43 2815.43,899.08 				"/>
				<polyline fill="none" stroke="#08274B" stroke-miterlimit="10" points="2965.82,997.51 2960.84,1021.32 2968.87,1040.33 				"/>
				<polyline fill="none" stroke="#08274B" stroke-miterlimit="10" points="2965.82,997.51 2923.07,1002.24 2950.49,977.29 
					2885.31,984.81 2900.08,954.64 				"/>
				<polyline fill="none" stroke="#08274B" stroke-miterlimit="10" stroke-dasharray="12" points="2960.84,1021.32 2914.36,1042.75 
					2923.07,1002.24 2864.6,1005.45 2885.31,984.81 2835.76,954.64 				"/>
				<polyline fill="none" stroke="#08274B" stroke-miterlimit="10" points="2977.48,838.75 2960.84,843.52 2952.18,787.95 
					2925.57,807.8 2886.12,748.72 				"/>
				<polyline fill="none" stroke="#08274B" stroke-miterlimit="10" points="2969.49,868.92 2960.84,843.52 2931.64,868.92 
					2925.57,807.8 2895.54,811.77 				"/>
				<g>
					<g>
						<line fill="none" stroke="#08274B" stroke-miterlimit="10" x1="3009.83" y1="827.64" x2="3007.12" y2="822.29"/>
						
							<line fill="none" stroke="#08274B" stroke-miterlimit="10" stroke-dasharray="7.056,7.056" x1="3003.92" y1="816" x2="2999.14" y2="806.56"/>
						<polyline fill="none" stroke="#08274B" stroke-miterlimit="10" points="2997.54,803.41 2994.83,798.06 3000.83,798.06 						
							"/>
						
							<line fill="none" stroke="#08274B" stroke-miterlimit="10" stroke-dasharray="12.7532,12.7532" x1="3013.58" y1="798.06" x2="3032.71" y2="798.06"/>
						<polyline fill="none" stroke="#08274B" stroke-miterlimit="10" points="3039.08,798.06 3045.08,798.06 3040.44,794.27 						
							"/>
						
							<line fill="none" stroke="#08274B" stroke-miterlimit="10" stroke-dasharray="10.5409,10.5409" x1="3032.27" y1="787.61" x2="3020.01" y2="777.61"/>
						<polyline fill="none" stroke="#08274B" stroke-miterlimit="10" points="3015.93,774.28 3011.28,770.49 3016.14,766.98 						
							"/>
						
							<line fill="none" stroke="#08274B" stroke-miterlimit="10" stroke-dasharray="9.4317,9.4317" x1="3023.79" y1="761.45" x2="3035.26" y2="753.17"/>
						<polyline fill="none" stroke="#08274B" stroke-miterlimit="10" points="3039.08,750.41 3043.94,746.89 3037.94,746.84 						
							"/>
						<polyline fill="none" stroke="#08274B" stroke-miterlimit="10" points="3024.99,746.73 3018.99,746.68 3016.24,741.35 						
							"/>
						
							<line fill="none" stroke="#08274B" stroke-miterlimit="10" stroke-dasharray="12.0823,12.0823" x1="3010.69" y1="730.61" x2="3002.37" y2="714.51"/>
						<line fill="none" stroke="#08274B" stroke-miterlimit="10" x1="2999.6" y1="709.14" x2="2996.84" y2="703.81"/>
					</g>
				</g>
				<path fill="none" stroke="#08274B" stroke-miterlimit="10" d="M2977.48,798.06h17.35l-17.35-25.98l33.8-1.59l-14.44-23.81
					c0,0,22.91,0.98,22.15,0"/>
				<polyline fill="none" stroke="#08274B" stroke-miterlimit="10" points="3009.83,1005.45 3011.28,1021.32 3001.56,1027.54 				
					"/>
				<polyline fill="none" stroke="#08274B" stroke-miterlimit="10" points="3051.44,1062.6 3057.79,1021.32 3126.06,1042.75 
					3114.95,998.7 3159.85,949.43 				"/>
				<polyline fill="none" stroke="#08274B" stroke-miterlimit="10" points="3110.18,965.76 3057.79,1021.32 3051.44,954.64 				"/>
				<polyline fill="none" stroke="#08274B" stroke-miterlimit="10" points="3183.21,922.89 3162.57,887.65 3107,891.73 				"/>
				<polyline fill="none" stroke="#08274B" stroke-miterlimit="10" points="3183.21,883.21 3162.57,887.65 3140.35,855.42 
					3107,891.73 3078.43,898.88 				"/>
				<polyline fill="none" stroke="#08274B" stroke-miterlimit="10" points="3162.57,905.43 3162.57,887.65 3130.82,922.89 
					3108.27,891.64 				"/>
				<polyline fill="none" stroke="#08274B" stroke-miterlimit="10" stroke-dasharray="12" points="3208.43,877.6 3211.36,848.82 
					3189.21,857.75 3219.72,818.7 3182.06,795.46 3199.42,795.22 3164.02,760.58 				"/>
				<polyline fill="none" stroke="#08274B" stroke-miterlimit="10" points="3211.36,848.82 3241.95,840.34 3219.72,818.7 
					3235.17,795.1 				"/>
				
					<line id="_x2D_.elLine-_1_" fill="none" stroke="#08274B" stroke-miterlimit="10" stroke-dasharray="12" x1="2408.7" y1="691.11" x2="2558.68" y2="443.39"/>
				
					<line id="_x2D_.elLine-_2_" fill="none" stroke="#08274B" stroke-miterlimit="10" stroke-dasharray="12" x1="2241.17" y1="1006.73" x2="2193.16" y2="782.99"/>
				
					<line id="_x2D_.elLine-_3_" fill="none" stroke="#08274B" stroke-miterlimit="10" stroke-dasharray="12" x1="2408.7" y1="691.11" x2="2413.05" y2="244.42"/>
				
					<line id="_x2D_.elLine-_4_" fill="none" stroke="#08274B" stroke-miterlimit="10" stroke-dasharray="12" x1="2996.84" y1="703.81" x2="2768.75" y2="461.01"/>
				
					<line id="_x2D_.elLine-_5_" fill="none" stroke="#08274B" stroke-miterlimit="10" stroke-dasharray="12" x1="2998.24" y1="706.52" x2="2998.24" y2="385.95"/>
				
					<line id="_x2D_.elLine-_6_" fill="none" stroke="#08274B" stroke-miterlimit="10" stroke-dasharray="12" x1="2885.81" y1="746.68" x2="2748.02" y2="617.26"/>
				
					<line id="_x2D_.elLine-_7_" fill="none" stroke="#08274B" stroke-miterlimit="10" stroke-dasharray="12" x1="2239.16" y1="1005.45" x2="1933.39" y2="879.38"/>
				
					<line id="_x2D_.elLine-_8_" fill="none" stroke="#08274B" stroke-miterlimit="10" stroke-dasharray="12" x1="3164.02" y1="760.58" x2="3015.65" y2="172.81"/>
				
					<line id="_x2D_.elLine-_9_" fill="none" stroke="#08274B" stroke-miterlimit="10" stroke-dasharray="12" x1="3159.85" y1="949.43" x2="3656.36" y2="719.38"/>
				
					<line id="_x2D_.elLine-" fill="none" stroke="#08274B" stroke-miterlimit="10" stroke-dasharray="12" x1="3164.02" y1="760.58" x2="3061.73" y2="703.81"/>
				<polyline fill="none" stroke="#08274B" stroke-miterlimit="10" points="2122.77,868.92 2107.26,883.21 2122.77,905.43 				"/>
				<line fill="none" stroke="#08274B" stroke-miterlimit="10" x1="2089.94" y1="837.17" x2="2107.26" y2="883.21"/>
				<polyline fill="none" stroke="#08274B" stroke-miterlimit="10" points="2089.94,837.17 2051.74,838.75 2051.74,819.7 
					2018.3,827.64 2000.98,811.77 				"/>
				<polyline fill="none" stroke="#08274B" stroke-miterlimit="10" stroke-dasharray="12" points="2107.26,883.21 2079.26,905.43 
					2051.74,838.75 2034.97,864.03 2018.3,827.64 				"/>
				<polyline fill="none" stroke="#08274B" stroke-miterlimit="10" stroke-dasharray="12" points="3083.25,1161.59 3053.07,1109.68 
					3019.94,1069.74 				"/>
				<polyline fill="none" stroke="#08274B" stroke-miterlimit="10" stroke-dasharray="12" points="2852.8,1165.41 2877.99,1134.29 
					2920.5,1119.71 				"/>
				
					<line fill="none" stroke="#08274B" stroke-miterlimit="10" stroke-dasharray="12" x1="2837.82" y1="1161.59" x2="2816.39" y2="1082.66"/>
				<polyline fill="none" stroke="#08274B" stroke-miterlimit="10" stroke-dasharray="12" points="2499.16,1207.59 2513.62,1173.35 
					2524.7,1132.46 				"/>
				<polyline fill="none" stroke="#08274B" stroke-miterlimit="10" stroke-dasharray="12" points="2493.51,1207.59 2465.34,1163.26 
					2426.09,1144.97 				"/>
				
					<line fill="none" stroke="#08274B" stroke-miterlimit="10" stroke-dasharray="12" x1="2140.08" y1="718.1" x2="1693.3" y2="718.1"/>
				
					<line fill="none" stroke="#08274B" stroke-miterlimit="10" stroke-dasharray="12" x1="2140.08" y1="718.1" x2="2057.51" y2="567.25"/>
				<circle fill="#A4CD38" cx="3219.72" cy="1275.11" r="8.66"/>
				<circle fill="#A4CD38" cx="2917.31" cy="1318.28" r="8.66"/>
				<circle fill="#A4CD38" cx="2877.98" cy="1523.79" r="8.66"/>
				<circle fill="#A4CD38" cx="2685.31" cy="1782" r="8.66"/>
				<circle fill="#A4CD38" cx="2886.65" cy="1426.53" r="8.66"/>
				<circle fill="#A4CD38" cx="2650.28" cy="1745.18" r="8.66"/>
				<circle fill="#A4CD38" cx="2541.36" cy="1897.05" r="8.66"/>
				<circle fill="#A4CD38" cx="2406.08" cy="1676.49" r="8.66"/>
				<circle fill="#A4CD38" cx="2368.03" cy="1332.22" r="8.66"/>
				<circle fill="#A4CD38" cx="2240.39" cy="1323.81" r="8.66"/>
				<circle fill="#A4CD38" cx="2300.11" cy="1708.3" r="8.66"/>
				<circle fill="#A4CD38" cx="2215.87" cy="1845.25" r="8.66"/>
				<circle fill="#A4CD38" cx="2364.01" cy="1855.53" r="8.66"/>
				<circle fill="#A4CD38" cx="2248.82" cy="2027.92" r="8.66"/>
				<circle fill="#A4CD38" cx="1886.5" cy="1950.54" r="8.66"/>
				<circle fill="#A4CD38" cx="2396.95" cy="1471.68" r="8.66"/>
				<circle fill="#A4CD38" cx="2513.68" cy="1578.22" r="8.66"/>
				<circle fill="#A4CD38" cx="2742.64" cy="1370.61" r="8.66"/>
				<circle fill="#A4CD38" cx="2647.01" cy="1375.75" r="8.66"/>
				<circle fill="#A4CD38" cx="2695.06" cy="798.06" r="8.66"/>
				<circle fill="#A4CD38" cx="2239.16" cy="1005.45" r="8.66"/>
				<circle fill="#A4CD38" cx="2686.41" cy="1000.47" r="8.66"/>
				<circle fill="#A4CD38" cx="2744.7" cy="1071.25" r="8.66"/>
				<circle fill="#A4CD38" cx="2835.76" cy="954.64" r="8.66"/>
				<circle fill="#A4CD38" cx="2784.13" cy="810.77" r="8.66"/>
				<circle fill="#A4CD38" cx="2900.08" cy="892.73" r="8.66"/>
				<circle fill="#A4CD38" cx="2920.5" cy="1119.71" r="8.66"/>
				<circle fill="#A4CD38" cx="3051.44" cy="1062.6" r="8.66"/>
				<circle fill="#A4CD38" cx="3130.82" cy="1042.75" r="8.66"/>
				<circle fill="#A4CD38" cx="3087.09" cy="1224.9" r="8.66"/>
				<circle fill="#A4CD38" cx="2977.48" cy="1221.35" r="8.66"/>
				<circle fill="#A4CD38" cx="3001.17" cy="1210.24" r="8.66"/>
				<circle fill="#A4CD38" cx="3194.32" cy="1210.24" r="8.66"/>
				<circle fill="#A4CD38" cx="3211.07" cy="1210.24" r="8.66"/>
				<circle fill="#A4CD38" cx="2790.13" cy="1210.24" r="8.66"/>
				<circle fill="#A4CD38" cx="2836.5" cy="1223.88" r="8.66"/>
				<circle fill="#A4CD38" cx="2810.48" cy="1211.35" r="8.66"/>
				<circle fill="#A4CD38" cx="2699.86" cy="1224.9" r="8.66"/>
				<circle fill="#A4CD38" cx="2679.24" cy="1223.88" r="8.66"/>
				<circle fill="#A4CD38" cx="2616.81" cy="1221.35" r="8.66"/>
				<circle fill="#A4CD38" cx="2599.5" cy="1221.35" r="8.66"/>
				<circle fill="#A4CD38" cx="2383.8" cy="1221.35" r="8.66"/>
				<circle fill="#A4CD38" cx="3164.02" cy="760.58" r="8.66"/>
				<circle fill="#A4CD38" cx="3043.94" cy="746.89" r="8.66"/>
				<circle fill="#A4CD38" cx="2996.84" cy="703.81" r="8.66"/>
				<circle fill="#A4CD38" cx="2742.72" cy="760.73" r="8.66"/>
				<circle fill="#A4CD38" cx="2545.87" cy="821.29" r="8.66"/>
				<circle fill="#A4CD38" cx="2493.99" cy="1009.95" r="8.66"/>
				<circle fill="#A4CD38" cx="2558.68" cy="1088" r="8.66"/>
				<circle fill="#A4CD38" cx="2017.27" cy="1282.02" r="8.66"/>
				<circle fill="#A4CD38" cx="2473.99" cy="741.91" r="8.66"/>
				<circle fill="#A4CD38" cx="2252.91" cy="726.76" r="8.66"/>
				<circle fill="#A4CD38" cx="2252.91" cy="836.39" r="8.66"/>
				<circle fill="#A4CD38" cx="2925.57" cy="807.8" r="8.66"/>
				<circle fill="#A4CD38" cx="3053.07" cy="954.64" r="8.66"/>
				<circle fill="#A4CD38" cx="3142.42" cy="855.18" r="8.66"/>
				<circle fill="#A4CD38" cx="2641.68" cy="1496.68" r="8.66"/>
				<rect fill="none" width="3840" height="2149.45"/>
			</g>
		</g>
	</g>
	<g id="_x2D_.moveElements-">
		<g>
			<g>
				<text transform="matrix(1 0 0 1 737.9336 366.9648)" fill="#012B48" font-family="'HelveticaNeueLTStd-Bd'" font-size="148px">And those choices</text>
				<rect fill="none" width="3840" height="2149.45"/>
			</g>
		</g>
		<g>
			<g>
				
					<text transform="matrix(1 0 0 1 1168.3945 667.3359)" fill="#012B48" font-family="'HelveticaNeueLTStd-ThIt'" font-size="321.3157px" letter-spacing="-1">paid off.</text>
				<rect fill="none" width="3840" height="2149.45"/>
			</g>
		</g>
	</g>
</g>
<rect fill="none" width="3840" height="2149.45"/>
</svg>
