<?xml version="1.0" encoding="utf-8"?>
<!-- Generator: Adobe Illustrator 24.2.1, SVG Export Plug-In . SVG Version: 6.00 Build 0)  -->
<svg version="1.1" id="asYouPlanBgSvg" xmlns="http://www.w3.org/2000/svg" xmlns:xlink="http://www.w3.org/1999/xlink" x="0px"
	 y="0px" width="3840px" height="2160px" viewBox="0 0 3840 2160" enable-background="new 0 0 3840 2160" xml:space="preserve">
<rect id="_x2D_.bgColor-" x="-7.23" fill="#FFFFFF" width="3847.23" height="2168.24"/>
<g id="_x2D_.bgScene-">
	<g id="_x2D_.moveElements-">
		<g>
			<g>
				<polygon fill="#F2F2F2" points="662.45,-39.01 -143.38,-229.06 -7.23,1188.88 				"/>
				<rect x="-5.43" y="-25.96" fill="none" width="3845.43" height="2185.96"/>
			</g>
		</g>
		<g>
			<g>
				<polygon fill="#012B48" points="633.27,-25.96 -474.28,-25.96 -28.23,782.16 				"/>
				<rect x="-5.43" y="-25.96" fill="none" width="3845.43" height="2185.96"/>
			</g>
		</g>
		<g>
			<g>
				<polygon fill="#00C0F2" points="3856.08,268.96 3330.12,2162.7 3870.23,2628.83 				"/>
				<rect x="-5.43" y="-25.96" fill="none" width="3845.43" height="2185.96"/>
			</g>
		</g>
	</g>
</g>
<g id="_x2D_.lineBG-_1_">
	<g>
		<polygon fill="#012B48" points="3254.28,2300.45 3249.02,2300.04 3800.69,-140.45 3805.95,-140.04 		"/>
		<rect x="-5.43" y="-25.96" fill="none" width="3845.43" height="2185.96"/>
	</g>
</g>
<g id="_x2D_.lineBG-">
	<g>
		<polygon fill="#012B48" points="-125.57,1637.03 -130.08,1634.29 760.4,-98.22 764.91,-95.48 		"/>
		<rect x="-5.43" y="-25.96" fill="none" width="3845.43" height="2185.96"/>
	</g>
</g>
<rect x="-5.43" y="-25.96" fill="none" width="3845.43" height="2185.96"/>
</svg>
