<?xml version="1.0" encoding="utf-8"?>
<!-- Generator: Adobe Illustrator 24.2.1, SVG Export Plug-In . SVG Version: 6.00 Build 0)  -->
<svg version="1.1" id="barGraphSvg" xmlns="http://www.w3.org/2000/svg" xmlns:xlink="http://www.w3.org/1999/xlink" x="0px"
	 y="0px" width="3840px" height="2160px" viewBox="0 0 3840 2160" enable-background="new 0 0 3840 2160" xml:space="preserve">
<g id="_x2D_.contentScene-">
	<g id="_x2D_.moveElements-">
		<g>
			<g>
				<polygon fill="none" stroke="#00C0F2" stroke-width="3" stroke-miterlimit="10" points="1425.34,2040.53 1425.34,1375.81 
					1698.96,1293.09 1700.96,2092.74 				"/>
				<polygon fill="none" stroke="#00C0F2" stroke-width="3" stroke-miterlimit="10" points="2109.32,1370.87 1700.28,1293.09 
					1700.28,2092.74 2109.32,2055.98 				"/>
				<polyline fill="none" stroke="#00C0F2" stroke-width="3" stroke-miterlimit="10" points="1425.34,1375.81 1469.13,1468.21 
					1569.65,1333.68 1545.77,1608.13 1469.38,1466.96 1425.34,1646.19 1543.68,1610.32 1697.96,1566.84 1640.57,1363.45 
					1543.68,1610.32 				"/>
				<polyline fill="none" stroke="#00C0F2" stroke-width="3" stroke-miterlimit="10" points="1700.96,1293.09 1640.57,1363.45 
					1569.65,1333.68 				"/>
				<polyline fill="none" stroke="#00C0F2" stroke-width="3" stroke-miterlimit="10" points="1425.34,1646.19 1479.43,1784.06 
					1544.91,1610.77 1586.57,1723.17 1501.55,1835.77 1479.72,1786.4 1427.62,1930.53 1501.55,1836.4 1550.4,1962.81 
					1586.57,1723.11 1637.28,1844.36 1698.68,1756.45 1615.45,1676.51 1586.17,1721.68 				"/>
				<polyline fill="none" stroke="#00C0F2" stroke-width="3" stroke-miterlimit="10" points="1544.91,1610.77 1615.45,1676.51 
					1696.96,1567.84 				"/>
				<polyline fill="none" stroke="#00C0F2" stroke-width="3" stroke-miterlimit="10" points="1698.98,1984.36 1637.28,1844.36 
					1552.15,1962.81 1699.98,1984.36 				"/>
				<polyline fill="none" stroke="#00C0F2" stroke-width="3" stroke-miterlimit="10" points="1425.34,1947.48 1551.91,1962.81 
					1425.34,2040.53 				"/>
				
					<line fill="none" stroke="#00C0F2" stroke-width="3" stroke-miterlimit="10" x1="1550.91" y1="1965.6" x2="1697.68" y2="2090.08"/>
				<polyline fill="none" stroke="#00C0F2" stroke-width="3" stroke-miterlimit="10" points="1700.96,1293.09 1848.44,1401.47 
					1928,1454.32 2109.32,1370.87 2020.87,1503.72 2108.6,1557.13 1966.87,1595.64 1928,1454.32 2020.87,1503.72 1992.26,1426.95 
					1956.04,1341.72 				"/>
				<polyline fill="none" stroke="#00C0F2" stroke-width="3" stroke-miterlimit="10" points="2020.87,1503.72 1966.87,1595.64 
					1896.87,1588.76 1928,1454.32 1778.45,1529 1698.97,1297.46 				"/>
				<polyline fill="none" stroke="#00C0F2" stroke-width="3" stroke-miterlimit="10" points="1701.06,1565.84 1778.45,1529 
					1799.13,1576.11 1896.87,1588.76 1860.93,1754.19 1797.98,1574.6 1701.06,1566.84 1860.93,1754.19 1791.43,1852.79 
					1702.06,1567.84 				"/>
				<polyline fill="none" stroke="#00C0F2" stroke-width="3" stroke-miterlimit="10" points="1966.87,1595.64 1860.93,1754.19 
					2000.74,1912.3 1966.87,1595.64 				"/>
				<polyline fill="none" stroke="#00C0F2" stroke-width="3" stroke-miterlimit="10" points="2107.9,1559.84 2000.74,1912.3 
					2107.45,1907 				"/>
				<polyline fill="none" stroke="#00C0F2" stroke-width="3" stroke-miterlimit="10" points="1860.93,1754.19 1824.4,1936.87 
					1791.43,1852.79 1702.98,1984.36 1824.4,1942.87 1704.28,2088.74 1896.87,1972.49 1824.4,1942.87 1992.15,1914.36 
					1902.24,1973.03 2107.45,2040.68 2000.74,1912.3 				"/>
				
					<line fill="none" stroke="#00C0F2" stroke-width="3" stroke-miterlimit="10" x1="1896.87" y1="2075.07" x2="1896.87" y2="1972.49"/>
				
					<line fill="none" stroke="#00C0F2" stroke-width="3" stroke-miterlimit="10" x1="1956.04" y1="1341.72" x2="1848.44" y2="1401.47"/>
				<rect fill="none" width="3840" height="2160"/>
			</g>
		</g>
		<g>
			<g>
				<polygon fill="none" stroke="#00C0F2" stroke-width="3" stroke-miterlimit="10" points="2110.32,883 2112.13,2057.21 
					2231.13,2065.21 2231.13,788.68 				"/>
				<polygon fill="none" stroke="#00C0F2" stroke-width="3" stroke-miterlimit="10" points="2410.77,875.47 2231.13,788.68 
					2229.79,2065.21 2411.89,2063.21 				"/>
				<polyline fill="none" stroke="#00C0F2" stroke-width="3" stroke-miterlimit="10" points="2228.23,794.33 2170.72,913.17 
					2110.32,883 2142.96,963.43 2170.72,913.17 2229.23,959.43 2161.04,993.6 2142.81,965.47 2112.54,1024.62 2162.19,994.94 
					2188.17,1069.83 2229.23,960.43 				"/>
				<polyline fill="none" stroke="#00C0F2" stroke-width="3" stroke-miterlimit="10" points="2110.54,1024.62 2167.28,1147.55 
					2188.61,1072.79 2227.13,1272.92 2167.39,1144.19 2111.05,1372.45 2229.23,1275.68 2151.85,1460.06 2111.07,1376.2 				"/>
				<polyline fill="none" stroke="#00C0F2" stroke-width="3" stroke-miterlimit="10" points="2108.6,1557.13 2151.85,1460.06 
					2229.23,1641.85 2108.6,1557.13 2173.81,1762.23 2229.23,1643.19 				"/>
				<polyline fill="none" stroke="#00C0F2" stroke-width="3" stroke-miterlimit="10" points="2112.38,1892.32 2174.72,1761.28 
					2229.23,1936.13 2114.38,1903.85 				"/>
				
					<line fill="none" stroke="#00C0F2" stroke-width="3" stroke-miterlimit="10" x1="2230.23" y1="1936.13" x2="2112.13" y2="2059.21"/>
				<polyline fill="none" stroke="#00C0F2" stroke-width="3" stroke-miterlimit="10" points="2405.77,875.47 2322.84,917.32 
					2233.12,792.83 2252.96,948.47 2323.84,917.21 2411.09,1030.47 2258.7,968.32 2252.96,948.47 2233.02,959.43 2258.7,967.51 
					2298.32,1180.53 2411.89,1032.97 2324.55,1371.6 2298.32,1181.62 2231.13,1274.92 2325.84,1374 2232.43,1641 2320.84,1595.64 
					2325.84,1374 2409.62,1553.13 2320.84,1595.64 2411.09,1812.34 2328.79,1872.53 2275.94,1748.45 2320.84,1595.64 				"/>
				<polyline fill="none" stroke="#00C0F2" stroke-width="3" stroke-miterlimit="10" points="2231.72,1643.91 2274.49,1749 
					2232.72,1934.13 2329.23,1872.04 2410.7,2048.36 2232.13,1937.13 				"/>
				<rect fill="none" width="3840" height="2160"/>
			</g>
		</g>
		<g>
			<g>
				<polygon fill="none" stroke="#00C0F2" stroke-width="3" stroke-miterlimit="10" points="2411.09,1023.47 2627.43,948.47 
					2621.77,2074.43 2411.09,2064.21 				"/>
				<polygon fill="none" stroke="#00C0F2" stroke-width="3" stroke-miterlimit="10" points="2947.47,1029.6 2628.09,948.47 
					2625.09,2074.43 2948.47,2044.26 				"/>
				<polyline fill="none" stroke="#00C0F2" stroke-width="3" stroke-miterlimit="10" points="2624.53,1175.03 2529.09,989.77 
					2532.15,1112.32 2624.4,1175.53 2533.68,1237.51 2531.96,1111.64 2413.09,1025.47 2488.49,1261.68 2532.15,1237.34 
					2536.04,1402.96 2624.53,1178.15 				"/>
				<polyline fill="none" stroke="#00C0F2" stroke-width="3" stroke-miterlimit="10" points="2624.23,1407.21 2535.21,1407.21 
					2488.49,1261.68 2413.09,1310.63 2535.21,1407.21 2623.58,1715.13 2496.15,1627.21 2535.21,1407.21 2412.02,1552.28 
					2496.15,1627.81 2414.56,2048.5 2622.29,1978.5 2560.49,1814.7 2415.56,2048.5 				"/>
				<polyline fill="none" stroke="#00C0F2" stroke-width="3" stroke-miterlimit="10" points="2623.58,1715.13 2560.49,1814.7 
					2496.15,1627.81 				"/>
				<polyline fill="none" stroke="#00C0F2" stroke-width="3" stroke-miterlimit="10" points="2628.09,948.47 2661.98,1161.34 
					2806.74,1113.64 2628.09,948.47 				"/>
				<polyline fill="none" stroke="#00C0F2" stroke-width="3" stroke-miterlimit="10" points="2947.47,1029.6 2809.49,1113.64 
					2848.96,1004.83 				"/>
				<polyline fill="none" stroke="#00C0F2" stroke-width="3" stroke-miterlimit="10" points="2628.4,1178.53 2662.23,1162.38 
					2687.26,1303.81 2804.74,1117.72 2756.19,1470.06 2715.57,1448.57 2687.66,1302.6 2627.09,1403.51 2715.57,1450.06 
					2738.36,1579.7 2626.55,1409.95 				"/>
				<polyline fill="none" stroke="#00C0F2" stroke-width="3" stroke-miterlimit="10" points="2946.87,1182.53 2807.94,1116.28 
					2948.87,1380.79 2820.53,1493.38 2807.14,1116.28 				"/>
				<polyline fill="none" stroke="#00C0F2" stroke-width="3" stroke-miterlimit="10" points="2820.94,1495.79 2756.94,1471.15 
					2740.11,1584.7 2820.53,1493.87 2891.77,1593.34 2946.17,1384.55 				"/>
				<polyline fill="none" stroke="#00C0F2" stroke-width="3" stroke-miterlimit="10" points="2820.53,1496.45 2848.11,1761.28 
					2740.11,1582.79 2628.09,1717.26 2848.11,1764.28 2892.91,1595.23 2950.17,1677.55 2848.45,1762.23 2946.17,2033.38 
					2755.04,1857.7 2848.11,1764.28 				"/>
				<polyline fill="none" stroke="#00C0F2" stroke-width="3" stroke-miterlimit="10" points="2627.7,1718.81 2754.3,1857.74 
					2628.09,1975.45 2948.17,2042.38 				"/>
				<rect fill="none" width="3840" height="2160"/>
			</g>
		</g>
		<g>
			<g>
				<polygon fill="none" stroke="#00C0F2" stroke-width="3" stroke-miterlimit="10" points="2948.47,368.57 3159.17,284.85 
					3157.17,2065.21 2948.47,2044.26 				"/>
				<polygon fill="none" stroke="#00C0F2" stroke-width="3" stroke-miterlimit="10" points="3159.85,284.85 3490.36,366.28 
					3490.36,2027.64 3157.17,2065.21 				"/>
				<polyline fill="none" stroke="#00C0F2" stroke-width="3" stroke-miterlimit="10" points="2948.87,374.32 2996.32,544.36 
					3056.41,327.79 3157.17,475.43 3066.4,588.02 3056.66,330.66 				"/>
				<polyline fill="none" stroke="#00C0F2" stroke-width="3" stroke-miterlimit="10" points="2948.87,727.15 2997.47,543.4 
					3021.6,645.47 3066.4,589.51 3081.6,870.47 3019.95,649.93 2948.87,731.83 3080.6,871.81 3157.17,475.43 				"/>
				<polyline fill="none" stroke="#00C0F2" stroke-width="3" stroke-miterlimit="10" points="3157.17,782.19 3082.09,871.81 
					3157.17,1128.02 3065.26,1422.15 3082.19,873.3 2950.17,1034.96 2997.47,1194.86 3082.15,876.13 				"/>
				<polyline fill="none" stroke="#00C0F2" stroke-width="3" stroke-miterlimit="10" points="2950.05,1381.08 2997.62,1191.45 
					3065.26,1422.15 2950.17,1382.55 3031.94,1593.34 3066.26,1421.34 3156.72,1913.06 3033.09,1594.83 2948.17,2042.38 
					3156.72,1914.19 				"/>
				<polyline fill="none" stroke="#00C0F2" stroke-width="3" stroke-miterlimit="10" points="3161.69,287.63 3246.79,395 
					3321.27,325.79 3376.62,561.6 3401.64,344.29 				"/>
				<polyline fill="none" stroke="#00C0F2" stroke-width="3" stroke-miterlimit="10" points="3490.36,366.28 3376.62,561.6 
					3246.79,395 3161.17,475.43 3376.62,561.6 3270.91,860.32 3160.05,476.56 				"/>
				<polyline fill="none" stroke="#00C0F2" stroke-width="3" stroke-miterlimit="10" points="3376.62,561.6 3488.62,813.91 
					3270.91,860.32 3416.83,1014.28 3487.53,816.55 				"/>
				<polyline fill="none" stroke="#00C0F2" stroke-width="3" stroke-miterlimit="10" points="3157.17,782.19 3270.91,860.32 
					3157.17,1128.02 3226.96,1157.45 3270.91,860.32 3342,1216.3 3415.68,1013.17 3488.53,1091 3344,1215.3 3226.96,1157.45 				"/>
				<polyline fill="none" stroke="#00C0F2" stroke-width="3" stroke-miterlimit="10" points="3226.77,1158.34 3160.89,1581.83 
					3342,1216.3 3314.96,1568.83 3490.47,1553.45 3342,1216.3 				"/>
				<polyline fill="none" stroke="#00C0F2" stroke-width="3" stroke-miterlimit="10" points="3314.96,1568.83 3159.89,1587.34 
					3300.11,1797.32 3314.96,1568.83 				"/>
				<polyline fill="none" stroke="#00C0F2" stroke-width="3" stroke-miterlimit="10" points="3488.59,1556.34 3353.79,1878.6 
					3300.11,1797.32 3279.76,2046.39 3158.53,1589.34 				"/>
				<polyline fill="none" stroke="#00C0F2" stroke-width="3" stroke-miterlimit="10" points="3157.89,1913.34 3279.9,2050.24 
					3353.32,1879.77 3488.59,2027.51 				"/>
				<rect fill="none" width="3840" height="2160"/>
			</g>
		</g>
		<g>
			<g>
				<line fill="none" stroke="#00C0F2" stroke-width="3" stroke-miterlimit="10" x1="1425.34" y1="2040.53" x2="666.28" y2="2160"/>
				<polygon fill="none" stroke="#00C0F2" stroke-width="3" stroke-miterlimit="10" points="1415.38,2075.07 1082.19,2144.83 
					1596.91,2109.95 				"/>
				<polygon fill="none" stroke="#00C0F2" stroke-width="3" stroke-miterlimit="10" points="2107.45,2090.08 1718.7,2144.83 
					2413.09,2160 				"/>
				<polygon fill="none" stroke="#00C0F2" stroke-width="3" stroke-miterlimit="10" points="2740.11,2109.95 2401.17,2104.18 
					2915.7,2198.17 				"/>
				<path fill="none" stroke="#00C0F2" stroke-width="3" stroke-miterlimit="10" d="M3281.67,2092.74l-308.33,74.11
					c0,0,533.11-38.63,540-41.82C3520.23,2121.85,3281.67,2092.74,3281.67,2092.74z"/>
				<rect fill="none" width="3840" height="2160"/>
			</g>
		</g>
		<g>
			<g>
				
					<text transform="matrix(1 0 0 1 171.3667 366.6353)" fill="#012B48" font-family="'HelveticaNeueLTStd-Hv'" font-size="140.0524px">You can earn a</text>
				<rect fill="none" width="3840" height="2160"/>
			</g>
		</g>
		<g>
			<g>
				
					<text transform="matrix(1 0 0 1 2320.0901 368.7358)" fill="#012B48" font-family="'HelveticaNeueLTStd-Hv'" font-size="140.0524px">Bonus</text>
				<rect fill="none" width="3840" height="2160"/>
			</g>
		</g>
		<g>
			<g>
				
					<text transform="matrix(1 0 0 1 1189.7046 727.2461)" fill="#012B48" font-family="'HelveticaNeueLTStd-ThIt'" font-size="701.4755px" letter-spacing="-41">10</text>
				
					<text transform="matrix(1 0 0 1 1958.6494 497.4268)" fill="#012B48" font-family="'HelveticaNeueLTStd-ThIt'" font-size="437.3498px" letter-spacing="-25">%</text>
				<rect fill="none" width="3840" height="2160"/>
			</g>
		</g>
	</g>
</g>
<rect fill="none" width="3840" height="2160"/>
</svg>
