<?xml version="1.0" encoding="utf-8"?>
<!-- Generator: Adobe Illustrator 24.2.1, SVG Export Plug-In . SVG Version: 6.00 Build 0)  -->
<svg version="1.1" id="brainSvg" xmlns="http://www.w3.org/2000/svg" xmlns:xlink="http://www.w3.org/1999/xlink" x="0px" y="0px"
	 width="3840px" height="2160px" viewBox="0 0 3840 2160" enable-background="new 0 0 3840 2160" xml:space="preserve">
<g id="_x2D_.contentScene-">
	<g id="_x2D_.contForPoint-">
		<g id="_x2D_.moveElements-_2_">
			<rect id="_x2D_.contForPointA-" x="1644.7" y="754.21" opacity="0.33" fill="#0010B9" width="3163.21" height="1724.86"/>
			<rect x="50.09" y="247.63" fill="none" width="3109.32" height="1747.37"/>
		</g>
	</g>
	<g id="_x2D_.moveElements-">
		<g>
			<g>
				
					<text transform="matrix(1 0 0 1 1080.6981 563.8525)" fill="#012B48" font-family="'HelveticaNeueLTStd-Bd'" font-size="131px" letter-spacing="-7">In 2021, you made some</text>
				<rect fill="none" width="3840" height="2160"/>
			</g>
		</g>
		<g>
			<g>
				
					<text transform="matrix(1 0 0 1 2602.7275 564.541)" fill="#012B48" font-family="'HelveticaNeueLTStd-ThIt'" font-size="310.1624px" letter-spacing="-17">smart</text>
				<rect fill="none" width="3840" height="2160"/>
			</g>
		</g>
		<g>
			<g>
				
					<text transform="matrix(1 0 0 1 1978.7507 858.8963)" fill="#012B48" font-family="'HelveticaNeueLTStd-ThIt'" font-size="310.1624px" letter-spacing="-17">agronomic</text>
				<rect fill="none" width="3840" height="2160"/>
			</g>
		</g>
		<g>
			<g>
				
					<text transform="matrix(1 0 0 1 2330.0088 1155.7036)" fill="#012B48" font-family="'HelveticaNeueLTStd-ThIt'" font-size="310.1624px" letter-spacing="-17">choices</text>
				<rect fill="none" width="3840" height="2160"/>
			</g>
		</g>
		<g>
			<g>
				<g>
					<path fill="#F2F2F2" d="M880.88,1652.98l37.88,101.5c0,0,218,62.07,215.83,62.98c-1.77,0.66,177.85-82.61,177.85-82.61
						l280.32,272.96l291.53,24.88l132.3-55.07l42.78-170.26l50.85-45.64l91.24-392.67l-106.17-240l-194.27-218.74l-469.62-160.62
						h-365.71l-225.84,58.67l-113.99,93.63l-185.06,129.8l-30.85,55.4l-20.18,182.69l17.2,143.45l22.52,83.91l34.08,71.68
						c0,0,97.66,75.56,97.14,75.37C661.69,1644.14,880.88,1652.98,880.88,1652.98z M1652.57,1454.64c-0.17,0.01-0.33,0.02-0.5,0.03
						c0.18-0.02,0.36-0.05,0.54-0.07C1652.59,1454.61,1652.58,1454.63,1652.57,1454.64z"/>
					<path fill="#F2F2F2" d="M1690.45,827.57c13.1,3.49,25.93,7.67,37.82,14.35c12.67,8.05,20.64,20.54,30.01,31.7
						c5.04,3.69,10.89,5.86,16.39,8.68c4.6,2.57,9.37,4.82,14.08,7.16c2.93,1.54,5.88,3.03,8.83,4.54c1.02,0.52,2.02,1.1,3.02,1.64
						c0.32,0.16,0.64,0.34,0.96,0.5c0.31,0.16,0.62,0.35,0.93,0.51c0.9,0.49,1.8,1,2.71,1.47c0.6,0.26,1.18,0.59,1.73,0.95
						c0.84,0.47,1.69,0.92,2.57,1.32c0.61,0.24,1.17,0.54,1.72,0.88c0.88,0.45,1.77,0.88,2.67,1.31c0.63,0.3,1.21,0.67,1.77,1.08
						c0.89,0.64,1.77,1.27,2.7,1.85c2.09,1.22,4.35,2.06,6.56,3.03c11.76,5.03,22.41,12.13,33.8,17.82
						c2.38,1.19,4.53,2.63,5.61,5.21c24.05,13.27,47.97,26.77,70.54,42.5c3.81,2.65,7.57,5.37,11.36,8.05c0,0,0.54,0.83,0.54,0.83
						l-0.48,0.87l0.06-0.04c-2.21,2.34-5.44,1.59-8.08,2.63c-1.39,0.32-2.73,0.84-4.14,1.11c-3.23,0.47-6.62-0.4-9.73,1.15
						c-1.28,0.6-2.64,0.91-4.05,0.97c-2.72,0.18-5.53-0.31-8.09,1.07c-1.68,0.84-3.49,0.95-5.31,0.96c-2.68,0.13-5.4-0.29-8.02,0.61
						c-0.84,0.35-1.67,0.72-2.48,1.13c-4.77,1.85-9.92,1.26-14.82,2.26c-2.61,0.09-5.25-0.17-7.85,0.33
						c-0.81,0.29-1.61,0.6-2.4,0.93c-2.02,0.81-4.18,1.08-6.25,1.71c-1.77,0.09-3.56-0.09-5.32,0.29c-1.73,0.71-3.54,0.73-5.36,0.74
						c-2.69,0.12-5.46-0.35-8.01,0.97c-1.63,0.83-3.39,1-5.18,1c-2.56,0.1-5.14-0.19-7.68,0.39c-0.8,0.3-1.59,0.62-2.37,0.96
						c-2.04,0.72-4.18,1.09-6.27,1.64c-2.24,0.02-4.5-0.09-6.64,0.78c-2.31,0.29-4.66,0.38-6.89,1.18
						c-3.77,0.41-7.79-0.9-11.22,1.72c-1.94,0.52-3.93,0.25-5.89,0.42c-3.04-0.02-5.89,0.85-8.71,1.83
						c-3.44,0.35-6.96-0.4-10.34,0.75c-2.8,0.63-5.78-0.04-8.49,1.19c-1.81,0.27-3.54,0.91-5.37,1.08c-2.6,0.19-5.24-0.15-7.83,0.46
						c-0.81,0.31-1.61,0.63-2.4,0.98c-2.07,0.68-4.21,1.12-6.33,1.61c-3.06,0.2-6.17-0.4-9.18,0.57c-2.5,0.76-5.17,0.1-7.66,0.94
						c-0.74,0.44-1.52,0.8-2.32,1.11c-2.11,0.4-4.26,0.65-6.31,1.35c-1.35,0.06-2.69,0.05-4.05,0.05c-2.41-0.11-4.64,1.08-7.06,0.96
						c-1.55,0.01-3.09-0.01-4.63-0.34c-3.25-1.13-5.71-3.27-7.68-6.03c-3.99-7.56-1.72-15.75-2.4-23.64
						c-0.31-7.41,0.99-14.92-1.35-22.21c-1.01-6.43-0.5-12.91-0.67-19.37c-0.22-8.14,0.95-16.36-1.58-24.35
						c-0.66-6.51-0.29-13.04-0.42-19.56c-0.21-8.19,0.95-16.46-1.59-24.5c-0.64-6.61-0.28-13.23-0.42-19.85
						c0.05-7.3,0.02-14.59,0.01-21.89C1687.9,835.64,1686.75,831.04,1690.45,827.57z"/>
					<path fill="#F2F2F2" d="M2052.15,1089.62c-2.65-1.26-4.55-3.3-5.99-5.8c0.46-0.5,0.61-1,0.46-1.49
						c-0.15-0.5-0.3-0.75-0.45-0.75l0.1,0.12c-0.69-0.72-1.39-1.43-2.12-2.12l0.12,0.12c-0.69-0.72-1.39-1.43-2.12-2.12l0.12,0.12
						c-0.69-0.72-1.39-1.43-2.12-2.12l0.12,0.12c-0.68-0.73-1.39-1.43-2.12-2.11l0.08,0.09c-7.57-10.38-18.39-17.74-26.04-28.05
						l0.09,0.09c-0.69-0.72-1.4-1.43-2.12-2.12l0.12,0.12c-0.69-0.72-1.39-1.43-2.12-2.11l0.12,0.12c-0.69-0.72-1.39-1.43-2.12-2.12
						l0.12,0.12c-0.69-0.72-1.39-1.43-2.12-2.12l0.12,0.12c-0.68-0.72-1.39-1.43-2.11-2.11l0.08,0.09
						c-7.57-10.38-18.39-17.74-26.04-28.05l0.08,0.09c-0.73-0.68-1.28-1.54-2.11-2.11c0,0,0.12,0.13,0.12,0.14
						c1.58-4.53,4.32-1.69,6.04-0.56c6.04,3.98,11.83,8.34,17.71,12.55c11.86,8.71,26.12,14.47,34.21,27.82c0,0,0,0.05,0,0.05
						c6.16,11.67,12.31,23.33,18.47,35C2052.24,1083.47,2054.56,1086.18,2052.15,1089.62z"/>
					<path fill="#F2F2F2" d="M1694.1,1015.57l-0.76,0.03l-0.76-0.08c-1.42-0.9-3.16-1.2-4.41-2.41c-0.62-0.6-1.15-1.27-1.63-1.97
						c-0.96-1.43-1.94-2.85-2.97-4.23c-0.56-0.71-1.05-1.45-1.53-2.21c-13.32-20.44-27.03-40.62-40.5-60.95
						c-1.03-1.4-2.13-2.75-3.24-4.08c-0.55-0.64-1.03-1.33-1.49-2.05c-0.89-1.39-1.77-2.78-2.73-4.12c-0.5-0.64-0.94-1.33-1.36-2.03
						c-0.85-1.37-1.73-2.73-2.68-4.04c-0.5-0.64-0.94-1.33-1.37-2.02c-0.86-1.39-1.76-2.75-2.73-4.07
						c-0.52-0.66-0.98-1.37-1.42-2.08c-0.92-1.45-1.9-2.86-2.89-4.27c-0.54-0.73-1.01-1.5-1.45-2.29
						c-13.44-20.6-27.51-40.79-40.87-61.44c-0.95-1.65-1.68-3.35-1.04-5.31c0.04-0.71,0.09-1.43,0.13-2.14
						c0.72-0.58,1.43-1.15,2.15-1.72c21.2-5.55,41.85-12.85,62.73-19.44c6.94-2.19,13.8-4.81,21.19-5.17
						c6.56,2.16,13.13,4.31,19.69,6.47c6.03,3.3,3.63,9.12,4.2,14.06c-0.04,8.07-0.24,16.14,0.98,24.16
						c0.02,6.44-0.02,12.88,0.02,19.32c2.04,8.06-0.04,16.45,1.94,24.51c0.08,6.48-0.01,12.97,0.06,19.45
						c2.04,8.07-0.04,16.47,1.95,24.54c0.14,6.5-0.12,13,0.15,19.5c2.15,7.53-0.34,15.41,1.78,22.94
						C1694.71,1000.14,1696.84,1007.97,1694.1,1015.57z"/>
					<path fill="#F2F2F2" d="M489.92,1264.75c3.3-32.96,6.54-65.92,9.91-98.87c2.13-20.77,4.44-41.52,6.7-62.27
						c0.14-1.31,0.52-2.59,0.78-3.88c5.12,1.28,4.3,6.07,5.4,9.54c8.6,27.13,15.77,54.69,24.7,81.71c1.91,4.15,0.46,7.92-1.31,11.65
						c-1.48,2.52-3.78,4.43-5.22,6.98l0.09-0.11c-1.55,1.91-2.61,4.15-4.08,6.11l0.08-0.1c-6.54,8.33-11.67,17.64-18.07,26.07
						l0.07-0.09c-4.83,6.14-8.84,12.84-13.25,19.27C494.31,1262.79,493.35,1265.58,489.92,1264.75z"/>
					<path fill="#F2F2F2" d="M1566.26,1983.02c-1.27-0.07-2.53-0.14-3.8-0.21c0,0,0.09,0.11,0.09,0.11
						c-1.15-1.17-2.77-0.88-4.15-1.36c-0.94-0.59-1.83-1.29-2.94-1.57c-1.13-0.11-2.23-0.27-3.05-1.18l0.12,0.08
						c-3.05-2.03-7.32-1.2-9.94-4.23c-1.17-1.51-2.84-1.77-4.6-1.8c-1.45-2.46-0.35-4.41,1.23-6.27c0.66-0.65,1.4-1.21,2.19-1.69
						c7.82-3.74,15.3-8.23,23.49-11.24c5.4-0.17,9.84,2.34,14.18,5.11c0.66,0.59,1.27,1.25,1.83,1.93c0.28,0.32,0.55,0.67,0.83,0.99
						c2.04,2.61,4.4,4.93,6.69,7.31c0.83,0.82,1.61,1.69,2.39,2.55c0.79,0.79,1.55,1.62,2.33,2.42c0.55,0.5,1.07,1.03,1.58,1.57
						c0.27,0.26,0.52,0.54,0.79,0.8c0.56,0.52,1.09,1.07,1.62,1.63c0.28,0.28,0.54,0.57,0.82,0.85c0.58,0.57,1.09,1.19,1.6,1.83
						c0.55,0.65,1.04,1.34,1.53,2.03c4.36,6.7,12.25,10.44,15.29,18.23c0.08,0.63,0.02,1.24-0.17,1.85
						c-3.44,0.27-6.27-2.68-9.81-1.88c-2.69-2.94-6.03-4.25-9.99-4c-2.74-2.82-5.98-4.38-10-3.99c-0.67-2.01-2.33-2.02-4.02-1.98
						c-1.45-2.43-3.76-2.16-6.06-1.94c-0.59-2.14-2.32-1.98-3.97-1.96c-0.7-1.79-2.32-2.08-3.92-2.41
						C1567.65,1984.18,1566.92,1983.66,1566.26,1983.02z"/>
					<path fill="#F2F2F2" d="M1648.72,2028.65c-1.24-1.56-2.47-3.11-4.44-3.82c0,0,0.17,0.13,0.17,0.13
						c-0.46-0.39-0.63-0.8-0.51-1.23c0.12-0.44,0.25-0.66,0.39-0.66c-2.58-2.07-5.16-4.15-7.74-6.22c-0.75,0.68-1.5,0.68-2.26,0
						l0.12,0.11c-0.47-0.44-0.64-0.88-0.5-1.34c0.14-0.46,0.28-0.69,0.44-0.69c-0.67-1.37-1.34-2.74-2.02-4.11
						c-0.32-2.19,1.17-3.02,2.81-3.76c4.04-1.13,8.07-0.81,12.11,0.02c11.1,2.18,22.32,0.56,33.47,1c16.95,0.2,33.9-0.29,50.83,0.25
						c1.15,0.12,2.25,0.44,3.29,0.93c4.99,8.09-5.09,5.98-6.59,9.69l0.13-0.1c-1.15,1.17-3.05,0.86-4.16,2.1l0.14-0.1
						c-3.36,2.58-7.44,3.85-11.06,5.94c-0.91,0.88-2.14,1.3-3.06,2.16l0.14-0.12c-1.37,0.96-2.96,1.6-4.21,2.76
						c-2.03,0.1-3.48,2.75-5.85,1.3c-2.4,1.1-4.75,2.44-7.56,2.02C1678.13,2032.71,1663.21,2032.22,1648.72,2028.65z"/>
					<path fill="#F2F2F2" d="M1993.88,1968.86c-5.99,5.18-11.98,10.36-17.97,15.54c-2.77,2.55-4.88,6.21-9.52,5.62
						c-2.85-1.06-5.29-2.76-7.56-4.76c-4.12-4.51-2.63-10.64-4.59-15.78c-0.39-1.97-0.51-3.97-0.6-5.98
						c0.09-2.98-0.95-5.84-1.05-8.8c0.26-2.72,1.28-4.75,4.44-4.74c2.74,1.76,6.2,1.79,8.87,3.71c1.75,0.41,3.16,1.56,4.79,2.25
						c1.29,0.1,2.61,0.12,3.64,1.11l-0.18-0.12c1.24,1.46,3.31,0.82,4.72,1.84c2.87,2.03,6.32,2.78,9.43,4.26l-0.16-0.1
						C1989.94,1964.99,1995.49,1963.48,1993.88,1968.86z"/>
					<polygon fill="#F2F2F2" points="1952.89,1947.14 1961.4,2018.86 2018.29,1975.5 					"/>
					<polygon fill="#F2F2F2" points="1958.37,1992.96 1887.5,2032.01 1960.77,2015.75 					"/>
					<polygon fill="#F2F2F2" points="1879.66,1998.7 1887.5,2032.01 1958.37,1992.96 					"/>
					<polygon fill="#F2F2F2" points="1750.35,2009.48 1885.6,2030.87 1880.04,1997.29 					"/>
					<polygon fill="#F2F2F2" points="2009.67,1935.54 2016.58,1977.62 2058.84,1925.97 					"/>
					<polygon fill="#F2F2F2" points="1952.89,1947.14 2018.29,1975.5 2005.7,1920.82 					"/>
					<polygon fill="#F2F2F2" points="2045.12,1867.16 2054.12,1932.64 2084.42,1844.28 					"/>
					<polygon fill="#F2F2F2" points="2082.78,1846.59 2045.12,1866.89 2035.1,1809.98 					"/>
					<polygon fill="#F2F2F2" points="2083.62,1811.05 2079.47,1848.69 2032.25,1804.71 					"/>
					<polygon fill="#F2F2F2" points="2072.3,1792.04 2083.62,1811.05 2035.1,1809.98 					"/>
					<polygon fill="#F2F2F2" points="2038.76,1786.08 2076.63,1791.52 2042.19,1807.29 					"/>
					<polygon fill="#F2F2F2" points="2029.61,1766.07 2111.34,1770.14 2069.42,1795.26 					"/>
					<polygon fill="#F2F2F2" points="1965.87,1696.07 2115.12,1770.35 1930.39,1765.46 					"/>
					<polygon fill="#F2F2F2" points="1940.64,1601.87 2115.12,1770.35 1969.34,1697.8 					"/>
					<polygon fill="#F2F2F2" points="1861.87,1481.71 2091.43,1746.5 1940.28,1605.53 					"/>
					<polygon fill="#A4CD38" points="2228.74,1592.22 2209.39,1729.55 2110.39,1755.62 					"/>
					<polygon fill="#F2F2F2" points="2166.51,1488.19 2228.74,1592.22 2106.83,1759.96 					"/>
					<polygon fill="#F2F2F2" points="2159.16,1475.68 2186.27,1233.1 2229.09,1592.49 					"/>
					<polygon fill="#F2F2F2" points="2140.16,1241.1 2186.47,1225.47 2165.07,1494.74 					"/>
					<polygon fill="#F2F2F2" points="2042.94,1046.46 2185.08,1225.12 2138.16,1240.1 					"/>
					<polygon fill="#F2F2F2" points="1960.16,984.22 2041.2,1042.6 2071,1106.52 					"/>
					<polygon fill="#F2F2F2" points="1893.23,857.86 2041.2,1042.6 1934.83,969.37 					"/>
					<polygon fill="#F2F2F2" points="1891.91,855.27 1937.83,970.37 1688.55,830.83 					"/>
					<polygon fill="#F2F2F2" points="1683.49,771.98 1893.23,857.86 1674.5,829.12 1626.78,774.62 					"/>
					<polygon fill="#F2F2F2" points="1626.78,774.62 1680.18,834.37 1580.55,842.09 					"/>
					<polygon fill="#F2F2F2" points="1683.49,771.98 1628.1,775.67 1503.42,733.9 					"/>
					<polygon fill="#F2F2F2" points="1627.33,774.95 1506.61,776.9 1379.04,749.68 1502.18,734.02 					"/>
					<polygon fill="#F2F2F2" points="1502.18,734.02 1378.04,750.68 1304.27,709.14 					"/>
					<polygon fill="#F2F2F2" points="1304.27,709.14 1196.51,835.19 1146.74,725.92 					"/>
					<polygon fill="#F2F2F2" points="1145.52,725.4 1193.16,827.84 1096.63,754.94 					"/>
					<polygon fill="#F2F2F2" points="1145.52,725.4 1097.53,752.98 848.33,785.6 					"/>
					<polygon fill="#F2F2F2" points="1096.63,753.94 847.89,786.97 821.07,842.55 					"/>
					<polygon fill="#F2F2F2" points="510.83,1287.49 489.75,1269.88 481.29,1358.47 					"/>
					<polygon fill="#F2F2F2" points="552.62,1327.54 510.83,1287.49 481.29,1358.47 					"/>
					<polygon fill="#F2F2F2" points="540.78,1334.71 481.29,1358.47 511.95,1393.02 					"/>
					<polygon fill="#F2F2F2" points="728.83,1565.3 563.54,1568.91 657.56,1650.23 					"/>
					<polygon fill="#F2F2F2" points="1028.4,1744.85 918.76,1754.47 1014.81,1781.06 					"/>
					<polygon fill="#F2F2F2" points="1140.23,1763.31 1002.77,1775.41 1133.22,1816.48 					"/>
					<polygon fill="#F2F2F2" points="1140.23,1763.31 1133.22,1816.48 1151.36,1813.61 					"/>
					<polygon fill="#F2F2F2" points="1140.23,1763.31 1151.36,1821.61 1230.53,1759.18 					"/>
					<polygon fill="#F2F2F2" points="1227.31,1756.43 1168.13,1809.11 1302.42,1738.12 					"/>
					<polygon fill="#F2F2F2" points="1302.61,1739.28 1429.52,1978.82 1324.51,1732.89 					"/>
					<polygon fill="#A4CD38" points="1324.46,1728.79 1429.52,1980.82 1532.58,1931.45 1429.89,1729.93 					"/>
					<polygon fill="#F2F2F2" points="1429.52,1977.82 1638.73,2193.36 1540.44,1930.64 					"/>
					<polygon fill="#A4CD38" points="1558.41,1979.01 1638.73,2193.36 1623.48,2003.75 					"/>
					<polygon fill="#F2F2F2" points="1644,2029.15 1727.83,2045.45 1702.68,2033.48 					"/>
					<polygon fill="#F2F2F2" points="1703.47,2034.76 1728.59,2045.44 1887.5,2032.01 1746,2007.8 					"/>
					<polygon fill="#F2F2F2" points="1096.42,1657.98 950.7,1563.69 734.48,1557 657.56,1650.23 					"/>
					<polygon fill="#F2F2F2" points="821.07,846.55 846.27,790.07 721.8,908.39 					"/>
					<polygon fill="#F2F2F2" points="1304.27,709.14 1291.94,773.67 1197.03,830.83 					"/>
					<polygon fill="#F2F2F2" points="1304.27,709.14 1380.04,753.68 1289.19,787.8 					"/>
					<polygon fill="#F2F2F2" points="1376.58,755.94 1356.67,843.49 1273.84,793.43 					"/>
					<polygon fill="#F2F2F2" points="1379.04,749.68 1505.61,776.9 1357.18,841.87 					"/>
					<polygon fill="#F2F2F2" points="1506.61,776.9 1626.78,774.62 1576.32,847.93 					"/>
					<polygon fill="#F2F2F2" points="2232.17,1397.51 2186.47,1228.47 2228.09,1578.08 					"/>
					<polygon fill="#F2F2F2" points="2213.73,1283.99 2184.08,1224.12 2232.08,1400.82 					"/>
					<polygon fill="#F2F2F2" points="2232.17,1397.51 2256.31,1576.73 2209.39,1726.56 2227.09,1594.49 					"/>
					<polygon fill="#F2F2F2" points="1953.33,1767.53 2029.61,1766.07 2073.47,1793.14 					"/>
					<polygon fill="#F2F2F2" points="1972.89,1817.15 1982.02,1776 2042.19,1807.29 					"/>
					<polygon fill="#F2F2F2" points="2112.11,1770.27 2209.39,1729.55 2107.77,1755.72 					"/>
					<polygon fill="#F2F2F2" points="2045.12,1869.89 2009.8,1936.74 2057.22,1931.74 					"/>
					<polygon fill="#F2F2F2" points="546.04,1454.83 529.47,1497.23 563.54,1568.91 					"/>
					<polyline fill="none" stroke="#012B48" stroke-miterlimit="10" points="507.3,1099.71 541.21,1197.82 724.8,901.39 
						662.08,1278.64 820.71,1139.83 951.77,974 1265.07,1007.04 1177.49,902.26 1520.75,935.93 1695.39,1023.24 1632.44,1095.66 
						1897.65,1303.95 2155.99,1400.27 2164.17,1505.13 					"/>
					<polyline fill="none" stroke="#012B48" stroke-miterlimit="10" points="2146.07,1288.93 1895.19,1301.56 2096.27,1158.18 
						1695.39,1023.24 1962.16,988.22 2072,1107.52 					"/>
					<polyline fill="none" stroke="#012B48" stroke-miterlimit="10" points="1688.45,826.12 1692.58,1015.52 1578.27,845.96 					
						"/>
					<line fill="none" stroke="#012B48" stroke-miterlimit="10" x1="1520.11" y1="932.4" x2="1274.68" y2="1008.12"/>
					<line fill="none" stroke="#012B48" stroke-miterlimit="10" x1="1508.44" y1="927.84" x2="1260.53" y2="790.07"/>
					<polyline fill="none" stroke="#012B48" stroke-miterlimit="10" points="1162.5,800.35 1177.49,902.26 916.62,811.95 					"/>
					<polyline fill="none" stroke="#012B48" stroke-miterlimit="10" points="870.87,827.84 951.77,974 1176.65,899.69 					"/>
					<polyline fill="none" stroke="#012B48" stroke-miterlimit="10" points="489.75,1269.87 541.21,1197.82 662.08,1278.64 
						544.84,1446.47 1011.55,1619.53 					"/>
					<line fill="none" stroke="#012B48" stroke-miterlimit="10" x1="666.83" y1="1287.67" x2="1012.84" y2="1602.53"/>
					<line fill="none" stroke="#012B48" stroke-miterlimit="10" x1="1020.08" y1="1599.32" x2="960.59" y2="1452.9"/>
					<polyline fill="none" stroke="#012B48" stroke-miterlimit="10" points="570.87,1576.09 658.96,1651.41 726.83,1567.3 					"/>
					<line fill="none" stroke="#012B48" stroke-miterlimit="10" x1="646.9" y1="1283.64" x2="544.81" y2="1315.81"/>
					<polyline fill="none" stroke="#012B48" stroke-miterlimit="10" points="1039.32,1519.08 1034.14,1595.63 1060.38,1537.4 					
						"/>
					<polyline fill="none" stroke="#012B48" stroke-miterlimit="10" points="1076.08,1239.64 1134.64,1372.58 1207.08,1207.43 					
						"/>
					<polyline fill="none" stroke="#012B48" stroke-miterlimit="10" points="1199.12,1589.1 1140.23,1763.31 1592.75,1628.85 
						1496.47,1599.56 					"/>
					<polyline fill="none" stroke="#012B48" stroke-miterlimit="10" points="1595.89,1628.62 1808.2,1546.72 1755.87,1615.63 
						1969.34,1691.15 1940.28,1605.53 1758.21,1616.48 					"/>
					<polyline fill="none" stroke="#012B48" stroke-miterlimit="10" points="1680.33,1683.71 1750.87,1621.63 1592.33,1678.9 
						1560.52,1753.04 1648.36,1683.13 					"/>
					<polyline fill="none" stroke="#012B48" stroke-miterlimit="10" points="1638.36,1741.08 1760.51,1679.33 1713.42,1741.66 					
						"/>
					<polyline fill="none" stroke="#012B48" stroke-miterlimit="10" points="1566.37,1756.54 1583.46,1763.29 1606.49,1767.84 
						1642.45,1777.15 1689.37,1809.11 1725.39,1745.06 1874.28,1711.06 					"/>
					<polyline fill="none" stroke="#012B48" stroke-miterlimit="10" points="1746.25,1747.64 1790.1,1789.48 1908.4,1786.86 
						1826.4,1751.8 1880.28,1715.14 					"/>
					<path fill="none" stroke="#012B48" stroke-miterlimit="10" d="M1793.33,1789.9c0-1.52-103.96,19.21-103.96,19.21l121.76,36.89
						l56.89,20.13l-23.62,52.25l35.06,84.96l7.4,26.45"/>
					<polyline fill="none" stroke="#012B48" stroke-miterlimit="10" points="1879.28,2030.87 1745.57,2009.14 1881.92,1999.41 
						1819.23,1974.67 1773.33,1940.13 1841.39,1924.26 1824.18,1972.99 					"/>
					<polyline fill="none" stroke="#012B48" stroke-miterlimit="10" points="2038.28,1822.98 1989.13,1872.39 1976.65,1823.89 					
						"/>
					<polyline fill="none" stroke="#012B48" stroke-miterlimit="10" points="1559.41,1979.01 1638.73,2193.36 1435.86,1983.91 					
						"/>
					<polyline fill="none" stroke="#012B48" stroke-miterlimit="10" points="1228.58,1759.21 1140.23,1763.31 1152.52,1818.88 					
						"/>
					<polyline fill="none" stroke="#012B48" stroke-miterlimit="10" points="1014.81,1773.17 1140.23,1763.31 1412.08,1613.01 					
						"/>
					<polyline fill="none" stroke="#012B48" stroke-miterlimit="10" points="1745.9,1616.64 1592.75,1628.85 1509.05,1684.89 
						1560.52,1753.04 					"/>
					<line fill="none" stroke="#012B48" stroke-miterlimit="10" x1="1060.8" y1="1657.58" x2="985.5" y2="1725.22"/>
					<polyline fill="none" stroke="#012B48" stroke-miterlimit="10" points="975.1,1706.8 915.79,1755.24 992.58,1747.17 					"/>
					<polyline fill="none" stroke="#012B48" stroke-miterlimit="10" points="1132.59,1814.46 918.76,1754.47 879.17,1652.98 					
						"/>
					<line fill="none" stroke="#012B48" stroke-miterlimit="10" x1="958.66" y1="1653.41" x2="658.96" y2="1651.41"/>
					<polyline fill="none" stroke="#012B48" stroke-miterlimit="10" points="1022.9,1657.22 1098.47,1659.44 1108.46,1611.86 					
						"/>
					<line fill="none" stroke="#012B48" stroke-miterlimit="10" x1="1166.61" y1="1570.88" x2="1079.66" y2="1648.45"/>
					<line fill="none" stroke="#012B48" stroke-miterlimit="10" x1="1011.55" y1="1619.53" x2="1098.47" y2="1656.44"/>
					<polyline fill="none" stroke="#012B48" stroke-miterlimit="10" points="617.06,1573.19 545.02,1454.94 529.47,1497.23 					"/>
					<polyline fill="none" stroke="#012B48" stroke-miterlimit="10" points="510.83,1287.49 481.91,1357.81 511.22,1393.48 					"/>
					<line fill="none" stroke="#012B48" stroke-miterlimit="10" x1="534.73" y1="1335.71" x2="485.13" y2="1356.56"/>
					<polyline fill="none" stroke="#012B48" stroke-miterlimit="10" points="540.78,1031.79 725.84,901.98 951.77,974 					"/>
					<polyline fill="none" stroke="#012B48" stroke-miterlimit="10" points="918.87,1279.39 947.77,980 967.71,1204.85 
						1025.1,1166.76 					"/>
					<polyline fill="none" stroke="#012B48" stroke-miterlimit="10" points="906.71,1285.43 828.29,1144.51 896.48,1305.41 					"/>
					<polyline fill="none" stroke="#012B48" stroke-miterlimit="10" points="874.07,1329.11 939.81,1293.34 968.49,1327.07 					"/>
					<line fill="none" stroke="#012B48" stroke-miterlimit="10" x1="913.99" y1="1286.21" x2="1028.4" y2="1197.03"/>
					<line fill="none" stroke="#012B48" stroke-miterlimit="10" x1="943.72" y1="1290.49" x2="1025.07" y2="1205.47"/>
					<polyline fill="none" stroke="#012B48" stroke-miterlimit="10" points="823.07,839.55 847.89,786.97 1097.53,752.98 
						1145.85,724.94 1304.27,709.14 1503.43,734.87 1686.99,773.12 1893.23,857.86 1937.28,968.37 1756.28,870.89 					"/>
					<polyline fill="none" stroke="#012B48" stroke-miterlimit="10" points="2097.27,1160.18 2040.85,1041.72 1990.29,977.88 
						1893.23,857.86 					"/>
					<polyline fill="none" stroke="#012B48" stroke-miterlimit="10" points="2142.11,1239.53 2185.63,1225.57 2167.98,1455.64 					
						"/>
					<polyline fill="none" stroke="#012B48" stroke-miterlimit="10" stroke-dasharray="12" points="2186.47,1228.47 
						2228.74,1592.22 2110.41,1757.88 					"/>
					<polyline fill="none" stroke="#012B48" stroke-miterlimit="10" stroke-dasharray="12" points="2172.93,1500.15 
						2228.74,1592.22 2209.39,1726.56 2254.53,1577.12 2233.86,1403.67 2213.73,1283.99 2185.63,1225.57 2040.85,1041.72 					"/>
					<polyline fill="none" stroke="#012B48" stroke-miterlimit="10" points="1697.35,1026.69 1894.93,1303.62 2146.19,1599.28 					
						"/>
					<polyline fill="none" stroke="#012B48" stroke-miterlimit="10" points="1526.5,943.75 1633.5,1096.13 1263.96,1005.62 
						1307.89,1068.83 1404.8,1068.72 1436.38,1078.04 					"/>
					<polyline fill="none" stroke="#012B48" stroke-miterlimit="10" points="1218.26,1072.76 1261.45,1011.49 1162.12,1087.18 					
						"/>
					<line fill="none" stroke="#012B48" stroke-miterlimit="10" x1="952.63" y1="971.66" x2="661.72" y2="1276.26"/>
					<line fill="none" stroke="#012B48" stroke-miterlimit="10" x1="1148.74" y1="731.86" x2="1190.31" y2="820.18"/>
					<polyline fill="none" stroke="#012B48" stroke-miterlimit="10" stroke-dasharray="12" points="1206.54,818.81 1304.27,709.14 
						1376.74,750.28 1506.61,774.9 1518.11,925.4 					"/>
					<line fill="none" stroke="#012B48" stroke-miterlimit="10" x1="1291.94" y1="769.72" x2="1303.5" y2="711.83"/>
					<polyline fill="none" stroke="#012B48" stroke-miterlimit="10" points="1316.63,775.52 1376.58,755.94 1357.18,841.87 					"/>
					<polyline fill="none" stroke="#012B48" stroke-miterlimit="10" points="1488.61,793.43 1506.61,776.9 1628.1,775.67 
						1504.06,733.29 1376.74,750.28 					"/>
					<polyline fill="none" stroke="#012B48" stroke-miterlimit="10" points="2110.21,1761.72 1894.93,1303.62 1842.32,1335.27 					
						"/>
					<polyline fill="none" stroke="#012B48" stroke-miterlimit="10" points="1694.3,1557.35 1910.59,1376.01 1741.19,1276.2 
						1708.34,1245.39 1698.22,1223.58 1679.14,1195.69 1618.15,1147.34 1572.56,1118.09 1633.5,1096.13 1620.15,1148.34 					"/>
					<polyline fill="none" stroke="#012B48" stroke-miterlimit="10" points="1973.92,1808.85 1958.09,1768.92 2072.3,1792.04 
						2042.19,1807.29 1975.42,1817.33 1924.54,1799.71 1989.13,1874.39 2006.39,1921.97 1916.91,1835.66 1954.25,1946.86 
						1882.03,1999.36 1890.36,1925.35 1888.09,1881.61 					"/>
					<polyline fill="none" stroke="#012B48" stroke-miterlimit="10" points="2037.28,1810.76 2083.62,1846.73 2045.12,1867.16 
						2057.22,1931.74 2017.19,1935.95 					"/>
					<polyline fill="none" stroke="#012B48" stroke-miterlimit="10" points="2045.12,1869.89 2006.39,1921.97 2010.13,1941.06 					
						"/>
					<polyline fill="none" stroke="#012B48" stroke-miterlimit="10" points="1992.31,1929.02 1954.25,1946.86 2013.23,1974.47 					
						"/>
					<polyline fill="none" stroke="#012B48" stroke-miterlimit="10" points="1952.52,1954.8 1958.37,1992.96 1890.17,1996.77 					
						"/>
					<polyline fill="none" stroke="#012B48" stroke-miterlimit="10" points="1700.44,2035.47 1740.57,2013.14 1623.66,2004.5 
						1574.43,1952.81 1532.58,1964.69 1538.52,1890.85 					"/>
					<polyline fill="none" stroke="#012B48" stroke-miterlimit="10" points="1542.54,1970.95 1623.66,2004.5 1648.72,2028.65 					
						"/>
					<line fill="none" stroke="#012B48" stroke-miterlimit="10" x1="1928.09" y1="1734.84" x2="1831.58" y2="1750.41"/>
					<polyline fill="none" stroke="#012B48" stroke-miterlimit="10" points="1900.21,1809.05 1880.47,1855.21 1798.15,1793.07 
						1810.66,1838.59 1796.21,1871.99 1689.37,1809.11 1744.44,1880.44 1792.58,1873.11 					"/>
					<polyline fill="none" stroke="#012B48" stroke-miterlimit="10" points="1833.88,1891.35 1796.21,1876.99 1799.59,1908.03 
						1744.44,1880.44 1660.4,1890.35 1696.43,1998.97 1698.55,1927.44 1752.57,2011.14 1773.33,1940.13 1697.2,1928.39 					"/>
					<polyline fill="none" stroke="#012B48" stroke-miterlimit="10" points="1617.24,1986.64 1648.64,1868.13 1596.19,1952.81 
						1575.47,1922.97 1646.36,1867.11 1598.53,1890.84 1542.55,1898.68 1572.53,1922.93 1543.32,1926.3 					"/>
					<line fill="none" stroke="#012B48" stroke-miterlimit="10" x1="1884.28" y1="2032.68" x2="1731.1" y2="2044.91"/>
					<polyline fill="none" stroke="#012B48" stroke-miterlimit="10" points="1498.83,1856.94 1512.37,1922.97 1535.4,1931.15 
						1431.16,1981.5 1324.51,1732.89 					"/>
					<line fill="none" stroke="#012B48" stroke-miterlimit="10" x1="1488.91" y1="1838.46" x2="1536.65" y2="1880.6"/>
					<polyline fill="none" stroke="#012B48" stroke-miterlimit="10" points="1542.68,1753.2 1462.38,1764.83 1492.37,1801.15 
						1545.7,1880.59 1560.52,1753.04 1464.91,1727.3 1481.36,1695.66 					"/>
					<polyline fill="none" stroke="#012B48" stroke-miterlimit="10" points="1432.64,1704.91 1456.38,1764.83 1476.42,1791.12 
						1463.8,1824.74 1490.8,1841.26 					"/>
					<polyline fill="none" stroke="#012B48" stroke-miterlimit="10" points="1560.48,1862.7 1592.07,1886.73 1553.95,1807.36 					
						"/>
					<polyline fill="none" stroke="#012B48" stroke-miterlimit="10" points="1584.33,1773.05 1598.63,1884.75 1641.45,1786.15 					
						"/>
					<polyline fill="none" stroke="#012B48" stroke-miterlimit="10" points="1832.69,1445.28 2110.34,1768.14 1966.26,1697.08 
						1938.4,1747.21 					"/>
					<polyline fill="none" stroke="#012B48" stroke-miterlimit="10" points="1930.3,1603.17 1808.2,1546.72 1790.52,1483.28 					
						"/>
					<polyline fill="none" stroke="#012B48" stroke-miterlimit="10" points="1798.09,1547.07 1654.13,1563.69 1644.47,1442.4 
						1688.49,1369.47 					"/>
					<line fill="none" stroke="#012B48" stroke-miterlimit="10" x1="1719.78" y1="1331.51" x2="1907.85" y2="1376.58"/>
					<line fill="none" stroke="#012B48" stroke-miterlimit="10" x1="506.95" y1="1413.32" x2="544.84" y2="1446.47"/>
					<polyline fill="none" stroke="#012B48" stroke-miterlimit="10" points="1580.55,842.09 1628.1,773.67 1664.48,817.48 					"/>
					<line fill="none" stroke="#012B48" stroke-miterlimit="10" x1="1629.64" y1="776.17" x2="1683.49" y2="771.98"/>
					<polyline fill="none" stroke="#012B48" stroke-miterlimit="10" points="1903.64,1812.67 1893.91,1874.76 1918.21,1834.95 
						1988.19,1873.13 2038.22,1870.89 					"/>
					<line fill="none" stroke="#012B48" stroke-miterlimit="10" x1="1904.02" y1="1795.26" x2="1917.82" y2="1836.61"/>
					<line fill="none" stroke="#012B48" stroke-miterlimit="10" x1="1696.39" y1="831.72" x2="1882.81" y2="855.27"/>
					<circle fill="#A4CD38" cx="481.29" cy="1358.47" r="9.1"/>
					<circle fill="#A4CD38" cx="546.04" cy="1445.73" r="9.1"/>
					<circle fill="#A4CD38" cx="657.56" cy="1650.23" r="9.1"/>
					<circle fill="#A4CD38" cx="547.46" cy="1538.8" r="9.1"/>
					<circle fill="#A4CD38" cx="661.09" cy="1278.3" r="9.1"/>
					<circle fill="#A4CD38" cx="540.78" cy="1196.7" r="9.1"/>
					<circle fill="#A4CD38" cx="723.2" cy="897.98" r="9.1"/>
					<circle fill="#A4CD38" cx="950.7" cy="973.81" r="9.1"/>
					<circle fill="#A4CD38" cx="820.48" cy="1141.51" r="9.1"/>
					<circle fill="#A4CD38" cx="965.22" cy="1199.99" r="9.1"/>
					<circle fill="#A4CD38" cx="1087" cy="1093.17" r="9.1"/>
					<circle fill="#A4CD38" cx="1175.36" cy="901.2" r="9.1"/>
					<circle fill="#A4CD38" cx="1520.75" cy="935.93" r="9.1"/>
					<circle fill="#A4CD38" cx="1696.53" cy="1022.16" r="9.1"/>
					<circle fill="#A4CD38" cx="1145.52" cy="725.4" r="9.1"/>
					<circle fill="#A4CD38" cx="1304.27" cy="709.14" r="9.1"/>
					<circle fill="#A4CD38" cx="1379.04" cy="753.68" r="9.1"/>
					<circle fill="#A4CD38" cx="1502.18" cy="735.02" r="9.1"/>
					<circle fill="#A4CD38" cx="1683.6" cy="773.67" r="9.1"/>
					<circle fill="#A4CD38" cx="1627.33" cy="776.95" r="9.1"/>
					<circle fill="#A4CD38" cx="1891.91" cy="855.27" r="9.1"/>
					<circle fill="#A4CD38" cx="1937.83" cy="964.37" r="9.1"/>
					<circle fill="#A4CD38" cx="2041.2" cy="1042.6" r="9.1"/>
					<circle fill="#A4CD38" cx="2184.08" cy="1224.12" r="9.1"/>
					<circle fill="#A4CD38" cx="2219.06" cy="1281.54" r="9.1"/>
					<circle fill="#A4CD38" cx="2232.17" cy="1397.51" r="9.1"/>
					<circle fill="#A4CD38" cx="2155.97" cy="1400.82" r="9.1"/>
					<circle fill="#A4CD38" cx="2256.31" cy="1576.73" r="9.1"/>
					<circle fill="#A4CD38" cx="2209.39" cy="1729.55" r="9.1"/>
					<circle fill="#A4CD38" cx="2227.09" cy="1592.76" r="9.1"/>
					<circle fill="#A4CD38" cx="2076.63" cy="1791.52" r="9.1"/>
					<circle fill="#A4CD38" cx="2083.62" cy="1846.73" r="9.1"/>
					<circle fill="#A4CD38" cx="2057.22" cy="1931.74" r="9.1"/>
					<circle fill="#A4CD38" cx="1959.61" cy="2015.85" r="9.1"/>
					<circle fill="#A4CD38" cx="1881.66" cy="1998.7" r="9.1"/>
					<circle fill="#A4CD38" cx="1746" cy="2007.8" r="9.1"/>
					<circle fill="#A4CD38" cx="1624.17" cy="2006.65" r="9.1"/>
					<circle fill="#A4CD38" cx="1573.75" cy="1948.68" r="9.1"/>
					<circle fill="#A4CD38" cx="1550.91" cy="1940.64" r="9.1"/>
					<circle fill="#A4CD38" cx="1820.97" cy="1976" r="9.1"/>
					<circle fill="#A4CD38" cx="1952.04" cy="1946.14" r="9.1"/>
					<circle fill="#A4CD38" cx="2002.7" cy="1920.82" r="9.1"/>
					<circle fill="#A4CD38" cx="1985.59" cy="1872.62" r="9.1"/>
					<circle fill="#A4CD38" cx="1974.15" cy="1814.07" r="9.1"/>
					<circle fill="#A4CD38" cx="1889.14" cy="1926.82" r="9.1"/>
					<circle fill="#A4CD38" cx="2110.11" cy="1764.17" r="9.1"/>
					<circle fill="#A4CD38" cx="1966.06" cy="1693.6" r="9.1"/>
					<circle fill="#A4CD38" cx="1728.59" cy="2050.54" r="9.1"/>
					<circle fill="#A4CD38" cx="1640.08" cy="2032.01" r="9.1"/>
					<circle fill="#A4CD38" cx="1534.38" cy="1969.96" r="9.1"/>
					<circle fill="#A4CD38" cx="1465.48" cy="1823.79" r="9.1"/>
					<circle fill="#A4CD38" cx="1455.13" cy="1760.53" r="9.1"/>
					<circle fill="#A4CD38" cx="1468.55" cy="1783.51" r="9.1"/>
					<circle fill="#A4CD38" cx="1465.2" cy="1719.19" r="9.1"/>
					<circle fill="#A4CD38" cx="1429.52" cy="1978.82" r="9.1"/>
					<circle fill="#A4CD38" cx="1140.23" cy="1763.31" r="9.1"/>
					<circle fill="#A4CD38" cx="1133.22" cy="1818.48" r="9.1"/>
					<circle fill="#A4CD38" cx="917.2" cy="1752.99" r="9.1"/>
					<circle fill="#A4CD38" cx="1096.42" cy="1657.98" r="9.1"/>
					<circle fill="#A4CD38" cx="1642.11" cy="2193.36" r="9.1"/>
					<circle fill="#A4CD38" cx="1634.11" cy="2141.99" r="9.1"/>
					<circle fill="#A4CD38" cx="847.89" cy="786.05" r="9.1"/>
					<polygon fill="#F2F2F2" points="1024.38,1396.63 1317.08,1355.16 1368.06,1538.82 					"/>
					<polygon fill="#F2F2F2" points="1913.14,1410.9 1835.55,1522.66 1374.16,1537.82 					"/>
					<polygon fill="#F2F2F2" points="1318.86,1353.66 1368.06,1538.82 1528.74,1316.33 					"/>
					<polygon fill="#F2F2F2" points="1306.12,1222.61 1148.8,1387.4 1320.44,1345.15 					"/>
					<polygon fill="#F2F2F2" points="1530.01,1316.71 1368.06,1538.82 1909.14,1410.9 					"/>
					<polygon fill="#F2F2F2" points="1020.85,1395.3 1069.66,1620.89 1371.34,1538.02 					"/>
					<polygon fill="#F2F2F2" points="1370.38,1537.98 1075.03,1621.99 1416.44,1667.14 					"/>
					<polygon fill="#F2F2F2" points="1368.06,1538.82 1414.78,1667.06 1829.22,1523.14 					"/>
					<polygon fill="#F2F2F2" points="1306.89,1221.52 1320.44,1342.15 1532.6,1275.43 					"/>
					<polygon fill="#F2F2F2" points="1925.33,1917.29 1791.78,2031.01 1823.35,1923.59 					"/>
					<polygon fill="#F2F2F2" points="1799.02,1825.74 1924.51,1918.39 1975.19,1817.58 					"/>
					<polygon fill="#F2F2F2" points="1799.02,1825.74 1823.35,1923.59 1924.51,1918.39 					"/>
					<polygon fill="#F2F2F2" points="1799.02,1825.74 1750.53,1875.64 1822.56,1924.79 					"/>
					<polygon fill="#F2F2F2" points="1750.53,1875.64 1674.27,1970.05 1823.24,1923.66 					"/>
					<polygon fill="#F2F2F2" points="1822.56,1924.79 1673.27,1970.05 1791.78,2031.01 					"/>
					<polygon fill="#F2F2F2" points="1656.54,1891.13 1673.06,1969.05 1750.53,1875.64 					"/>
					<polygon fill="#F2F2F2" points="1655.9,1889.3 1799.02,1825.74 1750.53,1875.64 					"/>
					<polygon fill="#F2F2F2" points="1620.23,1836.73 1658.54,1889.13 1790.17,1826.73 					"/>
					<polygon fill="#F2F2F2" points="1626.19,1834.09 1862.24,1780.33 1799.47,1825.76 					"/>
					<polygon fill="#F2F2F2" points="1580.74,1811.88 1856.22,1780.81 1620.23,1836.73 					"/>
					<polygon fill="#F2F2F2" points="1534.59,1826.65 1620.61,1835.74 1580.74,1811.88 					"/>
					<polygon fill="#F2F2F2" points="1514.99,1716.58 1485.7,1821.59 1748.82,1764.37 					"/>
					<polygon fill="#F2F2F2" points="1519.09,1815.49 1746.13,1763.82 1888.42,1769.18 1859.24,1781.33 1580.74,1811.88 
						1532.59,1826.65 					"/>
					<polygon fill="#F2F2F2" points="720.79,941.49 815.97,848.2 1031.46,946.6 					"/>
					<polygon fill="#F2F2F2" points="747.76,1254.02 719.84,943.67 902.36,1058.82 					"/>
					<polygon fill="#F2F2F2" points="816.97,848.2 1101.86,748.2 1202.25,828.76 					"/>
					<polygon fill="#F2F2F2" points="816.97,848.2 1200.8,829.76 1138.75,994.76 					"/>
					<polygon fill="#F2F2F2" points="1836.39,1038.54 1573.32,1132.06 1684.69,832.72 					"/>
					<polygon fill="#F2F2F2" points="1541.46,893.62 1574.72,1131.28 1306.89,1221.52 					"/>
					<polygon fill="#F2F2F2" points="1304.09,1222.09 1154.55,1377.18 1129.08,1380.13 1036.49,1091.49 					"/>
					<polygon fill="#F2F2F2" points="1134.42,1395.43 943.61,1442.59 1036.49,1091.49 					"/>
					<polygon fill="#F2F2F2" points="714.9,1497.12 747.76,1254.02 941.11,1443.12 					"/>
					<polygon fill="#F2F2F2" points="714.9,1497.12 542.69,1360.94 746.16,1254.25 					"/>
					<polygon fill="#F2F2F2" points="1573.72,1132.28 1530.84,1274.53 1307.34,1221.18 					"/>
					<polygon fill="#F2F2F2" points="1707.57,1261.56 1531.97,1274.3 1574.69,1131.06 					"/>
					<polygon fill="#F2F2F2" points="1944.93,1681.01 1836.06,1521.61 2116.14,1347.05 					"/>
					<polygon fill="#F2F2F2" points="1943.77,1680.99 1418.54,1666.04 1837.06,1521.61 					"/>
					<path fill="#F2F2F2" d="M1407.73,1527.95c-0.67,0.38-1.33,0.76-2,1.15c-1.03,0.03-2.06,0.05-3.09,0.08
						c0.74-0.2,1.49-0.38,2.23-0.57C1405.82,1528.37,1406.78,1528.15,1407.73,1527.95z"/>
					<path fill="#F2F2F2" d="M1441.67,1519.98c-0.65,0.38-1.31,0.75-1.96,1.13c-0.66,0.03-1.33,0.06-2,0.09
						c-0.39,0-0.77,0-1.16,0.01c0.09-0.02,0.17-0.05,0.26-0.07c0.9-0.28,1.82-0.48,2.73-0.66
						C1440.25,1520.3,1440.96,1520.13,1441.67,1519.98z"/>
					<path fill="#F2F2F2" d="M1475.68,1511.98c-0.66,0.38-1.32,0.76-1.98,1.14c-0.67,0.03-1.34,0.06-2.01,0.09
						c-0.38,0-0.75,0-1.13,0.01c0.09-0.02,0.17-0.05,0.26-0.07c0.89-0.28,1.8-0.48,2.72-0.67
						C1474.25,1512.3,1474.96,1512.13,1475.68,1511.98z"/>
					<path fill="#F2F2F2" d="M1508.49,1504.41c-0.28,0.21-0.55,0.45-0.81,0.73c-0.67,0.03-1.34,0.05-2.01,0.07
						c-0.31,0-0.61,0.01-0.92,0.01c0.81-0.24,1.64-0.41,2.47-0.57C1507.64,1504.58,1508.07,1504.5,1508.49,1504.41z"/>
					<path fill="#F2F2F2" d="M1515.69,1502.85c-0.01,0.01-0.02,0.03-0.03,0.04c-0.18,0.01-0.35,0.03-0.53,0.04
						C1515.32,1502.91,1515.51,1502.88,1515.69,1502.85z"/>
					<path fill="#F2F2F2" d="M1542.46,1496.42c-0.28,0.21-0.54,0.45-0.8,0.73c-0.67,0.03-1.34,0.07-2.01,0.1
						c-0.32,0-0.64,0-0.96,0.01c0.84-0.26,1.71-0.43,2.58-0.61C1541.67,1496.59,1542.07,1496.51,1542.46,1496.42z"/>
					<path fill="#F2F2F2" d="M1549.68,1494.86c-0.02,0.01-0.03,0.03-0.04,0.04c-0.17,0.01-0.33,0.02-0.5,0.03
						C1549.32,1494.91,1549.5,1494.88,1549.68,1494.86z"/>
					<path fill="#F2F2F2" d="M1576.46,1488.43c-0.28,0.21-0.55,0.45-0.81,0.73c-0.67,0.03-1.35,0.07-2.02,0.1
						c-0.32,0-0.64,0-0.96,0.01c0.84-0.26,1.72-0.44,2.58-0.61C1575.66,1488.59,1576.06,1488.52,1576.46,1488.43z"/>
					<path fill="#F2F2F2" d="M1583.65,1486.87l-0.03,0.03c-0.12,0.01-0.25,0.02-0.37,0.02
						C1583.38,1486.9,1583.52,1486.89,1583.65,1486.87z"/>
					<path fill="#F2F2F2" d="M1610.44,1480.44c-0.28,0.21-0.55,0.45-0.81,0.73c-0.67,0.03-1.34,0.06-2.01,0.1
						c-0.32,0-0.65,0-0.97,0.01c0.85-0.26,1.72-0.44,2.58-0.61C1609.64,1480.6,1610.04,1480.53,1610.44,1480.44z"/>
					<path fill="#F2F2F2" d="M1617.63,1478.88c-0.01,0.01-0.02,0.02-0.03,0.03c-0.15,0.01-0.31,0.02-0.46,0.03
						C1617.3,1478.92,1617.47,1478.9,1617.63,1478.88z"/>
					<path fill="#F2F2F2" d="M1644.4,1472.46c-0.27,0.2-0.54,0.44-0.79,0.71c-0.67,0.03-1.34,0.07-2.01,0.1
						c-0.32,0-0.65,0-0.97,0.01c0.85-0.25,1.72-0.43,2.59-0.6C1643.62,1472.62,1644.01,1472.54,1644.4,1472.46z"/>
					<path fill="#F2F2F2" d="M1651.63,1470.88c-0.02,0.01-0.03,0.03-0.04,0.04c-0.17,0.01-0.33,0.02-0.5,0.03
						C1651.27,1470.93,1651.45,1470.9,1651.63,1470.88z"/>
					<path fill="#F2F2F2" d="M1678.39,1464.45c-0.28,0.21-0.54,0.45-0.8,0.73c-0.67,0.03-1.34,0.06-2.01,0.1
						c-0.32,0-0.65,0-0.97,0.01c0.85-0.26,1.72-0.43,2.59-0.61C1677.6,1464.62,1678,1464.54,1678.39,1464.45z"/>
					<path fill="#F2F2F2" d="M1685.6,1462.89c-0.01,0.01-0.02,0.03-0.03,0.04c-0.17,0.01-0.33,0.02-0.5,0.03
						C1685.25,1462.94,1685.42,1462.91,1685.6,1462.89z"/>
					<path fill="#F2F2F2" d="M1250.31,1569.98c-0.09,0.04-0.17,0.1-0.26,0.15c-0.64,0.27-1.3,0.46-1.98,0.6
						C1248.82,1570.49,1249.57,1570.23,1250.31,1569.98z"/>
					<path fill="#F2F2F2" d="M1308.28,1553.99c-0.09,0.05-0.17,0.1-0.26,0.15c-0.66,0.28-1.34,0.48-2.04,0.63
						C1306.75,1554.51,1307.52,1554.25,1308.28,1553.99z"/>
					<path fill="#F2F2F2" d="M1356.45,1541.23c-1.18,0.71-2.6,0.75-3.84,1.25c-1.3,0.4-2.64,0.48-3.98,0.52
						c-0.4-0.02-0.79,0.01-1.16,0.07c2.07-0.6,4.15-1.16,6.25-1.6C1354.63,1541.28,1355.54,1541.2,1356.45,1541.23z"/>
					<path fill="#F2F2F2" d="M1569.45,1297.34c2.25-0.12,4.54-0.42,6.17,1.7c-8.63,5.15-18.63,6.41-27.89,9.77
						c-1.84,0.67-4.18,1.2-5.64-0.4c-6.23-6.81-12.47-3.36-18.78-0.34c-1.19,0.57-2.38,1.13-3.57,1.7
						c-12.53-3.58-23.84-10.1-35.8-15.03c-1.49-0.61-0.08-2.36-0.32-3.55c2.24,0.04,4.84,1.18,6.02-1.99
						c2.69,0.05,5.39,0.1,8.08,0.15c0.47,0.03,0.94,0.05,1.41,0.08c4.06,1.64,8.46,0.19,12.58,1.35c4.53,1.58,9.09,2.5,13.77,0.58
						c2.27-0.14,4.56-0.35,6.28,1.64c3.1,2.74,7.17,0.27,10.48,1.94c4.1,2.06,8.59,0.96,12.86,1.63
						C1559.8,1298.26,1564.54,1299.31,1569.45,1297.34z"/>
					<path fill="#F2F2F2" d="M1611.53,1271.63c0.69-0.22,1.38-0.44,2.07-0.66c2.53,0.04,5.05,0.09,7.58,0.13
						c4.63-1.98,9.68,0.28,14.33-1.44c3.82-0.21,7.65-0.41,11.47-0.62c4.71-1.83,9.8,0.31,14.52-1.4c2.61-0.2,5.23-0.39,7.84-0.59
						c3.23,1.15,7.18-1.44,9.98,1.92c-5.73,1.36-11.04,4.27-17.05,4.56c-0.99,0.33-1.83,0.95-2.79,1.36l0.19,0.59
						c-1.23-0.01-2.47-0.03-3.7-0.04c-1.34,0.83-3.07,0.57-4.36,1.53c-5.01,2.12-10.15,3.82-15.58,4.48
						c-1.32,1.04-3.22,0.45-4.49,1.64c0,0,0.21,0.57,0.21,0.57c-7.74,1.9-15.55,3.62-22.78,7.16c-6.68,0.22-12.46,4.77-19.34,4.03
						c-1.58,0.25-3.15,0.34-4.73-0.01c-0.78-0.18-1.54-0.44-2.28-0.73c-1.53-0.55-3.1-0.97-4.68-1.4c-0.85-0.21-1.66-0.49-2.47-0.78
						c-5.1-1.75-10.19-3.48-15.45-4.61c-0.83-0.18-1.64-0.45-2.44-0.75c-1.51-0.58-3.04-1.15-4.59-1.62
						c-0.76-0.21-1.49-0.5-2.22-0.8c-1.45-0.58-2.93-1.08-4.27-1.91c-0.26-0.29-0.52-0.59-0.77-0.88c-0.36-2.41-5.19-0.58-4.11-4.35
						c1.23,0.04,2.45,0.07,3.68,0.11c4.59-2.05,9.63,0.26,14.25-1.46c3.85-0.2,7.7-0.41,11.54-0.61c4.68-1.89,9.76,0.31,14.45-1.42
						c3.26-0.16,6.53-0.32,9.79-0.49C1600.57,1270.97,1606.26,1273.5,1611.53,1271.63z"/>
					<path fill="#F2F2F2" d="M1587.25,1297.02c-3.91,0.49-7.45,3.09-11.64,2.01c-2.34-0.9-4.53,0.46-6.81,0.46
						c-2.86,0.36-5.69,0.12-8.49-0.5c-1.83-0.42-3.62-1.03-5.53-1.09c-2.84-0.19-5.7-0.24-8.49-0.91c-1.84-0.44-3.65-1.02-5.57-1.08
						c-2.87-0.18-5.75-0.24-8.56-0.92c-2.29-0.67-4.62-1.14-7.02-1.12c-2.91-0.11-5.82-0.14-8.67-0.81
						c-1.89-0.43-3.73-1.07-5.7-1.13c-2.97-0.26-6.04-0.09-8.7-1.83c-0.89-0.78-1.01-1.66-0.36-2.64c0.63-0.81,1.27-1.62,1.9-2.43
						c1.33-0.09,2.66-0.17,4-0.25c2.54-1.49,6.3-0.24,8-3.6c2.81,0.34,5.51,0.14,8.06,2.42c4.42,3.95,9.59,3.65,14-0.18
						c2.54-2.2,5.08-2.51,8.05-2.04c0,0-0.16-0.16-0.16-0.16c1.63,1.94,4.48,0.26,6.15,2.09l-0.15-0.09
						c1.64,1.91,4.48,0.28,6.15,2.09l-0.14-0.08c6.72,2,13.37,4.21,20.13,6.06l-0.13-0.07c1.63,1.91,4.46,0.28,6.13,2.07l-0.13-0.08
						C1584.08,1295.16,1588.9,1292.97,1587.25,1297.02z"/>
					<path fill="#F2F2F2" d="M1248.07,1570.73c0.68-0.14,1.34-0.33,1.98-0.6c0.09-0.05,0.17-0.11,0.26-0.15
						C1249.57,1570.23,1248.82,1570.49,1248.07,1570.73z M1305.98,1554.77c0.7-0.15,1.38-0.35,2.04-0.63
						c0.09-0.05,0.17-0.1,0.26-0.15C1307.52,1554.25,1306.75,1554.51,1305.98,1554.77z M1353.72,1541.47c-2.1,0.44-4.18,1-6.25,1.6
						c0.37-0.06,0.76-0.09,1.16-0.07c1.34-0.04,2.68-0.12,3.98-0.52c1.24-0.5,2.66-0.54,3.84-1.25
						C1355.54,1541.2,1354.63,1541.28,1353.72,1541.47z"/>
					<path fill="#F2F2F2" d="M1407.73,1527.95c-0.67,0.38-1.33,0.76-2,1.15c-1.03,0.03-2.06,0.05-3.09,0.08
						c0.74-0.2,1.49-0.38,2.23-0.57C1405.82,1528.37,1406.78,1528.15,1407.73,1527.95z"/>
					<path fill="#F2F2F2" d="M1441.67,1519.98c-0.65,0.38-1.31,0.75-1.96,1.13c-0.66,0.03-1.33,0.06-2,0.09
						c-0.39,0-0.77,0-1.16,0.01c0.09-0.02,0.17-0.05,0.26-0.07c0.9-0.28,1.82-0.48,2.73-0.66
						C1440.25,1520.3,1440.96,1520.13,1441.67,1519.98z"/>
					<path fill="#F2F2F2" d="M1475.68,1511.98c-0.66,0.38-1.32,0.76-1.98,1.14c-0.67,0.03-1.34,0.06-2.01,0.09
						c-0.38,0-0.75,0-1.13,0.01c0.09-0.02,0.17-0.05,0.26-0.07c0.89-0.28,1.8-0.48,2.72-0.67
						C1474.25,1512.3,1474.96,1512.13,1475.68,1511.98z"/>
					<path fill="#F2F2F2" d="M1508.49,1504.41c-0.28,0.21-0.55,0.45-0.81,0.73c-0.67,0.03-1.34,0.05-2.01,0.07
						c-0.31,0-0.61,0.01-0.92,0.01c0.81-0.24,1.64-0.41,2.47-0.57C1507.64,1504.58,1508.07,1504.5,1508.49,1504.41z"/>
					<path fill="#F2F2F2" d="M1515.69,1502.85c-0.01,0.01-0.02,0.03-0.03,0.04c-0.18,0.01-0.35,0.03-0.53,0.04
						C1515.32,1502.91,1515.51,1502.88,1515.69,1502.85z"/>
					<path fill="#F2F2F2" d="M1542.46,1496.42c-0.28,0.21-0.54,0.45-0.8,0.73c-0.67,0.03-1.34,0.07-2.01,0.1
						c-0.32,0-0.64,0-0.96,0.01c0.84-0.26,1.71-0.43,2.58-0.61C1541.67,1496.59,1542.07,1496.51,1542.46,1496.42z"/>
					<path fill="#F2F2F2" d="M1549.68,1494.86c-0.02,0.01-0.03,0.03-0.04,0.04c-0.17,0.01-0.33,0.02-0.5,0.03
						C1549.32,1494.91,1549.5,1494.88,1549.68,1494.86z"/>
					<path fill="#F2F2F2" d="M1576.46,1488.43c-0.28,0.21-0.55,0.45-0.81,0.73c-0.67,0.03-1.35,0.07-2.02,0.1
						c-0.32,0-0.64,0-0.96,0.01c0.84-0.26,1.72-0.44,2.58-0.61C1575.66,1488.59,1576.06,1488.52,1576.46,1488.43z"/>
					<path fill="#F2F2F2" d="M1583.65,1486.87l-0.03,0.03c-0.12,0.01-0.25,0.02-0.37,0.02
						C1583.38,1486.9,1583.52,1486.89,1583.65,1486.87z"/>
					<path fill="#F2F2F2" d="M1610.44,1480.44c-0.28,0.21-0.55,0.45-0.81,0.73c-0.67,0.03-1.34,0.06-2.01,0.1
						c-0.32,0-0.65,0-0.97,0.01c0.85-0.26,1.72-0.44,2.58-0.61C1609.64,1480.6,1610.04,1480.53,1610.44,1480.44z"/>
					<path fill="#F2F2F2" d="M1617.63,1478.88c-0.01,0.01-0.02,0.02-0.03,0.03c-0.15,0.01-0.31,0.02-0.46,0.03
						C1617.3,1478.92,1617.47,1478.9,1617.63,1478.88z"/>
					<path fill="#F2F2F2" d="M1685.6,1462.89c-0.01,0.01-0.02,0.03-0.03,0.04c-0.17,0.01-0.33,0.02-0.5,0.03
						C1685.25,1462.94,1685.42,1462.91,1685.6,1462.89z"/>
					<polygon fill="#F2F2F2" points="1535.31,1969.05 1514.85,1876.3 1581.76,1910.22 					"/>
					<polygon fill="#F2F2F2" points="1952.71,2010.47 1954.46,1983.69 1998.15,1968.15 					"/>
					<polygon fill="#F2F2F2" points="1855.09,2038.53 1792.02,2030.59 1941.54,2003.95 					"/>
					<polygon fill="#F2F2F2" points="1952.71,2010.47 1790.24,2028.92 1954.46,1983.69 					"/>
					<polygon fill="#F2F2F2" points="1794.24,2026.92 1925.78,1916.49 1953.46,1983.69 					"/>
					<polygon fill="#F2F2F2" points="1927.86,1918.86 1996.41,1967.64 1953.46,1983.69 					"/>
					<polygon fill="#F2F2F2" points="1925.51,1917.65 2021.26,1936.58 1998.15,1968.15 					"/>
					<polygon fill="#F2F2F2" points="1925.51,1917.65 2040.94,1866.69 2021.53,1936.27 					"/>
					<polygon fill="#F2F2F2" points="1926.05,1917.56 1975.19,1817.58 2039.9,1867.54 					"/>
					<polygon fill="#F2F2F2" points="1975.46,1818.81 2025.7,1803.27 2040.9,1866.54 					"/>
					<polygon fill="#F2F2F2" points="2025.7,1803.27 2048.1,1819.07 2042.9,1868.52 					"/>
					<polygon fill="#F2F2F2" points="1889.1,1770.1 2024.77,1803.27 1976.46,1818.81 					"/>
					<polygon fill="#F2F2F2" points="1888.44,1769.86 1936.54,1763.82 2021.56,1800.65 					"/>
					<polygon fill="#F2F2F2" points="1949.1,1768.15 2045.2,1799.2 2025.7,1803.27 					"/>
					<polygon fill="#F2F2F2" points="1924.51,1768.43 1943.93,1681.01 2108.02,1764.63 					"/>
					<polygon fill="#F2F2F2" points="2110.02,1764.63 2135.26,1533.16 2176.48,1488.68 					"/>
					<polygon fill="#F2F2F2" points="2134.26,1534.16 2119.53,1349.05 2175.48,1488.68 					"/>
					<polygon fill="#F2F2F2" points="1947.77,1678.99 2117.59,1346.19 2134.26,1534.16 					"/>
					<polygon fill="#F2F2F2" points="2175.48,1488.68 2117.12,1342.89 2138.81,1242.28 					"/>
					<polygon fill="#F2F2F2" points="1836.06,1521.61 1914.45,1408.9 2117.12,1345.02 					"/>
					<polygon fill="#F2F2F2" points="1915.19,1409.31 2020.63,1050.65 2117.14,1344.05 					"/>
					<polygon fill="#F2F2F2" points="2137.31,1239.44 2019.63,1049.58 2033.76,1041.13 					"/>
					<polygon fill="#F2F2F2" points="2020.63,1050.65 1886.9,940.53 2033.76,1041.13 					"/>
					<polygon fill="#F2F2F2" points="2018.63,1049.58 1836.39,1038.54 1885.31,940.06 					"/>
					<polygon fill="#F2F2F2" points="1883.84,940.53 1837.39,1036.41 1683.58,833.99 					"/>
					<polygon fill="#F2F2F2" points="1727.55,837.72 1878.58,937.16 1684.69,832.72 					"/>
					<polygon fill="#F2F2F2" points="1662.56,816.49 1727.55,837 1680.69,832.72 					"/>
					<polygon fill="#F2F2F2" points="1579.35,843.43 1684.69,832.72 1542.03,893.62 					"/>
					<polygon fill="#F2F2F2" points="1516.4,786.04 1579.35,843.43 1542.03,893.62 					"/>
					<polygon fill="#F2F2F2" points="1329.29,975.59 1538.94,895.9 1307.19,1218.99 					"/>
					<polygon fill="#F2F2F2" points="1357.71,841.83 1503.58,778.77 1331.21,971.6 					"/>
					<polygon fill="#F2F2F2" points="1290.98,765.06 1286.29,784.87 1199.8,827.76 					"/>
					<polygon fill="#F2F2F2" points="1201.8,827.76 1287.27,786.68 1142.38,987.46 					"/>
					<polygon fill="#F2F2F2" points="898.99,1058.82 1033.48,946.6 1137.75,996.76 					"/>
					<polygon fill="#F2F2F2" points="898.99,1059.02 718.79,942.49 1031.46,946.6 					"/>
					<polygon fill="#F2F2F2" points="747.76,1254.02 660.1,1044.46 719.79,943.49 					"/>
					<polygon fill="#F2F2F2" points="750.52,1251.8 899.99,1060.82 1038.09,1092.41 					"/>
					<polygon fill="#F2F2F2" points="1036.49,1091.49 901.36,1059.36 1135.42,998.12 					"/>
					<polygon fill="#F2F2F2" points="558.39,1487.13 543.59,1360.99 714.9,1497.12 					"/>
					<polygon fill="#F2F2F2" points="714.9,1497.12 943.61,1442.59 991.09,1565.66 906.42,1578.6 					"/>
					<polygon fill="#F2F2F2" points="943.61,1442.59 982.07,1433.18 952.49,1460.13 					"/>
					<polygon fill="#F2F2F2" points="751.35,1512.62 527.74,1543.27 558.39,1486.13 718.79,1499.57 					"/>
					<polygon fill="#F2F2F2" points="660.37,1043.69 438.11,1346.14 502.93,1056.67 					"/>
					<polygon fill="#F2F2F2" points="558.39,1486.13 438.11,1346.14 543.59,1361.47 					"/>
					<polygon fill="#F2F2F2" points="528.74,1542.27 438.11,1346.14 559.39,1487.13 					"/>
					<polygon fill="#F2F2F2" points="748.03,1512.84 763.45,1520.3 727.99,1565.66 571.96,1575.33 527.74,1543.27 					"/>
					<polygon fill="#F2F2F2" points="859,1557.46 727.99,1565.66 763.45,1520.3 					"/>
					<polygon fill="#F2F2F2" points="1065.92,1621.99 907.97,1787.39 839.09,1562.12 					"/>
					<polygon fill="#F2F2F2" points="1415.44,1666.04 1166.07,1847.44 1068.92,1620.99 					"/>
					<polygon fill="#F2F2F2" points="1512.89,1716.81 1168.85,1847.12 1415.44,1666.04 					"/>
					<polygon fill="#F2F2F2" points="1486.78,1822.74 1168.75,1848.91 1512.99,1715.58 					"/>
					<polygon fill="#F2F2F2" points="1938.07,1681.01 1513.79,1716.85 1415.44,1666.04 					"/>
					<polygon fill="#F2F2F2" points="1938.07,1683.07 1748.82,1764.37 1517.89,1715.85 					"/>
					<polygon fill="#F2F2F2" points="1943.93,1681.01 1923.37,1767.68 1749.8,1764.37 					"/>
					<polygon fill="#F2F2F2" points="1068.92,1620.99 839.09,1562.12 1024.38,1396.63 					"/>
					<polygon fill="#F2F2F2" points="747.76,1254.02 512.42,1134.96 662.1,1046.46 					"/>
					<polygon fill="#F2F2F2" points="543.59,1360.99 512.07,1135.15 746.16,1254.25 					"/>
					<polygon fill="#F2F2F2" points="660.1,1045.46 506.02,1056.67 814.97,851.31 718.79,943.28 					"/>
					<polygon fill="#F2F2F2" points="1286.27,787.68 1329.29,975.01 1138.47,995.31 					"/>
					<polygon fill="#F2F2F2" points="1329.29,975.01 1305.19,1220.31 1141.38,997.18 					"/>
					<polygon fill="#F2F2F2" points="1138.47,995.31 1305.19,1222.31 1036.49,1091.49 					"/>
					<polygon fill="#F2F2F2" points="1293.98,765.06 1317.44,771.47 1289.29,787.87 					"/>
					<polygon fill="#F2F2F2" points="1287.29,791.46 1361.81,825.74 1329.8,975.96 					"/>
					<polygon fill="#F2F2F2" points="1542.03,893.62 1683.58,833.99 1573.32,1132.06 					"/>
					<polygon fill="#F2F2F2" points="2016.16,1048.87 1854.58,1078.7 1836.39,1038.54 					"/>
					<polygon fill="#F2F2F2" points="1836.39,1038.54 1854.43,1078.69 1574.32,1131.06 					"/>
					<polygon fill="#F2F2F2" points="2020.63,1049.65 1915.69,1405.59 1855.51,1079.69 					"/>
					<polygon fill="#F2F2F2" points="1853.58,1078.7 1706.75,1261.18 1573.72,1131.28 					"/>
					<polygon fill="#F2F2F2" points="1705.85,1261.86 1913.46,1408 1531.01,1316.46 					"/>
					<polygon fill="#F2F2F2" points="2110.23,1760.3 2175.48,1492.48 2129.99,1729.23 					"/>
					<polygon fill="#F2F2F2" points="1863.68,1778.98 1888.44,1769.86 1972,1817.58 					"/>
					<polygon fill="#F2F2F2" points="2026.92,1804.43 2045.2,1802.2 2048.1,1821.07 					"/>
					<polygon fill="#F2F2F2" points="2017.11,1935.61 2042.9,1865.54 2035.33,1913.33 					"/>
					<polygon fill="#F2F2F2" points="1793.36,2027.44 1823.35,1923.59 1925.51,1917.65 					"/>
					<polygon fill="#F2F2F2" points="1678.33,2049.37 1535.31,1969.05 1598.7,1994.72 					"/>
					<polygon fill="#F2F2F2" points="1677.18,2050.37 1791.78,2031.01 1853.09,2040.53 					"/>
					<polygon fill="#F2F2F2" points="1677.33,2049.37 1598.7,1993.72 1791.78,2031.01 					"/>
					<polygon fill="#F2F2F2" points="1598.87,1994.41 1657.22,1889.95 1673.27,1970.05 					"/>
					<polygon fill="#F2F2F2" points="1600.12,1994.55 1674.27,1970.05 1792.22,2031.52 					"/>
					<polygon fill="#F2F2F2" points="1655.9,1889.3 1536.49,1828.24 1620.52,1836.97 					"/>
					<polygon fill="#F2F2F2" points="1515.25,1876.85 1534.35,1827.69 1655.47,1889.94 					"/>
					<polygon fill="#F2F2F2" points="1514.85,1876.3 1463.3,1823.81 1481.96,1823.81 1534.35,1827.69 					"/>
					<polygon fill="#F2F2F2" points="1532.64,1826.9 1485.7,1821.59 1519.09,1815.49 					"/>
					<polygon fill="#F2F2F2" points="1599.33,1991.8 1585.09,1910.07 1657.09,1888.61 					"/>
					<polygon fill="#F2F2F2" points="1599.14,1993.35 1535.17,1969.7 1585.09,1908.58 					"/>
					<path fill="#F2F2F2" d="M1520.11,1877.67c3.78-0.02,132.26,12.28,132.26,12.28s-66.55,17.67-71.89,20.83
						C1568.77,1902.78,1521.66,1878.9,1520.11,1877.67z"/>
					<path fill="#F2F2F2" d="M1769.75,1838.7c-0.02,0-0.03,0.01-0.05,0.02c-0.6,0.26-1.19,0.52-1.78,0.79
						c0.35-0.22,0.69-0.44,1.03-0.67C1769.22,1838.8,1769.48,1838.75,1769.75,1838.7z"/>
					<path fill="#F2F2F2" d="M1915.54,1910.75c-0.06-0.05-0.12-0.09-0.18-0.13v-0.01L1915.54,1910.75z"/>
					<path fill="#F2F2F2" d="M1864.64,1779.74c0,0,34.61,12.97,47.77,17.17c16.95,5.41,55.48,19.05,56.04,19.68
						c0.16,0.65-1.14,1.57-1.28,2.23c-0.64,0.01-43.15,1.7-49.68,1.94c-10.1,0.42-20.24-0.88-30.31,0.78
						c-6.54,0.21-81.39,4.61-83.16,1.33c-1.85-3.45,5.36-6.19,7.66-8.5C1823.12,1806.94,1864.64,1779.74,1864.64,1779.74z"/>
					<path fill="#F2F2F2" d="M1769.75,1838.7c-0.02,0-0.03,0.01-0.05,0.02c-0.6,0.26-1.19,0.52-1.78,0.79
						c0.35-0.22,0.69-0.44,1.03-0.67C1769.22,1838.8,1769.48,1838.75,1769.75,1838.7z"/>
					<path fill="#F2F2F2" d="M1371.34,1699.64"/>
					<polygon fill="#A4CD38" points="1943.93,1681.01 2135.26,1533.16 2110.02,1764.63 					"/>
					<polygon fill="#A4CD38" points="2117.12,1342.89 2019.63,1049.58 2138.31,1242.44 					"/>
					<polygon fill="#A4CD38" points="1511.06,778.47 1541.46,893.62 1329.29,975.01 					"/>
					<polygon fill="#A4CD38" points="941.11,1442.25 748.03,1254.82 1034.92,1094.79 					"/>
					<polygon fill="#A4CD38" points="543.59,1360.99 438.11,1346.14 512.42,1134.96 					"/>
					<polygon fill="#A4CD38" points="1065.92,1621.99 1168.85,1847.12 907.97,1787.39 					"/>
					<polygon fill="#A4CD38" points="1855.51,1079.69 1914.45,1408.9 1706.85,1261.39 					"/>
					<polyline fill="none" stroke="#012B48" stroke-miterlimit="10" stroke-dasharray="12" points="808.06,854.66 506.02,1056.67 
						660.37,1043.69 719.79,942.82 1033.48,946.6 824.24,851.31 					"/>
					<polyline fill="none" stroke="#012B48" stroke-miterlimit="10" points="502.05,1063.3 437.79,1343.04 512.42,1134.96 
						746.16,1254.25 543.59,1361.47 512.07,1139.15 					"/>
					<polyline fill="none" stroke="#012B48" stroke-miterlimit="10" stroke-dasharray="12" points="442.63,1349.87 562.15,1488.68 
						716.37,1497.67 942.88,1442.64 1034.92,1094.79 751.68,1252.29 					"/>
					<polyline fill="none" stroke="#012B48" stroke-miterlimit="10" points="719.84,943.67 899.98,1059.45 1137.75,996.76 
						1329.29,975.59 1306.12,1223.52 1039.84,1093.65 					"/>
					<line fill="none" stroke="#012B48" stroke-miterlimit="10" x1="1037.09" y1="1095.41" x2="1129.08" y2="1379.13"/>
					<polyline fill="none" stroke="#012B48" stroke-miterlimit="10" stroke-dasharray="12" points="839.09,1562.12 1024.38,1396.63 
						1068.12,1620.28 907.97,1788.83 1168.85,1847.12 1416.74,1666.57 1368.79,1539.11 1318.86,1353.66 1529.76,1317.02 
						1914.45,1408.9 1834.69,1522.29 2117.59,1346.19 1945.1,1681.56 1512.89,1716.81 1485.7,1821.59 1748.82,1764.37 
						1515.94,1715.39 					"/>
					<polyline fill="none" stroke="#012B48" stroke-miterlimit="10" points="1528,1318.25 1371.34,1538.02 1829.22,1523.14 
						1417.49,1666.57 1514.99,1716.58 					"/>
					<polyline fill="none" stroke="#012B48" stroke-miterlimit="10" points="1749.05,1764.64 1944.53,1680.28 1924.77,1768.5 
						2110.23,1765.83 1944.27,1680.32 2135.38,1531.63 2118.42,1346.31 2175.48,1487.11 2136.38,1533.4 					"/>
					<polyline fill="none" stroke="#012B48" stroke-miterlimit="10" points="1306.12,1223.61 1320.92,1341.86 1531.54,1275.74 
						1574.32,1131.06 1706.85,1261.39 1530.01,1316.71 					"/>
					<polyline fill="none" stroke="#012B48" stroke-miterlimit="10" stroke-dasharray="12" points="1915.22,1409.16 
						1707.57,1261.56 1854.53,1079.11 2018.63,1049.58 1836.39,1038.54 1574.69,1131.06 1684.01,833.72 1837.42,1037.54 
						1884.31,941.06 1683.69,833.72 					"/>
					<polyline fill="none" stroke="#012B48" stroke-miterlimit="10" points="1856.51,1084.44 1915.75,1407.41 2021,1051.3 
						2117.12,1342.89 2138.81,1242.28 2020.63,1050.65 1886.9,940.53 					"/>
					<polyline fill="none" stroke="#012B48" stroke-miterlimit="10" points="1414.78,1667.06 1066.86,1620.6 1167.73,1847.44 					
						"/>
					<polyline fill="none" stroke="#012B48" stroke-miterlimit="10" points="1512.24,1715.72 1168.75,1848.91 1483.82,1823.28 					
						"/>
					<polyline fill="none" stroke="#012B48" stroke-miterlimit="10" stroke-dasharray="12" points="1471.02,1832.69 
						1514.45,1877.83 1534.04,1827.3 1656.53,1889.95 1515.66,1876.8 1583.07,1910.22 1535.31,1969.05 1598.7,1993.72 
						1656.54,1891.13 1673.27,1969.05 1750.53,1875.64 1799.02,1825.74 1620.61,1835.74 1580.74,1811.88 1863.68,1779.81 
						1801.51,1823.28 1974.49,1818.98 1925.51,1917.65 1799.47,1825.76 1822.56,1924.79 1673.06,1969.05 1791.78,2031.01 
						1597.87,1994.41 1678.18,2049.37 1791.69,2031.5 1852.44,2040.53 					"/>
					<polyline fill="none" stroke="#012B48" stroke-miterlimit="10" stroke-dasharray="12" points="1791.91,2030.66 
						1823.24,1923.66 1925.33,1917.29 1793.25,2027.5 1952.99,1983.87 1925.83,1916.74 1998.04,1968.22 2021.26,1936.58 
						1925.52,1917.35 2040.26,1867.13 1976.44,1819.74 2025.59,1803.34 2042.79,1868.59 					"/>
					<polyline fill="none" stroke="#012B48" stroke-miterlimit="10" points="1317.08,1355.16 1020.85,1395.3 1368.06,1538.82 
						1069.66,1620.89 					"/>
					<polyline fill="none" stroke="#012B48" stroke-miterlimit="10" points="1065.92,1620.89 838.32,1560.97 907.97,1785.08 					
						"/>
					<polyline fill="none" stroke="#012B48" stroke-miterlimit="10" points="1420.74,1666.57 1944.64,1680.62 1837.06,1523.61 					
						"/>
					<line fill="none" stroke="#012B48" stroke-miterlimit="10" x1="1923.72" y1="1768.5" x2="1749.8" y2="1764.37"/>
					<polyline fill="none" stroke="#012B48" stroke-miterlimit="10" points="1866.14,1779.93 1975.46,1818.81 1891.12,1770.96 
						2024.77,1802.71 1946.27,1768 					"/>
					<line fill="none" stroke="#012B48" stroke-miterlimit="10" x1="1859.24" y1="1781.33" x2="1626.19" y2="1834.09"/>
					<polyline fill="none" stroke="#012B48" stroke-miterlimit="10" points="1789.17,1828.73 1659.55,1889.14 1747.32,1876.5 					
						"/>
					<path fill="none" stroke="#012B48" stroke-miterlimit="10" d="M1597.63,1987.57c0,0-12.54-78.79-11.28-79.05
						s62.73-17.91,62.73-17.91"/>
					<line fill="none" stroke="#012B48" stroke-miterlimit="10" x1="1606.63" y1="1991.91" x2="1669.38" y2="1972.53"/>
					<line fill="none" stroke="#012B48" stroke-miterlimit="10" x1="1909.14" y1="1410.9" x2="1370.38" y2="1537.98"/>
					<line fill="none" stroke="#012B48" stroke-miterlimit="10" x1="1920.89" y1="1408.94" x2="2113.41" y2="1345.02"/>
					<polyline fill="none" stroke="#012B48" stroke-miterlimit="10" stroke-dasharray="12" points="1836.99,1040.17 
						1854.53,1079.11 1574.27,1131.43 1541.82,892.49 1681.28,834.58 1662.56,818.49 					"/>
					<polyline fill="none" stroke="#012B48" stroke-miterlimit="10" points="1571.99,1131.43 1305.64,1221.31 1542.03,893.62 
						1328.71,975.72 1286.27,787.68 1140.33,991.17 1201.04,829.53 814.97,848.2 1101.86,748.2 					"/>
					<polyline fill="none" stroke="#012B48" stroke-miterlimit="10" points="1136.76,994.85 1032.46,946.68 898.99,1060.02 
						1036.49,1091.49 1138.47,995.31 1305.19,1221.24 1155.8,1375.4 					"/>
					<polyline fill="none" stroke="#012B48" stroke-miterlimit="10" points="514.1,1131.72 662.1,1046.46 747.76,1254.02 
						898.99,1063.45 					"/>
					<polyline fill="none" stroke="#012B48" stroke-miterlimit="10" points="747.66,1251.8 718.79,943.28 811.51,852.69 					"/>
					<polyline fill="none" stroke="#012B48" stroke-miterlimit="10" points="440.7,1346.58 542.69,1360.94 715.59,1497.12 
						747.09,1253.85 941.11,1442.25 					"/>
					<polyline fill="none" stroke="#012B48" stroke-miterlimit="10" points="543.59,1367.43 559.04,1490.02 527.74,1543.52 
						748.03,1512.84 842.32,1550.97 					"/>
					<line fill="none" stroke="#012B48" stroke-miterlimit="10" x1="532.13" y1="1545.71" x2="571.96" y2="1579.33"/>
					<line fill="none" stroke="#012B48" stroke-miterlimit="10" x1="727.99" y1="1565.66" x2="762.45" y2="1521.3"/>
					<polyline fill="none" stroke="#012B48" stroke-miterlimit="10" points="1306.89,1221.52 1529.43,1274.3 1707.65,1262.68 					
						"/>
					<polyline fill="none" stroke="#012B48" stroke-miterlimit="10" points="1362.75,815.76 1331.21,971.6 1506.44,779.56 					"/>
					<polyline fill="none" stroke="#012B48" stroke-miterlimit="10" points="1513.4,785.46 1542.82,891.19 1581.35,841.43 					"/>
					<polyline fill="none" stroke="#012B48" stroke-miterlimit="10" points="1289.29,784.07 1201.8,827.76 1101.86,748.2 					"/>
					<polyline fill="none" stroke="#012B48" stroke-miterlimit="10" points="2135.55,1531.82 2110.23,1760.3 2130.99,1728.23 					
						"/>
					<line fill="none" stroke="#012B48" stroke-miterlimit="10" x1="2138.81" y1="1242.28" x2="2174.66" y2="1484.25"/>
					<line fill="none" stroke="#012B48" stroke-miterlimit="10" x1="1684.43" y1="832.28" x2="1727.55" y2="837.72"/>
					<line fill="none" stroke="#012B48" stroke-miterlimit="10" x1="1315.08" y1="1344.02" x2="1251.53" y2="1364.11"/>
					<polyline fill="none" stroke="#012B48" stroke-miterlimit="10" points="1580.74,1811.88 1534.59,1826.65 1551.48,1808.62 					
						"/>
					<polyline fill="none" stroke="#012B48" stroke-miterlimit="10" points="1486.78,1822.74 1532.64,1826.9 1519.09,1815.49 					
						"/>
					<line fill="none" stroke="#012B48" stroke-miterlimit="10" x1="1534.69" y1="1826.39" x2="1540.44" y2="1809.88"/>
					<polyline fill="none" stroke="#012B48" stroke-miterlimit="10" points="1702.05,1775.35 1862.43,1779.99 1888.44,1769.86 					
						"/>
					<polyline fill="none" stroke="#012B48" stroke-miterlimit="10" points="2049.2,1801.2 2024.77,1802.71 2048.1,1823.07 					"/>
					<line fill="none" stroke="#012B48" stroke-miterlimit="10" x1="1954.46" y1="1983.69" x2="1996.41" y2="1967.64"/>
					<line fill="none" stroke="#012B48" stroke-miterlimit="10" x1="2021.53" y1="1936.27" x2="2039.76" y2="1869.64"/>
					<polyline fill="none" stroke="#012B48" stroke-miterlimit="10" points="1602.74,1796.14 1581.76,1811.33 1572.9,1802.73 					
						"/>
					<polyline fill="none" stroke="#012B48" stroke-miterlimit="10" points="1656.8,1888.8 1620.23,1836.73 1541.43,1828.05 					
						"/>
					<line fill="none" stroke="#012B48" stroke-miterlimit="10" x1="1755.91" y1="1879.99" x2="1817.55" y2="1920.75"/>
					<line fill="none" stroke="#012B48" stroke-miterlimit="10" x1="1797.33" y1="2029.21" x2="1950.87" y2="2012.15"/>
					<path fill="none" stroke="#012B48" stroke-miterlimit="10" d="M1750.53,1769.21c0.93,1.37,137.89-0.03,137.89-0.03"/>
					<polyline fill="none" stroke="#012B48" stroke-miterlimit="10" points="952.49,1460.13 943.61,1442.59 982.07,1433.18 					"/>
					<line fill="none" stroke="#012B48" stroke-miterlimit="10" x1="1477.7" y1="1293.09" x2="1525.74" y2="1313.33"/>
					<line fill="none" stroke="#012B48" stroke-miterlimit="10" x1="1495.62" y1="1288.23" x2="1577.62" y2="1301.03"/>
					<line fill="none" stroke="#012B48" stroke-miterlimit="10" x1="1536.6" y1="1277.43" x2="1591.64" y2="1296.86"/>
					<line fill="none" stroke="#012B48" stroke-miterlimit="10" x1="2111.97" y1="1757.68" x2="2175.48" y2="1495.78"/>
					<circle fill="#A4CD38" cx="438.11" cy="1346.14" r="9.1"/>
					<circle fill="#A4CD38" cx="558.39" cy="1486.13" r="9.1"/>
					<circle fill="#A4CD38" cx="714.9" cy="1497.12" r="9.1"/>
					<circle fill="#A4CD38" cx="747.76" cy="1254.02" r="9.1"/>
					<circle fill="#A4CD38" cx="510.1" cy="1134.33" r="9.1"/>
					<circle fill="#A4CD38" cx="502.52" cy="1058.82" r="9.1"/>
					<circle fill="#A4CD38" cx="662.09" cy="1046.26" r="9.1"/>
					<circle fill="#A4CD38" cx="718.79" cy="941.49" r="9.1"/>
					<circle fill="#A4CD38" cx="815" cy="848.2" r="9.1"/>
					<circle fill="#A4CD38" cx="898.99" cy="1058.82" r="9.1"/>
					<circle fill="#A4CD38" cx="1031.46" cy="946.6" r="9.1"/>
					<circle fill="#A4CD38" cx="1100.86" cy="749.13" r="9.1"/>
					<circle fill="#A4CD38" cx="1036.49" cy="1091.49" r="9.1"/>
					<circle fill="#A4CD38" cx="1138.84" cy="995.36" r="9.1"/>
					<circle fill="#A4CD38" cx="1327.8" cy="973.96" r="9.1"/>
					<circle fill="#A4CD38" cx="1289.29" cy="787.87" r="9.1"/>
					<circle fill="#A4CD38" cx="1199.54" cy="825.74" r="9.1"/>
					<circle fill="#A4CD38" cx="1541.46" cy="893.62" r="9.1"/>
					<circle fill="#A4CD38" cx="1684.43" cy="832.28" r="9.1"/>
					<circle fill="#A4CD38" cx="1571.72" cy="1132.28" r="9.1"/>
					<circle fill="#A4CD38" cx="1305.19" cy="1220.31" r="9.1"/>
					<circle fill="#A4CD38" cx="1529.84" cy="1274.53" r="9.1"/>
					<circle fill="#A4CD38" cx="1318.95" cy="1341.05" r="9.1"/>
					<circle fill="#A4CD38" cx="1317.44" cy="1354.25" r="9.1"/>
					<circle fill="#A4CD38" cx="1529.43" cy="1315.05" r="9.1"/>
					<circle fill="#A4CD38" cx="1705.61" cy="1261.15" r="9.1"/>
					<circle fill="#A4CD38" cx="1852.58" cy="1078.7" r="9.1"/>
					<circle fill="#A4CD38" cx="1883.84" cy="940.53" r="9.1"/>
					<circle fill="#A4CD38" cx="2018.92" cy="1048.82" r="9.1"/>
					<circle fill="#A4CD38" cx="2117.12" cy="1345.02" r="9.1"/>
					<circle fill="#A4CD38" cx="2137.31" cy="1241.44" r="9.1"/>
					<circle fill="#A4CD38" cx="2175.48" cy="1488.68" r="9.1"/>
					<circle fill="#A4CD38" cx="2134.26" cy="1534.16" r="9.1"/>
					<circle fill="#A4CD38" cx="1835.45" cy="1522.66" r="9.1"/>
					<circle fill="#A4CD38" cx="1943.93" cy="1681.01" r="9.1"/>
					<circle fill="#A4CD38" cx="1747.65" cy="1763.82" r="9.1"/>
					<circle fill="#A4CD38" cx="1513.79" cy="1714.85" r="9.1"/>
					<circle fill="#A4CD38" cx="1486.78" cy="1822.19" r="9.1"/>
					<circle fill="#A4CD38" cx="1515.66" cy="1876.8" r="9.1"/>
					<circle fill="#A4CD38" cx="1579.63" cy="1812.91" r="9.1"/>
					<circle fill="#A4CD38" cx="1655.22" cy="1889.95" r="9.1"/>
					<circle fill="#A4CD38" cx="1796.35" cy="1823.97" r="9.1"/>
					<circle fill="#A4CD38" cx="1820.62" cy="1923.66" r="9.1"/>
					<circle fill="#A4CD38" cx="1975.19" cy="1816.58" r="9.1"/>
					<circle fill="#A4CD38" cx="2042.84" cy="1867.69" r="9.1"/>
					<circle fill="#A4CD38" cx="1997.44" cy="1967.64" r="9.1"/>
					<circle fill="#A4CD38" cx="1953.03" cy="1983.02" r="9.1"/>
					<circle fill="#A4CD38" cx="1670.54" cy="1969.12" r="9.1"/>
					<circle fill="#A4CD38" cx="1599.12" cy="1992.55" r="9.1"/>
					<circle fill="#A4CD38" cx="1789.22" cy="2029.52" r="9.1"/>
					<circle fill="#A4CD38" cx="1854.09" cy="2040.53" r="9.1"/>
					<circle fill="#A4CD38" cx="1535.31" cy="1969.05" r="9.1"/>
					<circle fill="#A4CD38" cx="1415.44" cy="1666.04" r="9.1"/>
					<circle fill="#A4CD38" cx="1166.07" cy="1847.44" r="9.1"/>
					<circle fill="#A4CD38" cx="907.97" cy="1787.39" r="9.1"/>
					<circle fill="#A4CD38" cx="1065.92" cy="1621.99" r="9.1"/>
					<circle fill="#A4CD38" cx="838.32" cy="1560.9" r="9.1"/>
					<circle fill="#A4CD38" cx="941.11" cy="1443.12" r="9.1"/>
					<circle fill="#A4CD38" cx="1022.78" cy="1397.5" r="9.1"/>
					<circle fill="#A4CD38" cx="1368.06" cy="1538.82" r="9.1"/>
					<circle fill="#A4CD38" cx="1923.37" cy="1767.68" r="9.1"/>
					<circle fill="#A4CD38" cx="2108.02" cy="1764.63" r="9.1"/>
					<circle fill="#A4CD38" cx="527.74" cy="1540.27" r="9.1"/>
					<circle id="_x2D_.elCircle-_13_" fill="none" stroke="#012B48" stroke-miterlimit="10" cx="1890.75" cy="855.61" r="50.8"/>
					<circle id="_x2D_.elCircle-_12_" fill="none" stroke="#012B48" stroke-miterlimit="10" cx="1629.34" cy="773.67" r="50.8"/>
					<circle id="_x2D_.elCircle-_11_" fill="none" stroke="#012B48" stroke-miterlimit="10" cx="748.03" cy="1251.8" r="50.8"/>
					<circle id="_x2D_.elCircle-_10_" fill="none" stroke="#012B48" stroke-miterlimit="10" cx="1031.88" cy="946.14" r="50.8"/>
					<circle id="_x2D_.elCircle-_9_" fill="none" stroke="#012B48" stroke-miterlimit="10" cx="814.52" cy="846.16" r="50.8"/>
					<circle id="_x2D_.elCircle-_8_" fill="none" stroke="#012B48" stroke-miterlimit="10" cx="1317.44" cy="1350.77" r="50.8"/>
					<circle id="_x2D_.elCircle-_7_" fill="none" stroke="#012B48" stroke-miterlimit="10" cx="657.56" cy="1648.89" r="50.8"/>
					<circle id="_x2D_.elCircle-_6_" fill="none" stroke="#012B48" stroke-miterlimit="10" cx="1419.85" cy="1664.15" r="50.8"/>
					<circle id="_x2D_.elCircle-_5_" fill="none" stroke="#012B48" stroke-miterlimit="10" cx="2128.21" cy="1535.94" r="50.8"/>
					<circle id="_x2D_.elCircle-_4_" fill="none" stroke="#012B48" stroke-miterlimit="10" cx="2020.37" cy="1049.91" r="50.8"/>
					<circle id="_x2D_.elCircle-_3_" fill="none" stroke="#012B48" stroke-miterlimit="10" cx="1924.51" cy="1918.39" r="50.8"/>
					<circle id="_x2D_.elCircle-_2_" fill="none" stroke="#012B48" stroke-miterlimit="10" cx="1600.28" cy="1992.55" r="50.8"/>
					<circle id="_x2D_.elCircle-_1_" fill="none" stroke="#012B48" stroke-miterlimit="10" cx="1165.52" cy="1848.28" r="50.8"/>
					<circle id="_x2D_.elCircle-" fill="none" stroke="#012B48" stroke-miterlimit="10" cx="2085.74" cy="1850.21" r="50.8"/>
					<g>
						<defs>
							<path id="SVGID_1_" d="M1295.75,695.83l-8.95-7.99l0.67-0.75l8.95,7.99L1295.75,695.83z M1277.85,679.84l-8.95-7.99
								l0.67-0.75l8.95,7.99L1277.85,679.84z M1259.95,663.85l-8.95-7.99l0.67-0.75l8.95,7.99L1259.95,663.85z M1242.05,647.86
								l-8.95-7.99l0.67-0.75l8.95,7.99L1242.05,647.86z M1224.16,631.87l-8.95-7.99l0.67-0.75l8.95,7.99L1224.16,631.87z
								 M1206.26,615.88l-8.95-7.99l0.67-0.75l8.95,7.99L1206.26,615.88z M1188.36,599.9l-8.95-7.99l0.67-0.75l8.95,7.99
								L1188.36,599.9z M1170.46,583.91l-8.95-7.99l0.67-0.75l8.95,7.99L1170.46,583.91z M1152.56,567.92l-8.95-7.99l0.67-0.75
								l8.95,7.99L1152.56,567.92z M1134.66,551.93l-8.95-7.99l0.67-0.75l8.95,7.99L1134.66,551.93z M1116.76,535.94l-8.95-7.99
								l0.67-0.75l8.95,7.99L1116.76,535.94z M1098.86,519.95l-8.95-7.99l0.67-0.75l8.95,7.99L1098.86,519.95z M1080.96,503.96
								l-8.95-7.99l0.67-0.75l8.95,7.99L1080.96,503.96z M1063.07,487.98l-8.95-7.99l0.67-0.75l8.95,7.99L1063.07,487.98z
								 M1045.17,471.99l-8.95-7.99l0.67-0.75l8.95,7.99L1045.17,471.99z M1027.27,456l-8.95-7.99l0.67-0.75l8.95,7.99L1027.27,456z
								 M1009.37,440.01l-8.95-7.99l0.67-0.75l8.95,7.99L1009.37,440.01z M991.47,424.02l-8.95-7.99l0.67-0.75l8.95,7.99
								L991.47,424.02z M973.57,408.03l-8.95-7.99l0.67-0.75l8.95,7.99L973.57,408.03z M955.67,392.05l-8.95-7.99l0.67-0.75
								l8.95,7.99L955.67,392.05z M937.77,376.06l-8.95-7.99l0.67-0.75l8.95,7.99L937.77,376.06z M919.87,360.07l-8.95-7.99
								l0.67-0.75l8.95,7.99L919.87,360.07z M901.98,344.08l-8.95-7.99l0.67-0.75l8.95,7.99L901.98,344.08z M884.08,328.09
								l-8.95-7.99l0.67-0.75l8.95,7.99L884.08,328.09z M866.18,312.1l-8.95-7.99l0.67-0.75l8.95,7.99L866.18,312.1z M848.28,296.12
								l-8.95-7.99l0.67-0.75l8.95,7.99L848.28,296.12z M830.38,280.13l-8.95-7.99l0.67-0.75l8.95,7.99L830.38,280.13z
								 M812.48,264.14l-8.95-7.99l0.67-0.75l8.95,7.99L812.48,264.14z M794.58,248.15l-8.95-7.99l0.67-0.75l8.95,7.99
								L794.58,248.15z"/>
						</defs>
						<clipPath id="SVGID_2_">
							<use xlink:href="#SVGID_1_"  overflow="visible"/>
						</clipPath>
						<g clip-path="url(#SVGID_2_)">
							
								<line id="_x2D_.elLine-_14_" fill="none" stroke="#012B48" stroke-width="3" stroke-miterlimit="10" stroke-dasharray="12" x1="1296.08" y1="695.45" x2="780.68" y2="235.06"/>
						</g>
					</g>
					<g>
						<defs>
							<path id="SVGID_3_" d="M2228.63,1591.72l-0.89-0.46l5.49-10.67l0.89,0.46L2228.63,1591.72z M2239.61,1570.37l-0.89-0.46
								l5.49-10.67l0.89,0.46L2239.61,1570.37z M2250.58,1549.03l-0.89-0.46l5.49-10.67l0.89,0.46L2250.58,1549.03z
								 M2261.55,1527.68l-0.89-0.46l5.49-10.67l0.89,0.46L2261.55,1527.68z M2272.53,1506.34l-0.89-0.46l5.49-10.67l0.89,0.46
								L2272.53,1506.34z M2283.5,1485l-0.89-0.46l5.49-10.67l0.89,0.46L2283.5,1485z M2294.48,1463.65l-0.89-0.46l5.49-10.67
								l0.89,0.46L2294.48,1463.65z M2305.45,1442.31l-0.89-0.46l5.49-10.67l0.89,0.46L2305.45,1442.31z M2316.42,1420.96
								l-0.89-0.46l5.49-10.67l0.89,0.46L2316.42,1420.96z M2327.4,1399.62l-0.89-0.46l5.49-10.67l0.89,0.46L2327.4,1399.62z
								 M2338.37,1378.27l-0.89-0.46l5.49-10.67l0.89,0.46L2338.37,1378.27z M2349.35,1356.93l-0.89-0.46l5.49-10.67l0.89,0.46
								L2349.35,1356.93z M2360.32,1335.59l-0.89-0.46l5.49-10.67l0.89,0.46L2360.32,1335.59z M2371.29,1314.24l-0.89-0.46
								l5.49-10.67l0.89,0.46L2371.29,1314.24z M2382.27,1292.9l-0.89-0.46l5.49-10.67l0.89,0.46L2382.27,1292.9z M2393.24,1271.55
								l-0.89-0.46l5.49-10.67l0.89,0.46L2393.24,1271.55z M2404.21,1250.21l-0.89-0.46l2.92-5.68l0.89,0.46L2404.21,1250.21z"/>
						</defs>
						<clipPath id="SVGID_4_">
							<use xlink:href="#SVGID_3_"  overflow="visible"/>
						</clipPath>
						<g clip-path="url(#SVGID_4_)">
							
								<line id="_x2D_.elLine-_13_" fill="none" stroke="#012B48" stroke-width="3" stroke-miterlimit="10" stroke-dasharray="12" x1="2228.19" y1="1591.49" x2="2406.69" y2="1244.3"/>
						</g>
					</g>
					<g>
						<defs>
							<path id="SVGID_5_" d="M519.8,2142.36l-0.67-0.74l5.15-4.65l0.67,0.74L519.8,2142.36z M533.85,2129.67l-0.67-0.74l8.9-8.05
								l0.67,0.74L533.85,2129.67z M551.66,2113.57l-0.67-0.74l8.9-8.05l0.67,0.74L551.66,2113.57z M569.46,2097.48l-0.67-0.74
								l8.9-8.05l0.67,0.74L569.46,2097.48z M587.27,2081.39l-0.67-0.74l8.9-8.05l0.67,0.74L587.27,2081.39z M605.07,2065.3
								l-0.67-0.74l8.9-8.05l0.67,0.74L605.07,2065.3z M622.88,2049.21l-0.67-0.74l8.9-8.05l0.67,0.74L622.88,2049.21z
								 M640.69,2033.11l-0.67-0.74l8.9-8.05l0.67,0.74L640.69,2033.11z M658.49,2017.02l-0.67-0.74l8.9-8.05l0.67,0.74
								L658.49,2017.02z M676.3,2000.93l-0.67-0.74l8.9-8.05l0.67,0.74L676.3,2000.93z M694.1,1984.84l-0.67-0.74l8.9-8.05
								l0.67,0.74L694.1,1984.84z M711.91,1968.75l-0.67-0.74l8.9-8.05l0.67,0.74L711.91,1968.75z M729.72,1952.66l-0.67-0.74
								l8.9-8.05l0.67,0.74L729.72,1952.66z M747.52,1936.56l-0.67-0.74l8.9-8.05l0.67,0.74L747.52,1936.56z M765.33,1920.47
								l-0.67-0.74l8.9-8.05l0.67,0.74L765.33,1920.47z M783.14,1904.38l-0.67-0.74l8.9-8.05l0.67,0.74L783.14,1904.38z
								 M800.94,1888.29l-0.67-0.74l8.9-8.05l0.67,0.74L800.94,1888.29z M818.75,1872.2l-0.67-0.74l8.9-8.04l0.67,0.74
								L818.75,1872.2z M836.55,1856.11l-0.67-0.74l8.9-8.05l0.67,0.74L836.55,1856.11z M854.36,1840.01l-0.67-0.74l8.9-8.05
								l0.67,0.74L854.36,1840.01z M872.17,1823.92l-0.67-0.74l8.9-8.05l0.67,0.74L872.17,1823.92z M889.97,1807.83l-0.67-0.74
								l8.9-8.05l0.67,0.74L889.97,1807.83z"/>
						</defs>
						<clipPath id="SVGID_6_">
							<use xlink:href="#SVGID_5_"  overflow="visible"/>
						</clipPath>
						<g clip-path="url(#SVGID_6_)">
							
								<line id="_x2D_.elLine-_4_" fill="none" stroke="#012B48" stroke-width="3" stroke-miterlimit="10" stroke-dasharray="12" x1="898.54" y1="1799.41" x2="519.47" y2="2141.99"/>
						</g>
					</g>
					<g>
						<defs>
							<path id="SVGID_7_" d="M430.1,1333.33l-5.55-10.64l0.89-0.46l5.55,10.64L430.1,1333.33z M418.99,1312.05l-5.55-10.64
								l0.89-0.46l5.55,10.64L418.99,1312.05z M407.89,1290.78l-5.55-10.64l0.89-0.46l5.55,10.64L407.89,1290.78z M396.78,1269.5
								l-5.55-10.64l0.89-0.46l5.55,10.64L396.78,1269.5z M385.67,1248.23l-5.55-10.64l0.89-0.46l5.55,10.64L385.67,1248.23z
								 M374.57,1226.95l-5.55-10.64l0.89-0.46l5.55,10.64L374.57,1226.95z M363.46,1205.68l-5.55-10.64l0.89-0.46l5.55,10.64
								L363.46,1205.68z M352.35,1184.4l-5.55-10.64l0.89-0.46l5.55,10.64L352.35,1184.4z M341.24,1163.13l-5.55-10.64l0.89-0.46
								l5.55,10.64L341.24,1163.13z M330.14,1141.85l-5.55-10.64l0.89-0.46l5.55,10.64L330.14,1141.85z M319.03,1120.58l-5.55-10.64
								l0.89-0.46l5.55,10.64L319.03,1120.58z M307.92,1099.3l-5.55-10.64l0.89-0.46l5.55,10.64L307.92,1099.3z M296.82,1078.03
								l-5.55-10.64l0.89-0.46l5.55,10.64L296.82,1078.03z M285.71,1056.75l-5.55-10.64l0.89-0.46l5.55,10.64L285.71,1056.75z
								 M274.6,1035.48l-5.55-10.64l0.89-0.46l5.55,10.64L274.6,1035.48z M263.5,1014.2l-5.55-10.64l0.89-0.46l5.55,10.64
								L263.5,1014.2z M252.39,992.93l-5.55-10.64l0.89-0.46l5.55,10.64L252.39,992.93z"/>
						</defs>
						<clipPath id="SVGID_8_">
							<use xlink:href="#SVGID_7_"  overflow="visible"/>
						</clipPath>
						<g clip-path="url(#SVGID_8_)">
							
								<line id="_x2D_.elLine-_3_" fill="none" stroke="#012B48" stroke-width="3" stroke-miterlimit="10" stroke-dasharray="12" x1="430.54" y1="1333.1" x2="242.1" y2="972.13"/>
						</g>
					</g>
					<g>
						<defs>
							<path id="SVGID_9_" d="M1314.01,700.37l-0.75-0.66l7.89-9.04l0.75,0.66L1314.01,700.37z M1329.79,682.29l-0.75-0.66
								l7.89-9.04l0.75,0.66L1329.79,682.29z M1345.57,664.21l-0.75-0.66l7.89-9.04l0.75,0.66L1345.57,664.21z M1361.36,646.13
								l-0.75-0.66l7.89-9.04l0.75,0.66L1361.36,646.13z M1377.14,628.05l-0.75-0.66l7.89-9.04l0.75,0.66L1377.14,628.05z
								 M1392.92,609.97l-0.75-0.66l7.89-9.04l0.75,0.66L1392.92,609.97z M1408.71,591.89l-0.75-0.66l7.89-9.04l0.75,0.66
								L1408.71,591.89z M1424.49,573.81l-0.75-0.66l7.89-9.04l0.75,0.66L1424.49,573.81z M1440.27,555.73l-0.75-0.66l7.89-9.04
								l0.75,0.66L1440.27,555.73z M1456.06,537.65l-0.75-0.66l7.89-9.04l0.75,0.66L1456.06,537.65z M1471.84,519.57l-0.75-0.66
								l7.89-9.04l0.75,0.66L1471.84,519.57z M1487.62,501.49l-0.75-0.66l7.89-9.04l0.75,0.66L1487.62,501.49z M1503.41,483.41
								l-0.75-0.66l7.89-9.04l0.75,0.66L1503.41,483.41z M1519.19,465.33l-0.75-0.66l7.89-9.04l0.75,0.66L1519.19,465.33z
								 M1534.97,447.25l-0.75-0.66l7.89-9.04l0.75,0.66L1534.97,447.25z M1550.76,429.17l-0.75-0.66l7.89-9.04l0.75,0.66
								L1550.76,429.17z M1566.54,411.09l-0.75-0.66l7.89-9.04l0.75,0.66L1566.54,411.09z M1582.32,393.01l-0.75-0.66l7.89-9.04
								l0.75,0.66L1582.32,393.01z M1598.11,374.93l-0.75-0.66l7.89-9.04l0.75,0.66L1598.11,374.93z M1613.89,356.85l-0.75-0.66
								l7.89-9.04l0.75,0.66L1613.89,356.85z M1629.67,338.77l-0.75-0.66l7.89-9.04l0.75,0.66L1629.67,338.77z M1645.46,320.69
								l-0.75-0.66l7.89-9.04l0.75,0.66L1645.46,320.69z M1661.24,302.61l-0.75-0.66l7.89-9.04l0.75,0.66L1661.24,302.61z
								 M1677.02,284.53l-0.75-0.66l7.89-9.04l0.75,0.66L1677.02,284.53z M1692.81,266.45l-0.75-0.66l7.89-9.04l0.75,0.66
								L1692.81,266.45z M1708.59,248.37l-0.75-0.66l7.89-9.04l0.75,0.66L1708.59,248.37z M1724.37,230.29l-0.75-0.66l7.89-9.04
								l0.75,0.66L1724.37,230.29z M1740.16,212.21l-0.75-0.66l7.89-9.04l0.75,0.66L1740.16,212.21z M1755.94,194.13l-0.75-0.66
								l7.89-9.04l0.75,0.66L1755.94,194.13z M1771.72,176.05l-0.75-0.66l7.89-9.04l0.75,0.66L1771.72,176.05z M1787.51,157.97
								l-0.75-0.66l7.89-9.04l0.75,0.66L1787.51,157.97z M1803.29,139.89l-0.75-0.66l7.89-9.04l0.75,0.66L1803.29,139.89z
								 M1819.07,121.81l-0.75-0.66l7.89-9.04l0.75,0.66L1819.07,121.81z M1834.86,103.73l-0.75-0.66l7.89-9.04l0.75,0.66
								L1834.86,103.73z M1850.64,85.65l-0.75-0.66l7.89-9.04l0.75,0.66L1850.64,85.65z M1866.42,67.57l-0.75-0.66l7.89-9.04
								l0.75,0.66L1866.42,67.57z M1882.21,49.49l-0.75-0.66l7.89-9.04l0.75,0.66L1882.21,49.49z M1897.99,31.41l-0.75-0.66
								l7.89-9.04l0.75,0.66L1897.99,31.41z M1913.77,13.33l-0.75-0.66l7.89-9.04l0.75,0.66L1913.77,13.33z M1929.56-4.75
								l-0.75-0.66l7.89-9.04l0.75,0.66L1929.56-4.75z M1945.34-22.83l-0.75-0.66l7.89-9.04l0.75,0.66L1945.34-22.83z
								 M1961.13-40.91l-0.75-0.66l7.89-9.04l0.75,0.66L1961.13-40.91z M1976.91-58.99l-0.75-0.66l7.89-9.04l0.75,0.66
								L1976.91-58.99z M1992.69-77.07l-0.75-0.66l7.89-9.04l0.75,0.66L1992.69-77.07z M2008.48-95.15l-0.75-0.66l7.89-9.04
								l0.75,0.66L2008.48-95.15z M2024.26-113.23l-0.75-0.66l3.27-3.74l0.75,0.66L2024.26-113.23z"/>
						</defs>
						<clipPath id="SVGID_10_">
							<use xlink:href="#SVGID_9_"  overflow="visible"/>
						</clipPath>
						<g clip-path="url(#SVGID_10_)">
							
								<line id="_x2D_.elLine-_1_" fill="none" stroke="#012B48" stroke-width="3" stroke-miterlimit="10" stroke-dasharray="12" x1="1313.63" y1="700.04" x2="2027.15" y2="-117.3"/>
						</g>
					</g>
					<g>
						<defs>
							<path id="SVGID_11_" d="M1968.73,2015.35l-0.04-1l11.99-0.5l0.04,1L1968.73,2015.35z M1992.71,2014.34l-0.04-1l11.99-0.5
								l0.04,1L1992.71,2014.34z M2016.69,2013.34l-0.04-1l11.99-0.5l0.04,1L2016.69,2013.34z M2040.66,2012.33l-0.04-1l11.99-0.5
								l0.04,1L2040.66,2012.33z M2064.64,2011.32l-0.04-1l11.99-0.5l0.04,1L2064.64,2011.32z M2088.62,2010.32l-0.04-1l11.99-0.5
								l0.04,1L2088.62,2010.32z M2112.6,2009.31l-0.04-1l11.99-0.5l0.04,1L2112.6,2009.31z M2136.58,2008.3l-0.04-1l11.99-0.5
								l0.04,1L2136.58,2008.3z M2160.56,2007.29l-0.04-1l11.99-0.5l0.04,1L2160.56,2007.29z M2184.54,2006.29l-0.04-1l11.99-0.5
								l0.04,1L2184.54,2006.29z M2208.52,2005.28l-0.04-1l11.99-0.5l0.04,1L2208.52,2005.28z M2232.5,2004.28l-0.04-1l11.99-0.5
								l0.04,1L2232.5,2004.28z M2256.47,2003.27l-0.04-1l11.99-0.5l0.04,1L2256.47,2003.27z M2280.45,2002.26l-0.04-1l11.99-0.5
								l0.04,1L2280.45,2002.26z M2304.43,2001.25l-0.04-1l11.99-0.5l0.04,1L2304.43,2001.25z M2328.41,2000.25l-0.04-1l11.99-0.5
								l0.04,1L2328.41,2000.25z M2352.39,1999.24l-0.04-1l11.99-0.5l0.04,1L2352.39,1999.24z M2376.37,1998.23l-0.04-1l11.99-0.5
								l0.04,1L2376.37,1998.23z M2400.35,1997.23l-0.04-1l11.99-0.5l0.04,1L2400.35,1997.23z M2424.33,1996.22l-0.04-1l11.99-0.5
								l0.04,1L2424.33,1996.22z M2448.3,1995.21l-0.04-1l11.99-0.5l0.04,1L2448.3,1995.21z M2472.28,1994.21l-0.04-1l11.99-0.5
								l0.04,1L2472.28,1994.21z M2496.26,1993.2l-0.04-1l11.99-0.5l0.04,1L2496.26,1993.2z M2520.24,1992.19l-0.04-1l11.99-0.5
								l0.04,1L2520.24,1992.19z M2544.22,1991.19l-0.04-1l11.99-0.5l0.04,1L2544.22,1991.19z M2568.2,1990.18l-0.04-1l11.99-0.5
								l0.04,1L2568.2,1990.18z M2592.18,1989.17l-0.04-1l11.99-0.5l0.04,1L2592.18,1989.17z M2616.16,1988.17l-0.04-1l11.99-0.5
								l0.04,1L2616.16,1988.17z M2640.14,1987.16l-0.04-1l11.99-0.5l0.04,1L2640.14,1987.16z M2664.11,1986.15l-0.04-1l11.99-0.5
								l0.04,1L2664.11,1986.15z M2688.09,1985.15l-0.04-1l11.99-0.5l0.04,1L2688.09,1985.15z M2712.07,1984.14l-0.04-1l11.99-0.5
								l0.04,1L2712.07,1984.14z M2736.05,1983.13l-0.04-1l11.99-0.5l0.04,1L2736.05,1983.13z M2760.03,1982.13l-0.04-1l11.99-0.5
								l0.04,1L2760.03,1982.13z M2784.01,1981.12l-0.04-1l11.99-0.5l0.04,1L2784.01,1981.12z M2807.99,1980.11l-0.04-1l11.99-0.5
								l0.04,1L2807.99,1980.11z M2831.97,1979.11l-0.04-1l11.99-0.5l0.04,1L2831.97,1979.11z M2855.95,1978.1l-0.04-1l11.99-0.5
								l0.04,1L2855.95,1978.1z M2879.92,1977.09l-0.04-1l11.99-0.5l0.04,1L2879.92,1977.09z M2903.9,1976.08l-0.04-1l11.99-0.5
								l0.04,1L2903.9,1976.08z M2927.88,1975.08l-0.04-1l11.99-0.5l0.04,1L2927.88,1975.08z M2951.86,1974.07l-0.04-1l11.99-0.5
								l0.04,1L2951.86,1974.07z M2975.84,1973.06l-0.04-1l0.75-0.03l0.04,1L2975.84,1973.06z"/>
						</defs>
						<clipPath id="SVGID_12_">
							<use xlink:href="#SVGID_11_"  overflow="visible"/>
						</clipPath>
						<g clip-path="url(#SVGID_12_)">
							
								<line id="_x2D_.elLine-_2_" fill="none" stroke="#012B48" stroke-width="3" stroke-miterlimit="10" x1="1968.71" y1="2014.85" x2="2976.56" y2="1972.53"/>
						</g>
					</g>
					<g>
						<defs>
							<path id="SVGID_13_" d="M2277.51,1877.03l-0.29-3.96l1-0.07l0.29,3.96L2277.51,1877.03z M2276.33,1861.11l-0.89-11.97l1-0.07
								l0.89,11.97L2276.33,1861.11z M2274.54,1837.17l-0.89-11.97l1-0.07l0.89,11.97L2274.54,1837.17z M2272.76,1813.24
								l-0.89-11.97l1-0.07l0.89,11.97L2272.76,1813.24z M2270.97,1789.31l-0.89-11.97l1-0.07l0.89,11.97L2270.97,1789.31z
								 M2269.19,1765.37l-0.89-11.97l1-0.07l0.89,11.97L2269.19,1765.37z M2267.41,1741.44l-0.89-11.97l1-0.07l0.89,11.97
								L2267.41,1741.44z M2265.62,1717.51l-0.89-11.97l1-0.07l0.89,11.97L2265.62,1717.51z M2263.84,1693.57l-0.89-11.97l1-0.07
								l0.89,11.97L2263.84,1693.57z M2262.05,1669.64l-0.89-11.97l1-0.07l0.89,11.97L2262.05,1669.64z M2260.27,1645.71
								l-0.89-11.97l1-0.07l0.89,11.97L2260.27,1645.71z M2258.49,1621.77l-0.89-11.97l1-0.07l0.89,11.97L2258.49,1621.77z
								 M2256.7,1597.84l-0.89-11.97l1-0.07l0.89,11.97L2256.7,1597.84z"/>
						</defs>
						<clipPath id="SVGID_14_">
							<use xlink:href="#SVGID_13_"  overflow="visible"/>
						</clipPath>
						<g clip-path="url(#SVGID_14_)">
							
								<line id="_x2D_.elLine-_9_" fill="none" stroke="#012B48" stroke-width="3" stroke-miterlimit="10" stroke-dasharray="12" x1="2256.31" y1="1585.83" x2="2278.01" y2="1876.99"/>
						</g>
					</g>
					<g>
						<defs>
							<path id="SVGID_15_" d="M2183.58,1215.07l-1.36-11.92l0.99-0.11l1.36,11.92L2183.58,1215.07z M2180.86,1191.23l-1.36-11.92
								l0.99-0.11l1.36,11.92L2180.86,1191.23z M2178.15,1167.38l-1.36-11.92l0.99-0.11l1.36,11.92L2178.15,1167.38z
								 M2175.44,1143.54l-1.36-11.92l0.99-0.11l1.36,11.92L2175.44,1143.54z M2172.72,1119.69l-1.36-11.92l0.99-0.11l1.36,11.92
								L2172.72,1119.69z M2170.01,1095.84l-1.36-11.92l0.99-0.11l1.36,11.92L2170.01,1095.84z M2167.29,1072l-1.36-11.92l0.99-0.11
								l1.36,11.92L2167.29,1072z M2164.58,1048.15l-1.36-11.92l0.99-0.11l1.36,11.92L2164.58,1048.15z M2161.86,1024.31
								l-1.36-11.92l0.99-0.11l1.36,11.92L2161.86,1024.31z M2159.15,1000.46l-1.36-11.92l0.99-0.11l1.36,11.92L2159.15,1000.46z
								 M2156.44,976.61l-1.36-11.92l0.99-0.11l1.36,11.92L2156.44,976.61z M2153.72,952.77l-1.36-11.92l0.99-0.11l1.36,11.92
								L2153.72,952.77z M2151.01,928.92l-1.36-11.92l0.99-0.11l1.36,11.92L2151.01,928.92z M2148.29,905.07l-1.1-9.68l0.99-0.11
								l1.1,9.68L2148.29,905.07z"/>
						</defs>
						<clipPath id="SVGID_16_">
							<use xlink:href="#SVGID_15_"  overflow="visible"/>
						</clipPath>
						<g clip-path="url(#SVGID_16_)">
							
								<line id="_x2D_.elLine-_8_" fill="none" stroke="#012B48" stroke-width="3" stroke-miterlimit="10" stroke-dasharray="12" x1="2184.08" y1="1215.02" x2="2147.69" y2="895.34"/>
						</g>
					</g>
				</g>
			</g>
		</g>
	</g>
</g>
</svg>
