<?xml version="1.0" encoding="utf-8"?>
<!-- Generator: Adobe Illustrator 24.2.1, SVG Export Plug-In . SVG Version: 6.00 Build 0)  -->
<svg version="1.1" id="considerSvg" xmlns="http://www.w3.org/2000/svg" xmlns:xlink="http://www.w3.org/1999/xlink" x="0px"
	 y="0px" width="3480px" height="2160px" viewBox="0 0 3480 2160" enable-background="new 0 0 3480 2160" xml:space="preserve">
<g id="_x2D_.contentScene-_1_">
	<g id="_x2D_.moveElements-">
		<g>
			<g>
				<text transform="matrix(1 0 0 1 1358.5576 1765.1708)" fill="#012B48" font-family="'HelveticaNeueLTStd-Hv'" font-size="85px">3 modes of action for disease control and</text>
				<rect fill="none" width="3480" height="2160"/>
			</g>
		</g>
		<g>
			<g>
				<text transform="matrix(1 0 0 1 955.855 1978.7587)"><tspan x="0" y="0" fill="#012B48" font-family="'HelveticaNeueLTStd-ThIt'" font-size="256px" letter-spacing="-6">improved p</tspan><tspan x="1175.02" y="0" fill="#012B48" font-family="'HelveticaNeueLTStd-ThIt'" font-size="256px" letter-spacing="-2">lant he</tspan><tspan x="1892.32" y="0" fill="#012B48" font-family="'HelveticaNeueLTStd-ThIt'" font-size="256px">a</tspan><tspan x="2015.71" y="0" fill="#012B48" font-family="'HelveticaNeueLTStd-ThIt'" font-size="256px" letter-spacing="6">lt</tspan><tspan x="2173.66" y="0" fill="#012B48" font-family="'HelveticaNeueLTStd-ThIt'" font-size="256px" letter-spacing="-12">h</tspan><tspan x="2302.94" y="0" fill="#012B48" font-family="'HelveticaNeueLTStd-ThIt'" font-size="256px" letter-spacing="-2">.</tspan></text>
				<rect fill="none" width="3480" height="2160"/>
			</g>
		</g>
		<g>
			<g>
				<path fill="none" stroke="#012B48" stroke-width="1.2333" stroke-miterlimit="10" d="M2209.23,1333.78H827.69
					c-25.73,0-46.59-20.86-46.59-46.59V602.84c0-25.73,20.86-46.59,46.59-46.59h1381.54c25.73,0,46.59,20.86,46.59,46.59v684.35
					C2255.82,1312.92,2234.96,1333.78,2209.23,1333.78z"/>
				<g>
					<rect x="892.41" y="648.74" fill="#012B48" width="1261.79" height="601.59"/>
					<polyline id="glint" opacity="0.05" fill="#FFFFFF" points="892.41,648.74 2154.2,648.74 2154.2,1250.32 					"/>
					<circle fill="none" stroke="#012B48" stroke-width="1.2333" stroke-miterlimit="10" cx="2675.02" cy="1583.12" r="52.42"/>
				</g>
				<polygon fill="#A4CD38" points="2434.02,2096.41 2384.82,2105.3 2453.82,2212.82 				"/>
				<polygon fill="#A4CD38" points="3027.3,2368.39 2857.1,2156.36 2914.14,2422.64 				"/>
				<polygon fill="#A4CD38" points="2169.43,1516.77 2059.33,1581.97 2152.45,1582.48 				"/>
				<polygon fill="#A4CD38" points="2326.74,1235.19 2201.94,1258.08 2238.67,1340.81 				"/>
				<polygon fill="#A4CD38" points="2585.81,1386.98 2488.86,1443.86 2592.45,1506.24 				"/>
				<polygon fill="#A4CD38" points="2473.62,1203.29 2425.05,1297.37 2593.51,1302.29 				"/>
				
					<line fill="none" stroke="#012B48" stroke-width="1.2333" stroke-miterlimit="10" x1="2881.41" y1="1442.64" x2="2842.18" y2="1431.07"/>
				<polyline fill="none" stroke="#012B48" stroke-width="1.2333" stroke-miterlimit="10" points="2855.1,2154.71 2622.1,2033.72 
					2456.02,1940.23 2291,1776.34 				"/>
				<polyline fill="none" stroke="#012B48" stroke-width="1.2333" stroke-miterlimit="10" points="2453.82,2212.82 2434.02,2096.41 
					2456.02,1940.23 2548.41,1907.23 2503.32,1811.54 2593.51,1740.05 2738.69,1648.75 2818.99,1526.66 2844.28,1430.91 
					2666.1,1337.48 2593.51,1302.29 2549.51,1232.99 2542.91,1145.81 2473.62,1203.29 2424.55,1297.46 				"/>
				<polyline fill="none" stroke="#012B48" stroke-width="1.2333" stroke-miterlimit="10" points="2877.95,1445.7 2822.13,1522.51 
					2676,1579.46 2605.61,1652.05 2586.91,1734.55 2776.09,1853.33 2834.29,2034.82 				"/>
				<polyline fill="none" stroke="#012B48" stroke-width="1.2333" stroke-miterlimit="10" points="3242.4,2722.45 2648.5,2175.6 
					2568.21,2145.91 2434.02,2096.41 2365.31,2010.28 2316.69,1883.03 				"/>
				<polyline fill="none" stroke="#012B48" stroke-width="1.2333" stroke-miterlimit="10" points="2542.85,2406.97 2562.97,2143.97 
					2622.1,2033.72 2546.59,1901.05 2590.88,1738.66 2527.09,1671.76 2388.93,1544.26 2321,1612.46 2244.42,1562.82 				"/>
				
					<line fill="none" stroke="#012B48" stroke-width="1.2333" stroke-miterlimit="10" x1="3068.6" y1="2777.02" x2="2436.5" y2="2101"/>
				<polyline fill="none" stroke="#012B48" stroke-width="1.2333" stroke-miterlimit="10" points="2361.85,2000.66 2400.17,1883.71 
					2409.82,1822.05 				"/>
				<polyline fill="none" stroke="#012B48" stroke-width="1.2333" stroke-miterlimit="10" points="2291.31,1776.34 2372,1762.13 
					2387.27,1544.45 2304.23,1507.97 2207.44,1482.5 2238.24,1341.88 2152.97,1364.98 				"/>
				<polyline fill="none" stroke="#012B48" stroke-width="1.2333" stroke-miterlimit="10" points="2486.39,1441.39 2327.38,1417.77 
					2305.33,1517.87 2319.56,1615.85 2270.99,1675 2371.33,1756.54 2410.92,1820.34 2503.32,1811.54 2527.51,1680.31 
					2527.51,1575.06 2676.09,1582.52 2736.25,1652.91 2776.09,1853.33 2626.5,1832.44 2626.5,2044.72 2648.5,2175.6 2650.7,2683.45 
									"/>
				<polyline fill="none" stroke="#012B48" stroke-width="1.2333" stroke-miterlimit="10" points="2602.93,1651.63 2529.13,1579.89 
					2389.45,1544.26 2327.38,1417.19 2238.67,1341.88 2138.89,1327.88 				"/>
				<polyline fill="none" stroke="#012B48" stroke-width="1.2333" stroke-miterlimit="10" points="2739.31,1650.86 2861.79,1654.85 
					2820.94,1524.22 				"/>
				
					<line fill="none" stroke="#012B48" stroke-width="1.2333" stroke-miterlimit="10" x1="2821" y1="1831.76" x2="2777.71" y2="1853.33"/>
				<polyline fill="none" stroke="#012B48" stroke-width="1.2333" stroke-miterlimit="10" points="2721.1,1367.79 2676,1579.46 
					2593.51,1511.27 2527.51,1575.06 				"/>
				<polyline fill="none" stroke="#012B48" stroke-width="1.2333" stroke-miterlimit="10" points="2856.54,1386.98 2722.53,1367.42 
					2674.04,1221.32 2593.51,1302.29 				"/>
				
					<line fill="none" stroke="#012B48" stroke-width="1.2333" stroke-miterlimit="10" x1="2665.34" y1="1337.57" x2="2587.76" y2="1384.69"/>
				
					<line fill="none" stroke="#012B48" stroke-width="1.2333" stroke-miterlimit="10" x1="2591.22" y1="1304.33" x2="2585.81" y2="1386.98"/>
				
					<line fill="none" stroke="#012B48" stroke-width="1.2333" stroke-miterlimit="10" x1="2593.51" y1="1741.33" x2="2625.74" y2="1830.66"/>
				<polyline fill="none" stroke="#012B48" stroke-width="1.2333" stroke-miterlimit="10" points="2648.5,2175.6 2856.08,2157 
					2914.14,2422.64 3027.3,2368.39 				"/>
				<polyline fill="none" stroke="#012B48" stroke-width="1.2333" stroke-miterlimit="10" points="2649.17,2328.75 2913.82,2422.64 
					2744.8,2762.66 				"/>
				<polyline fill="none" stroke="#012B48" stroke-width="1.2333" stroke-miterlimit="10" points="2425.59,1298.99 2593.51,1302.29 
					2505.52,1369.38 2585.81,1386.98 2592.99,1510.56 				"/>
				<polyline fill="none" stroke="#012B48" stroke-width="1.2333" stroke-miterlimit="10" points="2333.35,1131.91 2475.64,1204.3 
					2482.42,1129.11 				"/>
				<polyline fill="none" stroke="#012B48" stroke-width="1.2333" stroke-miterlimit="10" points="2351.29,1267.76 2473.62,1203.29 
					2549.51,1232.99 2669.4,1221.32 				"/>
				<polyline fill="none" stroke="#012B48" stroke-width="1.2333" stroke-miterlimit="10" points="2427.52,1299.84 2500.69,1368.19 
					2449.08,1410.52 				"/>
				<polyline fill="none" stroke="#012B48" stroke-width="1.2333" stroke-miterlimit="10" points="2365.17,1298.99 2422.26,1298.41 
					2397.82,1366.67 				"/>
				<polyline fill="none" stroke="#012B48" stroke-width="1.2333" stroke-miterlimit="10" points="2069.96,1724.65 2175.17,1685.05 
					2247.29,1585.05 				"/>
				<polyline fill="none" stroke="#012B48" stroke-width="1.2333" stroke-miterlimit="10" points="2113.04,1465.01 2168.95,1517.87 
					2152.45,1582.48 				"/>
				<polyline fill="none" stroke="#012B48" stroke-width="1.2333" stroke-miterlimit="10" points="2205.15,1485.45 2169.43,1516.77 
					2064.21,1519.64 				"/>
				<polyline fill="none" stroke="#012B48" stroke-width="1.2333" stroke-miterlimit="10" points="2140.87,1325.63 2201.94,1258.08 
					2270.99,1243.99 2326.74,1235.19 2238.67,1340.81 2382.4,1338.92 2328.34,1417.77 				"/>
				<polyline fill="none" stroke="#012B48" stroke-width="1.2333" stroke-miterlimit="10" points="2330.68,1231.31 2224.71,1129.11 
					2201.94,1258.08 2117.2,1185.7 2113.04,1249.49 				"/>
				<polyline fill="none" stroke="#012B48" stroke-width="1.2333" stroke-miterlimit="10" points="3358.1,2791.81 2857.1,2156.36 
					2822,1961.71 2822,1830.87 2860.29,1661.75 2882.63,1447.94 2860.29,1390.5 2802.85,1320.3 2675.21,1218.19 2553.95,1145.81 
					2483.75,1128.84 2327.38,1128.84 				"/>
				<polyline fill="none" stroke="#012B48" stroke-width="1.2333" stroke-miterlimit="10" points="2707.12,2834.46 2480.28,2238.3 
					2445.45,2204.23 2384.82,2105.3 2346.53,2003.19 2295.47,1802.15 2263.56,1655.36 2244.42,1562.82 2151.87,1361.79 
					2094.44,1211.81 2094.44,1160.75 2043.38,1080.97 2091.24,1010.77 2177.4,1010.77 2260.37,1080.97 2327.38,1224.57 
					2397.59,1368.17 2490.13,1444.75 2592.88,1508.57 				"/>
				<polyline fill="none" stroke="#012B48" stroke-width="1.2333" stroke-miterlimit="10" points="2183.69,1430.91 2113.58,1463.9 
					2059.33,1521.34 2059.33,1581.97 2162.72,1581.97 2227.83,1526.79 2132.09,1610.69 2100.82,1648.98 2059.33,1725.57 
					2104.33,1770.56 2196.55,1728.76 2263.56,1655.36 2196.55,1728.76 2161.45,1805.34 2190.17,1827.68 2279.52,1805.34 
					2291,1793.22 				"/>
				<polyline fill="none" stroke="#012B48" stroke-width="1.2333" stroke-miterlimit="10" points="2094.44,1166.71 2117.2,1185.7 
					2224.71,1129.11 2224.71,1080.11 2185.17,1017.34 				"/>
				
					<line fill="none" stroke="#012B48" stroke-width="1.2333" stroke-miterlimit="10" x1="2626.5" y1="1832.44" x2="2857.1" y2="2156.36"/>
				
					<line fill="none" stroke="#012B48" stroke-width="1.2333" stroke-miterlimit="10" x1="2546.59" y1="1901.05" x2="2625.74" y2="1830.66"/>
				
					<line fill="none" stroke="#012B48" stroke-width="1.2333" stroke-miterlimit="10" x1="2372" y1="1762.13" x2="2504.55" y2="1809.68"/>
				
					<line fill="none" stroke="#012B48" stroke-width="1.2333" stroke-miterlimit="10" x1="2585.81" y1="1386.98" x2="2721.1" y2="1367.16"/>
				
					<line fill="none" stroke="#012B48" stroke-width="1.2333" stroke-miterlimit="10" x1="2585.81" y1="1386.98" x2="2676" y2="1579.46"/>
				
					<line fill="none" stroke="#012B48" stroke-width="1.2333" stroke-miterlimit="10" x1="2487.65" y1="1444.26" x2="2585.81" y2="1386.98"/>
				
					<line fill="none" stroke="#012B48" stroke-width="1.2333" stroke-miterlimit="10" x1="2490.13" y1="1444.75" x2="2527.51" y2="1574.51"/>
				
					<line fill="none" stroke="#012B48" stroke-width="1.2333" stroke-miterlimit="10" x1="2485.4" y1="1450.27" x2="2389.45" y2="1544.26"/>
				
					<line fill="none" stroke="#012B48" stroke-width="1.2333" stroke-miterlimit="10" x1="2844.28" y1="1430.91" x2="2676.09" y2="1582.52"/>
				
					<line fill="none" stroke="#012B48" stroke-width="1.2333" stroke-miterlimit="10" x1="2434.02" y1="2096.41" x2="2619.79" y2="2031.5"/>
				
					<line fill="none" stroke="#012B48" stroke-width="1.2333" stroke-miterlimit="10" x1="2361.85" y1="2000.66" x2="2456.02" y2="1940.23"/>
				
					<line fill="none" stroke="#012B48" stroke-width="1.2333" stroke-miterlimit="10" x1="2453.82" y1="2212.82" x2="2557.74" y2="2226.98"/>
				
					<line fill="none" stroke="#012B48" stroke-width="1.2333" stroke-miterlimit="10" x1="2475.64" y1="1204.3" x2="2593.51" y2="1302.29"/>
				
					<line fill="none" stroke="#012B48" stroke-width="1.2333" stroke-miterlimit="10" x1="2064.21" y1="1574.51" x2="2169.43" y2="1516.77"/>
				<polyline fill="none" stroke="#012B48" stroke-width="1.2333" stroke-miterlimit="10" points="2503.32,1811.54 2457.99,1936.41 
					2409.82,1822.05 				"/>
				
					<circle id="_x2D_.elCircle-_3_" fill="none" stroke="#012B48" stroke-width="1.2333" stroke-miterlimit="10" cx="2057.9" cy="1584.92" r="52.42"/>
				
					<circle id="_x2D_.elCircle-_2_" fill="none" stroke="#012B48" stroke-width="1.2333" stroke-miterlimit="10" cx="2169.43" cy="1010.77" r="52.42"/>
				
					<circle id="_x2D_.elCircle-_1_" fill="none" stroke="#012B48" stroke-width="1.2333" stroke-miterlimit="10" cx="2548.08" cy="1233.36" r="52.42"/>
				
					<circle id="_x2D_.elCircle-" fill="none" stroke="#012B48" stroke-width="1.2333" stroke-miterlimit="10" cx="2365.31" cy="1999.8" r="52.42"/>
				<circle fill="#A4CD38" cx="2175.17" cy="1010.77" r="10.48"/>
				<circle fill="#A4CD38" cx="2092.2" cy="1166.71" r="10.48"/>
				<circle fill="#A4CD38" cx="2327.38" cy="1423.49" r="10.48"/>
				<circle fill="#A4CD38" cx="2721.1" cy="1367.79" r="10.48"/>
				<circle fill="#A4CD38" cx="2548.08" cy="1233.36" r="10.48"/>
				<circle fill="#A4CD38" cx="2776.27" cy="1853.7" r="10.48"/>
				<circle fill="#A4CD38" cx="2164.69" cy="1516.77" r="10.48"/>
				<circle fill="#A4CD38" cx="2676" cy="1585.05" r="10.48"/>
				<circle fill="#A4CD38" cx="2371.24" cy="1757.8" r="10.48"/>
				<circle fill="#A4CD38" cx="2653.45" cy="2168.41" r="10.48"/>
				<circle fill="#A4CD38" cx="2365.31" cy="1999.8" r="10.48"/>
				<circle fill="#A4CD38" cx="2653.45" cy="2313.23" r="10.48"/>
				<circle fill="#A4CD38" cx="1943.52" cy="1334.24" r="9.25"/>
				<circle fill="#A4CD38" cx="2330.01" cy="1128.37" r="9.25"/>
				<circle fill="#A4CD38" cx="2254.41" cy="958.35" r="9.25"/>
				
					<circle id="_x2D_.elCircle-_4_" fill="none" stroke="#012B48" stroke-width="1.2333" stroke-miterlimit="10" cx="1943.88" cy="1333.87" r="52.42"/>
				
					<circle id="_x2D_.elCircle-_5_" fill="none" stroke="#012B48" stroke-width="1.2333" stroke-miterlimit="10" cx="1725.4" cy="555.27" r="52.42"/>
				
					<circle id="_x2D_.elCircle-_6_" fill="none" stroke="#012B48" stroke-width="1.2333" stroke-miterlimit="10" cx="781.25" cy="752.01" r="52.42"/>
				
					<circle id="_x2D_.elCircle-_7_" fill="none" stroke="#012B48" stroke-width="1.2333" stroke-miterlimit="10" cx="855.1" cy="1454.38" r="52.42"/>
				<circle fill="#A4CD38" cx="1724.78" cy="554.65" r="9.25"/>
				<circle fill="#A4CD38" cx="1015.44" cy="556.25" r="9.25"/>
				<circle fill="#A4CD38" cx="782.49" cy="651.2" r="9.25"/>
				<circle fill="#A4CD38" cx="781.25" cy="752.01" r="9.25"/>
				<circle fill="#A4CD38" cx="618.18" cy="1203.29" r="9.25"/>
				<circle fill="#A4CD38" cx="618.18" cy="1327.88" r="9.25"/>
				<circle fill="#A4CD38" cx="855.1" cy="1454.38" r="9.25"/>
				<circle fill="#A4CD38" cx="1084.44" cy="1332.54" r="9.25"/>
				<circle fill="#A4CD38" cx="1210.27" cy="1335.11" r="9.25"/>
				<path fill="none" stroke="#012B48" stroke-width="1.2333" stroke-miterlimit="10" d="M778.52,900.39h42.2
					c26.12,0,47.3,21.17,47.3,47.3v0c0,26.12-21.17,47.3-47.3,47.3h-42.2"/>
				<polygon fill="#A4CD38" points="236.87,1525.43 317.79,1650.86 195.3,1654.85 				"/>
				<polygon fill="#A4CD38" points="647.27,1822.05 656.92,1883.71 598.61,1940.23 				"/>
				<polygon fill="#A4CD38" points="623.07,2096.41 672.27,2105.3 603.27,2212.82 				"/>
				<polygon fill="#A4CD38" points="29.8,2368.39 199.99,2156.36 142.95,2422.64 				"/>
				<polygon fill="#A4CD38" points="736.09,1612.46 786.1,1675 695.25,1747.31 				"/>
				<polygon fill="#A4CD38" points="883.16,1686.28 949.24,1767.29 860.54,1728.76 				"/>
				<polygon fill="#A4CD38" points="887.67,1516.77 997.76,1581.97 904.65,1582.48 				"/>
				<polygon fill="#A4CD38" points="730.35,1235.19 855.15,1258.08 818.42,1340.81 				"/>
				<polygon fill="#A4CD38" points="471.29,1386.98 568.24,1443.86 464.64,1506.24 				"/>
				<polygon fill="#A4CD38" points="583.48,1203.29 632.04,1297.37 463.59,1302.29 				"/>
				
					<line fill="none" stroke="#012B48" stroke-width="1.2333" stroke-miterlimit="10" x1="175.69" y1="1442.64" x2="214.92" y2="1431.07"/>
				<polyline fill="none" stroke="#012B48" stroke-width="1.2333" stroke-miterlimit="10" points="201.99,2154.71 434.99,2033.72 
					601.07,1940.23 766.09,1776.34 				"/>
				<polyline fill="none" stroke="#012B48" stroke-width="1.2333" stroke-miterlimit="10" points="603.27,2212.82 623.07,2096.41 
					601.07,1940.23 508.68,1907.23 553.78,1811.54 463.59,1740.05 318.4,1648.75 238.11,1526.66 212.81,1430.91 390.99,1337.48 
					463.59,1302.29 507.58,1232.99 514.18,1145.81 583.48,1203.29 632.54,1297.46 				"/>
				<polyline fill="none" stroke="#012B48" stroke-width="1.2333" stroke-miterlimit="10" points="179.14,1445.7 234.96,1522.51 
					381.09,1579.46 451.49,1652.05 470.19,1734.55 281,1853.33 222.8,2034.82 				"/>
				<polyline fill="none" stroke="#012B48" stroke-width="1.2333" stroke-miterlimit="10" points="-185.3,2722.45 408.59,2175.6 
					488.88,2145.91 623.07,2096.41 691.78,2010.28 740.4,1883.03 				"/>
				<polyline fill="none" stroke="#012B48" stroke-width="1.2333" stroke-miterlimit="10" points="514.24,2406.97 494.13,2143.97 
					434.99,2033.72 510.5,1901.05 466.22,1738.66 530.01,1671.76 668.17,1544.26 736.09,1612.46 812.68,1562.82 				"/>
				
					<line fill="none" stroke="#012B48" stroke-width="1.2333" stroke-miterlimit="10" x1="-11.51" y1="2777.02" x2="620.6" y2="2101"/>
				<polyline fill="none" stroke="#012B48" stroke-width="1.2333" stroke-miterlimit="10" points="695.25,2000.66 656.92,1883.71 
					647.27,1822.05 				"/>
				<polyline fill="none" stroke="#012B48" stroke-width="1.2333" stroke-miterlimit="10" points="765.78,1776.34 685.09,1762.13 
					669.82,1544.45 752.86,1507.97 849.65,1482.5 818.85,1341.88 904.13,1364.98 				"/>
				<polyline fill="none" stroke="#012B48" stroke-width="1.2333" stroke-miterlimit="10" points="570.7,1441.39 729.71,1417.77 
					751.76,1517.87 737.53,1615.85 786.1,1675 685.77,1756.54 646.17,1820.34 553.78,1811.54 529.58,1680.31 529.58,1575.06 
					381,1582.52 320.84,1652.91 281,1853.33 430.59,1832.44 430.59,2044.72 408.59,2175.6 406.39,2683.45 				"/>
				<polyline fill="none" stroke="#012B48" stroke-width="1.2333" stroke-miterlimit="10" points="454.16,1651.63 527.96,1579.89 
					667.65,1544.26 729.71,1417.19 818.42,1341.88 918.2,1327.88 				"/>
				<polyline fill="none" stroke="#012B48" stroke-width="1.2333" stroke-miterlimit="10" points="317.79,1650.86 195.3,1654.85 
					236.15,1524.22 				"/>
				
					<line fill="none" stroke="#012B48" stroke-width="1.2333" stroke-miterlimit="10" x1="236.09" y1="1831.76" x2="279.38" y2="1853.33"/>
				<polyline fill="none" stroke="#012B48" stroke-width="1.2333" stroke-miterlimit="10" points="336,1367.79 381.09,1579.46 
					463.59,1511.27 529.58,1575.06 				"/>
				<polyline fill="none" stroke="#012B48" stroke-width="1.2333" stroke-miterlimit="10" points="200.56,1386.98 334.56,1367.42 
					383.05,1221.32 463.59,1302.29 				"/>
				
					<line fill="none" stroke="#012B48" stroke-width="1.2333" stroke-miterlimit="10" x1="391.76" y1="1337.57" x2="469.33" y2="1384.69"/>
				
					<line fill="none" stroke="#012B48" stroke-width="1.2333" stroke-miterlimit="10" x1="465.88" y1="1304.33" x2="471.29" y2="1386.98"/>
				
					<line fill="none" stroke="#012B48" stroke-width="1.2333" stroke-miterlimit="10" x1="463.59" y1="1741.33" x2="431.35" y2="1830.66"/>
				<polyline fill="none" stroke="#012B48" stroke-width="1.2333" stroke-miterlimit="10" points="408.59,2175.6 201.02,2157 
					142.95,2422.64 29.8,2368.39 				"/>
				<polyline fill="none" stroke="#012B48" stroke-width="1.2333" stroke-miterlimit="10" points="407.93,2328.75 143.27,2422.64 
					312.29,2762.66 				"/>
				<polyline fill="none" stroke="#012B48" stroke-width="1.2333" stroke-miterlimit="10" points="631.5,1298.99 463.59,1302.29 
					551.58,1369.38 471.29,1386.98 464.11,1510.56 				"/>
				<polyline fill="none" stroke="#012B48" stroke-width="1.2333" stroke-miterlimit="10" points="723.74,1131.91 581.46,1204.3 
					574.68,1129.11 				"/>
				<polyline fill="none" stroke="#012B48" stroke-width="1.2333" stroke-miterlimit="10" points="705.81,1267.76 583.48,1203.29 
					507.58,1232.99 387.69,1221.32 				"/>
				<polyline fill="none" stroke="#012B48" stroke-width="1.2333" stroke-miterlimit="10" points="629.58,1299.84 556.41,1368.19 
					608.01,1410.52 				"/>
				<polyline fill="none" stroke="#012B48" stroke-width="1.2333" stroke-miterlimit="10" points="691.93,1298.99 634.83,1298.41 
					659.28,1366.67 				"/>
				<polyline fill="none" stroke="#012B48" stroke-width="1.2333" stroke-miterlimit="10" points="868.59,1748.84 835.35,1754.34 
					783.38,1801.05 814.11,1723.21 781.95,1724.65 				"/>
				<polyline fill="none" stroke="#012B48" stroke-width="1.2333" stroke-miterlimit="10" points="808.53,1672.13 815.55,1720.92 
					856.25,1724.83 				"/>
				<polyline fill="none" stroke="#012B48" stroke-width="1.2333" stroke-miterlimit="10" points="987.14,1724.65 881.92,1685.05 
					809.81,1585.05 				"/>
				<polyline fill="none" stroke="#012B48" stroke-width="1.2333" stroke-miterlimit="10" points="795.6,1649.1 881.92,1690.55 
					862.85,1726.66 				"/>
				<polyline fill="none" stroke="#012B48" stroke-width="1.2333" stroke-miterlimit="10" points="944.06,1465.01 888.15,1517.87 
					904.65,1582.48 				"/>
				<polyline fill="none" stroke="#012B48" stroke-width="1.2333" stroke-miterlimit="10" points="851.94,1485.45 887.67,1516.77 
					992.88,1519.64 				"/>
				<polyline fill="none" stroke="#012B48" stroke-width="1.2333" stroke-miterlimit="10" points="916.23,1325.63 855.15,1258.08 
					786.1,1243.99 730.35,1235.19 818.42,1340.81 674.69,1338.92 728.75,1417.77 				"/>
				<polyline fill="none" stroke="#012B48" stroke-width="1.2333" stroke-miterlimit="10" points="726.42,1231.31 832.39,1129.11 
					855.15,1258.08 939.9,1185.7 944.06,1249.49 				"/>
				<polyline fill="none" stroke="#012B48" stroke-width="1.2333" stroke-miterlimit="10" points="-301,2791.81 199.99,2156.36 
					235.1,1961.71 235.1,1830.87 196.8,1661.75 174.47,1447.94 196.8,1390.5 254.24,1320.3 381.89,1218.19 503.15,1145.81 
					573.35,1128.84 729.71,1128.84 				"/>
				<polyline fill="none" stroke="#012B48" stroke-width="1.2333" stroke-miterlimit="10" points="349.97,2834.46 576.82,2238.3 
					611.64,2204.23 672.27,2105.3 710.56,2003.19 761.62,1802.15 793.53,1655.36 812.68,1562.82 905.22,1361.79 962.66,1211.81 
					962.66,1160.75 1013.72,1080.97 965.85,1010.77 879.69,1010.77 796.72,1080.97 729.71,1224.57 659.51,1368.17 566.97,1444.75 
					464.21,1508.57 				"/>
				<polyline fill="none" stroke="#012B48" stroke-width="1.2333" stroke-miterlimit="10" points="873.4,1430.91 943.51,1463.9 
					997.76,1521.34 997.76,1581.97 894.37,1581.97 829.26,1526.79 925,1610.69 956.28,1648.98 997.76,1725.57 952.76,1770.56 
					860.54,1728.76 793.53,1655.36 860.54,1728.76 895.65,1805.34 866.93,1827.68 777.58,1805.34 766.09,1793.22 				"/>
				<polyline fill="none" stroke="#012B48" stroke-width="1.2333" stroke-miterlimit="10" points="962.66,1166.71 939.9,1185.7 
					832.39,1129.11 832.39,1080.11 871.93,1017.34 				"/>
				
					<line fill="none" stroke="#012B48" stroke-width="1.2333" stroke-miterlimit="10" x1="430.59" y1="1832.44" x2="199.99" y2="2156.36"/>
				
					<line fill="none" stroke="#012B48" stroke-width="1.2333" stroke-miterlimit="10" x1="510.5" y1="1901.05" x2="431.35" y2="1830.66"/>
				
					<line fill="none" stroke="#012B48" stroke-width="1.2333" stroke-miterlimit="10" x1="317.79" y1="1650.86" x2="235.1" y2="1830.87"/>
				
					<line fill="none" stroke="#012B48" stroke-width="1.2333" stroke-miterlimit="10" x1="667.65" y1="1544.26" x2="553.78" y2="1811.54"/>
				
					<line fill="none" stroke="#012B48" stroke-width="1.2333" stroke-miterlimit="10" x1="685.09" y1="1762.13" x2="552.55" y2="1809.68"/>
				
					<line fill="none" stroke="#012B48" stroke-width="1.2333" stroke-miterlimit="10" x1="736.09" y1="1612.46" x2="689.93" y2="1762.99"/>
				
					<line fill="none" stroke="#012B48" stroke-width="1.2333" stroke-miterlimit="10" x1="471.29" y1="1386.98" x2="336" y2="1367.16"/>
				
					<line fill="none" stroke="#012B48" stroke-width="1.2333" stroke-miterlimit="10" x1="471.29" y1="1386.98" x2="381.09" y2="1579.46"/>
				
					<line fill="none" stroke="#012B48" stroke-width="1.2333" stroke-miterlimit="10" x1="569.44" y1="1444.26" x2="471.29" y2="1386.98"/>
				
					<line fill="none" stroke="#012B48" stroke-width="1.2333" stroke-miterlimit="10" x1="566.97" y1="1444.75" x2="529.58" y2="1574.51"/>
				
					<line fill="none" stroke="#012B48" stroke-width="1.2333" stroke-miterlimit="10" x1="571.7" y1="1450.27" x2="667.65" y2="1544.26"/>
				
					<line fill="none" stroke="#012B48" stroke-width="1.2333" stroke-miterlimit="10" x1="212.81" y1="1430.91" x2="381" y2="1582.52"/>
				
					<line fill="none" stroke="#012B48" stroke-width="1.2333" stroke-miterlimit="10" x1="623.07" y1="2096.41" x2="437.3" y2="2031.5"/>
				
					<line fill="none" stroke="#012B48" stroke-width="1.2333" stroke-miterlimit="10" x1="695.25" y1="2000.66" x2="601.07" y2="1940.23"/>
				
					<line fill="none" stroke="#012B48" stroke-width="1.2333" stroke-miterlimit="10" x1="603.27" y1="2212.82" x2="499.36" y2="2226.98"/>
				
					<line fill="none" stroke="#012B48" stroke-width="1.2333" stroke-miterlimit="10" x1="581.46" y1="1204.3" x2="463.59" y2="1302.29"/>
				
					<line fill="none" stroke="#012B48" stroke-width="1.2333" stroke-miterlimit="10" x1="992.88" y1="1574.51" x2="887.67" y2="1516.77"/>
				
					<line fill="none" stroke="#012B48" stroke-width="1.2333" stroke-miterlimit="10" x1="835.35" y1="1754.34" x2="866.93" y2="1827.68"/>
				
					<line fill="none" stroke="#012B48" stroke-width="1.2333" stroke-miterlimit="10" x1="895.65" y1="1805.34" x2="832.39" y2="1759.03"/>
				
					<line fill="none" stroke="#012B48" stroke-width="1.2333" stroke-miterlimit="10" x1="952.76" y1="1770.56" x2="881.92" y2="1685.05"/>
				
					<line fill="none" stroke="#012B48" stroke-width="1.2333" stroke-miterlimit="10" x1="766.09" y1="1783.76" x2="647.27" y2="1822.05"/>
				<polyline fill="none" stroke="#012B48" stroke-width="1.2333" stroke-miterlimit="10" points="553.78,1811.54 599.1,1936.41 
					647.27,1822.05 				"/>
				
					<circle id="_x2D_.elCircle-_8_" fill="none" stroke="#012B48" stroke-width="1.2333" stroke-miterlimit="10" cx="382.07" cy="1583.12" r="52.42"/>
				
					<circle id="_x2D_.elCircle-_9_" fill="none" stroke="#012B48" stroke-width="1.2333" stroke-miterlimit="10" cx="997.76" cy="1724.65" r="52.42"/>
				
					<circle id="_x2D_.elCircle-_10_" fill="none" stroke="#012B48" stroke-width="1.2333" stroke-miterlimit="10" cx="999.2" cy="1584.92" r="52.42"/>
				
					<circle id="_x2D_.elCircle-_11_" fill="none" stroke="#012B48" stroke-width="1.2333" stroke-miterlimit="10" cx="509.02" cy="1233.36" r="52.42"/>
				
					<circle id="_x2D_.elCircle-_12_" fill="none" stroke="#012B48" stroke-width="1.2333" stroke-miterlimit="10" cx="691.78" cy="1999.8" r="52.42"/>
				<circle fill="#A4CD38" cx="778.32" cy="1072.44" r="10.48"/>
				<circle fill="#A4CD38" cx="964.89" cy="1166.71" r="10.48"/>
				<circle fill="#A4CD38" cx="729.71" cy="1423.49" r="10.48"/>
				<circle fill="#A4CD38" cx="336" cy="1367.79" r="10.48"/>
				<circle fill="#A4CD38" cx="509.02" cy="1233.36" r="10.48"/>
				<circle fill="#A4CD38" cx="280.82" cy="1853.7" r="10.48"/>
				<circle fill="#A4CD38" cx="999.2" cy="1725.93" r="10.48"/>
				<circle fill="#A4CD38" cx="892.41" cy="1516.77" r="10.48"/>
				<circle fill="#A4CD38" cx="840.09" cy="1754.34" r="10.48"/>
				<circle fill="#A4CD38" cx="381.09" cy="1585.05" r="10.48"/>
				<circle fill="#A4CD38" cx="463.68" cy="1742.58" r="10.48"/>
				<circle fill="#A4CD38" cx="685.86" cy="1757.8" r="10.48"/>
				<circle fill="#A4CD38" cx="403.64" cy="2168.41" r="10.48"/>
				<circle fill="#A4CD38" cx="691.78" cy="1999.8" r="10.48"/>
				<circle fill="#A4CD38" cx="403.64" cy="2313.23" r="10.48"/>
				<circle fill="#A4CD38" cx="727.09" cy="1128.37" r="9.25"/>
				
					<circle id="_x2D_.elCircle-_13_" fill="none" stroke="#012B48" stroke-width="1.2333" stroke-miterlimit="10" cx="1193.69" cy="554.03" r="52.42"/>
				
					<circle id="_x2D_.elCircle-_14_" fill="none" stroke="#012B48" stroke-width="1.2333" stroke-miterlimit="10" cx="2254.41" cy="742.76" r="52.42"/>
				
					<circle id="_x2D_.elCircle-_15_" fill="none" stroke="#012B48" stroke-width="1.2333" stroke-miterlimit="10" cx="2201.99" cy="1454.38" r="52.42"/>
				<circle fill="#A4CD38" cx="1874.88" cy="556.5" r="9.25"/>
				<circle fill="#A4CD38" cx="1194.31" cy="555.88" r="9.25"/>
				<circle fill="#A4CD38" cx="2254.41" cy="742.76" r="9.25"/>
				<circle fill="#A4CD38" cx="2438.91" cy="1203.29" r="9.25"/>
				<circle fill="#A4CD38" cx="2438.91" cy="1327.88" r="9.25"/>
				<circle fill="#A4CD38" cx="2201.99" cy="1454.38" r="9.25"/>
				<circle fill="#A4CD38" cx="1823.65" cy="1333.78" r="9.25"/>
				<path display="none" fill="none" stroke="#012B48" stroke-miterlimit="10" d="M2550.76,1009.01h-34.21
					c-21.18,0-38.35,17.17-38.35,38.35v0c0,21.18,17.17,38.35,38.35,38.35h34.21"/>
				<g id="phoneLogo">
					<g display="none">
						<path display="inline" fill="#F2F4F5" d="M1715.41,979.69c9.29-11.47,19.24-22.04,34.52-25.37
							c25.15-5.48,47.62,5.79,58.18,29.27c0.84,1.86,1.2,3.94,3.26,5.14c3.87-0.23,3.08-3.94,4.1-6.09
							c13.42-28.17,44.52-37.13,65.97-22.94c6,3.97,6.94,0.44,6.92-4.67c-0.05-11.32,0.3-22.65-0.14-33.96
							c-0.27-7.05,1.97-9.73,9.35-9.53c20.45,0.53,16.86-1.27,16.93,17.08c0.16,38.08,0.13,76.16-0.07,114.24
							c-0.02,3.87,2.65,10.56-4.15,10.65c-6.81,0.09-15.6,4.77-20.29-3.54c-2.55-4.51-4.03-3.04-6.88-1.54
							c-32.77,17.21-60.25-0.33-68.91-26.23c-1.77-5.29-3.96-7.81-10.01-7.69c-19.55,0.38-39.12,0.09-58.68,0.22
							c-2.48,0.02-6.05-1.5-7.17,1.98c-0.89,2.74,1.37,5.07,3.06,7.25c8.38,10.81,25.66,13.61,35.75,3.96
							c8.87-8.49,18.63-4.74,28.08-5.12c4.96-0.2,3.44,4.01,2.07,6.79c-4.7,9.55-11.98,16.68-21.4,21.49
							c-16.79,8.59-45.14,4.17-59.67-9.11c-15.05-13.75-19.93-36-12.37-55.7c0.82-2.13,2.65-4.12,1.74-6.74L1715.41,979.69z
							 M1888.3,1004.99c0.1-15.3-11.55-28.03-25.63-27.99c-13.9,0.04-24.84,11.86-25.17,27.21c-0.34,15.46,11.14,28.12,25.43,28.02
							C1876.56,1032.14,1888.21,1019.64,1888.3,1004.99z M1761.4,993.61c5.8,0,11.6-0.05,17.4,0.01c6.73,0.07,6.58-3.06,3.69-7.63
							c-7.93-12.56-29.24-13.96-39.39-2.45c-1.97,2.24-5.11,4.67-4.12,7.83c1.21,3.86,5.25,2.04,8.08,2.18
							C1751.83,993.8,1756.62,993.62,1761.4,993.61z"/>
						<path display="inline" fill="#F2F4F5" d="M1202.08,977.52c-1.42-6.13-2.83-12.26-4.25-18.39c0.46-3.03-0.27-5.58-2.81-7.76
							c-1.94,2.6-2.69,4.93-1.46,7.63c-0.19,1.07-0.39,2.15-0.58,3.22c-2.68,2.75-2.99,6.01-2.07,9.55
							c-0.31,1.92-0.62,3.84-0.93,5.76c-1.39,1.27-1.99,2.73-1.07,4.55c-4.57,21.43-9.4,42.81-13.54,64.33
							c-1.15,5.99-3.52,7.76-9.42,7.88c-23.07,0.46-22.78,0.58-28.89-21.78c-10.11-36.97-20.44-73.89-31.16-110.69
							c-2.41-8.29-0.91-10.63,7.87-10.44c19.43,0.4,19.35,0.02,23.62,18.52c5.55,24.03,11.23,48.03,16.92,72.03
							c0.61,2.58,1.6,5.07,4.14,7.65c4.29-20.43,8.58-40.86,12.87-61.29c2.04-9.72,4.39-19.38,6.06-29.16
							c0.91-5.36,3.15-7.8,8.75-7.62c32.77,1.05,24.67-6.07,31.64,24.81c5.17,22.93,9.54,46.04,14.57,70.54
							c6.75-4.98,6.09-11.78,7.47-17.02c5.92-22.51,11.33-45.18,16.17-67.95c1.67-7.86,4.79-10.86,12.97-10.48
							c20.36,0.95,19.86-3.36,13.87,18.74c-10.56,38.98-21.92,77.75-32.48,116.73c-1.65,6.08-4.56,7.29-10.07,7.38
							c-21.36,0.37-21.38,0.52-26.31-20.01c-0.88-3.66-1.53-7.37-2.29-11.06c0.63-1.89,0.2-3.41-1.58-4.44
							c-1.17-5.5-2.33-11-3.5-16.5c1.12-1.56,0.89-2.92-0.6-4.11c-0.21-1.25-0.42-2.49-0.63-3.74c0.88-3.53,0.59-6.8-2.1-9.54
							c-0.2-1.06-0.39-2.13-0.59-3.19C1203.99,980.06,1203.53,978.72,1202.08,977.52z"/>
						<path display="inline" fill="#F2F4F5" d="M1335.88,1014.66c-9.95,0-19.9-0.06-29.84,0.05c-2.22,0.02-5.16-0.96-6.26,2.04
							c-0.91,2.5,0.77,4.53,2.15,6.52c8.3,11.9,26.62,13.83,38.1,3.4c8.5-7.72,18.23-3.47,27.38-3.62c3.8-0.06,1.97,4.27,0.94,6.62
							c-4.17,9.51-11.16,17-20.43,20.91c-19.31,8.14-50.63,7.8-66.6-15.63c-14.91-21.87-12.42-50.62,6.84-68.23
							c19.25-17.61,48.17-18.7,67.68-1.89c13.01,11.21,17.99,26.17,17.74,43.16c-0.08,5.66-3,6.83-7.86,6.75
							C1355.78,1014.54,1345.83,1014.66,1335.88,1014.66z M1322.62,993.61c5.83,0,11.67-0.12,17.5,0.03
							c6.41,0.17,7.16-2.2,3.83-7.25c-8.72-13.24-29.94-14.58-40.23-2.27c-1.81,2.17-5.15,4.48-3.12,7.93
							c1.65,2.82,5.01,1.43,7.62,1.52C1313.01,993.75,1317.82,993.62,1322.62,993.61z"/>
						<path display="inline" fill="#F2F4F5" d="M1419.54,1054.42c-24.48,0.34-38.39-7.67-45.1-24.46c-2.97-7.44-0.68-9.07,6.3-8.84
							c8.73,0.29,16.82-0.64,24.28,7.18c6.3,6.6,16.47,5.77,25.36,2.89c3.66-1.18,7.35-3.18,6.86-7.76c-0.4-3.8-3.61-5.7-7.14-6.46
							c-9.36-2.01-18.82-3.62-28.13-5.87c-4.6-1.11-9.17-2.85-13.36-5.05c-14.2-7.44-17.89-24.55-8.39-37.62
							c15.72-21.63,60.5-20.53,75.12,1.98c2.32,3.57,6.26,7.68,3.73,12.01c-2.04,3.51-6.94,1.29-10.55,1.48
							c-7.16,0.39-13.76,0.12-20.05-5.24c-5.37-4.58-13.06-3.24-19.83-1.56c-3.38,0.84-6.85,2.44-6.7,6.63
							c0.13,3.64,3.33,5.05,6.39,5.7c9.71,2.06,19.6,3.38,29.17,5.91c20.1,5.33,29.78,18.83,25.38,34.38
							c-3.59,12.68-16.55,23.46-30,24.62C1428.47,1054.75,1423.99,1054.42,1419.54,1054.42z"/>
						<path display="inline" fill="#F2F4F5" d="M1475.19,1001.76c0-4.8-0.14-9.6,0.04-14.39c0.2-5.34-0.33-9.83-7.41-9.27
							c-3.84,0.3-5.08-2.36-4.45-5.22c1.51-6.82-6.06-17.97,9.32-18.64c4.25-0.19,1.88-6.44,2.5-9.92c0.8-4.5-2.55-11.45,2.43-13.06
							c6.19-1.99,13.69-1.58,20.23-0.25c5.11,1.04,2.93,7.03,2.74,10.7c-0.47,8.83-0.14,15.7,12.02,13.56
							c7.63-1.34,7.06,4.97,6.46,9.57c-0.63,4.89,3.83,13.97-6.1,12.94c-12.86-1.33-12.95,5.43-12.31,14.55
							c0.5,7.16,0.11,14.38,0.19,21.58c0.09,8.52,3.58,14.26,12.51,16.2c12.59,2.74,5.54,12.77,6.16,19.34
							c0.67,7.07-6.26,4.71-10.08,4.52c-17.77-0.87-31.33-13.74-33.48-31.7c-0.81-6.78-0.7-13.67-1.01-20.51
							C1475.02,1001.77,1475.1,1001.76,1475.19,1001.76z"/>
						<path display="inline" fill="#F2F4F5" d="M1715.62,979.54c-17.6-5.51-31.8,3.62-32.49,21.52
							c-0.57,14.69-0.53,29.43-0.03,44.12c0.25,7.37-2.36,10.03-9.38,8.97c-0.33-0.05-0.68,0-1.03-0.01
							c-17.7-0.22-15.4,2.03-15.48-15.06c-0.11-23.95-0.14-47.89,0.08-71.84c0.04-4.02-2.54-10.53,3.15-11.45
							c6.65-1.08,15.26-3.99,20.3,1.87c3.75,4.37,5.33,3.67,8.55,0.95c0.26-0.22,0.55-0.41,0.84-0.59
							c6.62-4.17,14.68-7.41,21.31-4.08c6.44,3.23,1.45,11.89,3.03,17.88c0.7,2.67-3.57,5.84,0.95,7.87
							C1715.41,979.69,1715.62,979.54,1715.62,979.54z"/>
						<path display="inline" fill="#F2F4F5" d="M1398.99,820.5c8.11-2.25,13.56-11.84,23.67-8.56c1.2,1.99,3.31,1.75,4.05,0.35
							c3.49-6.62,8.44-4.01,15.29-2.66c-5.28,3.51-9.54,5.66-12.93,8.76c-5.97,5.46-14.16,9.43-14.65,19.14
							c-4.51,1.67-6.6,5.61-8.07,9.61c-3.98,10.85-11.49,18.56-20.79,24.87c-3.45,0.87-6.9,1.74-10.35,2.61
							c5.79-13.94,11.84-27.76,19.53-40.81c-4.16-1.71-6.06,1.18-7.86,3.48c-5.42,6.96-10.44,14.11-13.98,22.36
							c-4.64,10.83-7.94,22.45-16.32,31.37l0.14,0.03c-6.21,1.33-10.71,5.28-14.85,9.76c-1.85,0.74-4.23,2.57-5.44,1.98
							c-2.44-1.17-0.44-3.48,0.23-5.22c6.44-16.61,12.02-33.66,23.6-47.73c9.7-8.48,19.55-17.21,31.74-21.38
							C1397.1,826.71,1399.41,825.66,1398.99,820.5z"/>
						<path display="inline" fill="#F2F4F5" d="M1444.86,888.6c-4.11-0.4-6.81,2.65-10.13,4.17c-15.61,2.81-29.56,10.67-44.75,14.73
							c-14.37,2.58-28.92,1.83-43.4,2.37c-1.93,0.07-4.68,0.85-5.09-1.62c-0.23-1.38,1.92-3.14,3-4.74
							c5.36-1.59,9.41-5.3,13.61-8.67c1.99-1.6,1.83-3.52-1.37-3.81c0,0-0.14-0.03-0.14-0.03c0.25,1.25,0.38,2.94,2.22,2.28
							c11.94-4.25,24.11-1.89,36.21-1.41c9.46,0.38,18.95,1.07,28.05-2.52c5.54,0.89,10.43-1.88,15.66-2.77
							C1441.11,886.19,1444.1,884.02,1444.86,888.6z"/>
						<path display="inline" fill="#F2F4F5" d="M1492.91,795.87c1.99,0.15,3.97,0.31,5.96,0.46c-4.83,7.59-14.98,2.94-20.51,8.92
							c-11.66,1.95-19.04,9.75-25.58,18.7c-6.04,8.26-11.08,17.38-19.83,23.35c-8.8,0.33-14.28,9.92-23.71,8.49
							c1.85-5.31,3.69-10.61,5.54-15.92c3.09,0.39,3.9-2.04,5.17-4.04c8.04-12.62,19.91-20.65,32.82-27.52
							C1465.38,801.59,1478.83,797.75,1492.91,795.87z"/>
						<path display="inline" fill="#F2F4F5" d="M1340.25,934.33c-4.11,0.49-8.22,0.98-12.34,1.47c-0.93-0.3-1.84-0.75-2.8-0.87
							c-4.49-0.59-11.29,2.42-13.03-1.44c-2.45-5.42,6.27-6.36,8.14-10.83c7.79-5.43,16.52-6.79,25.81-6.31
							c14.87,0.77,29.71,0.85,44.04-4.2c4.2,1.2,7.46-1.72,11.18-2.4c2.44-0.44,5.88-4.93,7.99,0.65
							c-17.93,5.7-34.13,15.94-52.68,20.01c-3.95,0.87-7.86,1.91-11.79,2.87C1343.02,932.51,1341.44,932.6,1340.25,934.33z"/>
						<path display="inline" fill="#F2F4F5" d="M1307.29,928.14c-5.65,1.66-4.62-2.44-4.1-5.21c5.06-26.8,17.97-49.22,38.11-67.54
							c1.94-1.76,4.37-2.75,6.38-0.88c2.1,1.96-0.28,3.48-1.46,5.03c-9.04,11.87-13.13,25.99-17.26,39.92
							c-2.33,7.86-6.21,14.3-11.76,20.02C1313.25,921.63,1309.45,923.94,1307.29,928.14z"/>
						<path display="inline" fill="#F2F4F5" d="M1493.62,860.81c-4.33,1.63-7.84,4.48-11.22,7.52c-1.24-2.02,1.44-7.09-4.55-5.41
							c-14.12,3.97-28.68,3.61-43.15,4.11c-5.37-0.95-10.74-1.9-16.1-2.85c-0.54-1.92-2.62-3.57,1.17-5.22
							c6.33-2.77,12.21-6.58,18.28-9.96c8.88-2.18,17.27,1.52,25.87,2.06c11.02,0.7,22.68,4.66,32.96-3.22
							c3.03,0.32,6.3-1.62,9.24,0.79C1502.21,853.2,1495.86,854.88,1493.62,860.81z"/>
						<path display="inline" fill="#F2F4F5" d="M1560.7,804.44c-3.19,1.73-5.81,3.79-4.47,8.04c-0.8,0.54-1.6,1.09-2.4,1.63
							c-6.56-0.01-12.51,2.07-18.11,5.32c-9.21,3.39-18.83,4.2-28.52,4.37c-2.19,0.04-5.2,0.54-6.21-2.2
							c-1.08-2.91,1.69-4.24,3.6-5.27c7.92-4.3,13.96-11.68,23.06-14.01c1.31,0.05,2.61,0.1,3.92,0.16c2.88,3,6.41,4.15,10.54,4.07
							C1548.37,806.43,1554.28,803.18,1560.7,804.44z"/>
						<path display="inline" fill="#F2F4F5" d="M1474.6,831.51c16.95-0.97,33.9-1.94,50.85-2.91c0.92,3.43-1.32,4.37-3.82,6
							c-7.75,5.09-17.36,5.09-25.17,9.81c-1.1,0.18-2.19,0.37-3.29,0.55c-6.38-0.88-12.74-1.23-19.07,0.38
							c-4.84-0.47-9.59-2.24-14.55-1.03c-0.47-5.1,3.58-6.33,6.98-8.05C1469.34,834.86,1473.31,835.46,1474.6,831.51z"/>
						<path display="inline" fill="#F2F4F5" d="M1511.48,802.44c0.38,2.74-0.97,4.41-3.3,5.59c-12.02,6.07-22.54,14.46-33.66,21.9
							c-7.23-0.04-12.94,6.07-20.41,5.05c5.67-12.11,16.51-19.54,25.73-28.44C1490.5,806.05,1501.04,804.62,1511.48,802.44z"/>
						<path display="inline" fill="#F2F4F5" d="M1534.07,829.25c-2.89-0.07-5.78-0.14-8.67-0.21
							C1528.36,826.33,1531.26,826.09,1534.07,829.25z"/>
						<path display="inline" fill="#F2F4F5" d="M1381.45,883.95c-0.73-6.89,7.33-5.73,9.3-10.15c14.34-7.67,29.37-2.7,44.14-2.42
							c7.93,3.35,17.12-2.19,25.7,3.32c-13.07,4.86-25.51,8.28-38.16,10.97C1408.76,885.1,1395.11,884.53,1381.45,883.95z"/>
						<path display="inline" fill="#F2F4F5" d="M1642.58,991.54c-8.06-13.91-8.06-13.91-2.69-28.49
							c9.83-26.69-6.62-50.08-36.89-51.29c-20.21-0.81-40.48,0.16-60.7-0.42c-8.2-0.23-10.49,2.35-10.39,10.44
							c0.41,34.97,0.18,69.94,0.18,104.92c0,19.17,0,25.19,9,26.87c0.98,0.36,2.04,0.59,3.15,0.59h20.93c0,0.01,0.01,0.02,0.01,0.04
							c13.38-0.04,26.77,0.34,40.13-0.18C1639.31,1052.69,1658.88,1019.69,1642.58,991.54z M1560.04,942.6
							c0.51-4.25,2.05-6.11,6.35-6.05c11.32,0.16,22.67-0.29,33.97,0.31c9.97,0.53,14.64,5.91,14.56,15.08
							c-0.08,8.78-5.45,14.47-14.81,15.07c-5.81,0.37-11.66,0.07-17.5,0.07c0,0.02,0,0.05,0,0.07c-0.34,0-0.69,0-1.03,0
							C1557.92,967.13,1557.22,966.22,1560.04,942.6z M1602.15,1028.59c-3.75,0.2-7.51,0.29-11.26,0.34H1560
							c-0.56-3.93-1.12-7.9,0.6-11.8c-1.86-24.81-1.86-24.82,22.92-24.81c6.18,0,12.39-0.29,18.53,0.24
							c10.41,0.9,17.42,8.45,17.55,18.16C1619.73,1020.61,1613.08,1028.01,1602.15,1028.59z"/>
					</g>
					
						<image overflow="visible" width="887" height="657" xlink:href="../../img/TestProducts2/asgrow.png"  transform="matrix(0.6589 0 0 0.6589 1236.3236 732.0813)">
					</image>
				</g>
				<rect fill="none" width="3480" height="2160"/>
			</g>
		</g>
	</g>
</g>
<rect fill="none" width="3480" height="2160"/>
</svg>
