<?xml version="1.0" encoding="utf-8"?>
<!-- Generator: Adobe Illustrator 24.2.1, SVG Export Plug-In . SVG Version: 6.00 Build 0)  -->
<svg version="1.1" id="considerSvg" xmlns="http://www.w3.org/2000/svg" xmlns:xlink="http://www.w3.org/1999/xlink" x="0px"
	 y="0px" width="3480px" height="2160px" viewBox="0 0 3480 2160" enable-background="new 0 0 3480 2160" xml:space="preserve">
<g id="_x2D_.contentScene-_1_">
	<g id="_x2D_.moveElements-">
		<g>
			<g>
				
					<text transform="matrix(1 0 0 1 408.8889 563.1155)" fill="#012B48" font-family="'HelveticaNeueLTStd-Hv'" font-size="109.7321px">Consider Westbred, now available in the program</text>
				<rect fill="none" width="3480" height="2160"/>
			</g>
		</g>
		<g>
			<g>
				<path fill="#012B48" d="M2255.06,1307.44H1157.6c-25.76,0-46.65-20.89-46.65-46.65V723.93c0-23.66,19.18-42.84,42.84-42.84
					h1104.43c24.02,0,43.49,19.47,43.49,43.49v536.2C2301.71,1286.55,2280.83,1307.44,2255.06,1307.44z"/>
				<path fill="none" stroke="#012B48" stroke-width="3" stroke-miterlimit="10" d="M2257.46,1309.71H1154.92
					c-25.73,0-46.59-20.86-46.59-46.59V725.87c0-25.73,20.86-46.59,46.59-46.59h1102.54c25.73,0,46.59,20.86,46.59,46.59v537.25
					C2304.05,1288.85,2283.19,1309.71,2257.46,1309.71z"/>
				<path fill="#FFFFFF" stroke="#012B48" stroke-width="2" stroke-miterlimit="10" d="M1110.72,962.27h29.38
					c18.19,0,32.94,14.75,32.94,32.94v0c0,18.19-14.75,32.94-32.94,32.94h-29.38"/>
				<circle fill="#012B48" cx="1156.25" cy="678.1" r="13.31"/>
				<circle fill="#012B48" cx="1929.4" cy="677.85" r="13.06"/>
				<circle fill="#012B48" cx="2016.72" cy="677.04" r="13.06"/>
				<circle fill="#012B48" cx="2254.08" cy="677.9" r="13.06"/>
				<circle fill="#012B48" cx="2302.57" cy="723.03" r="13.82"/>
				<circle fill="#012B48" cx="2303.45" cy="979.23" r="12.7"/>
				<circle fill="#012B48" cx="1924.46" cy="1309.26" r="12.85"/>
				<circle fill="#012B48" cx="1495.84" cy="1307.64" r="13.06"/>
				<circle fill="#012B48" cx="1437.41" cy="1306.84" r="13.26"/>
				<circle fill="#012B48" cx="1106.18" cy="722.36" r="13.15"/>
				<circle fill="#012B48" cx="1108.48" cy="887.27" r="13.06"/>
				<g id="phoneLogo">
					<g display="none">
						<path display="inline" fill="#F2F4F5" d="M1908.28,1010.39c9.29-11.47,19.24-22.04,34.52-25.37
							c25.15-5.48,47.62,5.79,58.18,29.27c0.84,1.86,1.2,3.94,3.26,5.14c3.87-0.23,3.08-3.94,4.1-6.09
							c13.42-28.17,44.52-37.13,65.97-22.94c6,3.97,6.94,0.44,6.92-4.67c-0.05-11.32,0.3-22.65-0.14-33.96
							c-0.27-7.05,1.97-9.73,9.35-9.53c20.45,0.53,16.86-1.27,16.93,17.08c0.16,38.08,0.13,76.16-0.07,114.24
							c-0.02,3.87,2.65,10.56-4.15,10.65c-6.81,0.09-15.6,4.77-20.29-3.54c-2.55-4.51-4.03-3.04-6.88-1.54
							c-32.77,17.21-60.25-0.33-68.91-26.23c-1.77-5.29-3.96-7.81-10.01-7.69c-19.55,0.38-39.12,0.09-58.68,0.22
							c-2.48,0.02-6.05-1.5-7.17,1.98c-0.89,2.74,1.37,5.07,3.06,7.25c8.38,10.81,25.66,13.61,35.75,3.96
							c8.87-8.49,18.63-4.74,28.08-5.12c4.96-0.2,3.44,4.01,2.07,6.79c-4.7,9.55-11.98,16.68-21.4,21.49
							c-16.79,8.59-45.14,4.17-59.67-9.11c-15.05-13.75-19.93-36-12.37-55.7c0.82-2.13,2.65-4.12,1.74-6.74L1908.28,1010.39z
							 M2081.17,1035.69c0.1-15.3-11.55-28.03-25.63-27.99c-13.9,0.04-24.84,11.86-25.17,27.21c-0.34,15.46,11.14,28.12,25.43,28.02
							C2069.43,1062.84,2081.08,1050.34,2081.17,1035.69z M1954.27,1024.31c5.8,0,11.6-0.05,17.4,0.01
							c6.73,0.07,6.58-3.06,3.69-7.63c-7.93-12.56-29.24-13.96-39.39-2.45c-1.97,2.24-5.11,4.67-4.12,7.83
							c1.21,3.86,5.25,2.04,8.08,2.18C1944.71,1024.5,1949.49,1024.32,1954.27,1024.31z"/>
						<path display="inline" fill="#F2F4F5" d="M1394.95,1008.22c-1.42-6.13-2.83-12.26-4.25-18.39c0.46-3.03-0.27-5.58-2.81-7.76
							c-1.94,2.6-2.69,4.93-1.46,7.63c-0.19,1.07-0.39,2.15-0.58,3.22c-2.68,2.75-2.99,6.01-2.07,9.55
							c-0.31,1.92-0.62,3.84-0.93,5.76c-1.39,1.27-1.99,2.73-1.07,4.55c-4.57,21.43-9.4,42.81-13.54,64.33
							c-1.15,5.99-3.52,7.76-9.42,7.88c-23.07,0.46-22.78,0.58-28.89-21.78c-10.11-36.97-20.44-73.89-31.16-110.69
							c-2.41-8.29-0.91-10.63,7.87-10.44c19.43,0.4,19.35,0.02,23.62,18.52c5.55,24.03,11.23,48.03,16.92,72.03
							c0.61,2.58,1.6,5.07,4.14,7.65c4.29-20.43,8.58-40.86,12.87-61.29c2.04-9.72,4.39-19.38,6.06-29.16
							c0.91-5.36,3.15-7.8,8.75-7.62c32.77,1.05,24.67-6.07,31.64,24.81c5.17,22.93,9.54,46.04,14.57,70.54
							c6.75-4.98,6.09-11.78,7.47-17.02c5.92-22.51,11.33-45.18,16.17-67.95c1.67-7.86,4.79-10.86,12.97-10.48
							c20.36,0.95,19.86-3.36,13.87,18.74c-10.56,38.98-21.92,77.75-32.48,116.73c-1.65,6.08-4.56,7.29-10.07,7.38
							c-21.36,0.37-21.38,0.52-26.31-20.01c-0.88-3.66-1.53-7.37-2.29-11.06c0.63-1.89,0.2-3.41-1.58-4.44
							c-1.17-5.5-2.33-11-3.5-16.5c1.12-1.56,0.89-2.92-0.6-4.11c-0.21-1.25-0.42-2.49-0.63-3.74c0.88-3.53,0.59-6.8-2.1-9.54
							c-0.2-1.06-0.39-2.13-0.59-3.19C1396.86,1010.76,1396.4,1009.42,1394.95,1008.22z"/>
						<path display="inline" fill="#F2F4F5" d="M1528.75,1045.36c-9.95,0-19.9-0.06-29.84,0.05c-2.22,0.02-5.16-0.96-6.26,2.04
							c-0.91,2.5,0.77,4.53,2.15,6.52c8.3,11.9,26.62,13.83,38.1,3.4c8.5-7.72,18.23-3.47,27.38-3.62c3.8-0.06,1.97,4.27,0.94,6.61
							c-4.17,9.51-11.16,17-20.43,20.91c-19.31,8.14-50.63,7.8-66.6-15.63c-14.91-21.87-12.42-50.62,6.84-68.23
							c19.25-17.61,48.17-18.7,67.68-1.89c13.01,11.21,17.99,26.17,17.74,43.16c-0.08,5.66-3,6.83-7.86,6.75
							C1548.65,1045.24,1538.7,1045.36,1528.75,1045.36z M1515.49,1024.31c5.83,0,11.67-0.12,17.5,0.03
							c6.41,0.17,7.16-2.2,3.83-7.25c-8.72-13.24-29.94-14.58-40.23-2.27c-1.81,2.17-5.15,4.48-3.12,7.93
							c1.65,2.82,5.01,1.43,7.62,1.52C1505.88,1024.45,1510.69,1024.32,1515.49,1024.31z"/>
						<path display="inline" fill="#F2F4F5" d="M1612.41,1085.12c-24.48,0.34-38.39-7.67-45.1-24.46c-2.97-7.44-0.68-9.07,6.3-8.84
							c8.73,0.29,16.82-0.64,24.28,7.18c6.3,6.6,16.47,5.77,25.36,2.89c3.66-1.18,7.35-3.18,6.86-7.76c-0.4-3.8-3.61-5.7-7.14-6.46
							c-9.36-2.01-18.82-3.62-28.13-5.87c-4.6-1.11-9.17-2.85-13.36-5.05c-14.2-7.44-17.89-24.55-8.39-37.62
							c15.72-21.63,60.5-20.53,75.12,1.98c2.32,3.57,6.26,7.68,3.73,12.01c-2.04,3.51-6.94,1.29-10.55,1.48
							c-7.16,0.39-13.76,0.12-20.05-5.24c-5.37-4.58-13.06-3.24-19.83-1.56c-3.38,0.84-6.85,2.44-6.7,6.63
							c0.13,3.64,3.33,5.05,6.39,5.7c9.71,2.06,19.6,3.38,29.17,5.91c20.1,5.33,29.78,18.83,25.38,34.38
							c-3.59,12.68-16.55,23.46-30,24.62C1621.35,1085.45,1616.87,1085.12,1612.41,1085.12z"/>
						<path display="inline" fill="#F2F4F5" d="M1668.06,1032.46c0-4.8-0.14-9.6,0.04-14.39c0.2-5.34-0.33-9.83-7.41-9.27
							c-3.84,0.3-5.08-2.36-4.45-5.22c1.51-6.82-6.06-17.97,9.32-18.64c4.25-0.19,1.88-6.44,2.5-9.92c0.8-4.5-2.55-11.45,2.43-13.06
							c6.19-1.99,13.69-1.58,20.23-0.25c5.11,1.04,2.93,7.03,2.74,10.7c-0.47,8.83-0.14,15.7,12.02,13.56
							c7.63-1.34,7.06,4.97,6.46,9.57c-0.63,4.89,3.83,13.97-6.1,12.94c-12.86-1.33-12.95,5.43-12.31,14.55
							c0.5,7.16,0.11,14.38,0.19,21.58c0.09,8.52,3.58,14.26,12.51,16.2c12.59,2.74,5.54,12.77,6.16,19.34
							c0.67,7.07-6.26,4.71-10.08,4.52c-17.77-0.87-31.33-13.74-33.48-31.7c-0.81-6.78-0.7-13.67-1.01-20.51
							C1667.89,1032.47,1667.97,1032.46,1668.06,1032.46z"/>
						<path display="inline" fill="#F2F4F5" d="M1908.49,1010.24c-17.6-5.51-31.8,3.62-32.49,21.52
							c-0.57,14.69-0.53,29.43-0.03,44.12c0.25,7.37-2.36,10.03-9.38,8.97c-0.33-0.05-0.68,0-1.03-0.01
							c-17.7-0.22-15.4,2.03-15.48-15.06c-0.11-23.95-0.14-47.89,0.08-71.84c0.04-4.02-2.54-10.53,3.15-11.45
							c6.65-1.08,15.26-3.99,20.3,1.87c3.75,4.37,5.33,3.67,8.55,0.95c0.26-0.22,0.55-0.41,0.84-0.59
							c6.62-4.17,14.68-7.41,21.31-4.08c6.44,3.23,1.45,11.89,3.03,17.88c0.7,2.67-3.57,5.84,0.95,7.87
							C1908.28,1010.39,1908.49,1010.24,1908.49,1010.24z"/>
						<path display="inline" fill="#F2F4F5" d="M1591.86,851.2c8.11-2.25,13.56-11.84,23.67-8.56c1.2,1.99,3.31,1.75,4.05,0.35
							c3.49-6.62,8.44-4.01,15.29-2.66c-5.28,3.51-9.54,5.66-12.93,8.76c-5.97,5.46-14.16,9.43-14.65,19.14
							c-4.51,1.67-6.6,5.61-8.07,9.61c-3.98,10.85-11.49,18.56-20.79,24.87c-3.45,0.87-6.9,1.74-10.35,2.61
							c5.79-13.94,11.84-27.76,19.53-40.81c-4.16-1.71-6.06,1.18-7.86,3.48c-5.42,6.96-10.44,14.11-13.98,22.36
							c-4.64,10.83-7.94,22.45-16.32,31.37l0.14,0.03c-6.21,1.33-10.71,5.28-14.85,9.76c-1.85,0.74-4.23,2.57-5.44,1.98
							c-2.44-1.17-0.44-3.48,0.23-5.22c6.44-16.61,12.02-33.66,23.6-47.73c9.7-8.48,19.55-17.21,31.74-21.38
							C1589.97,857.41,1592.28,856.36,1591.86,851.2z"/>
						<path display="inline" fill="#F2F4F5" d="M1637.74,919.3c-4.11-0.4-6.81,2.65-10.13,4.17c-15.61,2.81-29.56,10.67-44.75,14.73
							c-14.37,2.58-28.92,1.83-43.4,2.37c-1.93,0.07-4.68,0.85-5.09-1.62c-0.23-1.38,1.92-3.14,3-4.74
							c5.36-1.59,9.41-5.3,13.61-8.67c1.99-1.6,1.83-3.52-1.37-3.81c0,0-0.14-0.03-0.14-0.03c0.25,1.25,0.38,2.94,2.22,2.28
							c11.94-4.25,24.11-1.89,36.21-1.41c9.46,0.38,18.95,1.07,28.05-2.52c5.54,0.89,10.43-1.88,15.66-2.77
							C1633.98,916.89,1636.97,914.72,1637.74,919.3z"/>
						<path display="inline" fill="#F2F4F5" d="M1685.78,826.57c1.99,0.15,3.97,0.31,5.96,0.46c-4.83,7.59-14.98,2.94-20.51,8.92
							c-11.66,1.95-19.04,9.76-25.58,18.7c-6.04,8.26-11.08,17.38-19.83,23.35c-8.8,0.33-14.28,9.92-23.71,8.49
							c1.85-5.31,3.69-10.61,5.54-15.92c3.09,0.39,3.9-2.04,5.17-4.04c8.04-12.62,19.91-20.65,32.82-27.52
							C1658.25,832.29,1671.7,828.45,1685.78,826.57z"/>
						<path display="inline" fill="#F2F4F5" d="M1533.13,965.03c-4.11,0.49-8.22,0.98-12.34,1.47c-0.93-0.3-1.84-0.75-2.8-0.87
							c-4.49-0.59-11.29,2.42-13.03-1.44c-2.45-5.42,6.27-6.36,8.14-10.83c7.79-5.43,16.52-6.79,25.81-6.31
							c14.87,0.77,29.71,0.85,44.04-4.2c4.2,1.2,7.46-1.72,11.18-2.4c2.44-0.44,5.88-4.93,7.99,0.65
							c-17.93,5.7-34.13,15.94-52.68,20.01c-3.95,0.87-7.86,1.91-11.79,2.87C1535.89,963.21,1534.31,963.3,1533.13,965.03z"/>
						<path display="inline" fill="#F2F4F5" d="M1500.16,958.84c-5.65,1.66-4.62-2.44-4.1-5.21c5.06-26.8,17.97-49.22,38.11-67.54
							c1.94-1.76,4.37-2.75,6.38-0.88c2.1,1.96-0.28,3.48-1.46,5.03c-9.04,11.87-13.13,25.99-17.26,39.92
							c-2.33,7.86-6.21,14.3-11.76,20.02C1506.12,952.33,1502.32,954.64,1500.16,958.84z"/>
						<path display="inline" fill="#F2F4F5" d="M1686.49,891.51c-4.33,1.63-7.84,4.48-11.22,7.52c-1.24-2.02,1.44-7.09-4.55-5.41
							c-14.12,3.97-28.68,3.61-43.15,4.11c-5.37-0.95-10.74-1.9-16.1-2.85c-0.54-1.92-2.62-3.57,1.17-5.22
							c6.33-2.77,12.21-6.58,18.28-9.96c8.88-2.18,17.27,1.52,25.87,2.06c11.02,0.7,22.68,4.66,32.96-3.22
							c3.03,0.32,6.3-1.62,9.24,0.79C1695.08,883.89,1688.73,885.58,1686.49,891.51z"/>
						<path display="inline" fill="#F2F4F5" d="M1753.57,835.14c-3.19,1.73-5.81,3.79-4.47,8.04c-0.8,0.54-1.6,1.09-2.4,1.63
							c-6.56-0.01-12.51,2.07-18.11,5.32c-9.21,3.39-18.83,4.2-28.52,4.37c-2.19,0.04-5.2,0.54-6.21-2.2
							c-1.08-2.91,1.69-4.24,3.6-5.27c7.92-4.3,13.96-11.68,23.06-14.01c1.31,0.05,2.61,0.1,3.92,0.16c2.88,3,6.41,4.15,10.54,4.07
							C1741.25,837.13,1747.15,833.88,1753.57,835.14z"/>
						<path display="inline" fill="#F2F4F5" d="M1667.47,862.21c16.95-0.97,33.9-1.94,50.85-2.91c0.92,3.43-1.32,4.37-3.82,6
							c-7.75,5.09-17.36,5.09-25.16,9.81c-1.1,0.18-2.19,0.37-3.29,0.55c-6.38-0.88-12.74-1.23-19.07,0.38
							c-4.84-0.47-9.59-2.24-14.55-1.03c-0.47-5.1,3.58-6.33,6.98-8.05C1662.21,865.56,1666.18,866.16,1667.47,862.21z"/>
						<path display="inline" fill="#F2F4F5" d="M1704.36,833.14c0.38,2.74-0.97,4.41-3.3,5.59c-12.02,6.07-22.54,14.46-33.66,21.9
							c-7.23-0.04-12.94,6.07-20.41,5.05c5.67-12.11,16.51-19.54,25.73-28.44C1683.38,836.75,1693.91,835.31,1704.36,833.14z"/>
						<path display="inline" fill="#F2F4F5" d="M1726.94,859.95c-2.89-0.07-5.78-0.14-8.67-0.21
							C1721.23,857.03,1724.13,856.79,1726.94,859.95z"/>
						<path display="inline" fill="#F2F4F5" d="M1574.32,914.65c-0.73-6.89,7.33-5.73,9.3-10.15c14.34-7.67,29.37-2.7,44.14-2.42
							c7.93,3.35,17.12-2.19,25.7,3.32c-13.07,4.86-25.51,8.28-38.16,10.97C1601.64,915.8,1587.98,915.23,1574.32,914.65z"/>
						<path display="inline" fill="#F2F4F5" d="M1835.45,1022.24c-8.06-13.91-8.06-13.91-2.69-28.49
							c9.83-26.69-6.62-50.08-36.89-51.29c-20.21-0.81-40.48,0.16-60.7-0.42c-8.2-0.23-10.49,2.35-10.39,10.44
							c0.41,34.97,0.18,69.94,0.18,104.92c0,19.17,0,25.19,9,26.87c0.98,0.36,2.04,0.59,3.15,0.59h20.93c0,0.01,0.01,0.02,0.01,0.04
							c13.38-0.04,26.77,0.34,40.13-0.18C1832.19,1083.39,1851.75,1050.39,1835.45,1022.24z M1752.91,973.29
							c0.51-4.25,2.05-6.11,6.35-6.05c11.32,0.16,22.67-0.29,33.97,0.31c9.97,0.53,14.64,5.91,14.56,15.08
							c-0.08,8.78-5.45,14.47-14.81,15.07c-5.81,0.37-11.66,0.07-17.5,0.07c0,0.02,0,0.05,0,0.07c-0.34,0-0.69,0-1.03,0
							C1750.8,997.83,1750.09,996.92,1752.91,973.29z M1795.02,1059.29c-3.75,0.2-7.51,0.29-11.26,0.34h-30.88
							c-0.56-3.93-1.12-7.9,0.6-11.8c-1.86-24.81-1.86-24.82,22.92-24.81c6.18,0,12.39-0.29,18.53,0.24
							c10.41,0.9,17.42,8.45,17.55,18.16C1812.6,1051.31,1805.95,1058.71,1795.02,1059.29z"/>
					</g>
					
						<image overflow="visible" width="500" height="500" xlink:href="../../img/TestProducts/roundup.png"  transform="matrix(1.0286 0 0 1.0286 1464.2765 722.0876)">
					</image>
				</g>
				<rect fill="none" width="3480" height="2160"/>
			</g>
		</g>
		<g>
			<g>
				<polygon fill="#FFFFFF" points="382.89,2244.53 790.43,2379.21 1002.19,1855.62 1127.94,1536.01 1143.22,1556.13 
					1199.77,1570.71 1224.19,1552.08 1194.79,1498.04 1264.55,1530.47 1293.33,1499.32 1264.44,1445.22 1226.8,1399.09 
					1290.94,1395.36 1293.33,1356.33 1255.94,1314.5 1106.67,1244.77 1102.51,1085.14 998.7,1083.19 958.69,1091.61 865.26,1147.4 
					775.56,1216.33 738.17,1262.77 720,1305.22 731.88,1452.73 762.91,1570.78 762.22,1663 738.49,1799 				"/>
				<path fill="#FFFFFF" d="M2622.76,1156.02"/>
				<polyline fill="#FFFFFF" stroke="#012B48" stroke-width="3" stroke-miterlimit="10" points="812.22,2340.78 1002.19,1855.62 
					1024.44,1831.89 1066.67,1763 1093.33,1691.89 1128.89,1551.89 1151.11,1449.67 1164.44,1385.22 1228.89,1245.22 
					1268.89,1140.78 1268.89,1105.22 1304.44,1049.67 1271.11,1000.78 1211.11,1000.78 1153.33,1049.67 1106.67,1149.67 
					1057.78,1249.67 993.33,1303 921.78,1347.44 				"/>
				<polyline fill="none" stroke="#012B48" stroke-width="3" stroke-miterlimit="10" points="408.89,2211.08 737.78,1798.56 
					762.22,1663 762.22,1571.89 735.56,1454.11 720,1305.22 735.56,1265.22 775.56,1216.33 864.44,1145.22 948.89,1094.82 
					997.78,1083 1106.67,1083 				"/>
				<polyline fill="none" stroke="#012B48" stroke-width="3" stroke-miterlimit="10" points="739.17,1797.4 901.43,1713.15 
					1017.09,1648.04 1132,1533.91 				"/>
				<polyline fill="none" stroke="#012B48" stroke-width="3" stroke-miterlimit="10" points="1018.62,1837.87 1032.4,1756.81 
					1017.09,1648.04 952.74,1625.06 984.15,1558.43 921.34,1508.64 820.23,1445.06 764.32,1360.04 746.7,1293.36 870.79,1228.3 
					921.34,1203.79 951.98,1155.53 956.57,1094.82 1004.83,1134.85 1039,1200.43 				"/>
				<polyline fill="none" stroke="#012B48" stroke-width="3" stroke-miterlimit="10" points="1038.28,1201.49 921.34,1203.79 
					982.62,1250.51 926.7,1262.77 921.7,1348.83 				"/>
				<polyline fill="none" stroke="#012B48" stroke-width="3" stroke-miterlimit="10" points="723.26,1303.66 762.13,1357.15 
					863.89,1396.81 912.91,1447.36 925.94,1504.81 794.19,1587.53 753.66,1713.91 				"/>
				<polyline fill="none" stroke="#012B48" stroke-width="3" stroke-miterlimit="10" points="489.46,2180.78 883.04,1811.96 
					938.96,1791.28 1032.4,1756.81 1080.26,1696.83 1114.11,1608.21 				"/>
				<polyline fill="none" stroke="#012B48" stroke-width="3" stroke-miterlimit="10" points="956.62,1973.08 942.61,1789.93 
					901.43,1713.15 954.01,1620.76 923.17,1507.68 967.6,1461.09 1063.81,1372.3 1111.11,1419.79 1164.44,1385.22 				"/>
				<line fill="none" stroke="#012B48" stroke-width="3" stroke-miterlimit="10" x1="620.49" y1="2200.78" x2="1030.68" y2="1760"/>
				<polyline fill="none" stroke="#012B48" stroke-width="3" stroke-miterlimit="10" points="1082.67,1690.13 1055.98,1608.69 
					1049.26,1565.74 				"/>
				<polyline fill="none" stroke="#012B48" stroke-width="3" stroke-miterlimit="10" points="1131.79,1533.91 1075.6,1524.02 
					1064.96,1372.43 1122.79,1347.02 1190.19,1329.29 1168.74,1231.36 1228.13,1247.45 				"/>
				<polyline fill="none" stroke="#012B48" stroke-width="3" stroke-miterlimit="10" points="995.94,1300.66 1106.67,1284.21 
					1122.02,1353.91 1112.11,1422.15 1145.94,1463.34 1076.06,1520.13 1048.49,1564.55 984.15,1558.43 967.3,1467.04 967.3,1393.74 
					863.83,1398.94 821.94,1447.96 794.19,1587.53 898.36,1572.98 898.36,1720.81 883.04,1811.96 881.51,2165.62 				"/>
				<polyline fill="none" stroke="#012B48" stroke-width="3" stroke-miterlimit="10" points="914.78,1447.06 966.17,1397.11 
					1063.45,1372.3 1106.67,1283.81 1168.44,1231.36 1237.93,1221.61 				"/>
				<polyline fill="none" stroke="#012B48" stroke-width="3" stroke-miterlimit="10" points="819.81,1446.53 739.17,1447.06 
					762.96,1358.34 				"/>
				<polyline fill="none" stroke="#012B48" stroke-width="3" stroke-miterlimit="10" points="832.49,1249.4 863.89,1396.81 
					921.34,1349.32 967.3,1393.74 				"/>
				<polyline fill="none" stroke="#012B48" stroke-width="3" stroke-miterlimit="10" points="738.17,1262.77 831.49,1249.15 
					865.26,1147.4 921.34,1203.79 				"/>
				<polyline fill="none" stroke="#012B48" stroke-width="3" stroke-miterlimit="10" points="1090.02,1179.74 1004.83,1134.85 
					951.98,1155.53 868.49,1147.4 				"/>
				<polyline fill="none" stroke="#012B48" stroke-width="3" stroke-miterlimit="10" points="1036.93,1202.09 985.98,1249.68 
					1021.91,1279.16 				"/>
				
					<line fill="none" stroke="#012B48" stroke-width="3" stroke-miterlimit="10" x1="870.32" y1="1231.36" x2="925.34" y2="1261.17"/>
				
					<line fill="none" stroke="#012B48" stroke-width="3" stroke-miterlimit="10" x1="922.94" y1="1205.21" x2="925.94" y2="1254.16"/>
				
					<line fill="none" stroke="#012B48" stroke-width="3" stroke-miterlimit="10" x1="921.34" y1="1509.53" x2="898.89" y2="1571.74"/>
				<polyline fill="none" stroke="#012B48" stroke-width="3" stroke-miterlimit="10" points="883.04,1811.96 738.49,1799 
					698.05,1983.99 619.25,1946.21 				"/>
				<polyline fill="none" stroke="#012B48" stroke-width="3" stroke-miterlimit="10" points="882.58,1918.61 698.28,1983.99 
					735.98,2070.78 				"/>
				
					<line fill="none" stroke="#012B48" stroke-width="3" stroke-miterlimit="10" x1="740.49" y1="2070.78" x2="818.18" y2="2322.36"/>
				<polyline fill="none" stroke="#012B48" stroke-width="3" stroke-miterlimit="10" points="1236.55,1220.04 1194.02,1173 
					1145.94,1163.19 1107.11,1157.06 1168.44,1230.61 1068.35,1229.3 1106,1284.21 				"/>
				<polyline fill="none" stroke="#012B48" stroke-width="3" stroke-miterlimit="10" points="1203.38,1514.77 1180.23,1518.6 
					1144.04,1551.12 1165.44,1496.91 1143.04,1497.91 				"/>
				<polyline fill="none" stroke="#012B48" stroke-width="3" stroke-miterlimit="10" points="1161.55,1461.34 1166.44,1495.32 
					1194.79,1498.04 				"/>
				<polyline fill="none" stroke="#012B48" stroke-width="3" stroke-miterlimit="10" points="1285.94,1497.91 1212.67,1470.34 
					1162.44,1400.7 				"/>
				<polyline fill="none" stroke="#012B48" stroke-width="3" stroke-miterlimit="10" points="1152.55,1445.31 1212.67,1474.17 
					1199.38,1499.32 				"/>
				<polyline fill="none" stroke="#012B48" stroke-width="3" stroke-miterlimit="10" points="1255.94,1317.11 1217,1353.91 
					1228.49,1398.91 				"/>
				<polyline fill="none" stroke="#012B48" stroke-width="3" stroke-miterlimit="10" points="1191.79,1331.34 1216.67,1353.15 
					1289.94,1355.15 				"/>
				<polyline fill="none" stroke="#012B48" stroke-width="3" stroke-miterlimit="10" points="1268.89,1109.37 1253.04,1122.6 
					1178.17,1083.19 1178.17,1049.06 1205.7,1005.35 				"/>
				<polyline fill="none" stroke="#012B48" stroke-width="3" stroke-miterlimit="10" points="1104.37,1154.36 1178.17,1083.19 
					1194.02,1173 1253.04,1122.6 1255.94,1167.02 				"/>
				<polyline fill="none" stroke="#012B48" stroke-width="3" stroke-miterlimit="10" points="1206.73,1293.36 1255.56,1316.33 
					1293.33,1356.33 1293.33,1398.56 1221.33,1398.56 1175.99,1360.13 1242.66,1418.56 1264.44,1445.22 1293.33,1498.56 
					1262,1529.89 1197.78,1500.78 1151.11,1449.67 1197.78,1500.78 1222.22,1554.11 1202.22,1569.67 1140,1554.11 1132,1545.67 				
					"/>
				<line fill="none" stroke="#012B48" stroke-width="3" stroke-miterlimit="10" x1="1015.71" y1="1648" x2="944.04" y2="1788.79"/>
				
					<line fill="none" stroke="#012B48" stroke-width="3" stroke-miterlimit="10" x1="866.49" y1="1396.95" x2="870.32" y2="1234.16"/>
				
					<line fill="none" stroke="#012B48" stroke-width="3" stroke-miterlimit="10" x1="870.32" y1="1234.16" x2="920.73" y2="1350.61"/>
				
					<line fill="none" stroke="#012B48" stroke-width="3" stroke-miterlimit="10" x1="748.17" y1="1295.05" x2="866.49" y2="1396.95"/>
				<line fill="none" stroke="#012B48" stroke-width="3" stroke-miterlimit="10" x1="1106" y1="1284.21" x2="920.73" y2="1350.61"/>
				
					<line fill="none" stroke="#012B48" stroke-width="3" stroke-miterlimit="10" x1="920.73" y1="1350.61" x2="1063.45" y2="1372.3"/>
				
					<line fill="none" stroke="#012B48" stroke-width="3" stroke-miterlimit="10" x1="1063.45" y1="1372.3" x2="983.29" y2="1557.13"/>
				
					<line fill="none" stroke="#012B48" stroke-width="3" stroke-miterlimit="10" x1="983.29" y1="1557.13" x2="1074.27" y2="1524.62"/>
				
					<line fill="none" stroke="#012B48" stroke-width="3" stroke-miterlimit="10" x1="898.89" y1="1571.74" x2="739.17" y2="1797.4"/>
				
					<line fill="none" stroke="#012B48" stroke-width="3" stroke-miterlimit="10" x1="821.79" y1="1444.12" x2="762.22" y2="1571.89"/>
				
					<line fill="none" stroke="#012B48" stroke-width="3" stroke-miterlimit="10" x1="1017.09" y1="1648.04" x2="1082.67" y2="1690.13"/>
				
					<line fill="none" stroke="#012B48" stroke-width="3" stroke-miterlimit="10" x1="1048.49" y1="1564.55" x2="953.89" y2="1622.62"/>
				
					<line fill="none" stroke="#012B48" stroke-width="3" stroke-miterlimit="10" x1="1047" y1="1565.74" x2="1015.21" y2="1645.25"/>
				
					<line fill="none" stroke="#012B48" stroke-width="3" stroke-miterlimit="10" x1="898.89" y1="1569.67" x2="952.65" y2="1623.01"/>
				
					<line fill="none" stroke="#012B48" stroke-width="3" stroke-miterlimit="10" x1="821.79" y1="1444.12" x2="912.12" y2="1447.06"/>
				
					<line fill="none" stroke="#012B48" stroke-width="3" stroke-miterlimit="10" x1="912.12" y1="1447.06" x2="965.51" y2="1461.34"/>
				
					<line fill="none" stroke="#012B48" stroke-width="3" stroke-miterlimit="10" x1="885.34" y1="1814.51" x2="946.25" y2="1847.74"/>
				
					<line fill="none" stroke="#012B48" stroke-width="3" stroke-miterlimit="10" x1="1003.43" y1="1135.55" x2="922.94" y2="1205.21"/>
				
					<line fill="none" stroke="#012B48" stroke-width="3" stroke-miterlimit="10" x1="720.85" y1="1301.53" x2="748.17" y2="1293.47"/>
				
					<line fill="none" stroke="#012B48" stroke-width="3" stroke-miterlimit="10" x1="762.91" y1="1572.51" x2="793.06" y2="1587.53"/>
				<polyline fill="none" stroke="#012B48" stroke-width="3" stroke-miterlimit="10" points="1102.51,1085.14 1003.43,1135.55 
					998.7,1083.19 				"/>
				<polyline fill="none" stroke="#012B48" stroke-width="3" stroke-miterlimit="10" points="1080.35,1201.49 1040.6,1201.09 
					1057.62,1248.62 				"/>
				<circle fill="#012B48" cx="1293.33" cy="1499.32" r="8.61"/>
				<circle fill="#012B48" cx="1264.55" cy="1530.47" r="8.61"/>
				<circle fill="#012B48" cx="1215.58" cy="1469.95" r="8.61"/>
				<circle fill="#012B48" cx="1289.94" cy="1393.36" r="8.61"/>
				<circle fill="#012B48" cx="1293.33" cy="1355.15" r="8.61"/>
				<circle fill="#012B48" cx="1255.94" cy="1314.5" r="8.61"/>
				<circle fill="#012B48" cx="1232.8" cy="1400.7" r="8.61"/>
				<circle fill="#012B48" cx="1166.93" cy="1496.91" r="8.61"/>
				<circle fill="#012B48" cx="1178.17" cy="1518.87" r="8.61"/>
				<circle fill="#012B48" cx="1140.61" cy="1557.13" r="8.61"/>
				<circle fill="#012B48" cx="1203.38" cy="1518.87" r="8.61"/>
				<circle fill="#012B48" cx="1200.4" cy="1574.36" r="8.61"/>
				<circle fill="#012B48" cx="1224.19" cy="1552.08" r="8.61"/>
				<circle fill="#012B48" cx="1076.35" cy="1523.71" r="8.61"/>
				<circle fill="#012B48" cx="1132" cy="1539.08" r="8.61"/>
				<circle fill="#012B48" cx="1056.35" cy="1610.65" r="8.61"/>
				<circle fill="#012B48" cx="1049.26" cy="1565.74" r="8.61"/>
				<circle fill="#012B48" cx="983.29" cy="1557.13" r="8.61"/>
				<circle fill="#012B48" cx="967.3" cy="1461.34" r="8.61"/>
				<circle fill="#012B48" cx="952.65" cy="1623.01" r="8.61"/>
				<circle fill="#012B48" cx="898.89" cy="1569.67" r="8.61"/>
				<circle fill="#012B48" cx="901.43" cy="1710.6" r="8.61"/>
				<circle fill="#012B48" cx="883.04" cy="1811.96" r="8.61"/>
				<circle fill="#012B48" cx="738.49" cy="1799" r="8.61"/>
				<circle fill="#012B48" cx="793.51" cy="1589.13" r="8.61"/>
				<circle fill="#012B48" cx="762.91" cy="1570.78" r="8.61"/>
				<circle fill="#012B48" cx="731.88" cy="1452.73" r="8.61"/>
				<circle fill="#012B48" cx="821.79" cy="1444.12" r="8.61"/>
				<circle fill="#012B48" cx="921.34" cy="1507.93" r="8.61"/>
				<circle fill="#012B48" cx="912.12" cy="1447.06" r="8.61"/>
				<circle fill="#012B48" cx="967.3" cy="1393.36" r="8.61"/>
				<circle fill="#012B48" cx="1064.96" cy="1372.3" r="8.61"/>
				<circle fill="#012B48" cx="1106.94" cy="1417.92" r="8.61"/>
				<circle fill="#012B48" cx="1119.33" cy="1346.54" r="8.61"/>
				<circle fill="#012B48" cx="1106.67" cy="1284.21" r="8.61"/>
				<circle fill="#012B48" cx="995.45" cy="1303.66" r="8.61"/>
				<circle fill="#012B48" cx="920.73" cy="1350.61" r="8.61"/>
				<circle fill="#012B48" cx="864.81" cy="1396.81" r="8.61"/>
				<circle fill="#012B48" cx="762.91" cy="1358.34" r="8.61"/>
				<circle fill="#012B48" cx="720.85" cy="1301.53" r="8.61"/>
				<circle fill="#012B48" cx="748.17" cy="1295.05" r="8.61"/>
				<circle fill="#012B48" cx="832.49" cy="1248.96" r="8.61"/>
				<circle fill="#012B48" cx="925.94" cy="1262.77" r="8.61"/>
				<circle fill="#012B48" cx="868.49" cy="1231.36" r="8.61"/>
				<circle fill="#012B48" cx="868.49" cy="1231.36" r="8.61"/>
				<circle fill="#012B48" cx="921.34" cy="1203.79" r="8.61"/>
				<circle fill="#012B48" cx="865.26" cy="1147.4" r="8.61"/>
				<circle fill="#012B48" cx="950.08" cy="1156.02" r="8.61"/>
				<circle fill="#012B48" cx="958.69" cy="1091.61" r="8.61"/>
				<circle fill="#012B48" cx="1004.06" cy="1135.55" r="8.61"/>
				<circle fill="#012B48" cx="998.7" cy="1083" r="8.61"/>
				<circle fill="#012B48" cx="1102.11" cy="1086.21" r="8.61"/>
				<circle fill="#012B48" cx="1038.28" cy="1202.09" r="8.61"/>
				<circle fill="#012B48" cx="1068.35" cy="1231.36" r="8.61"/>
				<circle fill="#012B48" cx="1166.93" cy="1231.36" r="8.61"/>
				<circle fill="#012B48" cx="1104.37" cy="1157.06" r="8.61"/>
				<circle fill="#012B48" cx="1191.79" cy="1173" r="8.61"/>
				<circle fill="#012B48" cx="1240.86" cy="1222.75" r="8.61"/>
				<circle fill="#012B48" cx="1249.47" cy="1122.6" r="8.61"/>
				<circle fill="#012B48" cx="1178.17" cy="1086.21" r="8.61"/>
				<circle fill="#012B48" cx="1209.01" cy="1000.78" r="8.61"/>
				<circle fill="#012B48" cx="1268.89" cy="1000.78" r="8.61"/>
				<circle fill="#012B48" cx="1307.16" cy="1055.37" r="8.61"/>
				<circle fill="#012B48" cx="1146.54" cy="1055.37" r="8.61"/>
				<circle fill="#012B48" cx="1228.13" cy="1248.96" r="8.61"/>
				<circle fill="#012B48" cx="983.65" cy="1248.62" r="8.61"/>
				<circle fill="#012B48" cx="1191.79" cy="1329.32" r="8.61"/>
				<circle fill="#012B48" cx="944.04" cy="1788.79" r="8.61"/>
				<circle fill="#012B48" cx="946.25" cy="1847.74" r="8.61"/>
				<circle fill="#012B48" cx="882.58" cy="1915.39" r="8.61"/>
				<circle fill="#012B48" cx="698.28" cy="1983.99" r="8.61"/>
				<circle fill="#012B48" cx="740.49" cy="2070.78" r="8.61"/>
				<circle fill="#012B48" cx="1032.93" cy="1756.56" r="8.61"/>
				<circle fill="#012B48" cx="1082.67" cy="1690.13" r="8.61"/>
				<circle fill="#012B48" cx="1018.07" cy="1839.13" r="8.61"/>
				<circle fill="#012B48" cx="1015.71" cy="1648" r="8.61"/>
				<rect fill="none" width="3480" height="2160"/>
			</g>
		</g>
		<g>
			<g>
				<polygon fill="#FFFFFF" points="2565.44,2270.78 3018.77,2241.08 2670.17,1799.35 2645.44,1669.08 2644.74,1562.17 
					2672.78,1452.73 2686.81,1301.53 2669.49,1262.77 2636.13,1221.26 2542.17,1145.4 2457.58,1091.61 2409.88,1083 
					2305.15,1085.14 2294.67,1262.77 2151.72,1317.11 2117.72,1355.15 2117.72,1395.36 2174.86,1400.7 2174.86,1409.31 
					2143.21,1445.22 2114.32,1498.56 2143.11,1530.47 2209.88,1500.78 2185.44,1554.11 2207.26,1568.36 2266.05,1554.13 
					2279.71,1540.58 2407.47,1855.62 				"/>
				<polyline fill="#FFFFFF" stroke="#012B48" stroke-width="3" stroke-miterlimit="10" points="2565.44,2270.78 2407.47,1855.62 
					2383.21,1831.89 2340.99,1763 2314.32,1691.89 2278.77,1551.89 2256.55,1449.67 2243.21,1385.22 2178.77,1245.22 
					2138.77,1140.78 2138.77,1105.22 2103.21,1049.67 2136.55,1000.78 2196.55,1000.78 2254.32,1049.67 2300.99,1149.67 
					2349.88,1249.67 2414.32,1303 2485.88,1347.44 				"/>
				<polyline fill="none" stroke="#012B48" stroke-width="3" stroke-miterlimit="10" points="3018.77,2241.08 2669.88,1798.56 
					2645.44,1663 2645.44,1571.89 2672.1,1454.11 2687.66,1305.22 2672.1,1265.22 2632.1,1216.33 2543.21,1145.22 2458.77,1094.82 
					2409.88,1083 2300.99,1083 				"/>
				<polyline fill="none" stroke="#012B48" stroke-width="3" stroke-miterlimit="10" points="2668.49,1797.4 2506.23,1713.15 
					2390.57,1648.04 2275.66,1533.91 				"/>
				<polyline fill="none" stroke="#012B48" stroke-width="3" stroke-miterlimit="10" points="2389.04,1837.87 2375.25,1756.81 
					2390.57,1648.04 2454.91,1625.06 2423.51,1558.43 2486.32,1508.64 2587.42,1445.06 2643.34,1360.04 2660.96,1293.36 
					2536.87,1228.3 2486.32,1203.79 2455.68,1155.53 2451.08,1094.82 2402.83,1134.85 2368.66,1200.43 				"/>
				<polyline fill="none" stroke="#012B48" stroke-width="3" stroke-miterlimit="10" points="2684.4,1303.66 2645.53,1357.15 
					2543.76,1396.81 2494.74,1447.36 2481.72,1504.81 2613.47,1587.53 2654,1713.91 				"/>
				<polyline fill="none" stroke="#012B48" stroke-width="3" stroke-miterlimit="10" points="2938.2,2192.78 2524.61,1811.96 
					2468.7,1791.28 2375.25,1756.81 2327.4,1696.83 2293.55,1608.21 				"/>
				<polyline fill="none" stroke="#012B48" stroke-width="3" stroke-miterlimit="10" points="2451.04,1973.08 2465.05,1789.93 
					2506.23,1713.15 2453.64,1620.76 2484.49,1507.68 2440.06,1461.09 2343.85,1372.3 2296.55,1419.79 2243.21,1385.22 				"/>
				
					<line fill="none" stroke="#012B48" stroke-width="3" stroke-miterlimit="10" x1="2817.17" y1="2230.78" x2="2376.98" y2="1760"/>
				<polyline fill="none" stroke="#012B48" stroke-width="3" stroke-miterlimit="10" points="2324.99,1690.13 2351.68,1608.69 
					2358.4,1565.74 				"/>
				<polyline fill="none" stroke="#012B48" stroke-width="3" stroke-miterlimit="10" points="2275.87,1533.91 2332.06,1524.02 
					2342.7,1372.43 2284.87,1347.02 2217.47,1329.29 2238.91,1231.36 2179.53,1247.45 				"/>
				<polyline fill="none" stroke="#012B48" stroke-width="3" stroke-miterlimit="10" points="2411.72,1300.66 2300.99,1284.21 
					2285.64,1353.91 2295.55,1422.15 2261.72,1463.34 2331.59,1520.13 2359.17,1564.55 2423.51,1558.43 2440.36,1467.04 
					2440.36,1393.74 2543.83,1398.94 2585.72,1447.96 2613.47,1587.53 2509.3,1572.98 2509.3,1720.81 2524.61,1811.96 
					2526.15,2165.62 				"/>
				<polyline fill="none" stroke="#012B48" stroke-width="3" stroke-miterlimit="10" points="2492.88,1447.06 2441.49,1397.11 
					2344.21,1372.3 2300.99,1283.81 2239.21,1231.36 2169.73,1221.61 				"/>
				<polyline fill="none" stroke="#012B48" stroke-width="3" stroke-miterlimit="10" points="2587.85,1446.53 2668.49,1447.06 
					2644.7,1358.34 				"/>
				
					<line fill="none" stroke="#012B48" stroke-width="3" stroke-miterlimit="10" x1="2644.74" y1="1572.51" x2="2614.59" y2="1587.53"/>
				<polyline fill="none" stroke="#012B48" stroke-width="3" stroke-miterlimit="10" points="2575.17,1249.4 2543.76,1396.81 
					2486.32,1349.32 2440.36,1393.74 				"/>
				<polyline fill="none" stroke="#012B48" stroke-width="3" stroke-miterlimit="10" points="2669.49,1262.77 2576.17,1249.15 
					2542.4,1147.4 2486.32,1203.79 				"/>
				
					<line fill="none" stroke="#012B48" stroke-width="3" stroke-miterlimit="10" x1="2536.34" y1="1228.36" x2="2482.32" y2="1261.17"/>
				
					<line fill="none" stroke="#012B48" stroke-width="3" stroke-miterlimit="10" x1="2484.72" y1="1205.21" x2="2480.96" y2="1262.77"/>
				
					<line fill="none" stroke="#012B48" stroke-width="3" stroke-miterlimit="10" x1="2486.32" y1="1509.53" x2="2508.76" y2="1571.74"/>
				<polyline fill="none" stroke="#012B48" stroke-width="3" stroke-miterlimit="10" points="2524.61,1811.96 2669.17,1799 
					2709.6,1983.99 2788.4,1946.21 				"/>
				<polyline fill="none" stroke="#012B48" stroke-width="3" stroke-miterlimit="10" points="2525.08,1918.61 2709.38,1983.99 
					2591.68,2220.78 				"/>
				<polyline fill="none" stroke="#012B48" stroke-width="3" stroke-miterlimit="10" points="2369.38,1201.49 2486.32,1203.79 
					2425.04,1250.51 2480.96,1262.77 2485.96,1348.83 				"/>
				<polyline fill="none" stroke="#012B48" stroke-width="3" stroke-miterlimit="10" points="2305.15,1085.14 2404.23,1135.55 
					2408.96,1083.19 				"/>
				<polyline fill="none" stroke="#012B48" stroke-width="3" stroke-miterlimit="10" points="2317.64,1179.74 2402.83,1134.85 
					2455.68,1155.53 2539.17,1147.4 				"/>
				<polyline fill="none" stroke="#012B48" stroke-width="3" stroke-miterlimit="10" points="2370.72,1202.09 2421.68,1249.68 
					2385.74,1279.16 				"/>
				<polyline fill="none" stroke="#012B48" stroke-width="3" stroke-miterlimit="10" points="2327.3,1201.49 2367.06,1201.09 
					2350.04,1248.62 				"/>
				<polyline fill="none" stroke="#012B48" stroke-width="3" stroke-miterlimit="10" points="2204.27,1514.77 2227.42,1518.6 
					2263.61,1551.12 2242.21,1496.91 2264.61,1497.91 				"/>
				<polyline fill="none" stroke="#012B48" stroke-width="3" stroke-miterlimit="10" points="2246.1,1461.34 2241.21,1495.32 
					2212.87,1498.04 				"/>
				<polyline fill="none" stroke="#012B48" stroke-width="3" stroke-miterlimit="10" points="2121.72,1497.91 2194.99,1470.34 
					2245.21,1400.7 				"/>
				<polyline fill="none" stroke="#012B48" stroke-width="3" stroke-miterlimit="10" points="2255.1,1445.31 2194.99,1474.17 
					2208.27,1499.32 				"/>
				<polyline fill="none" stroke="#012B48" stroke-width="3" stroke-miterlimit="10" points="2151.72,1317.11 2190.66,1353.91 
					2179.17,1398.91 				"/>
				<polyline fill="none" stroke="#012B48" stroke-width="3" stroke-miterlimit="10" points="2215.87,1331.34 2190.99,1353.15 
					2117.72,1355.15 				"/>
				<polyline fill="none" stroke="#012B48" stroke-width="3" stroke-miterlimit="10" points="2171.1,1220.04 2213.64,1173 
					2261.72,1163.19 2300.55,1157.06 2239.21,1230.61 2339.3,1229.3 2301.66,1284.21 				"/>
				<polyline fill="none" stroke="#012B48" stroke-width="3" stroke-miterlimit="10" points="2303.28,1154.36 2229.49,1083.19 
					2213.64,1173 2154.62,1122.6 2151.72,1167.02 				"/>
				<polyline fill="none" stroke="#012B48" stroke-width="3" stroke-miterlimit="10" points="2200.93,1293.36 2152.1,1316.33 
					2114.32,1356.33 2114.32,1398.56 2186.32,1398.56 2231.66,1360.13 2164.99,1418.56 2143.21,1445.22 2114.32,1498.56 
					2145.66,1529.89 2209.88,1500.78 2256.55,1449.67 2209.88,1500.78 2185.44,1554.11 2205.44,1569.67 2267.66,1554.11 
					2275.66,1545.67 				"/>
				<polyline fill="none" stroke="#012B48" stroke-width="3" stroke-miterlimit="10" points="2138.77,1109.37 2154.62,1122.6 
					2229.49,1083.19 2229.49,1049.06 2201.95,1005.35 				"/>
				
					<line fill="none" stroke="#012B48" stroke-width="3" stroke-miterlimit="10" x1="2509.3" y1="1572.98" x2="2669.88" y2="1798.56"/>
				
					<line fill="none" stroke="#012B48" stroke-width="3" stroke-miterlimit="10" x1="2453.64" y1="1620.76" x2="2508.76" y2="1571.74"/>
				
					<line fill="none" stroke="#012B48" stroke-width="3" stroke-miterlimit="10" x1="2587.85" y1="1446.53" x2="2645.44" y2="1571.89"/>
				
					<line fill="none" stroke="#012B48" stroke-width="3" stroke-miterlimit="10" x1="2344.21" y1="1372.3" x2="2423.51" y2="1558.43"/>
				
					<line fill="none" stroke="#012B48" stroke-width="3" stroke-miterlimit="10" x1="2332.06" y1="1524.02" x2="2424.37" y2="1557.13"/>
				
					<line fill="none" stroke="#012B48" stroke-width="3" stroke-miterlimit="10" x1="2301.32" y1="1418.92" x2="2328.7" y2="1524.61"/>
				
					<line fill="none" stroke="#012B48" stroke-width="3" stroke-miterlimit="10" x1="2480.96" y1="1262.77" x2="2575.17" y2="1248.96"/>
				
					<line fill="none" stroke="#012B48" stroke-width="3" stroke-miterlimit="10" x1="2480.96" y1="1262.77" x2="2543.76" y2="1396.81"/>
				
					<line fill="none" stroke="#012B48" stroke-width="3" stroke-miterlimit="10" x1="2412.6" y1="1302.66" x2="2480.96" y2="1262.77"/>
				
					<line fill="none" stroke="#012B48" stroke-width="3" stroke-miterlimit="10" x1="2414.32" y1="1303" x2="2440.36" y2="1393.36"/>
				
					<line fill="none" stroke="#012B48" stroke-width="3" stroke-miterlimit="10" x1="2411.03" y1="1306.84" x2="2344.21" y2="1372.3"/>
				
					<line fill="none" stroke="#012B48" stroke-width="3" stroke-miterlimit="10" x1="2655.96" y1="1297.5" x2="2543.83" y2="1398.94"/>
				
					<line fill="none" stroke="#012B48" stroke-width="3" stroke-miterlimit="10" x1="2375.25" y1="1756.81" x2="2504.62" y2="1711.6"/>
				
					<line fill="none" stroke="#012B48" stroke-width="3" stroke-miterlimit="10" x1="2324.99" y1="1690.13" x2="2390.57" y2="1648.04"/>
				
					<line fill="none" stroke="#012B48" stroke-width="3" stroke-miterlimit="10" x1="2389.04" y1="1837.87" x2="2461.41" y2="1847.74"/>
				
					<line fill="none" stroke="#012B48" stroke-width="3" stroke-miterlimit="10" x1="2404.23" y1="1135.55" x2="2486.32" y2="1203.79"/>
				
					<line fill="none" stroke="#012B48" stroke-width="3" stroke-miterlimit="10" x1="2117.72" y1="1393.36" x2="2190.99" y2="1353.15"/>
				
					<line fill="none" stroke="#012B48" stroke-width="3" stroke-miterlimit="10" x1="2227.42" y1="1518.6" x2="2205.44" y2="1569.67"/>
				
					<line fill="none" stroke="#012B48" stroke-width="3" stroke-miterlimit="10" x1="2185.44" y1="1554.11" x2="2229.49" y2="1521.86"/>
				
					<line fill="none" stroke="#012B48" stroke-width="3" stroke-miterlimit="10" x1="2145.66" y1="1529.89" x2="2194.99" y2="1470.34"/>
				
					<line fill="none" stroke="#012B48" stroke-width="3" stroke-miterlimit="10" x1="2275.66" y1="1539.08" x2="2358.4" y2="1565.74"/>
				<polyline fill="none" stroke="#012B48" stroke-width="3" stroke-miterlimit="10" points="2423.51,1558.43 2391.94,1645.39 
					2358.4,1565.74 				"/>
				
					<line fill="none" stroke="#012B48" stroke-width="3" stroke-miterlimit="10" x1="2686.81" y1="1301.53" x2="2659.49" y2="1293.47"/>
				<circle fill="#012B48" cx="2114.32" cy="1499.32" r="8.61"/>
				<circle fill="#012B48" cx="2143.11" cy="1530.47" r="8.61"/>
				<circle fill="#012B48" cx="2192.08" cy="1469.95" r="8.61"/>
				<circle fill="#012B48" cx="2117.72" cy="1393.36" r="8.61"/>
				<circle fill="#012B48" cx="2114.32" cy="1355.15" r="8.61"/>
				<circle fill="#012B48" cx="2190.04" cy="1355.2" r="8.61"/>
				<circle fill="#012B48" cx="2151.72" cy="1314.5" r="8.61"/>
				<circle fill="#012B48" cx="2174.86" cy="1400.7" r="8.61"/>
				<circle fill="#012B48" cx="2240.73" cy="1496.91" r="8.61"/>
				<circle fill="#012B48" cx="2229.49" cy="1518.87" r="8.61"/>
				<circle fill="#012B48" cx="2267.05" cy="1557.13" r="8.61"/>
				<circle fill="#012B48" cx="2204.27" cy="1518.87" r="8.61"/>
				<circle fill="#012B48" cx="2207.26" cy="1574.36" r="8.61"/>
				<circle fill="#012B48" cx="2183.47" cy="1552.08" r="8.61"/>
				<circle fill="#012B48" cx="2331.3" cy="1523.71" r="8.61"/>
				<circle fill="#012B48" cx="2275.66" cy="1539.08" r="8.61"/>
				<circle fill="#012B48" cx="2351.31" cy="1610.65" r="8.61"/>
				<circle fill="#012B48" cx="2358.4" cy="1565.74" r="8.61"/>
				<circle fill="#012B48" cx="2424.37" cy="1557.13" r="8.61"/>
				<circle fill="#012B48" cx="2455.01" cy="1623.01" r="8.61"/>
				<circle fill="#012B48" cx="2508.76" cy="1569.67" r="8.61"/>
				<circle fill="#012B48" cx="2506.23" cy="1710.6" r="8.61"/>
				<circle fill="#012B48" cx="2524.61" cy="1811.96" r="8.61"/>
				<circle fill="#012B48" cx="2669.17" cy="1799" r="8.61"/>
				<circle fill="#012B48" cx="2614.15" cy="1589.13" r="8.61"/>
				<circle fill="#012B48" cx="2644.74" cy="1570.78" r="8.61"/>
				<circle fill="#012B48" cx="2675.78" cy="1452.73" r="8.61"/>
				<circle fill="#012B48" cx="2585.87" cy="1444.12" r="8.61"/>
				<circle fill="#012B48" cx="2486.32" cy="1507.93" r="8.61"/>
				<circle fill="#012B48" cx="2495.54" cy="1447.06" r="8.61"/>
				<circle fill="#012B48" cx="2440.36" cy="1393.36" r="8.61"/>
				<circle fill="#012B48" cx="2342.7" cy="1372.3" r="8.61"/>
				<circle fill="#012B48" cx="2300.71" cy="1417.92" r="8.61"/>
				<circle fill="#012B48" cx="2288.32" cy="1346.54" r="8.61"/>
				<circle fill="#012B48" cx="2300.99" cy="1284.21" r="8.61"/>
				<circle fill="#012B48" cx="2412.21" cy="1303.66" r="8.61"/>
				<circle fill="#012B48" cx="2486.93" cy="1350.61" r="8.61"/>
				<circle fill="#012B48" cx="2542.84" cy="1396.81" r="8.61"/>
				<circle fill="#012B48" cx="2644.74" cy="1358.34" r="8.61"/>
				<circle fill="#012B48" cx="2686.81" cy="1301.53" r="8.61"/>
				<circle fill="#012B48" cx="2659.49" cy="1295.05" r="8.61"/>
				<circle fill="#012B48" cx="2575.17" cy="1248.96" r="8.61"/>
				<circle fill="#012B48" cx="2481.72" cy="1262.77" r="8.61"/>
				<circle fill="#012B48" cx="2539.17" cy="1231.36" r="8.61"/>
				<circle fill="#012B48" cx="2539.17" cy="1231.36" r="8.61"/>
				<circle fill="#012B48" cx="2486.32" cy="1203.79" r="8.61"/>
				<circle fill="#012B48" cx="2542.4" cy="1147.4" r="8.61"/>
				<circle fill="#012B48" cx="2457.58" cy="1156.02" r="8.61"/>
				<circle fill="#012B48" cx="2448.97" cy="1091.61" r="8.61"/>
				<circle fill="#012B48" cx="2403.6" cy="1135.55" r="8.61"/>
				<circle fill="#012B48" cx="2408.96" cy="1083" r="8.61"/>
				<circle fill="#012B48" cx="2305.55" cy="1086.21" r="8.61"/>
				<circle fill="#012B48" cx="2369.38" cy="1202.09" r="8.61"/>
				<circle fill="#012B48" cx="2339.3" cy="1231.36" r="8.61"/>
				<circle fill="#012B48" cx="2240.73" cy="1231.36" r="8.61"/>
				<circle fill="#012B48" cx="2303.28" cy="1157.06" r="8.61"/>
				<circle fill="#012B48" cx="2215.87" cy="1173" r="8.61"/>
				<circle fill="#012B48" cx="2166.8" cy="1222.75" r="8.61"/>
				<circle fill="#012B48" cx="2158.18" cy="1122.6" r="8.61"/>
				<circle fill="#012B48" cx="2229.49" cy="1086.21" r="8.61"/>
				<circle fill="#012B48" cx="2198.65" cy="1000.78" r="8.61"/>
				<circle fill="#012B48" cx="2138.77" cy="1000.78" r="8.61"/>
				<circle fill="#012B48" cx="2100.5" cy="1055.37" r="8.61"/>
				<circle fill="#012B48" cx="2261.11" cy="1055.37" r="8.61"/>
				<circle fill="#012B48" cx="2179.53" cy="1248.96" r="8.61"/>
				<circle fill="#012B48" cx="2424.01" cy="1248.62" r="8.61"/>
				<circle fill="#012B48" cx="2215.87" cy="1329.32" r="8.61"/>
				<circle fill="#012B48" cx="2463.62" cy="1788.79" r="8.61"/>
				<circle fill="#012B48" cx="2461.41" cy="1847.74" r="8.61"/>
				<circle fill="#012B48" cx="2525.08" cy="1915.39" r="8.61"/>
				<circle fill="#012B48" cx="2709.38" cy="1983.99" r="8.61"/>
				<circle fill="#012B48" cx="2667.17" cy="2070.78" r="8.61"/>
				<circle fill="#012B48" cx="2374.72" cy="1756.56" r="8.61"/>
				<circle fill="#012B48" cx="2324.99" cy="1690.13" r="8.61"/>
				<circle fill="#012B48" cx="2389.59" cy="1839.13" r="8.61"/>
				<circle fill="#012B48" cx="2391.94" cy="1648" r="8.61"/>
				<rect fill="none" width="3480" height="2160"/>
			</g>
		</g>
	</g>
</g>
<rect fill="none" width="3480" height="2160"/>
</svg>
