<?xml version="1.0" encoding="utf-8"?>
<!-- Generator: Adobe Illustrator 24.2.1, SVG Export Plug-In . SVG Version: 6.00 Build 0)  -->
<svg version="1.1" id="dearPlusRewardsBgSvg" xmlns="http://www.w3.org/2000/svg" xmlns:xlink="http://www.w3.org/1999/xlink"
	 x="0px" y="0px" width="3840px" height="2165.6px" viewBox="0 0 3840 2165.6" enable-background="new 0 0 3840 2165.6"
	 xml:space="preserve">
<g id="_x2D_.bgScene-">
	<rect id="_x2D_.bgColor-" x="-5.1" fill="#A4CD38" width="3850.19" height="2165.6"/>
	<g id="_x2D_.moveElements-">
		<g>
			<g>
				<polygon opacity="0.26" fill="#FFFFFF" points="-306.2,-28.24 1179.74,-7.02 -22.43,2187.12 				"/>
				<rect x="-22.43" y="-6.76" fill="none" width="3876.77" height="2183.28"/>
			</g>
		</g>
		<g>
			<g>
				<polygon fill="#00C0F2" points="-81.01,-608.16 598.78,-10.78 -5.39,2113.37 				"/>
				<rect x="-22.43" y="-6.76" fill="none" width="3876.77" height="2183.28"/>
			</g>
		</g>
	</g>
	<g id="_x2D_.moveElements-_1_">
		<g>
			<g>
				<polygon opacity="0.31" fill="#FFFFFF" points="3865.29,-50.66 3336.41,2200.96 3908.1,2654.32 				"/>
				<rect x="-31.67" fill="none" width="3876.77" height="2183.28"/>
			</g>
		</g>
		<g>
			<g>
				<polygon fill="#012B48" points="3842.18,620.55 3191.56,2187.11 4147.07,2573.17 				"/>
				<rect x="-31.67" fill="none" width="3876.77" height="2183.28"/>
			</g>
		</g>
	</g>
</g>
<g id="_x2D_.lineBG-">
	<g>
		<polygon fill="#012B48" points="998.79,-413.11 -205.72,2090.39 -197.52,2094.99 1006.99,-408.52 		"/>
		<rect x="-22.43" y="-6.76" fill="none" width="3876.77" height="2183.28"/>
	</g>
</g>
<g id="_x2D_.lineBG-_1_">
	<g>
		<polygon fill="#FCFCFC" points="3739.44,-228.41 3312.65,2571.54 3321.91,2573.17 3748.7,-226.77 		"/>
		<rect x="-31.67" fill="none" width="3876.77" height="2183.28"/>
	</g>
</g>
</svg>
