<svg id="dotPre">
	<symbol id="forUseA" width="3224px" height="2370px" viewBox="0 0 3224 2370">
		<g opacity="0.5">
			<g id="_x2D_.dotAndLine-">
				<g id="_x2D_.lines-">
					<polyline fill="none" stroke="#012B48" stroke-miterlimit="10" stroke-dasharray="12" stroke-dashoffset="1" points="
				815,1455.38 767.6,1448.24 554.14,1401.38 212,1530.06 			"/>
					<polyline fill="none" stroke="#012B48" stroke-miterlimit="10" stroke-dasharray="12" stroke-dashoffset="1" points="
				670.89,1605.25 533.01,1531.92 467.6,1766.42 670.89,1614.25 572.63,2054.1 467.6,1766.42 440.61,2060.28 257.96,1984.3
				467.6,1766.42 269.82,1708.12 533.01,1549.91 			"/>
					<polyline fill="none" stroke="#012B48" stroke-miterlimit="10" stroke-dasharray="12" stroke-dashoffset="1" points="
				313.63,1784.41 212,1557.82 139.99,2010.23 257.96,1984.3 223.86,1605.25 			"/>
					<polyline fill="none" stroke="#012B48" stroke-miterlimit="10" stroke-dasharray="12" stroke-dashoffset="1" points="
				139.99,2010.23 62.64,2057.42 351.17,2239.24 257.96,1984.3 			"/>
					<polyline fill="none" stroke="#012B48" stroke-miterlimit="10" stroke-dasharray="12" stroke-dashoffset="1" points="
				431.62,2081.47 367.24,2231.3 572.63,2062.28 679.88,2100.2 382.56,2231.3 			"/>
					<polyline fill="none" stroke="#012B48" stroke-miterlimit="10" stroke-dasharray="12" stroke-dashoffset="1" points="
				572.63,2062.28 791.99,1840.4 679.88,2100.2 721.62,2100.42 791.99,1840.4 717.67,1748.43 788.74,1805.43 1019.9,1807.7
				989.6,1648.53 			"/>
					<polyline fill="none" stroke="#012B48" stroke-miterlimit="10" stroke-dasharray="12" stroke-dashoffset="1" points="815,2231.3
				721.62,2100.42 1019.9,1807.7 1115.16,2271.69 1215.07,1816.54 1337.02,2174.39 1135.07,2319.18 			"/>

					<line fill="none" stroke="#012B48" stroke-miterlimit="10" stroke-dasharray="12" stroke-dashoffset="1" x1="791.99" y1="1840.4" x2="1110.31" y2="2248.06"/>
					<polyline fill="none" stroke="#012B48" stroke-miterlimit="10" stroke-dasharray="12" stroke-dashoffset="1" points="
				791.99,1840.4 1019.9,1807.7 1215.07,1816.55 			"/>
					<polyline fill="none" stroke="#012B48" stroke-miterlimit="10" stroke-dasharray="12" stroke-dashoffset="1" points="
				1337.02,2183.23 1528.16,2116.57 1460.27,1873.39 			"/>
					<polyline fill="none" stroke="#012B48" stroke-miterlimit="10" stroke-dasharray="12" stroke-dashoffset="1" points="
				1600.33,2215.01 1528.16,2116.57 1924.44,2161.17 1949.71,2222.67 2066.9,2098.55 1924.44,2161.17 1675.12,1920.5
				1613.24,1438.33 1600.33,1267.03 1332.65,1318.2 			"/>

					<line fill="none" stroke="#012B48" stroke-miterlimit="10" stroke-dasharray="12" stroke-dashoffset="1" x1="1528.16" y1="2116.57" x2="1675.12" y2="1920.5"/>
					<polyline fill="none" stroke="#012B48" stroke-miterlimit="10" stroke-dasharray="12" stroke-dashoffset="1" points="
				1937.65,2134.59 2142.26,1920.5 2384.25,1877.92 2338.05,2161.17 2066.9,2098.55 2384.25,1877.92 			"/>
					<polyline fill="none" stroke="#012B48" stroke-miterlimit="10" stroke-dasharray="12" stroke-dashoffset="1" points="
				2066.9,2098.55 2107.54,2234.45 2338.05,2161.17 2225.56,2280.88 			"/>
					<polyline fill="none" stroke="#012B48" stroke-miterlimit="10" stroke-dasharray="12" stroke-dashoffset="1" points="
				1996.64,1976.49 1903.76,1877.99 1971.19,1841.65 			"/>
					<polyline fill="none" stroke="#012B48" stroke-miterlimit="10" stroke-dasharray="12" stroke-dashoffset="1" points="
				2057.24,1813 2142.26,1920.5 2338.05,1781.47 2197.88,1718.28 			"/>
					<polyline fill="none" stroke="#012B48" stroke-miterlimit="10" stroke-dasharray="12" stroke-dashoffset="1" points="
				2152.42,1697.97 2225.56,1583.24 2125.55,1517.09 			"/>
					<polygon fill="none" stroke="#012B48" stroke-miterlimit="10" stroke-dasharray="12" stroke-dashoffset="1" points="
				2003.22,1287.83 1969.57,1407.17 2030.9,1365.9 			"/>
					<polyline fill="none" stroke="#012B48" stroke-miterlimit="10" stroke-dasharray="12" stroke-dashoffset="1" points="
				2338.05,1781.47 2384.25,1877.92 2484.53,1826.7 2525.99,1663.78 2474.37,1631.38 			"/>
					<polyline fill="none" stroke="#012B48" stroke-miterlimit="10" stroke-dasharray="12" stroke-dashoffset="1" points="
				2384.25,1877.92 2604.22,1818.54 2631.88,1970.31 2661.81,1826.7 2639.79,1783.64 2551.53,1447.13 2488.49,1455.09
				2639.79,1783.64 			"/>
					<polyline fill="none" stroke="#012B48" stroke-miterlimit="10" stroke-dasharray="12" stroke-dashoffset="1" points="
				2338.05,2161.17 2458.87,2019.68 2631.88,1970.31 2754.35,2140.03 2687.09,1988.35 2882.84,2000.41 2754.35,2140.03
				2534.9,2232.11 			"/>
					<polyline fill="none" stroke="#012B48" stroke-miterlimit="10" stroke-dasharray="12" stroke-dashoffset="1" points="
				2687.09,1988.35 2840.79,1870.12 2639.79,1783.64 2806.82,1697.97 2796.66,1648.39 2751.67,1428.29 2640.32,1791.63
				2796.66,1648.39 3174.22,1608.37 2806.82,1697.97 2840.79,1870.12 3161.46,1607.86 2882.84,2000.41 3053.04,2025.72
				3155.14,1613.02 			"/>
					<polyline fill="none" stroke="#012B48" stroke-miterlimit="10" stroke-dasharray="12" stroke-dashoffset="1" points="
				2394.35,2249.09 2458.87,2019.68 2754.35,2140.03 2716.05,2305.39 			"/>
					<polyline fill="none" stroke="#012B48" stroke-miterlimit="10" stroke-dasharray="12" stroke-dashoffset="1" points="3042,1998
				2750.28,1432.83 3155.14,1613.02 2887.43,1377.2 2750.28,1432.83 2854.76,1241.47 2887.43,1377.2 3026.38,1131.86
				2816.98,945.05 2854.76,1226.54 			"/>
					<polyline fill="none" stroke="#012B48" stroke-miterlimit="10" stroke-dasharray="12" stroke-dashoffset="1" points="
				2796.66,1648.39 2887.43,1377.2 3053.04,2025.72 3108.99,2215.77 			"/>
					<polyline fill="none" stroke="#012B48" stroke-miterlimit="10" stroke-dasharray="12" stroke-dashoffset="1" points="
				2816.98,945.05 2947.52,640.14 2699.94,582.19 			"/>

					<line fill="none" stroke="#012B48" stroke-miterlimit="10" stroke-dasharray="12" stroke-dashoffset="1" x1="3171.03" y1="406.2" x2="2770.57" y2="417.82"/>
					<polyline fill="none" stroke="#012B48" stroke-miterlimit="10" stroke-dasharray="12" stroke-dashoffset="1" points="
				2610.47,233.55 2471.07,413.55 2501.2,573.61 			"/>
					<polyline fill="none" stroke="#012B48" stroke-miterlimit="10" stroke-dasharray="12" stroke-dashoffset="1" points="
				2152.43,372.16 2471.07,413.55 2271.15,573.61 			"/>

					<line fill="none" stroke="#012B48" stroke-miterlimit="10" stroke-dasharray="12" stroke-dashoffset="1" x1="2273.15" y1="600.61" x2="2200.44" y2="862.91"/>
					<polyline fill="none" stroke="#012B48" stroke-miterlimit="10" stroke-dasharray="12" stroke-dashoffset="1" points="
				2126.53,68.15 2291.33,220.71 2014.82,305.47 2042.47,164.49 2282.75,220.71 			"/>

					<line fill="none" stroke="#012B48" stroke-miterlimit="10" stroke-dasharray="12" stroke-dashoffset="1" x1="877.37" y1="1075.26" x2="1125.12" y2="1469.79"/>
				</g>
				<g id="_x2D_.dots-">
					<circle fill="#012B48" cx="877.37" cy="1075.26" r="19.91"/>
					<circle fill="#012B48" cx="767.6" cy="1448.24" r="19.94"/>
					<circle fill="#012B48" cx="815" cy="1455.38" r="16.62"/>
					<circle fill="#012B48" cx="554.14" cy="1401.38" r="16.62"/>
					<circle fill="#012B48" cx="212" cy="1530.06" r="14.8"/>
					<circle fill="#012B48" cx="62.64" cy="2057.42" r="11.86"/>
					<circle fill="#012B48" cx="139.99" cy="2010.23" r="11.14"/>
					<circle fill="#012B48" cx="257.96" cy="1984.3" r="7.1"/>
					<circle fill="#012B48" cx="330.9" cy="1795.31" r="5.37"/>
					<circle fill="#012B48" cx="467.6" cy="1766.42" r="15.05"/>
					<circle fill="#012B48" cx="533.01" cy="1540.91" r="8.99"/>
					<circle fill="#012B48" cx="670.89" cy="1605.25" r="11.93"/>
					<circle fill="#012B48" cx="440.61" cy="2060.28" r="13.75"/>
					<circle fill="#012B48" cx="788.74" cy="1805.43" r="13.75"/>
					<circle fill="#012B48" cx="791.99" cy="1840.4" r="17.95"/>
					<circle fill="#012B48" cx="717.67" cy="1748.43" r="15.01"/>
					<circle fill="#012B48" cx="989.6" cy="1648.53" r="12.07"/>
					<circle fill="#012B48" cx="1019.9" cy="1807.7" r="6.53"/>
					<circle fill="#012B48" cx="1215.07" cy="1816.54" r="4.09"/>
					<circle fill="#012B48" cx="1337.02" cy="2183.23" r="5.9"/>
					<circle fill="#012B48" cx="572.63" cy="2062.28" r="14.18"/>
					<circle fill="#012B48" cx="679.88" cy="2100.2" r="17.12"/>
					<circle fill="#012B48" cx="721.62" cy="2100.42" r="23.71"/>
					<circle fill="#012B48" cx="1332.65" cy="1318.2" r="17.97"/>
					<circle fill="#012B48" cx="1460.27" cy="1873.39" r="16.15"/>
					<circle fill="#012B48" cx="1675.12" cy="1920.5" r="13.21"/>
					<circle fill="#012B48" cx="1903.76" cy="1877.99" r="10.27"/>
					<circle fill="#012B48" cx="1971.19" cy="1841.65" r="5.4"/>
					<circle fill="#012B48" cx="2338.05" cy="1781.47" r="5.4"/>
					<circle fill="#012B48" cx="2484.53" cy="1826.7" r="7.22"/>
					<circle fill="#012B48" cx="2604.22" cy="1818.54" r="10.16"/>
					<circle fill="#012B48" cx="2661.81" cy="1826.7" r="13.1"/>
					<circle fill="#012B48" cx="2806.82" cy="1697.97" r="14.91"/>
					<circle fill="#012B48" cx="2796.66" cy="1648.39" r="14.91"/>
					<circle fill="#012B48" cx="2887.43" cy="1377.2" r="13.1"/>
					<circle fill="#012B48" cx="2816.98" cy="945.05" r="10.16"/>
					<circle fill="#012B48" cx="2947.52" cy="640.14" r="11.38"/>
					<circle fill="#012B48" cx="2770.57" cy="417.82" r="12.36"/>
					<circle fill="#012B48" cx="2699.94" cy="582.19" r="3.82"/>
					<circle fill="#012B48" cx="2501.2" cy="573.61" r="5.64"/>
					<circle fill="#012B48" cx="2271.15" cy="573.61" r="8.58"/>
					<circle fill="#012B48" cx="2197.88" cy="862.91" r="11.51"/>
					<circle fill="#012B48" cx="2152.43" cy="372.16" r="13.33"/>
					<circle fill="#012B48" cx="2014.82" cy="305.47" r="13.33"/>
					<circle fill="#012B48" cx="2291.33" cy="220.71" r="11.51"/>
					<circle fill="#012B48" cx="2042.47" cy="164.49" r="11.95"/>
					<circle fill="#012B48" cx="2471.07" cy="413.55" r="9.91"/>
					<circle fill="#012B48" cx="2126.53" cy="68.15" r="12.57"/>
					<circle fill="#012B48" cx="2610.47" cy="233.55" r="8.09"/>
					<circle fill="#012B48" cx="2273.15" cy="600.61" r="9.91"/>
					<circle fill="#012B48" cx="2840.79" cy="1870.12" r="13.96"/>
					<circle fill="#012B48" cx="2687.09" cy="1988.35" r="13.1"/>
					<circle fill="#012B48" cx="2754.35" cy="2140.03" r="17.69"/>
					<circle fill="#012B48" cx="2882.84" cy="2000.41" r="15.8"/>
					<circle fill="#012B48" cx="3053.04" cy="2025.72" r="13.98"/>
					<circle fill="#012B48" cx="2474.37" cy="1631.38" r="10.16"/>
					<circle fill="#012B48" cx="2551.53" cy="1447.13" r="7.22"/>
					<circle fill="#012B48" cx="2488.49" cy="1455.09" r="13.36"/>
					<circle fill="#012B48" cx="2751.67" cy="1428.29" r="13.36"/>
					<circle fill="#012B48" cx="3026.38" cy="1131.86" r="15.18"/>
					<circle fill="#012B48" cx="2525.99" cy="1663.78" r="15.38"/>
					<circle fill="#012B48" cx="2197.88" cy="1718.28" r="13.1"/>
					<circle fill="#012B48" cx="2152.42" cy="1697.97" r="14.91"/>
					<circle fill="#012B48" cx="2225.56" cy="1583.24" r="19.67"/>
					<circle fill="#012B48" cx="2123.91" cy="1514.09" r="13.21"/>
					<circle fill="#012B48" cx="2057.24" cy="1813" r="13.7"/>
					<circle fill="#012B48" cx="2142.26" cy="1920.5" r="10.76"/>
					<circle fill="#012B48" cx="2384.25" cy="1877.92" r="13.01"/>
					<circle fill="#012B48" cx="1924.44" cy="2161.17" r="8.46"/>
					<circle fill="#012B48" cx="2066.9" cy="2098.55" r="10.27"/>
					<circle fill="#012B48" cx="1996.64" cy="1976.49" r="9.18"/>
					<circle fill="#012B48" cx="2338.05" cy="2161.17" r="12.12"/>
					<circle fill="#012B48" cx="2458.87" cy="2019.68" r="20.26"/>
					<circle fill="#012B48" cx="2631.88" cy="1970.31" r="20.26"/>
					<circle fill="#012B48" cx="2639.79" cy="1783.64" r="20.61"/>
					<circle fill="#012B48" cx="2453" cy="1988.35" r="9.64"/>
					<circle fill="#012B48" cx="1528.16" cy="2116.57" r="15.09"/>
					<circle fill="#012B48" cx="1125.12" cy="1469.79" r="5.2"/>
					<circle fill="#012B48" cx="1600.33" cy="1267.03" r="8.16"/>
					<circle fill="#012B48" cx="2003.22" cy="1282.54" r="12.57"/>
					<circle fill="#012B48" cx="1969.57" cy="1407.17" r="13.24"/>
					<circle fill="#012B48" cx="2030.9" cy="1365.9" r="14.24"/>
					<circle fill="#012B48" cx="2071.55" cy="1246.53" r="14.4"/>
					<circle fill="#012B48" cx="2271.42" cy="1172.85" r="14.4"/>
					<circle fill="#012B48" cx="1614.68" cy="1224.22" r="12.29"/>
					<circle fill="#012B48" cx="1613.24" cy="1438.33" r="12.91"/>
				</g>
			</g>
			<g id="_x2D_.rectBgAnim-">
				<polygon fill="#00C0F2" points="2246.02,94 2501.8,349.78 2693.28,237.96 		"/>
				<polygon fill="#00C0F2" points="1285.61,1966.56 1541.39,2222.34 1732.88,2110.53 		"/>
				<polygon fill="#00C0F2" points="2747.73,1923.35 3003.51,2179.13 3195,2067.32 		"/>
				<polygon fill="#00C0F2" points="299.24,1820.21 325.8,1962.78 404.07,1994.92 		"/>
			</g>
		</g>
	</symbol>
	<symbol id="forUseB" width="3224px" height="1365px" viewBox="0 0 3224 1365">
		<g opacity="0.5">
			<g id="_x2D_.lines-">
				<polyline fill="none" stroke="#012B48" stroke-miterlimit="10" stroke-dasharray="12" stroke-dashoffset="1" points="
			814.5,450.11 767.1,442.98 553.64,396.11 211.5,524.8 		"/>
				<polyline fill="none" stroke="#012B48" stroke-miterlimit="10" stroke-dasharray="12" stroke-dashoffset="1" points="
			670.39,599.99 532.51,526.66 467.1,761.16 670.39,608.98 572.13,1048.84 467.1,761.16 440.11,1055.02 257.46,979.03 467.1,761.16
			269.32,702.86 532.51,544.64 		"/>
				<polyline fill="none" stroke="#012B48" stroke-miterlimit="10" stroke-dasharray="12" stroke-dashoffset="1" points="
			313.13,779.15 211.5,552.55 139.49,1004.97 257.46,979.03 223.36,599.99 		"/>
				<polyline fill="none" stroke="#012B48" stroke-miterlimit="10" stroke-dasharray="12" stroke-dashoffset="1" points="
			139.49,1004.97 62.14,1052.16 350.67,1233.98 257.46,979.03 		"/>
				<polyline fill="none" stroke="#012B48" stroke-miterlimit="10" stroke-dasharray="12" stroke-dashoffset="1" points="
			431.12,1076.2 366.74,1226.04 572.13,1057.02 679.38,1094.94 382.06,1226.04 		"/>
				<polyline fill="none" stroke="#012B48" stroke-miterlimit="10" stroke-dasharray="12" stroke-dashoffset="1" points="
			572.13,1057.02 791.49,835.14 679.38,1094.94 721.12,1095.16 791.49,835.14 717.17,743.17 788.24,800.17 1019.4,802.44
			989.1,643.26 		"/>
				<polyline fill="none" stroke="#012B48" stroke-miterlimit="10" stroke-dasharray="12" stroke-dashoffset="1" points="
			814.5,1226.04 721.12,1095.16 1019.4,802.44 1114.66,1266.43 1214.57,811.28 1336.52,1169.12 1134.57,1313.91 		"/>

				<line fill="none" stroke="#012B48" stroke-miterlimit="10" stroke-dasharray="12" stroke-dashoffset="1" x1="791.49" y1="835.14" x2="1109.81" y2="1242.8"/>
				<polyline fill="none" stroke="#012B48" stroke-miterlimit="10" stroke-dasharray="12" stroke-dashoffset="1" points="
			791.49,835.14 1019.4,802.44 1214.57,811.28 		"/>
				<polyline fill="none" stroke="#012B48" stroke-miterlimit="10" stroke-dasharray="12" stroke-dashoffset="1" points="
			1336.52,1177.97 1527.66,1111.31 1459.77,868.13 		"/>
				<polyline fill="none" stroke="#012B48" stroke-miterlimit="10" stroke-dasharray="12" stroke-dashoffset="1" points="
			1599.83,1209.74 1527.66,1111.31 1923.94,1155.91 1949.21,1217.4 2066.4,1093.28 1923.94,1155.91 1674.62,915.23 1612.74,433.06
			1599.83,261.76 1332.15,312.94 		"/>

				<line fill="none" stroke="#012B48" stroke-miterlimit="10" stroke-dasharray="12" stroke-dashoffset="1" x1="1527.66" y1="1111.31" x2="1674.62" y2="915.23"/>
				<polyline fill="none" stroke="#012B48" stroke-miterlimit="10" stroke-dasharray="12" stroke-dashoffset="1" points="
			1937.15,1129.33 2141.76,915.23 2383.75,872.66 2337.55,1155.91 2066.4,1093.28 2383.75,872.66 		"/>
				<polyline fill="none" stroke="#012B48" stroke-miterlimit="10" stroke-dasharray="12" stroke-dashoffset="1" points="
			2066.4,1093.28 2107.04,1229.19 2337.55,1155.91 2225.06,1275.62 		"/>
				<polyline fill="none" stroke="#012B48" stroke-miterlimit="10" stroke-dasharray="12" stroke-dashoffset="1" points="
			1996.14,971.23 1903.26,872.72 1970.69,836.39 		"/>
				<polyline fill="none" stroke="#012B48" stroke-miterlimit="10" stroke-dasharray="12" stroke-dashoffset="1" points="
			2056.74,807.74 2141.76,915.23 2337.55,776.21 2197.38,713.02 		"/>
				<polyline fill="none" stroke="#012B48" stroke-miterlimit="10" stroke-dasharray="12" stroke-dashoffset="1" points="
			2151.92,692.7 2225.06,577.97 2125.05,511.83 		"/>
				<polygon fill="none" stroke="#012B48" stroke-miterlimit="10" stroke-dasharray="12" stroke-dashoffset="1" points="
			2002.72,282.57 1969.07,401.91 2030.4,360.64 		"/>
				<polyline fill="none" stroke="#012B48" stroke-miterlimit="10" stroke-dasharray="12" stroke-dashoffset="1" points="
			2337.55,776.21 2383.75,872.66 2484.03,821.44 2525.49,658.51 2473.87,626.12 		"/>
				<polyline fill="none" stroke="#012B48" stroke-miterlimit="10" stroke-dasharray="12" stroke-dashoffset="1" points="
			2383.75,872.66 2603.72,813.28 2631.38,965.05 2661.31,821.44 2639.29,778.37 2551.03,441.87 2487.99,449.83 2639.29,778.37 		"/>
				<polyline fill="none" stroke="#012B48" stroke-miterlimit="10" stroke-dasharray="12" stroke-dashoffset="1" points="
			2337.55,1155.91 2458.37,1014.42 2631.38,965.05 2753.85,1134.76 2686.59,983.09 2882.34,995.14 2753.85,1134.76 2534.4,1226.85
					"/>
				<polyline fill="none" stroke="#012B48" stroke-miterlimit="10" stroke-dasharray="12" stroke-dashoffset="1" points="
			2686.59,983.09 2840.29,864.86 2639.29,778.37 2806.32,692.7 2796.16,643.13 2751.17,423.03 2639.82,786.37 2796.16,643.13
			3173.72,603.11 2806.32,692.7 2840.29,864.86 3160.96,602.6 2882.34,995.14 3052.53,1020.46 3154.64,607.76 		"/>
				<polyline fill="none" stroke="#012B48" stroke-miterlimit="10" stroke-dasharray="12" stroke-dashoffset="1" points="
			2393.85,1243.83 2458.37,1014.42 2753.85,1134.77 2715.55,1300.13 		"/>
				<polyline fill="none" stroke="#012B48" stroke-miterlimit="10" stroke-dasharray="12" stroke-dashoffset="1" points="
			3041.5,992.73 2749.78,427.57 3154.64,607.76 2886.93,371.94 2749.78,427.57 2854.26,236.21 2886.93,371.94 3025.88,126.6 		"/>
				<polyline fill="none" stroke="#012B48" stroke-miterlimit="10" stroke-dasharray="12" stroke-dashoffset="1" points="
			2796.16,643.13 2886.93,371.94 3052.53,1020.46 3108.49,1210.51 		"/>

				<line fill="none" stroke="#012B48" stroke-miterlimit="10" stroke-dasharray="12" stroke-dashoffset="1" x1="876.87" y1="70" x2="1124.62" y2="464.53"/>
			</g>
			<g id="_x2D_.dots-">
				<circle fill="#012B48" cx="876.87" cy="70" r="19.91"/>
				<circle fill="#012B48" cx="767.1" cy="442.98" r="11.93"/>
				<circle fill="#012B48" cx="814.5" cy="450.11" r="17.12"/>
				<circle fill="#012B48" cx="553.64" cy="396.11" r="11.86"/>
				<circle fill="#012B48" cx="211.5" cy="524.8" r="6.79"/>
				<circle fill="#012B48" cx="62.14" cy="1052.16" r="17.12"/>
				<circle fill="#012B48" cx="139.49" cy="1004.97" r="14.08"/>
				<circle fill="#012B48" cx="257.46" cy="979.03" r="6.79"/>
				<circle fill="#012B48" cx="330.4" cy="790.05" r="15.38"/>
				<circle fill="#012B48" cx="467.1" cy="761.16" r="17.99"/>
				<circle fill="#012B48" cx="532.51" cy="535.65" r="3.93"/>
				<circle fill="#012B48" cx="670.39" cy="599.99" r="14.25"/>
				<circle fill="#012B48" cx="440.11" cy="1055.02" r="8.99"/>
				<circle fill="#012B48" cx="788.24" cy="800.17" r="3.93"/>
				<circle fill="#012B48" cx="791.49" cy="835.14" r="20.27"/>
				<circle fill="#012B48" cx="717.17" cy="743.17" r="15.01"/>
				<circle fill="#012B48" cx="989.1" cy="643.26" r="9.95"/>
				<circle fill="#012B48" cx="1019.4" cy="802.44" r="16.55"/>
				<circle fill="#012B48" cx="1214.57" cy="811.28" r="8.84"/>
				<circle fill="#012B48" cx="1336.52" cy="1177.97" r="3.78"/>
				<circle fill="#012B48" cx="572.13" cy="1057.02" r="19.44"/>
				<circle fill="#012B48" cx="679.38" cy="1094.94" r="14.18"/>
				<circle fill="#012B48" cx="721.12" cy="1095.16" r="13.89"/>
				<circle fill="#012B48" cx="1332.15" cy="312.94" r="18.47"/>
				<circle fill="#012B48" cx="1459.77" cy="868.13" r="13.21"/>
				<circle fill="#012B48" cx="1674.62" cy="915.23" r="8.15"/>
				<circle fill="#012B48" cx="1903.26" cy="872.72" r="18.47"/>
				<circle fill="#012B48" cx="1970.69" cy="836.39" r="10.16"/>
				<circle fill="#012B48" cx="2337.55" cy="776.21" r="5.09"/>
				<circle fill="#012B48" cx="2484.03" cy="821.44" r="15.42"/>
				<circle fill="#012B48" cx="2603.72" cy="813.28" r="10.16"/>
				<circle fill="#012B48" cx="2661.31" cy="821.44" r="5.09"/>
				<circle fill="#012B48" cx="2806.32" cy="692.7" r="15.42"/>
				<circle fill="#012B48" cx="2796.16" cy="643.13" r="10.16"/>
				<circle fill="#012B48" cx="2840.29" cy="864.86" r="8.9"/>
				<circle fill="#012B48" cx="2686.59" cy="983.09" r="15.42"/>
				<circle fill="#012B48" cx="2753.85" cy="1134.76" r="12.93"/>
				<circle fill="#012B48" cx="2882.34" cy="995.14" r="5.97"/>
				<circle fill="#012B48" cx="3052.54" cy="1020.46" r="16.3"/>
				<circle fill="#012B48" cx="2473.87" cy="626.12" r="10.16"/>
				<circle fill="#012B48" cx="2551.03" cy="441.87" r="5.09"/>
				<circle fill="#012B48" cx="2487.99" cy="449.83" r="23.37"/>
				<circle fill="#012B48" cx="2751.17" cy="423.03" r="18.12"/>
				<circle fill="#012B48" cx="3025.88" cy="126.6" r="13.05"/>
				<circle fill="#012B48" cx="2525.49" cy="658.51" r="20.64"/>
				<circle fill="#012B48" cx="2197.38" cy="713.02" r="10.16"/>
				<circle fill="#012B48" cx="2151.92" cy="692.7" r="5.09"/>
				<circle fill="#012B48" cx="2225.06" cy="577.97" r="20.18"/>
				<circle fill="#012B48" cx="2123.41" cy="508.83" r="10.27"/>
				<circle fill="#012B48" cx="2056.74" cy="807.74" r="8.64"/>
				<circle fill="#012B48" cx="2141.76" cy="915.23" r="18.96"/>
				<circle fill="#012B48" cx="2383.75" cy="872.66" r="17.77"/>
				<circle fill="#012B48" cx="1923.94" cy="1155.91" r="8.15"/>
				<circle fill="#012B48" cx="2066.4" cy="1093.28" r="18.47"/>
				<circle fill="#012B48" cx="1996.14" cy="971.23" r="9.18"/>
				<circle fill="#012B48" cx="2337.55" cy="1155.91" r="4.12"/>
				<circle fill="#012B48" cx="2458.37" cy="1014.42" r="20.76"/>
				<circle fill="#012B48" cx="2631.38" cy="965.05" r="15.51"/>
				<circle fill="#012B48" cx="2639.29" cy="778.37" r="12.6"/>
				<circle fill="#012B48" cx="2452.5" cy="983.09" r="14.9"/>
				<circle fill="#012B48" cx="1527.66" cy="1111.31" r="18.02"/>
				<circle fill="#012B48" cx="1124.62" cy="464.53" r="4.89"/>
				<circle fill="#012B48" cx="1599.83" cy="261.76" r="18.17"/>
				<circle fill="#012B48" cx="2002.72" cy="277.27" r="15.51"/>
				<circle fill="#012B48" cx="1969.07" cy="401.91" r="8.17"/>
				<circle fill="#012B48" cx="2030.4" cy="360.64" r="16.56"/>
				<circle fill="#012B48" cx="2071.05" cy="241.27" r="9.65"/>
				<circle fill="#012B48" cx="2270.92" cy="167.59" r="4.58"/>
				<circle fill="#012B48" cx="1614.18" cy="218.96" r="14.61"/>
				<circle fill="#012B48" cx="1612.74" cy="433.06" r="12.91"/>
			</g>
			<g id="_x2D_.rectBgAnim-">
				<polygon fill="#00C0F2" points="947.08,1000.38 1194.51,1247.8 1379.74,1139.64 		"/>
				<polygon fill="#00C0F2" points="2750.29,473 2997.72,720.43 3182.95,612.26 		"/>
				<polygon fill="#00C0F2" points="154,801.85 179.69,939.76 255.4,970.86 		"/>
				<polygon fill="#00C0F2" points="2164.15,936.02 2189.84,1073.93 2265.55,1105.03 		"/>
			</g>
		</g>
	</symbol>
</svg>
