<?xml version="1.0" encoding="utf-8"?>
<!-- Generator: Adobe Illustrator 24.2.1, SVG Export Plug-In . SVG Version: 6.00 Build 0)  -->
<svg version="1.1" id="endScene" xmlns="http://www.w3.org/2000/svg" xmlns:xlink="http://www.w3.org/1999/xlink" x="0px" y="0px"
	 width="3840px" height="2160px" viewBox="0 0 3840 2160" enable-background="new 0 0 3840 2160" xml:space="preserve">
<rect id="_x2D_.bgColor-" x="4" y="1.14" fill="#F2F2F2" width="3842.78" height="2162.75"/>
<g id="_x2D_.contentScene-">
	<g id="_x2D_.moveElements-">
		<g>
			<g>
				<rect x="565.68" y="504.63" fill="none" width="2719.41" height="1555.62"/>
				
					<text transform="matrix(1 0 0 1 565.6837 535.8695)" fill="#012B48" font-family="'HelveticaNeueLTStd-Roman'" font-size="44px">XtendiMax</text>
				
					<text transform="matrix(0.583 0 0 0.583 763.9014 521.2172)" opacity="0.92" fill="#012B48" font-family="'HelveticaNeueLTStd-Roman'" font-size="44px">®</text>
				
					<text transform="matrix(1 0 0 1 774.6495 535.8695)" fill="#012B48" font-family="'HelveticaNeueLTStd-Roman'" font-size="44px"> Herbicide with VaporGrip</text>
				
					<text transform="matrix(0.583 0 0 0.583 1249.0933 521.2172)" opacity="0.92" fill="#012B48" font-family="'HelveticaNeueLTStd-Roman'" font-size="44px">®</text>
				
					<text transform="matrix(1 0 0 1 1259.8413 535.8695)" fill="#012B48" font-family="'HelveticaNeueLTStd-Roman'" font-size="44px"> Technology is part of the Roundup Ready</text>
				
					<text transform="matrix(0.583 0 0 0.583 2025.606 521.2172)" opacity="0.92" fill="#012B48" font-family="'HelveticaNeueLTStd-Roman'" font-size="44px">®</text>
				
					<text transform="matrix(1 0 0 1 2036.354 535.8695)" fill="#012B48" font-family="'HelveticaNeueLTStd-Roman'" font-size="44px"> Xtend Crop System, is a Restricted Use Pesticide and must be used </text>
				
					<text transform="matrix(1 0 0 1 565.6837 591.8695)" fill="#012B48" font-family="'HelveticaNeueLTStd-Roman'" font-size="44px">with VaporGrip</text>
				
					<text transform="matrix(0.583 0 0 0.583 844.1548 577.2172)" opacity="0.92" fill="#012B48" font-family="'HelveticaNeueLTStd-Roman'" font-size="44px">®</text>
				
					<text transform="matrix(1 0 0 1 854.9029 591.8695)" fill="#012B48" font-family="'HelveticaNeueLTStd-Roman'" font-size="44px"> Xtra Agent (or an approved equivalent vapor-reducing agent). For approved tankmix products (including VRAs and DRAs), nozzles </text>
				
					<text transform="matrix(1 0 0 1 565.6837 647.8695)" fill="#012B48" font-family="'HelveticaNeueLTStd-Roman'" font-size="44px">and other important label information, visit www.XtendiMaxApplicationRequirements.com. </text>
				<text transform="matrix(1 0 0 1 565.6837 759.8695)" fill="#012B48" font-family="'HelveticaNeueLTStd-Bd'" font-size="44px">ALWAYS READ AND FOLLOW PESTICIDE LABEL DIRECTIONS.</text>
				
					<text transform="matrix(1 0 0 1 1659.7266 759.8695)" fill="#012B48" font-family="'HelveticaNeueLTStd-Roman'" font-size="44px"> Roundup Technology</text>
				
					<text transform="matrix(0.583 0 0 0.583 2065.4443 745.2172)" opacity="0.92" fill="#012B48" font-family="'HelveticaNeueLTStd-Roman'" font-size="44px">®</text>
				
					<text transform="matrix(1 0 0 1 2076.1924 759.8695)" fill="#012B48" font-family="'HelveticaNeueLTStd-Roman'" font-size="44px"> includes glyphosate-based </text>
				
					<text transform="matrix(1 0 0 1 565.6837 815.8695)" fill="#012B48" font-family="'HelveticaNeueLTStd-Roman'" font-size="44px">herbicide technologies. </text>
				
					<text transform="matrix(1 0 0 1 565.6837 927.8695)" fill="#012B48" font-family="'HelveticaNeueLTStd-Roman'" font-size="44px">Aeris</text>
				
					<text transform="matrix(0.583 0 0 0.583 656.7623 913.2172)" opacity="0.92" fill="#012B48" font-family="'HelveticaNeueLTStd-Roman'" font-size="44px">®</text>
				
					<text transform="matrix(1 0 0 1 667.5103 927.8695)" fill="#012B48" font-family="'HelveticaNeueLTStd-Roman'" font-size="44px">, Balance</text>
				
					<text transform="matrix(0.583 0 0 0.583 828.7681 913.2172)" opacity="0.92" fill="#012B48" font-family="'HelveticaNeueLTStd-Roman'" font-size="44px">®</text>
				
					<text transform="matrix(1 0 0 1 839.5162 927.8695)" fill="#012B48" font-family="'HelveticaNeueLTStd-Roman'" font-size="44px"> Flexx, Baythroid</text>
				
					<text transform="matrix(0.583 0 0 0.583 1140.2959 913.2172)" opacity="0.92" fill="#012B48" font-family="'HelveticaNeueLTStd-Roman'" font-size="44px">®</text>
				
					<text transform="matrix(1 0 0 1 1151.0439 927.8695)" fill="#012B48" font-family="'HelveticaNeueLTStd-Roman'" font-size="44px"> XL, Corvus</text>
				
					<text transform="matrix(0.583 0 0 0.583 1351.5918 913.2172)" opacity="0.92" fill="#012B48" font-family="'HelveticaNeueLTStd-Roman'" font-size="44px">®</text>
				
					<text transform="matrix(1 0 0 1 1362.3398 927.8695)" fill="#012B48" font-family="'HelveticaNeueLTStd-Roman'" font-size="44px">, Degree Xtra</text>
				
					<text transform="matrix(0.583 0 0 0.583 1599.8027 913.2172)" opacity="0.92" fill="#012B48" font-family="'HelveticaNeueLTStd-Roman'" font-size="44px">®</text>
				
					<text transform="matrix(1 0 0 1 1610.5508 927.8695)" fill="#012B48" font-family="'HelveticaNeueLTStd-Roman'" font-size="44px">, Harness</text>
				
					<text transform="matrix(0.583 0 0 0.583 1774.5796 913.2172)" opacity="0.92" fill="#012B48" font-family="'HelveticaNeueLTStd-Roman'" font-size="44px">®</text>
				
					<text transform="matrix(1 0 0 1 1785.3276 927.8695)" fill="#012B48" font-family="'HelveticaNeueLTStd-Roman'" font-size="44px"> Xtra, Huskie</text>
				
					<text transform="matrix(0.583 0 0 0.583 2011.7036 913.2172)" opacity="0.92" fill="#012B48" font-family="'HelveticaNeueLTStd-Roman'" font-size="44px">®</text>
				
					<text transform="matrix(1 0 0 1 2022.4517 927.8695)" fill="#012B48" font-family="'HelveticaNeueLTStd-Roman'" font-size="44px"> Complete, Huskie</text>
				
					<text transform="matrix(0.583 0 0 0.583 2353.9863 913.2172)" opacity="0.92" fill="#012B48" font-family="'HelveticaNeueLTStd-Roman'" font-size="44px">®</text>
				
					<text transform="matrix(1 0 0 1 2364.7344 927.8695)" fill="#012B48" font-family="'HelveticaNeueLTStd-Roman'" font-size="44px"> FX, Leverage</text>
				
					<text transform="matrix(0.583 0 0 0.583 2607.3018 913.2172)" opacity="0.92" fill="#012B48" font-family="'HelveticaNeueLTStd-Roman'" font-size="44px">®</text>
				
					<text transform="matrix(1 0 0 1 2618.0498 927.8695)" fill="#012B48" font-family="'HelveticaNeueLTStd-Roman'" font-size="44px"> 360, Scoparia</text>
				
					<text transform="matrix(0.583 0 0 0.583 2871.2197 913.2172)" fill="#012B48" font-family="'HelveticaNeueLTStd-Roman'" font-size="44px">™</text>
				
					<text transform="matrix(1 0 0 1 2887.0977 927.8695)" fill="#012B48" font-family="'HelveticaNeueLTStd-Roman'" font-size="44px"> and XtendiMax</text>
				
					<text transform="matrix(0.583 0 0 0.583 3174.4131 913.2172)" opacity="0.92" fill="#012B48" font-family="'HelveticaNeueLTStd-Roman'" font-size="44px">®</text>
				
					<text transform="matrix(1 0 0 1 3185.1611 927.8695)" fill="#012B48" font-family="'HelveticaNeueLTStd-Roman'" font-size="44px"> are </text>
				
					<text transform="matrix(1 0 0 1 565.6837 983.8695)" fill="#012B48" font-family="'HelveticaNeueLTStd-Roman'" font-size="44px">Restricted Use Pesticides. Not all products are registered in all states and may be subject to use restrictions. The distribution, sale or use of an </text>
				
					<text transform="matrix(1 0 0 1 565.6837 1039.8695)" fill="#012B48" font-family="'HelveticaNeueLTStd-Roman'" font-size="44px">unregistered pesticide is a violation of federal and/or state law and is strictly prohibited. Check with your local dealer or representative for the </text>
				
					<text transform="matrix(1 0 0 1 565.6837 1095.8695)" fill="#012B48" font-family="'HelveticaNeueLTStd-Roman'" font-size="44px">product registration status in your state. Tank mixtures: The applicable labeling for each product must be in the possession of the user at the time of </text>
				
					<text transform="matrix(1 0 0 1 565.6837 1151.8695)" fill="#012B48" font-family="'HelveticaNeueLTStd-Roman'" font-size="44px">application. Follow applicable use instructions, including application rates, precautions and restrictions of each product used in the tank mixture. </text>
				
					<text transform="matrix(1 0 0 1 565.6837 1207.8695)" fill="#012B48" font-family="'HelveticaNeueLTStd-Roman'" font-size="44px">Not all tankmix product formulations have been tested for compatibility or performance other than specifically listed by brand name. Always </text>
				
					<text transform="matrix(1 0 0 1 565.6837 1263.8695)" fill="#012B48" font-family="'HelveticaNeueLTStd-Roman'" font-size="44px">predetermine the compatibility of tank mixtures by mixing small proportional quantities in advance. Degree</text>
				
					<text transform="matrix(0.583 0 0 0.583 2538.9199 1249.2172)" opacity="0.92" fill="#012B48" font-family="'HelveticaNeueLTStd-Roman'" font-size="44px">®</text>
				
					<text transform="matrix(1 0 0 1 2549.668 1263.8695)" fill="#012B48" font-family="'HelveticaNeueLTStd-Roman'" font-size="44px"> is a registered trademark of Monsanto </text>
				
					<text transform="matrix(1 0 0 1 565.6837 1319.8695)" fill="#012B48" font-family="'HelveticaNeueLTStd-Roman'" font-size="44px">Technology LLC. Fierce</text>
				
					<text transform="matrix(0.583 0 0 0.583 986.8887 1305.2172)" opacity="0.92" fill="#012B48" font-family="'HelveticaNeueLTStd-Roman'" font-size="44px">®</text>
				
					<text transform="matrix(1 0 0 1 997.6368 1319.8695)" fill="#012B48" font-family="'HelveticaNeueLTStd-Roman'" font-size="44px">, Mauler</text>
				
					<text transform="matrix(0.583 0 0 0.583 1143.7139 1305.2172)" opacity="0.92" fill="#012B48" font-family="'HelveticaNeueLTStd-Roman'" font-size="44px">®</text>
				
					<text transform="matrix(1 0 0 1 1154.4619 1319.8695)" fill="#012B48" font-family="'HelveticaNeueLTStd-Roman'" font-size="44px">, Select Max</text>
				
					<text transform="matrix(0.583 0 0 0.583 1369.6182 1305.2172)" opacity="0.92" fill="#012B48" font-family="'HelveticaNeueLTStd-Roman'" font-size="44px">®</text>
				
					<text transform="matrix(1 0 0 1 1380.3662 1319.8695)" fill="#012B48" font-family="'HelveticaNeueLTStd-Roman'" font-size="44px"> Herbicide with Inside Technology,™ and Valor</text>
				
					<text transform="matrix(0.583 0 0 0.583 2222.7783 1305.2172)" opacity="0.92" fill="#012B48" font-family="'HelveticaNeueLTStd-Roman'" font-size="44px">®</text>
				
					<text transform="matrix(1 0 0 1 2233.5264 1319.8695)" fill="#012B48" font-family="'HelveticaNeueLTStd-Roman'" font-size="44px"> are trademarks of Valent U.S.A. LLC. Select Max</text>
				
					<text transform="matrix(0.583 0 0 0.583 3095.293 1305.2172)" opacity="0.92" fill="#012B48" font-family="'HelveticaNeueLTStd-Roman'" font-size="44px">®</text>
				
					<text transform="matrix(1 0 0 1 3106.041 1319.8695)" fill="#012B48" font-family="'HelveticaNeueLTStd-Roman'" font-size="44px"> </text>
				
					<text transform="matrix(1 0 0 1 565.6837 1375.8695)" fill="#012B48" font-family="'HelveticaNeueLTStd-Roman'" font-size="44px">Herbicide with Inside Technology</text>
				
					<text transform="matrix(0.583 0 0 0.583 1178.6387 1361.2172)" fill="#012B48" font-family="'HelveticaNeueLTStd-Roman'" font-size="44px">™</text>
				
					<text transform="matrix(1 0 0 1 1194.5171 1375.8695)" fill="#012B48" font-family="'HelveticaNeueLTStd-Roman'" font-size="44px"> </text>
				
					<text transform="matrix(1 0 0 1 565.6837 1431.8695)" fill="#012B48" font-family="'HelveticaNeueLTStd-Roman'" font-size="44px">is covered under U.S. Patent No. 7,651,977. Absolute</text>
				
					<text transform="matrix(0.583 0 0 0.583 1517.8218 1417.2172)" opacity="0.92" fill="#012B48" font-family="'HelveticaNeueLTStd-Roman'" font-size="44px">®</text>
				
					<text transform="matrix(1 0 0 1 1528.5698 1431.8695)" fill="#012B48" font-family="'HelveticaNeueLTStd-Roman'" font-size="44px">, Aeris</text>
				
					<text transform="matrix(0.583 0 0 0.583 1638.0835 1417.2172)" opacity="0.92" fill="#012B48" font-family="'HelveticaNeueLTStd-Roman'" font-size="44px">®</text>
				
					<text transform="matrix(1 0 0 1 1648.8315 1431.8695)" fill="#012B48" font-family="'HelveticaNeueLTStd-Roman'" font-size="44px">, Asgrow</text>
				
					<text transform="matrix(0.583 0 0 0.583 1807.1411 1417.2172)" opacity="0.92" fill="#012B48" font-family="'HelveticaNeueLTStd-Roman'" font-size="44px">®</text>
				
					<text transform="matrix(1 0 0 1 1817.8892 1431.8695)" fill="#012B48" font-family="'HelveticaNeueLTStd-Roman'" font-size="44px">, Autumn</text>
				
					<text transform="matrix(0.583 0 0 0.583 1987.4189 1417.2172)" fill="#012B48" font-family="'HelveticaNeueLTStd-Roman'" font-size="44px">™</text>
				
					<text transform="matrix(1 0 0 1 2003.2974 1431.8695)" fill="#012B48" font-family="'HelveticaNeueLTStd-Roman'" font-size="44px">, Axiom</text>
				
					<text transform="matrix(0.583 0 0 0.583 2140.1797 1417.2172)" opacity="0.92" fill="#012B48" font-family="'HelveticaNeueLTStd-Roman'" font-size="44px">®</text>
				
					<text transform="matrix(1 0 0 1 2150.9277 1431.8695)" fill="#012B48" font-family="'HelveticaNeueLTStd-Roman'" font-size="44px">, Balance</text>
				
					<text transform="matrix(0.583 0 0 0.583 2312.1855 1417.2172)" opacity="0.92" fill="#012B48" font-family="'HelveticaNeueLTStd-Roman'" font-size="44px">®</text>
				
					<text transform="matrix(1 0 0 1 2322.9336 1431.8695)" fill="#012B48" font-family="'HelveticaNeueLTStd-Roman'" font-size="44px">, Bayer, Bayer Cross, Baythroid</text>
				
					<text transform="matrix(0.583 0 0 0.583 2869.3154 1417.2172)" opacity="0.92" fill="#012B48" font-family="'HelveticaNeueLTStd-Roman'" font-size="44px">®</text>
				
					<text transform="matrix(1 0 0 1 2880.0635 1431.8695)" fill="#012B48" font-family="'HelveticaNeueLTStd-Roman'" font-size="44px">, Capreno</text>
				
					<text transform="matrix(0.583 0 0 0.583 3055.2686 1417.2172)" opacity="0.92" fill="#012B48" font-family="'HelveticaNeueLTStd-Roman'" font-size="44px">®</text>
				
					<text transform="matrix(1 0 0 1 3066.0166 1431.8695)" fill="#012B48" font-family="'HelveticaNeueLTStd-Roman'" font-size="44px">, Corvus</text>
				
					<text transform="matrix(0.583 0 0 0.583 3211.3457 1417.2172)" opacity="0.92" fill="#012B48" font-family="'HelveticaNeueLTStd-Roman'" font-size="44px">®</text>
				
					<text transform="matrix(1 0 0 1 3222.0938 1431.8695)" fill="#012B48" font-family="'HelveticaNeueLTStd-Roman'" font-size="44px">, </text>
				
					<text transform="matrix(1 0 0 1 565.6837 1487.8695)" fill="#012B48" font-family="'HelveticaNeueLTStd-Roman'" font-size="44px">Degree Xtra</text>
				
					<text transform="matrix(0.583 0 0 0.583 784.712 1473.2172)" opacity="0.92" fill="#012B48" font-family="'HelveticaNeueLTStd-Roman'" font-size="44px">®</text>
				<text transform="matrix(1 0 0 1 795.46 1487.8695)" fill="#012B48" font-family="'HelveticaNeueLTStd-Roman'" font-size="44px">, DEKALB</text>
				
					<text transform="matrix(0.583 0 0 0.583 960.2364 1473.2172)" opacity="0.92" fill="#012B48" font-family="'HelveticaNeueLTStd-Roman'" font-size="44px">®</text>
				
					<text transform="matrix(1 0 0 1 970.9844 1487.8695)" fill="#012B48" font-family="'HelveticaNeueLTStd-Roman'" font-size="44px">, Delaro</text>
				
					<text transform="matrix(0.583 0 0 0.583 1110.9009 1473.2172)" opacity="0.92" fill="#012B48" font-family="'HelveticaNeueLTStd-Roman'" font-size="44px">®</text>
				
					<text transform="matrix(1 0 0 1 1121.6489 1487.8695)" fill="#012B48" font-family="'HelveticaNeueLTStd-Roman'" font-size="44px">, Deltapine</text>
				
					<text transform="matrix(0.583 0 0 0.583 1319.3804 1473.2172)" opacity="0.92" fill="#012B48" font-family="'HelveticaNeueLTStd-Roman'" font-size="44px">®</text>
				
					<text transform="matrix(1 0 0 1 1330.1284 1487.8695)" fill="#012B48" font-family="'HelveticaNeueLTStd-Roman'" font-size="44px">, DiFlexx</text>
				
					<text transform="matrix(0.583 0 0 0.583 1482.7622 1473.2172)" opacity="0.92" fill="#012B48" font-family="'HelveticaNeueLTStd-Roman'" font-size="44px">®</text>
				
					<text transform="matrix(1 0 0 1 1493.5103 1487.8695)" fill="#012B48" font-family="'HelveticaNeueLTStd-Roman'" font-size="44px">, EverGol</text>
				
					<text transform="matrix(0.583 0 0 0.583 1654.1509 1473.2172)" opacity="0.92" fill="#012B48" font-family="'HelveticaNeueLTStd-Roman'" font-size="44px">®</text>
				
					<text transform="matrix(1 0 0 1 1664.8989 1487.8695)" fill="#012B48" font-family="'HelveticaNeueLTStd-Roman'" font-size="44px">, Finish</text>
				
					<text transform="matrix(0.583 0 0 0.583 1791.6172 1473.2172)" opacity="0.92" fill="#012B48" font-family="'HelveticaNeueLTStd-Roman'" font-size="44px">®</text>
				
					<text transform="matrix(1 0 0 1 1802.3652 1487.8695)" fill="#012B48" font-family="'HelveticaNeueLTStd-Roman'" font-size="44px">, Gaucho</text>
				
					<text transform="matrix(0.583 0 0 0.583 1962.9624 1473.2172)" opacity="0.92" fill="#012B48" font-family="'HelveticaNeueLTStd-Roman'" font-size="44px">®</text>
				
					<text transform="matrix(1 0 0 1 1973.7104 1487.8695)" fill="#012B48" font-family="'HelveticaNeueLTStd-Roman'" font-size="44px">, Ginstar</text>
				
					<text transform="matrix(0.583 0 0 0.583 2122.8682 1473.2172)" opacity="0.92" fill="#012B48" font-family="'HelveticaNeueLTStd-Roman'" font-size="44px">®</text>
				
					<text transform="matrix(1 0 0 1 2133.6162 1487.8695)" fill="#012B48" font-family="'HelveticaNeueLTStd-Roman'" font-size="44px">, Harness</text>
				
					<text transform="matrix(0.583 0 0 0.583 2297.6455 1473.2172)" opacity="0.92" fill="#012B48" font-family="'HelveticaNeueLTStd-Roman'" font-size="44px">®</text>
				
					<text transform="matrix(1 0 0 1 2308.3936 1487.8695)" fill="#012B48" font-family="'HelveticaNeueLTStd-Roman'" font-size="44px">, Huskie</text>
				
					<text transform="matrix(0.583 0 0 0.583 2450.1592 1473.2172)" opacity="0.92" fill="#012B48" font-family="'HelveticaNeueLTStd-Roman'" font-size="44px">®</text>
				
					<text transform="matrix(1 0 0 1 2460.9072 1487.8695)" fill="#012B48" font-family="'HelveticaNeueLTStd-Roman'" font-size="44px">, Laudis</text>
				
					<text transform="matrix(0.583 0 0 0.583 2598.0967 1473.2172)" opacity="0.92" fill="#012B48" font-family="'HelveticaNeueLTStd-Roman'" font-size="44px">®</text>
				
					<text transform="matrix(1 0 0 1 2608.8447 1487.8695)" fill="#012B48" font-family="'HelveticaNeueLTStd-Roman'" font-size="44px">, Leverage</text>
				
					<text transform="matrix(0.583 0 0 0.583 2795.5332 1473.2172)" opacity="0.92" fill="#012B48" font-family="'HelveticaNeueLTStd-Roman'" font-size="44px">®</text>
				
					<text transform="matrix(1 0 0 1 2806.2813 1487.8695)" fill="#012B48" font-family="'HelveticaNeueLTStd-Roman'" font-size="44px">, Luxxur</text>
				
					<text transform="matrix(0.583 0 0 0.583 2949.1035 1473.2172)" opacity="0.92" fill="#012B48" font-family="'HelveticaNeueLTStd-Roman'" font-size="44px">®</text>
				
					<text transform="matrix(1 0 0 1 2959.8516 1487.8695)" fill="#012B48" font-family="'HelveticaNeueLTStd-Roman'" font-size="44px">, Nortron</text>
				
					<text transform="matrix(0.583 0 0 0.583 3123.3086 1473.2172)" opacity="0.92" fill="#012B48" font-family="'HelveticaNeueLTStd-Roman'" font-size="44px">®</text>
				
					<text transform="matrix(1 0 0 1 3134.0566 1487.8695)" fill="#012B48" font-family="'HelveticaNeueLTStd-Roman'" font-size="44px">, </text>
				
					<text transform="matrix(1 0 0 1 565.6837 1543.8695)" fill="#012B48" font-family="'HelveticaNeueLTStd-Roman'" font-size="44px">Oberon</text>
				
					<text transform="matrix(0.583 0 0 0.583 706.0411 1529.2172)" opacity="0.92" fill="#012B48" font-family="'HelveticaNeueLTStd-Roman'" font-size="44px">®</text>
				
					<text transform="matrix(1 0 0 1 716.7891 1543.8695)" fill="#012B48" font-family="'HelveticaNeueLTStd-Roman'" font-size="44px">, Olympus</text>
				
					<text transform="matrix(0.583 0 0 0.583 900.046 1529.2172)" opacity="0.92" fill="#012B48" font-family="'HelveticaNeueLTStd-Roman'" font-size="44px">®</text>
				
					<text transform="matrix(1 0 0 1 910.794 1543.8695)" fill="#012B48" font-family="'HelveticaNeueLTStd-Roman'" font-size="44px">, Osprey</text>
				
					<text transform="matrix(0.583 0 0 0.583 1059.1587 1529.2172)" opacity="0.92" fill="#012B48" font-family="'HelveticaNeueLTStd-Roman'" font-size="44px">®</text>
				
					<text transform="matrix(1 0 0 1 1069.9067 1543.8695)" fill="#012B48" font-family="'HelveticaNeueLTStd-Roman'" font-size="44px">, Proline</text>
				
					<text transform="matrix(0.583 0 0 0.583 1217.436 1529.2172)" opacity="0.92" fill="#012B48" font-family="'HelveticaNeueLTStd-Roman'" font-size="44px">®</text>
				
					<text transform="matrix(1 0 0 1 1228.1841 1543.8695)" fill="#012B48" font-family="'HelveticaNeueLTStd-Roman'" font-size="44px">, Propulse</text>
				
					<text transform="matrix(0.583 0 0 0.583 1407.7002 1529.2172)" opacity="0.92" fill="#012B48" font-family="'HelveticaNeueLTStd-Roman'" font-size="44px">®</text>
				
					<text transform="matrix(1 0 0 1 1418.4482 1543.8695)" fill="#012B48" font-family="'HelveticaNeueLTStd-Roman'" font-size="44px">, Prosaro</text>
				
					<text transform="matrix(0.583 0 0 0.583 1576.0093 1529.2172)" opacity="0.92" fill="#012B48" font-family="'HelveticaNeueLTStd-Roman'" font-size="44px">®</text>
				
					<text transform="matrix(1 0 0 1 1586.7573 1543.8695)" fill="#012B48" font-family="'HelveticaNeueLTStd-Roman'" font-size="44px">, Provost</text>
				
					<text transform="matrix(0.583 0 0 0.583 1744.4502 1529.2172)" opacity="0.92" fill="#012B48" font-family="'HelveticaNeueLTStd-Roman'" font-size="44px">®</text>
				
					<text transform="matrix(1 0 0 1 1755.1982 1543.8695)" fill="#012B48" font-family="'HelveticaNeueLTStd-Roman'" font-size="44px">, Raxil</text>
				
					<text transform="matrix(0.583 0 0 0.583 1859.5645 1529.2172)" opacity="0.92" fill="#012B48" font-family="'HelveticaNeueLTStd-Roman'" font-size="44px">®</text>
				
					<text transform="matrix(1 0 0 1 1870.3125 1543.8695)" fill="#012B48" font-family="'HelveticaNeueLTStd-Roman'" font-size="44px">, Rimfire</text>
				
					<text transform="matrix(0.583 0 0 0.583 2018.854 1529.2172)" opacity="0.92" fill="#012B48" font-family="'HelveticaNeueLTStd-Roman'" font-size="44px">®</text>
				
					<text transform="matrix(1 0 0 1 2029.6021 1543.8695)" fill="#012B48" font-family="'HelveticaNeueLTStd-Roman'" font-size="44px">, Roundup</text>
				
					<text transform="matrix(0.583 0 0 0.583 2218.623 1529.2172)" opacity="0.92" fill="#012B48" font-family="'HelveticaNeueLTStd-Roman'" font-size="44px">®</text>
				
					<text transform="matrix(1 0 0 1 2229.3711 1543.8695)" fill="#012B48" font-family="'HelveticaNeueLTStd-Roman'" font-size="44px">, Roundup PowerMAX</text>
				
					<text transform="matrix(0.583 0 0 0.583 2631.5264 1529.2172)" opacity="0.92" fill="#012B48" font-family="'HelveticaNeueLTStd-Roman'" font-size="44px">®</text>
				
					<text transform="matrix(1 0 0 1 2642.2744 1543.8695)" fill="#012B48" font-family="'HelveticaNeueLTStd-Roman'" font-size="44px">, Roundup Ready</text>
				
					<text transform="matrix(0.583 0 0 0.583 2953.0859 1529.2172)" opacity="0.92" fill="#012B48" font-family="'HelveticaNeueLTStd-Roman'" font-size="44px">®</text>
				
					<text transform="matrix(1 0 0 1 2963.834 1543.8695)" fill="#012B48" font-family="'HelveticaNeueLTStd-Roman'" font-size="44px">, Roundup </text>
				
					<text transform="matrix(1 0 0 1 565.6837 1599.8695)" fill="#012B48" font-family="'HelveticaNeueLTStd-Roman'" font-size="44px">Technology</text>
				
					<text transform="matrix(0.583 0 0 0.583 782.1612 1585.2172)" opacity="0.92" fill="#012B48" font-family="'HelveticaNeueLTStd-Roman'" font-size="44px">®</text>
				
					<text transform="matrix(1 0 0 1 792.9092 1599.8695)" fill="#012B48" font-family="'HelveticaNeueLTStd-Roman'" font-size="44px">, Roundup WeatherMAX</text>
				
					<text transform="matrix(0.583 0 0 0.583 1234.5742 1585.2172)" opacity="0.92" fill="#012B48" font-family="'HelveticaNeueLTStd-Roman'" font-size="44px">®</text>
				
					<text transform="matrix(1 0 0 1 1245.3223 1599.8695)" fill="#012B48" font-family="'HelveticaNeueLTStd-Roman'" font-size="44px">, RT 3</text>
				
					<text transform="matrix(0.583 0 0 0.583 1341.1958 1585.2172)" opacity="0.92" fill="#012B48" font-family="'HelveticaNeueLTStd-Roman'" font-size="44px">®</text>
				
					<text transform="matrix(1 0 0 1 1351.9438 1599.8695)" fill="#012B48" font-family="'HelveticaNeueLTStd-Roman'" font-size="44px">, Scoparia,™ Sivanto</text>
				
					<text transform="matrix(0.583 0 0 0.583 1711.2417 1585.2172)" opacity="0.92" fill="#012B48" font-family="'HelveticaNeueLTStd-Roman'" font-size="44px">®</text>
				
					<text transform="matrix(1 0 0 1 1721.9897 1599.8695)" fill="#012B48" font-family="'HelveticaNeueLTStd-Roman'" font-size="44px">, Stance</text>
				
					<text transform="matrix(0.583 0 0 0.583 1864.064 1585.2172)" opacity="0.92" fill="#012B48" font-family="'HelveticaNeueLTStd-Roman'" font-size="44px">®</text>
				
					<text transform="matrix(1 0 0 1 1874.812 1599.8695)" fill="#012B48" font-family="'HelveticaNeueLTStd-Roman'" font-size="44px">, Stratego</text>
				
					<text transform="matrix(0.583 0 0 0.583 2050.457 1585.2172)" opacity="0.92" fill="#012B48" font-family="'HelveticaNeueLTStd-Roman'" font-size="44px">®</text>
				
					<text transform="matrix(1 0 0 1 2061.2051 1599.8695)" fill="#012B48" font-family="'HelveticaNeueLTStd-Roman'" font-size="44px">, Trilex</text>
				
					<text transform="matrix(0.583 0 0 0.583 2178.9912 1585.2172)" opacity="0.92" fill="#012B48" font-family="'HelveticaNeueLTStd-Roman'" font-size="44px">®</text>
				
					<text transform="matrix(1 0 0 1 2189.7393 1599.8695)" fill="#012B48" font-family="'HelveticaNeueLTStd-Roman'" font-size="44px">, TripleFLEX</text>
				
					<text transform="matrix(0.583 0 0 0.583 2401.1553 1585.2172)" opacity="0.92" fill="#012B48" font-family="'HelveticaNeueLTStd-Roman'" font-size="44px">®</text>
				
					<text transform="matrix(1 0 0 1 2411.9033 1599.8695)" fill="#012B48" font-family="'HelveticaNeueLTStd-Roman'" font-size="44px">, VaporGrip</text>
				
					<text transform="matrix(0.583 0 0 0.583 2617.8193 1585.2172)" opacity="0.92" fill="#012B48" font-family="'HelveticaNeueLTStd-Roman'" font-size="44px">®</text>
				
					<text transform="matrix(1 0 0 1 2628.5674 1599.8695)" fill="#012B48" font-family="'HelveticaNeueLTStd-Roman'" font-size="44px">, Varro</text>
				
					<text transform="matrix(0.583 0 0 0.583 2745.6934 1585.2172)" opacity="0.92" fill="#012B48" font-family="'HelveticaNeueLTStd-Roman'" font-size="44px">®</text>
				
					<text transform="matrix(1 0 0 1 2756.4414 1599.8695)" fill="#012B48" font-family="'HelveticaNeueLTStd-Roman'" font-size="44px">, Velum</text>
				
					<text transform="matrix(0.583 0 0 0.583 2892.7959 1585.2172)" opacity="0.92" fill="#012B48" font-family="'HelveticaNeueLTStd-Roman'" font-size="44px">®</text>
				
					<text transform="matrix(1 0 0 1 2903.5439 1599.8695)" fill="#012B48" font-family="'HelveticaNeueLTStd-Roman'" font-size="44px">, Warrant</text>
				
					<text transform="matrix(0.583 0 0 0.583 3069.377 1585.2172)" opacity="0.92" fill="#012B48" font-family="'HelveticaNeueLTStd-Roman'" font-size="44px">®</text>
				
					<text transform="matrix(1 0 0 1 3080.125 1599.8695)" fill="#012B48" font-family="'HelveticaNeueLTStd-Roman'" font-size="44px">, </text>
				
					<text transform="matrix(1 0 0 1 565.6837 1655.8695)" fill="#012B48" font-family="'HelveticaNeueLTStd-Roman'" font-size="44px">WestBred</text>
				
					<text transform="matrix(0.583 0 0 0.583 742.0333 1641.2172)" opacity="0.92" fill="#012B48" font-family="'HelveticaNeueLTStd-Roman'" font-size="44px">®</text>
				
					<text transform="matrix(1 0 0 1 752.7813 1655.8695)" fill="#012B48" font-family="'HelveticaNeueLTStd-Roman'" font-size="44px">, Wolverine</text>
				
					<text transform="matrix(0.583 0 0 0.583 957.3336 1641.2172)" opacity="0.92" fill="#012B48" font-family="'HelveticaNeueLTStd-Roman'" font-size="44px">®</text>
				
					<text transform="matrix(1 0 0 1 968.0816 1655.8695)" fill="#012B48" font-family="'HelveticaNeueLTStd-Roman'" font-size="44px">, and XtendiMax</text>
				
					<text transform="matrix(0.583 0 0 0.583 1264.5059 1641.2172)" opacity="0.92" fill="#012B48" font-family="'HelveticaNeueLTStd-Roman'" font-size="44px">®</text>
				
					<text transform="matrix(1 0 0 1 1275.2539 1655.8695)" fill="#012B48" font-family="'HelveticaNeueLTStd-Roman'" font-size="44px"> are trademarks of </text>
				
					<text transform="matrix(1 0 0 1 565.6837 1711.8695)" fill="#012B48" font-family="'HelveticaNeueLTStd-Roman'" font-size="44px">Bayer Group. For additional product information, call toll-free 1-866-99-BAYER (1-866-992-2937) or visit our website at www.BayerCropScience.us. </text>
				
					<text transform="matrix(1 0 0 1 565.6837 1767.8695)" fill="#012B48" font-family="'HelveticaNeueLTStd-Roman'" font-size="44px">Bayer CropScience LP, 800 North Lindbergh Boulevard, St. Louis, MO 63167.</text>
				
					<text transform="matrix(1 0 0 1 565.6837 1823.8695)" fill="#012B48" font-family="'HelveticaNeueLTStd-Roman'" font-size="44px">©2021 Bayer Group. All rights reserved.</text>
				<rect x="-1.39" y="-45.08" fill="none" width="3842.78" height="2165.72"/>
			</g>
		</g>
	</g>
</g>
<rect x="4" y="1.14" fill="none" width="3842.78" height="2165.72"/>
</svg>
