<?xml version="1.0" encoding="utf-8"?>
<!-- Generator: Adobe Illustrator 24.2.1, SVG Export Plug-In . SVG Version: 6.00 Build 0)  -->
<svg version="1.1" id="greetingsBgSvg" xmlns="http://www.w3.org/2000/svg" xmlns:xlink="http://www.w3.org/1999/xlink" x="0px"
	 y="0px" width="3840px" height="2165.6px" viewBox="0 0 3840 2165.6" enable-background="new 0 0 3840 2165.6"
	 xml:space="preserve">
<g id="_x2D_.bgScene-">
	<rect id="_x2D_.bgColor-" x="-5.1" fill="#F2F2F2" width="3850.19" height="2165.6"/>
	<g id="_x2D_.moveElements-">
		<g>
			<g>
				<polygon opacity="0.26" fill="#FFFFFF" points="-283.29,28.08 1179.74,-17.63 -22.43,2176.52 				"/>
				<rect x="-22.43" y="-6.76" fill="none" width="3876.77" height="2183.28"/>
			</g>
		</g>
		<g>
			<g>
				<polygon fill="#00C0F2" points="-122.37,-521.4 598.78,2.45 -5.39,2126.6 				"/>
				<rect x="-22.43" y="-6.76" fill="none" width="3876.77" height="2183.28"/>
			</g>
		</g>
	</g>
	<g id="_x2D_.moveElements-_1_">
		<g>
			<g>
				<polygon opacity="0.31" fill="#FFFFFF" points="3865.23,-53.47 3336.36,2198.15 3867.38,2316.02 				"/>
				<rect x="-31.67" fill="none" width="3876.77" height="2183.28"/>
			</g>
		</g>
		<g>
			<g>
				<polygon fill="#012B48" points="3853.1,620.55 3022.85,2475.02 4038.51,2126.6 				"/>
				<rect x="-31.67" fill="none" width="3876.77" height="2183.28"/>
			</g>
		</g>
	</g>
	<g id="_x2D_.lineBG-_1_">
		<g>
			<polygon fill="#012B48" points="998.79,-413.11 -205.72,2090.39 -197.52,2094.99 1006.99,-408.52 			"/>
			<rect x="-22.43" y="-6.76" fill="none" width="3876.77" height="2183.28"/>
		</g>
	</g>
	<g id="_x2D_.lineBG-">
		<g>
			<polygon fill="#FCFCFC" points="3739.44,-228.41 3312.65,2571.54 3321.91,2573.17 3748.7,-226.77 			"/>
			<rect x="-31.67" fill="none" width="3876.77" height="2183.28"/>
		</g>
	</g>
</g>
</svg>
