<?xml version="1.0" encoding="utf-8"?>
<!-- Generator: Adobe Illustrator 24.2.1, SVG Export Plug-In . SVG Version: 6.00 Build 0)  -->
<svg version="1.1" id="justSpendSomeBgSvg" xmlns="http://www.w3.org/2000/svg" xmlns:xlink="http://www.w3.org/1999/xlink" x="0px"
	 y="0px" width="14400px" height="14400px" viewBox="0 0 14400 14400" enable-background="new 0 0 14400 14400"
	 xml:space="preserve">
<rect id="_x2D_.bgColor-" x="5279.5" y="6119.5" fill="#F2F2F2" width="3840" height="2172.4"/>
<g id="_x2D_.bgScene-">
	<g id="_x2D_.moveElements-">
		<g>
			<polygon display="none" fill="#FFFFFF" points="9016.39,8307.1 5536.39,8307.1 5536.39,8165.21 5536.39,6148.56 9016.39,6148.56 
							"/>
			<g>
				<polygon fill="#A4CD38" points="10008.52,5527.68 9079.77,8560.87 9987.79,8350.15 				"/>
				<rect x="5288.76" y="6131.08" fill="none" width="3830.74" height="2148.42"/>
			</g>
		</g>
		<g>
			<g>
				<polygon fill="#00C0F2" points="5835.09,6016.61 5295.44,5653.12 5196.39,7475.21 				"/>
				<rect x="5288.76" y="6131.08" fill="none" width="3830.74" height="2148.42"/>
			</g>
		</g>
	</g>
</g>
<g id="_x2D_.lineBG-_1_">
	<g>
		
			<rect x="7757.3" y="7239.93" transform="matrix(0.0783 -0.9969 0.9969 0.0783 1057.7511 15629.2119)" fill="#012B48" width="2448" height="5.28"/>
		<rect x="5288.76" y="6131.08" fill="none" width="3830.74" height="2148.42"/>
	</g>
</g>
<g id="_x2D_.lineBG-">
	<g>
		<polygon fill="#FFFFFF" points="5158.25,8249.59 5153.74,8246.85 5734.22,6064.35 5738.73,6067.09 		"/>
		<rect x="5288.76" y="6131.08" fill="none" width="3830.74" height="2148.42"/>
	</g>
</g>
<rect x="5288.76" y="6131.08" fill="none" width="3830.74" height="2148.42"/>
</svg>
