<?xml version="1.0" encoding="utf-8"?>
<!-- Generator: Adobe Illustrator 24.2.1, SVG Export Plug-In . SVG Version: 6.00 Build 0)  -->
<svg version="1.1" id="thankYouAndSvg" xmlns="http://www.w3.org/2000/svg" xmlns:xlink="http://www.w3.org/1999/xlink" x="0px"
	 y="0px" width="3840px" height="2160px" viewBox="0 0 3840 2160" enable-background="new 0 0 3840 2160" xml:space="preserve">
<g id="_x2D_.contentScene-">
	<g id="_x2D_.moveElements-">
		<g>
			<g>
				<circle fill="#A4CD38" cx="2613.94" cy="1728.48" r="6.5"/>
				<circle fill="#A4CD38" cx="2198.58" cy="1443.65" r="6.5"/>
				<circle fill="#A4CD38" cx="2332.68" cy="1446.59" r="6.5"/>
				<circle fill="#A4CD38" cx="2454.09" cy="1428.13" r="6.5"/>
				<circle fill="#A4CD38" cx="2272.85" cy="1313.2" r="6.5"/>
				<circle fill="#A4CD38" cx="2369.26" cy="1293.29" r="6.5"/>
				<circle fill="#A4CD38" cx="2414.95" cy="1343.68" r="6.5"/>
				<circle fill="#A4CD38" cx="2538.58" cy="1257.85" r="6.5"/>
				<circle fill="#A4CD38" cx="2522.97" cy="1340.96" r="6.5"/>
				<circle fill="#A4CD38" cx="2516.47" cy="1443.65" r="6.5"/>
				<circle fill="#A4CD38" cx="2494.23" cy="1553.56" r="6.5"/>
				<circle fill="#A4CD38" cx="2375.76" cy="1547.06" r="6.5"/>
				<circle fill="#A4CD38" cx="2399.04" cy="1607.26" r="6.5"/>
				<circle fill="#A4CD38" cx="2558.96" cy="1656.18" r="6.5"/>
				<circle fill="#A4CD38" cx="2515.03" cy="1608.33" r="6.5"/>
				<circle fill="#A4CD38" cx="2304.96" cy="1708.76" r="6.5"/>
				<circle fill="#A4CD38" cx="2222.06" cy="1678.08" r="6.5"/>
				<circle fill="#A4CD38" cx="2454.09" cy="1689.05" r="6.5"/>
				<polygon fill="#A4CD38" points="2428.16,1273.86 2414.95,1342.03 2496.68,1309.14 				"/>
				<polygon fill="#A4CD38" points="2524.69,1340.96 2538.04,1404.15 2603.63,1346.85 				"/>
				<polygon fill="#A4CD38" points="2453.92,1489.27 2490.14,1550.29 2501.76,1491.6 				"/>
				<polygon fill="#A4CD38" points="2458.88,1651.21 2516.47,1689.05 2515.03,1609.29 				"/>
				<polygon fill="#A4CD38" points="2517.18,1688.05 2613.94,1726.76 2555.96,1657.51 				"/>
				<polygon fill="#A4CD38" points="2371.4,1728.91 2468.2,1728.48 2382.62,1692.27 				"/>
				<polygon fill="#A4CD38" points="2234.09,1378.57 2283.82,1400.79 2296.53,1363.33 				"/>
				<polygon fill="#A4CD38" points="2209.89,1443.14 2329.39,1442.17 2320.58,1424.93 				"/>
				<polygon fill="#A4CD38" points="2277.33,1266.75 2316.27,1311.92 2369.98,1293.55 				"/>
				<path fill="#A4CD38" d="M2303.66,1533.31c0,0-37.7,27-46.78,36.25c-9.46,9.64-32.92,36.63-32.92,36.63l93.89,38.08
					L2303.66,1533.31z"/>
				<g>
					<g>
						<path fill="none" stroke="#012B48" d="M2195.18,1447.04c-10.67-143.95,83.73-221.54,213.88-221.45
							c122.53,0.08,205.91,61.05,203.76,158.78c-3.08,139.9-148.93,178.96-211.46,220.86c22.67-1.7,218.71,0,218.71,0v126.48
							h-435.04c-2.9-48.58,6.23-86.33,30.88-120.41c42.05-58.73,110.72-99.35,179.08-139.53c26.1-15.95,67.69-33.03,67.08-70
							c-0.58-35.08-20.38-56.96-54.46-57.33c-53.68-0.58-75.43,40.98-73.98,102.6H2195.18z"/>
					</g>
				</g>
				<g>
					<g>
						<path fill="none" stroke="#012B48" stroke-dasharray="12" d="M2191.51,1451.02c-10.76-145.2,78.98-229.82,215.73-229.82
							c123.59,0,210.79,61.73,209.82,163.37c-1.32,138.58-160.59,191.2-203.63,217.4c22.87-1.71,209.86,0,209.86,0V1736h-442.02
							c-2.92-49,4.14-88.16,29-122.53c44.3-66.61,117.69-105.54,182.77-145.03c26.33-16.09,65.51-29.02,65.51-66.31
							c0-46.07-31.57-53.18-52.78-54.6c-43.84-2.93-72.35,38.23-69.24,103.5H2191.51z"/>
					</g>
				</g>
				<polyline fill="none" stroke="#012B48" points="2198.58,1443.65 2320.66,1425.78 2329.39,1442.17 				"/>
				<polyline fill="none" stroke="#012B48" stroke-dasharray="12" points="2198.58,1443.65 2248.26,1404.39 2320.66,1425.78 
					2283.37,1401.1 2335.26,1397.6 				"/>
				<polyline fill="none" stroke="#012B48" stroke-dasharray="12" points="2234,1379.16 2283.82,1401.03 2248.77,1404.87 
					2234,1378.73 2200.04,1414.26 2248.38,1404.44 				"/>
				<polyline fill="none" stroke="#012B48" points="2283.82,1400.79 2296.53,1363.33 2338.46,1387.71 2272.33,1311.29 
					2256.49,1346.8 2211.73,1352.74 				"/>
				<path fill="none" stroke="#012B48" d="M2296.53,1358.87"/>
				<line fill="none" stroke="#012B48" x1="2296.48" y1="1363.56" x2="2270.65" y2="1311.92"/>
				<line fill="none" stroke="#012B48" x1="2270.65" y1="1311.92" x2="2223.97" y2="1323.67"/>
				<polyline fill="none" stroke="#012B48" stroke-dasharray="12" points="2356.27,1357.11 2272.1,1310.6 2316.27,1311.92 
					2356.27,1357.11 2370.57,1294.7 2316.27,1311.92 2277.33,1266.75 2272.1,1310.6 2209.89,1353.41 2232.91,1377.49 
					2256.49,1346.8 2296.53,1363.26 2234.09,1378.57 				"/>
				<polyline fill="none" stroke="#012B48" stroke-dasharray="12" points="2278.92,1265.22 2369.98,1293.55 2351.38,1236.01 
					2404.53,1260.49 2370.62,1292.48 2428.16,1273.86 2405.13,1260.14 2434.74,1230.93 2427.61,1273.19 2497.82,1307.86 
					2434.74,1230.93 				"/>
				<polyline fill="none" stroke="#012B48" points="2381.1,1344.59 2371.17,1294.77 2414.95,1342.03 2426.92,1273.88 				"/>
				<polyline fill="none" stroke="#012B48" points="2414.95,1342.03 2496.68,1309.14 2454.49,1358.87 2515.97,1343.19 
					2524.69,1340.96 2497.82,1308.07 2537.86,1261.24 2524.15,1339.89 2573.51,1290.31 				"/>
				<polyline fill="none" stroke="#012B48" points="2464.93,1380.88 2524.56,1341.04 2538.41,1403.3 2603.63,1346.85 
					2525.31,1340.96 				"/>
				<polyline fill="none" stroke="#012B48" points="2463.89,1380.56 2538.58,1403.3 2465,1403.3 				"/>
				<polyline fill="none" stroke="#012B48" stroke-dasharray="12" points="2605.78,1400.79 2538.41,1403.3 2593.21,1454.85 
					2464.98,1412.12 2518.11,1446.08 2591.5,1455.46 				"/>
				<polyline fill="none" stroke="#012B48" stroke-dasharray="12" points="2519.16,1446.17 2457.78,1429.71 2501.76,1491.6 
					2519.16,1447.24 2555.96,1503.12 2501.5,1492.17 2490.14,1550.29 2452.84,1488.31 2503.19,1492.15 				"/>
				<polyline fill="none" stroke="#012B48" points="2457.21,1430.9 2453.92,1489.27 2398.61,1475.17 2488.45,1551.36 
					2416.1,1528.35 2397.97,1475.19 2374.96,1544.25 2417.13,1528.46 2392.24,1608.33 2374.96,1544.92 2308.02,1567.41 
					2303.66,1534.38 2374.87,1544.23 				"/>
				<polyline fill="none" stroke="#012B48" stroke-dasharray="12" points="2391.85,1606.73 2308.09,1567.41 2318.47,1644.08 
					2391.9,1609.02 2389.75,1630.91 2410.04,1628.15 2392.83,1609.04 2418.34,1625.43 2514.27,1608.33 2458.88,1651.21 
					2516.47,1689.05 2514.25,1610.18 				"/>
				<polyline fill="none" stroke="#012B48" stroke-dasharray="12" points="2389.13,1631.46 2318.47,1644.08 2382.62,1692.27 
					2443.52,1664.37 2410.13,1628.24 2419.84,1626.08 2459.29,1651.73 				"/>
				<line fill="none" stroke="#012B48" x1="2389.13" y1="1631.46" x2="2382.62" y2="1692.27"/>
				<polyline fill="none" stroke="#012B48" points="2458.53,1651.66 2443.86,1664.02 2516.38,1689.05 2452.84,1689.05 
					2443.79,1665.65 				"/>
				<polyline fill="none" stroke="#012B48" points="2452.84,1689.05 2382.65,1692.27 2468.2,1728.48 2453.61,1691.04 				"/>
				<polyline fill="none" stroke="#012B48" stroke-dasharray="12" points="2470.94,1726.76 2515.62,1689.05 2613.94,1726.76 
					2555.96,1657.51 2612.86,1611.44 				"/>
				<polyline fill="none" stroke="#012B48" points="2515.03,1609.29 2555.78,1657.6 2517.18,1688.05 				"/>
				<polyline fill="none" stroke="#012B48" points="2382.62,1692.27 2371.4,1728.91 2304.5,1707.69 2382.62,1692.27 				"/>
				<polyline fill="none" stroke="#012B48" points="2318.47,1644.37 2305.58,1707.79 2265.38,1681.78 2317.85,1644.26 
					2244.7,1641.47 2223.72,1609.29 				"/>
				<polyline fill="none" stroke="#012B48" points="2243.56,1641.88 2206.85,1638.18 2224.13,1661.87 2245.77,1641.38 
					2265.38,1681.88 2224.86,1661.7 2221.25,1679.73 2264.12,1681.78 				"/>
				<polyline fill="none" stroke="#012B48" points="2193.6,1678.08 2220.77,1680.23 2204.23,1696.75 2189.99,1710.59 
					2200.73,1710.59 2204.71,1697 2264.38,1682.77 				"/>
				<polyline fill="none" stroke="#012B48" points="2204.71,1697 2304.96,1707.79 2200.73,1710.59 2189.87,1727.84 2304.96,1707.79 
									"/>
				<line fill="none" stroke="#012B48" x1="2226.11" y1="1607.26" x2="2316.28" y2="1644.08"/>
				<line fill="none" stroke="#012B48" x1="2320.58" y1="1424.93" x2="2332.68" y2="1398.31"/>
				<circle id="_x2D_.elCircle-_53_" fill="none" stroke="#012B48" cx="2198.58" cy="1440.87" r="23.5"/>
				<circle id="_x2D_.elCircle-_52_" fill="none" stroke="#012B48" cx="2369.26" cy="1293.29" r="23.5"/>
				<circle id="_x2D_.elCircle-_51_" fill="none" stroke="#012B48" cx="2538.58" cy="1257.62" r="23.5"/>
				<circle id="_x2D_.elCircle-_50_" fill="none" stroke="#012B48" cx="2516.38" cy="1443.65" r="23.5"/>
				<circle id="_x2D_.elCircle-_49_" fill="none" stroke="#012B48" cx="2375.76" cy="1540.68" r="23.5"/>
				<circle id="_x2D_.elCircle-_48_" fill="none" stroke="#012B48" cx="2223.97" cy="1675.38" r="23.5"/>
				<circle id="_x2D_.elCircle-_47_" fill="none" stroke="#012B48" cx="2453.92" cy="1684.58" r="23.5"/>
				<circle id="_x2D_.elCircle-_46_" fill="none" stroke="#012B48" cx="2516.16" cy="1611.29" r="23.5"/>
				<g>
					<defs>
						<path id="SVGID_1_" d="M2347.52,1231.04l-2.71-11.69l0.97-0.23l2.71,11.69L2347.52,1231.04z M2342.1,1207.66l-2.71-11.69
							l0.97-0.23l2.71,11.69L2342.1,1207.66z M2336.69,1184.28l-2.71-11.69l0.97-0.23l2.71,11.69L2336.69,1184.28z M2331.27,1160.9
							l-2.71-11.69l0.97-0.23l2.71,11.69L2331.27,1160.9z M2325.85,1137.52l-2.71-11.69l0.97-0.23l2.71,11.69L2325.85,1137.52z
							 M2320.43,1114.14l-2.71-11.69l0.97-0.23l2.71,11.69L2320.43,1114.14z M2315.01,1090.76l-2.71-11.69l0.97-0.23l2.71,11.69
							L2315.01,1090.76z M2309.59,1067.38l-2.71-11.69l0.97-0.23l2.71,11.69L2309.59,1067.38z M2304.17,1044l-2.71-11.69l0.97-0.23
							l2.71,11.69L2304.17,1044z M2298.75,1020.62l-2.71-11.69l0.97-0.23l2.71,11.69L2298.75,1020.62z M2293.33,997.24l-2.71-11.69
							l0.97-0.23l2.71,11.69L2293.33,997.24z M2287.91,973.86l-2.71-11.69l0.97-0.23l2.71,11.69L2287.91,973.86z M2282.49,950.48
							l-2.71-11.69l0.97-0.23l2.71,11.69L2282.49,950.48z M2277.07,927.1l-2.71-11.69l0.97-0.23l2.71,11.69L2277.07,927.1z
							 M2271.66,903.72l-2.5-10.79l0.97-0.23l2.5,10.79L2271.66,903.72z"/>
					</defs>
					<clipPath id="SVGID_2_">
						<use xlink:href="#SVGID_1_"  overflow="visible"/>
					</clipPath>
					<g clip-path="url(#SVGID_2_)">
						
							<line id="_x2D_.elLine-_72_" fill="none" stroke="#012B48" stroke-width="3" stroke-dasharray="12" x1="2348.01" y1="1230.93" x2="2269.64" y2="892.81"/>
					</g>
				</g>
				<g>
					<defs>
						<path id="SVGID_3_" d="M2279.04,1254.48l-1-0.09l1.12-11.95l1,0.09L2279.04,1254.48z M2281.29,1230.58l-1-0.09l1.12-11.95
							l1,0.09L2281.29,1230.58z M2283.53,1206.69l-1-0.09l1.12-11.95l1,0.09L2283.53,1206.69z M2285.77,1182.79l-1-0.09l1.12-11.95
							l1,0.09L2285.77,1182.79z M2288.02,1158.9l-1-0.09l1.12-11.95l1,0.09L2288.02,1158.9z M2290.26,1135l-1-0.09l1.12-11.95
							l1,0.09L2290.26,1135z M2292.51,1111.11l-1-0.09l1.12-11.95l1,0.09L2292.51,1111.11z M2294.75,1087.21l-1-0.09l1.12-11.95
							l1,0.09L2294.75,1087.21z M2297,1063.32l-1-0.09l1.12-11.95l1,0.09L2297,1063.32z M2299.24,1039.42l-1-0.09l1.12-11.95l1,0.09
							L2299.24,1039.42z M2301.48,1015.53l-1-0.09l1.12-11.95l1,0.09L2301.48,1015.53z M2303.73,991.63l-1-0.09l0.43-4.56l1,0.09
							L2303.73,991.63z"/>
					</defs>
					<clipPath id="SVGID_4_">
						<use xlink:href="#SVGID_3_"  overflow="visible"/>
					</clipPath>
					<g clip-path="url(#SVGID_4_)">
						
							<line id="_x2D_.elLine-_71_" fill="none" stroke="#012B48" stroke-width="3" stroke-dasharray="12" x1="2278.54" y1="1254.43" x2="2303.66" y2="987.03"/>
					</g>
				</g>
				<g>
					<defs>
						<path id="SVGID_5_" d="M2437.21,1228.88l-0.65-0.76l9.16-7.75l0.65,0.76L2437.21,1228.88z M2455.54,1213.38l-0.65-0.76
							l9.16-7.75l0.65,0.76L2455.54,1213.38z M2473.86,1197.88l-0.65-0.76l9.16-7.75l0.65,0.76L2473.86,1197.88z M2492.18,1182.38
							l-0.65-0.76l9.16-7.75l0.65,0.76L2492.18,1182.38z M2510.5,1166.87l-0.65-0.76l9.16-7.75l0.65,0.76L2510.5,1166.87z
							 M2528.82,1151.37l-0.65-0.76l9.16-7.75l0.65,0.76L2528.82,1151.37z M2547.15,1135.87l-0.65-0.76l9.16-7.75l0.65,0.76
							L2547.15,1135.87z M2565.47,1120.37l-0.65-0.76l9.16-7.75l0.65,0.76L2565.47,1120.37z M2583.79,1104.87l-0.65-0.76l9.16-7.75
							l0.65,0.76L2583.79,1104.87z M2602.11,1089.37l-0.65-0.76l9.16-7.75l0.65,0.76L2602.11,1089.37z M2620.44,1073.87l-0.65-0.76
							l9.16-7.75l0.65,0.76L2620.44,1073.87z M2638.76,1058.36l-0.65-0.76l9.16-7.75l0.65,0.76L2638.76,1058.36z M2657.08,1042.86
							l-0.65-0.76l9.16-7.75l0.65,0.76L2657.08,1042.86z M2675.4,1027.36l-0.65-0.76l9.16-7.75l0.65,0.76L2675.4,1027.36z
							 M2693.73,1011.86l-0.65-0.76l9.16-7.75l0.65,0.76L2693.73,1011.86z M2712.05,996.36l-0.65-0.76l9.16-7.75l0.65,0.76
							L2712.05,996.36z M2730.37,980.86l-0.65-0.76l9.16-7.75l0.65,0.76L2730.37,980.86z M2748.69,965.36l-0.65-0.76l9.16-7.75
							l0.65,0.76L2748.69,965.36z M2767.02,949.86l-0.65-0.76l9.16-7.75l0.65,0.76L2767.02,949.86z M2785.34,934.35l-0.65-0.76
							l9.16-7.75l0.65,0.76L2785.34,934.35z M2803.66,918.85l-0.65-0.76l9.16-7.75l0.65,0.76L2803.66,918.85z M2821.98,903.35
							l-0.65-0.76l9.16-7.75l0.65,0.76L2821.98,903.35z M2840.3,887.85l-0.65-0.76l3.64-3.08l0.65,0.76L2840.3,887.85z"/>
					</defs>
					<clipPath id="SVGID_6_">
						<use xlink:href="#SVGID_5_"  overflow="visible"/>
					</clipPath>
					<g clip-path="url(#SVGID_6_)">
						
							<line id="_x2D_.elLine-_70_" fill="none" stroke="#012B48" stroke-width="3" stroke-dasharray="12" x1="2436.89" y1="1228.5" x2="2843.62" y2="884.39"/>
					</g>
				</g>
				<g>
					<defs>
						<path id="SVGID_7_" d="M2429.58,1221.46l-6.21-10.27l0.86-0.52l6.21,10.27L2429.58,1221.46z M2417.16,1200.92l-6.21-10.27
							l0.86-0.52l6.21,10.27L2417.16,1200.92z M2404.74,1180.38l-6.21-10.27l0.86-0.52l6.21,10.27L2404.74,1180.38z
							 M2392.33,1159.85l-6.21-10.27l0.86-0.52l6.21,10.27L2392.33,1159.85z M2379.91,1139.31l-6.21-10.27l0.86-0.52l6.21,10.27
							L2379.91,1139.31z"/>
					</defs>
					<clipPath id="SVGID_8_">
						<use xlink:href="#SVGID_7_"  overflow="visible"/>
					</clipPath>
					<g clip-path="url(#SVGID_8_)">
						
							<line id="_x2D_.elLine-_69_" fill="none" stroke="#012B48" stroke-width="3" stroke-dasharray="12" x1="2430.01" y1="1221.2" x2="2369.26" y2="1120.73"/>
					</g>
				</g>
				<g>
					<defs>
						<path id="SVGID_9_" d="M2689.35,1563.66l-0.79-0.89l0.75-0.66l0.79,0.89L2689.35,1563.66z M2680.58,1553.8l-7.98-8.97
							l0.75-0.67l7.98,8.97L2680.58,1553.8z M2664.62,1535.87l-7.98-8.96l0.75-0.67l7.98,8.96L2664.62,1535.87z M2648.67,1517.94
							l-7.98-8.96l0.75-0.67l7.98,8.96L2648.67,1517.94z M2632.72,1500.01l-7.98-8.97l0.75-0.67l7.98,8.97L2632.72,1500.01z
							 M2616.76,1482.08l-7.98-8.97l0.75-0.67l7.98,8.97L2616.76,1482.08z M2600.81,1464.15l-7.98-8.97l0.75-0.67l7.98,8.97
							L2600.81,1464.15z"/>
					</defs>
					<clipPath id="SVGID_10_">
						<use xlink:href="#SVGID_9_"  overflow="visible"/>
					</clipPath>
					<g clip-path="url(#SVGID_10_)">
						
							<line id="_x2D_.elLine-_68_" fill="none" stroke="#012B48" stroke-width="3" stroke-dasharray="12" x1="2593.21" y1="1454.85" x2="2689.72" y2="1563.32"/>
					</g>
				</g>
				<g>
					<defs>
						<path id="SVGID_11_" d="M2696.51,1519.35l-11.92-1.4l0.12-0.99l11.92,1.4L2696.51,1519.35z M2672.67,1516.56l-11.92-1.4
							l0.12-0.99l11.92,1.4L2672.67,1516.56z M2648.84,1513.77l-11.92-1.39l0.12-0.99l11.92,1.39L2648.84,1513.77z M2625,1510.98
							l-11.92-1.39l0.12-0.99l11.92,1.39L2625,1510.98z M2601.16,1508.19l-11.92-1.4l0.12-0.99l11.92,1.4L2601.16,1508.19z
							 M2577.32,1505.4l-11.92-1.4l0.12-0.99l11.92,1.4L2577.32,1505.4z"/>
					</defs>
					<clipPath id="SVGID_12_">
						<use xlink:href="#SVGID_11_"  overflow="visible"/>
					</clipPath>
					<g clip-path="url(#SVGID_12_)">
						
							<line id="_x2D_.elLine-_67_" fill="none" stroke="#012B48" stroke-width="3" stroke-dasharray="12" x1="2565.46" y1="1503.51" x2="2704.47" y2="1519.78"/>
					</g>
				</g>
				<g>
					<defs>
						<path id="SVGID_13_" d="M2515.11,1608.82l-0.16-0.99l11.84-1.95l0.16,0.99L2515.11,1608.82z M2538.79,1604.91l-0.16-0.99
							l11.84-1.95l0.16,0.99L2538.79,1604.91z M2562.47,1601.01l-0.16-0.99l11.84-1.95l0.16,0.99L2562.47,1601.01z M2586.15,1597.1
							l-0.16-0.99l11.84-1.95l0.16,0.99L2586.15,1597.1z M2609.83,1593.19l-0.16-0.99l11.84-1.95l0.16,0.99L2609.83,1593.19z
							 M2633.51,1589.28l-0.16-0.99l11.84-1.95l0.16,0.99L2633.51,1589.28z M2657.19,1585.38l-0.16-0.99l11.84-1.95l0.16,0.99
							L2657.19,1585.38z M2680.87,1581.47l-0.16-0.99l0.18-0.03l0.16,0.99L2680.87,1581.47z"/>
					</defs>
					<clipPath id="SVGID_14_">
						<use xlink:href="#SVGID_13_"  overflow="visible"/>
					</clipPath>
					<g clip-path="url(#SVGID_14_)">
						
							<line id="_x2D_.elLine-_66_" fill="none" stroke="#012B48" stroke-width="3" stroke-dasharray="12" x1="2515.03" y1="1608.33" x2="2680.97" y2="1580.94"/>
					</g>
				</g>
				<g>
					<defs>
						<path id="SVGID_15_" d="M2224.29,1934.9l-0.64-0.77l8.21-6.91l0.64,0.77L2224.29,1934.9z M2241.69,1920.26l-0.64-0.77
							l9.18-7.72l0.64,0.77L2241.69,1920.26z M2260.05,1904.81l-0.64-0.77l9.18-7.72l0.64,0.77L2260.05,1904.81z M2278.42,1889.36
							l-0.64-0.77l9.18-7.72l0.64,0.77L2278.42,1889.36z M2296.79,1873.92l-0.64-0.77l9.18-7.72l0.64,0.77L2296.79,1873.92z
							 M2315.15,1858.47l-0.64-0.77l9.18-7.72l0.64,0.77L2315.15,1858.47z M2333.52,1843.02l-0.64-0.77l9.18-7.72l0.64,0.77
							L2333.52,1843.02z M2351.89,1827.57l-0.64-0.77l9.18-7.72l0.64,0.77L2351.89,1827.57z M2370.25,1812.12l-0.64-0.77l9.18-7.72
							l0.64,0.77L2370.25,1812.12z M2388.62,1796.67l-0.64-0.77l9.18-7.72l0.64,0.77L2388.62,1796.67z M2406.98,1781.22l-0.64-0.77
							l9.18-7.72l0.64,0.77L2406.98,1781.22z M2425.35,1765.77l-0.64-0.77l9.18-7.72l0.64,0.77L2425.35,1765.77z M2443.72,1750.32
							l-0.64-0.77l9.18-7.72l0.64,0.77L2443.72,1750.32z M2462.08,1734.87l-0.64-0.77l9.18-7.72l0.64,0.77L2462.08,1734.87z"/>
					</defs>
					<clipPath id="SVGID_16_">
						<use xlink:href="#SVGID_15_"  overflow="visible"/>
					</clipPath>
					<g clip-path="url(#SVGID_16_)">
						
							<line id="_x2D_.elLine-_65_" fill="none" stroke="#012B48" stroke-width="3" stroke-dasharray="12" x1="2470.94" y1="1726.76" x2="2223.97" y2="1934.51"/>
					</g>
				</g>
				<g>
					<defs>
						<path id="SVGID_17_" d="M2694.92,1838.5l-10.81-5.22l0.44-0.9l10.81,5.22L2694.92,1838.5z M2673.31,1828.06l-10.81-5.22
							l0.44-0.9l10.81,5.22L2673.31,1828.06z M2651.69,1817.63l-10.81-5.22l0.44-0.9l10.81,5.22L2651.69,1817.63z M2630.08,1807.19
							l-10.81-5.22l0.44-0.9l10.81,5.22L2630.08,1807.19z M2608.47,1796.76l-10.81-5.22l0.44-0.9l10.81,5.22L2608.47,1796.76z
							 M2586.85,1786.32l-10.81-5.22l0.44-0.9l10.81,5.22L2586.85,1786.32z M2565.24,1775.89l-10.81-5.22l0.44-0.9l10.81,5.22
							L2565.24,1775.89z M2543.63,1765.45l-10.81-5.22l0.44-0.9l10.81,5.22L2543.63,1765.45z M2522.02,1755.02l-10.81-5.22l0.44-0.9
							l10.81,5.22L2522.02,1755.02z M2500.4,1744.58l-10.81-5.22l0.44-0.9l10.81,5.22L2500.4,1744.58z M2478.79,1734.15l-10.81-5.22
							l0.44-0.9l10.81,5.22L2478.79,1734.15z"/>
					</defs>
					<clipPath id="SVGID_18_">
						<use xlink:href="#SVGID_17_"  overflow="visible"/>
					</clipPath>
					<g clip-path="url(#SVGID_18_)">
						
							<line id="_x2D_.elLine-_64_" fill="none" stroke="#012B48" stroke-width="3" stroke-dasharray="12" x1="2468.2" y1="1728.48" x2="2696.63" y2="1838.77"/>
					</g>
				</g>
				<rect x="-0.02" y="0.3" fill="none" width="3840" height="2160"/>
			</g>
		</g>
		<g>
			<g>
				<circle fill="#A4CD38" cx="2704.33" cy="1642.03" r="6.5"/>
				<circle fill="#A4CD38" cx="2763.83" cy="1709.42" r="6.5"/>
				<circle fill="#A4CD38" cx="2852.54" cy="1608.89" r="6.5"/>
				<circle fill="#A4CD38" cx="2650.04" cy="1732.37" r="6.5"/>
				<circle fill="#A4CD38" cx="2856.22" cy="1474.3" r="6.5"/>
				<circle fill="#A4CD38" cx="2998.74" cy="1404.93" r="6.5"/>
				<circle fill="#A4CD38" cx="2957.99" cy="1304.6" r="6.5"/>
				<circle fill="#A4CD38" cx="2875.12" cy="1345.31" r="6.5"/>
				<circle fill="#A4CD38" cx="2735.26" cy="1265.98" r="6.5"/>
				<circle fill="#A4CD38" cx="2756.7" cy="1365.19" r="6.5"/>
				<circle fill="#A4CD38" cx="2743.99" cy="1402.43" r="6.5"/>
				<circle fill="#A4CD38" cx="2656.54" cy="1413.25" r="6.5"/>
				<circle fill="#A4CD38" cx="2964.57" cy="1491.63" r="6.5"/>
				<circle fill="#A4CD38" cx="2976.14" cy="1690.91" r="6.5"/>
				<circle fill="#A4CD38" cx="2903.96" cy="1668.8" r="6.5"/>
				<path fill="#A4CD38" d="M2763.83,1534.94c0,0-37.7,27-46.78,36.25c-9.46,9.64-32.92,36.63-32.92,36.63l93.89,38.08
					L2763.83,1534.94z"/>
				<polygon fill="#A4CD38" points="2929.19,1415.28 2978.28,1447.71 3051.67,1457.09 				"/>
				<polygon fill="#A4CD38" points="2877.29,1530.09 2852.54,1608.89 2948.62,1552.99 				"/>
				<polygon fill="#A4CD38" points="2776.44,1313.55 2816.43,1358.75 2830.74,1296.33 				"/>
				<polygon fill="#A4CD38" points="2887.78,1274.83 2957.99,1309.49 2894.91,1232.56 				"/>
				<polygon fill="#A4CD38" points="2716.66,1348.44 2694.26,1380.2 2756.7,1364.96 				"/>
				<polygon fill="#A4CD38" points="2708.93,1406.5 2658.75,1445.29 2780.75,1426.56 				"/>
				<polygon fill="#A4CD38" points="2974.44,1609.96 2919.04,1652.84 2976.14,1690.91 				"/>
				<polygon fill="#A4CD38" points="2849.91,1632.55 2842.78,1693.91 2903.69,1666 				"/>
				<polygon fill="#A4CD38" points="3015.94,1659.24 3075.02,1730.55 3074.91,1612.93 				"/>
				<g>
					<g>
						<path fill="none" stroke="#012B48" stroke-dasharray="12" d="M2655.35,1448.67c-10.67-143.95,83.74-221.54,213.88-221.45
							c122.53,0.08,205.91,61.05,203.76,158.78c-3.08,139.9-148.93,178.96-211.46,220.86c22.67-1.7,218.71,0,218.71,0v126.48H2645.2
							c-2.9-48.58,6.23-86.33,30.88-120.41c42.05-58.73,110.72-99.35,179.08-139.53c26.1-15.95,67.69-33.03,67.08-70
							c-0.58-35.08-20.38-56.96-54.46-57.33c-53.68-0.58-75.43,40.98-73.98,102.6H2655.35z"/>
					</g>
				</g>
				<g>
					<g>
						<path fill="none" stroke="#012B48" d="M2651.68,1452.65c-10.76-145.2,78.98-229.82,215.73-229.82
							c123.59,0,210.79,61.73,209.82,163.37c-1.32,138.58-160.59,191.2-203.63,217.4c22.87-1.71,209.86,0,209.86,0v134.02h-442.02
							c-2.92-49,4.14-88.16,29-122.53c44.3-66.61,117.69-105.54,182.77-145.03c26.33-16.09,65.51-29.02,65.51-66.31
							c0-46.07-31.57-53.18-52.78-54.6c-43.84-2.93-72.35,38.23-69.24,103.5H2651.68z"/>
					</g>
				</g>
				<polyline fill="none" stroke="#012B48" points="2658.75,1445.29 2780.83,1427.42 2789.56,1443.8 				"/>
				<polyline fill="none" stroke="#012B48" points="2658.75,1445.29 2708.43,1406.02 2780.83,1427.42 2743.53,1402.73 
					2795.42,1399.24 				"/>
				<polyline fill="none" stroke="#012B48" points="2694.17,1380.8 2743.99,1402.67 2708.93,1406.5 2694.17,1380.36 2660.21,1415.9 
					2708.54,1406.07 				"/>
				<polyline fill="none" stroke="#012B48" points="2743.99,1402.43 2756.7,1364.96 2798.63,1389.34 2732.49,1312.92 
					2716.66,1348.44 2671.9,1354.38 				"/>
				<path fill="none" stroke="#012B48" d="M2756.7,1360.5"/>
				<line fill="none" stroke="#012B48" x1="2756.65" y1="1365.19" x2="2730.82" y2="1313.55"/>
				<line fill="none" stroke="#012B48" x1="2730.82" y1="1313.55" x2="2684.13" y2="1325.3"/>
				<polyline fill="none" stroke="#012B48" stroke-dasharray="12" points="2816.43,1358.75 2732.27,1312.24 2776.44,1313.55 
					2816.43,1358.75 2830.74,1296.33 2776.44,1313.55 2737.5,1268.38 2732.27,1312.24 2670.06,1355.04 2693.07,1379.13 
					2716.66,1348.44 2756.7,1364.89 2694.26,1380.2 				"/>
				<polyline fill="none" stroke="#012B48" stroke-dasharray="12" points="2739.08,1266.85 2830.15,1295.19 2811.54,1237.64 
					2864.7,1262.12 2830.79,1294.11 2888.33,1275.49 2865.29,1261.78 2894.91,1232.56 2887.78,1274.83 2957.99,1309.49 
					2894.91,1232.56 				"/>
				<polyline fill="none" stroke="#012B48" points="2841.26,1346.22 2831.33,1296.4 2875.12,1343.67 2887.09,1275.51 				"/>
				<polyline fill="none" stroke="#012B48" points="2875.12,1343.67 2956.84,1310.77 2914.66,1360.5 2976.13,1344.82 
					2984.86,1342.59 2957.99,1309.7 2998.02,1262.87 2984.31,1341.52 3033.67,1291.94 				"/>
				<polyline fill="none" stroke="#012B48" stroke-dasharray="12" points="2925.1,1382.51 2984.72,1342.67 2998.57,1404.93 
					3063.8,1348.48 2985.48,1342.59 				"/>
				<polyline fill="none" stroke="#012B48" points="2924.06,1382.19 2998.74,1404.93 2925.17,1404.93 				"/>
				<polyline fill="none" stroke="#012B48" points="3065.94,1402.43 2998.57,1404.93 3053.38,1456.48 2925.15,1413.75 
					2978.28,1447.71 3051.67,1457.09 				"/>
				<polyline fill="none" stroke="#012B48" stroke-dasharray="12" points="2979.33,1447.8 2917.95,1431.35 2961.92,1493.23 
					2979.33,1448.87 3016.12,1504.75 2961.67,1493.8 2950.31,1551.92 2913.01,1489.94 2963.36,1493.78 				"/>
				<polyline fill="none" stroke="#012B48" points="2917.38,1432.53 2914.09,1490.9 2858.78,1476.8 2948.62,1552.99 
					2876.26,1529.98 2858.14,1476.82 2835.13,1545.89 2877.29,1530.09 2852.4,1609.96 2835.13,1546.55 2768.19,1569.04 
					2763.83,1536.01 2835.04,1545.86 				"/>
				<polyline fill="none" stroke="#012B48" stroke-dasharray="12" points="2852.02,1608.37 2768.26,1569.04 2778.63,1645.71 
					2852.06,1610.65 2849.91,1632.55 2870.21,1629.78 2853,1610.67 2878.5,1627.06 2974.44,1609.96 2919.04,1652.84 
					2976.63,1690.68 2974.42,1611.82 				"/>
				<polyline fill="none" stroke="#012B48" points="2849.3,1633.09 2778.63,1645.71 2842.78,1693.91 2903.69,1666 2870.3,1629.87 
					2880.01,1627.71 2919.46,1653.36 				"/>
				<line fill="none" stroke="#012B48" x1="2849.3" y1="1633.09" x2="2842.78" y2="1693.91"/>
				<polyline fill="none" stroke="#012B48" stroke-dasharray="12" points="2918.7,1653.3 2904.03,1665.65 2976.54,1690.68 
					2913.01,1690.68 2903.96,1667.28 				"/>
				<polyline fill="none" stroke="#012B48" points="2913.01,1690.68 2842.82,1693.91 2928.37,1730.11 2913.78,1692.67 				"/>
				<polyline fill="none" stroke="#012B48" points="2975.19,1610.93 3015.94,1659.24 2977.34,1689.68 				"/>
				<polyline fill="none" stroke="#012B48" stroke-dasharray="12" points="2842.78,1693.91 2831.56,1730.55 2764.67,1709.32 
					2842.78,1693.91 				"/>
				<polyline fill="none" stroke="#012B48" stroke-dasharray="12" points="2778.63,1646.01 2765.75,1709.42 2725.55,1683.42 
					2778.02,1645.89 2704.86,1643.1 2683.89,1610.93 				"/>
				<polyline fill="none" stroke="#012B48" points="2703.72,1643.51 2667.02,1639.81 2684.3,1663.5 2705.94,1643.01 
					2725.55,1683.51 2685.03,1663.33 2681.42,1681.36 2724.29,1683.42 				"/>
				<polyline fill="none" stroke="#012B48" points="2653.77,1679.71 2680.94,1681.86 2664.39,1698.38 2650.15,1712.23 
					2660.9,1712.23 2664.87,1698.64 2724.54,1684.4 				"/>
				<polyline fill="none" stroke="#012B48" stroke-dasharray="12" points="2664.87,1698.64 2765.13,1709.42 2660.9,1712.23 
					2650.04,1729.47 2765.13,1709.42 				"/>
				<line fill="none" stroke="#012B48" x1="2686.27" y1="1608.89" x2="2776.44" y2="1645.71"/>
				<line fill="none" stroke="#012B48" x1="2780.75" y1="1426.56" x2="2792.85" y2="1399.94"/>
				<polyline fill="none" stroke="#012B48" points="3077.91,1610.93 3015.58,1659.15 3075.02,1730.55 2977.14,1692.16 				"/>
				<line fill="none" stroke="#012B48" x1="2976.63" y1="1690.68" x2="2928.37" y2="1730.11"/>
				<circle id="_x2D_.elCircle-_45_" fill="none" stroke="#012B48" cx="2743.99" cy="1402.43" r="23.5"/>
				<circle id="_x2D_.elCircle-_44_" fill="none" stroke="#012B48" cx="2739.08" cy="1271.03" r="23.5"/>
				<circle id="_x2D_.elCircle-_43_" fill="none" stroke="#012B48" cx="3005.24" cy="1405.78" r="23.5"/>
				<circle id="_x2D_.elCircle-_42_" fill="none" stroke="#012B48" cx="2859.21" cy="1477.1" r="23.5"/>
				<circle id="_x2D_.elCircle-_41_" fill="none" stroke="#012B48" cx="2702.1" cy="1639.81" r="23.5"/>
				<circle id="_x2D_.elCircle-_40_" fill="none" stroke="#012B48" cx="2763.83" cy="1711.59" r="23.5"/>
				<circle id="_x2D_.elCircle-_39_" fill="none" stroke="#012B48" cx="2971.07" cy="1615.12" r="23.5"/>
				<circle id="_x2D_.elCircle-_38_" fill="none" stroke="#012B48" cx="2971.07" cy="1690.91" r="23.5"/>
				<g>
					<defs>
						<path id="SVGID_19_" d="M2879.13,2063.29l-7.5-9.37l0.78-0.63l7.5,9.37L2879.13,2063.29z M2864.14,2044.55l-7.5-9.37
							l0.78-0.63l7.5,9.37L2864.14,2044.55z M2849.14,2025.82l-7.5-9.37l0.78-0.63l7.5,9.37L2849.14,2025.82z M2834.14,2007.08
							l-7.5-9.37l0.78-0.63l7.5,9.37L2834.14,2007.08z M2819.14,1988.34l-7.5-9.37l0.78-0.63l7.5,9.37L2819.14,1988.34z
							 M2804.14,1969.61l-7.5-9.37l0.78-0.63l7.5,9.37L2804.14,1969.61z M2789.14,1950.87l-7.5-9.37l0.78-0.63l7.5,9.37
							L2789.14,1950.87z M2774.14,1932.14l-7.5-9.37l0.78-0.63l7.5,9.37L2774.14,1932.14z M2759.14,1913.4l-7.5-9.37l0.78-0.63
							l7.5,9.37L2759.14,1913.4z M2744.15,1894.66l-7.5-9.37l0.78-0.63l7.5,9.37L2744.15,1894.66z M2729.15,1875.93l-7.5-9.37
							l0.78-0.63l7.5,9.37L2729.15,1875.93z M2714.15,1857.19l-7.5-9.37l0.78-0.63l7.5,9.37L2714.15,1857.19z M2699.15,1838.46
							l-7.5-9.37l0.78-0.63l7.5,9.37L2699.15,1838.46z M2684.15,1819.72l-7.5-9.37l0.78-0.63l7.5,9.37L2684.15,1819.72z
							 M2669.15,1800.98l-7.5-9.37l0.78-0.63l7.5,9.37L2669.15,1800.98z M2654.15,1782.25l-7.5-9.37l0.78-0.63l7.5,9.37
							L2654.15,1782.25z M2639.15,1763.51l-7.5-9.37l0.78-0.63l7.5,9.37L2639.15,1763.51z M2624.15,1744.78l-7.5-9.37l0.78-0.63
							l7.5,9.37L2624.15,1744.78z"/>
					</defs>
					<clipPath id="SVGID_20_">
						<use xlink:href="#SVGID_19_"  overflow="visible"/>
					</clipPath>
					<g clip-path="url(#SVGID_20_)">
						
							<line id="_x2D_.elLine-_63_" fill="none" stroke="#012B48" stroke-width="3" stroke-dasharray="12" x1="2617.05" y1="1735.1" x2="2881.62" y2="2065.59"/>
					</g>
				</g>
				<g>
					<defs>
						<path id="SVGID_21_" d="M2810.99,1234.53l-11.17-4.39l0.37-0.93l11.17,4.39L2810.99,1234.53z M2788.66,1225.74l-11.17-4.39
							l0.37-0.93l11.17,4.39L2788.66,1225.74z M2766.32,1216.96l-11.17-4.39l0.37-0.93l11.17,4.39L2766.32,1216.96z
							 M2743.99,1208.17l-11.17-4.39l0.37-0.93l11.17,4.39L2743.99,1208.17z M2721.66,1199.38l-11.17-4.39l0.37-0.93l11.17,4.39
							L2721.66,1199.38z M2699.32,1190.59l-11.17-4.39l0.37-0.93l11.17,4.39L2699.32,1190.59z M2676.99,1181.8l-11.17-4.39
							l0.37-0.93l11.17,4.39L2676.99,1181.8z M2654.66,1173.02l-11.17-4.39l0.37-0.93l11.17,4.39L2654.66,1173.02z M2632.33,1164.23
							l-11.17-4.39l0.37-0.93l11.17,4.39L2632.33,1164.23z"/>
					</defs>
					<clipPath id="SVGID_22_">
						<use xlink:href="#SVGID_21_"  overflow="visible"/>
					</clipPath>
					<g clip-path="url(#SVGID_22_)">
						
							<line id="_x2D_.elLine-_62_" fill="none" stroke="#012B48" stroke-width="3" stroke-dasharray="12" x1="2811.17" y1="1234.07" x2="2617.7" y2="1157.93"/>
					</g>
				</g>
				<g>
					<defs>
						<path id="SVGID_23_" d="M2897.77,1226.14l-0.62-0.78l9.38-7.48l0.62,0.78L2897.77,1226.14z M2916.53,1211.18l-0.62-0.78
							l9.38-7.48l0.62,0.78L2916.53,1211.18z M2935.29,1196.21l-0.62-0.78l9.38-7.48l0.62,0.78L2935.29,1196.21z M2954.05,1181.24
							l-0.62-0.78l9.38-7.48l0.62,0.78L2954.05,1181.24z M2972.81,1166.27l-0.62-0.78l9.38-7.48l0.62,0.78L2972.81,1166.27z
							 M2991.57,1151.3l-0.62-0.78l9.38-7.48l0.62,0.78L2991.57,1151.3z M3010.33,1136.33l-0.62-0.78l9.38-7.48l0.62,0.78
							L3010.33,1136.33z M3029.09,1121.36l-0.62-0.78l9.38-7.48l0.62,0.78L3029.09,1121.36z M3047.85,1106.39l-0.62-0.78l9.38-7.48
							l0.62,0.78L3047.85,1106.39z M3066.61,1091.43l-0.62-0.78l9.38-7.48l0.62,0.78L3066.61,1091.43z M3085.37,1076.46l-0.62-0.78
							l9.38-7.48l0.62,0.78L3085.37,1076.46z M3104.13,1061.49l-0.62-0.78l9.38-7.48l0.62,0.78L3104.13,1061.49z M3122.89,1046.52
							l-0.62-0.78l9.38-7.48l0.62,0.78L3122.89,1046.52z M3141.65,1031.55l-0.62-0.78l9.38-7.48l0.62,0.78L3141.65,1031.55z
							 M3160.41,1016.58l-0.62-0.78l9.38-7.48l0.62,0.78L3160.41,1016.58z M3179.17,1001.61l-0.62-0.78l9.38-7.48l0.62,0.78
							L3179.17,1001.61z M3197.93,986.65l-0.62-0.78l9.38-7.48l0.62,0.78L3197.93,986.65z M3216.69,971.68l-0.62-0.78l9.38-7.48
							l0.62,0.78L3216.69,971.68z M3235.45,956.71l-0.62-0.78l9.38-7.48l0.62,0.78L3235.45,956.71z M3254.21,941.74l-0.62-0.78
							l9.38-7.48l0.62,0.78L3254.21,941.74z M3272.97,926.77l-0.62-0.78l7.87-6.28l0.62,0.78L3272.97,926.77z"/>
					</defs>
					<clipPath id="SVGID_24_">
						<use xlink:href="#SVGID_23_"  overflow="visible"/>
					</clipPath>
					<g clip-path="url(#SVGID_24_)">
						
							<line id="_x2D_.elLine-_61_" fill="none" stroke="#012B48" stroke-width="3" stroke-dasharray="12" x1="2897.46" y1="1225.75" x2="3280.53" y2="920.1"/>
					</g>
				</g>
				<g>
					<defs>
						<path id="SVGID_25_" d="M2897.02,1225.98l-5.44-10.69l0.89-0.45l5.44,10.69L2897.02,1225.98z M2886.13,1204.59l-5.44-10.69
							l0.89-0.45l5.44,10.69L2886.13,1204.59z M2875.24,1183.2l-5.44-10.69l0.89-0.45l5.44,10.69L2875.24,1183.2z M2864.36,1161.81
							l-5.44-10.69l0.89-0.45l5.44,10.69L2864.36,1161.81z M2853.47,1140.43l-5.44-10.69l0.89-0.45l5.44,10.69L2853.47,1140.43z
							 M2842.58,1119.04l-5.44-10.69l0.89-0.45l5.44,10.69L2842.58,1119.04z M2831.7,1097.65l-5.44-10.69l0.89-0.45l5.44,10.69
							L2831.7,1097.65z M2820.81,1076.26l-5.44-10.69l0.89-0.45l5.44,10.69L2820.81,1076.26z M2809.92,1054.87l-5.44-10.69
							l0.89-0.45l5.44,10.69L2809.92,1054.87z M2799.04,1033.48l-5.44-10.69l0.89-0.45l5.44,10.69L2799.04,1033.48z
							 M2788.15,1012.09l-5.44-10.69l0.89-0.45l5.44,10.69L2788.15,1012.09z M2777.26,990.7l-5.44-10.69l0.89-0.45l5.44,10.69
							L2777.26,990.7z M2766.38,969.31l-5.44-10.69l0.89-0.45l5.44,10.69L2766.38,969.31z M2755.49,947.93l-5.44-10.69l0.89-0.45
							l5.44,10.69L2755.49,947.93z M2744.6,926.54l-5.44-10.69l0.89-0.45l5.44,10.69L2744.6,926.54z M2733.72,905.15l-5.44-10.69
							l0.89-0.45l5.44,10.69L2733.72,905.15z"/>
					</defs>
					<clipPath id="SVGID_26_">
						<use xlink:href="#SVGID_25_"  overflow="visible"/>
					</clipPath>
					<g clip-path="url(#SVGID_26_)">
						
							<line id="_x2D_.elLine-_60_" fill="none" stroke="#012B48" stroke-width="3" stroke-dasharray="12" x1="2897.46" y1="1225.75" x2="2724.54" y2="886.02"/>
					</g>
				</g>
				<g>
					<defs>
						<path id="SVGID_27_" d="M3317.29,1351.23l-8.05-0.08l0.01-1l8.05,0.08L3317.29,1351.23z M3297.24,1351.04l-12-0.12l0.01-1
							l12,0.12L3297.24,1351.04z M3273.24,1350.81l-12-0.12l0.01-1l12,0.12L3273.24,1350.81z M3249.24,1350.57l-12-0.12l0.01-1
							l12,0.12L3249.24,1350.57z M3225.24,1350.34l-12-0.12l0.01-1l12,0.12L3225.24,1350.34z M3201.24,1350.11l-12-0.12l0.01-1
							l12,0.12L3201.24,1350.11z M3177.24,1349.88l-12-0.12l0.01-1l12,0.12L3177.24,1349.88z M3153.24,1349.64l-12-0.12l0.01-1
							l12,0.12L3153.24,1349.64z M3129.25,1349.41l-12-0.12l0.01-1l12,0.12L3129.25,1349.41z M3105.25,1349.18l-12-0.12l0.01-1
							l12,0.12L3105.25,1349.18z M3081.25,1348.94l-12-0.12l0.01-1l12,0.12L3081.25,1348.94z"/>
					</defs>
					<clipPath id="SVGID_28_">
						<use xlink:href="#SVGID_27_"  overflow="visible"/>
					</clipPath>
					<g clip-path="url(#SVGID_28_)">
						
							<line id="_x2D_.elLine-_59_" fill="none" stroke="#012B48" stroke-width="3" stroke-dasharray="12" x1="3069.25" y1="1348.33" x2="3317.29" y2="1350.73"/>
					</g>
				</g>
				<g>
					<defs>
						<path id="SVGID_29_" d="M3069.59,1348.7l-0.66-0.75l8.97-7.97l0.66,0.75L3069.59,1348.7z M3087.53,1332.77l-0.66-0.75
							l8.97-7.97l0.66,0.75L3087.53,1332.77z M3105.48,1316.84l-0.66-0.75l8.97-7.97l0.66,0.75L3105.48,1316.84z M3123.43,1300.9
							l-0.66-0.75l8.97-7.97l0.66,0.75L3123.43,1300.9z M3141.38,1284.97l-0.66-0.75l8.97-7.97l0.66,0.75L3141.38,1284.97z
							 M3159.32,1269.03l-0.66-0.75l8.97-7.97l0.66,0.75L3159.32,1269.03z M3177.27,1253.1l-0.66-0.75l8.97-7.97l0.66,0.75
							L3177.27,1253.1z M3195.22,1237.17l-0.66-0.75l8.97-7.97l0.66,0.75L3195.22,1237.17z M3213.17,1221.23l-0.66-0.75l8.97-7.97
							l0.66,0.75L3213.17,1221.23z M3231.11,1205.3l-0.66-0.75l8.97-7.97l0.66,0.75L3231.11,1205.3z M3249.06,1189.37l-0.66-0.75
							l8.97-7.97l0.66,0.75L3249.06,1189.37z"/>
					</defs>
					<clipPath id="SVGID_30_">
						<use xlink:href="#SVGID_29_"  overflow="visible"/>
					</clipPath>
					<g clip-path="url(#SVGID_30_)">
						
							<line id="_x2D_.elLine-_58_" fill="none" stroke="#012B48" stroke-width="3" stroke-dasharray="12" x1="3069.25" y1="1348.33" x2="3262.14" y2="1177.08"/>
					</g>
				</g>
				<g>
					<defs>
						<path id="SVGID_31_" d="M3074.62,1582.88l-0.96-1.27l0.8-0.6l0.96,1.27L3074.62,1582.88z M3066.41,1572.04l-7.24-9.57l0.8-0.6
							l7.24,9.57L3066.41,1572.04z M3051.93,1552.9l-7.24-9.57l0.8-0.6l7.24,9.57L3051.93,1552.9z M3037.45,1533.76l-7.24-9.57
							l0.8-0.6l7.24,9.57L3037.45,1533.76z M3022.97,1514.62l-7.24-9.57l0.8-0.6l7.24,9.57L3022.97,1514.62z"/>
					</defs>
					<clipPath id="SVGID_32_">
						<use xlink:href="#SVGID_31_"  overflow="visible"/>
					</clipPath>
					<g clip-path="url(#SVGID_32_)">
						
							<line id="_x2D_.elLine-_57_" fill="none" stroke="#012B48" stroke-width="3" stroke-dasharray="12" x1="3016.12" y1="1504.75" x2="3075.02" y2="1582.58"/>
					</g>
				</g>
				<g>
					<defs>
						<path id="SVGID_33_" d="M3263.84,1551.04l-11.8-2.18l0.18-0.98l11.8,2.18L3263.84,1551.04z M3240.24,1546.68l-11.8-2.18
							l0.18-0.98l11.8,2.18L3240.24,1546.68z M3216.64,1542.32l-11.8-2.18l0.18-0.98l11.8,2.18L3216.64,1542.32z M3193.04,1537.96
							l-11.8-2.18l0.18-0.98l11.8,2.18L3193.04,1537.96z M3169.44,1533.59l-11.8-2.18l0.18-0.98l11.8,2.18L3169.44,1533.59z
							 M3145.84,1529.23l-11.8-2.18l0.18-0.98l11.8,2.18L3145.84,1529.23z M3122.23,1524.87l-11.8-2.18l0.18-0.98l11.8,2.18
							L3122.23,1524.87z M3098.63,1520.51l-11.8-2.18l0.18-0.98l11.8,2.18L3098.63,1520.51z M3075.03,1516.15l-11.8-2.18l0.18-0.98
							l11.8,2.18L3075.03,1516.15z M3051.43,1511.78l-11.8-2.18l0.18-0.98l11.8,2.18L3051.43,1511.78z M3027.83,1507.42l-11.8-2.18
							l0.18-0.98l11.8,2.18L3027.83,1507.42z"/>
					</defs>
					<clipPath id="SVGID_34_">
						<use xlink:href="#SVGID_33_"  overflow="visible"/>
					</clipPath>
					<g clip-path="url(#SVGID_34_)">
						
							<line id="_x2D_.elLine-_56_" fill="none" stroke="#012B48" stroke-width="3" stroke-dasharray="12" x1="3016.12" y1="1504.75" x2="3271.34" y2="1551.92"/>
					</g>
				</g>
				<g>
					<defs>
						<path id="SVGID_35_" d="M2696.76,2193.27l-0.96-0.28l0.55-1.88l0.96,0.28L2696.76,2193.27z M2700.68,2179.87l-0.96-0.28
							l3.37-11.52l0.96,0.28L2700.68,2179.87z M2707.42,2156.84l-0.96-0.28l3.37-11.52l0.96,0.28L2707.42,2156.84z M2714.15,2133.8
							l-0.96-0.28l3.37-11.52l0.96,0.28L2714.15,2133.8z M2720.89,2110.77l-0.96-0.28l3.37-11.52l0.96,0.28L2720.89,2110.77z
							 M2727.63,2087.73l-0.96-0.28l3.37-11.52l0.96,0.28L2727.63,2087.73z M2734.36,2064.7l-0.96-0.28l3.37-11.52l0.96,0.28
							L2734.36,2064.7z M2741.1,2041.66l-0.96-0.28l3.37-11.52l0.96,0.28L2741.1,2041.66z M2747.84,2018.63l-0.96-0.28l3.37-11.52
							l0.96,0.28L2747.84,2018.63z M2754.57,1995.59l-0.96-0.28l3.37-11.52l0.96,0.28L2754.57,1995.59z M2761.31,1972.55l-0.96-0.28
							l3.37-11.52l0.96,0.28L2761.31,1972.55z M2768.05,1949.52l-0.96-0.28l3.37-11.52l0.96,0.28L2768.05,1949.52z M2774.78,1926.48
							l-0.96-0.28l3.37-11.52l0.96,0.28L2774.78,1926.48z M2781.52,1903.45l-0.96-0.28l3.37-11.52l0.96,0.28L2781.52,1903.45z
							 M2788.26,1880.41l-0.96-0.28l3.37-11.52l0.96,0.28L2788.26,1880.41z M2794.99,1857.38l-0.96-0.28l3.37-11.52l0.96,0.28
							L2794.99,1857.38z M2801.73,1834.34l-0.96-0.28l3.37-11.52l0.96,0.28L2801.73,1834.34z M2808.46,1811.31l-0.96-0.28
							l3.37-11.52l0.96,0.28L2808.46,1811.31z M2815.2,1788.27l-0.96-0.28l3.37-11.52l0.96,0.28L2815.2,1788.27z M2821.94,1765.24
							l-0.96-0.28l3.37-11.52l0.96,0.28L2821.94,1765.24z M2828.67,1742.2l-0.96-0.28l3.37-11.52l0.96,0.28L2828.67,1742.2z"/>
					</defs>
					<clipPath id="SVGID_36_">
						<use xlink:href="#SVGID_35_"  overflow="visible"/>
					</clipPath>
					<g clip-path="url(#SVGID_36_)">
						
							<line id="_x2D_.elLine-_55_" fill="none" stroke="#012B48" stroke-width="3" stroke-dasharray="12" x1="2831.56" y1="1730.55" x2="2696.28" y2="2193.13"/>
					</g>
				</g>
				<g>
					<defs>
						<path id="SVGID_37_" d="M2815.6,1236.66l-2.68-11.7l0.97-0.22l2.68,11.7L2815.6,1236.66z M2810.24,1213.26l-2.68-11.7
							l0.97-0.22l2.68,11.7L2810.24,1213.26z M2804.89,1189.87l-2.68-11.7l0.97-0.22l2.68,11.7L2804.89,1189.87z M2799.53,1166.48
							l-2.68-11.7l0.97-0.22l2.68,11.7L2799.53,1166.48z M2794.17,1143.08l-2.68-11.7l0.97-0.22l2.68,11.7L2794.17,1143.08z
							 M2788.81,1119.69l-2.68-11.7l0.97-0.22l2.68,11.7L2788.81,1119.69z M2783.45,1096.29l-2.68-11.7l0.97-0.22l2.68,11.7
							L2783.45,1096.29z M2778.09,1072.9l-2.68-11.7l0.97-0.22l2.68,11.7L2778.09,1072.9z"/>
					</defs>
					<clipPath id="SVGID_38_">
						<use xlink:href="#SVGID_37_"  overflow="visible"/>
					</clipPath>
					<g clip-path="url(#SVGID_38_)">
						
							<line id="_x2D_.elLine-_54_" fill="none" stroke="#012B48" stroke-width="3" stroke-dasharray="12" x1="2816.09" y1="1236.55" x2="2775.56" y2="1059.61"/>
					</g>
				</g>
				<g>
					<defs>
						<path id="SVGID_39_" d="M3077.81,1843.01l-5.02-2.22l0.4-0.91l5.02,2.22L3077.81,1843.01z M3061.82,1835.94l-10.97-4.85
							l0.4-0.91l10.97,4.85L3061.82,1835.94z M3039.87,1826.23l-10.97-4.85l0.4-0.91l10.97,4.85L3039.87,1826.23z M3017.93,1816.52
							l-10.97-4.85l0.4-0.91l10.97,4.85L3017.93,1816.52z M2995.98,1806.81l-10.97-4.85l0.4-0.91l10.97,4.85L2995.98,1806.81z
							 M2974.03,1797.11l-10.97-4.85l0.4-0.91l10.97,4.85L2974.03,1797.11z M2952.08,1787.4l-10.97-4.85l0.4-0.91l10.97,4.85
							L2952.08,1787.4z M2930.13,1777.69l-10.97-4.85l0.4-0.91l10.97,4.85L2930.13,1777.69z M2908.18,1767.98l-10.97-4.85l0.4-0.91
							l10.97,4.85L2908.18,1767.98z M2886.23,1758.27l-10.97-4.85l0.4-0.91l10.97,4.85L2886.23,1758.27z M2864.28,1748.56
							l-10.97-4.85l0.4-0.91l10.97,4.85L2864.28,1748.56z M2842.34,1738.86l-10.97-4.85l0.4-0.91l10.97,4.85L2842.34,1738.86z"/>
					</defs>
					<clipPath id="SVGID_40_">
						<use xlink:href="#SVGID_39_"  overflow="visible"/>
					</clipPath>
					<g clip-path="url(#SVGID_40_)">
						
							<line id="_x2D_.elLine-_53_" fill="none" stroke="#012B48" stroke-width="3" stroke-dasharray="12" x1="2831.56" y1="1733.55" x2="3078.02" y2="1842.56"/>
					</g>
				</g>
				<rect x="-0.02" y="0.3" fill="none" width="3840" height="2160"/>
			</g>
		</g>
		<g>
			<g>
				<circle fill="#A4CD38" cx="1818.69" cy="1335.29" r="6.5"/>
				<circle fill="#A4CD38" cx="1839.51" cy="1404.31" r="6.5"/>
				<circle fill="#A4CD38" cx="1788.67" cy="1442.33" r="6.5"/>
				<circle fill="#A4CD38" cx="1825.75" cy="1487.05" r="6.5"/>
				<circle fill="#A4CD38" cx="1916.35" cy="1724.57" r="6.5"/>
				<circle fill="#A4CD38" cx="1970.59" cy="1614.82" r="6.5"/>
				<circle fill="#A4CD38" cx="2064.16" cy="1612.68" r="6.5"/>
				<circle fill="#A4CD38" cx="2114.56" cy="1648.86" r="6.5"/>
				<circle fill="#A4CD38" cx="2161.02" cy="1432.78" r="6.5"/>
				<circle fill="#A4CD38" cx="2057.66" cy="1410.81" r="6.5"/>
				<circle fill="#A4CD38" cx="2026.06" cy="1445.78" r="6.5"/>
				<circle fill="#A4CD38" cx="2043.78" cy="1327.15" r="6.5"/>
				<circle fill="#A4CD38" cx="1988.12" cy="1226.5" r="6.5"/>
				<circle fill="#A4CD38" cx="1927.71" cy="1335.29" r="6.5"/>
				<g>
					<defs>
						<path id="SVGID_41_" d="M1834.39,1263.44l-11.18-4.35l0.36-0.93l11.18,4.35L1834.39,1263.44z M1812.02,1254.74l-11.18-4.35
							l0.36-0.93l11.18,4.35L1812.02,1254.74z M1789.65,1246.05l-11.18-4.35l0.36-0.93l11.18,4.35L1789.65,1246.05z
							 M1767.28,1237.35l-11.18-4.35l0.36-0.93l11.18,4.35L1767.28,1237.35z M1744.91,1228.65l-11.18-4.35l0.36-0.93l11.19,4.35
							L1744.91,1228.65z M1722.55,1219.95l-11.18-4.35l0.36-0.93l11.18,4.35L1722.55,1219.95z M1700.18,1211.26l-11.18-4.35
							l0.36-0.93l11.18,4.35L1700.18,1211.26z M1677.81,1202.56l-11.18-4.35l0.36-0.93l11.18,4.35L1677.81,1202.56z"/>
					</defs>
					<clipPath id="SVGID_42_">
						<use xlink:href="#SVGID_41_"  overflow="visible"/>
					</clipPath>
					
						<line id="_x2D_.elLine-_52_" clip-path="url(#SVGID_42_)" fill="none" stroke="#012B48" stroke-width="3" stroke-dasharray="12" x1="1834.57" y1="1262.98" x2="1663.55" y2="1196.48"/>
				</g>
				<path fill="#A4CD38" d="M1902.47,1592.66l-83.55,15.72l-0.23,65.72l62.37-13.8l55.4-43.26c0,0-16.11-5.74-21.87-10.67
					S1902.47,1592.66,1902.47,1592.66z"/>
				<polygon fill="#A4CD38" points="1827.99,1378.41 1842.51,1404.31 1882.17,1414.61 				"/>
				<polygon fill="#A4CD38" points="1871.59,1305.76 1857.31,1333.65 1909.85,1348.79 				"/>
				<polygon fill="#A4CD38" points="1919.01,1226.5 1896.52,1262.08 1934.89,1266.38 				"/>
				<polygon fill="#A4CD38" points="2114.22,1419.29 2032.56,1445.78 2097.21,1455.33 				"/>
				<polygon fill="#A4CD38" points="2083.53,1364.81 2061.66,1410.1 2148.16,1372.9 				"/>
				<polygon fill="#A4CD38" points="2157.03,1542.02 2073.18,1510.15 2077.53,1553.58 				"/>
				<polygon fill="#A4CD38" points="1982.22,1683.09 1970.59,1621.32 1928.34,1685.58 				"/>
				<polygon fill="#A4CD38" points="1810.68,1553.15 1878.9,1503.77 1787.63,1514.18 				"/>
				<polygon fill="#A4CD38" points="1819.46,1608.52 1810.68,1553.15 1753.9,1552.3 				"/>
				<polyline fill="none" stroke="#012B48" points="1988.12,1226.5 1935.47,1265.99 1976.58,1273.53 1961.79,1330.76 
					1935.47,1266.63 1928.34,1333.65 1896.52,1262.08 1919.01,1226.5 1934.89,1266.38 				"/>
				<polyline fill="none" stroke="#012B48" points="1976.58,1273.56 1988.12,1226.07 1996.89,1309.3 1976.67,1275.01 				"/>
				<polyline fill="none" stroke="#012B48" stroke-dasharray="12" points="1988.12,1226.5 2042.97,1330.76 1996.89,1309.92 
					2004.57,1355.52 2042.92,1330.43 2083.53,1364.81 2006.84,1357.33 				"/>
				<polyline fill="none" stroke="#012B48" points="2054.48,1250.53 2043.78,1329.17 2102.68,1289.31 				"/>
				<polyline fill="none" stroke="#012B48" stroke-dasharray="12" points="2043.5,1330.43 2149.32,1372.16 2083.53,1364.81 
					2060.49,1410.76 2148.16,1372.9 2114.82,1418.66 2059.97,1410.81 2023.84,1399.61 				"/>
				<polyline fill="none" stroke="#012B48" points="2059.88,1411.48 2030.35,1445.25 2114.22,1419.29 2096.72,1455.64 
					2159.77,1432.16 2114.91,1418.83 				"/>
				<polyline fill="none" stroke="#012B48" points="2097.68,1455.64 2029.28,1445.56 2072.15,1510.15 2097.21,1455.33 				"/>
				<polyline fill="none" stroke="#012B48" stroke-dasharray="12" points="2161.02,1432.78 2073.18,1510.15 2157.03,1542.02 
					2077.47,1552.84 2072.15,1510.15 2027.13,1536.37 2077.53,1553.58 2064.93,1612.68 2026.06,1536.53 				"/>
				<polyline fill="none" stroke="#012B48" stroke-dasharray="12" points="2157.23,1542.74 2064.93,1612.68 2112.62,1648.97 
					2054.21,1654.73 2064.93,1612.68 2012.25,1585.21 2054.21,1654.73 1988.12,1723.42 2012.18,1584.77 				"/>
				<polyline fill="none" stroke="#012B48" points="1971.94,1618.11 1996.06,1672.65 2456.15,1682.86 2446.68,1618.11 
					1928.34,1685.58 1981.4,1682.86 				"/>
				<polyline fill="none" stroke="#012B48" stroke-dasharray="12" points="1982.22,1683.09 1987,1723.65 1927.33,1685.23 
					1935.58,1618.11 1881.1,1660.72 1918.21,1722.34 1927.26,1685.58 1881.1,1660.76 				"/>
				<polyline fill="none" stroke="#012B48" stroke-dasharray="12" points="1902.26,1592.35 1819.46,1608.52 1880.02,1503.51 
					1811.78,1553.42 1819.46,1608.52 1753.9,1552.3 1810.68,1553.15 1749.24,1518.84 1787.63,1514.18 1811.78,1553.42 				"/>
				<polyline fill="none" stroke="#012B48" stroke-dasharray="12" points="1787.97,1514.16 1878.9,1503.77 1828.24,1488.42 
					1787.63,1514.18 1746.29,1475.06 1828.43,1488.15 1791.22,1464.82 1746.86,1474.43 1790.94,1442.33 1790.67,1465.02 
					1878.9,1445.56 1828.54,1488.1 1878.9,1474.14 				"/>
				<polyline fill="none" stroke="#012B48" stroke-dasharray="12" points="1747.09,1438.76 1792.04,1442.28 1757.01,1381.45 
					1805.52,1425.6 1791.29,1442.28 1878.9,1445.56 1805.55,1425.83 1843.32,1403.39 1757.01,1381.45 1829.06,1378.71 
					1842.5,1403.04 1882.17,1414.61 				"/>
				<polyline fill="none" stroke="#012B48" points="1757.01,1381.45 1818.94,1336.54 1827.99,1378.41 1891.04,1376.51 
					1819.51,1335.29 1857.03,1333.65 1891.27,1376.44 				"/>
				<polyline fill="none" stroke="#012B48" stroke-dasharray="12" points="1782.17,1326.87 1819.67,1335.29 1834.27,1263.82 
					1857.31,1333.65 1871.59,1305.76 1834.57,1262.98 1876.23,1276.14 1872.14,1305.42 1909.85,1348.79 				"/>
				<polyline fill="none" stroke="#012B48" points="1884.48,1236.67 1896.52,1262.08 1875.96,1276.66 1928.4,1335.29 				"/>
				<polyline fill="none" stroke="#012B48" points="1818.91,1608.38 1818.91,1673.81 1881.05,1660.64 				"/>
				<g>
					<g>
						<path fill="none" stroke="#012B48" stroke-dasharray="12" d="M1954.13,1218.18c91.49,0,213.96,62.68,213.96,256.47
							c0,193.79-122.47,256.47-213.24,256.47s-213.24-62.68-213.24-256.47C1741.61,1280.86,1864.08,1218.18,1954.13,1218.18z
							 M1954.46,1614.82c70.23,0,71.52-88.82,71.52-139.77c0-49.57-1.29-139.77-70.15-139.77c-70.92,0-73.67,88.13-73.67,139.77
							C1882.17,1525.32,1884.92,1614.82,1954.46,1614.82z"/>
					</g>
				</g>
				<g>
					<g>
						<path fill="none" stroke="#012B48" d="M1953.93,1212.49c93.44,0,218.52,64.01,218.52,261.93
							c0,197.92-125.08,261.93-217.79,261.93s-217.79-64.01-217.79-261.93C1736.88,1276.51,1861.96,1212.49,1953.93,1212.49z
							 M1954.4,1610.53c68.07,0,69.33-86.09,69.33-135.48c0-48.05-1.25-135.48-67.99-135.48c-68.74,0-71.41,85.43-71.41,135.48
							C1884.32,1523.77,1886.99,1610.53,1954.4,1610.53z"/>
					</g>
				</g>
				<circle id="_x2D_.elCircle-_37_" fill="none" stroke="#012B48" cx="1986.74" cy="1223.61" r="23.5"/>
				<circle id="_x2D_.elCircle-_36_" fill="none" stroke="#012B48" cx="1787.63" cy="1442.33" r="23.5"/>
				<circle id="_x2D_.elCircle-_35_" fill="none" stroke="#012B48" cx="2070.66" cy="1612.68" r="23.5"/>
				<circle id="_x2D_.elCircle-_34_" fill="none" stroke="#012B48" cx="1915.08" cy="1727.66" r="23.5"/>
				<circle id="_x2D_.elCircle-_33_" fill="none" stroke="#012B48" cx="2029.28" cy="1442.33" r="23.5"/>
				<circle id="_x2D_.elCircle-_32_" fill="none" stroke="#012B48" cx="2102.68" cy="1285.98" r="23.5"/>
				<g>
					<defs>
						<path id="SVGID_43_" d="M2113.8,2025.51l-0.43-0.67l0.84-0.54l0.43,0.67L2113.8,2025.51z M2106.85,2014.78l-6.52-10.07
							l0.84-0.54l6.52,10.07L2106.85,2014.78z M2093.81,1994.63l-6.52-10.07l0.84-0.54l6.52,10.07L2093.81,1994.63z
							 M2080.77,1974.48l-6.52-10.07l0.84-0.54l6.52,10.07L2080.77,1974.48z M2067.74,1954.33l-6.52-10.07l0.84-0.54l6.52,10.07
							L2067.74,1954.33z M2054.7,1934.18l-6.52-10.08l0.84-0.54l6.52,10.08L2054.7,1934.18z M2041.66,1914.03l-6.52-10.08l0.84-0.54
							l6.52,10.08L2041.66,1914.03z M2028.62,1893.88l-6.52-10.07l0.84-0.54l6.52,10.07L2028.62,1893.88z M2015.58,1873.73
							l-6.52-10.07l0.84-0.54l6.52,10.07L2015.58,1873.73z M2002.54,1853.58l-6.52-10.07l0.84-0.54l6.52,10.07L2002.54,1853.58z
							 M1989.5,1833.43l-6.52-10.08l0.84-0.54l6.52,10.08L1989.5,1833.43z M1976.47,1813.28l-6.52-10.08l0.84-0.54l6.52,10.08
							L1976.47,1813.28z M1963.43,1793.13l-6.52-10.08l0.84-0.54l6.52,10.08L1963.43,1793.13z M1950.39,1772.98l-6.52-10.07
							l0.84-0.54l6.52,10.07L1950.39,1772.98z M1937.35,1752.84l-6.52-10.07l0.84-0.54l6.52,10.07L1937.35,1752.84z
							 M1924.31,1732.69l-6.52-10.07l0.84-0.54l6.52,10.07L1924.31,1732.69z"/>
					</defs>
					<clipPath id="SVGID_44_">
						<use xlink:href="#SVGID_43_"  overflow="visible"/>
					</clipPath>
					<g clip-path="url(#SVGID_44_)">
						
							<line id="_x2D_.elLine-_51_" fill="none" stroke="#012B48" stroke-width="3" stroke-dasharray="12" x1="1918.21" y1="1722.34" x2="2114.22" y2="2025.24"/>
					</g>
				</g>
				<g>
					<defs>
						<path id="SVGID_45_" d="M1798.16,1962.89l-0.9-0.45l5.34-10.75l0.9,0.45L1798.16,1962.89z M1808.84,1941.4l-0.9-0.45
							l5.34-10.75l0.9,0.45L1808.84,1941.4z M1819.52,1919.9l-0.9-0.45l5.34-10.75l0.9,0.45L1819.52,1919.9z M1830.2,1898.41
							l-0.9-0.45l5.34-10.75l0.9,0.45L1830.2,1898.41z M1840.88,1876.92l-0.9-0.45l5.34-10.75l0.9,0.45L1840.88,1876.92z
							 M1851.56,1855.43l-0.9-0.45l5.34-10.75l0.9,0.45L1851.56,1855.43z M1862.24,1833.93l-0.9-0.45l5.34-10.75l0.9,0.45
							L1862.24,1833.93z M1872.92,1812.44l-0.9-0.45l5.34-10.75l0.9,0.45L1872.92,1812.44z M1883.6,1790.95l-0.89-0.45l5.34-10.75
							l0.9,0.45L1883.6,1790.95z M1894.28,1769.45l-0.9-0.45l5.34-10.75l0.9,0.45L1894.28,1769.45z M1904.96,1747.96l-0.9-0.45
							l5.34-10.75l0.9,0.45L1904.96,1747.96z"/>
					</defs>
					<clipPath id="SVGID_46_">
						<use xlink:href="#SVGID_45_"  overflow="visible"/>
					</clipPath>
					<g clip-path="url(#SVGID_46_)">
						
							<line id="_x2D_.elLine-_50_" fill="none" stroke="#012B48" stroke-width="3" stroke-dasharray="12" x1="1909.85" y1="1736.99" x2="1795.17" y2="1967.8"/>
					</g>
				</g>
				<g>
					<defs>
						<path id="SVGID_47_" d="M1835.39,1262.79l-0.98-0.21l2.47-11.74l0.98,0.21L1835.39,1262.79z M1840.33,1239.3l-0.98-0.21
							l2.47-11.74l0.98,0.21L1840.33,1239.3z M1845.26,1215.81l-0.98-0.21l2.47-11.74l0.98,0.21L1845.26,1215.81z M1850.2,1192.32
							l-0.98-0.21l2.47-11.74l0.98,0.21L1850.2,1192.32z M1855.13,1168.84l-0.98-0.21l2.47-11.74l0.98,0.21L1855.13,1168.84z
							 M1860.07,1145.35l-0.98-0.21l2.47-11.74l0.98,0.21L1860.07,1145.35z M1865,1121.86l-0.98-0.21l2.47-11.74l0.98,0.21
							L1865,1121.86z M1869.94,1098.37l-0.98-0.21l1.26-6l0.98,0.21L1869.94,1098.37z"/>
					</defs>
					<clipPath id="SVGID_48_">
						<use xlink:href="#SVGID_47_"  overflow="visible"/>
					</clipPath>
					<g clip-path="url(#SVGID_48_)">
						
							<line id="_x2D_.elLine-_49_" fill="none" stroke="#012B48" stroke-width="3" stroke-dasharray="12" x1="1834.9" y1="1262.68" x2="1870.71" y2="1092.27"/>
					</g>
				</g>
				<g>
					<defs>
						<path id="SVGID_49_" d="M1987.65,1220.19l-4.4-11.16l0.93-0.37l4.4,11.16L1987.65,1220.19z M1978.85,1197.86l-4.4-11.16
							l0.93-0.37l4.4,11.16L1978.85,1197.86z M1970.04,1175.53l-4.4-11.16l0.93-0.37l4.4,11.16L1970.04,1175.53z M1961.24,1153.21
							l-4.4-11.16l0.93-0.37l4.4,11.16L1961.24,1153.21z M1952.43,1130.88l-4.4-11.16l0.93-0.37l4.4,11.16L1952.43,1130.88z
							 M1943.63,1108.55l-4.4-11.16l0.93-0.37l4.4,11.16L1943.63,1108.55z M1934.82,1086.23l-4.4-11.16l0.93-0.37l4.4,11.16
							L1934.82,1086.23z M1926.02,1063.9l-4.4-11.16l0.93-0.37l4.4,11.16L1926.02,1063.9z M1917.21,1041.57l-1.97-5l0.93-0.37
							l1.97,5L1917.21,1041.57z"/>
					</defs>
					<clipPath id="SVGID_50_">
						<use xlink:href="#SVGID_49_"  overflow="visible"/>
					</clipPath>
					<g clip-path="url(#SVGID_50_)">
						
							<line id="_x2D_.elLine-_48_" fill="none" stroke="#012B48" stroke-width="3" stroke-dasharray="12" x1="1988.12" y1="1220" x2="1915.71" y2="1036.39"/>
					</g>
				</g>
				<g>
					<defs>
						<path id="SVGID_51_" d="M2220.97,1817.25l-11.15-4.44l0.37-0.93l11.15,4.44L2220.97,1817.25z M2198.67,1808.38l-11.15-4.44
							l0.37-0.93l11.15,4.44L2198.67,1808.38z M2176.37,1799.51l-11.15-4.44l0.37-0.93l11.15,4.44L2176.37,1799.51z
							 M2154.07,1790.64l-11.15-4.44l0.37-0.93l11.15,4.44L2154.07,1790.64z M2131.77,1781.77l-11.15-4.43l0.37-0.93l11.15,4.43
							L2131.77,1781.77z M2109.47,1772.9l-11.15-4.44l0.37-0.93l11.15,4.44L2109.47,1772.9z M2087.17,1764.03l-11.15-4.44l0.37-0.93
							l11.15,4.44L2087.17,1764.03z M2064.87,1755.16l-11.15-4.44l0.37-0.93l11.15,4.44L2064.87,1755.16z M2042.57,1746.29
							l-11.15-4.44l0.37-0.93l11.15,4.44L2042.57,1746.29z M2020.27,1737.42l-11.15-4.43l0.37-0.93l11.15,4.43L2020.27,1737.42z
							 M1997.97,1728.55l-11.15-4.44l0.37-0.93l11.15,4.44L1997.97,1728.55z"/>
					</defs>
					<clipPath id="SVGID_52_">
						<use xlink:href="#SVGID_51_"  overflow="visible"/>
					</clipPath>
					<g clip-path="url(#SVGID_52_)">
						
							<line id="_x2D_.elLine-_47_" fill="none" stroke="#012B48" stroke-width="3" stroke-dasharray="12" x1="1987" y1="1723.65" x2="2231.07" y2="1820.73"/>
					</g>
				</g>
				<g>
					<defs>
						<path id="SVGID_53_" d="M1769.02,1927.57l-0.68-0.73l7.68-7.16l0.68,0.73L1769.02,1927.57z M1785.47,1912.23l-0.68-0.73
							l8.78-8.18l0.68,0.73L1785.47,1912.23z M1803.02,1895.86l-0.68-0.73l8.78-8.18l0.68,0.73L1803.02,1895.86z M1820.58,1879.49
							l-0.68-0.73l8.78-8.18l0.68,0.73L1820.58,1879.49z M1838.13,1863.13l-0.68-0.73l8.78-8.18l0.68,0.73L1838.13,1863.13z
							 M1855.69,1846.76l-0.68-0.73l8.78-8.18l0.68,0.73L1855.69,1846.76z M1873.24,1830.39l-0.68-0.73l8.78-8.18l0.68,0.73
							L1873.24,1830.39z M1890.79,1814.03l-0.68-0.73l8.78-8.18l0.68,0.73L1890.79,1814.03z M1908.35,1797.66l-0.68-0.73l8.78-8.18
							l0.68,0.73L1908.35,1797.66z M1925.9,1781.29l-0.68-0.73l8.78-8.18l0.68,0.73L1925.9,1781.29z M1943.46,1764.93l-0.68-0.73
							l8.78-8.18l0.68,0.73L1943.46,1764.93z M1961.01,1748.56l-0.68-0.73l8.78-8.18l0.68,0.73L1961.01,1748.56z M1978.56,1732.2
							l-0.68-0.73l8.78-8.18l0.68,0.73L1978.56,1732.2z"/>
					</defs>
					<clipPath id="SVGID_54_">
						<use xlink:href="#SVGID_53_"  overflow="visible"/>
					</clipPath>
					<g clip-path="url(#SVGID_54_)">
						
							<line id="_x2D_.elLine-_46_" fill="none" stroke="#012B48" stroke-width="3" stroke-dasharray="12" x1="1987" y1="1723.65" x2="1768.68" y2="1927.2"/>
					</g>
				</g>
				<g>
					<defs>
						<path id="SVGID_55_" d="M2108.33,1283.78l-0.53-0.85l10.16-6.39l0.53,0.85L2108.33,1283.78z M2128.65,1271l-0.53-0.85
							l10.16-6.39l0.53,0.85L2128.65,1271z M2148.96,1258.21l-0.53-0.85l10.16-6.39l0.53,0.85L2148.96,1258.21z M2169.27,1245.43
							l-0.53-0.85l10.16-6.39l0.53,0.85L2169.27,1245.43z M2189.58,1232.65l-0.53-0.85l10.16-6.39l0.53,0.85L2189.58,1232.65z
							 M2209.9,1219.87l-0.53-0.85l10.16-6.39l0.53,0.85L2209.9,1219.87z M2230.21,1207.09l-0.53-0.85l10.16-6.39l0.53,0.85
							L2230.21,1207.09z M2250.52,1194.31l-0.53-0.85l10.16-6.39l0.53,0.85L2250.52,1194.31z M2270.84,1181.52l-0.53-0.85
							l10.16-6.39l0.53,0.85L2270.84,1181.52z M2291.15,1168.74l-0.53-0.85l0.29-0.18l0.53,0.85L2291.15,1168.74z"/>
					</defs>
					<clipPath id="SVGID_56_">
						<use xlink:href="#SVGID_55_"  overflow="visible"/>
					</clipPath>
					<g clip-path="url(#SVGID_56_)">
						
							<line id="_x2D_.elLine-_44_" fill="none" stroke="#012B48" stroke-width="3" stroke-dasharray="12" x1="2108.06" y1="1283.35" x2="2291.17" y2="1168.14"/>
					</g>
				</g>
				<rect x="-0.02" y="0.3" fill="none" width="3840" height="2160"/>
			</g>
		</g>
		<g>
			<g>
				<circle fill="#A4CD38" cx="1293.04" cy="1727.69" r="6.5"/>
				<circle fill="#A4CD38" cx="1367.41" cy="1681.88" r="6.5"/>
				<circle fill="#A4CD38" cx="1492.55" cy="1609.29" r="6.5"/>
				<circle fill="#A4CD38" cx="1545.84" cy="1664.87" r="6.5"/>
				<circle fill="#A4CD38" cx="1556.26" cy="1688.38" r="6.5"/>
				<circle fill="#A4CD38" cx="1618.45" cy="1689.05" r="6.5"/>
				<circle fill="#A4CD38" cx="1717.36" cy="1608.33" r="6.5"/>
				<circle fill="#A4CD38" cx="1662.56" cy="1506.29" r="6.5"/>
				<circle fill="#A4CD38" cx="1499.05" cy="1473.69" r="6.5"/>
				<circle fill="#A4CD38" cx="1619.89" cy="1446.59" r="6.5"/>
				<circle fill="#A4CD38" cx="1626.39" cy="1340.96" r="6.5"/>
				<circle fill="#A4CD38" cx="1598.43" cy="1308.04" r="6.5"/>
				<circle fill="#A4CD38" cx="1537.84" cy="1228.93" r="6.5"/>
				<circle fill="#A4CD38" cx="1374.51" cy="1311.92" r="6.5"/>
				<circle fill="#A4CD38" cx="1421.89" cy="1425.98" r="6.5"/>
				<circle fill="#A4CD38" cx="1302" cy="1443.65" r="6.5"/>
				<circle fill="#A4CD38" cx="1310.27" cy="1638.18" r="6.5"/>
				<g>
					
						<text transform="matrix(1 0 0 1 1267.3705 1728.478)" fill="none" stroke="#012B48" font-family="'HelveticaNeueLTStd-Blk'" font-size="706.7555px">2</text>
				</g>
				<g>
					<g>
						<path fill="none" stroke="#012B48" stroke-dasharray="12" d="M1298.6,1447.04c-10.67-143.95,83.73-221.54,213.88-221.45
							c122.53,0.08,205.91,61.05,203.76,158.78c-3.08,139.9-148.93,178.96-211.46,220.86c22.67-1.7,218.71,0,218.71,0v126.48
							h-435.04c-2.9-48.58,6.23-86.33,30.88-120.41c42.05-58.73,110.72-99.35,179.08-139.53c26.1-15.95,67.69-33.03,67.08-70
							c-0.59-35.08-20.38-56.96-54.46-57.33c-53.68-0.58-75.43,40.98-73.98,102.6H1298.6z"/>
					</g>
				</g>
				<g>
					<g>
						<path fill="none" stroke="#012B48" stroke-dasharray="12" d="M1294.93,1451.02c-10.76-145.2,78.98-229.82,215.73-229.82
							c123.59,0,210.79,61.73,209.82,163.37c-1.32,138.58-160.59,191.2-203.63,217.4c22.87-1.71,209.86,0,209.86,0V1736h-442.02
							c-2.92-49,4.14-88.16,29-122.53c44.3-66.61,117.69-105.54,182.78-145.03c26.33-16.09,65.51-29.02,65.51-66.31
							c0-46.07-31.57-53.18-52.78-54.6c-43.84-2.93-72.35,38.23-69.24,103.5H1294.93z"/>
					</g>
				</g>
				<path fill="#A4CD38" d="M1407.08,1533.31c0,0-37.7,27-46.78,36.25c-9.46,9.64-32.92,36.63-32.92,36.63l93.89,38.08
					L1407.08,1533.31z"/>
				<polygon fill="#A4CD38" points="1628.39,1341.46 1568.35,1380.88 1641.83,1403.3 				"/>
				<polygon fill="#A4CD38" points="1530.34,1273.88 1474.59,1293.77 1518.37,1342.03 				"/>
				<polygon fill="#A4CD38" points="1337.42,1379.16 1303.46,1414.26 1353.45,1405.12 				"/>
				<polygon fill="#A4CD38" points="1350.45,1405.12 1304.5,1442.65 1421.89,1425.98 				"/>
				<polygon fill="#A4CD38" points="1605.18,1491.6 1557.34,1489.27 1593.56,1550.29 				"/>
				<polygon fill="#A4CD38" points="1486.04,1692.27 1476.28,1726.62 1568.76,1727.65 				"/>
				<polygon fill="#A4CD38" points="1619.45,1609.29 1659.38,1657.51 1717.36,1609.33 				"/>
				<polyline fill="none" stroke="#012B48" points="1302,1443.65 1424.08,1425.78 1432.81,1442.17 				"/>
				<polyline fill="none" stroke="#012B48" points="1302,1443.65 1351.68,1404.39 1424.08,1425.78 1386.79,1401.1 1438.68,1397.6 
									"/>
				<polyline fill="none" stroke="#012B48" points="1337.42,1379.16 1387.24,1401.03 1352.19,1404.87 1337.42,1378.73 
					1303.46,1414.26 1351.8,1404.44 				"/>
				<polyline fill="none" stroke="#012B48" points="1387.24,1400.79 1399.95,1363.33 1441.88,1387.71 1375.75,1311.29 
					1359.91,1346.8 1315.15,1352.74 				"/>
				<path fill="none" stroke="#012B48" d="M1399.95,1358.87"/>
				<line fill="none" stroke="#012B48" x1="1399.9" y1="1363.56" x2="1374.07" y2="1311.92"/>
				<line fill="none" stroke="#012B48" x1="1374.07" y1="1311.92" x2="1327.39" y2="1323.67"/>
				<polyline fill="none" stroke="#012B48" stroke-dasharray="12" points="1459.69,1357.11 1375.52,1310.6 1419.69,1311.92 
					1459.69,1357.11 1473.99,1294.7 1419.69,1311.92 1380.75,1266.75 1375.52,1310.6 1313.31,1353.41 1336.33,1377.49 
					1359.91,1346.8 1399.95,1363.26 1337.51,1378.57 				"/>
				<polyline fill="none" stroke="#012B48" points="1382.34,1265.22 1473.4,1293.55 1454.8,1236.01 1507.95,1260.49 
					1474.04,1292.48 1531.58,1273.86 1508.55,1260.14 1538.16,1230.93 1531.03,1273.19 1601.24,1307.86 1538.16,1230.93 				"/>
				<polyline fill="none" stroke="#012B48" points="1484.52,1344.59 1474.59,1294.77 1518.37,1342.03 1530.34,1273.88 				"/>
				<polyline fill="none" stroke="#012B48" stroke-dasharray="12" points="1518.37,1342.03 1600.1,1309.14 1557.91,1358.87 
					1619.38,1343.19 1628.11,1340.96 1601.24,1308.07 1641.28,1261.24 1627.57,1339.89 1676.93,1290.31 				"/>
				<polyline fill="none" stroke="#012B48" points="1568.35,1380.88 1627.98,1341.04 1641.83,1403.3 1707.05,1346.85 
					1628.73,1340.96 				"/>
				<polyline fill="none" stroke="#012B48" points="1567.31,1380.56 1642,1403.3 1568.42,1403.3 				"/>
				<polyline fill="none" stroke="#012B48" stroke-dasharray="12" points="1709.2,1400.79 1641.83,1403.3 1696.63,1454.85 
					1568.4,1412.12 1621.53,1446.08 1694.92,1455.46 				"/>
				<polyline fill="none" stroke="#012B48" points="1622.58,1446.17 1561.2,1429.71 1605.18,1491.6 1622.58,1447.24 
					1659.38,1503.12 1604.92,1492.17 1593.56,1550.29 1556.26,1488.31 1606.61,1492.15 				"/>
				<polyline fill="none" stroke="#012B48" stroke-dasharray="12" points="1560.63,1430.9 1557.34,1489.27 1502.03,1475.17 
					1591.87,1551.36 1519.52,1528.35 1501.39,1475.19 1478.38,1544.25 1520.54,1528.46 1495.65,1608.33 1478.38,1544.92 
					1411.44,1567.41 1407.08,1534.38 1478.29,1544.23 				"/>
				<polyline fill="none" stroke="#012B48" stroke-dasharray="12" points="1495.27,1606.73 1411.51,1567.41 1421.89,1644.08 
					1495.31,1609.02 1493.17,1630.91 1513.46,1628.15 1496.25,1609.04 1521.76,1625.43 1617.69,1608.33 1562.3,1651.21 
					1619.89,1689.05 1617.67,1610.18 				"/>
				<polyline fill="none" stroke="#012B48" points="1492.55,1631.46 1421.89,1644.08 1486.04,1692.27 1546.94,1664.37 
					1513.55,1628.24 1523.26,1626.08 1562.71,1651.73 				"/>
				<line fill="none" stroke="#012B48" x1="1492.55" y1="1631.46" x2="1486.04" y2="1692.27"/>
				<polyline fill="none" stroke="#012B48" points="1561.95,1651.66 1547.28,1664.02 1619.8,1689.05 1556.26,1689.05 
					1547.21,1665.65 				"/>
				<polyline fill="none" stroke="#012B48" points="1556.26,1689.05 1486.07,1692.27 1571.62,1728.48 1557.03,1691.04 				"/>
				<polyline fill="none" stroke="#012B48" points="1574.36,1726.76 1619.04,1689.05 1717.36,1726.76 1659.38,1657.51 
					1716.28,1611.44 				"/>
				<polyline fill="none" stroke="#012B48" points="1618.45,1609.29 1659.19,1657.6 1620.6,1688.05 				"/>
				<polyline fill="none" stroke="#012B48" points="1421.89,1644.37 1409,1707.79 1368.8,1681.78 1421.27,1644.26 1348.12,1641.47 
					1327.14,1609.29 				"/>
				<polyline fill="none" stroke="#012B48" points="1346.98,1641.88 1310.27,1638.18 1327.55,1661.87 1349.19,1641.38 
					1368.8,1681.88 1328.28,1661.7 1324.67,1679.73 1367.54,1681.78 				"/>
				<polyline fill="none" stroke="#012B48" stroke-dasharray="12" points="1297.02,1678.08 1324.19,1680.23 1307.65,1696.75 
					1293.41,1710.59 1304.15,1710.59 1308.13,1697 1367.79,1682.77 				"/>
				<polyline fill="none" stroke="#012B48" stroke-dasharray="12" points="1308.13,1697 1408.38,1707.79 1304.15,1710.59 
					1293.29,1727.84 1408.38,1707.79 				"/>
				<line fill="none" stroke="#012B48" x1="1329.53" y1="1607.26" x2="1419.7" y2="1644.08"/>
				<line fill="none" stroke="#012B48" x1="1424" y1="1424.93" x2="1436.1" y2="1398.31"/>
				<polygon fill="none" stroke="#012B48" stroke-dasharray="12" points="1409,1707.79 1486.04,1692.27 1475.07,1729.89 				"/>
				<circle id="_x2D_.elCircle-_31_" fill="none" stroke="#012B48" cx="1538.2" cy="1230.66" r="23.5"/>
				<circle id="_x2D_.elCircle-_30_" fill="none" stroke="#012B48" cx="1599.24" cy="1308.42" r="23.5"/>
				<circle id="_x2D_.elCircle-_29_" fill="none" stroke="#012B48" cx="1499.47" cy="1473.69" r="23.5"/>
				<circle id="_x2D_.elCircle-_28_" fill="none" stroke="#012B48" cx="1545.21" cy="1664.68" r="23.5"/>
				<circle id="_x2D_.elCircle-_27_" fill="none" stroke="#012B48" cx="1295.5" cy="1721.98" r="23.5"/>
				<g>
					<defs>
						<path id="SVGID_57_" d="M1297.37,1736.5h-12v-1h12V1736.5z M1273.37,1736.5h-12v-1h12V1736.5z M1249.37,1736.5h-12v-1h12
							V1736.5z M1225.37,1736.5h-12v-1h12V1736.5z M1201.37,1736.5h-12v-1h12V1736.5z M1177.37,1736.5h-12v-1h12V1736.5z
							 M1153.37,1736.5h-12v-1h12V1736.5z M1129.37,1736.5h-12v-1h12V1736.5z M1105.37,1736.5h-12v-1h12V1736.5z M1081.37,1736.5
							h-12v-1h12V1736.5z M1057.37,1736.5h-12v-1h12V1736.5z M1033.37,1736.5h-12v-1h12V1736.5z M1009.37,1736.5h-12v-1h12V1736.5z
							 M985.37,1736.5h-12v-1h12V1736.5z M961.37,1736.5h-12v-1h12V1736.5z M937.37,1736.5h-12v-1h12V1736.5z M913.37,1736.5h-12v-1
							h12V1736.5z M889.37,1736.5h-12v-1h12V1736.5z M865.37,1736.5h-12v-1h12V1736.5z M841.37,1736.5h-12v-1h12V1736.5z
							 M817.37,1736.5h-12v-1h12V1736.5z M793.37,1736.5h-12v-1h12V1736.5z M769.37,1736.5h-12v-1h12V1736.5z M745.37,1736.5h-12v-1
							h12V1736.5z M721.37,1736.5h-12v-1h12V1736.5z M697.37,1736.5h-12v-1h12V1736.5z M673.37,1736.5h-5.79v-1h5.79V1736.5z"/>
					</defs>
					<clipPath id="SVGID_58_">
						<use xlink:href="#SVGID_57_"  overflow="visible"/>
					</clipPath>
					<g clip-path="url(#SVGID_58_)">
						
							<line id="_x2D_.elLine-_45_" fill="none" stroke="#012B48" stroke-width="3" stroke-dasharray="12" x1="1297.37" y1="1736" x2="667.58" y2="1736"/>
					</g>
				</g>
				<g>
					<defs>
						<path id="SVGID_59_" d="M1727.21,1603.48h-1v-12h1V1603.48z M1727.21,1579.48h-1v-12h1V1579.48z M1727.21,1555.48h-1v-12h1
							V1555.48z M1727.21,1531.48h-1v-12h1V1531.48z M1727.21,1507.48h-1v-12h1V1507.48z"/>
					</defs>
					<clipPath id="SVGID_60_">
						<use xlink:href="#SVGID_59_"  overflow="visible"/>
					</clipPath>
					<g clip-path="url(#SVGID_60_)">
						
							<line id="_x2D_.elLine-_43_" fill="none" stroke="#012B48" stroke-width="3" stroke-dasharray="12" x1="1726.71" y1="1603.48" x2="1726.71" y2="1487.07"/>
					</g>
				</g>
				<g>
					<defs>
						<path id="SVGID_61_" d="M988.94,1581.02l-0.57-0.82l9.82-6.89l0.57,0.82L988.94,1581.02z M1008.59,1567.23l-0.57-0.82
							l9.82-6.89l0.57,0.82L1008.59,1567.23z M1028.23,1553.44l-0.57-0.82l9.82-6.89l0.57,0.82L1028.23,1553.44z M1047.87,1539.66
							l-0.57-0.82l9.82-6.89l0.57,0.82L1047.87,1539.66z M1067.52,1525.87l-0.57-0.82l9.82-6.89l0.57,0.82L1067.52,1525.87z
							 M1087.16,1512.08l-0.57-0.82l9.82-6.89l0.57,0.82L1087.16,1512.08z M1106.81,1498.29l-0.57-0.82l9.82-6.89l0.57,0.82
							L1106.81,1498.29z M1126.45,1484.5l-0.57-0.82l9.82-6.89l0.57,0.82L1126.45,1484.5z M1146.09,1470.71l-0.57-0.82l9.82-6.89
							l0.57,0.82L1146.09,1470.71z M1165.74,1456.92l-0.57-0.82l9.82-6.89l0.57,0.82L1165.74,1456.92z M1185.38,1443.14l-0.57-0.82
							l9.82-6.89l0.57,0.82L1185.38,1443.14z M1205.02,1429.35l-0.57-0.82l9.82-6.89l0.57,0.82L1205.02,1429.35z M1224.67,1415.56
							l-0.57-0.82l9.82-6.89l0.57,0.82L1224.67,1415.56z M1244.31,1401.77l-0.57-0.82l9.82-6.89l0.57,0.82L1244.31,1401.77z
							 M1263.95,1387.98l-0.57-0.82l9.82-6.89l0.57,0.82L1263.95,1387.98z M1283.6,1374.19l-0.57-0.82l9.82-6.89l0.57,0.82
							L1283.6,1374.19z M1303.24,1360.4l-0.57-0.82l9.82-6.89l0.57,0.82L1303.24,1360.4z"/>
					</defs>
					<clipPath id="SVGID_62_">
						<use xlink:href="#SVGID_61_"  overflow="visible"/>
					</clipPath>
					<g clip-path="url(#SVGID_62_)">
						
							<line id="_x2D_.elLine-_42_" fill="none" stroke="#012B48" stroke-width="3" stroke-dasharray="12" x1="1312.78" y1="1353.1" x2="983.16" y2="1584.47"/>
					</g>
				</g>
				<g>
					<defs>
						<path id="SVGID_63_" d="M1643.71,1257.92l-0.99-0.15l1.77-11.87l0.99,0.15L1643.71,1257.92z M1647.25,1234.19l-0.99-0.15
							l1.77-11.87l0.99,0.15L1647.25,1234.19z M1650.8,1210.45l-0.99-0.15l1.77-11.87l0.99,0.15L1650.8,1210.45z M1654.35,1186.71
							l-0.99-0.15l1.77-11.87l0.99,0.15L1654.35,1186.71z M1657.9,1162.98l-0.99-0.15l1.77-11.87l0.99,0.15L1657.9,1162.98z
							 M1661.45,1139.24l-0.99-0.15l1.77-11.87l0.99,0.15L1661.45,1139.24z M1665,1115.51l-0.99-0.15l1.77-11.87l0.99,0.15
							L1665,1115.51z M1668.55,1091.77l-0.99-0.15l1.77-11.87l0.99,0.15L1668.55,1091.77z M1672.1,1068.03l-0.99-0.15l1.77-11.87
							l0.99,0.15L1672.1,1068.03z M1675.65,1044.3l-0.99-0.15l1.77-11.83l0.99,0.15L1675.65,1044.3z"/>
					</defs>
					<clipPath id="SVGID_64_">
						<use xlink:href="#SVGID_63_"  overflow="visible"/>
					</clipPath>
					<g clip-path="url(#SVGID_64_)">
						
							<line id="_x2D_.elLine-_41_" fill="none" stroke="#012B48" stroke-width="3" stroke-dasharray="12" x1="1643.21" y1="1257.85" x2="1676.93" y2="1032.39"/>
					</g>
				</g>
				<g>
					<defs>
						<path id="SVGID_65_" d="M1647.35,1254.77l-0.73-0.68l8.19-8.77l0.73,0.68L1647.35,1254.77z M1663.73,1237.23l-0.73-0.68
							l8.19-8.77l0.73,0.68L1663.73,1237.23z M1680.11,1219.7l-0.73-0.68l8.19-8.77l0.73,0.68L1680.11,1219.7z M1696.5,1202.16
							l-0.73-0.68l8.19-8.77l0.73,0.68L1696.5,1202.16z M1712.88,1184.62l-0.73-0.68l8.19-8.77l0.73,0.68L1712.88,1184.62z
							 M1729.26,1167.08l-0.73-0.68l8.19-8.77l0.73,0.68L1729.26,1167.08z M1745.65,1149.54l-0.73-0.68l8.19-8.77l0.73,0.68
							L1745.65,1149.54z M1762.03,1132.01l-0.73-0.68l5.61-6l0.73,0.68L1762.03,1132.01z"/>
					</defs>
					<clipPath id="SVGID_66_">
						<use xlink:href="#SVGID_65_"  overflow="visible"/>
					</clipPath>
					<g clip-path="url(#SVGID_66_)">
						
							<line id="_x2D_.elLine-_40_" fill="none" stroke="#012B48" stroke-width="3" stroke-dasharray="12" x1="1646.98" y1="1254.43" x2="1767.27" y2="1125.66"/>
					</g>
				</g>
				<g>
					<defs>
						<path id="SVGID_67_" d="M2252.61,1955.26l-11.53-3.33l0.28-0.96l11.53,3.33L2252.61,1955.26z M2229.55,1948.61l-11.53-3.33
							l0.28-0.96l11.53,3.33L2229.55,1948.61z M2206.49,1941.95l-11.53-3.33l0.28-0.96l11.53,3.33L2206.49,1941.95z M2183.43,1935.3
							l-11.53-3.33l0.28-0.96l11.53,3.33L2183.43,1935.3z M2160.37,1928.65l-11.53-3.33l0.28-0.96l11.53,3.33L2160.37,1928.65z
							 M2137.31,1921.99l-11.53-3.33l0.28-0.96l11.53,3.33L2137.31,1921.99z M2114.25,1915.34l-11.53-3.33l0.28-0.96l11.53,3.33
							L2114.25,1915.34z M2091.2,1908.69l-11.53-3.33l0.28-0.96l11.53,3.33L2091.2,1908.69z M2068.14,1902.03l-11.53-3.33l0.28-0.96
							l11.53,3.33L2068.14,1902.03z M2045.08,1895.38l-11.53-3.33l0.28-0.96l11.53,3.33L2045.08,1895.38z M2022.02,1888.72
							l-11.53-3.33l0.28-0.96l11.53,3.33L2022.02,1888.72z M1998.96,1882.07l-11.53-3.33l0.28-0.96l11.53,3.33L1998.96,1882.07z
							 M1975.9,1875.42l-11.53-3.33l0.28-0.96l11.53,3.33L1975.9,1875.42z M1952.84,1868.76l-11.53-3.33l0.28-0.96l11.53,3.33
							L1952.84,1868.76z M1929.78,1862.11l-11.53-3.33l0.28-0.96l11.53,3.33L1929.78,1862.11z M1906.72,1855.46l-11.53-3.33
							l0.28-0.96l11.53,3.33L1906.72,1855.46z M1883.66,1848.8l-11.53-3.33l0.28-0.96l11.53,3.33L1883.66,1848.8z M1860.6,1842.15
							l-11.53-3.33l0.28-0.96l11.53,3.33L1860.6,1842.15z M1837.54,1835.5l-11.53-3.33l0.28-0.96l11.53,3.33L1837.54,1835.5z
							 M1814.48,1828.84l-11.53-3.33l0.28-0.96l11.53,3.33L1814.48,1828.84z M1791.43,1822.19l-11.53-3.33l0.28-0.96l11.53,3.33
							L1791.43,1822.19z M1768.37,1815.54l-11.53-3.33l0.28-0.96l11.53,3.33L1768.37,1815.54z M1745.31,1808.88l-11.53-3.33
							l0.28-0.96l11.53,3.33L1745.31,1808.88z M1722.25,1802.23l-11.53-3.33l0.28-0.96l11.53,3.33L1722.25,1802.23z
							 M1699.19,1795.58l-11.53-3.33l0.28-0.96l11.53,3.33L1699.19,1795.58z M1676.13,1788.92l-11.53-3.33l0.28-0.96l11.53,3.33
							L1676.13,1788.92z M1653.07,1782.27l-11.53-3.33l0.28-0.96l11.53,3.33L1653.07,1782.27z M1630.01,1775.61l-11.53-3.33
							l0.28-0.96l11.53,3.33L1630.01,1775.61z M1606.95,1768.96l-11.53-3.33l0.28-0.96l11.53,3.33L1606.95,1768.96z
							 M1583.89,1762.31l-11.53-3.33l0.28-0.96l11.53,3.33L1583.89,1762.31z M1560.83,1755.65l-11.53-3.33l0.28-0.96l11.53,3.33
							L1560.83,1755.65z M1537.77,1749l-11.53-3.33l0.28-0.96l11.53,3.33L1537.77,1749z M1514.71,1742.35l-11.53-3.33l0.28-0.96
							l11.53,3.33L1514.71,1742.35z M1491.65,1735.69l-11.53-3.33l0.28-0.96l11.53,3.33L1491.65,1735.69z"/>
					</defs>
					<clipPath id="SVGID_68_">
						<use xlink:href="#SVGID_67_"  overflow="visible"/>
					</clipPath>
					<g clip-path="url(#SVGID_68_)">
						
							<line id="_x2D_.elLine-_39_" fill="none" stroke="#012B48" stroke-width="3" stroke-dasharray="12" x1="1480.26" y1="1731.89" x2="2256.84" y2="1955.96"/>
					</g>
				</g>
				<g>
					<defs>
						<path id="SVGID_69_" d="M1293.41,1711.09l-12-0.06l0-1l12,0.06L1293.41,1711.09z M1269.41,1710.98l-12-0.06l0-1l12,0.06
							L1269.41,1710.98z M1245.41,1710.86l-12-0.06l0-1l12,0.06L1245.41,1710.86z M1221.41,1710.75l-12-0.06l0-1l12,0.06
							L1221.41,1710.75z M1197.41,1710.63l-12-0.06l0-1l12,0.06L1197.41,1710.63z M1173.41,1710.52l-12-0.06l0-1l12,0.06
							L1173.41,1710.52z M1149.41,1710.4l-12-0.06l0-1l12,0.06L1149.41,1710.4z M1125.41,1710.29l-12-0.06l0-1l12,0.06
							L1125.41,1710.29z M1101.41,1710.17l-12-0.06l0-1l12,0.06L1101.41,1710.17z M1077.41,1710.06l-12-0.06l0-1l12,0.06
							L1077.41,1710.06z M1053.41,1709.94l-12-0.06l0-1l12,0.06L1053.41,1709.94z M1029.41,1709.83l-12-0.06l0-1l12,0.06
							L1029.41,1709.83z M1005.41,1709.71l-12-0.06l0-1l12,0.06L1005.41,1709.71z M981.41,1709.59l-12-0.06l0-1l12,0.06
							L981.41,1709.59z M957.41,1709.48l-12-0.06l0-1l12,0.06L957.41,1709.48z M933.41,1709.36l-12-0.06l0-1l12,0.06L933.41,1709.36
							z"/>
					</defs>
					<clipPath id="SVGID_70_">
						<use xlink:href="#SVGID_69_"  overflow="visible"/>
					</clipPath>
					<g clip-path="url(#SVGID_70_)">
						
							<line id="_x2D_.elLine-_38_" fill="none" stroke="#012B48" stroke-width="3" stroke-dasharray="12" x1="1293.41" y1="1710.59" x2="912.69" y2="1708.76"/>
					</g>
				</g>
				<g>
					<defs>
						<path id="SVGID_71_" d="M1312.88,1353.66l-6.07-10.35l0.86-0.51l6.07,10.35L1312.88,1353.66z M1300.75,1332.95l-6.07-10.35
							l0.86-0.51l6.07,10.35L1300.75,1332.95z M1288.61,1312.25l-6.07-10.35l0.86-0.51l6.07,10.35L1288.61,1312.25z
							 M1276.48,1291.54l-6.07-10.35l0.86-0.51l6.07,10.35L1276.48,1291.54z M1264.34,1270.84l-6.07-10.35l0.86-0.51l6.07,10.35
							L1264.34,1270.84z M1252.21,1250.13l-6.07-10.35l0.86-0.51l6.07,10.35L1252.21,1250.13z M1240.07,1229.42l-6.07-10.35
							l0.86-0.51l6.07,10.35L1240.07,1229.42z M1227.94,1208.72l-6.07-10.35l0.86-0.51l6.07,10.35L1227.94,1208.72z M1215.8,1188.01
							l-6.07-10.35l0.86-0.51l6.07,10.35L1215.8,1188.01z M1203.67,1167.3l-6.07-10.35l0.86-0.51l6.07,10.35L1203.67,1167.3z
							 M1191.53,1146.6l-6.07-10.35l0.86-0.51l6.07,10.35L1191.53,1146.6z M1179.4,1125.89l-6.07-10.35l0.86-0.51l6.07,10.35
							L1179.4,1125.89z M1167.26,1105.19l-6.07-10.35l0.86-0.51l6.07,10.35L1167.26,1105.19z"/>
					</defs>
					<clipPath id="SVGID_72_">
						<use xlink:href="#SVGID_71_"  overflow="visible"/>
					</clipPath>
					<g clip-path="url(#SVGID_72_)">
						
							<line id="_x2D_.elLine-_37_" fill="none" stroke="#012B48" stroke-width="3" stroke-dasharray="12" x1="1313.31" y1="1353.41" x2="1160.09" y2="1091.96"/>
					</g>
				</g>
				<g>
					<defs>
						<path id="SVGID_73_" d="M1368.18,1975.43l-0.77-0.64l5.07-6.13l0.77,0.64L1368.18,1975.43z M1380.89,1960.05l-0.77-0.64
							l7.64-9.25l0.77,0.64L1380.89,1960.05z M1396.18,1941.55l-0.77-0.64l7.64-9.25l0.77,0.64L1396.18,1941.55z M1411.47,1923.05
							l-0.77-0.64l7.64-9.25l0.77,0.64L1411.47,1923.05z M1426.76,1904.55l-0.77-0.64l7.64-9.25l0.77,0.64L1426.76,1904.55z
							 M1442.05,1886.05l-0.77-0.64l7.64-9.25l0.77,0.64L1442.05,1886.05z M1457.34,1867.55l-0.77-0.64l7.64-9.25l0.77,0.64
							L1457.34,1867.55z M1472.63,1849.05l-0.77-0.64l7.64-9.25l0.77,0.64L1472.63,1849.05z M1487.92,1830.55l-0.77-0.64l7.64-9.25
							l0.77,0.64L1487.92,1830.55z M1503.21,1812.05l-0.77-0.64l7.64-9.25l0.77,0.64L1503.21,1812.05z M1518.5,1793.55l-0.77-0.64
							l7.64-9.25l0.77,0.64L1518.5,1793.55z M1533.78,1775.05l-0.77-0.64l7.64-9.25l0.77,0.64L1533.78,1775.05z M1549.07,1756.55
							l-0.77-0.64l7.64-9.25l0.77,0.64L1549.07,1756.55z M1564.36,1738.05l-0.77-0.64l7.64-9.25l0.77,0.64L1564.36,1738.05z"/>
					</defs>
					<clipPath id="SVGID_74_">
						<use xlink:href="#SVGID_73_"  overflow="visible"/>
					</clipPath>
					<g clip-path="url(#SVGID_74_)">
						
							<line id="_x2D_.elLine-_36_" fill="none" stroke="#012B48" stroke-width="3" stroke-dasharray="12" x1="1571.62" y1="1728.48" x2="1367.79" y2="1975.11"/>
					</g>
				</g>
				<rect x="-0.02" y="0.3" fill="none" width="3840" height="2160"/>
			</g>
		</g>
		<g>
			<g>
				<text transform="matrix(1 0 0 1 799.1019 806.1126)" fill="#012B48" font-family="'HelveticaNeueLTStd-Bd'" font-size="148px">And good luck in</text>
				<rect fill="none" width="3840" height="2160"/>
			</g>
		</g>
		<g>
			<g>
				
					<text transform="matrix(1 0 0 1 798.0677 604.6439)" fill="#012B48" font-family="'HelveticaNeueLTStd-ThIt'" font-size="321.3157px" letter-spacing="5">Thank you,</text>
				<rect fill="none" width="3840" height="2160"/>
			</g>
		</g>
	</g>
</g>
<rect fill="none" width="3840" height="2160"/>
</svg>
