<?xml version="1.0" encoding="utf-8"?>
<!-- Generator: Adobe Illustrator 24.2.1, SVG Export Plug-In . SVG Version: 6.00 Build 0)  -->
<svg version="1.1" id="thankYouAndSvg" xmlns="http://www.w3.org/2000/svg" xmlns:xlink="http://www.w3.org/1999/xlink" x="0px"
	 y="0px" width="3840px" height="2160px" viewBox="0 0 3840 2160" enable-background="new 0 0 3840 2160" xml:space="preserve">
<g id="_x2D_.contentScene-">
	<g id="_x2D_.moveElements-">
		<g>
			<g>
				<circle fill="#012B48" cx="2917.04" cy="1289.71" r="2.52"/>
				<circle fill="#012B48" cx="2984.68" cy="1275.89" r="2.52"/>
				<circle fill="#012B48" cx="3046.05" cy="1273.07" r="2.52"/>
				<circle fill="#012B48" cx="3038.14" cy="1251.27" r="2.52"/>
				<circle fill="#012B48" cx="3051.68" cy="1240.4" r="2.52"/>
				<circle fill="#012B48" cx="3101.56" cy="1273.36" r="2.52"/>
				<circle fill="#012B48" cx="3136.15" cy="1245.52" r="2.52"/>
				<circle fill="#012B48" cx="3187.61" cy="1203.38" r="2.52"/>
				<circle fill="#012B48" cx="3187.61" cy="1307.9" r="2.52"/>
				<circle fill="#012B48" cx="3192.17" cy="1311.28" r="2.52"/>
				<circle fill="#012B48" cx="3194.7" cy="1313.8" r="2.52"/>
				<circle fill="#012B48" cx="3192.17" cy="1200.01" r="2.52"/>
				<circle fill="#012B48" cx="3194.99" cy="1197.49" r="2.52"/>
				<circle fill="#012B48" cx="3099.45" cy="1202.54" r="2.52"/>
				<circle fill="#012B48" cx="3099.04" cy="1199.27" r="2.52"/>
				<circle fill="#012B48" cx="3099.04" cy="1196.75" r="2.52"/>
				<circle fill="#012B48" cx="3016.04" cy="1217.69" r="2.52"/>
				<circle fill="#012B48" cx="3008.08" cy="1220.21" r="2.52"/>
				<circle fill="#012B48" cx="2990.38" cy="1222.75" r="2.52"/>
				<circle fill="#012B48" cx="2992.9" cy="1202.44" r="2.52"/>
				<circle fill="#012B48" cx="3001.88" cy="1199.27" r="2.52"/>
				<circle fill="#012B48" cx="3010.6" cy="1196.75" r="2.52"/>
				<circle fill="#012B48" cx="2919.56" cy="1166.78" r="2.52"/>
				<circle fill="#012B48" cx="2977.62" cy="1146.67" r="2.52"/>
				<circle fill="#012B48" cx="2914.84" cy="1137.27" r="2.52"/>
				<circle fill="#012B48" cx="2913.17" cy="1134.2" r="2.52"/>
				<circle fill="#012B48" cx="2911.58" cy="1130.73" r="2.52"/>
				<circle fill="#012B48" cx="2893.55" cy="1150.05" r="2.52"/>
				<circle fill="#012B48" cx="2891.07" cy="1147.68" r="2.52"/>
				<circle fill="#012B48" cx="2889.14" cy="1145.08" r="2.52"/>
				<circle fill="#012B48" cx="2845.69" cy="1201.79" r="2.52"/>
				<circle fill="#012B48" cx="2843.17" cy="1200.01" r="2.52"/>
				<circle fill="#012B48" cx="2840.64" cy="1197.49" r="2.52"/>
				<circle fill="#012B48" cx="2831.1" cy="1227.54" r="2.52"/>
				<circle fill="#012B48" cx="2827.34" cy="1225.02" r="2.52"/>
				<circle fill="#012B48" cx="2823.87" cy="1223.01" r="2.52"/>
				<circle fill="#012B48" cx="2817.43" cy="1263.87" r="2.52"/>
				<circle fill="#012B48" cx="2814.1" cy="1262.55" r="2.52"/>
				<circle fill="#012B48" cx="2810.73" cy="1261.75" r="2.52"/>
				<circle fill="#012B48" cx="2811.58" cy="1292.24" r="2.52"/>
				<circle fill="#012B48" cx="2814.91" cy="1292.24" r="2.52"/>
				<circle fill="#012B48" cx="2808.2" cy="1292.24" r="2.52"/>
				<circle fill="#012B48" cx="3014.09" cy="1133.26" r="2.52"/>
				<circle fill="#012B48" cx="2997.95" cy="1085.72" r="2.52"/>
				<circle fill="#012B48" cx="2995.42" cy="1082.46" r="2.52"/>
				<circle fill="#012B48" cx="2992.96" cy="1079.94" r="2.52"/>
				<circle fill="#012B48" cx="3046.05" cy="1097.68" r="2.52"/>
				<circle fill="#012B48" cx="3079.69" cy="1153.51" r="2.52"/>
				<circle fill="#012B48" cx="3081.56" cy="1156.97" r="2.52"/>
				<circle fill="#012B48" cx="3083.15" cy="1159.5" r="2.52"/>
				<circle fill="#012B48" cx="3088.33" cy="1100.2" r="2.52"/>
				<circle fill="#012B48" cx="3135.99" cy="1110.74" r="2.52"/>
				<circle fill="#012B48" cx="3138.68" cy="1113.27" r="2.52"/>
				<circle fill="#012B48" cx="3141.2" cy="1115.79" r="2.52"/>
				<circle fill="#012B48" cx="3104.17" cy="1059.93" r="2.52"/>
				<circle fill="#012B48" cx="3050.16" cy="1045.72" r="2.52"/>
				<circle fill="#012B48" cx="3047.64" cy="1044.28" r="2.52"/>
				<circle fill="#012B48" cx="3045.11" cy="1043.2" r="2.52"/>
				<circle fill="#012B48" cx="3056.61" cy="1031.78" r="2.52"/>
				<circle fill="#012B48" cx="3053.62" cy="1031.78" r="2.52"/>
				<circle fill="#012B48" cx="3050.46" cy="1031.88" r="2.52"/>
				<circle fill="#012B48" cx="3056.67" cy="1023.38" r="2.52"/>
				<circle fill="#012B48" cx="3054.15" cy="1023.38" r="2.52"/>
				<circle fill="#012B48" cx="3051.56" cy="1023.38" r="2.52"/>
				<circle fill="#012B48" cx="3168.28" cy="1068.96" r="2.52"/>
				<circle fill="#012B48" cx="3170.81" cy="1071.48" r="2.52"/>
				<circle fill="#012B48" cx="3173.33" cy="1072.98" r="2.52"/>
				<circle fill="#012B48" cx="3120.96" cy="1023.38" r="2.52"/>
				<circle fill="#012B48" cx="3182.21" cy="1020.85" r="2.52"/>
				<circle fill="#012B48" cx="3185.67" cy="1020.85" r="2.52"/>
				<circle fill="#012B48" cx="3188.63" cy="1021.19" r="2.52"/>
				<circle fill="#012B48" cx="3177.16" cy="974.6" r="2.52"/>
				<circle fill="#012B48" cx="3181.06" cy="973.96" r="2.52"/>
				<circle fill="#012B48" cx="3186.11" cy="973.96" r="2.52"/>
				<circle fill="#012B48" cx="3107.91" cy="968.91" r="2.52"/>
				<circle fill="#012B48" cx="3151.99" cy="923.95" r="2.52"/>
				<circle fill="#012B48" cx="3155.56" cy="921.42" r="2.52"/>
				<circle fill="#012B48" cx="3158.09" cy="919.84" r="2.52"/>
				<circle fill="#012B48" cx="3120.83" cy="898.31" r="2.52"/>
				<circle fill="#012B48" cx="3122.49" cy="895.64" r="2.52"/>
				<circle fill="#012B48" cx="3125.02" cy="893.11" r="2.52"/>
				<circle fill="#012B48" cx="3085.81" cy="939.38" r="2.52"/>
				<circle fill="#012B48" cx="3045.76" cy="985.49" r="2.52"/>
				<circle fill="#012B48" cx="3043.23" cy="988.02" r="2.52"/>
				<circle fill="#012B48" cx="3040.71" cy="990.54" r="2.52"/>
				<circle fill="#012B48" cx="3012.85" cy="969.85" r="2.52"/>
				<circle fill="#012B48" cx="3012.85" cy="972.37" r="2.52"/>
				<circle fill="#012B48" cx="3012.85" cy="974.9" r="2.52"/>
				<circle fill="#012B48" cx="3023.4" cy="910.29" r="2.52"/>
				<circle fill="#012B48" cx="3030.13" cy="872.76" r="2.52"/>
				<circle fill="#012B48" cx="3030.13" cy="869.21" r="2.52"/>
				<circle fill="#012B48" cx="3030.13" cy="865.57" r="2.52"/>
				<circle fill="#012B48" cx="3003.93" cy="898.16" r="2.52"/>
				<circle fill="#012B48" cx="2957.69" cy="877.81" r="2.52"/>
				<circle fill="#012B48" cx="2956.1" cy="873.7" r="2.52"/>
				<circle fill="#012B48" cx="2954.51" cy="869.21" r="2.52"/>
				<circle fill="#012B48" cx="2974.16" cy="927.41" r="2.52"/>
				<circle fill="#012B48" cx="2983.02" cy="972.08" r="2.52"/>
				<circle fill="#012B48" cx="2983.99" cy="973.96" r="2.52"/>
				<circle fill="#012B48" cx="2985.86" cy="977.13" r="2.52"/>
				<circle fill="#012B48" cx="2962.14" cy="983.96" r="2.52"/>
				<circle fill="#012B48" cx="2964.66" cy="987.08" r="2.52"/>
				<circle fill="#012B48" cx="2967.19" cy="989.6" r="2.52"/>
				<circle fill="#012B48" cx="2928.37" cy="943.53" r="2.52"/>
				<circle fill="#012B48" cx="2892.91" cy="903.21" r="2.52"/>
				<circle fill="#012B48" cx="2890.38" cy="899.25" r="2.52"/>
				<circle fill="#012B48" cx="2888.11" cy="896.72" r="2.52"/>
				<circle fill="#012B48" cx="2888.11" cy="942.98" r="2.52"/>
				<circle fill="#012B48" cx="2910.64" cy="988.65" r="2.52"/>
				<circle fill="#012B48" cx="2874.21" cy="972.08" r="2.52"/>
				<circle fill="#012B48" cx="2854.1" cy="1001.77" r="2.52"/>
				<circle fill="#012B48" cx="2867.52" cy="1025.9" r="2.52"/>
				<circle fill="#012B48" cx="2929.83" cy="1043.03" r="2.52"/>
				<circle fill="#012B48" cx="2898.36" cy="1021.19" r="2.52"/>
				<circle fill="#012B48" cx="2941.7" cy="1018.33" r="2.52"/>
				<circle fill="#012B48" cx="2946.1" cy="1019.96" r="2.52"/>
				<circle fill="#012B48" cx="2948.62" cy="1021.19" r="2.52"/>
				<circle fill="#012B48" cx="2946.1" cy="1008.79" r="2.52"/>
				<circle fill="#012B48" cx="2949.56" cy="1009.6" r="2.52"/>
				<circle fill="#012B48" cx="2952.35" cy="1011.31" r="2.52"/>
				<circle fill="#012B48" cx="2939.17" cy="1058.64" r="2.52"/>
				<circle fill="#012B48" cx="2941.88" cy="1061.6" r="2.52"/>
				<circle fill="#012B48" cx="2944.22" cy="1063.69" r="2.52"/>
				<circle fill="#012B48" cx="2823.87" cy="1034.31" r="2.52"/>
				<circle fill="#012B48" cx="2820.32" cy="1034.31" r="2.52"/>
				<circle fill="#012B48" cx="2816.85" cy="1034.55" r="2.52"/>
				<circle fill="#012B48" cx="2823.87" cy="1057.4" r="2.52"/>
				<circle fill="#012B48" cx="2820.32" cy="1061.17" r="2.52"/>
				<circle fill="#012B48" cx="2817.79" cy="1063.69" r="2.52"/>
				<circle fill="#012B48" cx="2833.76" cy="979.56" r="2.52"/>
				<circle fill="#012B48" cx="2829.9" cy="978.41" r="2.52"/>
				<circle fill="#012B48" cx="2826.4" cy="977.04" r="2.52"/>
				<circle fill="#012B48" cx="2846.05" cy="953.8" r="2.52"/>
				<circle fill="#012B48" cx="2841.94" cy="951.98" r="2.52"/>
				<circle fill="#012B48" cx="2838.81" cy="949.45" r="2.52"/>
				<circle fill="#012B48" cx="3055.07" cy="1004.43" r="2.52"/>
				<circle fill="#012B48" cx="3051.56" cy="1005.52" r="2.52"/>
				<circle fill="#012B48" cx="3049.04" cy="1006.96" r="2.52"/>
				<circle fill="#012B48" cx="3059.47" cy="1307.9" r="2.52"/>
				<circle fill="#012B48" cx="3059.47" cy="1311.28" r="2.52"/>
				<circle fill="#012B48" cx="3059.47" cy="1313.8" r="2.52"/>
				<circle fill="#012B48" cx="2975.1" cy="1307.9" r="2.52"/>
				<circle fill="#012B48" cx="2975.1" cy="1311.28" r="2.52"/>
				<circle fill="#012B48" cx="2975.1" cy="1313.8" r="2.52"/>
				<circle fill="#012B48" cx="2883.25" cy="1266.8" r="2.52"/>
				<circle fill="#012B48" cx="2928.09" cy="1233.93" r="2.52"/>
				<circle fill="#012B48" cx="2864.02" cy="1231.41" r="2.52"/>
				<circle fill="#012B48" cx="2846.34" cy="1250.24" r="2.52"/>
				<circle fill="#012B48" cx="2843.81" cy="1266.39" r="2.52"/>
				<circle fill="#012B48" cx="2828.58" cy="1280.22" r="2.52"/>
				<circle fill="#012B48" cx="2826.05" cy="1292.24" r="2.52"/>
				<circle fill="#012B48" cx="2814.91" cy="1307.52" r="2.52"/>
				<circle fill="#012B48" cx="2811.45" cy="1310.43" r="2.52"/>
				<circle fill="#012B48" cx="2809.05" cy="1312.95" r="2.52"/>
				<path fill="#00C0F2" d="M2828.84,1056.2c-6.76-117.42,66.4-185.05,181.36-185.05c103.9,0,174.6,43.65,174.6,134.64
					c0,109.43-106.97,143.86-187.51,193.04v0.62h193.65v104.51h-370.71c-2.46-41.19,9.84-76.85,30.74-105.74
					c35.66-49.8,97.13-82.38,151.85-115.58c22.13-13.53,57.79-30.74,57.79-62.09c0-38.73-22.75-52.26-51.64-52.26
					c-49.18,0-65.78,35.66-64.55,87.91H2828.84z"/>
				<path fill="none" stroke="#012B48" d="M2823.87,1058.64c-6.79-117.96,66.7-185.89,182.18-185.89
					c104.37,0,175.39,43.85,175.39,135.25c0,109.93-107.46,144.51-188.36,193.92v0.62h194.53v104.99h-372.39
					c-2.47-41.38,9.88-77.2,30.88-106.22c35.82-50.02,97.58-82.75,152.54-116.1c22.23-13.59,58.05-30.88,58.05-62.37
					c0-38.91-22.85-52.49-51.88-52.49c-49.41,0-66.08,35.82-64.84,88.31H2823.87z"/>
				<path fill="none" stroke="#012B48" d="M2820.9,1061.6c-9.32-125.79,73.17-193.58,186.89-193.51
					c107.07,0.07,179.92,53.34,178.04,138.74c-2.69,122.24-130.14,156.38-184.78,192.99c19.81-1.48,191.11,0,191.11,0v110.52
					h-380.14c-2.53-42.45,5.44-75.44,26.98-105.21c36.74-51.32,96.75-86.81,156.48-121.92c22.81-13.94,59.15-28.87,58.61-61.17
					c-0.51-30.65-17.81-49.77-47.59-50.1c-46.91-0.51-65.91,35.81-64.64,89.66H2820.9z"/>
				<path fill="none" stroke="#012B48" d="M2817.69,1065.08c-9.4-126.87,69.01-200.82,188.51-200.82
					c107.99,0,184.19,53.94,183.35,142.76c-1.15,121.1-140.32,167.07-177.94,189.97c19.98-1.5,183.38,0,183.38,0v117.11h-386.24
					c-2.56-42.81,3.61-77.04,25.34-107.07c38.71-58.2,102.84-92.22,159.71-126.73c23-14.06,57.24-25.36,57.24-57.95
					c0-40.26-27.59-46.47-46.12-47.71c-38.31-2.56-63.22,33.41-60.5,90.44H2817.69z"/>
				<polyline fill="none" stroke="#012B48" points="2823.87,1058.64 2930.55,1043.03 2938.18,1057.34 				"/>
				<polyline fill="none" stroke="#012B48" points="2823.87,1058.64 2867.28,1024.34 2930.55,1043.03 2897.96,1021.46 
					2943.3,1018.4 				"/>
				<polyline fill="none" stroke="#012B48" points="2854.82,1002.29 2898.36,1021.4 2867.72,1024.75 2854.82,1001.91 
					2825.15,1032.96 2867.38,1024.38 				"/>
				<polyline fill="none" stroke="#012B48" points="2898.36,1021.19 2909.46,988.45 2946.1,1009.76 2888.31,942.98 2874.47,974.01 
					2835.36,979.2 				"/>
				<path fill="none" stroke="#012B48" d="M2909.46,984.56"/>
				<line fill="none" stroke="#012B48" x1="2909.42" y1="988.65" x2="2886.85" y2="943.53"/>
				<line fill="none" stroke="#012B48" x1="2886.85" y1="943.53" x2="2846.05" y2="953.8"/>
				<polyline fill="none" stroke="#012B48" points="2961.66,983.02 2888.11,942.38 2926.71,943.53 2961.66,983.02 2974.16,928.48 
					2926.71,943.53 2892.69,904.06 2888.11,942.38 2833.76,979.78 2853.87,1000.83 2874.47,974.01 2909.46,988.39 2854.9,1001.77 
									"/>
				<polyline fill="none" stroke="#012B48" points="2894.07,902.73 2973.64,927.48 2957.39,877.2 3003.83,898.59 2974.2,926.55 
					3024.48,910.27 3004.35,898.29 3030.23,872.76 3024,909.69 3085.35,939.98 3030.23,872.76 				"/>
				<polyline fill="none" stroke="#012B48" points="2983.36,972.08 2974.68,928.54 3012.94,969.85 3023.4,910.29 				"/>
				<polyline fill="none" stroke="#012B48" points="3012.94,969.85 3084.35,941.1 3047.49,984.56 3101.21,970.85 3108.83,968.91 
					3085.35,940.16 3120.34,899.25 3108.35,967.97 3151.49,924.65 				"/>
				<polyline fill="none" stroke="#012B48" points="3056.61,1003.79 3108.71,968.98 3120.81,1023.38 3177.81,974.05 3109.37,968.91 
									"/>
				<polyline fill="none" stroke="#012B48" points="3055.7,1003.51 3120.96,1023.38 3056.67,1023.38 				"/>
				<polyline fill="none" stroke="#012B48" points="3179.68,1021.19 3120.81,1023.38 3168.7,1068.43 3056.65,1031.08 
					3103.08,1060.76 3167.21,1068.96 				"/>
				<polyline fill="none" stroke="#012B48" points="3104,1060.84 3050.36,1046.46 3088.79,1100.54 3104,1061.78 3136.15,1110.6 
					3088.56,1101.04 3078.64,1151.82 3046.05,1097.66 3090.04,1101.02 				"/>
				<polyline fill="none" stroke="#012B48" points="3049.86,1047.5 3046.99,1098.5 2998.66,1086.18 3077.16,1152.76 
					3013.94,1132.65 2998.1,1086.2 2977.99,1146.55 3014.84,1132.75 2993.09,1202.54 2977.99,1147.13 2919.5,1166.78 
					2915.69,1137.92 2977.91,1146.53 				"/>
				<polyline fill="none" stroke="#012B48" points="2992.75,1201.14 2919.56,1166.78 2928.63,1233.77 2992.79,1203.14 
					2990.91,1222.27 3008.65,1219.85 2993.61,1203.16 3015.9,1217.48 3099.73,1202.54 3051.32,1240 3101.64,1273.07 
					3099.71,1204.16 				"/>
				<polyline fill="none" stroke="#012B48" points="2990.38,1222.75 2928.63,1233.77 2984.68,1275.89 3037.9,1251.51 
					3008.73,1219.93 3017.21,1218.05 3051.68,1240.46 				"/>
				<line fill="none" stroke="#012B48" x1="2990.38" y1="1222.75" x2="2984.68" y2="1275.89"/>
				<polyline fill="none" stroke="#012B48" points="3051.02,1240.4 3038.2,1251.2 3101.56,1273.07 3046.05,1273.07 3038.14,1252.62 
									"/>
				<polyline fill="none" stroke="#012B48" points="3046.05,1273.07 2984.71,1275.89 3059.47,1307.52 3046.72,1274.81 				"/>
				<polyline fill="none" stroke="#012B48" points="3061.87,1306.03 3100.91,1273.07 3186.81,1306.03 3136.15,1245.52 
					3185.88,1205.26 				"/>
				<polyline fill="none" stroke="#012B48" points="3100.39,1203.38 3135.99,1245.59 3102.26,1272.19 				"/>
				<polyline fill="none" stroke="#012B48" points="2984.68,1275.89 2974.88,1307.9 2916.43,1289.36 2984.68,1275.89 				"/>
				<polyline fill="none" stroke="#012B48" points="2928.63,1234.03 2917.37,1289.45 2882.24,1266.72 2928.09,1233.93 
					2864.17,1231.5 2845.84,1203.38 				"/>
				<polyline fill="none" stroke="#012B48" points="2863.17,1231.86 2831.1,1228.62 2846.2,1249.32 2865.11,1231.42 2882.24,1266.8 
					2846.84,1249.17 2843.68,1264.93 2881.14,1266.72 				"/>
				<polyline fill="none" stroke="#012B48" points="2819.52,1263.49 2843.26,1265.36 2828.8,1279.8 2816.36,1291.9 2825.75,1291.9 
					2829.22,1280.02 2881.36,1267.58 				"/>
				<polyline fill="none" stroke="#012B48" points="2829.22,1280.02 2916.83,1289.45 2825.75,1291.9 2816.26,1306.97 
					2916.83,1289.45 				"/>
				<line fill="none" stroke="#012B48" x1="2847.92" y1="1201.6" x2="2926.72" y2="1233.77"/>
				<path fill="#012B48" d="M2915.69,1136.98c0,0-32.94,23.59-40.88,31.67c-8.27,8.42-28.77,32-28.77,32l82.04,33.27
					L2915.69,1136.98z"/>
				<line fill="none" stroke="#012B48" x1="2930.48" y1="1042.28" x2="2941.05" y2="1019.02"/>
				<rect fill="none" width="3840" height="2160"/>
			</g>
		</g>
		<g>
			<g>
				<circle fill="#012B48" cx="3321.21" cy="1289.71" r="2.52"/>
				<circle fill="#012B48" cx="3388.86" cy="1275.89" r="2.52"/>
				<circle fill="#012B48" cx="3450.22" cy="1273.07" r="2.52"/>
				<circle fill="#012B48" cx="3442.31" cy="1251.27" r="2.52"/>
				<circle fill="#012B48" cx="3455.85" cy="1240.4" r="2.52"/>
				<circle fill="#012B48" cx="3505.74" cy="1273.36" r="2.52"/>
				<circle fill="#012B48" cx="3540.32" cy="1245.52" r="2.52"/>
				<circle fill="#012B48" cx="3591.78" cy="1203.38" r="2.52"/>
				<circle fill="#012B48" cx="3591.78" cy="1307.9" r="2.52"/>
				<circle fill="#012B48" cx="3596.34" cy="1311.28" r="2.52"/>
				<circle fill="#012B48" cx="3598.87" cy="1313.8" r="2.52"/>
				<circle fill="#012B48" cx="3596.34" cy="1200.01" r="2.52"/>
				<circle fill="#012B48" cx="3599.16" cy="1197.49" r="2.52"/>
				<circle fill="#012B48" cx="3503.62" cy="1202.54" r="2.52"/>
				<circle fill="#012B48" cx="3503.21" cy="1199.27" r="2.52"/>
				<circle fill="#012B48" cx="3503.21" cy="1196.75" r="2.52"/>
				<circle fill="#012B48" cx="3420.21" cy="1217.69" r="2.52"/>
				<circle fill="#012B48" cx="3412.25" cy="1220.21" r="2.52"/>
				<circle fill="#012B48" cx="3394.55" cy="1222.75" r="2.52"/>
				<circle fill="#012B48" cx="3397.07" cy="1202.44" r="2.52"/>
				<circle fill="#012B48" cx="3406.05" cy="1199.27" r="2.52"/>
				<circle fill="#012B48" cx="3414.78" cy="1196.75" r="2.52"/>
				<circle fill="#012B48" cx="3323.74" cy="1166.78" r="2.52"/>
				<circle fill="#012B48" cx="3381.79" cy="1146.67" r="2.52"/>
				<circle fill="#012B48" cx="3319.01" cy="1137.27" r="2.52"/>
				<circle fill="#012B48" cx="3317.34" cy="1134.2" r="2.52"/>
				<circle fill="#012B48" cx="3315.75" cy="1130.73" r="2.52"/>
				<circle fill="#012B48" cx="3297.72" cy="1150.05" r="2.52"/>
				<circle fill="#012B48" cx="3295.25" cy="1147.68" r="2.52"/>
				<circle fill="#012B48" cx="3293.32" cy="1145.08" r="2.52"/>
				<circle fill="#012B48" cx="3249.86" cy="1201.79" r="2.52"/>
				<circle fill="#012B48" cx="3247.34" cy="1200.01" r="2.52"/>
				<circle fill="#012B48" cx="3244.81" cy="1197.49" r="2.52"/>
				<circle fill="#012B48" cx="3235.27" cy="1227.54" r="2.52"/>
				<circle fill="#012B48" cx="3231.51" cy="1225.02" r="2.52"/>
				<circle fill="#012B48" cx="3228.04" cy="1223.01" r="2.52"/>
				<circle fill="#012B48" cx="3221.6" cy="1263.87" r="2.52"/>
				<circle fill="#012B48" cx="3218.27" cy="1262.55" r="2.52"/>
				<circle fill="#012B48" cx="3214.9" cy="1261.75" r="2.52"/>
				<circle fill="#012B48" cx="3215.75" cy="1292.24" r="2.52"/>
				<circle fill="#012B48" cx="3219.08" cy="1292.24" r="2.52"/>
				<circle fill="#012B48" cx="3212.38" cy="1292.24" r="2.52"/>
				<circle fill="#012B48" cx="3418.26" cy="1133.26" r="2.52"/>
				<circle fill="#012B48" cx="3402.12" cy="1085.72" r="2.52"/>
				<circle fill="#012B48" cx="3399.59" cy="1082.46" r="2.52"/>
				<circle fill="#012B48" cx="3397.13" cy="1079.94" r="2.52"/>
				<circle fill="#012B48" cx="3450.22" cy="1097.68" r="2.52"/>
				<circle fill="#012B48" cx="3483.86" cy="1153.51" r="2.52"/>
				<circle fill="#012B48" cx="3485.73" cy="1156.97" r="2.52"/>
				<circle fill="#012B48" cx="3487.32" cy="1159.5" r="2.52"/>
				<circle fill="#012B48" cx="3492.5" cy="1100.2" r="2.52"/>
				<circle fill="#012B48" cx="3540.16" cy="1110.74" r="2.52"/>
				<circle fill="#012B48" cx="3542.85" cy="1113.27" r="2.52"/>
				<circle fill="#012B48" cx="3545.37" cy="1115.79" r="2.52"/>
				<circle fill="#012B48" cx="3508.34" cy="1059.93" r="2.52"/>
				<circle fill="#012B48" cx="3454.33" cy="1045.72" r="2.52"/>
				<circle fill="#012B48" cx="3451.81" cy="1044.28" r="2.52"/>
				<circle fill="#012B48" cx="3449.28" cy="1043.2" r="2.52"/>
				<circle fill="#012B48" cx="3460.78" cy="1031.78" r="2.52"/>
				<circle fill="#012B48" cx="3457.79" cy="1031.78" r="2.52"/>
				<circle fill="#012B48" cx="3454.63" cy="1031.88" r="2.52"/>
				<circle fill="#012B48" cx="3460.84" cy="1023.38" r="2.52"/>
				<circle fill="#012B48" cx="3458.32" cy="1023.38" r="2.52"/>
				<circle fill="#012B48" cx="3455.74" cy="1023.38" r="2.52"/>
				<circle fill="#012B48" cx="3572.45" cy="1068.96" r="2.52"/>
				<circle fill="#012B48" cx="3574.98" cy="1071.48" r="2.52"/>
				<circle fill="#012B48" cx="3577.5" cy="1072.98" r="2.52"/>
				<circle fill="#012B48" cx="3525.14" cy="1023.38" r="2.52"/>
				<circle fill="#012B48" cx="3586.38" cy="1020.85" r="2.52"/>
				<circle fill="#012B48" cx="3589.84" cy="1020.85" r="2.52"/>
				<circle fill="#012B48" cx="3592.8" cy="1021.19" r="2.52"/>
				<circle fill="#012B48" cx="3581.33" cy="974.6" r="2.52"/>
				<circle fill="#012B48" cx="3585.23" cy="973.96" r="2.52"/>
				<circle fill="#012B48" cx="3590.28" cy="973.96" r="2.52"/>
				<circle fill="#012B48" cx="3512.08" cy="968.91" r="2.52"/>
				<circle fill="#012B48" cx="3556.16" cy="923.95" r="2.52"/>
				<circle fill="#012B48" cx="3559.73" cy="921.42" r="2.52"/>
				<circle fill="#012B48" cx="3562.26" cy="919.84" r="2.52"/>
				<circle fill="#012B48" cx="3525.01" cy="898.31" r="2.52"/>
				<circle fill="#012B48" cx="3526.66" cy="895.64" r="2.52"/>
				<circle fill="#012B48" cx="3529.19" cy="893.11" r="2.52"/>
				<circle fill="#012B48" cx="3489.98" cy="939.38" r="2.52"/>
				<circle fill="#012B48" cx="3449.93" cy="985.49" r="2.52"/>
				<circle fill="#012B48" cx="3447.41" cy="988.02" r="2.52"/>
				<circle fill="#012B48" cx="3444.88" cy="990.54" r="2.52"/>
				<circle fill="#012B48" cx="3417.02" cy="969.85" r="2.52"/>
				<circle fill="#012B48" cx="3417.02" cy="972.37" r="2.52"/>
				<circle fill="#012B48" cx="3417.02" cy="974.9" r="2.52"/>
				<circle fill="#012B48" cx="3427.57" cy="910.29" r="2.52"/>
				<circle fill="#012B48" cx="3434.3" cy="872.76" r="2.52"/>
				<circle fill="#012B48" cx="3434.3" cy="869.21" r="2.52"/>
				<circle fill="#012B48" cx="3434.3" cy="865.57" r="2.52"/>
				<circle fill="#012B48" cx="3408.11" cy="898.16" r="2.52"/>
				<circle fill="#012B48" cx="3361.86" cy="877.81" r="2.52"/>
				<circle fill="#012B48" cx="3360.27" cy="873.7" r="2.52"/>
				<circle fill="#012B48" cx="3358.68" cy="869.21" r="2.52"/>
				<circle fill="#012B48" cx="3378.33" cy="927.41" r="2.52"/>
				<circle fill="#012B48" cx="3387.19" cy="972.08" r="2.52"/>
				<circle fill="#012B48" cx="3388.16" cy="973.96" r="2.52"/>
				<circle fill="#012B48" cx="3390.03" cy="977.13" r="2.52"/>
				<circle fill="#012B48" cx="3366.31" cy="983.96" r="2.52"/>
				<circle fill="#012B48" cx="3368.83" cy="987.08" r="2.52"/>
				<circle fill="#012B48" cx="3371.36" cy="989.6" r="2.52"/>
				<circle fill="#012B48" cx="3332.54" cy="943.53" r="2.52"/>
				<circle fill="#012B48" cx="3297.08" cy="903.21" r="2.52"/>
				<circle fill="#012B48" cx="3294.55" cy="899.25" r="2.52"/>
				<circle fill="#012B48" cx="3292.28" cy="896.72" r="2.52"/>
				<circle fill="#012B48" cx="3292.28" cy="942.98" r="2.52"/>
				<circle fill="#012B48" cx="3314.81" cy="988.65" r="2.52"/>
				<circle fill="#012B48" cx="3278.39" cy="972.08" r="2.52"/>
				<circle fill="#012B48" cx="3258.28" cy="1001.77" r="2.52"/>
				<circle fill="#012B48" cx="3271.7" cy="1025.9" r="2.52"/>
				<circle fill="#012B48" cx="3334" cy="1043.03" r="2.52"/>
				<circle fill="#012B48" cx="3302.53" cy="1021.19" r="2.52"/>
				<circle fill="#012B48" cx="3345.87" cy="1018.33" r="2.52"/>
				<circle fill="#012B48" cx="3350.27" cy="1019.96" r="2.52"/>
				<circle fill="#012B48" cx="3352.79" cy="1021.19" r="2.52"/>
				<circle fill="#012B48" cx="3350.27" cy="1008.79" r="2.52"/>
				<circle fill="#012B48" cx="3353.73" cy="1009.6" r="2.52"/>
				<circle fill="#012B48" cx="3356.53" cy="1011.31" r="2.52"/>
				<circle fill="#012B48" cx="3343.35" cy="1058.64" r="2.52"/>
				<circle fill="#012B48" cx="3346.05" cy="1061.6" r="2.52"/>
				<circle fill="#012B48" cx="3348.39" cy="1063.69" r="2.52"/>
				<circle fill="#012B48" cx="3228.04" cy="1034.31" r="2.52"/>
				<circle fill="#012B48" cx="3224.49" cy="1034.31" r="2.52"/>
				<circle fill="#012B48" cx="3221.03" cy="1034.55" r="2.52"/>
				<circle fill="#012B48" cx="3228.04" cy="1057.4" r="2.52"/>
				<circle fill="#012B48" cx="3224.49" cy="1061.17" r="2.52"/>
				<circle fill="#012B48" cx="3221.96" cy="1063.69" r="2.52"/>
				<circle fill="#012B48" cx="3237.93" cy="979.56" r="2.52"/>
				<circle fill="#012B48" cx="3234.07" cy="978.41" r="2.52"/>
				<circle fill="#012B48" cx="3230.57" cy="977.04" r="2.52"/>
				<circle fill="#012B48" cx="3250.23" cy="953.8" r="2.52"/>
				<circle fill="#012B48" cx="3246.12" cy="951.98" r="2.52"/>
				<circle fill="#012B48" cx="3242.98" cy="949.45" r="2.52"/>
				<circle fill="#012B48" cx="3459.24" cy="1004.43" r="2.52"/>
				<circle fill="#012B48" cx="3455.74" cy="1005.52" r="2.52"/>
				<circle fill="#012B48" cx="3453.21" cy="1006.96" r="2.52"/>
				<circle fill="#012B48" cx="3463.64" cy="1307.9" r="2.52"/>
				<circle fill="#012B48" cx="3463.64" cy="1311.28" r="2.52"/>
				<circle fill="#012B48" cx="3463.64" cy="1313.8" r="2.52"/>
				<circle fill="#012B48" cx="3379.27" cy="1307.9" r="2.52"/>
				<circle fill="#012B48" cx="3379.27" cy="1311.28" r="2.52"/>
				<circle fill="#012B48" cx="3379.27" cy="1313.8" r="2.52"/>
				<circle fill="#012B48" cx="3287.42" cy="1266.8" r="2.52"/>
				<circle fill="#012B48" cx="3332.26" cy="1233.93" r="2.52"/>
				<circle fill="#012B48" cx="3268.19" cy="1231.41" r="2.52"/>
				<circle fill="#012B48" cx="3250.51" cy="1250.24" r="2.52"/>
				<circle fill="#012B48" cx="3247.99" cy="1266.39" r="2.52"/>
				<circle fill="#012B48" cx="3232.75" cy="1280.22" r="2.52"/>
				<circle fill="#012B48" cx="3230.22" cy="1292.24" r="2.52"/>
				<circle fill="#012B48" cx="3219.08" cy="1307.52" r="2.52"/>
				<circle fill="#012B48" cx="3215.62" cy="1310.43" r="2.52"/>
				<circle fill="#012B48" cx="3213.23" cy="1312.95" r="2.52"/>
				<path fill="#00C0F2" d="M3231.52,1056.2c-6.76-117.42,66.4-185.05,181.36-185.05c103.9,0,174.6,43.65,174.6,134.64
					c0,109.43-106.97,143.86-187.51,193.04v0.62h193.65v104.51h-370.71c-2.46-41.19,9.84-76.85,30.74-105.74
					c35.66-49.8,97.13-82.38,151.85-115.58c22.13-13.53,57.79-30.74,57.79-62.09c0-38.73-22.75-52.26-51.64-52.26
					c-49.18,0-65.78,35.66-64.55,87.91H3231.52z"/>
				<path fill="none" stroke="#012B48" d="M3228.04,1058.64c-6.79-117.96,66.7-185.89,182.18-185.89
					c104.37,0,175.39,43.85,175.39,135.25c0,109.93-107.46,144.51-188.36,193.92v0.62h194.53v104.99H3219.4
					c-2.47-41.38,9.88-77.2,30.88-106.22c35.82-50.02,97.58-82.75,152.54-116.1c22.23-13.59,58.05-30.88,58.05-62.37
					c0-38.91-22.85-52.49-51.88-52.49c-49.41,0-66.08,35.82-64.84,88.31H3228.04z"/>
				<path fill="none" stroke="#012B48" d="M3225.07,1061.6c-9.32-125.79,73.17-193.58,186.89-193.51
					c107.07,0.07,179.92,53.34,178.04,138.74c-2.69,122.24-130.14,156.38-184.78,192.99c19.81-1.48,191.11,0,191.11,0v110.52H3216.2
					c-2.53-42.45,5.44-75.44,26.98-105.21c36.74-51.32,96.75-86.81,156.48-121.92c22.81-13.94,59.15-28.87,58.61-61.17
					c-0.51-30.65-17.81-49.77-47.58-50.1c-46.91-0.51-65.91,35.81-64.64,89.66H3225.07z"/>
				<path fill="none" stroke="#012B48" d="M3221.86,1065.08c-9.4-126.87,69.01-200.82,188.51-200.82
					c107.99,0,184.19,53.94,183.35,142.76c-1.15,121.1-140.32,167.07-177.94,189.97c19.98-1.5,183.38,0,183.38,0v117.11h-386.24
					c-2.56-42.81,3.61-77.04,25.34-107.07c38.71-58.2,102.84-92.22,159.71-126.73c23-14.06,57.24-25.36,57.24-57.95
					c0-40.26-27.58-46.47-46.12-47.71c-38.31-2.56-63.22,33.41-60.5,90.44H3221.86z"/>
				<polyline fill="none" stroke="#012B48" points="3228.04,1058.64 3334.72,1043.03 3342.35,1057.34 				"/>
				<polyline fill="none" stroke="#012B48" points="3228.04,1058.64 3271.46,1024.34 3334.72,1043.03 3302.13,1021.46 
					3347.47,1018.4 				"/>
				<polyline fill="none" stroke="#012B48" points="3259,1002.29 3302.53,1021.4 3271.9,1024.75 3259,1001.91 3229.32,1032.96 
					3271.56,1024.38 				"/>
				<polyline fill="none" stroke="#012B48" points="3302.53,1021.19 3313.63,988.45 3350.27,1009.76 3292.48,942.98 3278.65,974.01 
					3239.53,979.2 				"/>
				<path fill="none" stroke="#012B48" d="M3313.63,984.56"/>
				<line fill="none" stroke="#012B48" x1="3313.59" y1="988.65" x2="3291.02" y2="943.53"/>
				<line fill="none" stroke="#012B48" x1="3291.02" y1="943.53" x2="3250.23" y2="953.8"/>
				<polyline fill="none" stroke="#012B48" points="3365.83,983.02 3292.28,942.38 3330.88,943.53 3365.83,983.02 3378.33,928.48 
					3330.88,943.53 3296.86,904.06 3292.28,942.38 3237.93,979.78 3258.04,1000.83 3278.65,974.01 3313.63,988.39 3259.07,1001.77 
									"/>
				<polyline fill="none" stroke="#012B48" points="3298.24,902.73 3377.81,927.48 3361.56,877.2 3408.01,898.59 3378.37,926.55 
					3428.65,910.27 3408.53,898.29 3434.41,872.76 3428.18,909.69 3489.52,939.98 3434.41,872.76 				"/>
				<polyline fill="none" stroke="#012B48" points="3387.53,972.08 3378.85,928.54 3417.11,969.85 3427.57,910.29 				"/>
				<polyline fill="none" stroke="#012B48" points="3417.11,969.85 3488.52,941.1 3451.66,984.56 3505.38,970.85 3513,968.91 
					3489.52,940.16 3524.51,899.25 3512.53,967.97 3555.66,924.65 				"/>
				<polyline fill="none" stroke="#012B48" points="3460.78,1003.79 3512.89,968.98 3524.99,1023.38 3581.98,974.05 3513.54,968.91 
									"/>
				<polyline fill="none" stroke="#012B48" points="3459.87,1003.51 3525.14,1023.38 3460.84,1023.38 				"/>
				<polyline fill="none" stroke="#012B48" points="3583.86,1021.19 3524.99,1023.38 3572.87,1068.43 3460.82,1031.08 
					3507.25,1060.76 3571.38,1068.96 				"/>
				<polyline fill="none" stroke="#012B48" points="3508.17,1060.84 3454.53,1046.46 3492.96,1100.54 3508.17,1061.78 
					3540.32,1110.6 3492.74,1101.04 3482.81,1151.82 3450.22,1097.66 3494.21,1101.02 				"/>
				<polyline fill="none" stroke="#012B48" points="3454.04,1047.5 3451.16,1098.5 3402.83,1086.18 3481.33,1152.76 
					3418.11,1132.65 3402.27,1086.2 3382.17,1146.55 3419.01,1132.75 3397.26,1202.54 3382.17,1147.13 3323.68,1166.78 
					3319.86,1137.92 3382.09,1146.53 				"/>
				<polyline fill="none" stroke="#012B48" points="3396.92,1201.14 3323.74,1166.78 3332.8,1233.77 3396.96,1203.14 
					3395.09,1222.27 3412.82,1219.85 3397.78,1203.16 3420.07,1217.48 3503.9,1202.54 3455.49,1240 3505.82,1273.07 
					3503.88,1204.16 				"/>
				<polyline fill="none" stroke="#012B48" points="3394.55,1222.75 3332.8,1233.77 3388.86,1275.89 3442.07,1251.51 
					3412.9,1219.93 3421.39,1218.05 3455.85,1240.46 				"/>
				<line fill="none" stroke="#012B48" x1="3394.55" y1="1222.75" x2="3388.86" y2="1275.89"/>
				<polyline fill="none" stroke="#012B48" points="3455.19,1240.4 3442.37,1251.2 3505.74,1273.07 3450.22,1273.07 
					3442.31,1252.62 				"/>
				<polyline fill="none" stroke="#012B48" points="3450.22,1273.07 3388.89,1275.89 3463.64,1307.52 3450.89,1274.81 				"/>
				<polyline fill="none" stroke="#012B48" points="3504.56,1203.38 3540.16,1245.59 3506.43,1272.19 				"/>
				<polyline fill="none" stroke="#012B48" points="3388.86,1275.89 3379.05,1307.9 3320.6,1289.36 3388.86,1275.89 				"/>
				<polyline fill="none" stroke="#012B48" points="3332.8,1234.03 3321.54,1289.45 3286.41,1266.72 3332.26,1233.93 
					3268.34,1231.5 3250.01,1203.38 				"/>
				<polyline fill="none" stroke="#012B48" points="3267.34,1231.86 3235.27,1228.62 3250.37,1249.32 3269.28,1231.42 
					3286.41,1266.8 3251.01,1249.17 3247.85,1264.93 3285.31,1266.72 				"/>
				<polyline fill="none" stroke="#012B48" points="3223.69,1263.49 3247.43,1265.36 3232.98,1279.8 3220.53,1291.9 3229.92,1291.9 
					3233.39,1280.02 3285.53,1267.58 				"/>
				<polyline fill="none" stroke="#012B48" points="3233.39,1280.02 3321,1289.45 3229.92,1291.9 3220.43,1306.97 3321,1289.45 				
					"/>
				<line fill="none" stroke="#012B48" x1="3252.1" y1="1201.6" x2="3330.89" y2="1233.77"/>
				<path fill="#012B48" d="M3319.86,1136.98c0,0-32.94,23.59-40.88,31.67c-8.27,8.42-28.77,32-28.77,32l82.04,33.27
					L3319.86,1136.98z"/>
				<line fill="none" stroke="#012B48" x1="3334.65" y1="1042.28" x2="3345.22" y2="1019.02"/>
				<polyline fill="none" stroke="#012B48" points="3594.31,1203.38 3539.85,1245.52 3591.78,1307.9 3506.26,1274.36 				"/>
				<line fill="none" stroke="#012B48" x1="3505.82" y1="1273.07" x2="3463.64" y2="1307.52"/>
				<rect fill="none" width="3840" height="2160"/>
			</g>
		</g>
		<g>
			<g>
				<circle fill="#012B48" cx="2538.11" cy="1066.7" r="2.52"/>
				<circle fill="#012B48" cx="2540.64" cy="1066.7" r="2.52"/>
				<circle fill="#012B48" cx="2543.16" cy="1066.7" r="2.52"/>
				<circle fill="#012B48" cx="2538.11" cy="1091.52" r="2.52"/>
				<circle fill="#012B48" cx="2540.64" cy="1091.52" r="2.52"/>
				<circle fill="#012B48" cx="2543.16" cy="1091.52" r="2.52"/>
				<circle fill="#012B48" cx="2539.99" cy="1117.33" r="2.52"/>
				<circle fill="#012B48" cx="2542.51" cy="1117.33" r="2.52"/>
				<circle fill="#012B48" cx="2545.04" cy="1117.33" r="2.52"/>
				<circle fill="#012B48" cx="2479.46" cy="1160.94" r="2.52"/>
				<circle fill="#012B48" cx="2494.32" cy="1103.89" r="2.52"/>
				<circle fill="#012B48" cx="2461.49" cy="1083.52" r="2.52"/>
				<circle fill="#012B48" cx="2458.65" cy="1126.64" r="2.52"/>
				<circle fill="#012B48" cx="2422.23" cy="1092.47" r="2.52"/>
				<circle fill="#012B48" cx="2418.14" cy="1092.12" r="2.52"/>
				<circle fill="#012B48" cx="2414.01" cy="1091.52" r="2.52"/>
				<circle fill="#012B48" cx="2423.81" cy="1130.66" r="2.52"/>
				<circle fill="#012B48" cx="2419.7" cy="1130.66" r="2.52"/>
				<circle fill="#012B48" cx="2415.62" cy="1131.6" r="2.52"/>
				<circle fill="#012B48" cx="2427.33" cy="1159.25" r="2.52"/>
				<circle fill="#012B48" cx="2485.69" cy="1208.32" r="2.52"/>
				<circle fill="#012B48" cx="2484.75" cy="1266.14" r="2.52"/>
				<circle fill="#012B48" cx="2482.23" cy="1268.67" r="2.52"/>
				<circle fill="#012B48" cx="2479.7" cy="1271.19" r="2.52"/>
				<circle fill="#012B48" cx="2540.64" cy="1255.14" r="2.52"/>
				<circle fill="#012B48" cx="2558.52" cy="1194.96" r="2.52"/>
				<circle fill="#012B48" cx="2561.04" cy="1192.71" r="2.52"/>
				<circle fill="#012B48" cx="2563.57" cy="1190.18" r="2.52"/>
				<circle fill="#012B48" cx="2588.39" cy="1216.54" r="2.52"/>
				<circle fill="#012B48" cx="2580.37" cy="1276.43" r="2.52"/>
				<circle fill="#012B48" cx="2572.68" cy="1309.5" r="2.52"/>
				<circle fill="#012B48" cx="2572.68" cy="1313.7" r="2.52"/>
				<circle fill="#012B48" cx="2572.68" cy="1317.91" r="2.52"/>
				<circle fill="#012B48" cx="2633.54" cy="1310.23" r="2.52"/>
				<circle fill="#012B48" cx="2633.54" cy="1313.7" r="2.52"/>
				<circle fill="#012B48" cx="2633.54" cy="1317.91" r="2.52"/>
				<circle fill="#012B48" cx="2627.67" cy="1274.05" r="2.52"/>
				<circle fill="#012B48" cx="2640.48" cy="1263.59" r="2.52"/>
				<circle fill="#012B48" cx="2619.41" cy="1215.6" r="2.52"/>
				<circle fill="#012B48" cx="2619.41" cy="1211.79" r="2.52"/>
				<circle fill="#012B48" cx="2619.41" cy="1209.26" r="2.52"/>
				<circle fill="#012B48" cx="2653.43" cy="1187.66" r="2.52"/>
				<circle fill="#012B48" cx="2650.91" cy="1186.09" r="2.52"/>
				<circle fill="#012B48" cx="2648.38" cy="1185.13" r="2.52"/>
				<circle fill="#012B48" cx="2691.3" cy="1249.47" r="2.52"/>
				<circle fill="#012B48" cx="2700.33" cy="1212.73" r="2.52"/>
				<circle fill="#012B48" cx="2742.34" cy="1244.44" r="2.52"/>
				<circle fill="#012B48" cx="2746.41" cy="1246.94" r="2.52"/>
				<circle fill="#012B48" cx="2750.48" cy="1249.47" r="2.52"/>
				<circle fill="#012B48" cx="2711.62" cy="1160.44" r="2.52"/>
				<circle fill="#012B48" cx="2781.32" cy="1151.62" r="2.52"/>
				<circle fill="#012B48" cx="2786.06" cy="1151.62" r="2.52"/>
				<circle fill="#012B48" cx="2790.81" cy="1151.62" r="2.52"/>
				<circle fill="#012B48" cx="2666.69" cy="1146.19" r="2.52"/>
				<circle fill="#012B48" cx="2664.17" cy="1146.19" r="2.52"/>
				<circle fill="#012B48" cx="2660.62" cy="1146.19" r="2.52"/>
				<circle fill="#012B48" cx="2707.26" cy="1123.14" r="2.52"/>
				<circle fill="#012B48" cx="2728.87" cy="1075.24" r="2.52"/>
				<circle fill="#012B48" cx="2784.63" cy="1055.53" r="2.52"/>
				<circle fill="#012B48" cx="2788.58" cy="1055.53" r="2.52"/>
				<circle fill="#012B48" cx="2793.33" cy="1055.53" r="2.52"/>
				<circle fill="#012B48" cx="2743.73" cy="1043.2" r="2.52"/>
				<circle fill="#012B48" cx="2696.87" cy="1036.92" r="2.52"/>
				<circle fill="#012B48" cx="2774.41" cy="1002.12" r="2.52"/>
				<circle fill="#012B48" cx="2716.67" cy="996.14" r="2.52"/>
				<circle fill="#012B48" cx="2664.46" cy="1025.83" r="2.52"/>
				<circle fill="#012B48" cx="2661.64" cy="1027.21" r="2.52"/>
				<circle fill="#012B48" cx="2659.12" cy="1029.73" r="2.52"/>
				<circle fill="#012B48" cx="2648.16" cy="988.63" r="2.52"/>
				<circle fill="#012B48" cx="2681.43" cy="966.09" r="2.52"/>
				<circle fill="#012B48" cx="2641.21" cy="947.63" r="2.52"/>
				<circle fill="#012B48" cx="2610.78" cy="967.52" r="2.52"/>
				<circle fill="#012B48" cx="2610.78" cy="970.34" r="2.52"/>
				<circle fill="#012B48" cx="2610.78" cy="974.08" r="2.52"/>
				<circle fill="#012B48" cx="2623.54" cy="917.67" r="2.52"/>
				<circle fill="#012B48" cx="2633.54" cy="875.28" r="2.52"/>
				<circle fill="#012B48" cx="2633.54" cy="870.32" r="2.52"/>
				<circle fill="#012B48" cx="2587.53" cy="909.79" r="2.52"/>
				<circle fill="#012B48" cx="2573.16" cy="875.28" r="2.52"/>
				<circle fill="#012B48" cx="2553.51" cy="906.37" r="2.52"/>
				<circle fill="#012B48" cx="2535.54" cy="919.12" r="2.52"/>
				<circle fill="#012B48" cx="2499.11" cy="906.37" r="2.52"/>
				<circle fill="#012B48" cx="2495.65" cy="903.85" r="2.52"/>
				<circle fill="#012B48" cx="2493.12" cy="900.38" r="2.52"/>
				<circle fill="#012B48" cx="2531.72" cy="944.54" r="2.52"/>
				<circle fill="#012B48" cx="2565.16" cy="982.14" r="2.52"/>
				<circle fill="#012B48" cx="2567.68" cy="984.66" r="2.52"/>
				<circle fill="#012B48" cx="2570.2" cy="987.19" r="2.52"/>
				<circle fill="#012B48" cx="2550.04" cy="1007" r="2.52"/>
				<circle fill="#012B48" cx="2552.57" cy="1008.28" r="2.52"/>
				<circle fill="#012B48" cx="2555.09" cy="1010.17" r="2.52"/>
				<circle fill="#012B48" cx="2519" cy="968.91" r="2.52"/>
				<circle fill="#012B48" cx="2486.21" cy="970.34" r="2.52"/>
				<circle fill="#012B48" cx="2430.66" cy="1010.68" r="2.52"/>
				<circle fill="#012B48" cx="2427.19" cy="1009.74" r="2.52"/>
				<circle fill="#012B48" cx="2423.81" cy="1061.35" r="2.52"/>
				<circle fill="#012B48" cx="2419.7" cy="1061.35" r="2.52"/>
				<circle fill="#012B48" cx="2415.62" cy="1061.35" r="2.52"/>
				<circle fill="#012B48" cx="2474.01" cy="1049.46" r="2.52"/>
				<circle fill="#012B48" cx="2423.81" cy="1008.28" r="2.52"/>
				<circle fill="#012B48" cx="2494.32" cy="1007.65" r="2.52"/>
				<circle fill="#012B48" cx="2507.02" cy="1029.85" r="2.52"/>
				<circle fill="#012B48" cx="2540.96" cy="1039.66" r="2.52"/>
				<circle fill="#012B48" cx="2543.49" cy="1040.67" r="2.52"/>
				<circle fill="#012B48" cx="2545.68" cy="1042.18" r="2.52"/>
				<circle fill="#012B48" cx="2451.06" cy="962.47" r="2.52"/>
				<circle fill="#012B48" cx="2447.11" cy="961.04" r="2.52"/>
				<circle fill="#012B48" cx="2443" cy="959.95" r="2.52"/>
				<circle fill="#012B48" cx="2573.16" cy="870.32" r="2.52"/>
				<circle fill="#012B48" cx="2573.16" cy="865.09" r="2.52"/>
				<circle fill="#012B48" cx="2542.98" cy="883.23" r="2.52"/>
				<circle fill="#012B48" cx="2540.96" cy="879.12" r="2.52"/>
				<circle fill="#012B48" cx="2538.44" cy="875.28" r="2.52"/>
				<circle fill="#012B48" cx="2581.36" cy="971.55" r="2.52"/>
				<circle fill="#012B48" cx="2582.49" cy="974.45" r="2.52"/>
				<circle fill="#012B48" cx="2583.89" cy="978.09" r="2.52"/>
				<circle fill="#012B48" cx="2633.54" cy="865.09" r="2.52"/>
				<circle fill="#012B48" cx="2733.65" cy="930.17" r="2.52"/>
				<circle fill="#012B48" cx="2737.76" cy="927.65" r="2.52"/>
				<circle fill="#012B48" cx="2741.4" cy="925.12" r="2.52"/>
				<circle fill="#012B48" cx="2691.53" cy="896.28" r="2.52"/>
				<circle fill="#012B48" cx="2694.06" cy="892.66" r="2.52"/>
				<circle fill="#012B48" cx="2696.87" cy="888.94" r="2.52"/>
				<circle fill="#012B48" cx="2645.64" cy="991.15" r="2.52"/>
				<circle fill="#012B48" cx="2643.11" cy="993.68" r="2.52"/>
				<circle fill="#012B48" cx="2669.51" cy="1067.01" r="2.52"/>
				<circle fill="#012B48" cx="2666.98" cy="1067.01" r="2.52"/>
				<circle fill="#012B48" cx="2664.46" cy="1067.01" r="2.52"/>
				<circle fill="#012B48" cx="2588.39" cy="1212.73" r="2.52"/>
				<circle fill="#012B48" cx="2589.33" cy="1209.26" r="2.52"/>
				<circle fill="#012B48" cx="2423.81" cy="1160.69" r="2.52"/>
				<circle fill="#012B48" cx="2420.67" cy="1161.77" r="2.52"/>
				<circle fill="#012B48" cx="2461.25" cy="1063.87" r="2.52"/>
				<path fill="#00C0F2" d="M2600.76,871.15c78.08,0,182.59,53.49,182.59,218.86s-104.51,218.86-181.97,218.86
					s-181.97-53.49-181.97-218.86S2523.91,871.15,2600.76,871.15z M2600.76,1214.81c62.71,0,65.78-79.31,65.78-124.8
					c0-44.26-3.07-124.8-64.55-124.8c-63.32,0-65.78,78.69-65.78,124.8C2536.21,1134.89,2538.67,1214.81,2600.76,1214.81z"/>
				<polyline fill="none" stroke="#012B48" points="2633.54,875.28 2587.53,909.79 2623.46,916.38 2610.54,966.38 2587.53,910.35 
					2581.3,968.91 2553.51,906.37 2573.16,875.28 2587.04,910.13 				"/>
				<polyline fill="none" stroke="#012B48" points="2623.46,916.4 2633.54,874.9 2641.21,947.63 2623.54,917.67 				"/>
				<polyline fill="none" stroke="#012B48" points="2633.54,875.28 2681.47,966.38 2641.21,948.17 2647.92,988.02 2681.43,966.09 
					2716.92,996.14 2649.9,989.6 				"/>
				<polyline fill="none" stroke="#012B48" points="2691.53,896.28 2682.18,964.99 2733.65,930.17 				"/>
				<polyline fill="none" stroke="#012B48" points="2681.94,966.09 2774.41,1002.56 2716.92,996.14 2696.79,1036.29 2773.39,1003.2 
					2744.25,1043.2 2696.33,1036.34 2664.76,1026.54 				"/>
				<polyline fill="none" stroke="#012B48" points="2696.25,1036.92 2670.45,1066.43 2743.73,1043.75 2728.44,1075.5 
					2783.53,1054.99 2744.33,1043.34 				"/>
				<polyline fill="none" stroke="#012B48" points="2729.28,1075.5 2669.51,1066.7 2706.98,1123.14 2728.87,1075.24 				"/>
				<polyline fill="none" stroke="#012B48" points="2784.63,1055.53 2707.87,1123.14 2781.14,1150.99 2711.62,1160.44 
					2706.98,1123.14 2667.63,1146.05 2711.67,1161.08 2700.66,1212.73 2666.69,1146.19 				"/>
				<polyline fill="none" stroke="#012B48" points="2781.32,1151.62 2700.66,1212.73 2742.34,1244.44 2691.3,1249.47 
					2700.66,1212.73 2654.63,1188.72 2691.3,1249.47 2633.54,1309.5 2654.57,1188.34 				"/>
				<polyline fill="none" stroke="#012B48" points="2619.41,1217.48 2640.48,1265.13 2627.67,1274.05 2619.41,1217.48 
					2581.3,1276.43 2627.67,1274.05 				"/>
				<polyline fill="none" stroke="#012B48" points="2628.39,1274.25 2632.57,1309.69 2580.43,1276.13 2587.63,1217.48 
					2540.03,1254.7 2572.46,1308.55 2580.37,1276.43 2540.03,1254.74 				"/>
				<polyline fill="none" stroke="#012B48" points="2558.52,1194.96 2486.17,1209.09 2539.09,1117.33 2479.46,1160.94 
					2486.17,1209.09 2428.88,1159.97 2478.5,1160.71 2424.8,1130.73 2458.35,1126.66 2479.46,1160.94 				"/>
				<polyline fill="none" stroke="#012B48" points="2458.65,1126.64 2538.11,1117.56 2493.84,1104.15 2458.35,1126.66 
					2422.23,1092.47 2494.01,1103.91 2461.49,1083.52 2422.73,1091.92 2461.25,1063.87 2461.01,1083.7 2538.11,1066.7 
					2494.1,1103.87 2538.11,1091.67 				"/>
				<polyline fill="none" stroke="#012B48" points="2422.93,1060.76 2462.21,1063.83 2431.59,1010.68 2473.99,1049.26 
					2461.55,1063.83 2538.11,1066.7 2474.01,1049.46 2507.02,1029.85 2431.59,1010.68 2494.56,1008.28 2506.3,1029.55 
					2540.96,1039.66 				"/>
				<polyline fill="none" stroke="#012B48" points="2431.59,1010.68 2485.71,971.43 2493.62,1008.02 2548.71,1006.36 
					2486.21,970.34 2519,968.91 2548.91,1006.3 				"/>
				<polyline fill="none" stroke="#012B48" points="2453.58,962.99 2486.35,970.34 2499.11,907.89 2519.24,968.91 2531.72,944.54 
					2499.37,907.16 2535.77,918.66 2532.2,944.24 2565.16,982.14 				"/>
				<polyline fill="none" stroke="#012B48" points="2542.98,884.17 2553.51,906.37 2535.54,919.12 2581.36,970.34 				"/>
				<polyline fill="none" stroke="#012B48" points="2485.69,1208.97 2485.69,1266.14 2539.99,1254.64 				"/>
				<path fill="#012B48" d="M2558.7,1195.23l-73.01,13.74l-0.2,57.43l54.5-12.06l48.41-37.8c0,0-14.08-5.01-19.11-9.33
					S2558.7,1195.23,2558.7,1195.23z"/>
				<path fill="none" stroke="#012B48" d="M2603.63,872.76c78.43,0,183.42,53.73,183.42,219.85s-104.99,219.85-182.8,219.85
					c-77.81,0-182.8-53.73-182.8-219.85S2526.43,872.76,2603.63,872.76z M2603.63,1217.98c62.99,0,66.08-79.67,66.08-125.37
					c0-44.46-3.09-125.37-64.84-125.37c-63.61,0-66.08,79.05-66.08,125.37C2538.79,1137.69,2541.26,1217.98,2603.63,1217.98z"/>
				<path fill="none" stroke="#012B48" d="M2603.84,868.02c79.95,0,186.96,54.77,186.96,224.1c0,169.34-107.02,224.1-186.33,224.1
					c-79.32,0-186.33-54.77-186.33-224.1C2418.14,922.78,2525.16,868.02,2603.84,868.02z M2604.14,1214.6
					c61.37,0,62.5-77.61,62.5-122.13c0-43.32-1.13-122.13-61.29-122.13c-61.97,0-64.37,77.01-64.37,122.13
					C2540.96,1136.39,2543.37,1214.6,2604.14,1214.6z"/>
				<path fill="none" stroke="#012B48" d="M2603.67,863.04c81.65,0,190.95,55.93,190.95,228.88c0,172.95-109.3,228.88-190.31,228.88
					c-81.01,0-190.3-55.93-190.3-228.88C2414.01,918.98,2523.3,863.04,2603.67,863.04z M2604.08,1210.85
					c59.48,0,60.58-75.23,60.58-118.39c0-41.99-1.1-118.39-59.41-118.39c-60.07,0-62.4,74.65-62.4,118.39
					C2542.84,1135.04,2545.17,1210.85,2604.08,1210.85z"/>
				<circle fill="#012B48" cx="2778.79" cy="1000.85" r="2.52"/>
				<circle fill="#012B48" cx="2781.32" cy="999.6" r="2.52"/>
				<rect fill="none" width="3840" height="2160"/>
			</g>
		</g>
		<g>
			<g>
				<circle fill="#012B48" cx="2115.49" cy="1289.71" r="2.52"/>
				<circle fill="#012B48" cx="2183.13" cy="1275.89" r="2.52"/>
				<circle fill="#012B48" cx="2244.5" cy="1273.07" r="2.52"/>
				<circle fill="#012B48" cx="2236.59" cy="1251.27" r="2.52"/>
				<circle fill="#012B48" cx="2250.13" cy="1240.4" r="2.52"/>
				<circle fill="#012B48" cx="2300.01" cy="1273.36" r="2.52"/>
				<circle fill="#012B48" cx="2334.6" cy="1245.52" r="2.52"/>
				<circle fill="#012B48" cx="2386.06" cy="1203.38" r="2.52"/>
				<circle fill="#012B48" cx="2386.06" cy="1307.9" r="2.52"/>
				<circle fill="#012B48" cx="2390.62" cy="1311.28" r="2.52"/>
				<circle fill="#012B48" cx="2393.14" cy="1313.8" r="2.52"/>
				<circle fill="#012B48" cx="2390.62" cy="1200.01" r="2.52"/>
				<circle fill="#012B48" cx="2393.44" cy="1197.49" r="2.52"/>
				<circle fill="#012B48" cx="2297.9" cy="1202.54" r="2.52"/>
				<circle fill="#012B48" cx="2297.49" cy="1199.27" r="2.52"/>
				<circle fill="#012B48" cx="2297.49" cy="1196.75" r="2.52"/>
				<circle fill="#012B48" cx="2214.48" cy="1217.69" r="2.52"/>
				<circle fill="#012B48" cx="2206.53" cy="1220.21" r="2.52"/>
				<circle fill="#012B48" cx="2188.82" cy="1222.75" r="2.52"/>
				<circle fill="#012B48" cx="2191.35" cy="1202.44" r="2.52"/>
				<circle fill="#012B48" cx="2200.32" cy="1199.27" r="2.52"/>
				<circle fill="#012B48" cx="2209.05" cy="1196.75" r="2.52"/>
				<circle fill="#012B48" cx="2118.01" cy="1166.78" r="2.52"/>
				<circle fill="#012B48" cx="2176.07" cy="1146.67" r="2.52"/>
				<circle fill="#012B48" cx="2113.29" cy="1137.27" r="2.52"/>
				<circle fill="#012B48" cx="2111.61" cy="1134.2" r="2.52"/>
				<circle fill="#012B48" cx="2110.03" cy="1130.73" r="2.52"/>
				<circle fill="#012B48" cx="2091.99" cy="1150.05" r="2.52"/>
				<circle fill="#012B48" cx="2089.52" cy="1147.68" r="2.52"/>
				<circle fill="#012B48" cx="2087.59" cy="1145.08" r="2.52"/>
				<circle fill="#012B48" cx="2044.14" cy="1201.79" r="2.52"/>
				<circle fill="#012B48" cx="2041.62" cy="1200.01" r="2.52"/>
				<circle fill="#012B48" cx="2039.09" cy="1197.49" r="2.52"/>
				<circle fill="#012B48" cx="2029.55" cy="1227.54" r="2.52"/>
				<circle fill="#012B48" cx="2025.78" cy="1225.02" r="2.52"/>
				<circle fill="#012B48" cx="2022.32" cy="1223.01" r="2.52"/>
				<circle fill="#012B48" cx="2015.88" cy="1263.87" r="2.52"/>
				<circle fill="#012B48" cx="2012.55" cy="1262.55" r="2.52"/>
				<circle fill="#012B48" cx="2009.18" cy="1261.75" r="2.52"/>
				<circle fill="#012B48" cx="2010.03" cy="1292.24" r="2.52"/>
				<circle fill="#012B48" cx="2013.36" cy="1292.24" r="2.52"/>
				<circle fill="#012B48" cx="2006.65" cy="1292.24" r="2.52"/>
				<circle fill="#012B48" cx="2212.54" cy="1133.26" r="2.52"/>
				<circle fill="#012B48" cx="2196.39" cy="1085.72" r="2.52"/>
				<circle fill="#012B48" cx="2193.87" cy="1082.46" r="2.52"/>
				<circle fill="#012B48" cx="2191.41" cy="1079.94" r="2.52"/>
				<circle fill="#012B48" cx="2244.5" cy="1097.68" r="2.52"/>
				<circle fill="#012B48" cx="2278.13" cy="1153.51" r="2.52"/>
				<circle fill="#012B48" cx="2280.01" cy="1156.97" r="2.52"/>
				<circle fill="#012B48" cx="2281.6" cy="1159.5" r="2.52"/>
				<circle fill="#012B48" cx="2286.78" cy="1100.2" r="2.52"/>
				<circle fill="#012B48" cx="2334.44" cy="1110.74" r="2.52"/>
				<circle fill="#012B48" cx="2337.12" cy="1113.27" r="2.52"/>
				<circle fill="#012B48" cx="2339.65" cy="1115.79" r="2.52"/>
				<circle fill="#012B48" cx="2302.62" cy="1059.93" r="2.52"/>
				<circle fill="#012B48" cx="2248.61" cy="1045.72" r="2.52"/>
				<circle fill="#012B48" cx="2246.08" cy="1044.28" r="2.52"/>
				<circle fill="#012B48" cx="2243.56" cy="1043.2" r="2.52"/>
				<circle fill="#012B48" cx="2255.06" cy="1031.78" r="2.52"/>
				<circle fill="#012B48" cx="2252.07" cy="1031.78" r="2.52"/>
				<circle fill="#012B48" cx="2248.91" cy="1031.88" r="2.52"/>
				<circle fill="#012B48" cx="2255.12" cy="1023.38" r="2.52"/>
				<circle fill="#012B48" cx="2252.6" cy="1023.38" r="2.52"/>
				<circle fill="#012B48" cx="2250.01" cy="1023.38" r="2.52"/>
				<circle fill="#012B48" cx="2366.73" cy="1068.96" r="2.52"/>
				<circle fill="#012B48" cx="2369.25" cy="1071.48" r="2.52"/>
				<circle fill="#012B48" cx="2371.78" cy="1072.98" r="2.52"/>
				<circle fill="#012B48" cx="2319.41" cy="1023.38" r="2.52"/>
				<circle fill="#012B48" cx="2380.66" cy="1020.85" r="2.52"/>
				<circle fill="#012B48" cx="2384.12" cy="1020.85" r="2.52"/>
				<circle fill="#012B48" cx="2387.08" cy="1021.19" r="2.52"/>
				<circle fill="#012B48" cx="2375.61" cy="974.6" r="2.52"/>
				<circle fill="#012B48" cx="2379.51" cy="973.96" r="2.52"/>
				<circle fill="#012B48" cx="2384.55" cy="973.96" r="2.52"/>
				<circle fill="#012B48" cx="2306.35" cy="968.91" r="2.52"/>
				<circle fill="#012B48" cx="2350.44" cy="923.95" r="2.52"/>
				<circle fill="#012B48" cx="2354.01" cy="921.42" r="2.52"/>
				<circle fill="#012B48" cx="2356.53" cy="919.84" r="2.52"/>
				<circle fill="#012B48" cx="2319.28" cy="898.31" r="2.52"/>
				<circle fill="#012B48" cx="2320.94" cy="895.64" r="2.52"/>
				<circle fill="#012B48" cx="2323.46" cy="893.11" r="2.52"/>
				<circle fill="#012B48" cx="2284.26" cy="939.38" r="2.52"/>
				<circle fill="#012B48" cx="2244.21" cy="985.49" r="2.52"/>
				<circle fill="#012B48" cx="2241.68" cy="988.02" r="2.52"/>
				<circle fill="#012B48" cx="2239.16" cy="990.54" r="2.52"/>
				<circle fill="#012B48" cx="2211.3" cy="969.85" r="2.52"/>
				<circle fill="#012B48" cx="2211.3" cy="972.37" r="2.52"/>
				<circle fill="#012B48" cx="2211.3" cy="974.9" r="2.52"/>
				<circle fill="#012B48" cx="2221.85" cy="910.29" r="2.52"/>
				<circle fill="#012B48" cx="2228.58" cy="872.76" r="2.52"/>
				<circle fill="#012B48" cx="2228.58" cy="869.21" r="2.52"/>
				<circle fill="#012B48" cx="2228.58" cy="865.57" r="2.52"/>
				<circle fill="#012B48" cx="2202.38" cy="898.16" r="2.52"/>
				<circle fill="#012B48" cx="2156.13" cy="877.81" r="2.52"/>
				<circle fill="#012B48" cx="2154.55" cy="873.7" r="2.52"/>
				<circle fill="#012B48" cx="2152.96" cy="869.21" r="2.52"/>
				<circle fill="#012B48" cx="2172.61" cy="927.41" r="2.52"/>
				<circle fill="#012B48" cx="2181.46" cy="972.08" r="2.52"/>
				<circle fill="#012B48" cx="2182.43" cy="973.96" r="2.52"/>
				<circle fill="#012B48" cx="2184.31" cy="977.13" r="2.52"/>
				<circle fill="#012B48" cx="2160.59" cy="983.96" r="2.52"/>
				<circle fill="#012B48" cx="2163.11" cy="987.08" r="2.52"/>
				<circle fill="#012B48" cx="2165.64" cy="989.6" r="2.52"/>
				<circle fill="#012B48" cx="2126.82" cy="943.53" r="2.52"/>
				<circle fill="#012B48" cx="2091.35" cy="903.21" r="2.52"/>
				<circle fill="#012B48" cx="2088.83" cy="899.25" r="2.52"/>
				<circle fill="#012B48" cx="2086.56" cy="896.72" r="2.52"/>
				<circle fill="#012B48" cx="2086.56" cy="942.98" r="2.52"/>
				<circle fill="#012B48" cx="2109.09" cy="988.65" r="2.52"/>
				<circle fill="#012B48" cx="2072.66" cy="972.08" r="2.52"/>
				<circle fill="#012B48" cx="2052.55" cy="1001.77" r="2.52"/>
				<circle fill="#012B48" cx="2065.97" cy="1025.9" r="2.52"/>
				<circle fill="#012B48" cx="2128.28" cy="1043.03" r="2.52"/>
				<circle fill="#012B48" cx="2096.81" cy="1021.19" r="2.52"/>
				<circle fill="#012B48" cx="2140.15" cy="1018.33" r="2.52"/>
				<circle fill="#012B48" cx="2144.55" cy="1019.96" r="2.52"/>
				<circle fill="#012B48" cx="2147.07" cy="1021.19" r="2.52"/>
				<circle fill="#012B48" cx="2144.55" cy="1008.79" r="2.52"/>
				<circle fill="#012B48" cx="2148.01" cy="1009.6" r="2.52"/>
				<circle fill="#012B48" cx="2150.8" cy="1011.31" r="2.52"/>
				<circle fill="#012B48" cx="2137.62" cy="1058.64" r="2.52"/>
				<circle fill="#012B48" cx="2140.33" cy="1061.6" r="2.52"/>
				<circle fill="#012B48" cx="2142.67" cy="1063.69" r="2.52"/>
				<circle fill="#012B48" cx="2022.32" cy="1034.31" r="2.52"/>
				<circle fill="#012B48" cx="2018.77" cy="1034.31" r="2.52"/>
				<circle fill="#012B48" cx="2015.3" cy="1034.55" r="2.52"/>
				<circle fill="#012B48" cx="2022.32" cy="1057.4" r="2.52"/>
				<circle fill="#012B48" cx="2018.77" cy="1061.17" r="2.52"/>
				<circle fill="#012B48" cx="2016.24" cy="1063.69" r="2.52"/>
				<circle fill="#012B48" cx="2032.2" cy="979.56" r="2.52"/>
				<circle fill="#012B48" cx="2028.35" cy="978.41" r="2.52"/>
				<circle fill="#012B48" cx="2024.85" cy="977.04" r="2.52"/>
				<circle fill="#012B48" cx="2044.5" cy="953.8" r="2.52"/>
				<circle fill="#012B48" cx="2040.39" cy="951.98" r="2.52"/>
				<circle fill="#012B48" cx="2037.25" cy="949.45" r="2.52"/>
				<circle fill="#012B48" cx="2253.52" cy="1004.43" r="2.52"/>
				<circle fill="#012B48" cx="2250.01" cy="1005.52" r="2.52"/>
				<circle fill="#012B48" cx="2247.49" cy="1006.96" r="2.52"/>
				<circle fill="#012B48" cx="2257.92" cy="1307.9" r="2.52"/>
				<circle fill="#012B48" cx="2257.92" cy="1311.28" r="2.52"/>
				<circle fill="#012B48" cx="2257.92" cy="1313.8" r="2.52"/>
				<circle fill="#012B48" cx="2173.55" cy="1307.9" r="2.52"/>
				<circle fill="#012B48" cx="2173.55" cy="1311.28" r="2.52"/>
				<circle fill="#012B48" cx="2173.55" cy="1313.8" r="2.52"/>
				<circle fill="#012B48" cx="2081.7" cy="1266.8" r="2.52"/>
				<circle fill="#012B48" cx="2126.54" cy="1233.93" r="2.52"/>
				<circle fill="#012B48" cx="2062.47" cy="1231.41" r="2.52"/>
				<circle fill="#012B48" cx="2044.79" cy="1250.24" r="2.52"/>
				<circle fill="#012B48" cx="2042.26" cy="1266.39" r="2.52"/>
				<circle fill="#012B48" cx="2027.02" cy="1280.22" r="2.52"/>
				<circle fill="#012B48" cx="2024.5" cy="1292.24" r="2.52"/>
				<circle fill="#012B48" cx="2013.36" cy="1307.52" r="2.52"/>
				<circle fill="#012B48" cx="2009.89" cy="1310.43" r="2.52"/>
				<circle fill="#012B48" cx="2007.5" cy="1312.95" r="2.52"/>
				<path fill="#00C0F2" d="M2023.49,1056.2c-6.76-117.42,66.4-185.05,181.36-185.05c103.9,0,174.6,43.65,174.6,134.64
					c0,109.43-106.97,143.86-187.51,193.04v0.62h193.65v104.51h-370.71c-2.46-41.19,9.84-76.85,30.74-105.74
					c35.66-49.8,97.13-82.38,151.85-115.58c22.13-13.53,57.79-30.74,57.79-62.09c0-38.73-22.75-52.26-51.64-52.26
					c-49.18,0-65.78,35.66-64.55,87.91H2023.49z"/>
				<path fill="none" stroke="#012B48" d="M2022.32,1058.64c-6.79-117.96,66.7-185.89,182.18-185.89
					c104.37,0,175.39,43.85,175.39,135.25c0,109.93-107.46,144.51-188.36,193.92v0.62h194.53v104.99h-372.39
					c-2.47-41.38,9.88-77.2,30.88-106.22c35.82-50.02,97.58-82.75,152.54-116.1c22.23-13.59,58.05-30.88,58.05-62.37
					c0-38.91-22.85-52.49-51.88-52.49c-49.41,0-66.08,35.82-64.84,88.31H2022.32z"/>
				<path fill="none" stroke="#012B48" d="M2019.35,1061.6c-9.32-125.79,73.17-193.58,186.89-193.51
					c107.07,0.07,179.92,53.34,178.04,138.74c-2.69,122.24-130.14,156.38-184.78,192.99c19.81-1.48,191.11,0,191.11,0v110.52
					h-380.14c-2.53-42.45,5.44-75.44,26.98-105.21c36.74-51.32,96.75-86.81,156.48-121.92c22.81-13.94,59.15-28.87,58.61-61.17
					c-0.51-30.65-17.81-49.77-47.58-50.1c-46.91-0.51-65.91,35.81-64.64,89.66H2019.35z"/>
				<path fill="none" stroke="#012B48" d="M2016.14,1065.08c-9.4-126.87,69.01-200.82,188.51-200.82
					c107.99,0,184.19,53.94,183.35,142.76c-1.15,121.1-140.32,167.07-177.94,189.97c19.98-1.5,183.38,0,183.38,0v117.11h-386.24
					c-2.56-42.81,3.61-77.04,25.34-107.07c38.71-58.2,102.84-92.22,159.71-126.73c23-14.06,57.24-25.36,57.24-57.95
					c0-40.26-27.58-46.47-46.12-47.71c-38.31-2.56-63.22,33.41-60.5,90.44H2016.14z"/>
				<polyline fill="none" stroke="#012B48" points="2022.32,1058.64 2129,1043.03 2136.62,1057.34 				"/>
				<polyline fill="none" stroke="#012B48" points="2022.32,1058.64 2065.73,1024.34 2129,1043.03 2096.41,1021.46 2141.75,1018.4 
									"/>
				<polyline fill="none" stroke="#012B48" points="2053.27,1002.29 2096.81,1021.4 2066.17,1024.75 2053.27,1001.91 
					2023.6,1032.96 2065.83,1024.38 				"/>
				<polyline fill="none" stroke="#012B48" points="2096.81,1021.19 2107.91,988.45 2144.55,1009.76 2086.76,942.98 2072.92,974.01 
					2033.81,979.2 				"/>
				<path fill="none" stroke="#012B48" d="M2107.91,984.56"/>
				<line fill="none" stroke="#012B48" x1="2107.87" y1="988.65" x2="2085.3" y2="943.53"/>
				<line fill="none" stroke="#012B48" x1="2085.3" y1="943.53" x2="2044.5" y2="953.8"/>
				<polyline fill="none" stroke="#012B48" points="2160.11,983.02 2086.56,942.38 2125.16,943.53 2160.11,983.02 2172.61,928.48 
					2125.16,943.53 2091.13,904.06 2086.56,942.38 2032.2,979.78 2052.31,1000.83 2072.92,974.01 2107.91,988.39 2053.35,1001.77 
									"/>
				<polyline fill="none" stroke="#012B48" points="2092.52,902.73 2172.09,927.48 2155.83,877.2 2202.28,898.59 2172.65,926.55 
					2222.93,910.27 2202.8,898.29 2228.68,872.76 2222.45,909.69 2283.8,939.98 2228.68,872.76 				"/>
				<polyline fill="none" stroke="#012B48" points="2181.8,972.08 2173.13,928.54 2211.39,969.85 2221.85,910.29 				"/>
				<polyline fill="none" stroke="#012B48" points="2211.39,969.85 2282.8,941.1 2245.94,984.56 2299.65,970.85 2307.28,968.91 
					2283.8,940.16 2318.78,899.25 2306.8,967.97 2349.93,924.65 				"/>
				<polyline fill="none" stroke="#012B48" points="2255.06,1003.79 2307.16,968.98 2319.26,1023.38 2376.26,974.05 2307.82,968.91 
									"/>
				<polyline fill="none" stroke="#012B48" points="2254.15,1003.51 2319.41,1023.38 2255.12,1023.38 				"/>
				<polyline fill="none" stroke="#012B48" points="2378.13,1021.19 2319.26,1023.38 2367.15,1068.43 2255.1,1031.08 
					2301.53,1060.76 2365.66,1068.96 				"/>
				<polyline fill="none" stroke="#012B48" points="2302.45,1060.84 2248.81,1046.46 2287.24,1100.54 2302.45,1061.78 
					2334.6,1110.6 2287.01,1101.04 2277.09,1151.82 2244.5,1097.66 2288.49,1101.02 				"/>
				<polyline fill="none" stroke="#012B48" points="2248.31,1047.5 2245.44,1098.5 2197.11,1086.18 2275.61,1152.76 
					2212.39,1132.65 2196.55,1086.2 2176.44,1146.55 2213.29,1132.75 2191.54,1202.54 2176.44,1147.13 2117.95,1166.78 
					2114.14,1137.92 2176.36,1146.53 				"/>
				<polyline fill="none" stroke="#012B48" points="2191.2,1201.14 2118.01,1166.78 2127.08,1233.77 2191.24,1203.14 
					2189.36,1222.27 2207.1,1219.85 2192.06,1203.16 2214.34,1217.48 2298.18,1202.54 2249.77,1240 2300.09,1273.07 
					2298.16,1204.16 				"/>
				<polyline fill="none" stroke="#012B48" points="2188.82,1222.75 2127.08,1233.77 2183.13,1275.89 2236.35,1251.51 
					2207.18,1219.93 2215.66,1218.05 2250.13,1240.46 				"/>
				<line fill="none" stroke="#012B48" x1="2188.82" y1="1222.75" x2="2183.13" y2="1275.89"/>
				<polyline fill="none" stroke="#012B48" points="2249.47,1240.4 2236.65,1251.2 2300.01,1273.07 2244.5,1273.07 2236.59,1252.62 
									"/>
				<polyline fill="none" stroke="#012B48" points="2244.5,1273.07 2183.16,1275.89 2257.92,1307.52 2245.17,1274.81 				"/>
				<polyline fill="none" stroke="#012B48" points="2260.31,1306.03 2299.35,1273.07 2385.26,1306.03 2334.6,1245.52 
					2384.32,1205.26 				"/>
				<polyline fill="none" stroke="#012B48" points="2298.83,1203.38 2334.44,1245.59 2300.71,1272.19 				"/>
				<polyline fill="none" stroke="#012B48" points="2127.08,1234.03 2115.82,1289.45 2080.69,1266.72 2126.54,1233.93 
					2062.62,1231.5 2044.29,1203.38 				"/>
				<polyline fill="none" stroke="#012B48" points="2061.62,1231.86 2029.55,1228.62 2044.65,1249.32 2063.56,1231.42 
					2080.69,1266.8 2045.28,1249.17 2042.13,1264.93 2079.59,1266.72 				"/>
				<polyline fill="none" stroke="#012B48" points="2017.97,1263.49 2041.71,1265.36 2027.25,1279.8 2014.81,1291.9 2024.2,1291.9 
					2027.67,1280.02 2079.81,1267.58 				"/>
				<polyline fill="none" stroke="#012B48" points="2027.67,1280.02 2115.28,1289.45 2024.2,1291.9 2014.71,1306.97 
					2115.28,1289.45 				"/>
				<line fill="none" stroke="#012B48" x1="2046.37" y1="1201.6" x2="2125.16" y2="1233.77"/>
				<path fill="#012B48" d="M2114.14,1136.98c0,0-32.94,23.59-40.88,31.67c-8.27,8.42-28.77,32-28.77,32l82.04,33.27
					L2114.14,1136.98z"/>
				<line fill="none" stroke="#012B48" x1="2128.92" y1="1042.28" x2="2139.5" y2="1019.02"/>
				<polygon fill="none" stroke="#012B48" points="2115.82,1289.45 2183.13,1275.89 2173.55,1308.75 				"/>
				<rect fill="none" width="3840" height="2160"/>
			</g>
		</g>
		<g>
			<g>
				<text transform="matrix(1 0 0 1 383.6169 945.6456)" fill="#012B48" font-family="'HelveticaNeueLTStd-Bd'" font-size="148px">And good luck in</text>
				<rect fill="none" width="3840" height="2160"/>
			</g>
		</g>
		<g>
			<g>
				
					<text transform="matrix(1 0 0 1 382.5828 744.1769)" fill="#012B48" font-family="'HelveticaNeueLTStd-ThIt'" font-size="321.3157px" letter-spacing="5">Thank you,</text>
				<rect fill="none" width="3840" height="2160"/>
			</g>
		</g>
	</g>
</g>
<rect fill="none" width="3840" height="2160"/>
</svg>
