<?xml version="1.0" encoding="utf-8"?>
<!-- Generator: Adobe Illustrator 24.1.2, SVG Export Plug-In . SVG Version: 6.00 Build 0)  -->
<svg version="1.1" id="trianglesSvg" xmlns="http://www.w3.org/2000/svg" xmlns:xlink="http://www.w3.org/1999/xlink" x="0px"
	 y="0px" width="1920px" height="1099px" viewBox="0 0 1920 1099" enable-background="new 0 0 1920 1099" xml:space="preserve">
<rect id="_x2D_.bgColor-" x="-3.81" y="-0.03" fill="#00C0F1" width="1923.81" height="1098.84"/>
<g id="_x2D_.contentScene-">
	<g id="_x2D_.moveElements-">
		<g>
			
				<line id="_x2D_.p25S.p24E-" opacity="0.3295" fill="none" stroke="#6D154F" stroke-width="0.5" stroke-miterlimit="10" x1="1450.35" y1="553.4" x2="1481.43" y2="639.69"/>
			
				<line id="_x2D_.p26S.p24E-" opacity="0.3295" fill="none" stroke="#6D154F" stroke-width="0.5" stroke-miterlimit="10" x1="1788.64" y1="696.43" x2="1481.43" y2="639.69"/>
			
				<line id="_x2D_.p24S.p27E-" opacity="0.3295" fill="none" stroke="#6D154F" stroke-width="0.5" stroke-miterlimit="10" x1="1481.43" y1="639.69" x2="1695.55" y2="976.52"/>
			
				<line id="_x2D_.p28S.p27E-" opacity="0.3295" fill="none" stroke="#6D154F" stroke-width="0.5" stroke-miterlimit="10" x1="1262.37" y1="833.42" x2="1695.55" y2="976.52"/>
			
				<line id="_x2D_.p28S.p29E-" opacity="0.3295" fill="none" stroke="#6D154F" stroke-width="0.5" stroke-miterlimit="10" x1="1262.37" y1="833.42" x2="1434.05" y2="618.08"/>
			
				<line id="_x2D_.p30S.p29E-" opacity="0.3295" fill="none" stroke="#6D154F" stroke-width="0.5" stroke-miterlimit="10" x1="1379.05" y1="1014.88" x2="1434.05" y2="618.08"/>
			
				<line id="_x2D_.p30S.p28E-" opacity="0.3295" fill="none" stroke="#6D154F" stroke-width="0.5" stroke-miterlimit="10" x1="1379.05" y1="1014.88" x2="1262.37" y2="834.43"/>
			
				<line id="_x2D_.p30S.p31E-" opacity="0.3295" fill="none" stroke="#6D154F" stroke-width="0.5" stroke-miterlimit="10" x1="1379.05" y1="1014.88" x2="1664.96" y2="782.61"/>
			
				<line id="_x2D_.p32S.p31E-" opacity="0.3295" fill="none" stroke="#6D154F" stroke-width="0.5" stroke-miterlimit="10" x1="1229.2" y1="920.23" x2="1664.96" y2="782.61"/>
			
				<line id="_x2D_.p33S.p30E-" opacity="0.3295" fill="none" stroke="#E9154F" stroke-miterlimit="10" x1="1013.42" y1="1048.78" x2="1379.05" y2="1014.88"/>
			
				<line id="_x2D_.p33S.p34E-" opacity="0.3295" fill="none" stroke="#6D154F" stroke-width="0.5" stroke-miterlimit="10" x1="1013.42" y1="1048.78" x2="858.66" y2="720.63"/>
			
				<line id="_x2D_.p36S.p35E-" opacity="0.3295" fill="none" stroke="#E9154F" stroke-miterlimit="10" x1="1187.29" y1="441.51" x2="978.62" y2="881.37"/>
			
				<line id="_x2D_.p37S.p32E-" opacity="0.3295" fill="none" stroke="#E9154F" stroke-miterlimit="10" x1="854.29" y1="805.15" x2="1229.2" y2="920.23"/>
			
				<line id="_x2D_.p40S.p35E-" opacity="0.3295" fill="none" stroke="#6D154F" stroke-width="0.25" stroke-miterlimit="10" x1="910.87" y1="686.17" x2="978.62" y2="881.37"/>
			
				<line id="_x2D_.p41S.p35E-" opacity="0.3295" fill="none" stroke="#6D154F" stroke-width="0.25" stroke-miterlimit="10" x1="1029.63" y1="963.54" x2="978.62" y2="881.37"/>
			
				<line id="_x2D_.p46S.p35E-" opacity="0.3295" fill="none" stroke="#6D154F" stroke-width="0.25" stroke-miterlimit="10" x1="940.9" y1="1057.93" x2="978.62" y2="881.37"/>
			<circle id="_x2D_.p.p24-" fill="#BC2E68" cx="1481.43" cy="639.69" r="10.52"/>
			<circle id="_x2D_.p.p25-" fill="#BC2E68" cx="1450.35" cy="553.4" r="10.52"/>
			<circle id="_x2D_.p.p26-" fill="#BC2E68" cx="1788.64" cy="696.43" r="10.52"/>
			<circle id="_x2D_.p.p27-" fill="#BC2E68" cx="1695.55" cy="976.52" r="10.52"/>
			<circle id="_x2D_.p.p28-" fill="#BC2E68" cx="1262.37" cy="834.43" r="10.52"/>
			<circle id="_x2D_.p.p29-" fill="#BC2E68" cx="1434.05" cy="618.08" r="10.52"/>
			<circle id="_x2D_.p.p30-" fill="#BC2E68" cx="1379.05" cy="1014.88" r="10.52"/>
			<circle id="_x2D_.p.p31-" fill="#BC2E68" cx="1664.96" cy="782.61" r="10.52"/>
			<circle id="_x2D_.p.p32-" fill="#BC2E68" cx="1229.2" cy="920.23" r="10.52"/>
			<circle id="_x2D_.p.p33-" fill="#BC2E68" cx="1013.42" cy="1048.78" r="10.52"/>
			<circle id="_x2D_.p.p34-" fill="#BC2E68" cx="858.66" cy="720.63" r="10.52"/>
			<circle id="_x2D_.p.p35-" fill="#BC2E68" cx="978.62" cy="881.37" r="12.47"/>
			<circle id="_x2D_.p.p36-" fill="#BC2E68" cx="1187.29" cy="441.51" r="12.47"/>
			<circle id="_x2D_.p.p37-" fill="#BC2E68" cx="854.29" cy="805.15" r="10.52"/>
			<circle id="_x2D_.p.p40-" fill="#BC2E68" cx="910.87" cy="686.17" r="8.88"/>
			<rect x="-3.81" y="-0.03" fill="none" width="1923.81" height="1098.84"/>
		</g>
		<g>
			
				<line id="_x2D_.p39S.p38E-" opacity="0.29" fill="none" stroke="#E9154F" stroke-width="6" stroke-linecap="round" stroke-miterlimit="10" x1="833.26" y1="576.67" x2="832.76" y2="725.4"/>
			
				<line id="_x2D_.p42S.p38E-" opacity="0.29" fill="none" stroke="#E9154F" stroke-width="6" stroke-linecap="round" stroke-miterlimit="10" x1="874.72" y1="839.97" x2="832.76" y2="725.4"/>
			
				<line id="_x2D_.p43S.p38E-" opacity="0.29" fill="none" stroke="#E9154F" stroke-width="6" stroke-linecap="round" stroke-miterlimit="10" x1="791.67" y1="917.41" x2="832.76" y2="725.4"/>
			
				<line id="_x2D_.p43S.p44E-" opacity="0.29" fill="none" stroke="#E9154F" stroke-width="6" stroke-linecap="round" stroke-miterlimit="10" x1="791.67" y1="917.41" x2="767.78" y2="937.84"/>
			
				<line id="_x2D_.p42S.p45E-" opacity="0.29" fill="none" stroke="#E9154F" stroke-width="6" stroke-linecap="round" stroke-miterlimit="10" x1="874.72" y1="839.97" x2="763.55" y2="943.7"/>
			
				<line id="_x2D_.p41S.p42E-_2_" opacity="0.12" fill="none" stroke="#E9154F" stroke-width="6" stroke-linecap="round" stroke-miterlimit="10" x1="1029.63" y1="963.54" x2="874.72" y2="839.97"/>
			
				<line id="_x2D_.p46S.p45E-" opacity="0.29" fill="none" stroke="#E9154F" stroke-width="6" stroke-linecap="round" stroke-miterlimit="10" x1="940.9" y1="1057.93" x2="763.55" y2="943.7"/>
			<path id="_x2D_.p.p38-" opacity="0.5" fill="#E9154F" d="M827.26,727.05c-0.91-3.04,0.81-6.24,3.85-7.15
				c3.04-0.91,6.24,0.81,7.15,3.85c0.91,3.04-0.81,6.24-3.85,7.15C831.37,731.81,828.17,730.09,827.26,727.05z"/>
			<path id="_x2D_.p.p39-" opacity="0.5" fill="#E9154F" d="M827.69,578.34c-0.92-3.07,0.82-6.31,3.9-7.24
				c3.07-0.92,6.31,0.82,7.24,3.9c0.92,3.07-0.82,6.31-3.9,7.24C831.85,583.16,828.61,581.41,827.69,578.34z"/>
			<path id="_x2D_.p.p41-" opacity="0.5" fill="#E9154F" d="M1024.18,965.17c-0.9-3.01,0.8-6.17,3.81-7.08
				c3.01-0.9,6.17,0.81,7.07,3.81c0.9,3.01-0.8,6.17-3.81,7.08C1028.25,969.88,1025.08,968.18,1024.18,965.17z"/>
			<path id="_x2D_.p.p42-" opacity="0.5" fill="#E9154F" d="M869.41,841.56c-0.88-2.93,0.78-6.02,3.71-6.89
				c2.93-0.88,6.02,0.79,6.89,3.71c0.88,2.93-0.78,6.02-3.71,6.89C873.38,846.15,870.29,844.49,869.41,841.56z"/>
			<path id="_x2D_.p.p43-" opacity="0.5" fill="#E9154F" d="M786.36,919.05c-0.88-2.93,0.78-6.02,3.71-6.89
				c2.93-0.88,6.02,0.79,6.89,3.71c0.88,2.93-0.78,6.02-3.71,6.89C790.33,923.64,787.24,921.98,786.36,919.05z"/>
			<path id="_x2D_.p.p44-" opacity="0.5" fill="#E9154F" d="M762.61,939.39c-0.86-2.85,0.76-5.86,3.62-6.72s5.86,0.76,6.72,3.62
				c0.86,2.85-0.76,5.86-3.62,6.72C766.48,943.86,763.47,942.24,762.61,939.39z"/>
			<path id="_x2D_.p.p45-" opacity="0.5" fill="#E9154F" d="M758.41,945.24c-0.85-2.84,0.76-5.83,3.6-6.68s5.83,0.76,6.68,3.6
				c0.85,2.84-0.76,5.83-3.6,6.68S759.26,948.08,758.41,945.24z"/>
			<path id="_x2D_.p.p46-" opacity="0.5" fill="#E9154F" d="M935.83,1059.45c-0.84-2.8,0.75-5.75,3.55-6.59
				c2.8-0.84,5.75,0.75,6.59,3.55c0.84,2.8-0.75,5.75-3.55,6.59C939.62,1063.83,936.67,1062.25,935.83,1059.45z"/>
			<rect x="-3.81" y="-0.03" fill="none" width="1923.81" height="1098.84"/>
		</g>
		<g>
			
				<line id="_x2D_.p47S.p48E-" opacity="0.3295" fill="none" stroke="#6D154F" stroke-width="0.5" stroke-miterlimit="10" x1="591.62" y1="531.69" x2="642.5" y2="682.04"/>
			
				<line id="_x2D_.p47S.p49E-" opacity="0.3295" fill="none" stroke="#6D154F" stroke-width="0.5" stroke-miterlimit="10" x1="591.62" y1="531.69" x2="623.27" y2="832.46"/>
			
				<line id="_x2D_.p47S.p50E-" opacity="0.3295" fill="none" stroke="#6D154F" stroke-width="0.5" stroke-miterlimit="10" x1="591.62" y1="531.69" x2="261.67" y2="253.36"/>
			
				<line id="_x2D_.p47S.p51E-" opacity="0.3295" fill="none" stroke="#6D154F" stroke-width="0.5" stroke-miterlimit="10" x1="591.62" y1="531.69" x2="764.71" y2="358.98"/>
			
				<line id="_x2D_.p50S.p51E-" opacity="0.3295" fill="none" stroke="#6D154F" stroke-width="0.5" stroke-miterlimit="10" x1="261.67" y1="253.36" x2="764.71" y2="358.98"/>
			<circle id="_x2D_.p.p47-" fill="#BC2E68" cx="591.62" cy="531.69" r="8.88"/>
			<circle id="_x2D_.p.p48-" fill="#BC2E68" cx="642.5" cy="682.04" r="8.88"/>
			<circle id="_x2D_.p.p49-" fill="#BC2E68" cx="623.27" cy="832.46" r="8.88"/>
			<circle id="_x2D_.p.p50-" fill="none" cx="764.71" cy="358.98" r="7.34"/>
			<circle id="_x2D_.p.p51-" fill="none" cx="261.67" cy="253.36" r="10.49"/>
			<rect x="-3.81" y="-0.03" fill="none" width="1923.81" height="1098.84"/>
		</g>
		<g>
			
				<line id="_x2D_.p53S.p52E-" opacity="0.3295" fill="none" stroke="#6D154F" stroke-width="0.5" stroke-miterlimit="10" x1="22.63" y1="273.62" x2="85.07" y2="512.69"/>
			
				<line id="_x2D_.p55S.p52E-" opacity="0.3295" fill="none" stroke="#6D154F" stroke-width="0.5" stroke-miterlimit="10" x1="184.01" y1="468.34" x2="85.07" y2="512.69"/>
			
				<line id="_x2D_.p58S.p52E-" opacity="0.3295" fill="none" stroke="#6D154F" stroke-width="0.5" stroke-miterlimit="10" x1="14.55" y1="545.64" x2="85.07" y2="512.69"/>
			
				<line id="_x2D_.p56S.p52E-" opacity="0.3295" fill="none" stroke="#6D154F" stroke-width="0.5" stroke-miterlimit="10" x1="-2.3" y1="687.51" x2="85.07" y2="512.69"/>
			
				<line id="_x2D_.p57S.p52E-" opacity="0.3295" fill="none" stroke="#6D154F" stroke-width="0.5" stroke-miterlimit="10" x1="125.65" y1="581.17" x2="85.07" y2="512.69"/>
			<circle id="_x2D_.p.p52-" fill="#26506F" cx="85.07" cy="512.69" r="17.08"/>
			<circle id="_x2D_.p.p53-" fill="#BC2E68" cx="22.63" cy="273.62" r="10.72"/>
			<path id="_x2D_.p.p54-" opacity="0.5" fill="#E9154F" d="M224.28,378.61c-0.92-3.07,0.82-6.3,3.89-7.22
				c3.07-0.92,6.3,0.82,7.22,3.89c0.92,3.07-0.82,6.3-3.89,7.22C228.44,383.42,225.2,381.68,224.28,378.61z"/>
			<path id="_x2D_.p.p55-" opacity="0.5" fill="#E9154F" d="M178.99,469.84c-0.83-2.77,0.74-5.7,3.52-6.53
				c2.77-0.83,5.7,0.74,6.53,3.52c0.83,2.77-0.74,5.7-3.52,6.53C182.74,474.19,179.82,472.62,178.99,469.84z"/>
			<path id="_x2D_.p.p56-" opacity="0.5" fill="#E9154F" d="M-7.54,689.08c-0.87-2.89,0.78-5.94,3.67-6.81s5.94,0.78,6.81,3.67
				c0.87,2.89-0.78,5.94-3.67,6.81S-6.67,691.98-7.54,689.08z"/>
			<path id="_x2D_.p.p57-" opacity="0.5" fill="#E9154F" d="M120.63,582.68c-0.83-2.77,0.74-5.69,3.51-6.52
				c2.77-0.83,5.69,0.74,6.52,3.51c0.83,2.77-0.74,5.69-3.51,6.52C124.38,587.02,121.46,585.45,120.63,582.68z"/>
			<path id="_x2D_.p.p58-" opacity="0.5" fill="#E9154F" d="M9.7,547.09c-0.8-2.68,0.72-5.5,3.4-6.3c2.68-0.8,5.5,0.72,6.3,3.4
				c0.8,2.68-0.72,5.5-3.4,6.3C13.33,551.29,10.5,549.77,9.7,547.09z"/>
			<path id="_x2D_.p.p59-" opacity="0.5" fill="#E9154F" d="M171.63,610.68c-0.77-2.57,0.69-5.27,3.25-6.04
				c2.57-0.77,5.27,0.69,6.04,3.25c0.77,2.57-0.69,5.27-3.25,6.04C175.1,614.7,172.4,613.25,171.63,610.68z"/>
			<path id="_x2D_.p.p60-" opacity="0.5" fill="#E9154F" d="M299.85,653.75c-0.82-2.74,0.73-5.62,3.47-6.44
				c2.74-0.82,5.62,0.73,6.44,3.47c0.82,2.74-0.73,5.62-3.47,6.44C303.55,658.03,300.67,656.48,299.85,653.75z"/>
			<rect x="-3.81" y="-0.03" fill="none" width="1923.81" height="1098.84"/>
		</g>
		<g>
			
				<line id="_x2D_.p1S.p2E-" opacity="0.3295" fill="none" stroke="#6D154F" stroke-width="0.5" stroke-miterlimit="10" x1="1255.69" y1="259.15" x2="1133.44" y2="369.54"/>
			
				<line id="_x2D_.p4S.p2E-" opacity="0.3295" fill="none" stroke="#6D154F" stroke-width="0.5" stroke-miterlimit="10" x1="1032.76" y1="262.04" x2="1133.44" y2="369.54"/>
			
				<line id="_x2D_.p4S.p3E-" opacity="0.3295" fill="none" stroke="#6D154F" stroke-width="0.5" stroke-miterlimit="10" x1="1032.76" y1="262.04" x2="1110.81" y2="242.11"/>
			
				<line id="_x2D_.p1S.p3E-" opacity="0.3295" fill="none" stroke="#6D154F" stroke-width="0.5" stroke-miterlimit="10" x1="1255.69" y1="259.15" x2="1110.81" y2="242.11"/>
			<circle id="_x2D_.p.p1-" fill="#BC2E68" cx="1255.69" cy="259.15" r="8.82"/>
			<circle id="_x2D_.p.p2-" fill="#BC2E68" cx="1133.44" cy="369.54" r="8.82"/>
			<circle id="_x2D_.p.p3-" fill="#BC2E68" cx="1110.81" cy="242.11" r="8.82"/>
			<circle id="_x2D_.p.p4-" fill="#BC2E68" cx="1032.76" cy="262.04" r="8.82"/>
			<rect x="-3.81" y="-0.03" fill="none" width="1923.81" height="1098.84"/>
		</g>
		<g>
			
				<line id="_x2D_.p1S.p2E-_1_" opacity="0.3295" fill="none" stroke="#6D154F" stroke-width="0.5" stroke-miterlimit="10" x1="768.91" y1="566.46" x2="832.62" y2="414.56"/>
			
				<line id="_x2D_.p4S.p2E-_1_" opacity="0.3295" fill="none" stroke="#6D154F" stroke-width="0.5" stroke-miterlimit="10" x1="969.45" y1="469.06" x2="832.62" y2="414.56"/>
			
				<line id="_x2D_.p4S.p3E-_1_" opacity="0.3295" fill="none" stroke="#6D154F" stroke-width="0.5" stroke-miterlimit="10" x1="969.45" y1="469.06" x2="907.28" y2="520.28"/>
			
				<line id="_x2D_.p1S.p3E-_1_" opacity="0.3295" fill="none" stroke="#6D154F" stroke-width="0.5" stroke-miterlimit="10" x1="768.91" y1="566.46" x2="907.28" y2="520.28"/>
			<circle id="_x2D_.p.p1-_1_" fill="#BC2E68" cx="768.91" cy="566.46" r="8.82"/>
			<circle id="_x2D_.p.p2-_1_" fill="#BC2E68" cx="832.62" cy="414.56" r="8.82"/>
			<circle id="_x2D_.p.p3-_1_" fill="#BC2E68" cx="907.28" cy="520.28" r="8.82"/>
			<circle id="_x2D_.p.p4-_1_" fill="#BC2E68" cx="969.45" cy="469.06" r="8.82"/>
			<rect x="-3.81" y="-0.03" fill="none" width="1923.81" height="1098.84"/>
		</g>
		<g>
			
				<line id="_x2D_.p25S.p24E-_1_" opacity="0.3295" fill="none" stroke="#6D154F" stroke-width="0.5" stroke-miterlimit="10" x1="172.22" y1="1121.93" x2="123.05" y2="1071.39"/>
			
				<line id="_x2D_.p26S.p24E-_1_" opacity="0.3295" fill="none" stroke="#6D154F" stroke-width="0.5" stroke-miterlimit="10" x1="-110.08" y1="1129.23" x2="123.05" y2="1071.39"/>
			
				<line id="_x2D_.p24S.p27E-_1_" opacity="0.3295" fill="none" stroke="#6D154F" stroke-width="0.5" stroke-miterlimit="10" x1="123.05" y1="1071.39" x2="-133.86" y2="903.54"/>
			
				<line id="_x2D_.p28S.p27E-_1_" opacity="0.3295" fill="none" stroke="#6D154F" stroke-width="0.5" stroke-miterlimit="10" x1="214.91" y1="866.15" x2="-133.86" y2="903.54"/>
			
				<line id="_x2D_.p28S.p29E-_1_" opacity="0.3295" fill="none" stroke="#6D154F" stroke-width="0.5" stroke-miterlimit="10" x1="214.91" y1="866.15" x2="163.08" y2="1071.46"/>
			
				<line id="_x2D_.p30S.p29E-_1_" opacity="0.3295" fill="none" stroke="#6D154F" stroke-width="0.5" stroke-miterlimit="10" x1="75.58" y1="776.16" x2="163.08" y2="1071.46"/>
			
				<line id="_x2D_.p30S.p28E-_1_" opacity="0.3295" fill="none" stroke="#6D154F" stroke-width="0.5" stroke-miterlimit="10" x1="75.58" y1="776.16" x2="214.59" y2="865.45"/>
			
				<line id="_x2D_.p30S.p31E-_1_" opacity="0.3295" fill="none" stroke="#6D154F" stroke-width="0.5" stroke-miterlimit="10" x1="75.58" y1="776.16" x2="-50.85" y2="1029.6"/>
			
				<line id="_x2D_.p32S.p31E-_1_" opacity="0.3295" fill="none" stroke="#6D154F" stroke-width="0.5" stroke-miterlimit="10" x1="210.56" y1="794.84" x2="-50.85" y2="1029.6"/>
			
				<line id="_x2D_.p33S.p30E-_1_" opacity="0.3295" fill="none" stroke="#E9154F" stroke-miterlimit="10" x1="320.82" y1="636.3" x2="75.58" y2="776.16"/>
			
				<line id="_x2D_.p33S.p34E-_1_" opacity="0.3295" fill="none" stroke="#6D154F" stroke-width="0.5" stroke-miterlimit="10" x1="320.82" y1="636.3" x2="533.41" y2="816.92"/>
			
				<line id="_x2D_.p36S.p35E-_1_" opacity="0.3295" fill="none" stroke="#E9154F" stroke-miterlimit="10" x1="391.95" y1="1116.73" x2="398.36" y2="742.46"/>
			
				<line id="_x2D_.p37S.p32E-_1_" opacity="0.3295" fill="none" stroke="#E9154F" stroke-miterlimit="10" x1="509.62" y1="756.34" x2="210.56" y2="794.84"/>
			
				<line id="_x2D_.p40S.p35E-_1_" opacity="0.3295" fill="none" stroke="#6D154F" stroke-width="0.25" stroke-miterlimit="10" x1="507.79" y1="857.62" x2="398.36" y2="742.46"/>
			
				<line id="_x2D_.p41S.p35E-_1_" opacity="0.3295" fill="none" stroke="#6D154F" stroke-width="0.25" stroke-miterlimit="10" x1="336.55" y1="701.13" x2="398.36" y2="742.46"/>
			
				<line id="_x2D_.p46S.p35E-_1_" opacity="0.3295" fill="none" stroke="#6D154F" stroke-width="0.25" stroke-miterlimit="10" x1="368.69" y1="606.86" x2="398.36" y2="742.46"/>
			<circle id="_x2D_.p.p24-_1_" fill="#BC2E68" cx="123.05" cy="1071.39" r="8.09"/>
			<circle id="_x2D_.p.p25-_1_" fill="#BC2E68" cx="172.22" cy="1121.93" r="8.09"/>
			<circle id="_x2D_.p.p26-_1_" fill="#BC2E68" cx="-110.08" cy="1129.23" r="8.09"/>
			<circle id="_x2D_.p.p27-_1_" fill="#BC2E68" cx="-133.86" cy="903.54" r="8.09"/>
			<circle id="_x2D_.p.p28-_1_" fill="#BC2E68" cx="214.59" cy="865.45" r="8.09"/>
			<circle id="_x2D_.p.p29-_1_" fill="#BC2E68" cx="163.08" cy="1071.46" r="8.09"/>
			<circle id="_x2D_.p.p30-_1_" fill="#BC2E68" cx="75.58" cy="776.16" r="8.09"/>
			<circle id="_x2D_.p.p31-_1_" fill="#BC2E68" cx="-50.85" cy="1029.6" r="8.09"/>
			<circle id="_x2D_.p.p32-_1_" fill="#BC2E68" cx="210.56" cy="794.84" r="8.09"/>
			<circle id="_x2D_.p.p33-_1_" fill="#BC2E68" cx="320.82" cy="636.3" r="8.09"/>
			<circle id="_x2D_.p.p34-_1_" fill="#BC2E68" cx="533.41" cy="816.92" r="8.09"/>
			<circle id="_x2D_.p.p35-_1_" fill="#BC2E68" cx="398.36" cy="742.46" r="9.59"/>
			<circle id="_x2D_.p.p36-_1_" fill="#BC2E68" cx="391.95" cy="1116.73" r="9.59"/>
			<circle id="_x2D_.p.p37-_1_" fill="#BC2E68" cx="509.62" cy="756.34" r="8.09"/>
			<circle id="_x2D_.p.p40-_1_" fill="#BC2E68" cx="507.79" cy="857.62" r="6.83"/>
			<rect x="-3.81" y="-0.03" fill="none" width="1923.81" height="1098.84"/>
		</g>
		<g>
			
				<line id="_x2D_.p39S.p38E-_1_" opacity="0.29" fill="none" stroke="#E9154F" stroke-width="6" stroke-linecap="round" stroke-miterlimit="10" x1="473.94" y1="880.77" x2="375.57" y2="769.23"/>
			
				<line id="_x2D_.p42S.p38E-_1_" opacity="0.29" fill="none" stroke="#E9154F" stroke-width="6" stroke-linecap="round" stroke-miterlimit="10" x1="268.13" y1="711.4" x2="375.57" y2="769.23"/>
			
				<line id="_x2D_.p43S.p38E-_1_" opacity="0.29" fill="none" stroke="#E9154F" stroke-width="6" stroke-linecap="round" stroke-miterlimit="10" x1="278.82" y1="598.35" x2="375.57" y2="769.23"/>
			
				<line id="_x2D_.p43S.p44E-_1_" opacity="0.29" fill="none" stroke="#E9154F" stroke-width="6" stroke-linecap="round" stroke-miterlimit="10" x1="278.82" y1="598.35" x2="283.12" y2="567.22"/>
			
				<line id="_x2D_.p42S.p45E-_1_" opacity="0.29" fill="none" stroke="#E9154F" stroke-width="6" stroke-linecap="round" stroke-miterlimit="10" x1="268.13" y1="711.4" x2="282.4" y2="560.03"/>
			
				<line id="_x2D_.p41S.p42E-_1_" opacity="0.12" fill="none" stroke="#E9154F" stroke-width="6" stroke-linecap="round" stroke-miterlimit="10" x1="70.25" y1="721.85" x2="268.13" y2="711.4"/>
			
				<line id="_x2D_.p46S.p45E-_1_" opacity="0.29" fill="none" stroke="#E9154F" stroke-width="6" stroke-linecap="round" stroke-miterlimit="10" x1="73.93" y1="592.36" x2="282.4" y2="560.03"/>
			<path id="_x2D_.p.p38-_1_" opacity="0.5" fill="#E9154F" d="M378.59,764.34c2.7,1.67,3.54,5.21,1.87,7.91
				c-1.67,2.7-5.21,3.54-7.91,1.87c-2.7-1.67-3.54-5.21-1.87-7.91C372.35,763.51,375.89,762.67,378.59,764.34z"/>
			<path id="_x2D_.p.p39-_1_" opacity="0.5" fill="#E9154F" d="M477,875.83c2.73,1.69,3.58,5.27,1.89,8c-1.69,2.73-5.27,3.58-8,1.89
				c-2.73-1.69-3.58-5.27-1.89-8C470.69,874.99,474.27,874.14,477,875.83z"/>
			<path id="_x2D_.p.p41-_1_" opacity="0.5" fill="#E9154F" d="M73.24,717.01c2.67,1.65,3.5,5.15,1.85,7.82
				c-1.65,2.67-5.15,3.5-7.82,1.85c-2.67-1.65-3.5-5.15-1.85-7.82C67.07,716.19,70.57,715.36,73.24,717.01z"/>
			<path id="_x2D_.p.p42-_1_" opacity="0.5" fill="#E9154F" d="M271.04,706.69c2.6,1.61,3.41,5.02,1.8,7.62
				c-1.61,2.6-5.02,3.41-7.62,1.8c-2.6-1.61-3.41-5.02-1.8-7.62C265.03,705.89,268.44,705.09,271.04,706.69z"/>
			<path id="_x2D_.p.p43-_1_" opacity="0.5" fill="#E9154F" d="M281.7,593.6c2.6,1.61,3.41,5.02,1.8,7.62
				c-1.61,2.6-5.02,3.41-7.62,1.8c-2.6-1.61-3.41-5.02-1.8-7.62C275.69,592.8,279.1,592,281.7,593.6z"/>
			<path id="_x2D_.p.p44-_1_" opacity="0.5" fill="#E9154F" d="M285.95,562.63c2.54,1.57,3.32,4.89,1.75,7.43s-4.89,3.32-7.43,1.75
				c-2.53-1.57-3.32-4.89-1.75-7.43C280.09,561.85,283.42,561.06,285.95,562.63z"/>
			<path id="_x2D_.p.p45-_1_" opacity="0.5" fill="#E9154F" d="M285.22,555.47c2.52,1.56,3.3,4.87,1.74,7.39
				c-1.56,2.52-4.87,3.3-7.39,1.74c-2.52-1.56-3.3-4.87-1.74-7.39S282.7,553.91,285.22,555.47z"/>
			<path id="_x2D_.p.p46-_1_" opacity="0.5" fill="#E9154F" d="M76.71,587.86c2.49,1.54,3.26,4.8,1.72,7.28
				c-1.54,2.49-4.8,3.26-7.28,1.72c-2.49-1.54-3.26-4.8-1.72-7.28C70.97,587.09,74.23,586.32,76.71,587.86z"/>
			<rect x="-3.81" y="-0.03" fill="none" width="1923.81" height="1098.84"/>
		</g>
		<g>
			
				<line id="_x2D_.p39S.p38E-_2_" opacity="0.29" fill="none" stroke="#E9154F" stroke-width="6" stroke-linecap="round" stroke-miterlimit="10" x1="540.53" y1="856.32" x2="391.88" y2="861.01"/>
			
				<line id="_x2D_.p42S.p38E-_2_" opacity="0.29" fill="none" stroke="#E9154F" stroke-width="6" stroke-linecap="round" stroke-miterlimit="10" x1="278.84" y1="906.94" x2="391.88" y2="861.01"/>
			
				<line id="_x2D_.p43S.p38E-_2_" opacity="0.29" fill="none" stroke="#E9154F" stroke-width="6" stroke-linecap="round" stroke-miterlimit="10" x1="198.54" y1="826.64" x2="391.88" y2="861.01"/>
			
				<line id="_x2D_.p43S.p44E-_2_" opacity="0.29" fill="none" stroke="#E9154F" stroke-width="6" stroke-linecap="round" stroke-miterlimit="10" x1="198.54" y1="826.64" x2="177.3" y2="803.48"/>
			
				<line id="_x2D_.p42S.p45E-_2_" opacity="0.29" fill="none" stroke="#E9154F" stroke-width="6" stroke-linecap="round" stroke-miterlimit="10" x1="278.84" y1="906.94" x2="171.3" y2="799.46"/>
			
				<line id="_x2D_.p41S.p42E-_3_" opacity="0.12" fill="none" stroke="#E9154F" stroke-width="6" stroke-linecap="round" stroke-miterlimit="10" x1="160.75" y1="1066.06" x2="278.84" y2="906.94"/>
			
				<line id="_x2D_.p46S.p45E-_2_" opacity="0.29" fill="none" stroke="#E9154F" stroke-width="6" stroke-linecap="round" stroke-miterlimit="10" x1="63.33" y1="980.69" x2="171.3" y2="799.46"/>
			<path id="_x2D_.p.p38-_2_" opacity="0.5" fill="#E9154F" d="M390.04,855.57c3.01-1.02,6.27,0.6,7.28,3.6
				c1.02,3.01-0.6,6.27-3.6,7.28c-3.01,1.02-6.27-0.6-7.28-3.6C385.42,859.85,387.03,856.58,390.04,855.57z"/>
			<path id="_x2D_.p.p39-_2_" opacity="0.5" fill="#E9154F" d="M538.67,850.81c3.04-1.03,6.34,0.6,7.37,3.64
				c1.03,3.04-0.6,6.34-3.64,7.37c-3.04,1.03-6.34-0.6-7.37-3.64C534,855.14,535.63,851.84,538.67,850.81z"/>
			<path id="_x2D_.p.p41-_2_" opacity="0.5" fill="#E9154F" d="M158.93,1060.68c2.97-1.01,6.2,0.59,7.2,3.56
				c1.01,2.97-0.59,6.2-3.56,7.2c-2.97,1.01-6.2-0.59-7.2-3.56C154.36,1064.91,155.96,1061.69,158.93,1060.68z"/>
			<path id="_x2D_.p.p42-_2_" opacity="0.5" fill="#E9154F" d="M277.07,901.69c2.9-0.98,6.04,0.57,7.02,3.47
				c0.98,2.9-0.57,6.04-3.47,7.02c-2.9,0.98-6.04-0.57-7.02-3.47C272.62,905.82,274.17,902.67,277.07,901.69z"/>
			<path id="_x2D_.p.p43-_2_" opacity="0.5" fill="#E9154F" d="M196.72,821.4c2.9-0.98,6.04,0.57,7.02,3.47
				c0.98,2.9-0.57,6.04-3.47,7.02c-2.9,0.98-6.04-0.57-7.02-3.47C192.27,825.52,193.83,822.38,196.72,821.4z"/>
			<path id="_x2D_.p.p44-_2_" opacity="0.5" fill="#E9154F" d="M175.57,798.37c2.82-0.96,5.89,0.56,6.84,3.38s-0.56,5.89-3.38,6.84
				c-2.82,0.95-5.88-0.56-6.84-3.38C171.23,802.39,172.75,799.33,175.57,798.37z"/>
			<path id="_x2D_.p.p45-_2_" opacity="0.5" fill="#E9154F" d="M169.58,794.37c2.81-0.95,5.85,0.56,6.8,3.36
				c0.95,2.81-0.56,5.85-3.36,6.8c-2.81,0.95-5.85-0.56-6.8-3.36C165.26,798.37,166.77,795.32,169.58,794.37z"/>
			<path id="_x2D_.p.p46-_2_" opacity="0.5" fill="#E9154F" d="M61.63,975.68c2.77-0.94,5.77,0.55,6.71,3.32
				c0.94,2.77-0.55,5.77-3.32,6.71c-2.77,0.94-5.77-0.55-6.71-3.32C57.38,979.62,58.86,976.61,61.63,975.68z"/>
			<rect x="-3.81" y="-0.03" fill="none" width="1923.81" height="1098.84"/>
		</g>
		<g>
			
				<line id="_x2D_.p39S.p38E-_3_" opacity="0.29" fill="none" stroke="#E9154F" stroke-width="6" stroke-linecap="round" stroke-miterlimit="10" x1="509.08" y1="719.43" x2="463.45" y2="860.98"/>
			
				<line id="_x2D_.p42S.p38E-_3_" opacity="0.29" fill="none" stroke="#E9154F" stroke-width="6" stroke-linecap="round" stroke-miterlimit="10" x1="468.63" y1="982.89" x2="463.45" y2="860.98"/>
			
				<line id="_x2D_.p43S.p38E-_3_" opacity="0.29" fill="none" stroke="#E9154F" stroke-width="6" stroke-linecap="round" stroke-miterlimit="10" x1="365.99" y1="1031.46" x2="463.45" y2="860.98"/>
			
				<line id="_x2D_.p43S.p44E-_3_" opacity="0.29" fill="none" stroke="#E9154F" stroke-width="6" stroke-linecap="round" stroke-miterlimit="10" x1="365.99" y1="1031.46" x2="337.03" y2="1043.67"/>
			
				<line id="_x2D_.p42S.p45E-_3_" opacity="0.29" fill="none" stroke="#E9154F" stroke-width="6" stroke-linecap="round" stroke-miterlimit="10" x1="468.63" y1="982.89" x2="331.22" y2="1047.96"/>
			
				<line id="_x2D_.p41S.p42E-_4_" opacity="0.12" fill="none" stroke="#E9154F" stroke-width="6" stroke-linecap="round" stroke-miterlimit="10" x1="578.71" y1="1147.66" x2="468.63" y2="982.89"/>
			
				<line id="_x2D_.p46S.p45E-_3_" opacity="0.29" fill="none" stroke="#E9154F" stroke-width="6" stroke-linecap="round" stroke-miterlimit="10" x1="465.51" y1="1210.65" x2="331.22" y2="1047.96"/>
			<path id="_x2D_.p.p38-_3_" opacity="0.5" fill="#E9154F" d="M457.7,860.88c0.05-3.17,2.67-5.7,5.84-5.65
				c3.17,0.05,5.7,2.67,5.65,5.84c-0.05,3.17-2.67,5.7-5.84,5.65C460.18,866.67,457.65,864.06,457.7,860.88z"/>
			<path id="_x2D_.p.p39-_3_" opacity="0.5" fill="#E9154F" d="M503.27,719.33c0.06-3.21,2.7-5.77,5.91-5.71
				c3.21,0.06,5.77,2.7,5.71,5.91c-0.06,3.21-2.7,5.77-5.91,5.71C505.77,725.18,503.21,722.54,503.27,719.33z"/>
			<path id="_x2D_.p.p41-_3_" opacity="0.5" fill="#E9154F" d="M573.03,1147.56c0.05-3.14,2.64-5.64,5.78-5.58
				c3.14,0.05,5.64,2.64,5.58,5.78c-0.05,3.14-2.64,5.64-5.78,5.58C575.47,1153.28,572.97,1150.7,573.03,1147.56z"/>
			<path id="_x2D_.p.p42-_3_" opacity="0.5" fill="#E9154F" d="M463.1,982.79c0.05-3.06,2.57-5.49,5.63-5.44
				c3.06,0.05,5.49,2.57,5.44,5.63c-0.05,3.06-2.57,5.49-5.63,5.44C465.48,988.37,463.04,985.85,463.1,982.79z"/>
			<path id="_x2D_.p.p43-_3_" opacity="0.5" fill="#E9154F" d="M360.44,1031.41c0.05-3.06,2.57-5.49,5.63-5.44
				c3.06,0.05,5.49,2.57,5.44,5.63c-0.05,3.06-2.57,5.49-5.63,5.44C362.82,1036.99,360.38,1034.47,360.44,1031.41z"/>
			<path id="_x2D_.p.p44-_3_" opacity="0.5" fill="#E9154F" d="M331.63,1043.57c0.05-2.98,2.51-5.35,5.49-5.3
				c2.98,0.05,5.35,2.51,5.3,5.49c-0.05,2.98-2.51,5.35-5.49,5.3C333.96,1049.01,331.58,1046.55,331.63,1043.57z"/>
			<path id="_x2D_.p.p45-_3_" opacity="0.5" fill="#E9154F" d="M325.85,1047.87c0.05-2.96,2.5-5.32,5.46-5.27
				c2.96,0.05,5.32,2.5,5.27,5.46c-0.05,2.96-2.5,5.32-5.46,5.27C328.16,1053.28,325.8,1050.83,325.85,1047.87z"/>
			<path id="_x2D_.p.p46-_3_" opacity="0.5" fill="#E9154F" d="M460.22,1210.56c0.05-2.92,2.46-5.25,5.38-5.2
				c2.92,0.05,5.25,2.46,5.2,5.38c-0.05,2.92-2.46,5.25-5.38,5.2C462.5,1215.89,460.17,1213.48,460.22,1210.56z"/>
			<rect x="-3.81" y="-0.03" fill="none" width="1923.81" height="1098.84"/>
		</g>
		<g>
			
				<line id="_x2D_.p47S.p48E-_1_" opacity="0.3295" fill="none" stroke="#6D154F" stroke-width="0.5" stroke-miterlimit="10" x1="412.83" y1="648.74" x2="274.96" y2="570.08"/>
			
				<line id="_x2D_.p47S.p49E-_1_" opacity="0.3295" fill="none" stroke="#6D154F" stroke-width="0.5" stroke-miterlimit="10" x1="412.83" y1="648.74" x2="189.47" y2="444.84"/>
			
				<line id="_x2D_.p47S.p50E-_1_" opacity="0.3295" fill="none" stroke="#6D154F" stroke-width="0.5" stroke-miterlimit="10" x1="412.83" y1="648.74" x2="844.35" y2="637.81"/>
			
				<line id="_x2D_.p47S.p51E-_1_" opacity="0.3295" fill="none" stroke="#6D154F" stroke-width="0.5" stroke-miterlimit="10" x1="412.83" y1="648.74" x2="398.06" y2="892.81"/>
			
				<line id="_x2D_.p50S.p51E-_1_" opacity="0.3295" fill="none" stroke="#6D154F" stroke-width="0.5" stroke-miterlimit="10" x1="844.35" y1="637.81" x2="398.06" y2="892.81"/>
			<circle id="_x2D_.p.p47-_1_" fill="#BC2E68" cx="412.83" cy="648.74" r="8.88"/>
			<circle id="_x2D_.p.p48-_1_" fill="#BC2E68" cx="274.96" cy="570.08" r="8.88"/>
			<circle id="_x2D_.p.p49-_1_" fill="#BC2E68" cx="189.47" cy="444.84" r="8.88"/>
			<circle id="_x2D_.p.p50-_1_" fill="none" cx="398.06" cy="892.81" r="7.34"/>
			<circle id="_x2D_.p.p51-_1_" fill="none" cx="844.35" cy="637.81" r="10.49"/>
			<rect x="-3.81" y="-0.03" fill="none" width="1923.81" height="1098.84"/>
		</g>
		<g>
			
				<line id="_x2D_.p53S.p52E-_1_" opacity="0.3295" fill="none" stroke="#6D154F" stroke-width="0.5" stroke-miterlimit="10" x1="812.82" y1="1113.41" x2="607.4" y2="976.08"/>
			
				<line id="_x2D_.p55S.p52E-_1_" opacity="0.3295" fill="none" stroke="#6D154F" stroke-width="0.5" stroke-miterlimit="10" x1="562.86" y1="1074.94" x2="607.4" y2="976.08"/>
			
				<line id="_x2D_.p58S.p52E-_1_" opacity="0.3295" fill="none" stroke="#6D154F" stroke-width="0.5" stroke-miterlimit="10" x1="638.26" y1="904.62" x2="607.4" y2="976.08"/>
			
				<line id="_x2D_.p56S.p52E-_1_" opacity="0.3295" fill="none" stroke="#6D154F" stroke-width="0.5" stroke-miterlimit="10" x1="556.67" y1="787.34" x2="607.4" y2="976.08"/>
			
				<line id="_x2D_.p57S.p52E-_1_" opacity="0.3295" fill="none" stroke="#6D154F" stroke-width="0.5" stroke-miterlimit="10" x1="531.59" y1="951.81" x2="607.4" y2="976.08"/>
			<circle id="_x2D_.p.p52-_1_" fill="#26506F" cx="607.4" cy="976.08" r="17.08"/>
			<circle id="_x2D_.p.p53-_1_" fill="#BC2E68" cx="812.82" cy="1113.41" r="10.72"/>
			<path id="_x2D_.p.p54-_1_" opacity="0.5" fill="#E9154F" d="M592.31,1168.78c2.72,1.68,3.57,5.26,1.88,7.98
				c-1.68,2.72-5.26,3.57-7.98,1.88c-2.72-1.68-3.57-5.26-1.88-7.98C586.02,1167.94,589.59,1167.09,592.31,1168.78z"/>
			<path id="_x2D_.p.p55-_1_" opacity="0.5" fill="#E9154F" d="M565.62,1070.48c2.46,1.52,3.23,4.75,1.7,7.22
				c-1.52,2.46-4.75,3.23-7.22,1.7c-2.46-1.52-3.23-4.75-1.7-7.22C559.92,1069.72,563.15,1068.96,565.62,1070.48z"/>
			<path id="_x2D_.p.p56-_1_" opacity="0.5" fill="#E9154F" d="M559.54,782.69c2.57,1.59,3.37,4.96,1.78,7.53
				c-1.59,2.57-4.96,3.37-7.53,1.78c-2.57-1.59-3.37-4.96-1.78-7.53C553.61,781.9,556.98,781.1,559.54,782.69z"/>
			<path id="_x2D_.p.p57-_1_" opacity="0.5" fill="#E9154F" d="M534.34,947.35c2.46,1.52,3.22,4.75,1.7,7.21
				c-1.52,2.46-4.75,3.22-7.21,1.7c-2.46-1.52-3.22-4.75-1.7-7.21S531.88,945.83,534.34,947.35z"/>
			<path id="_x2D_.p.p58-_1_" opacity="0.5" fill="#E9154F" d="M640.92,900.32c2.38,1.47,3.12,4.59,1.65,6.97
				c-1.47,2.38-4.59,3.12-6.97,1.65c-2.38-1.47-3.12-4.59-1.65-6.97C635.42,899.58,638.54,898.85,640.92,900.32z"/>
			<path id="_x2D_.p.p59-_1_" opacity="0.5" fill="#E9154F" d="M477.61,960.27c2.28,1.41,2.98,4.4,1.58,6.68
				c-1.41,2.28-4.4,2.98-6.68,1.58c-2.28-1.41-2.98-4.4-1.58-6.68C472.35,959.57,475.33,958.86,477.61,960.27z"/>
			<path id="_x2D_.p.p60-_1_" opacity="0.5" fill="#E9154F" d="M353.14,1013.2c2.43,1.5,3.18,4.69,1.68,7.12
				c-1.5,2.43-4.69,3.18-7.12,1.68c-2.43-1.5-3.18-4.69-1.68-7.12C347.52,1012.45,350.71,1011.7,353.14,1013.2z"/>
			<rect x="-3.81" y="-0.03" fill="none" width="1923.81" height="1098.84"/>
		</g>
		<g>
			
				<line id="_x2D_.p1S.p2E-_3_" opacity="0.3295" fill="none" stroke="#6D154F" stroke-width="0.5" stroke-miterlimit="10" x1="526.1" y1="988.8" x2="544.23" y2="825.08"/>
			
				<line id="_x2D_.p4S.p2E-_3_" opacity="0.3295" fill="none" stroke="#6D154F" stroke-width="0.5" stroke-miterlimit="10" x1="690.88" y1="838.63" x2="544.23" y2="825.08"/>
			
				<line id="_x2D_.p4S.p3E-_3_" opacity="0.3295" fill="none" stroke="#6D154F" stroke-width="0.5" stroke-miterlimit="10" x1="690.88" y1="838.63" x2="645.75" y2="905.35"/>
			
				<line id="_x2D_.p1S.p3E-_3_" opacity="0.3295" fill="none" stroke="#6D154F" stroke-width="0.5" stroke-miterlimit="10" x1="526.1" y1="988.8" x2="645.75" y2="905.35"/>
			<circle id="_x2D_.p.p1-_3_" fill="#BC2E68" cx="526.1" cy="988.8" r="8.82"/>
			<circle id="_x2D_.p.p2-_3_" fill="#BC2E68" cx="544.23" cy="825.08" r="8.82"/>
			<circle id="_x2D_.p.p3-_3_" fill="#BC2E68" cx="645.75" cy="905.35" r="8.82"/>
			<circle id="_x2D_.p.p4-_3_" fill="#BC2E68" cx="690.88" cy="838.63" r="8.82"/>
			<rect x="-3.81" y="-0.03" fill="none" width="1923.81" height="1098.84"/>
		</g>
		<g>
			
				<line id="_x2D_.p1S.p2E-_2_" opacity="0.3295" fill="none" stroke="#6D154F" stroke-width="0.5" stroke-miterlimit="10" x1="251.69" y1="691.85" x2="304.89" y2="847.74"/>
			
				<line id="_x2D_.p4S.p2E-_2_" opacity="0.3295" fill="none" stroke="#6D154F" stroke-width="0.5" stroke-miterlimit="10" x1="166.39" y1="897.83" x2="304.89" y2="847.74"/>
			
				<line id="_x2D_.p4S.p3E-_2_" opacity="0.3295" fill="none" stroke="#6D154F" stroke-width="0.5" stroke-miterlimit="10" x1="166.39" y1="897.83" x2="178.87" y2="818.26"/>
			
				<line id="_x2D_.p1S.p3E-_2_" opacity="0.3295" fill="none" stroke="#6D154F" stroke-width="0.5" stroke-miterlimit="10" x1="251.69" y1="691.85" x2="178.87" y2="818.26"/>
			<circle id="_x2D_.p.p1-_2_" fill="#BC2E68" cx="251.69" cy="691.85" r="8.82"/>
			<circle id="_x2D_.p.p2-_2_" fill="#BC2E68" cx="304.89" cy="847.74" r="8.82"/>
			<circle id="_x2D_.p.p3-_2_" fill="#BC2E68" cx="178.87" cy="818.26" r="8.82"/>
			<circle id="_x2D_.p.p4-_2_" fill="#BC2E68" cx="166.39" cy="897.83" r="8.82"/>
			<rect x="-3.81" y="-0.03" fill="none" width="1923.81" height="1098.84"/>
		</g>
	</g>
	<g id="_x2D_.moveElements-_1_">
		<g>
			<circle fill="#BC2E68" cx="770.45" cy="839.93" r="8.88"/>
			<circle fill="#BC2E68" cx="453.08" cy="821.4" r="8.88"/>
			<polygon opacity="0.23" points="1356.55,998.63 1664.96,778.68 1374.2,1014.88 			"/>
			
				<line fill="none" stroke="#FFFFFF" stroke-width="5" stroke-miterlimit="10" x1="1491.95" y1="284.28" x2="1601.15" y2="598.73"/>
			<line fill="none" stroke="#001F48" stroke-width="5" stroke-miterlimit="10" x1="1513" y1="277.7" x2="1630.1" y2="611.89"/>
			<rect x="-3.81" y="-0.03" fill="none" width="1923.81" height="1098.84"/>
		</g>
		<g>
			<polygon fill="#DCF3F5" points="1480.77,290.86 1386.04,504 1583.39,593.8 			"/>
			<polygon fill="#FFFFFF" stroke="#529CFF" stroke-width="0.25" stroke-miterlimit="10" points="1327.49,990.47 1196.58,1109.58 
				1364.99,1004.43 			"/>
			<rect x="-3.81" y="-0.03" fill="none" width="1923.81" height="1098.84"/>
		</g>
		<g>
			<polygon fill="#FFFFFF" stroke="#529CFF" stroke-width="0.25" stroke-miterlimit="10" points="10.82,818.18 38.29,820.46 
				23.27,971.48 			"/>
			<polygon opacity="0.11" points="261.67,253.36 594.66,529.66 761.42,360.59 			"/>
			<rect x="-3.81" y="-0.03" fill="none" width="1923.81" height="1098.84"/>
		</g>
		<g>
			<polygon fill="#FFFFFF" stroke="#529CFF" stroke-width="0.25" stroke-miterlimit="10" points="123.08,857.3 100.73,1077.19 
				29.67,1023.91 			"/>
			<polygon opacity="0.17" points="666.36,861.96 1023.94,1114.32 661.76,1048.38 			"/>
			<rect x="-3.81" y="-0.03" fill="none" width="1923.81" height="1098.84"/>
		</g>
		<g>
			<polygon fill="#FFFFFF" stroke="#529CFF" stroke-width="0.25" stroke-miterlimit="10" points="1232.11,910.55 1151.85,1112.49 
				1035.31,1112.49 			"/>
			<polygon opacity="0.17" points="466.61,654.9 779.94,661.93 661.76,1048.38 			"/>
			<rect x="-3.81" y="-0.03" fill="none" width="1923.81" height="1098.84"/>
		</g>
	</g>
	<g id="_x2D_.gTriangleImage.moveElements-">
		<g>
			<polygon fill="#001F48" points="274.95,421.11 156.54,746.74 661.76,766.48 			"/>
			<g>
				
					<image overflow="visible" width="500" height="500" xlink:href="../../../../assets/img/TestProducts/drione.png"  transform="matrix(0.3839 0.0335 -0.0335 0.3839 236.3861 540.5752)">
				</image>
			</g>
			<rect x="-3.81" y="-0.03" fill="none" width="1923.81" height="1098.84"/>
		</g>
		<g>
			<polygon fill="#001F48" points="1423.54,446.77 1920,178.37 1743.25,632.28 			"/>
			<g>
				
					<image overflow="visible" width="500" height="500" xlink:href="../../../../assets/img/TestProducts/fungicide.png"  transform="matrix(0.3787 0.1526 -0.1526 0.3787 1637.1742 328.7318)">
				</image>
			</g>
			<rect x="-3.81" y="-0.03" fill="none" width="1923.81" height="1098.84"/>
		</g>
		<g>
			<polygon fill="#001F48" points="950.11,639.96 1073.04,961.52 1372.96,849.88 			"/>
			<g>
				
					<image overflow="visible" width="500" height="500" xlink:href="../../../../assets/img/TestProducts/fertilizer.png"  transform="matrix(0.3104 0.1297 -0.1297 0.3104 1081.5516 717.7814)">
				</image>
			</g>
			<rect x="-3.81" y="-0.03" fill="none" width="1923.81" height="1098.84"/>
		</g>
		<g>
			<polygon fill="#001F48" points="878.85,103.38 594.66,529.66 1186.72,438.87 			"/>
			<g>
				
					<image overflow="visible" width="500" height="500" xlink:href="../../../../assets/img/TestProducts/herbicide.png"  transform="matrix(0.4552 -0.1684 0.1684 0.4552 746.1055 267.4302)">
				</image>
			</g>
			<rect x="-3.81" y="-0.03" fill="none" width="1923.81" height="1098.84"/>
		</g>
	</g>
	<g id="_x2D_.moveElements-_2_">
		<g>
			
				<line id="_x2D_.p2S.p1E-" opacity="0.23" fill="none" stroke="#000000" stroke-width="0.25" stroke-miterlimit="10" x1="272.46" y1="981.92" x2="381.76" y2="1012.85"/>
			
				<line id="_x2D_.p3S.p1E-" opacity="0.23" fill="none" stroke="#000000" stroke-width="0.25" stroke-miterlimit="10" x1="666.36" y1="855.94" x2="381.76" y2="1012.85"/>
			
				<line id="_x2D_.p4S.p1E-" opacity="0.23" fill="none" stroke="#000000" stroke-width="0.25" stroke-miterlimit="10" x1="943.54" y1="1038.26" x2="381.76" y2="1012.85"/>
			
				<line id="_x2D_.p3S.p4E-_1_" opacity="0.23" fill="none" stroke="#000000" stroke-width="0.25" stroke-miterlimit="10" x1="666.36" y1="855.94" x2="943.54" y2="1038.26"/>
			
				<line id="_x2D_.p3S.p7E-" opacity="0.23" fill="none" stroke="#000000" stroke-width="0.25" stroke-miterlimit="10" x1="666.36" y1="855.94" x2="237.43" y2="514.27"/>
			
				<line id="_x2D_.p3S.p6E-" opacity="0.23" fill="none" stroke="#000000" stroke-width="0.25" stroke-miterlimit="10" x1="666.36" y1="855.94" x2="785.88" y2="657.56"/>
			
				<line id="_x2D_.p6S.p7E-" opacity="0.23" fill="none" stroke="#000000" stroke-width="0.25" stroke-miterlimit="10" x1="785.88" y1="657.56" x2="237.43" y2="514.27"/>
			
				<line id="_x2D_.p8S.p9E-" opacity="0.31" fill="none" stroke="#6D154F" stroke-width="0.5" stroke-miterlimit="10" x1="1320.52" y1="711.38" x2="1213.21" y2="611.83"/>
			
				<line id="_x2D_.p10S.p11E-" opacity="0.31" fill="none" stroke="#6D154F" stroke-width="0.5" stroke-miterlimit="10" x1="779.92" y1="356.67" x2="421.84" y2="309.45"/>
			
				<line id="_x2D_.p12S.p13E-" opacity="0.31" fill="none" stroke="#6D154F" stroke-width="0.5" stroke-miterlimit="10" x1="623.77" y1="241.69" x2="878.35" y2="102.23"/>
			
				<line id="_x2D_.p13S.p14E-" opacity="0.3295" fill="none" stroke="#6D154F" stroke-width="0.5" stroke-miterlimit="10" x1="878.85" y1="103.38" x2="949.46" y2="249.47"/>
			<circle id="_x2D_.p.p1-_4_" fill="#E42E68" cx="381.76" cy="1012.85" r="13.7"/>
			<circle id="_x2D_.p.p2-_4_" fill="#BC2E68" cx="272.46" cy="981.92" r="8.23"/>
			<circle id="_x2D_.p.p3-_4_" fill="#E9154F" cx="666.36" cy="855.94" r="14.47"/>
			<circle id="_x2D_.p.p4-_4_" fill="#BC2E68" cx="943.54" cy="1038.26" r="17.54"/>
			<circle id="_x2D_.p.p6-" fill="#E42E68" cx="785.88" cy="657.56" r="6.55"/>
			<circle id="_x2D_.p.p7-" fill="#E42E68" cx="237.43" cy="514.27" r="10.49"/>
			<circle id="_x2D_.p.p8-" fill="#BC2E68" cx="1320.52" cy="711.38" r="10.61"/>
			<circle id="_x2D_.p.p9-" fill="#E42E68" cx="1213.21" cy="611.83" r="17.65"/>
			<circle id="_x2D_.p.p10-" fill="#D71B53" cx="779.92" cy="356.67" r="17.53"/>
			<circle id="_x2D_.p.p11-" fill="#BC2E68" cx="421.84" cy="309.45" r="7.07"/>
			<circle id="_x2D_.p.p12-" fill="#BC2E68" cx="623.77" cy="241.69" r="5.43"/>
			<circle id="_x2D_.p.p13-" fill="#BC2E68" cx="878.35" cy="102.23" r="7.4"/>
			<circle id="_x2D_.p.p14-" fill="#D71B53" cx="949.46" cy="249.47" r="8.77"/>
			<rect x="-3.81" y="-0.03" fill="none" width="1923.81" height="1098.84"/>
		</g>
	</g>
	<g id="_x2D_.moveElements-_3_">
		<g>
			<circle fill="#BC2E68" cx="1663.03" cy="525.32" r="8.59"/>
			<circle fill="#E9154F" cx="1328.21" cy="993.95" r="8.16"/>
			<circle fill="#E9154F" cx="28.14" cy="1023.44" r="5.05"/>
			<circle fill="#E9154F" cx="122.46" cy="857.72" r="3.91"/>
			<circle fill="#E9154F" cx="101.59" cy="1077.59" r="7.32"/>
			<rect x="-3.81" y="-0.03" fill="none" width="1923.81" height="1098.84"/>
		</g>
		<g>
			<circle fill="#E42E68" cx="37.23" cy="819.71" r="4.04"/>
			<circle fill="#BC2E68" cx="189.25" cy="967.45" r="11.27"/>
			<polygon fill="#FFFFFF" stroke="#529CFF" stroke-width="0.25" stroke-miterlimit="10" points="2.15,405.33 255.22,136.93 
				320.34,387.56 			"/>
			<circle fill="#BC2E68" cx="943.54" cy="690.92" r="13.94"/>
			<rect x="-3.81" y="-0.03" fill="none" width="1923.81" height="1098.84"/>
		</g>
	</g>
</g>
<rect x="-3.81" y="-0.03" fill="none" width="1923.81" height="1098.84"/>
</svg>
