<?xml version="1.0" encoding="utf-8"?>
<!-- Generator: Adobe Illustrator 24.2.1, SVG Export Plug-In . SVG Version: 6.00 Build 0)  -->
<svg version="1.1" id="_x32_455inRewardSvg" xmlns="http://www.w3.org/2000/svg" xmlns:xlink="http://www.w3.org/1999/xlink"
	 x="0px" y="0px" width="3840px" height="2165.6px" viewBox="0 0 3840 2165.6" enable-background="new 0 0 3840 2165.6"
	 xml:space="preserve">
<g id="_x2D_.contentScene-">
	<g id="_x2D_.moveElements-_1_">
		<g>
			<g>
				<g>
					
						<text transform="matrix(1 0 0 1 622.9768 1409.5983)" fill="#002C4F" font-family="'HelveticaNeueLTStd-ThIt'" font-size="336.497px" letter-spacing="-5">2455</text>
				</g>
				<g>
					
						<text transform="matrix(1 0 0 1 528.7833 1305.9302)" fill="#002C4F" font-family="'HelveticaNeueLTStd-Th'" font-size="177.1729px" letter-spacing="-3">$</text>
				</g>
				<rect y="-9.01" fill="none" width="3840" height="2174.61"/>
			</g>
		</g>
		<g>
			<g>
				
					<text transform="matrix(1 0 0 1 592.5173 1593.2306)" fill="#012B48" font-family="'HelveticaNeueLTStd-Bd'" font-size="151.0856px" letter-spacing="-1">in rewards dollars earned.</text>
				<rect y="-9.01" fill="none" width="3840" height="2174.61"/>
			</g>
		</g>
	</g>
	<g id="_x2D_.moveElements-_2_">
		<g>
			<g>
				<polygon fill="#A4CD38" points="2422.43,1812.43 2431.76,1854.61 2542.82,1767.14 				"/>
				<polygon fill="#A4CD38" points="2719.84,1507.42 2749.1,1528.62 2749.1,1481.95 				"/>
				<polygon fill="#A4CD38" points="2281.35,1863.83 2339.79,1857.8 2354.44,1837 				"/>
				<g>
					<g>
						<line fill="none" stroke="#08274B" stroke-miterlimit="10" x1="2749.1" y1="1528.62" x2="2749.1" y2="1534.62"/>
						<polyline fill="none" stroke="#08274B" stroke-miterlimit="10" stroke-dasharray="12.3632,12.3632" points="2749.1,1546.98 
							2749.1,1634.92 2679.85,1877.27 						"/>
						<polyline fill="none" stroke="#08274B" stroke-miterlimit="10" points="2678.15,1883.22 2676.5,1888.99 2679.96,1893.89 
													"/>
						
							<line fill="none" stroke="#08274B" stroke-miterlimit="10" stroke-dasharray="12.1953,12.1953" x1="2686.99" y1="1903.85" x2="2936.56" y2="2257.61"/>
						<line fill="none" stroke="#08274B" stroke-miterlimit="10" x1="2940.08" y1="2262.6" x2="2943.54" y2="2267.5"/>
					</g>
				</g>
				<g>
					<g>
						<line fill="none" stroke="#08274B" stroke-miterlimit="10" x1="2749.1" y1="1634.92" x2="2744.04" y2="1638.14"/>
						<polyline fill="none" stroke="#08274B" stroke-miterlimit="10" stroke-dasharray="12.0843,12.0843" points="2733.85,1644.64 
							2541.69,1767.14 2170.96,1904.83 1731.58,2281.96 						"/>
						<line fill="none" stroke="#08274B" stroke-miterlimit="10" x1="1727" y1="2285.89" x2="1722.44" y2="2289.8"/>
					</g>
				</g>
				<g>
					<g>
						<line fill="none" stroke="#08274B" stroke-miterlimit="10" x1="2749.1" y1="1481.95" x2="2744.57" y2="1485.89"/>
						<polyline fill="none" stroke="#08274B" stroke-miterlimit="10" stroke-dasharray="11.9095,11.9095" points="2735.59,1493.71 
							2381.29,1802.09 2025.14,2280.21 						"/>
						<line fill="none" stroke="#08274B" stroke-miterlimit="10" x1="2021.58" y1="2284.99" x2="2017.99" y2="2289.8"/>
					</g>
				</g>
				<g>
					<g>
						<line fill="none" stroke="#08274B" stroke-miterlimit="10" x1="2749.1" y1="1528.62" x2="2744.43" y2="1532.39"/>
						<polyline fill="none" stroke="#08274B" stroke-miterlimit="10" stroke-dasharray="11.932,11.932" points="2735.14,1539.88 
							2427.62,1787.88 1791.4,2298.89 						"/>
						<line fill="none" stroke="#08274B" stroke-miterlimit="10" x1="1786.75" y1="2302.63" x2="1782.07" y2="2306.39"/>
					</g>
				</g>
				<g>
					<g>
						<line fill="none" stroke="#08274B" stroke-miterlimit="10" x1="2886.5" y1="1898.06" x2="2883.81" y2="1903.42"/>
						
							<line fill="none" stroke="#08274B" stroke-miterlimit="10" stroke-dasharray="12.1857,12.1857" x1="2878.33" y1="1914.31" x2="2694.9" y2="2279"/>
						<line fill="none" stroke="#08274B" stroke-miterlimit="10" x1="2692.16" y1="2284.44" x2="2689.47" y2="2289.8"/>
					</g>
				</g>
				<g>
					<g>
						<line fill="none" stroke="#08274B" stroke-miterlimit="10" x1="2422.43" y1="1812.43" x2="2423.8" y2="1818.28"/>
						
							<line fill="none" stroke="#08274B" stroke-miterlimit="10" stroke-dasharray="12.3058,12.3058" x1="2426.6" y1="1830.26" x2="2525.96" y2="2255.67"/>
						<line fill="none" stroke="#08274B" stroke-miterlimit="10" x1="2527.36" y1="2261.66" x2="2528.73" y2="2267.5"/>
					</g>
				</g>
				<g>
					<g>
						<line fill="none" stroke="#08274B" stroke-miterlimit="10" x1="1642.07" y1="2200.09" x2="1647.37" y2="2197.27"/>
						<path fill="none" stroke="#08274B" stroke-miterlimit="10" stroke-dasharray="11.89,11.89" d="M1657.87,2191.69l870.86-463.44
							c0,0,164.31-101.88,208.79-126.47"/>
						<path fill="none" stroke="#08274B" stroke-miterlimit="10" d="M2742.75,1598.96c2.88-1.5,4.76-2.36,5.46-2.46"/>
					</g>
				</g>
				<g>
					<g>
						<line fill="none" stroke="#08274B" stroke-miterlimit="10" x1="2810.02" y1="1720.47" x2="2806.33" y2="1725.2"/>
						
							<line fill="none" stroke="#08274B" stroke-miterlimit="10" stroke-dasharray="12.083,12.083" x1="2798.89" y1="1734.72" x2="2415.9" y2="2225.17"/>
						<line fill="none" stroke="#08274B" stroke-miterlimit="10" x1="2412.18" y1="2229.93" x2="2408.49" y2="2234.66"/>
					</g>
				</g>
				<g>
					<g>
						<line fill="none" stroke="#08274B" stroke-miterlimit="10" x1="2366.68" y1="1906.12" x2="2368.93" y2="1911.68"/>
						
							<line fill="none" stroke="#08274B" stroke-miterlimit="10" stroke-dasharray="11.995,11.995" x1="2373.43" y1="1922.8" x2="2524.23" y2="2295.27"/>
						<line fill="none" stroke="#08274B" stroke-miterlimit="10" x1="2526.48" y1="2300.83" x2="2528.73" y2="2306.39"/>
					</g>
				</g>
				<g>
					<g>
						<line fill="none" stroke="#08274B" stroke-miterlimit="10" x1="2552.06" y1="1760.52" x2="2547.34" y2="1764.23"/>
						
							<line fill="none" stroke="#08274B" stroke-miterlimit="10" stroke-dasharray="12.0095,12.0095" x1="2537.89" y1="1771.63" x2="1956.58" y2="2227.25"/>
						<line fill="none" stroke="#08274B" stroke-miterlimit="10" x1="1951.85" y1="2230.96" x2="1947.13" y2="2234.66"/>
					</g>
				</g>
				<g>
					<g>
						<line fill="none" stroke="#08274B" stroke-miterlimit="10" x1="2727.78" y1="1709.52" x2="2724.19" y2="1714.33"/>
						
							<line fill="none" stroke="#08274B" stroke-miterlimit="10" stroke-dasharray="12.087,12.087" x1="2716.97" y1="1724.03" x2="2272.78" y2="2320.06"/>
						<line fill="none" stroke="#08274B" stroke-miterlimit="10" x1="2269.17" y1="2324.91" x2="2265.58" y2="2329.72"/>
					</g>
				</g>
				<g>
					<g>
						<line fill="none" stroke="#08274B" stroke-miterlimit="10" x1="2581.34" y1="1906.12" x2="2581.84" y2="1912.1"/>
						
							<line fill="none" stroke="#08274B" stroke-miterlimit="10" stroke-dasharray="12.0237,12.0237" x1="2582.85" y1="1924.08" x2="2608.58" y2="2229.6"/>
						<line fill="none" stroke="#08274B" stroke-miterlimit="10" x1="2609.09" y1="2235.6" x2="2609.59" y2="2241.57"/>
					</g>
				</g>
				<g>
					<g>
						<line fill="none" stroke="#08274B" stroke-miterlimit="10" x1="2810.02" y1="1720.47" x2="2807.78" y2="1726.04"/>
						
							<line fill="none" stroke="#08274B" stroke-miterlimit="10" stroke-dasharray="12.1465,12.1465" x1="2803.25" y1="1737.31" x2="2579.03" y2="2295.19"/>
						<line fill="none" stroke="#08274B" stroke-miterlimit="10" x1="2576.77" y1="2300.82" x2="2574.53" y2="2306.39"/>
					</g>
				</g>
				<g>
					<g>
						<line fill="none" stroke="#08274B" stroke-miterlimit="10" x1="2551.29" y1="1760.52" x2="2545.32" y2="1759.98"/>
						
							<line fill="none" stroke="#08274B" stroke-miterlimit="10" stroke-dasharray="11.558,11.558" x1="2533.81" y1="1758.94" x2="2378.41" y2="1744.87"/>
						<line fill="none" stroke="#08274B" stroke-miterlimit="10" x1="2372.66" y1="1744.34" x2="2366.68" y2="1743.8"/>
					</g>
				</g>
				<circle fill="#A4CD38" cx="2173.3" cy="1903.21" r="12.9"/>
				<circle fill="#A4CD38" cx="2174.13" cy="1903.21" r="12.9"/>
				<circle fill="#A4CD38" cx="2367.34" cy="1743.8" r="12.9"/>
				<circle id="_x2D_.elCircle-_7_" fill="none" stroke="#08274B" stroke-miterlimit="10" cx="2174.13" cy="1901.62" r="43.82"/>
				<circle fill="none" stroke="#08274B" stroke-miterlimit="10" cx="2748.21" cy="1637.72" r="42.78"/>
				<circle id="_x2D_.elCircle-_6_" fill="none" stroke="#08274B" stroke-miterlimit="10" cx="2544.6" cy="1763.25" r="42.78"/>
				<rect x="0.49" y="-8.77" fill="none" width="3840" height="2174.61"/>
				<polygon fill="#A4CD38" points="3042.66,1803.47 3073.08,1897.81 3151.38,1906.83 				"/>
				<polygon fill="#A4CD38" points="2778.62,1676.37 2810.46,1722.16 2858.63,1739.56 				"/>
				<line fill="none" stroke="#08274B" stroke-miterlimit="10" x1="2749.1" y1="1634.92" x2="2960.46" y2="1578.38"/>
				<g>
					<g>
						<line fill="none" stroke="#08274B" stroke-miterlimit="10" x1="2749.1" y1="1528.62" x2="2753.47" y2="1532.73"/>
						
							<line fill="none" stroke="#08274B" stroke-miterlimit="10" stroke-dasharray="12.0311,12.0311" x1="2762.23" y1="1540.97" x2="3476.63" y2="2212.6"/>
						<line fill="none" stroke="#08274B" stroke-miterlimit="10" x1="3481.01" y1="2216.72" x2="3485.38" y2="2220.83"/>
					</g>
				</g>
				<g>
					<g>
						<line fill="none" stroke="#08274B" stroke-miterlimit="10" x1="2749.1" y1="1528.62" x2="2754.94" y2="1529.99"/>
						<polyline fill="none" stroke="#08274B" stroke-miterlimit="10" stroke-dasharray="12.1083,12.1083" points="2766.73,1532.76 
							2959.09,1577.88 3207.98,1628.15 3717.08,1582.84 						"/>
						<line fill="none" stroke="#08274B" stroke-miterlimit="10" x1="3723.11" y1="1582.3" x2="3729.08" y2="1581.77"/>
					</g>
				</g>
				<g>
					<g>
						<line fill="none" stroke="#08274B" stroke-miterlimit="10" x1="2749.1" y1="1634.92" x2="2752.58" y2="1639.8"/>
						<polyline fill="none" stroke="#08274B" stroke-miterlimit="10" stroke-dasharray="12.0279,12.0279" points="2759.55,1649.6 
							2810.02,1720.47 2886.5,1898.06 3284.12,2213.37 						"/>
						<line fill="none" stroke="#08274B" stroke-miterlimit="10" x1="3288.83" y1="2217.11" x2="3293.53" y2="2220.83"/>
					</g>
				</g>
				<g>
					<g>
						<line fill="none" stroke="#08274B" stroke-miterlimit="10" x1="2811.14" y1="1723.06" x2="2816.8" y2="1725.03"/>
						
							<line fill="none" stroke="#08274B" stroke-miterlimit="10" stroke-dasharray="12.2678,12.2678" x1="2828.39" y1="1729.05" x2="3031.2" y2="1799.49"/>
						<polyline fill="none" stroke="#08274B" stroke-miterlimit="10" points="3036.99,1801.5 3042.66,1803.47 3044.5,1809.18 						
							"/>
						<polyline fill="none" stroke="#08274B" stroke-miterlimit="10" stroke-dasharray="12.1499,12.1499" points="3048.23,1820.75 
							3073.17,1898.06 3257.17,2278.93 						"/>
						<line fill="none" stroke="#08274B" stroke-miterlimit="10" x1="3259.81" y1="2284.4" x2="3262.42" y2="2289.8"/>
					</g>
				</g>
				<g>
					<g>
						<line fill="none" stroke="#08274B" stroke-miterlimit="10" x1="3042.66" y1="1803.47" x2="3040.88" y2="1809.2"/>
						<polyline fill="none" stroke="#08274B" stroke-miterlimit="10" stroke-dasharray="12.2077,12.2077" points="3037.26,1820.86 
							2996.81,1951.21 2945.22,2317.74 						"/>
						<line fill="none" stroke="#08274B" stroke-miterlimit="10" x1="2944.37" y1="2323.78" x2="2943.54" y2="2329.72"/>
					</g>
				</g>
				<g>
					<g>
						<line fill="none" stroke="#08274B" stroke-miterlimit="10" x1="2996.81" y1="1951.21" x2="2998.61" y2="1956.93"/>
						
							<line fill="none" stroke="#08274B" stroke-miterlimit="10" stroke-dasharray="11.7709,11.7709" x1="3002.14" y1="1968.16" x2="3127.5" y2="2366.78"/>
						<line fill="none" stroke="#08274B" stroke-miterlimit="10" x1="3129.27" y1="2372.39" x2="3131.07" y2="2378.12"/>
					</g>
				</g>
				<circle fill="#A4CD38" cx="2962.72" cy="1575.91" r="12.9"/>
				<circle fill="#A4CD38" cx="3211.76" cy="1627.02" r="12.9"/>
				<circle id="_x2D_.elCircle-_2_" fill="none" stroke="#08274B" stroke-miterlimit="10" cx="2963.05" cy="1574.78" r="42.78"/>
				<circle id="_x2D_.elCircle-_3_" fill="none" stroke="#08274B" stroke-miterlimit="10" cx="2809.88" cy="1720.47" r="42.78"/>
				<circle id="_x2D_.elCircle-_5_" fill="none" stroke="#08274B" stroke-miterlimit="10" cx="2886.5" cy="1898.88" r="42.78"/>
				<circle id="_x2D_.elCircle-_4_" fill="none" stroke="#08274B" stroke-miterlimit="10" cx="3080.94" cy="1906.12" r="42.78"/>
				<rect x="0.49" y="-8.77" fill="none" width="3840" height="2174.61"/>
				<polygon fill="#A4CD38" points="2748.26,1309.69 2748.62,1421.95 2798.19,1275.17 				"/>
				<g>
					<g>
						<line fill="none" stroke="#08274B" stroke-miterlimit="10" x1="2743.6" y1="1308.93" x2="2738.68" y2="1305.5"/>
						<polyline fill="none" stroke="#08274B" stroke-miterlimit="10" stroke-dasharray="12.0043,12.0043" points="2728.84,1298.62 
							2552.06,1175.17 2481.68,1055.88 						"/>
						<line fill="none" stroke="#08274B" stroke-miterlimit="10" x1="2478.63" y1="1050.71" x2="2475.58" y2="1045.54"/>
					</g>
				</g>
				<g>
					<g>
						<line fill="none" stroke="#08274B" stroke-miterlimit="10" x1="2552.06" y1="1175.17" x2="2546.3" y2="1176.86"/>
						<polyline fill="none" stroke="#08274B" stroke-miterlimit="10" stroke-dasharray="12.2642,12.2642" points="2534.54,1180.31 
							2363.67,1230.48 2057.76,1247.1 						"/>
						<line fill="none" stroke="#08274B" stroke-miterlimit="10" x1="2051.64" y1="1247.43" x2="2045.65" y2="1247.76"/>
					</g>
				</g>
				<circle fill="#A4CD38" cx="2804.37" cy="1266.72" r="12.9"/>
				<circle fill="#A4CD38" cx="2362.47" cy="1231.49" r="12.9"/>
				<circle fill="#A4CD38" cx="2552.06" cy="1175.17" r="12.9"/>
				<circle fill="#A4CD38" cx="2475.58" cy="1044.24" r="12.9"/>
				<circle id="_x2D_.elCircle-_8_" fill="none" stroke="#08274B" stroke-miterlimit="10" cx="2805.56" cy="1264.66" r="42.78"/>
				<circle id="_x2D_.elCircle-_9_" fill="none" stroke="#08274B" stroke-miterlimit="10" cx="2362.47" cy="1229.01" r="42.78"/>
				<rect x="0.49" y="-8.77" fill="none" width="3840" height="2174.61"/>
				<polygon fill="#A4CD38" points="3088.16,1010.08 3080.94,941.84 3053.06,991.77 				"/>
				<polygon fill="#A4CD38" points="3078.06,942.38 3020.19,953.5 2991.07,978.13 				"/>
				<polyline fill="none" stroke="#08274B" stroke-miterlimit="10" points="2750.51,1307.44 2871.81,1223.56 2923.66,1061.1 
					2991.07,978.13 3129.34,857.15 3224.4,822.58 3551.06,870.97 3276.25,1152.7 3208.84,1197.64 3056.75,1233.93 2878.6,1229.42 
									"/>
				<g id="_x2D_.elLine-_11_">
					<g>
						<line fill="none" stroke="#08274B" stroke-miterlimit="10" x1="3570.07" y1="858.88" x2="3574.67" y2="855.02"/>
						
							<line fill="none" stroke="#08274B" stroke-miterlimit="10" stroke-dasharray="11.8406,11.8406" x1="3583.74" y1="847.41" x2="4032.79" y2="470.74"/>
						<line fill="none" stroke="#08274B" stroke-miterlimit="10" x1="4037.32" y1="466.93" x2="4041.92" y2="463.08"/>
					</g>
				</g>
				<g id="_x2D_.elLine-_10_">
					<g>
						<line fill="none" stroke="#08274B" stroke-miterlimit="10" x1="3343.06" y1="839.5" x2="3344.43" y2="833.66"/>
						
							<line fill="none" stroke="#08274B" stroke-miterlimit="10" stroke-dasharray="11.9085,11.9085" x1="3347.15" y1="822.07" x2="3389.32" y2="642.37"/>
						<polyline fill="none" stroke="#08274B" stroke-miterlimit="10" points="3390.68,636.57 3392.05,630.73 3397.26,627.75 						
							"/>
						
							<line fill="none" stroke="#08274B" stroke-miterlimit="10" stroke-dasharray="11.9871,11.9871" x1="3407.65" y1="621.78" x2="4005.59" y2="278.92"/>
						<line fill="none" stroke="#08274B" stroke-miterlimit="10" x1="4010.79" y1="275.94" x2="4015.99" y2="272.96"/>
					</g>
				</g>
				<g id="_x2D_.elLine-_6_">
					<g>
						<line fill="none" stroke="#08274B" stroke-miterlimit="10" x1="3216.65" y1="1195.67" x2="3221.53" y2="1199.16"/>
						
							<line fill="none" stroke="#08274B" stroke-miterlimit="10" stroke-dasharray="11.8578,11.8578" x1="3231.18" y1="1206.05" x2="3959.62" y2="1726.5"/>
						<line fill="none" stroke="#08274B" stroke-miterlimit="10" x1="3964.45" y1="1729.94" x2="3969.33" y2="1733.43"/>
					</g>
				</g>
				<polyline fill="none" stroke="#08274B" stroke-miterlimit="10" points="2903.61,1126.77 2960.46,1231.49 2993.1,1099.12 
					3080.94,941.84 3252.05,952.21 3309.09,933.2 3239.09,1065.01 3172.55,1149.24 3198.25,1200.16 				"/>
				<polyline fill="none" stroke="#08274B" stroke-miterlimit="10" points="3074.8,1231.68 3103.91,1123.14 3198.86,1010.44 
					3151.38,941.84 3129.34,857.15 				"/>
				<polyline fill="none" stroke="#08274B" stroke-miterlimit="10" points="2923.66,1061.1 2993.1,1099.12 3103.91,1123.14 
					3172.55,1149.24 3284.22,1143.91 				"/>
				<polyline fill="none" stroke="#08274B" stroke-miterlimit="10" points="3283.62,1145.45 3237.05,1067.95 3197.61,1010.44 
					3091.31,1039.92 2995.34,1098.4 2905.83,1124.01 				"/>
				<path fill="none" stroke="#08274B" stroke-miterlimit="10" d="M3309.09,933.2c-6.48,0-179.75-76.05-179.75-76.05l122.71,95.06"
					/>
				<line fill="none" stroke="#08274B" stroke-miterlimit="10" x1="3080.94" y1="941.84" x2="3129.34" y2="857.15"/>
				<line fill="none" stroke="#08274B" stroke-miterlimit="10" x1="3252.05" y1="952.21" x2="3197.61" y2="1010.44"/>
				<polyline fill="none" stroke="#08274B" stroke-miterlimit="10" points="3154.7,946.43 3091.31,1039.92 3099.88,1122.26 				"/>
				<line fill="none" stroke="#08274B" stroke-miterlimit="10" x1="3080.94" y1="941.84" x2="3091.31" y2="1039.92"/>
				<line fill="none" stroke="#08274B" stroke-miterlimit="10" x1="2923.66" y1="1061.1" x2="3080.94" y2="941.84"/>
				<polyline fill="none" stroke="#08274B" stroke-miterlimit="10" points="3308.63,933.39 3385.14,877.02 3551.06,870.97 				"/>
				<line fill="none" stroke="#08274B" stroke-miterlimit="10" x1="3385.14" y1="877.02" x2="3345.27" y2="840.49"/>
				<line fill="none" stroke="#08274B" stroke-miterlimit="10" x1="3385.14" y1="877.02" x2="3520.62" y2="902.18"/>
				<line fill="none" stroke="#08274B" stroke-miterlimit="10" x1="3309.76" y1="933.94" x2="3520.62" y2="902.18"/>
				<line fill="none" stroke="#08274B" stroke-miterlimit="10" x1="3129.34" y1="857.15" x2="3383.04" y2="877.02"/>
				<polyline fill="none" stroke="#08274B" stroke-miterlimit="10" points="3309.09,933.2 3283.62,870.47 3224.4,822.58 				"/>
				<line fill="none" stroke="#08274B" stroke-miterlimit="10" x1="3228.81" y1="826.15" x2="3383.04" y2="877.02"/>
				<polyline fill="none" stroke="#08274B" stroke-miterlimit="10" points="3104.88,1122.26 3237.96,1067.26 3360.31,1013.38 
					3520.62,902.18 				"/>
				<line fill="none" stroke="#08274B" stroke-miterlimit="10" x1="3252.05" y1="952.21" x2="3237.05" y2="1067.95"/>
				<polyline fill="none" stroke="#08274B" stroke-miterlimit="10" points="3314.79,941.84 3411.42,977.92 3451.59,972.95 				"/>
				<line fill="none" stroke="#08274B" stroke-miterlimit="10" x1="3360.31" y1="1013.38" x2="3284.22" y2="1143.91"/>
				<line fill="none" stroke="#08274B" stroke-miterlimit="10" x1="3309.76" y1="933.94" x2="3380.78" y2="1045.54"/>
				<line fill="none" stroke="#08274B" stroke-miterlimit="10" x1="3019.22" y1="953.5" x2="3080.94" y2="941.84"/>
				<line fill="none" stroke="#08274B" stroke-miterlimit="10" x1="3104.88" y1="1122.26" x2="2962.62" y2="1229.01"/>
				<line fill="none" stroke="#08274B" stroke-miterlimit="10" x1="3172.55" y1="1149.24" x2="3074.8" y2="1231.68"/>
				<circle id="_x2D_.elCircle-_1_" fill="none" stroke="#08274B" stroke-miterlimit="10" cx="3224.83" cy="826.15" r="42.78"/>
				<circle id="_x2D_.elCircle-" fill="none" stroke="#08274B" stroke-miterlimit="10" cx="3551.06" cy="877.89" r="42.78"/>
				<rect x="0.49" y="-8.77" fill="none" width="3840" height="2174.61"/>
				<polygon fill="#A4CD38" points="3081.54,1225.99 3198.25,1200.16 3172.55,1149.24 				"/>
				<polygon fill="#A4CD38" points="2961.83,1230.66 3020.75,1232.8 3012.32,1190.46 				"/>
				<polygon fill="#A4CD38" points="3118.67,999.58 3182.05,986.17 3154.7,946.43 				"/>
				<polygon fill="#A4CD38" points="3182.05,986.17 3209.47,949.63 3154.7,946.43 				"/>
				<polygon fill="#A4CD38" points="3283.62,870.47 3303.33,851.59 3232.59,827.39 				"/>
				<polygon fill="#A4CD38" points="3380.78,1045.54 3411.42,977.92 3360.31,1013.38 				"/>
				<polygon fill="#A4CD38" points="3253.46,1094.49 3284.22,1046.89 3237.05,1067.95 				"/>
				<polygon fill="#A4CD38" points="3178.71,1091.75 3237.05,1067.95 3221.68,1045.54 				"/>
				<polygon fill="#A4CD38" points="2727.78,1009.82 2738.12,926.14 2701.28,975.25 				"/>
				<g>
					<g>
						<line fill="none" stroke="#08274B" stroke-miterlimit="10" x1="3196.74" y1="648.01" x2="3197.77" y2="642.1"/>
						
							<line fill="none" stroke="#08274B" stroke-miterlimit="10" stroke-dasharray="11.7432,11.7432" x1="3199.77" y1="630.53" x2="3254.76" y2="312.31"/>
						<line fill="none" stroke="#08274B" stroke-miterlimit="10" x1="3255.76" y1="306.52" x2="3256.78" y2="300.61"/>
					</g>
				</g>
				<polyline fill="none" stroke="#08274B" stroke-miterlimit="10" points="2731.19,1010.44 2810.57,907.8 2943.54,769 
					3196.74,648.01 				"/>
				<circle fill="#A4CD38" cx="2943.05" cy="767.75" r="12.9"/>
				<circle fill="#A4CD38" cx="3195.4" cy="648.34" r="12.9"/>
				<circle id="_x2D_.elCircle-_10_" fill="none" stroke="#08274B" stroke-miterlimit="10" cx="2727.54" cy="1001.47" r="42.78"/>
				<circle id="_x2D_.elCircle-_11_" fill="none" stroke="#08274B" stroke-miterlimit="10" cx="3194.27" cy="648.92" r="42.78"/>
				<circle id="_x2D_.elCircle-_12_" fill="none" stroke="#08274B" stroke-miterlimit="10" cx="3256.19" cy="300.61" r="42.78"/>
				<rect x="0.49" y="-8.77" fill="none" width="3840" height="2174.61"/>
				<polygon fill="#A4CD38" points="2764.25,568.42 2780.78,615.18 2820.11,511.39 				"/>
				<polygon fill="#A4CD38" points="2830.61,490.11 2845.04,453.01 2806.44,411.26 				"/>
				<polygon fill="#A4CD38" points="2805.56,408.92 2823.73,429.22 2815.15,382.8 				"/>
				<polyline fill="none" stroke="#08274B" stroke-miterlimit="10" points="2749.1,1523.15 2748.18,1328.49 2727.78,1009.82 
					2776.75,622.09 				"/>
				<g>
					<g>
						<line fill="none" stroke="#08274B" stroke-miterlimit="10" x1="2749.1" y1="1523.15" x2="2749.64" y2="1517.17"/>
						<polyline fill="none" stroke="#08274B" stroke-miterlimit="10" stroke-dasharray="11.8893,11.8893" points="2750.71,1505.33 
							2766.24,1333.82 2745.83,1015.15 2775.81,634 						"/>
						<line fill="none" stroke="#08274B" stroke-miterlimit="10" x1="2776.28" y1="628.07" x2="2776.75" y2="622.09"/>
					</g>
				</g>
				<polyline fill="none" stroke="#08274B" stroke-miterlimit="10" points="2779.15,636.76 2864.9,475.18 2838.97,317.9 
					2731.19,463.08 2776.75,608.26 				"/>
				<g>
					<g>
						<line fill="none" stroke="#08274B" stroke-miterlimit="10" x1="2838.08" y1="317.54" x2="2834.16" y2="313"/>
						
							<line fill="none" stroke="#08274B" stroke-miterlimit="10" stroke-dasharray="12.0649,12.0649" x1="2826.26" y1="303.88" x2="2451.05" y2="-129.3"/>
						<line fill="none" stroke="#08274B" stroke-miterlimit="10" x1="2447.1" y1="-133.86" x2="2443.17" y2="-138.4"/>
					</g>
				</g>
				<g>
					<g>
						<line fill="none" stroke="#08274B" stroke-miterlimit="10" x1="2839.21" y1="317.18" x2="2840.27" y2="311.27"/>
						
							<line fill="none" stroke="#08274B" stroke-miterlimit="10" stroke-dasharray="12.2282,12.2282" x1="2842.42" y1="299.23" x2="2914.61" y2="-104"/>
						<line fill="none" stroke="#08274B" stroke-miterlimit="10" x1="2915.69" y1="-110.02" x2="2916.75" y2="-115.93"/>
					</g>
				</g>
				<g>
					<g>
						<line fill="none" stroke="#08274B" stroke-miterlimit="10" x1="2839.21" y1="317.18" x2="2843.82" y2="313.33"/>
						
							<line fill="none" stroke="#08274B" stroke-miterlimit="10" stroke-dasharray="12.3101,12.3101" x1="2853.27" y1="305.44" x2="3113.1" y2="88.44"/>
						<line fill="none" stroke="#08274B" stroke-miterlimit="10" x1="3117.82" y1="84.49" x2="3122.42" y2="80.65"/>
					</g>
				</g>
				<g>
					<g>
						<line fill="none" stroke="#08274B" stroke-miterlimit="10" x1="2864.9" y1="475.18" x2="2868.81" y2="470.63"/>
						<polyline fill="none" stroke="#08274B" stroke-miterlimit="10" stroke-dasharray="11.9276,11.9276" points="2876.6,461.6 
							3048.1,262.59 3117.9,91.72 						"/>
						<line fill="none" stroke="#08274B" stroke-miterlimit="10" x1="3120.16" y1="86.2" x2="3122.42" y2="80.65"/>
					</g>
				</g>
				<g>
					<g>
						<line fill="none" stroke="#08274B" stroke-miterlimit="10" x1="3048.1" y1="262.59" x2="3053.68" y2="260.37"/>
						<polyline fill="none" stroke="#08274B" stroke-miterlimit="10" stroke-dasharray="11.8591,11.8591" points="3064.7,255.98 
							3421.43,113.95 3527.38,-0.03 						"/>
						<line fill="none" stroke="#08274B" stroke-miterlimit="10" x1="3531.42" y1="-4.37" x2="3535.51" y2="-8.77"/>
					</g>
				</g>
				<polyline fill="none" stroke="#08274B" stroke-miterlimit="10" points="2838.97,317.9 2805.56,408.92 2821.11,509.17 
					2780.78,615.18 				"/>
				<line fill="none" stroke="#08274B" stroke-miterlimit="10" x1="2731.19" y1="463.08" x2="2805.56" y2="408.92"/>
				<line fill="none" stroke="#08274B" stroke-miterlimit="10" x1="2821.11" y1="509.17" x2="2840.1" y2="522.37"/>
				<line fill="none" stroke="#08274B" stroke-miterlimit="10" x1="2753.78" y1="535.07" x2="2805.56" y2="408.92"/>
				<line fill="none" stroke="#08274B" stroke-miterlimit="10" x1="2864.9" y1="475.18" x2="2805.56" y2="408.92"/>
				<line fill="none" stroke="#08274B" stroke-miterlimit="10" x1="2821.11" y1="509.17" x2="2764.25" y2="568.42"/>
				<line fill="none" stroke="#08274B" stroke-miterlimit="10" x1="2840.1" y1="522.37" x2="2805.56" y2="411.8"/>
				<line fill="none" stroke="#08274B" stroke-miterlimit="10" x1="2764.25" y1="568.42" x2="2805.56" y2="411.8"/>
				<circle fill="#A4CD38" cx="2838.97" cy="316.67" r="12.9"/>
				<circle id="_x2D_.elCircle-_14_" fill="none" stroke="#08274B" stroke-miterlimit="10" cx="2835.23" cy="320.06" r="42.78"/>
				<circle id="_x2D_.elCircle-_13_" fill="none" stroke="#08274B" stroke-miterlimit="10" cx="2864.9" cy="472" r="42.78"/>
				<circle id="_x2D_.elCircle-_15_" fill="none" stroke="#08274B" stroke-miterlimit="10" cx="3123.67" cy="72.61" r="42.78"/>
				<rect x="0.49" y="-8.77" fill="none" width="3840" height="2174.61"/>
				<polygon fill="#A4CD38" points="2475.58,887.13 2607.04,922.71 2522.68,855.42 				"/>
				<polygon fill="#A4CD38" points="2360.21,706.78 2439.98,779.37 2416.1,694.1 				"/>
				<polygon fill="#A4CD38" points="2556.38,733.57 2564.03,701.59 2517.81,649.31 				"/>
				<polygon fill="#A4CD38" points="2411.93,593.82 2461.33,607.4 2450.09,566.25 				"/>
				<polygon fill="#A4CD38" points="2195.14,601.35 2227.9,646.66 2277.26,588.6 				"/>
				<polyline fill="none" stroke="#08274B" stroke-miterlimit="10" points="2727.54,1010.68 2676.5,941.84 2676.5,829.49 
					2629.84,701.59 2450.09,565.05 2306.63,539.13 2247.87,568.51 				"/>
				<g id="_x2D_.elLine-">
					<g>
						<line fill="none" stroke="#08274B" stroke-miterlimit="10" x1="2247.87" y1="568.51" x2="2241.9" y2="567.9"/>
						
							<line fill="none" stroke="#08274B" stroke-miterlimit="10" stroke-dasharray="12.1833,12.1833" x1="2229.78" y1="566.65" x2="1654.1" y2="507.52"/>
						<line fill="none" stroke="#08274B" stroke-miterlimit="10" x1="1648.04" y1="506.9" x2="1642.07" y2="506.29"/>
					</g>
				</g>
				<polyline fill="none" stroke="#08274B" stroke-miterlimit="10" points="2676.5,941.84 2475.58,888.26 2298.86,744.8 
					2195.14,601.35 2140.47,558.5 				"/>
				<g id="_x2D_.elLine-_4_">
					<g>
						<line fill="none" stroke="#08274B" stroke-miterlimit="10" x1="2443.17" y1="544.31" x2="2442.49" y2="538.35"/>
						<polyline fill="none" stroke="#08274B" stroke-miterlimit="10" stroke-dasharray="11.9953,11.9953" points="2441.13,526.43 
							2422.43,362.83 2259.11,-59.8 						"/>
						<line fill="none" stroke="#08274B" stroke-miterlimit="10" x1="2256.94" y1="-65.39" x2="2254.78" y2="-70.99"/>
					</g>
				</g>
				
					<line id="_x2D_.elLine-_5_" fill="none" stroke="#08274B" stroke-miterlimit="10" stroke-dasharray="12" x1="2422.43" y1="362.83" x2="2163.18" y2="186.54"/>
				<g id="_x2D_.elLine-_3_">
					<g>
						<line fill="none" stroke="#08274B" stroke-miterlimit="10" x1="2306.63" y1="539.13" x2="2303.13" y2="534.25"/>
						
							<line fill="none" stroke="#08274B" stroke-miterlimit="10" stroke-dasharray="11.8025,11.8025" x1="2296.25" y1="524.67" x2="1886.67" y2="-45.77"/>
						<line fill="none" stroke="#08274B" stroke-miterlimit="10" x1="1883.22" y1="-50.56" x2="1879.72" y2="-55.43"/>
					</g>
				</g>
				<g id="_x2D_.elLine-_2_">
					<g>
						<line fill="none" stroke="#08274B" stroke-miterlimit="10" x1="2154.54" y1="362.83" x2="2148.97" y2="360.6"/>
						<polyline fill="none" stroke="#08274B" stroke-miterlimit="10" stroke-dasharray="11.9624,11.9624" points="2137.86,356.16 
							1973.06,290.24 1395.62,-64.71 						"/>
						<line fill="none" stroke="#08274B" stroke-miterlimit="10" x1="1390.52" y1="-67.85" x2="1385.41" y2="-70.99"/>
					</g>
				</g>
				<g id="_x2D_.elLine-_1_">
					<g>
						<line fill="none" stroke="#08274B" stroke-miterlimit="10" x1="2140.47" y1="558.5" x2="2137.28" y2="553.42"/>
						
							<line fill="none" stroke="#08274B" stroke-miterlimit="10" stroke-dasharray="12.1789,12.1789" x1="2130.8" y1="543.1" x2="1978.64" y2="300.7"/>
						<line fill="none" stroke="#08274B" stroke-miterlimit="10" x1="1975.41" y1="295.54" x2="1972.22" y2="290.46"/>
					</g>
				</g>
				<polyline fill="none" stroke="#08274B" stroke-miterlimit="10" points="2676.5,941.84 2556.38,733.57 2448.36,655.53 
					2393.92,607.4 2238.36,582.34 2144.38,558.81 				"/>
				<polyline fill="none" stroke="#08274B" stroke-miterlimit="10" points="2379.9,808.01 2438.85,779.37 2537.37,779.37 
					2615.88,836.72 				"/>
				<polyline fill="none" stroke="#08274B" stroke-miterlimit="10" points="2556.38,733.57 2514.04,643.69 2450.09,565.05 				"/>
				<polyline fill="none" stroke="#08274B" stroke-miterlimit="10" points="2277.26,588.6 2360.21,706.78 2522.68,855.42 
					2615.88,836.72 				"/>
				<polyline fill="none" stroke="#08274B" stroke-miterlimit="10" points="2473.32,887.59 2522.68,855.42 2609.59,923.7 
					2615.88,836.72 				"/>
				<line fill="none" stroke="#08274B" stroke-miterlimit="10" x1="2475.58" y1="888.26" x2="2438.85" y2="779.37"/>
				<line fill="none" stroke="#08274B" stroke-miterlimit="10" x1="2522.68" y1="855.42" x2="2537.37" y2="779.37"/>
				<line fill="none" stroke="#08274B" stroke-miterlimit="10" x1="2305.72" y1="750.37" x2="2360.21" y2="706.78"/>
				<line fill="none" stroke="#08274B" stroke-miterlimit="10" x1="2438.85" y1="779.37" x2="2305.72" y2="750.37"/>
				<polyline fill="none" stroke="#08274B" stroke-miterlimit="10" points="2360.21,706.78 2416.1,694.1 2537.37,779.37 				"/>
				<polyline fill="none" stroke="#08274B" stroke-miterlimit="10" points="2439.98,778.29 2416.1,694.1 2277.26,588.6 				"/>
				<line fill="none" stroke="#08274B" stroke-miterlimit="10" x1="2447.69" y1="655" x2="2277.26" y2="588.6"/>
				<polyline fill="none" stroke="#08274B" stroke-miterlimit="10" points="2416.1,694.1 2384.7,630.98 2393.92,607.4 
					2306.63,539.13 				"/>
				<line fill="none" stroke="#08274B" stroke-miterlimit="10" x1="2277.26" y1="588.6" x2="2247.87" y2="568.51"/>
				<line fill="none" stroke="#08274B" stroke-miterlimit="10" x1="2306.63" y1="539.13" x2="2277.26" y2="588.6"/>
				<line fill="none" stroke="#08274B" stroke-miterlimit="10" x1="2480.93" y1="679.12" x2="2450.09" y2="566.25"/>
				<line fill="none" stroke="#08274B" stroke-miterlimit="10" x1="2393.92" y1="607.4" x2="2450.09" y2="565.05"/>
				<line fill="none" stroke="#08274B" stroke-miterlimit="10" x1="2537.37" y1="779.37" x2="2556.38" y2="733.57"/>
				<polyline fill="none" stroke="#08274B" stroke-miterlimit="10" points="2305.72,750.37 2277.26,588.6 2195.14,601.35 				"/>
				<line fill="none" stroke="#08274B" stroke-miterlimit="10" x1="2537.37" y1="779.37" x2="2447.69" y2="655"/>
				<line fill="none" stroke="#08274B" stroke-miterlimit="10" x1="2385.83" y1="632.11" x2="2530.03" y2="774.21"/>
				<line fill="none" stroke="#08274B" stroke-miterlimit="10" x1="2480.93" y1="679.12" x2="2514.04" y2="643.69"/>
				<line fill="none" stroke="#08274B" stroke-miterlimit="10" x1="2556.38" y1="733.57" x2="2676.48" y2="830.85"/>
				<line fill="none" stroke="#08274B" stroke-miterlimit="10" x1="2615.88" y1="836.72" x2="2675.88" y2="830.85"/>
				<line fill="none" stroke="#08274B" stroke-miterlimit="10" x1="2629.84" y1="701.59" x2="2514.21" y2="644.2"/>
				<line fill="none" stroke="#08274B" stroke-miterlimit="10" x1="2515.34" y1="645.33" x2="2675.88" y2="830.85"/>
				<circle id="_x2D_.elCircle-_16_" fill="none" stroke="#08274B" stroke-miterlimit="10" cx="2140.47" cy="558.81" r="42.78"/>
				<circle id="_x2D_.elCircle-_17_" fill="none" stroke="#08274B" stroke-miterlimit="10" cx="1964.84" cy="290.46" r="42.78"/>
				<rect x="0.49" y="-8.77" fill="none" width="3840" height="2174.61"/>
			</g>
		</g>
	</g>
</g>
<rect y="-9.01" fill="none" width="3840" height="2174.61"/>
</svg>
