<?xml version="1.0" encoding="utf-8"?>
<!-- Generator: Adobe Illustrator 24.2.1, SVG Export Plug-In . SVG Version: 6.00 Build 0)  -->
<svg version="1.1" id="_x32_455inRewardSvg" xmlns="http://www.w3.org/2000/svg" xmlns:xlink="http://www.w3.org/1999/xlink"
	 x="0px" y="0px" width="3840px" height="2165.6px" viewBox="0 0 3840 2165.6" enable-background="new 0 0 3840 2165.6"
	 xml:space="preserve">
<g id="_x2D_.contentScene-">
	<g id="_x2D_.moveElements-_1_">
		<g>
			<g>
				<g>
					
						<text transform="matrix(1 0 0 1 622.9768 1409.5983)" fill="#002C4F" font-family="'HelveticaNeueLTStd-ThIt'" font-size="336.497px" letter-spacing="-5">2455</text>
				</g>
				<g>
					
						<text transform="matrix(1 0 0 1 528.7833 1305.9302)" fill="#002C4F" font-family="'HelveticaNeueLTStd-Th'" font-size="177.1729px" letter-spacing="-3">$</text>
				</g>
				<rect y="-9.01" fill="none" width="3840" height="2174.61"/>
			</g>
		</g>
		<g>
			<g>
				
					<text transform="matrix(1 0 0 1 592.5173 1593.2306)" fill="#012B48" font-family="'HelveticaNeueLTStd-Bd'" font-size="151.0856px" letter-spacing="-1">in rewards dollars earned.</text>
				<rect y="-9.01" fill="none" width="3840" height="2174.61"/>
			</g>
		</g>
	</g>
	<g id="_x2D_.moveElements-_2_">
		<g>
			<g>
				<polygon fill="#A4CD38" points="2422.43,1812.43 2431.76,1854.61 2542.82,1767.14 				"/>
				<polygon fill="#A4CD38" points="2719.84,1507.42 2749.1,1528.62 2749.1,1481.95 				"/>
				<polygon fill="#A4CD38" points="2281.35,1863.83 2339.79,1857.8 2354.44,1837 				"/>
				<g>
					<g>
						<line fill="none" stroke="#08274B" stroke-miterlimit="10" x1="2749.1" y1="1528.62" x2="2749.1" y2="1534.62"/>
						<polyline fill="none" stroke="#08274B" stroke-miterlimit="10" stroke-dasharray="12.3632,12.3632" points="2749.1,1546.98 
							2749.1,1634.92 2679.85,1877.27 						"/>
						<polyline fill="none" stroke="#08274B" stroke-miterlimit="10" points="2678.15,1883.22 2676.5,1888.99 2679.96,1893.89 
													"/>
						
							<line fill="none" stroke="#08274B" stroke-miterlimit="10" stroke-dasharray="12.1953,12.1953" x1="2686.99" y1="1903.85" x2="2936.56" y2="2257.61"/>
						<line fill="none" stroke="#08274B" stroke-miterlimit="10" x1="2940.08" y1="2262.6" x2="2943.54" y2="2267.5"/>
					</g>
				</g>
				<g>
					<g>
						<line fill="none" stroke="#08274B" stroke-miterlimit="10" x1="2749.1" y1="1634.92" x2="2744.04" y2="1638.14"/>
						<polyline fill="none" stroke="#08274B" stroke-miterlimit="10" stroke-dasharray="12.0843,12.0843" points="2733.85,1644.64 
							2541.69,1767.14 2170.96,1904.83 1731.58,2281.96 						"/>
						<line fill="none" stroke="#08274B" stroke-miterlimit="10" x1="1727" y1="2285.89" x2="1722.44" y2="2289.8"/>
					</g>
				</g>
				<g>
					<g>
						<line fill="none" stroke="#08274B" stroke-miterlimit="10" x1="2749.1" y1="1481.95" x2="2744.57" y2="1485.89"/>
						<polyline fill="none" stroke="#08274B" stroke-miterlimit="10" stroke-dasharray="11.9095,11.9095" points="2735.59,1493.71 
							2381.29,1802.09 2025.14,2280.21 						"/>
						<line fill="none" stroke="#08274B" stroke-miterlimit="10" x1="2021.58" y1="2284.99" x2="2017.99" y2="2289.8"/>
					</g>
				</g>
				<g>
					<g>
						<line fill="none" stroke="#08274B" stroke-miterlimit="10" x1="2749.1" y1="1528.62" x2="2744.43" y2="1532.39"/>
						<polyline fill="none" stroke="#08274B" stroke-miterlimit="10" stroke-dasharray="11.932,11.932" points="2735.14,1539.88 
							2427.62,1787.88 1791.4,2298.89 						"/>
						<line fill="none" stroke="#08274B" stroke-miterlimit="10" x1="1786.75" y1="2302.63" x2="1782.07" y2="2306.39"/>
					</g>
				</g>
				<g>
					<g>
						<line fill="none" stroke="#08274B" stroke-miterlimit="10" x1="2886.5" y1="1898.06" x2="2883.81" y2="1903.42"/>
						
							<line fill="none" stroke="#08274B" stroke-miterlimit="10" stroke-dasharray="12.1857,12.1857" x1="2878.33" y1="1914.31" x2="2694.9" y2="2279"/>
						<line fill="none" stroke="#08274B" stroke-miterlimit="10" x1="2692.16" y1="2284.44" x2="2689.47" y2="2289.8"/>
					</g>
				</g>
				<g>
					<g>
						<line fill="none" stroke="#08274B" stroke-miterlimit="10" x1="2422.43" y1="1812.43" x2="2423.8" y2="1818.28"/>
						
							<line fill="none" stroke="#08274B" stroke-miterlimit="10" stroke-dasharray="12.3058,12.3058" x1="2426.6" y1="1830.26" x2="2525.96" y2="2255.67"/>
						<line fill="none" stroke="#08274B" stroke-miterlimit="10" x1="2527.36" y1="2261.66" x2="2528.73" y2="2267.5"/>
					</g>
				</g>
				<g>
					<g>
						<line fill="none" stroke="#08274B" stroke-miterlimit="10" x1="1642.07" y1="2200.09" x2="1647.37" y2="2197.27"/>
						<path fill="none" stroke="#08274B" stroke-miterlimit="10" stroke-dasharray="11.89,11.89" d="M1657.87,2191.69l870.86-463.44
							c0,0,164.31-101.88,208.79-126.47"/>
						<path fill="none" stroke="#08274B" stroke-miterlimit="10" d="M2742.75,1598.96c2.88-1.5,4.76-2.36,5.46-2.46"/>
					</g>
				</g>
				<g>
					<g>
						<line fill="none" stroke="#08274B" stroke-miterlimit="10" x1="2810.02" y1="1720.47" x2="2806.33" y2="1725.2"/>
						
							<line fill="none" stroke="#08274B" stroke-miterlimit="10" stroke-dasharray="12.083,12.083" x1="2798.89" y1="1734.72" x2="2415.9" y2="2225.17"/>
						<line fill="none" stroke="#08274B" stroke-miterlimit="10" x1="2412.18" y1="2229.93" x2="2408.49" y2="2234.66"/>
					</g>
				</g>
				<g>
					<g>
						<line fill="none" stroke="#08274B" stroke-miterlimit="10" x1="2366.68" y1="1906.12" x2="2368.93" y2="1911.68"/>
						
							<line fill="none" stroke="#08274B" stroke-miterlimit="10" stroke-dasharray="11.995,11.995" x1="2373.43" y1="1922.8" x2="2524.23" y2="2295.27"/>
						<line fill="none" stroke="#08274B" stroke-miterlimit="10" x1="2526.48" y1="2300.83" x2="2528.73" y2="2306.39"/>
					</g>
				</g>
				<g>
					<g>
						<line fill="none" stroke="#08274B" stroke-miterlimit="10" x1="2552.06" y1="1760.52" x2="2547.34" y2="1764.23"/>
						
							<line fill="none" stroke="#08274B" stroke-miterlimit="10" stroke-dasharray="12.0095,12.0095" x1="2537.89" y1="1771.63" x2="1956.58" y2="2227.25"/>
						<line fill="none" stroke="#08274B" stroke-miterlimit="10" x1="1951.85" y1="2230.96" x2="1947.13" y2="2234.66"/>
					</g>
				</g>
				<g>
					<g>
						<line fill="none" stroke="#08274B" stroke-miterlimit="10" x1="2727.78" y1="1709.52" x2="2724.19" y2="1714.33"/>
						
							<line fill="none" stroke="#08274B" stroke-miterlimit="10" stroke-dasharray="12.087,12.087" x1="2716.97" y1="1724.03" x2="2272.78" y2="2320.06"/>
						<line fill="none" stroke="#08274B" stroke-miterlimit="10" x1="2269.17" y1="2324.91" x2="2265.58" y2="2329.72"/>
					</g>
				</g>
				<g>
					<g>
						<line fill="none" stroke="#08274B" stroke-miterlimit="10" x1="2581.34" y1="1906.12" x2="2581.84" y2="1912.1"/>
						
							<line fill="none" stroke="#08274B" stroke-miterlimit="10" stroke-dasharray="12.0237,12.0237" x1="2582.85" y1="1924.08" x2="2608.58" y2="2229.6"/>
						<line fill="none" stroke="#08274B" stroke-miterlimit="10" x1="2609.09" y1="2235.6" x2="2609.59" y2="2241.57"/>
					</g>
				</g>
				<g>
					<g>
						<line fill="none" stroke="#08274B" stroke-miterlimit="10" x1="2810.02" y1="1720.47" x2="2807.78" y2="1726.04"/>
						
							<line fill="none" stroke="#08274B" stroke-miterlimit="10" stroke-dasharray="12.1465,12.1465" x1="2803.25" y1="1737.31" x2="2579.03" y2="2295.19"/>
						<line fill="none" stroke="#08274B" stroke-miterlimit="10" x1="2576.77" y1="2300.82" x2="2574.53" y2="2306.39"/>
					</g>
				</g>
				<g>
					<g>
						<line fill="none" stroke="#08274B" stroke-miterlimit="10" x1="2551.29" y1="1760.52" x2="2545.32" y2="1759.98"/>
						
							<line fill="none" stroke="#08274B" stroke-miterlimit="10" stroke-dasharray="11.558,11.558" x1="2533.81" y1="1758.94" x2="2378.41" y2="1744.87"/>
						<line fill="none" stroke="#08274B" stroke-miterlimit="10" x1="2372.66" y1="1744.34" x2="2366.68" y2="1743.8"/>
					</g>
				</g>
				<circle fill="#A4CD38" cx="2173.3" cy="1903.21" r="12.9"/>
				<circle fill="#A4CD38" cx="2174.13" cy="1903.21" r="12.9"/>
				<circle fill="#A4CD38" cx="2367.34" cy="1743.8" r="12.9"/>
				<circle id="_x2D_.elCircle-_7_" fill="none" stroke="#08274B" stroke-miterlimit="10" cx="2174.13" cy="1901.62" r="43.82"/>
				<circle fill="none" stroke="#08274B" stroke-miterlimit="10" cx="2748.21" cy="1637.72" r="42.78"/>
				<circle id="_x2D_.elCircle-_6_" fill="none" stroke="#08274B" stroke-miterlimit="10" cx="2544.6" cy="1763.25" r="42.78"/>
				<rect x="0.49" y="-8.77" fill="none" width="3840" height="2174.61"/>
				<polygon fill="#A4CD38" points="3042.66,1803.47 3073.08,1897.81 3151.38,1906.83 				"/>
				<polygon fill="#A4CD38" points="2778.62,1676.37 2810.46,1722.16 2858.63,1739.56 				"/>
				<line fill="none" stroke="#08274B" stroke-miterlimit="10" x1="2749.1" y1="1634.92" x2="2960.46" y2="1578.38"/>
				<g>
					<g>
						<line fill="none" stroke="#08274B" stroke-miterlimit="10" x1="2749.1" y1="1528.62" x2="2753.47" y2="1532.73"/>
						
							<line fill="none" stroke="#08274B" stroke-miterlimit="10" stroke-dasharray="12.0311,12.0311" x1="2762.23" y1="1540.97" x2="3476.63" y2="2212.6"/>
						<line fill="none" stroke="#08274B" stroke-miterlimit="10" x1="3481.01" y1="2216.72" x2="3485.38" y2="2220.83"/>
					</g>
				</g>
				<g>
					<g>
						<line fill="none" stroke="#08274B" stroke-miterlimit="10" x1="2749.1" y1="1528.62" x2="2754.94" y2="1529.99"/>
						<polyline fill="none" stroke="#08274B" stroke-miterlimit="10" stroke-dasharray="12.1083,12.1083" points="2766.73,1532.76 
							2959.09,1577.88 3207.98,1628.15 3717.08,1582.84 						"/>
						<line fill="none" stroke="#08274B" stroke-miterlimit="10" x1="3723.11" y1="1582.3" x2="3729.08" y2="1581.77"/>
					</g>
				</g>
				<g>
					<g>
						<line fill="none" stroke="#08274B" stroke-miterlimit="10" x1="2749.1" y1="1634.92" x2="2752.58" y2="1639.8"/>
						<polyline fill="none" stroke="#08274B" stroke-miterlimit="10" stroke-dasharray="12.0279,12.0279" points="2759.55,1649.6 
							2810.02,1720.47 2886.5,1898.06 3284.12,2213.37 						"/>
						<line fill="none" stroke="#08274B" stroke-miterlimit="10" x1="3288.83" y1="2217.11" x2="3293.53" y2="2220.83"/>
					</g>
				</g>
				<g>
					<g>
						<line fill="none" stroke="#08274B" stroke-miterlimit="10" x1="2811.14" y1="1723.06" x2="2816.8" y2="1725.03"/>
						
							<line fill="none" stroke="#08274B" stroke-miterlimit="10" stroke-dasharray="12.2678,12.2678" x1="2828.39" y1="1729.05" x2="3031.2" y2="1799.49"/>
						<polyline fill="none" stroke="#08274B" stroke-miterlimit="10" points="3036.99,1801.5 3042.66,1803.47 3044.5,1809.18 						
							"/>
						<polyline fill="none" stroke="#08274B" stroke-miterlimit="10" stroke-dasharray="12.1499,12.1499" points="3048.23,1820.75 
							3073.17,1898.06 3257.17,2278.93 						"/>
						<line fill="none" stroke="#08274B" stroke-miterlimit="10" x1="3259.81" y1="2284.4" x2="3262.42" y2="2289.8"/>
					</g>
				</g>
				<g>
					<g>
						<line fill="none" stroke="#08274B" stroke-miterlimit="10" x1="3042.66" y1="1803.47" x2="3040.88" y2="1809.2"/>
						<polyline fill="none" stroke="#08274B" stroke-miterlimit="10" stroke-dasharray="12.2077,12.2077" points="3037.26,1820.86 
							2996.81,1951.21 2945.22,2317.74 						"/>
						<line fill="none" stroke="#08274B" stroke-miterlimit="10" x1="2944.37" y1="2323.78" x2="2943.54" y2="2329.72"/>
					</g>
				</g>
				<g>
					<g>
						<line fill="none" stroke="#08274B" stroke-miterlimit="10" x1="2996.81" y1="1951.21" x2="2998.61" y2="1956.93"/>
						
							<line fill="none" stroke="#08274B" stroke-miterlimit="10" stroke-dasharray="11.7709,11.7709" x1="3002.14" y1="1968.16" x2="3127.5" y2="2366.78"/>
						<line fill="none" stroke="#08274B" stroke-miterlimit="10" x1="3129.27" y1="2372.39" x2="3131.07" y2="2378.12"/>
					</g>
				</g>
				<circle fill="#A4CD38" cx="2962.72" cy="1575.91" r="12.9"/>
				<circle fill="#A4CD38" cx="3211.76" cy="1627.02" r="12.9"/>
				<circle id="_x2D_.elCircle-_2_" fill="none" stroke="#08274B" stroke-miterlimit="10" cx="2963.05" cy="1574.78" r="42.78"/>
				<circle id="_x2D_.elCircle-_3_" fill="none" stroke="#08274B" stroke-miterlimit="10" cx="2809.88" cy="1720.47" r="42.78"/>
				<circle id="_x2D_.elCircle-_5_" fill="none" stroke="#08274B" stroke-miterlimit="10" cx="2886.5" cy="1898.88" r="42.78"/>
				<circle id="_x2D_.elCircle-_4_" fill="none" stroke="#08274B" stroke-miterlimit="10" cx="3080.94" cy="1906.12" r="42.78"/>
				<rect x="0.49" y="-8.77" fill="none" width="3840" height="2174.61"/>
				<polygon fill="#A4CD38" points="2748.26,1309.69 2748.62,1421.95 2798.19,1275.17 				"/>
				<g>
					<g>
						<line fill="none" stroke="#08274B" stroke-miterlimit="10" x1="2743.6" y1="1308.93" x2="2738.68" y2="1305.5"/>
						<polyline fill="none" stroke="#08274B" stroke-miterlimit="10" stroke-dasharray="12.0043,12.0043" points="2728.84,1298.62 
							2552.06,1175.17 2481.68,1055.88 						"/>
						<line fill="none" stroke="#08274B" stroke-miterlimit="10" x1="2478.63" y1="1050.71" x2="2475.58" y2="1045.54"/>
					</g>
				</g>
				<g>
					<g>
						<line fill="none" stroke="#08274B" stroke-miterlimit="10" x1="2552.06" y1="1175.17" x2="2546.3" y2="1176.86"/>
						<polyline fill="none" stroke="#08274B" stroke-miterlimit="10" stroke-dasharray="12.2642,12.2642" points="2534.54,1180.31 
							2363.67,1230.48 2057.76,1247.1 						"/>
						<line fill="none" stroke="#08274B" stroke-miterlimit="10" x1="2051.64" y1="1247.43" x2="2045.65" y2="1247.76"/>
					</g>
				</g>
				<circle fill="#A4CD38" cx="2804.37" cy="1266.72" r="12.9"/>
				<circle fill="#A4CD38" cx="2362.47" cy="1231.49" r="12.9"/>
				<circle fill="#A4CD38" cx="2552.06" cy="1175.17" r="12.9"/>
				<circle fill="#A4CD38" cx="2475.58" cy="1044.24" r="12.9"/>
				<circle id="_x2D_.elCircle-_8_" fill="none" stroke="#08274B" stroke-miterlimit="10" cx="2805.56" cy="1264.66" r="42.78"/>
				<circle id="_x2D_.elCircle-_9_" fill="none" stroke="#08274B" stroke-miterlimit="10" cx="2362.47" cy="1229.01" r="42.78"/>
				<rect x="0.49" y="-8.77" fill="none" width="3840" height="2174.61"/>
				<polygon fill="#A4CD38" points="3088.16,1010.08 3080.94,941.84 3053.06,991.77 				"/>
				<polygon fill="#A4CD38" points="3078.06,942.38 3020.19,953.5 2991.07,978.13 				"/>
				<polyline fill="none" stroke="#08274B" stroke-miterlimit="10" points="2750.51,1307.44 2871.81,1223.56 2923.66,1061.1 
					2991.07,978.13 3129.34,857.15 3224.4,822.58 3551.06,870.97 3276.25,1152.7 3208.84,1197.64 3056.75,1233.93 2878.6,1229.42 
									"/>
				<g>
					<defs>
						<path id="SVGID_1_" d="M3570.39,859.26l-0.64-0.77l4.6-3.86l0.64,0.77L3570.39,859.26z M3593.13,840.18l-0.64-0.77l-9.07,7.61
							l0.64,0.77L3593.13,840.18z M3611.28,824.96l-0.64-0.77l-9.07,7.61l0.64,0.77L3611.28,824.96z M3629.42,809.75l-0.64-0.77
							l-9.07,7.61l0.64,0.77L3629.42,809.75z M3647.56,794.53l-0.64-0.77l-9.07,7.61l0.64,0.77L3647.56,794.53z M3665.71,779.31
							l-0.64-0.77l-9.07,7.61l0.64,0.77L3665.71,779.31z M3683.85,764.09l-0.64-0.77l-9.07,7.61l0.64,0.77L3683.85,764.09z
							 M3701.99,748.87l-0.64-0.77l-9.07,7.61l0.64,0.77L3701.99,748.87z M3720.14,733.65l-0.64-0.77l-9.07,7.61l0.64,0.77
							L3720.14,733.65z M3738.28,718.43l-0.64-0.77l-9.07,7.61l0.64,0.77L3738.28,718.43z M3756.42,703.21l-0.64-0.77l-9.07,7.61
							l0.64,0.77L3756.42,703.21z M3774.57,687.99l-0.64-0.77l-9.07,7.61l0.64,0.77L3774.57,687.99z M3792.71,672.77l-0.64-0.77
							l-9.07,7.61l0.64,0.77L3792.71,672.77z M3810.85,657.56l-0.64-0.77l-9.07,7.61l0.64,0.77L3810.85,657.56z M3829,642.34
							l-0.64-0.77l-9.07,7.61l0.64,0.77L3829,642.34z M3847.14,627.12l-0.64-0.77l-9.07,7.61l0.64,0.77L3847.14,627.12z
							 M3865.28,611.9l-0.64-0.77l-9.07,7.61l0.64,0.77L3865.28,611.9z M3883.43,596.68l-0.64-0.77l-9.07,7.61l0.64,0.77
							L3883.43,596.68z M3901.57,581.46l-0.64-0.77l-9.07,7.61l0.64,0.77L3901.57,581.46z M3919.71,566.24l-0.64-0.77l-9.07,7.61
							l0.64,0.77L3919.71,566.24z M3937.86,551.02l-0.64-0.77l-9.07,7.61l0.64,0.77L3937.86,551.02z M3956,535.8l-0.64-0.77
							l-9.07,7.61l0.64,0.77L3956,535.8z M3974.14,520.58l-0.64-0.77l-9.07,7.61l0.64,0.77L3974.14,520.58z M3992.29,505.37
							l-0.64-0.77l-9.07,7.61l0.64,0.77L3992.29,505.37z M4010.43,490.15l-0.64-0.77l-9.07,7.61l0.64,0.77L4010.43,490.15z
							 M4028.57,474.93l-0.64-0.77l-9.07,7.61l0.64,0.77L4028.57,474.93z M4042.24,463.46l-0.64-0.77l-4.6,3.86l0.64,0.77
							L4042.24,463.46z"/>
					</defs>
					<clipPath id="SVGID_2_">
						<use xlink:href="#SVGID_1_"  overflow="visible"/>
					</clipPath>
					<g clip-path="url(#SVGID_2_)">
						<g id="_x2D_.elLine-_18_">
							<g>
								
									<line fill="none" stroke="#08274B" stroke-width="3" stroke-miterlimit="10" x1="3570.07" y1="858.88" x2="3574.67" y2="855.02"/>
								
									<line fill="none" stroke="#08274B" stroke-width="3" stroke-miterlimit="10" stroke-dasharray="11.8406,11.8406" x1="3583.74" y1="847.41" x2="4032.79" y2="470.74"/>
								
									<line fill="none" stroke="#08274B" stroke-width="3" stroke-miterlimit="10" x1="4037.32" y1="466.93" x2="4041.92" y2="463.08"/>
							</g>
						</g>
					</g>
				</g>
				<g>
					<defs>
						<path id="SVGID_3_" d="M3343.54,839.62l-0.97-0.23l1.37-5.84l0.97,0.23L3343.54,839.62z M3350.36,810.59l-0.97-0.23
							l-2.72,11.59l0.97,0.23L3350.36,810.59z M3355.8,787.4l-0.97-0.23l-2.72,11.59l0.97,0.23L3355.8,787.4z M3361.24,764.22
							l-0.97-0.23l-2.72,11.59l0.97,0.23L3361.24,764.22z M3366.68,741.03l-0.97-0.23l-2.72,11.59l0.97,0.23L3366.68,741.03z
							 M3372.12,717.84l-0.97-0.23l-2.72,11.59l0.97,0.23L3372.12,717.84z M3377.56,694.65l-0.97-0.23l-2.72,11.59l0.97,0.23
							L3377.56,694.65z M3383,671.47l-0.97-0.23l-2.72,11.59l0.97,0.23L3383,671.47z M3388.45,648.28l-0.97-0.23l-2.72,11.59
							l0.97,0.23L3388.45,648.28z M3392.49,631.06l5.02-2.88l-0.5-0.87l-5.39,3.09l-1.42,6.05l0.97,0.23L3392.49,631.06z
							 M3418.3,616.25l-0.5-0.87l-10.4,5.96l0.5,0.87L3418.3,616.25z M3439.1,604.33l-0.5-0.87l-10.4,5.96l0.5,0.87L3439.1,604.33z
							 M3459.9,592.4l-0.5-0.87l-10.4,5.96l0.5,0.87L3459.9,592.4z M3480.7,580.48l-0.5-0.87l-10.4,5.96l0.5,0.87L3480.7,580.48z
							 M3501.49,568.55l-0.5-0.87l-10.4,5.96l0.5,0.87L3501.49,568.55z M3522.29,556.63l-0.5-0.87l-10.4,5.96l0.5,0.87
							L3522.29,556.63z M3543.09,544.7l-0.5-0.87l-10.4,5.96l0.5,0.87L3543.09,544.7z M3563.89,532.77l-0.5-0.87l-10.4,5.96
							l0.5,0.87L3563.89,532.77z M3584.68,520.85l-0.5-0.87l-10.4,5.96l0.5,0.87L3584.68,520.85z M3605.48,508.92l-0.5-0.87
							l-10.4,5.96l0.5,0.87L3605.48,508.92z M3626.28,497l-0.5-0.87l-10.4,5.96l0.5,0.87L3626.28,497z M3647.08,485.07l-0.5-0.87
							l-10.4,5.96l0.5,0.87L3647.08,485.07z M3667.88,473.15l-0.5-0.87l-10.4,5.96l0.5,0.87L3667.88,473.15z M3688.67,461.22
							l-0.5-0.87l-10.4,5.96l0.5,0.87L3688.67,461.22z M3709.47,449.3l-0.5-0.87l-10.4,5.96l0.5,0.87L3709.47,449.3z
							 M3730.27,437.37l-0.5-0.87l-10.4,5.96l0.5,0.87L3730.27,437.37z M3751.07,425.45l-0.5-0.87l-10.4,5.96l0.5,0.87
							L3751.07,425.45z M3771.86,413.52l-0.5-0.87l-10.4,5.96l0.5,0.87L3771.86,413.52z M3792.66,401.59l-0.5-0.87l-10.4,5.96
							l0.5,0.87L3792.66,401.59z M3813.46,389.67l-0.5-0.87l-10.4,5.96l0.5,0.87L3813.46,389.67z M3834.26,377.74l-0.5-0.87
							l-10.4,5.96l0.5,0.87L3834.26,377.74z M3855.05,365.82l-0.5-0.87l-10.4,5.96l0.5,0.87L3855.05,365.82z M3875.85,353.89
							l-0.5-0.87l-10.4,5.96l0.5,0.87L3875.85,353.89z M3896.65,341.97l-0.5-0.87l-10.4,5.96l0.5,0.87L3896.65,341.97z
							 M3917.45,330.04l-0.5-0.87l-10.4,5.96l0.5,0.87L3917.45,330.04z M3938.25,318.11l-0.5-0.87l-10.4,5.96l0.5,0.87
							L3938.25,318.11z M3959.04,306.19l-0.5-0.87l-10.4,5.96l0.5,0.87L3959.04,306.19z M3979.84,294.26l-0.5-0.87l-10.4,5.96
							l0.5,0.87L3979.84,294.26z M4000.64,282.34l-0.5-0.87l-10.4,5.96l0.5,0.87L4000.64,282.34z M4016.24,273.39l-0.5-0.87
							l-5.21,2.98l0.5,0.87L4016.24,273.39z"/>
					</defs>
					<clipPath id="SVGID_4_">
						<use xlink:href="#SVGID_3_"  overflow="visible"/>
					</clipPath>
					<g clip-path="url(#SVGID_4_)">
						<g id="_x2D_.elLine-_13_">
							<g>
								
									<line fill="none" stroke="#08274B" stroke-width="3" stroke-miterlimit="10" x1="3343.06" y1="839.5" x2="3344.43" y2="833.66"/>
								
									<line fill="none" stroke="#08274B" stroke-width="3" stroke-miterlimit="10" stroke-dasharray="11.9085,11.9085" x1="3347.15" y1="822.07" x2="3389.32" y2="642.37"/>
								<polyline fill="none" stroke="#08274B" stroke-width="3" stroke-miterlimit="10" points="3390.68,636.57 3392.05,630.73 
									3397.26,627.75 								"/>
								
									<line fill="none" stroke="#08274B" stroke-width="3" stroke-miterlimit="10" stroke-dasharray="11.9871,11.9871" x1="3407.65" y1="621.78" x2="4005.59" y2="278.92"/>
								
									<line fill="none" stroke="#08274B" stroke-width="3" stroke-miterlimit="10" x1="4010.79" y1="275.94" x2="4015.99" y2="272.96"/>
							</g>
						</g>
					</g>
				</g>
				<g>
					<defs>
						<path id="SVGID_5_" d="M3221.24,1199.56l-4.88-3.49l0.58-0.81l4.88,3.49L3221.24,1199.56z M3955.09,1722.64l-9.65-6.89
							l-0.58,0.81l9.65,6.89L3955.09,1722.64z M3935.79,1708.86l-9.65-6.89l-0.58,0.81l9.65,6.89L3935.79,1708.86z M3916.5,1695.07
							l-9.65-6.89l-0.58,0.81l9.65,6.89L3916.5,1695.07z M3897.2,1681.28l-9.65-6.89l-0.58,0.81l9.65,6.89L3897.2,1681.28z
							 M3877.9,1667.5l-9.65-6.89l-0.58,0.81l9.65,6.89L3877.9,1667.5z M3858.61,1653.71l-9.65-6.89l-0.58,0.81l9.65,6.89
							L3858.61,1653.71z M3839.31,1639.92l-9.65-6.89l-0.58,0.81l9.65,6.89L3839.31,1639.92z M3820.01,1626.14l-9.65-6.89
							l-0.58,0.81l9.65,6.89L3820.01,1626.14z M3800.72,1612.35l-9.65-6.89l-0.58,0.81l9.65,6.89L3800.72,1612.35z M3781.42,1598.56
							l-9.65-6.89l-0.58,0.81l9.65,6.89L3781.42,1598.56z M3762.12,1584.78l-9.65-6.89l-0.58,0.81l9.65,6.89L3762.12,1584.78z
							 M3742.83,1570.99l-9.65-6.89l-0.58,0.81l9.65,6.89L3742.83,1570.99z M3723.53,1557.2l-9.65-6.89l-0.58,0.81l9.65,6.89
							L3723.53,1557.2z M3704.23,1543.42l-9.65-6.89l-0.58,0.81l9.65,6.89L3704.23,1543.42z M3684.94,1529.63l-9.65-6.89l-0.58,0.81
							l9.65,6.89L3684.94,1529.63z M3665.64,1515.84l-9.65-6.89l-0.58,0.81l9.65,6.89L3665.64,1515.84z M3646.34,1502.06l-9.65-6.89
							l-0.58,0.81l9.65,6.89L3646.34,1502.06z M3627.05,1488.27l-9.65-6.89l-0.58,0.81l9.65,6.89L3627.05,1488.27z M3607.75,1474.48
							l-9.65-6.89l-0.58,0.81l9.65,6.89L3607.75,1474.48z M3588.45,1460.7l-9.65-6.89l-0.58,0.81l9.65,6.89L3588.45,1460.7z
							 M3569.16,1446.91l-9.65-6.89l-0.58,0.81l9.65,6.89L3569.16,1446.91z M3549.86,1433.12l-9.65-6.89l-0.58,0.81l9.65,6.89
							L3549.86,1433.12z M3530.56,1419.34l-9.65-6.89l-0.58,0.81l9.65,6.89L3530.56,1419.34z M3511.27,1405.55l-9.65-6.89
							l-0.58,0.81l9.65,6.89L3511.27,1405.55z M3491.97,1391.76l-9.65-6.89l-0.58,0.81l9.65,6.89L3491.97,1391.76z M3472.67,1377.98
							l-9.65-6.89l-0.58,0.81l9.65,6.89L3472.67,1377.98z M3453.38,1364.19l-9.65-6.89l-0.58,0.81l9.65,6.89L3453.38,1364.19z
							 M3434.08,1350.4l-9.65-6.89l-0.58,0.81l9.65,6.89L3434.08,1350.4z M3414.78,1336.62l-9.65-6.89l-0.58,0.81l9.65,6.89
							L3414.78,1336.62z M3395.49,1322.83l-9.65-6.89l-0.58,0.81l9.65,6.89L3395.49,1322.83z M3376.19,1309.04l-9.65-6.89
							l-0.58,0.81l9.65,6.89L3376.19,1309.04z M3356.89,1295.26l-9.65-6.89l-0.58,0.81l9.65,6.89L3356.89,1295.26z M3337.6,1281.47
							l-9.65-6.89l-0.58,0.81l9.65,6.89L3337.6,1281.47z M3318.3,1267.68l-9.65-6.89l-0.58,0.81l9.65,6.89L3318.3,1267.68z
							 M3299,1253.9l-9.65-6.89l-0.58,0.81l9.65,6.89L3299,1253.9z M3279.71,1240.11l-9.65-6.89l-0.58,0.81l9.65,6.89
							L3279.71,1240.11z M3260.41,1226.32l-9.65-6.89l-0.58,0.81l9.65,6.89L3260.41,1226.32z M3241.12,1212.54l-9.65-6.89
							l-0.58,0.81l9.65,6.89L3241.12,1212.54z M3969.62,1733.02l-4.88-3.49l-0.58,0.81l4.88,3.49L3969.62,1733.02z"/>
					</defs>
					<clipPath id="SVGID_6_">
						<use xlink:href="#SVGID_5_"  overflow="visible"/>
					</clipPath>
					<g clip-path="url(#SVGID_6_)">
						<g id="_x2D_.elLine-_1_">
							<g>
								
									<line fill="none" stroke="#08274B" stroke-width="3" stroke-miterlimit="10" x1="3216.65" y1="1195.67" x2="3221.53" y2="1199.16"/>
								
									<line fill="none" stroke="#08274B" stroke-width="3" stroke-miterlimit="10" stroke-dasharray="11.8578,11.8578" x1="3231.18" y1="1206.05" x2="3959.62" y2="1726.5"/>
								
									<line fill="none" stroke="#08274B" stroke-width="3" stroke-miterlimit="10" x1="3964.45" y1="1729.94" x2="3969.33" y2="1733.43"/>
							</g>
						</g>
					</g>
				</g>
				<polyline fill="none" stroke="#08274B" stroke-miterlimit="10" points="2903.61,1126.77 2960.46,1231.49 2993.1,1099.12 
					3080.94,941.84 3252.05,952.21 3309.09,933.2 3239.09,1065.01 3172.55,1149.24 3198.25,1200.16 				"/>
				<polyline fill="none" stroke="#08274B" stroke-miterlimit="10" points="3074.8,1231.68 3103.91,1123.14 3198.86,1010.44 
					3151.38,941.84 3129.34,857.15 				"/>
				<polyline fill="none" stroke="#08274B" stroke-miterlimit="10" points="2923.66,1061.1 2993.1,1099.12 3103.91,1123.14 
					3172.55,1149.24 3284.22,1143.91 				"/>
				<polyline fill="none" stroke="#08274B" stroke-miterlimit="10" points="3283.62,1145.45 3237.05,1067.95 3197.61,1010.44 
					3091.31,1039.92 2995.34,1098.4 2905.83,1124.01 				"/>
				<path fill="none" stroke="#08274B" stroke-miterlimit="10" d="M3309.09,933.2c-6.48,0-179.75-76.05-179.75-76.05l122.71,95.06"
					/>
				<line fill="none" stroke="#08274B" stroke-miterlimit="10" x1="3080.94" y1="941.84" x2="3129.34" y2="857.15"/>
				<line fill="none" stroke="#08274B" stroke-miterlimit="10" x1="3252.05" y1="952.21" x2="3197.61" y2="1010.44"/>
				<polyline fill="none" stroke="#08274B" stroke-miterlimit="10" points="3154.7,946.43 3091.31,1039.92 3099.88,1122.26 				"/>
				<line fill="none" stroke="#08274B" stroke-miterlimit="10" x1="3080.94" y1="941.84" x2="3091.31" y2="1039.92"/>
				<line fill="none" stroke="#08274B" stroke-miterlimit="10" x1="2923.66" y1="1061.1" x2="3080.94" y2="941.84"/>
				<polyline fill="none" stroke="#08274B" stroke-miterlimit="10" points="3308.63,933.39 3385.14,877.02 3551.06,870.97 				"/>
				<line fill="none" stroke="#08274B" stroke-miterlimit="10" x1="3385.14" y1="877.02" x2="3345.27" y2="840.49"/>
				<line fill="none" stroke="#08274B" stroke-miterlimit="10" x1="3385.14" y1="877.02" x2="3520.62" y2="902.18"/>
				<line fill="none" stroke="#08274B" stroke-miterlimit="10" x1="3309.76" y1="933.94" x2="3520.62" y2="902.18"/>
				<line fill="none" stroke="#08274B" stroke-miterlimit="10" x1="3129.34" y1="857.15" x2="3383.04" y2="877.02"/>
				<polyline fill="none" stroke="#08274B" stroke-miterlimit="10" points="3309.09,933.2 3283.62,870.47 3224.4,822.58 				"/>
				<line fill="none" stroke="#08274B" stroke-miterlimit="10" x1="3228.81" y1="826.15" x2="3383.04" y2="877.02"/>
				<polyline fill="none" stroke="#08274B" stroke-miterlimit="10" points="3104.88,1122.26 3237.96,1067.26 3360.31,1013.38 
					3520.62,902.18 				"/>
				<line fill="none" stroke="#08274B" stroke-miterlimit="10" x1="3252.05" y1="952.21" x2="3237.05" y2="1067.95"/>
				<polyline fill="none" stroke="#08274B" stroke-miterlimit="10" points="3314.79,941.84 3411.42,977.92 3451.59,972.95 				"/>
				<line fill="none" stroke="#08274B" stroke-miterlimit="10" x1="3360.31" y1="1013.38" x2="3284.22" y2="1143.91"/>
				<line fill="none" stroke="#08274B" stroke-miterlimit="10" x1="3309.76" y1="933.94" x2="3380.78" y2="1045.54"/>
				<line fill="none" stroke="#08274B" stroke-miterlimit="10" x1="3019.22" y1="953.5" x2="3080.94" y2="941.84"/>
				<line fill="none" stroke="#08274B" stroke-miterlimit="10" x1="3104.88" y1="1122.26" x2="2962.62" y2="1229.01"/>
				<line fill="none" stroke="#08274B" stroke-miterlimit="10" x1="3172.55" y1="1149.24" x2="3074.8" y2="1231.68"/>
				<circle id="_x2D_.elCircle-_1_" fill="none" stroke="#08274B" stroke-miterlimit="10" cx="3224.83" cy="826.15" r="42.78"/>
				<circle id="_x2D_.elCircle-" fill="none" stroke="#08274B" stroke-miterlimit="10" cx="3551.06" cy="877.89" r="42.78"/>
				<rect x="0.49" y="-8.77" fill="none" width="3840" height="2174.61"/>
				<polygon fill="#A4CD38" points="3081.54,1225.99 3198.25,1200.16 3172.55,1149.24 				"/>
				<polygon fill="#A4CD38" points="2961.83,1230.66 3020.75,1232.8 3012.32,1190.46 				"/>
				<polygon fill="#A4CD38" points="3118.67,999.58 3182.05,986.17 3154.7,946.43 				"/>
				<polygon fill="#A4CD38" points="3182.05,986.17 3209.47,949.63 3154.7,946.43 				"/>
				<polygon fill="#A4CD38" points="3283.62,870.47 3303.33,851.59 3232.59,827.39 				"/>
				<polygon fill="#A4CD38" points="3380.78,1045.54 3411.42,977.92 3360.31,1013.38 				"/>
				<polygon fill="#A4CD38" points="3253.46,1094.49 3284.22,1046.89 3237.05,1067.95 				"/>
				<polygon fill="#A4CD38" points="3178.71,1091.75 3237.05,1067.95 3221.68,1045.54 				"/>
				<polygon fill="#A4CD38" points="2727.78,1009.82 2738.12,926.14 2701.28,975.25 				"/>
				<g>
					<g>
						<line fill="none" stroke="#08274B" stroke-miterlimit="10" x1="3196.74" y1="648.01" x2="3197.77" y2="642.1"/>
						
							<line fill="none" stroke="#08274B" stroke-miterlimit="10" stroke-dasharray="11.7432,11.7432" x1="3199.77" y1="630.53" x2="3254.76" y2="312.31"/>
						<line fill="none" stroke="#08274B" stroke-miterlimit="10" x1="3255.76" y1="306.52" x2="3256.78" y2="300.61"/>
					</g>
				</g>
				<polyline fill="none" stroke="#08274B" stroke-miterlimit="10" points="2731.19,1010.44 2810.57,907.8 2943.54,769 
					3196.74,648.01 				"/>
				<circle fill="#A4CD38" cx="2943.05" cy="767.75" r="12.9"/>
				<circle fill="#A4CD38" cx="3195.4" cy="648.34" r="12.9"/>
				<circle id="_x2D_.elCircle-_10_" fill="none" stroke="#08274B" stroke-miterlimit="10" cx="2727.54" cy="1001.47" r="42.78"/>
				<circle id="_x2D_.elCircle-_11_" fill="none" stroke="#08274B" stroke-miterlimit="10" cx="3194.27" cy="648.92" r="42.78"/>
				<circle id="_x2D_.elCircle-_12_" fill="none" stroke="#08274B" stroke-miterlimit="10" cx="3256.19" cy="300.61" r="42.78"/>
				<rect x="0.49" y="-8.77" fill="none" width="3840" height="2174.61"/>
				<polygon fill="#A4CD38" points="2764.25,568.42 2780.78,615.18 2820.11,511.39 				"/>
				<polygon fill="#A4CD38" points="2830.61,490.11 2845.04,453.01 2806.44,411.26 				"/>
				<polygon fill="#A4CD38" points="2805.56,408.92 2823.73,429.22 2815.15,382.8 				"/>
				<polyline fill="none" stroke="#08274B" stroke-miterlimit="10" points="2749.1,1523.15 2748.18,1328.49 2727.78,1009.82 
					2776.75,622.09 				"/>
				<g>
					<g>
						<line fill="none" stroke="#08274B" stroke-miterlimit="10" x1="2749.1" y1="1523.15" x2="2749.64" y2="1517.17"/>
						<polyline fill="none" stroke="#08274B" stroke-miterlimit="10" stroke-dasharray="11.8893,11.8893" points="2750.71,1505.33 
							2766.24,1333.82 2745.83,1015.15 2775.81,634 						"/>
						<line fill="none" stroke="#08274B" stroke-miterlimit="10" x1="2776.28" y1="628.07" x2="2776.75" y2="622.09"/>
					</g>
				</g>
				<polyline fill="none" stroke="#08274B" stroke-miterlimit="10" points="2779.15,636.76 2864.9,475.18 2838.97,317.9 
					2731.19,463.08 2776.75,608.26 				"/>
				<g>
					<g>
						<line fill="none" stroke="#08274B" stroke-miterlimit="10" x1="2838.08" y1="317.54" x2="2834.16" y2="313"/>
						
							<line fill="none" stroke="#08274B" stroke-miterlimit="10" stroke-dasharray="12.0649,12.0649" x1="2826.26" y1="303.88" x2="2451.05" y2="-129.3"/>
						<line fill="none" stroke="#08274B" stroke-miterlimit="10" x1="2447.1" y1="-133.86" x2="2443.17" y2="-138.4"/>
					</g>
				</g>
				<g>
					<g>
						<line fill="none" stroke="#08274B" stroke-miterlimit="10" x1="2839.21" y1="317.18" x2="2840.27" y2="311.27"/>
						
							<line fill="none" stroke="#08274B" stroke-miterlimit="10" stroke-dasharray="12.2282,12.2282" x1="2842.42" y1="299.23" x2="2914.61" y2="-104"/>
						<line fill="none" stroke="#08274B" stroke-miterlimit="10" x1="2915.69" y1="-110.02" x2="2916.75" y2="-115.93"/>
					</g>
				</g>
				<g>
					<g>
						<line fill="none" stroke="#08274B" stroke-miterlimit="10" x1="2839.21" y1="317.18" x2="2843.82" y2="313.33"/>
						
							<line fill="none" stroke="#08274B" stroke-miterlimit="10" stroke-dasharray="12.3101,12.3101" x1="2853.27" y1="305.44" x2="3113.1" y2="88.44"/>
						<line fill="none" stroke="#08274B" stroke-miterlimit="10" x1="3117.82" y1="84.49" x2="3122.42" y2="80.65"/>
					</g>
				</g>
				<g>
					<g>
						<line fill="none" stroke="#08274B" stroke-miterlimit="10" x1="2864.9" y1="475.18" x2="2868.81" y2="470.63"/>
						<polyline fill="none" stroke="#08274B" stroke-miterlimit="10" stroke-dasharray="11.9276,11.9276" points="2876.6,461.6 
							3048.1,262.59 3117.9,91.72 						"/>
						<line fill="none" stroke="#08274B" stroke-miterlimit="10" x1="3120.16" y1="86.2" x2="3122.42" y2="80.65"/>
					</g>
				</g>
				<g>
					<g>
						<line fill="none" stroke="#08274B" stroke-miterlimit="10" x1="3048.1" y1="262.59" x2="3053.68" y2="260.37"/>
						<polyline fill="none" stroke="#08274B" stroke-miterlimit="10" stroke-dasharray="11.8591,11.8591" points="3064.7,255.98 
							3421.43,113.95 3527.38,-0.03 						"/>
						<line fill="none" stroke="#08274B" stroke-miterlimit="10" x1="3531.42" y1="-4.37" x2="3535.51" y2="-8.77"/>
					</g>
				</g>
				<polyline fill="none" stroke="#08274B" stroke-miterlimit="10" points="2838.97,317.9 2805.56,408.92 2821.11,509.17 
					2780.78,615.18 				"/>
				<line fill="none" stroke="#08274B" stroke-miterlimit="10" x1="2731.19" y1="463.08" x2="2805.56" y2="408.92"/>
				<line fill="none" stroke="#08274B" stroke-miterlimit="10" x1="2821.11" y1="509.17" x2="2840.1" y2="522.37"/>
				<line fill="none" stroke="#08274B" stroke-miterlimit="10" x1="2753.78" y1="535.07" x2="2805.56" y2="408.92"/>
				<line fill="none" stroke="#08274B" stroke-miterlimit="10" x1="2864.9" y1="475.18" x2="2805.56" y2="408.92"/>
				<line fill="none" stroke="#08274B" stroke-miterlimit="10" x1="2821.11" y1="509.17" x2="2764.25" y2="568.42"/>
				<line fill="none" stroke="#08274B" stroke-miterlimit="10" x1="2840.1" y1="522.37" x2="2805.56" y2="411.8"/>
				<line fill="none" stroke="#08274B" stroke-miterlimit="10" x1="2764.25" y1="568.42" x2="2805.56" y2="411.8"/>
				<circle fill="#A4CD38" cx="2838.97" cy="316.67" r="12.9"/>
				<circle id="_x2D_.elCircle-_14_" fill="none" stroke="#08274B" stroke-miterlimit="10" cx="2835.23" cy="320.06" r="42.78"/>
				<circle id="_x2D_.elCircle-_13_" fill="none" stroke="#08274B" stroke-miterlimit="10" cx="2864.9" cy="472" r="42.78"/>
				<circle id="_x2D_.elCircle-_15_" fill="none" stroke="#08274B" stroke-miterlimit="10" cx="3123.67" cy="72.61" r="42.78"/>
				<rect x="0.49" y="-8.77" fill="none" width="3840" height="2174.61"/>
				<polygon fill="#A4CD38" points="2475.58,887.13 2607.04,922.71 2522.68,855.42 				"/>
				<polygon fill="#A4CD38" points="2360.21,706.78 2439.98,779.37 2416.1,694.1 				"/>
				<polygon fill="#A4CD38" points="2556.38,733.57 2564.03,701.59 2517.81,649.31 				"/>
				<polygon fill="#A4CD38" points="2411.93,593.82 2461.33,607.4 2450.09,566.25 				"/>
				<polygon fill="#A4CD38" points="2195.14,601.35 2227.9,646.66 2277.26,588.6 				"/>
				<polyline fill="none" stroke="#08274B" stroke-miterlimit="10" points="2727.54,1010.68 2676.5,941.84 2676.5,829.49 
					2629.84,701.59 2450.09,565.05 2306.63,539.13 2247.87,568.51 				"/>
				<g>
					<defs>
						<path id="SVGID_7_" d="M2247.82,569.01l-5.97-0.61l0.1-1l5.97,0.61L2247.82,569.01z M2229.83,566.15l-12.12-1.24l-0.1,1
							l12.12,1.24L2229.83,566.15z M2205.59,563.66l-12.12-1.24l-0.1,1l12.12,1.24L2205.59,563.66z M2181.35,561.17l-12.12-1.25
							l-0.1,1l12.12,1.25L2181.35,561.17z M2157.11,558.69l-12.12-1.25l-0.1,1l12.12,1.25L2157.11,558.69z M2132.88,556.2
							l-12.12-1.24l-0.1,1l12.12,1.24L2132.88,556.2z M2108.64,553.71l-12.12-1.24l-0.1,1l12.12,1.24L2108.64,553.71z
							 M2084.4,551.22l-12.12-1.25l-0.1,1l12.12,1.25L2084.4,551.22z M2060.16,548.73l-12.12-1.25l-0.1,1l12.12,1.25L2060.16,548.73
							z M2035.92,546.24l-12.12-1.24l-0.1,1l12.12,1.24L2035.92,546.24z M2011.68,543.75l-12.12-1.24l-0.1,1l12.12,1.24
							L2011.68,543.75z M1987.44,541.26l-12.12-1.25l-0.1,1l12.12,1.25L1987.44,541.26z M1963.2,538.77l-12.12-1.24l-0.1,1
							l12.12,1.24L1963.2,538.77z M1938.96,536.28l-12.12-1.24l-0.1,1l12.12,1.24L1938.96,536.28z M1914.72,533.79l-12.12-1.24
							l-0.1,1l12.12,1.24L1914.72,533.79z M1890.48,531.3l-12.12-1.25l-0.1,1l12.12,1.25L1890.48,531.3z M1866.25,528.81
							l-12.12-1.24l-0.1,1l12.12,1.24L1866.25,528.81z M1842.01,526.32l-12.12-1.24l-0.1,1l12.12,1.24L1842.01,526.32z
							 M1817.77,523.83l-12.12-1.25l-0.1,1l12.12,1.25L1817.77,523.83z M1793.53,521.34l-12.12-1.25l-0.1,1l12.12,1.25
							L1793.53,521.34z M1769.29,518.85l-12.12-1.24l-0.1,1l12.12,1.24L1769.29,518.85z M1745.05,516.36l-12.12-1.24l-0.1,1
							l12.12,1.24L1745.05,516.36z M1720.81,513.87l-12.12-1.25l-0.1,1l12.12,1.25L1720.81,513.87z M1696.57,511.38l-12.12-1.24
							l-0.1,1l12.12,1.24L1696.57,511.38z M1672.33,508.89l-12.12-1.24l-0.1,1l12.12,1.24L1672.33,508.89z M1648.09,506.4
							l-5.97-0.61l-0.1,1l5.97,0.61L1648.09,506.4z"/>
					</defs>
					<clipPath id="SVGID_8_">
						<use xlink:href="#SVGID_7_"  overflow="visible"/>
					</clipPath>
					<g clip-path="url(#SVGID_8_)">
						<g id="_x2D_.elLine-_17_">
							<g>
								
									<line fill="none" stroke="#08274B" stroke-width="4" stroke-miterlimit="10" x1="2247.87" y1="568.51" x2="2241.9" y2="567.9"/>
								
									<line fill="none" stroke="#08274B" stroke-width="4" stroke-miterlimit="10" stroke-dasharray="12.1833,12.1833" x1="2229.78" y1="566.65" x2="1654.1" y2="507.52"/>
								
									<line fill="none" stroke="#08274B" stroke-width="4" stroke-miterlimit="10" x1="1648.04" y1="506.9" x2="1642.07" y2="506.29"/>
							</g>
						</g>
					</g>
				</g>
				<polyline fill="none" stroke="#08274B" stroke-miterlimit="10" points="2676.5,941.84 2475.58,888.26 2298.86,744.8 
					2195.14,601.35 2140.47,558.5 				"/>
				<g>
					<defs>
						<path id="SVGID_9_" d="M2442.68,544.37l-0.68-5.96l0.99-0.11l0.68,5.96L2442.68,544.37z M2441.63,526.38l-1.36-11.92
							l-0.99,0.11l1.36,11.92L2441.63,526.38z M2438.9,502.54l-1.36-11.92l-0.99,0.11l1.36,11.92L2438.9,502.54z M2436.18,478.71
							l-1.36-11.92l-0.99,0.11l1.36,11.92L2436.18,478.71z M2433.46,454.87l-1.36-11.92l-0.99,0.11l1.36,11.92L2433.46,454.87z
							 M2430.73,431.03l-1.36-11.92l-0.99,0.11l1.36,11.92L2430.73,431.03z M2428.01,407.2l-1.36-11.92l-0.99,0.11l1.36,11.92
							L2428.01,407.2z M2425.28,383.36l-1.36-11.92l-0.99,0.11l1.36,11.92L2425.28,383.36z M2421.72,359.6l-4.32-11.19l-0.93,0.36
							l4.32,11.19L2421.72,359.6z M2413.07,337.23l-4.32-11.19l-0.93,0.36l4.32,11.19L2413.07,337.23z M2404.43,314.85l-4.32-11.19
							l-0.93,0.36l4.32,11.19L2404.43,314.85z M2395.78,292.47l-4.32-11.19l-0.93,0.36l4.32,11.19L2395.78,292.47z M2387.13,270.09
							l-4.32-11.19l-0.93,0.36l4.32,11.19L2387.13,270.09z M2378.48,247.72l-4.32-11.19l-0.93,0.36l4.32,11.19L2378.48,247.72z
							 M2369.83,225.34l-4.32-11.19l-0.93,0.36l4.32,11.19L2369.83,225.34z M2361.19,202.96l-4.32-11.19l-0.93,0.36l4.32,11.19
							L2361.19,202.96z M2352.54,180.58l-4.32-11.19l-0.93,0.36l4.32,11.19L2352.54,180.58z M2343.89,158.2l-4.32-11.19l-0.93,0.36
							l4.32,11.19L2343.89,158.2z M2335.24,135.83l-4.32-11.19l-0.93,0.36l4.32,11.19L2335.24,135.83z M2326.59,113.45l-4.32-11.19
							l-0.93,0.36l4.32,11.19L2326.59,113.45z M2317.95,91.07l-4.32-11.19l-0.93,0.36l4.32,11.19L2317.95,91.07z M2309.3,68.69
							l-4.32-11.19l-0.93,0.36l4.32,11.19L2309.3,68.69z M2300.65,46.32l-4.32-11.19l-0.93,0.36l4.32,11.19L2300.65,46.32z
							 M2292,23.94l-4.32-11.19l-0.93,0.36l4.32,11.19L2292,23.94z M2283.36,1.56l-4.32-11.19l-0.93,0.36l4.32,11.19L2283.36,1.56z
							 M2274.71-20.82l-4.32-11.19l-0.93,0.36l4.32,11.19L2274.71-20.82z M2266.06-43.19l-4.32-11.19l-0.93,0.36l4.32,11.19
							L2266.06-43.19z M2257.41-65.57l-2.16-5.6l-0.93,0.36l2.16,5.6L2257.41-65.57z"/>
					</defs>
					<clipPath id="SVGID_10_">
						<use xlink:href="#SVGID_9_"  overflow="visible"/>
					</clipPath>
					<g clip-path="url(#SVGID_10_)">
						<g id="_x2D_.elLine-_16_">
							<g>
								
									<line fill="none" stroke="#08274B" stroke-width="4" stroke-miterlimit="10" x1="2443.17" y1="544.31" x2="2442.49" y2="538.35"/>
								
									<polyline fill="none" stroke="#08274B" stroke-width="4" stroke-miterlimit="10" stroke-dasharray="11.9953,11.9953" points="
									2441.13,526.43 2422.43,362.83 2259.11,-59.8 								"/>
								
									<line fill="none" stroke="#08274B" stroke-width="4" stroke-miterlimit="10" x1="2256.94" y1="-65.39" x2="2254.78" y2="-70.99"/>
							</g>
						</g>
					</g>
				</g>
				<g>
					<defs>
						<path id="SVGID_11_" d="M2422.15,363.25l-9.92-6.75l0.56-0.83l9.92,6.75L2422.15,363.25z M2402.31,349.75l-9.92-6.75
							l0.56-0.83l9.92,6.75L2402.31,349.75z M2382.46,336.26l-9.92-6.75l0.56-0.83l9.92,6.75L2382.46,336.26z M2362.61,322.76
							l-9.92-6.75l0.56-0.83l9.92,6.75L2362.61,322.76z M2342.77,309.26l-9.92-6.75l0.56-0.83l9.92,6.75L2342.77,309.26z
							 M2322.92,295.77l-9.92-6.75l0.56-0.83l9.92,6.75L2322.92,295.77z M2303.08,282.27l-9.92-6.75l0.56-0.83l9.92,6.75
							L2303.08,282.27z M2283.23,268.78l-9.92-6.75l0.56-0.83l9.92,6.75L2283.23,268.78z M2263.38,255.28l-9.92-6.75l0.56-0.83
							l9.92,6.75L2263.38,255.28z M2243.54,241.79l-9.92-6.75l0.56-0.83l9.92,6.75L2243.54,241.79z M2223.69,228.29l-9.92-6.75
							l0.56-0.83l9.92,6.75L2223.69,228.29z M2203.84,214.8l-9.92-6.75l0.56-0.83l9.92,6.75L2203.84,214.8z M2184,201.3l-9.92-6.75
							l0.56-0.83l9.92,6.75L2184,201.3z M2164.15,187.81l-1.25-0.85l0.56-0.83l1.25,0.85L2164.15,187.81z"/>
					</defs>
					<clipPath id="SVGID_12_">
						<use xlink:href="#SVGID_11_"  overflow="visible"/>
					</clipPath>
					<g clip-path="url(#SVGID_12_)">
						
							<line id="_x2D_.elLine-_14_" fill="none" stroke="#08274B" stroke-width="3" stroke-miterlimit="10" stroke-dasharray="12" x1="2422.43" y1="362.83" x2="2163.18" y2="186.54"/>
					</g>
				</g>
				<g>
					<defs>
						<path id="SVGID_13_" d="M2306.23,539.42l-3.5-4.87l0.81-0.58l3.5,4.87L2306.23,539.42z M2296.66,524.37l-6.88-9.59l-0.81,0.58
							l6.88,9.59L2296.66,524.37z M2282.89,505.2l-6.88-9.59l-0.81,0.58l6.88,9.59L2282.89,505.2z M2269.12,486.03l-6.88-9.59
							l-0.81,0.58l6.88,9.59L2269.12,486.03z M2255.35,466.85l-6.88-9.59l-0.81,0.58l6.88,9.59L2255.35,466.85z M2241.59,447.68
							l-6.88-9.59l-0.81,0.58l6.88,9.59L2241.59,447.68z M2227.82,428.5l-6.88-9.59l-0.81,0.58l6.88,9.59L2227.82,428.5z
							 M2214.05,409.33l-6.88-9.59l-0.81,0.58l6.88,9.59L2214.05,409.33z M2200.28,390.16l-6.88-9.59l-0.81,0.58l6.88,9.59
							L2200.28,390.16z M2186.52,370.98l-6.88-9.59l-0.81,0.58l6.88,9.59L2186.52,370.98z M2172.75,351.81l-6.88-9.59l-0.81,0.58
							l6.88,9.59L2172.75,351.81z M2158.98,332.63l-6.88-9.59l-0.81,0.58l6.88,9.59L2158.98,332.63z M2145.21,313.46l-6.88-9.59
							l-0.81,0.58l6.88,9.59L2145.21,313.46z M2131.45,294.28l-6.88-9.59l-0.81,0.58l6.88,9.59L2131.45,294.28z M2117.68,275.11
							l-6.88-9.59l-0.81,0.58l6.88,9.59L2117.68,275.11z M2103.91,255.94l-6.88-9.59l-0.81,0.58l6.88,9.59L2103.91,255.94z
							 M2090.14,236.76l-6.88-9.59l-0.81,0.58l6.88,9.59L2090.14,236.76z M2076.38,217.59l-6.88-9.59l-0.81,0.58l6.88,9.59
							L2076.38,217.59z M2062.61,198.41l-6.88-9.59l-0.81,0.58l6.88,9.59L2062.61,198.41z M2048.84,179.24l-6.88-9.59l-0.81,0.58
							l6.88,9.59L2048.84,179.24z M2035.07,160.06l-6.88-9.59l-0.81,0.58l6.88,9.59L2035.07,160.06z M2021.31,140.89l-6.88-9.59
							l-0.81,0.58l6.88,9.59L2021.31,140.89z M2007.54,121.72l-6.88-9.59l-0.81,0.58l6.88,9.59L2007.54,121.72z M1993.77,102.54
							l-6.88-9.59l-0.81,0.58l6.88,9.59L1993.77,102.54z M1980,83.37l-6.88-9.59l-0.81,0.58l6.88,9.59L1980,83.37z M1966.24,64.19
							l-6.88-9.59l-0.81,0.58l6.88,9.59L1966.24,64.19z M1952.47,45.02l-6.88-9.59l-0.81,0.58l6.88,9.59L1952.47,45.02z
							 M1938.7,25.85l-6.88-9.59l-0.81,0.58l6.88,9.59L1938.7,25.85z M1924.93,6.67l-6.88-9.59l-0.81,0.58l6.88,9.59L1924.93,6.67z
							 M1911.17-12.5l-6.88-9.59l-0.81,0.58l6.88,9.59L1911.17-12.5z M1897.4-31.68l-6.88-9.59l-0.81,0.58l6.88,9.59L1897.4-31.68z
							 M1883.63-50.85l-3.5-4.87l-0.81,0.58l3.5,4.87L1883.63-50.85z"/>
					</defs>
					<clipPath id="SVGID_14_">
						<use xlink:href="#SVGID_13_"  overflow="visible"/>
					</clipPath>
					<g clip-path="url(#SVGID_14_)">
						<g id="_x2D_.elLine-_12_">
							<g>
								
									<line fill="none" stroke="#08274B" stroke-width="4" stroke-miterlimit="10" x1="2306.63" y1="539.13" x2="2303.13" y2="534.25"/>
								
									<line fill="none" stroke="#08274B" stroke-width="4" stroke-miterlimit="10" stroke-dasharray="11.8025,11.8025" x1="2296.25" y1="524.67" x2="1886.67" y2="-45.77"/>
								
									<line fill="none" stroke="#08274B" stroke-width="4" stroke-miterlimit="10" x1="1883.22" y1="-50.56" x2="1879.72" y2="-55.43"/>
							</g>
						</g>
					</g>
				</g>
				<g>
					<defs>
						<path id="SVGID_15_" d="M2154.35,363.3l-5.57-2.23l0.37-0.93l5.57,2.23L2154.35,363.3z M2138.04,355.7l-11.11-4.44l-0.37,0.93
							l11.11,4.44L2138.04,355.7z M2115.83,346.81l-11.11-4.44l-0.37,0.93l11.11,4.44L2115.83,346.81z M2093.62,337.93l-11.11-4.44
							l-0.37,0.93l11.11,4.44L2093.62,337.93z M2071.4,329.04l-11.11-4.44l-0.37,0.93l11.11,4.44L2071.4,329.04z M2049.19,320.16
							l-11.11-4.44l-0.37,0.93l11.11,4.44L2049.19,320.16z M2026.98,311.27l-11.11-4.44l-0.37,0.93l11.11,4.44L2026.98,311.27z
							 M2004.76,302.38l-11.11-4.44l-0.37,0.93l11.11,4.44L2004.76,302.38z M1982.55,293.5l-9.23-3.68l-1.65-1.02l-0.52,0.85
							l1.73,1.05l9.31,3.72L1982.55,293.5z M1961.48,282.54l-10.19-6.26l-0.52,0.85l10.19,6.26L1961.48,282.54z M1941.09,270.01
							l-10.19-6.26l-0.52,0.85l10.19,6.26L1941.09,270.01z M1920.71,257.48l-10.19-6.26l-0.52,0.85l10.19,6.26L1920.71,257.48z
							 M1900.33,244.95l-10.19-6.26l-0.52,0.85l10.19,6.26L1900.33,244.95z M1879.95,232.42l-10.19-6.26l-0.52,0.85l10.19,6.26
							L1879.95,232.42z M1859.57,219.89l-10.19-6.26l-0.52,0.85l10.19,6.26L1859.57,219.89z M1839.18,207.36l-10.19-6.26l-0.52,0.85
							l10.19,6.26L1839.18,207.36z M1818.8,194.83l-10.19-6.26l-0.52,0.85l10.19,6.26L1818.8,194.83z M1798.42,182.3l-10.19-6.26
							l-0.52,0.85l10.19,6.26L1798.42,182.3z M1778.04,169.78l-10.19-6.26l-0.52,0.85l10.19,6.26L1778.04,169.78z M1757.66,157.25
							l-10.19-6.26l-0.52,0.85l10.19,6.26L1757.66,157.25z M1737.28,144.72l-10.19-6.26l-0.52,0.85l10.19,6.26L1737.28,144.72z
							 M1716.89,132.19l-10.19-6.26l-0.52,0.85l10.19,6.26L1716.89,132.19z M1696.51,119.66l-10.19-6.26l-0.52,0.85l10.19,6.26
							L1696.51,119.66z M1676.13,107.13l-10.19-6.26l-0.52,0.85l10.19,6.26L1676.13,107.13z M1655.75,94.6l-10.19-6.26l-0.52,0.85
							l10.19,6.26L1655.75,94.6z M1635.37,82.07l-10.19-6.26l-0.52,0.85l10.19,6.26L1635.37,82.07z M1614.98,69.54l-10.19-6.26
							l-0.52,0.85l10.19,6.26L1614.98,69.54z M1594.6,57.02l-10.19-6.26l-0.52,0.85l10.19,6.26L1594.6,57.02z M1574.22,44.49
							l-10.19-6.26l-0.52,0.85l10.19,6.26L1574.22,44.49z M1553.84,31.96l-10.19-6.26l-0.52,0.85l10.19,6.26L1553.84,31.96z
							 M1533.46,19.43l-10.19-6.26l-0.52,0.85l10.19,6.26L1533.46,19.43z M1513.07,6.9l-10.19-6.26l-0.52,0.85l10.19,6.26
							L1513.07,6.9z M1492.69-5.63l-10.19-6.26l-0.52,0.85l10.19,6.26L1492.69-5.63z M1472.31-18.16l-10.19-6.26l-0.52,0.85
							l10.19,6.26L1472.31-18.16z M1451.93-30.69l-10.19-6.26l-0.52,0.85l10.19,6.26L1451.93-30.69z M1431.55-43.21l-10.19-6.26
							l-0.52,0.85l10.19,6.26L1431.55-43.21z M1411.17-55.74l-10.19-6.26l-0.52,0.85l10.19,6.26L1411.17-55.74z M1390.78-68.27
							l-5.11-3.14l-0.52,0.85l5.11,3.14L1390.78-68.27z"/>
					</defs>
					<clipPath id="SVGID_16_">
						<use xlink:href="#SVGID_15_"  overflow="visible"/>
					</clipPath>
					<g clip-path="url(#SVGID_16_)">
						<g id="_x2D_.elLine-_8_">
							<g>
								
									<line fill="none" stroke="#08274B" stroke-width="4" stroke-miterlimit="10" x1="2154.54" y1="362.83" x2="2148.97" y2="360.6"/>
								
									<polyline fill="none" stroke="#08274B" stroke-width="4" stroke-miterlimit="10" stroke-dasharray="11.9624,11.9624" points="
									2137.86,356.16 1973.06,290.24 1395.62,-64.71 								"/>
								
									<line fill="none" stroke="#08274B" stroke-width="4" stroke-miterlimit="10" x1="1390.52" y1="-67.85" x2="1385.41" y2="-70.99"/>
							</g>
						</g>
					</g>
				</g>
				<g>
					<defs>
						<path id="SVGID_17_" d="M2140.04,558.76l-3.19-5.08l0.85-0.53l3.19,5.08L2140.04,558.76z M2131.23,542.84l-6.47-10.31
							l-0.85,0.53l6.47,10.31L2131.23,542.84z M2118.28,522.21l-6.47-10.31l-0.85,0.53l6.47,10.31L2118.28,522.21z M2105.33,501.58
							l-6.48-10.31l-0.85,0.53l6.48,10.31L2105.33,501.58z M2092.38,480.95l-6.47-10.32l-0.85,0.53l6.47,10.32L2092.38,480.95z
							 M2079.43,460.32l-6.48-10.31l-0.85,0.53l6.48,10.31L2079.43,460.32z M2066.48,439.69l-6.47-10.31l-0.85,0.53l6.47,10.31
							L2066.48,439.69z M2053.53,419.05l-6.47-10.31l-0.85,0.53l6.47,10.31L2053.53,419.05z M2040.58,398.42l-6.48-10.32l-0.85,0.53
							l6.48,10.32L2040.58,398.42z M2027.63,377.79l-6.47-10.31l-0.85,0.53l6.47,10.31L2027.63,377.79z M2014.68,357.16l-6.48-10.31
							l-0.85,0.53l6.48,10.31L2014.68,357.16z M2001.73,336.53l-6.47-10.31l-0.85,0.53l6.47,10.31L2001.73,336.53z M1988.78,315.9
							l-6.47-10.32l-0.85,0.53l6.47,10.32L1988.78,315.9z M1975.83,295.27l-3.19-5.08l-0.85,0.53l3.19,5.08L1975.83,295.27z"/>
					</defs>
					<clipPath id="SVGID_18_">
						<use xlink:href="#SVGID_17_"  overflow="visible"/>
					</clipPath>
					<g clip-path="url(#SVGID_18_)">
						<g id="_x2D_.elLine-_7_">
							<g>
								
									<line fill="none" stroke="#08274B" stroke-width="4" stroke-miterlimit="10" x1="2140.47" y1="558.5" x2="2137.28" y2="553.42"/>
								
									<line fill="none" stroke="#08274B" stroke-width="4" stroke-miterlimit="10" stroke-dasharray="12.1789,12.1789" x1="2130.8" y1="543.1" x2="1978.64" y2="300.7"/>
								
									<line fill="none" stroke="#08274B" stroke-width="4" stroke-miterlimit="10" x1="1975.41" y1="295.54" x2="1972.22" y2="290.46"/>
							</g>
						</g>
					</g>
				</g>
				<polyline fill="none" stroke="#08274B" stroke-miterlimit="10" points="2676.5,941.84 2556.38,733.57 2448.36,655.53 
					2393.92,607.4 2238.36,582.34 2144.38,558.81 				"/>
				<polyline fill="none" stroke="#08274B" stroke-miterlimit="10" points="2379.9,808.01 2438.85,779.37 2537.37,779.37 
					2615.88,836.72 				"/>
				<polyline fill="none" stroke="#08274B" stroke-miterlimit="10" points="2556.38,733.57 2514.04,643.69 2450.09,565.05 				"/>
				<polyline fill="none" stroke="#08274B" stroke-miterlimit="10" points="2277.26,588.6 2360.21,706.78 2522.68,855.42 
					2615.88,836.72 				"/>
				<polyline fill="none" stroke="#08274B" stroke-miterlimit="10" points="2473.32,887.59 2522.68,855.42 2609.59,923.7 
					2615.88,836.72 				"/>
				<line fill="none" stroke="#08274B" stroke-miterlimit="10" x1="2475.58" y1="888.26" x2="2438.85" y2="779.37"/>
				<line fill="none" stroke="#08274B" stroke-miterlimit="10" x1="2522.68" y1="855.42" x2="2537.37" y2="779.37"/>
				<line fill="none" stroke="#08274B" stroke-miterlimit="10" x1="2305.72" y1="750.37" x2="2360.21" y2="706.78"/>
				<line fill="none" stroke="#08274B" stroke-miterlimit="10" x1="2438.85" y1="779.37" x2="2305.72" y2="750.37"/>
				<polyline fill="none" stroke="#08274B" stroke-miterlimit="10" points="2360.21,706.78 2416.1,694.1 2537.37,779.37 				"/>
				<polyline fill="none" stroke="#08274B" stroke-miterlimit="10" points="2439.98,778.29 2416.1,694.1 2277.26,588.6 				"/>
				<line fill="none" stroke="#08274B" stroke-miterlimit="10" x1="2447.69" y1="655" x2="2277.26" y2="588.6"/>
				<polyline fill="none" stroke="#08274B" stroke-miterlimit="10" points="2416.1,694.1 2384.7,630.98 2393.92,607.4 
					2306.63,539.13 				"/>
				<line fill="none" stroke="#08274B" stroke-miterlimit="10" x1="2277.26" y1="588.6" x2="2247.87" y2="568.51"/>
				<line fill="none" stroke="#08274B" stroke-miterlimit="10" x1="2306.63" y1="539.13" x2="2277.26" y2="588.6"/>
				<line fill="none" stroke="#08274B" stroke-miterlimit="10" x1="2480.93" y1="679.12" x2="2450.09" y2="566.25"/>
				<line fill="none" stroke="#08274B" stroke-miterlimit="10" x1="2393.92" y1="607.4" x2="2450.09" y2="565.05"/>
				<line fill="none" stroke="#08274B" stroke-miterlimit="10" x1="2537.37" y1="779.37" x2="2556.38" y2="733.57"/>
				<polyline fill="none" stroke="#08274B" stroke-miterlimit="10" points="2305.72,750.37 2277.26,588.6 2195.14,601.35 				"/>
				<line fill="none" stroke="#08274B" stroke-miterlimit="10" x1="2537.37" y1="779.37" x2="2447.69" y2="655"/>
				<line fill="none" stroke="#08274B" stroke-miterlimit="10" x1="2385.83" y1="632.11" x2="2530.03" y2="774.21"/>
				<line fill="none" stroke="#08274B" stroke-miterlimit="10" x1="2480.93" y1="679.12" x2="2514.04" y2="643.69"/>
				<line fill="none" stroke="#08274B" stroke-miterlimit="10" x1="2556.38" y1="733.57" x2="2676.48" y2="830.85"/>
				<line fill="none" stroke="#08274B" stroke-miterlimit="10" x1="2615.88" y1="836.72" x2="2675.88" y2="830.85"/>
				<line fill="none" stroke="#08274B" stroke-miterlimit="10" x1="2629.84" y1="701.59" x2="2514.21" y2="644.2"/>
				<line fill="none" stroke="#08274B" stroke-miterlimit="10" x1="2515.34" y1="645.33" x2="2675.88" y2="830.85"/>
				<circle id="_x2D_.elCircle-_16_" fill="none" stroke="#08274B" stroke-miterlimit="10" cx="2140.47" cy="558.81" r="42.78"/>
				<circle id="_x2D_.elCircle-_17_" fill="none" stroke="#08274B" stroke-miterlimit="10" cx="1964.84" cy="290.46" r="42.78"/>
				<rect x="0.49" y="-8.77" fill="none" width="3840" height="2174.61"/>
			</g>
		</g>
	</g>
</g>
<rect y="-9.01" fill="none" width="3840" height="2174.61"/>
</svg>
