<?xml version="1.0" encoding="utf-8"?>
<!-- Generator: Adobe Illustrator 24.2.1, SVG Export Plug-In . SVG Version: 6.00 Build 0)  -->
<svg version="1.1" id="laptopSvg" xmlns="http://www.w3.org/2000/svg" xmlns:xlink="http://www.w3.org/1999/xlink" x="0px" y="0px"
	 width="3840px" height="2160px" viewBox="0 0 3840 2160" enable-background="new 0 0 3840 2160" xml:space="preserve">
<g id="_x2D_.contentScene-">
	<g id="_x2D_.contForPoint-" opacity="0.3">
		<g id="_x2D_.moveElements-_2_">
			<g>
				<g>
					<rect id="_x2D_.contForPointB-_3_" x="2976.75" y="867.21" opacity="0.33" fill="#0010B9" width="2038.6" height="1112.56"/>
					<rect id="_x2D_.contForPointB-_4_" x="2241.07" y="-92.23" opacity="0.33" fill="#0010B9" width="1941.97" height="1059.83"/>
					<rect id="_x2D_.contForPointB-_2_" x="727.57" y="1322.57" opacity="0.33" fill="#0010B9" width="2157.7" height="1177.56"/>
					<rect id="_x2D_.contForPointB-_1_" x="2210.08" y="1479.78" opacity="0.33" fill="#0010B9" width="1867.28" height="1019.07"/>
					<rect fill="none" width="3836.96" height="2158.11"/>
				</g>
			</g>
		</g>
	</g>
	<g id="_x2D_.moveElements-">
		<g>
			<g>
				
					<text transform="matrix(1 0 0 1 2589.271 1886.3894)" fill="#012B48" font-family="'HelveticaNeueLTStd-LtIt'" font-size="66px">*Compared to Prosaro</text>
				
					<text transform="matrix(0.583 0 0 0.583 3224.5786 1864.4114)" fill="#012B48" font-family="'HelveticaNeueLTStd-LtIt'" font-size="66px">®</text>
				
					<text transform="matrix(1 0 0 1 3255.1685 1886.3894)" fill="#012B48" font-family="'HelveticaNeueLTStd-LtIt'" font-size="66px"> Fungicide</text>
				<rect fill="none" width="3840" height="2160"/>
			</g>
		</g>
		<g>
			<g>
				<text transform="matrix(1 0 0 1 1063.4875 289.9592)" fill="#012B48" font-family="'HelveticaNeueLTStd-Bd'" font-size="85px">Increased yield potential &amp; improved consistency in a variety</text>
				<rect fill="none" width="3840" height="2160"/>
			</g>
		</g>
		<g>
			<g>
				<text transform="matrix(1 0 0 1 1378.2299 537.6122)"><tspan x="0" y="0" fill="#012B48" font-family="'HelveticaNeueLTStd-ThIt'" font-size="256px" letter-spacing="-2">of growing c</tspan><tspan x="1283.05" y="0" fill="#012B48" font-family="'HelveticaNeueLTStd-ThIt'" font-size="256px" letter-spacing="-6">on</tspan><tspan x="1540.58" y="0" fill="#012B48" font-family="'HelveticaNeueLTStd-ThIt'" font-size="256px" letter-spacing="2">d</tspan><tspan x="1685.48" y="0" fill="#012B48" font-family="'HelveticaNeueLTStd-ThIt'" font-size="256px" letter-spacing="6">it</tspan><tspan x="1807.33" y="0" fill="#012B48" font-family="'HelveticaNeueLTStd-ThIt'" font-size="256px" letter-spacing="2">i</tspan><tspan x="1852.64" y="0" fill="#012B48" font-family="'HelveticaNeueLTStd-ThIt'" font-size="256px" letter-spacing="-2">on</tspan><tspan x="2117.85" y="0" fill="#012B48" font-family="'HelveticaNeueLTStd-ThIt'" font-size="256px" letter-spacing="-12">s.</tspan></text>
				<rect fill="none" width="3840" height="2160"/>
			</g>
		</g>
		<g>
			<g>
				<g>
					<polygon fill="#A4CD38" points="1790.34,1741.55 1836.33,1761.88 1777.38,1763.69 					"/>
					<polygon fill="#A4CD38" points="1872.9,1697.79 1926.19,1696.89 1926.19,1740.49 					"/>
					<polygon fill="#A4CD38" points="1726.36,1739.57 1727.52,1697.9 1798.41,1739.01 					"/>
					<polygon fill="#A4CD38" points="648.04,1777.52 885.64,1758.4 939.14,1779.49 					"/>
					<polygon fill="#A4CD38" points="1232.82,1782.25 1726.23,1762.21 1740.58,1785.1 					"/>
					<polygon fill="#A4CD38" points="494.93,1696.64 796.46,1724.79 485.06,1724.8 					"/>
					<polygon fill="#A4CD38" points="1658.84,1626.24 1773.08,1695.2 1671.33,1695.74 					"/>
					<polygon fill="#A4CD38" points="1720.85,1399.84 1718.84,1620.86 1647.12,1223.41 					"/>
					<polygon fill="#A4CD38" points="1566.53,680.47 1556.66,719.99 1420.39,633.57 					"/>
					<polygon fill="#A4CD38" points="1592.41,705.15 1604.09,736.78 1558.62,721.13 					"/>
					<polygon fill="#A4CD38" points="311.51,304.49 346.03,342.54 284.01,346.95 293.76,323.52 					"/>
					<polygon fill="#A4CD38" points="372.27,544.99 431.18,980.93 333.23,777.57 					"/>
					<polygon fill="#A4CD38" points="845.47,500.59 364.19,348.64 641.54,380.34 					"/>
					<polygon fill="#A4CD38" points="513.09,1588.85 463.23,1689.78 448.03,1666.23 398.55,1285.2 					"/>
					<polygon fill="#A4CD38" points="1726.17,1697.9 1726.34,1722.08 1122.91,1720.55 					"/>
					<polygon fill="#A4CD38" points="905.97,1697.59 965.57,1697.26 964.91,1726.13 					"/>
					<polygon fill="#A4CD38" points="1932.76,1761.54 2273.43,1739.83 2232.03,1757.55 					"/>
					<polygon fill="#A4CD38" points="2158.11,1793.95 2403.84,1754.62 2318.78,1792.98 					"/>
					<polygon fill="#A4CD38" points="2472.25,1696.92 2619.38,1697.01 2472.96,1722.9 					"/>
					<polygon fill="#A4CD38" points="2600.68,1737.16 2807.24,1735.02 2769.6,1749.45 					"/>
					<path fill="none" stroke="#012B48" stroke-width="1.3571" stroke-miterlimit="10" d="M379.53,294.14
						c-49.51-16.03-126.27,29.89-119.8,81.53L419.6,1651.53c5.15,41.11,40.6,71.64,82.02,70.63"/>
					<path fill="none" stroke="#08274B" stroke-width="1.3571" stroke-miterlimit="10" stroke-dasharray="16.2857" d="
						M1773.08,1695.2l-170.63-964.78c-4.8-25.58-23.2-46.49-47.96-54.51l-1179-381.77c-49.51-16.03-98.89,24.82-92.42,76.46
						l159.88,1275.86c3.42,27.26,20.16,49.87,43.12,61.71"/>
					<polyline fill="none" stroke="#012B48" stroke-width="1.0179" stroke-miterlimit="10" stroke-dasharray="16.2857" points="
						1567.89,681.83 1558.02,721.29 1415.23,630.81 1191.05,607.55 1018.65,502.4 849.97,500.02 641.51,380.28 346.03,342.54 
						359.67,290.89 					"/>
					
						<line fill="none" stroke="#012B48" stroke-width="1.0179" stroke-miterlimit="10" x1="346.03" y1="342.54" x2="311.51" y2="304.49"/>
					<polyline fill="none" stroke="#012B48" stroke-width="1.0179" stroke-miterlimit="10" stroke-dasharray="16.2857" points="
						346.03,342.54 284.01,346.95 372.27,538.26 334.02,777.09 432.16,985.07 397.07,1280.3 513.09,1588.85 461.33,1688.44 					"/>
					
						<line fill="none" stroke="#012B48" stroke-width="1.0179" stroke-miterlimit="10" x1="1592.41" y1="705.15" x2="1558.02" y2="721.29"/>
					<polyline fill="none" stroke="#012B48" stroke-width="1.0179" stroke-miterlimit="10" points="1558.02,721.29 1603.75,737.76 
						1586.6,882.38 1653.93,1021.47 1645.6,1215.47 1720.85,1399.84 1718.84,1627.59 1773.08,1695.2 					"/>
					
						<line fill="none" stroke="#08274B" stroke-width="1.0179" stroke-miterlimit="10" x1="585.88" y1="1591.36" x2="600.67" y2="1693.41"/>
					
						<line fill="none" stroke="#08274B" stroke-width="1.0179" stroke-miterlimit="10" x1="814.79" y1="1598.08" x2="826.89" y2="1694.75"/>
					
						<line fill="none" stroke="#08274B" stroke-width="1.0179" stroke-miterlimit="10" x1="1044.25" y1="1606.15" x2="1055.01" y2="1694.75"/>
					
						<line fill="none" stroke="#08274B" stroke-width="1.0179" stroke-miterlimit="10" x1="1240.17" y1="1611.71" x2="1250.92" y2="1696.28"/>
					
						<line fill="none" stroke="#08274B" stroke-width="1.0179" stroke-miterlimit="10" x1="1398.5" y1="1617.41" x2="1410.6" y2="1695.25"/>
					
						<line fill="none" stroke="#08274B" stroke-width="1.0179" stroke-miterlimit="10" x1="1539.03" y1="1621.92" x2="1551.13" y2="1697.07"/>
					
						<line fill="none" stroke="#08274B" stroke-width="1.0179" stroke-miterlimit="10" x1="1657.89" y1="1624.61" x2="1671.33" y2="1694.38"/>
					<polyline fill="none" stroke="#08274B" stroke-width="1.0179" stroke-miterlimit="10" stroke-dasharray="16.2857" points="
						1771.25,1692.43 1657.48,1626.24 1551.29,1696.24 1398.5,1619.52 1250.56,1693.55 1042.91,1607.42 827.56,1695.16 
						585.88,1591.36 463.23,1689.78 					"/>
					<polygon fill="none" stroke="#012B48" stroke-width="1.3571" stroke-miterlimit="10" points="513.09,1588.85 1718.84,1627.59 
						1558.02,721.29 346.03,342.54 					"/>
					<path fill="none" stroke="#012B48" stroke-width="1.3571" stroke-miterlimit="10" d="M710.77,1793.82h1912.3
						c17.93,0,35.72-3.12,52.59-9.21l163.29-59.9l-7.44-28.07H494.93l-9.87,28.16l175.36,60.6
						C676.62,1790.98,693.63,1793.82,710.77,1793.82z"/>
					
						<line fill="none" stroke="#012B48" stroke-width="1.3571" stroke-miterlimit="10" x1="2837.6" y1="1723.36" x2="1986.07" y2="1724.76"/>
					<polyline fill="none" stroke="#012B48" stroke-width="1.3571" stroke-miterlimit="10" points="2809.88,1734.97 
						1966.41,1741.75 1725,1739.57 538.52,1742.7 					"/>
					<polyline fill="none" stroke="#012B48" stroke-width="1.3571" stroke-miterlimit="10" points="1726.34,1723.44 1114.6,1720.99 
						1082.22,1726.42 804.48,1728.59 790.92,1723.25 486.08,1723.88 					"/>
					<polyline fill="none" stroke="#012B48" stroke-width="1.3571" stroke-miterlimit="10" points="2773.05,1749.45 
						1906.31,1762.43 1725,1762.43 574.83,1756.15 					"/>
					
						<line fill="none" stroke="#012B48" stroke-width="1.3571" stroke-miterlimit="10" x1="641.51" y1="1778.82" x2="1740.58" y2="1785.1"/>
					
						<line fill="none" stroke="#012B48" stroke-width="1.3571" stroke-miterlimit="10" x1="1092.41" y1="1740.93" x2="1080.28" y2="1726.08"/>
					
						<line fill="none" stroke="#012B48" stroke-width="1.3571" stroke-miterlimit="10" x1="805.67" y1="1728.46" x2="828.91" y2="1741.94"/>
					
						<line fill="none" stroke="#012B48" stroke-width="1.3571" stroke-miterlimit="10" x1="849.97" y1="1742.23" x2="941.72" y2="1780.57"/>
					
						<line fill="none" stroke="#012B48" stroke-width="1.3571" stroke-miterlimit="10" x1="1112.62" y1="1741.45" x2="1187.48" y2="1782.25"/>
					
						<line fill="none" stroke="#012B48" stroke-width="1.3571" stroke-miterlimit="10" x1="1026.73" y1="1696.39" x2="1027.34" y2="1726"/>
					
						<line fill="none" stroke="#012B48" stroke-width="1.3571" stroke-miterlimit="10" x1="965.57" y1="1697.26" x2="965.57" y2="1727.15"/>
					
						<line fill="none" stroke="#012B48" stroke-width="1.3571" stroke-miterlimit="10" x1="905.81" y1="1696.94" x2="905.82" y2="1727.46"/>
					
						<line fill="none" stroke="#012B48" stroke-width="1.3571" stroke-miterlimit="10" x1="1727.21" y1="1696.4" x2="1727.21" y2="1740.01"/>
					
						<line fill="none" stroke="#012B48" stroke-width="1.3571" stroke-miterlimit="10" x1="1799.17" y1="1697.05" x2="1799.17" y2="1740.66"/>
					
						<line fill="none" stroke="#012B48" stroke-width="1.3571" stroke-miterlimit="10" x1="1872.66" y1="1696.88" x2="1872.66" y2="1740.49"/>
					
						<line fill="none" stroke="#012B48" stroke-width="1.3571" stroke-miterlimit="10" x1="1926.19" y1="1695.54" x2="1926.19" y2="1740.49"/>
					
						<line fill="none" stroke="#012B48" stroke-width="1.3571" stroke-miterlimit="10" x1="1986.07" y1="1696.49" x2="1986.07" y2="1741.45"/>
					
						<line fill="none" stroke="#012B48" stroke-width="1.3571" stroke-miterlimit="10" x1="1978.7" y1="1741.83" x2="1840.21" y2="1793.51"/>
					
						<line fill="none" stroke="#012B48" stroke-width="1.3571" stroke-miterlimit="10" x1="1916.6" y1="1741.18" x2="1829.2" y2="1794.2"/>
					
						<line fill="none" stroke="#012B48" stroke-width="1.3571" stroke-miterlimit="10" x1="1861.8" y1="1740.5" x2="1800.1" y2="1794.53"/>
					<polyline fill="none" stroke="#012B48" stroke-width="1.3571" stroke-miterlimit="10" points="1790.34,1741.55 
						1777.38,1763.69 1775.81,1794.39 					"/>
					<polyline fill="none" stroke="#012B48" stroke-width="1.3571" stroke-miterlimit="10" points="1726.72,1740.66 
						1726.23,1762.21 1750.45,1794.67 					"/>
					
						<line fill="none" stroke="#012B48" stroke-width="1.3571" stroke-miterlimit="10" x1="2618.03" y1="1697.97" x2="2618.03" y2="1724.52"/>
					
						<line fill="none" stroke="#012B48" stroke-width="1.3571" stroke-miterlimit="10" x1="2811.25" y1="1696.34" x2="2811.25" y2="1722.9"/>
					
						<line fill="none" stroke="#012B48" stroke-width="1.3571" stroke-miterlimit="10" x1="2472.25" y1="1696.92" x2="2472.25" y2="1723.47"/>
					
						<line fill="none" stroke="#012B48" stroke-width="1.3571" stroke-miterlimit="10" x1="2305.9" y1="1698.26" x2="2305.9" y2="1724.82"/>
					
						<line fill="none" stroke="#012B48" stroke-width="1.3571" stroke-miterlimit="10" x1="2618" y1="1723.33" x2="2461.3" y2="1792.84"/>
					
						<line fill="none" stroke="#012B48" stroke-width="1.3571" stroke-miterlimit="10" x1="2471.55" y1="1724.16" x2="2317.55" y2="1793.67"/>
					
						<line fill="none" stroke="#012B48" stroke-width="1.3571" stroke-miterlimit="10" x1="2305.39" y1="1724.44" x2="2151.39" y2="1793.95"/>
					
						<line fill="none" stroke="#012B48" stroke-width="1.0179" stroke-miterlimit="10" x1="2811.25" y1="1722.9" x2="2618.03" y2="1697.97"/>
					<polyline fill="none" stroke="#012B48" stroke-width="1.0179" stroke-miterlimit="10" points="2830.59,1696.92 2811.25,1722.9 
						2590.41,1736.32 					"/>
					
						<line fill="none" stroke="#012B48" stroke-width="1.0179" stroke-miterlimit="10" x1="2618" y1="1698.26" x2="2472.96" y2="1722.9"/>
					
						<line fill="none" stroke="#012B48" stroke-width="1.0179" stroke-miterlimit="10" x1="2472.25" y1="1723.47" x2="2305.9" y2="1698.26"/>
					
						<line fill="none" stroke="#012B48" stroke-width="1.0179" stroke-miterlimit="10" x1="2305.63" y1="1697.9" x2="1986.22" y2="1723.68"/>
					
						<line fill="none" stroke="#012B48" stroke-width="1.0179" stroke-miterlimit="10" x1="1985.02" y1="1697.79" x2="1926.19" y2="1740.49"/>
					
						<line fill="none" stroke="#012B48" stroke-width="1.0179" stroke-miterlimit="10" x1="1926.19" y1="1740.49" x2="1872.9" y2="1697.79"/>
					
						<line fill="none" stroke="#012B48" stroke-width="1.0179" stroke-miterlimit="10" x1="1872.9" y1="1697.79" x2="1799.48" y2="1739.32"/>
					
						<line fill="none" stroke="#012B48" stroke-width="1.0179" stroke-miterlimit="10" x1="1798.41" y1="1739.01" x2="1727.52" y2="1697.9"/>
					
						<line fill="none" stroke="#012B48" stroke-width="1.0179" stroke-miterlimit="10" x1="2472.25" y1="1723.47" x2="2590.41" y2="1736.32"/>
					
						<line fill="none" stroke="#012B48" stroke-width="1.0179" stroke-miterlimit="10" x1="2471.55" y1="1724.16" x2="2275.93" y2="1738.84"/>
					
						<line fill="none" stroke="#012B48" stroke-width="1.0179" stroke-miterlimit="10" x1="2272.16" y1="1739.01" x2="1987.05" y2="1724.52"/>
					
						<line fill="none" stroke="#012B48" stroke-width="1.0179" stroke-miterlimit="10" x1="1025.94" y1="1697.69" x2="965.36" y2="1726.37"/>
					
						<line fill="none" stroke="#012B48" stroke-width="1.0179" stroke-miterlimit="10" x1="964.91" y1="1726.13" x2="905.97" y2="1697.59"/>
					
						<line fill="none" stroke="#012B48" stroke-width="1.0179" stroke-miterlimit="10" x1="1727.69" y1="1723.74" x2="1091.11" y2="1740.18"/>
					
						<line fill="none" stroke="#012B48" stroke-width="1.0179" stroke-miterlimit="10" x1="1089.69" y1="1740.18" x2="809.22" y2="1729.59"/>
					
						<line fill="none" stroke="#012B48" stroke-width="1.0179" stroke-miterlimit="10" x1="793.74" y1="1724.79" x2="538.52" y2="1742.87"/>
					
						<line fill="none" stroke="#012B48" stroke-width="1.0179" stroke-miterlimit="10" stroke-dasharray="16.2857" x1="882.6" y1="1756.29" x2="540.99" y2="1744.07"/>
					
						<line fill="none" stroke="#012B48" stroke-width="1.0179" stroke-miterlimit="10" x1="1112.62" y1="1741.45" x2="886.43" y2="1757.28"/>
					
						<line fill="none" stroke="#012B48" stroke-width="1.0179" stroke-miterlimit="10" stroke-dasharray="16.2857" x1="1725.56" y1="1761.32" x2="1116.16" y2="1742.54"/>
					
						<line fill="none" stroke="#012B48" stroke-width="1.0179" stroke-miterlimit="10" x1="1790.56" y1="1741.2" x2="1727.06" y2="1761.88"/>
					
						<line fill="none" stroke="#012B48" stroke-width="1.0179" stroke-miterlimit="10" x1="1836.33" y1="1761.88" x2="1788.99" y2="1741.2"/>
					
						<line fill="none" stroke="#012B48" stroke-width="1.0179" stroke-miterlimit="10" x1="1913.24" y1="1742.54" x2="1839.14" y2="1761.32"/>
					
						<line fill="none" stroke="#012B48" stroke-width="1.0179" stroke-miterlimit="10" x1="1915.26" y1="1741.2" x2="1918.62" y2="1761.88"/>
					<polyline fill="none" stroke="#012B48" stroke-width="1.0179" stroke-miterlimit="10" stroke-dasharray="16.2857" points="
						1923.77,1762.12 2271.01,1739.85 2403.84,1754.62 2586.82,1737.16 2769.6,1749.45 					"/>
					<polyline fill="none" stroke="#012B48" stroke-width="1.0179" stroke-miterlimit="10" stroke-dasharray="16.2857" points="
						2769.6,1749.45 2461.3,1792.84 2400.23,1755.94 2154.85,1792.39 1918.39,1763.48 					"/>
					<polyline fill="none" stroke="#012B48" stroke-width="1.0179" stroke-miterlimit="10" stroke-dasharray="16.2857" points="
						1727.06,1761.88 1775.81,1794.39 1836.33,1761.88 1829.2,1794.2 1918.39,1763.48 					"/>
					<polyline fill="none" stroke="#012B48" stroke-width="1.0179" stroke-miterlimit="10" stroke-dasharray="16.2857" points="
						1725.48,1763.48 1184.32,1782.17 885.64,1758.4 641.51,1778.82 					"/>
					<polygon fill="#012B48" points="346.03,342.54 1562.77,721.29 1718.84,1627.59 517.84,1590.19 					"/>
					<polygon opacity="0.05" fill="#FFFFFF" points="1718.84,1627.59 1558.02,722.63 346.03,342.54 					"/>
					<g>
						<defs>
							<path id="SVGID_1_" d="M2373.07,949.81l-15.7-4.31l0.36-1.31l15.7,4.31L2373.07,949.81z M2341.66,941.18l-15.7-4.31
								l0.36-1.31l15.7,4.31L2341.66,941.18z M2310.25,932.55l-15.7-4.31l0.36-1.31l15.7,4.31L2310.25,932.55z M2278.84,923.92
								l-15.7-4.31l0.36-1.31l15.7,4.31L2278.84,923.92z M2247.43,915.29l-15.7-4.31l0.36-1.31l15.7,4.31L2247.43,915.29z
								 M2216.03,906.66l-15.7-4.31l0.36-1.31l15.7,4.31L2216.03,906.66z M2184.62,898.04l-15.7-4.31l0.36-1.31l15.7,4.31
								L2184.62,898.04z M2153.21,889.41l-15.7-4.31l0.36-1.31l15.7,4.31L2153.21,889.41z M2121.8,880.78l-15.7-4.31l0.36-1.31
								l15.7,4.31L2121.8,880.78z M2090.4,872.15l-15.7-4.31l0.36-1.31l15.7,4.31L2090.4,872.15z M2058.99,863.52l-15.7-4.31
								l0.36-1.31l15.7,4.31L2058.99,863.52z M2027.58,854.89l-15.7-4.31l0.36-1.31l15.7,4.31L2027.58,854.89z M1996.17,846.27
								l-15.7-4.31l0.36-1.31l15.7,4.31L1996.17,846.27z M1964.76,837.64l-15.7-4.31l0.36-1.31l15.7,4.31L1964.76,837.64z
								 M1933.36,829.01l-15.7-4.31l0.36-1.31l15.7,4.31L1933.36,829.01z M1901.95,820.38l-15.7-4.31l0.36-1.31l15.7,4.31
								L1901.95,820.38z M1870.54,811.75l-15.7-4.31l0.36-1.31l15.7,4.31L1870.54,811.75z M1839.13,803.12l-15.7-4.31l0.36-1.31
								l15.7,4.31L1839.13,803.12z M1807.72,794.5l-15.7-4.31l0.36-1.31l15.7,4.31L1807.72,794.5z M1776.32,785.87l-15.7-4.31
								l0.36-1.31l15.7,4.31L1776.32,785.87z M1744.91,777.24l-15.7-4.31l0.36-1.31l15.7,4.31L1744.91,777.24z M1713.5,768.61
								l-15.7-4.31l0.36-1.31l15.7,4.31L1713.5,768.61z M1682.09,759.98l-15.7-4.31l0.36-1.31l15.7,4.31L1682.09,759.98z
								 M1650.69,751.35l-15.7-4.31l0.36-1.31l15.7,4.31L1650.69,751.35z M1619.28,742.73l-15.7-4.31l0.36-1.31l15.7,4.31
								L1619.28,742.73z"/>
						</defs>
						<clipPath id="SVGID_2_">
							<use xlink:href="#SVGID_1_"  overflow="visible"/>
						</clipPath>
						<g clip-path="url(#SVGID_2_)">
							
								<line id="_x2D_.elLine-_16_" fill="none" stroke="#012B48" stroke-width="3" stroke-miterlimit="10" stroke-dasharray="16.2857" x1="1603.75" y1="737.76" x2="2377.05" y2="950.2"/>
						</g>
					</g>
					<g>
						<defs>
							<path id="SVGID_3_" d="M-758.55,486.87l-0.18-1.35l16.14-2.14l0.18,1.35L-758.55,486.87z M-726.26,482.59l-0.18-1.35
								l16.14-2.14l0.18,1.35L-726.26,482.59z M-693.97,478.3l-0.18-1.35l16.14-2.14l0.18,1.35L-693.97,478.3z M-661.68,474.02
								l-0.18-1.35l16.14-2.14l0.18,1.35L-661.68,474.02z M-629.39,469.73l-0.18-1.35l16.14-2.14l0.18,1.35L-629.39,469.73z
								 M-597.11,465.45l-0.18-1.35l16.14-2.14l0.18,1.35L-597.11,465.45z M-564.82,461.16l-0.18-1.35l16.14-2.14l0.18,1.35
								L-564.82,461.16z M-532.53,456.88l-0.18-1.35l16.14-2.14l0.18,1.35L-532.53,456.88z M-500.24,452.59l-0.18-1.35l16.14-2.14
								l0.18,1.35L-500.24,452.59z M-467.95,448.31l-0.18-1.35l16.14-2.14l0.18,1.35L-467.95,448.31z M-435.66,444.02l-0.18-1.35
								l16.14-2.14l0.18,1.35L-435.66,444.02z M-403.38,439.74l-0.18-1.35l16.14-2.14l0.18,1.35L-403.38,439.74z M-371.09,435.45
								l-0.18-1.35l16.14-2.14l0.18,1.35L-371.09,435.45z M-338.8,431.17l-0.18-1.35l16.14-2.14l0.18,1.35L-338.8,431.17z
								 M-306.51,426.89l-0.18-1.35l16.14-2.14l0.18,1.35L-306.51,426.89z M-274.22,422.6l-0.18-1.35l16.14-2.14l0.18,1.35
								L-274.22,422.6z M-241.93,418.32l-0.18-1.35l16.14-2.14l0.18,1.35L-241.93,418.32z M-209.64,414.03l-0.18-1.35l16.14-2.14
								l0.18,1.35L-209.64,414.03z M-177.36,409.75l-0.18-1.35l16.14-2.14l0.18,1.35L-177.36,409.75z M-145.07,405.46l-0.18-1.35
								l16.14-2.14l0.18,1.35L-145.07,405.46z M-112.78,401.18l-0.18-1.35l16.14-2.14l0.18,1.35L-112.78,401.18z M-80.49,396.89
								l-0.18-1.35l16.14-2.14l0.18,1.35L-80.49,396.89z M-48.2,392.61l-0.18-1.35l16.14-2.14l0.18,1.35L-48.2,392.61z
								 M-15.91,388.32l-0.18-1.35l16.14-2.14l0.18,1.35L-15.91,388.32z M16.37,384.04l-0.18-1.35l16.14-2.14l0.18,1.35
								L16.37,384.04z M48.66,379.75l-0.18-1.35l16.14-2.14l0.18,1.35L48.66,379.75z M80.95,375.47l-0.18-1.35l16.14-2.14l0.18,1.35
								L80.95,375.47z M113.24,371.19l-0.18-1.35l16.14-2.14l0.18,1.35L113.24,371.19z M145.53,366.9l-0.18-1.35l16.14-2.14
								l0.18,1.35L145.53,366.9z M177.82,362.62l-0.18-1.35l16.14-2.14l0.18,1.35L177.82,362.62z M210.1,358.33l-0.18-1.35
								l16.14-2.14l0.18,1.35L210.1,358.33z M242.39,354.05l-0.18-1.35l16.14-2.14l0.18,1.35L242.39,354.05z M274.68,349.76
								l-0.18-1.35l16.14-2.14l0.18,1.35L274.68,349.76z"/>
						</defs>
						<clipPath id="SVGID_4_">
							<use xlink:href="#SVGID_3_"  overflow="visible"/>
						</clipPath>
						<g clip-path="url(#SVGID_4_)">
							
								<line id="_x2D_.elLine-_7_" fill="none" stroke="#012B48" stroke-width="3" stroke-miterlimit="10" stroke-dasharray="16.2857" x1="290.74" y1="346.95" x2="-765.79" y2="487.15"/>
						</g>
					</g>
					<g>
						<defs>
							<path id="SVGID_5_" d="M1732.08,416.78l-16.28-0.53l0.04-1.36l16.28,0.53L1732.08,416.78z M1699.52,415.72l-16.28-0.53
								l0.04-1.36l16.28,0.53L1699.52,415.72z M1666.97,414.65l-16.28-0.53l0.04-1.36l16.28,0.53L1666.97,414.65z M1634.42,413.58
								l-16.28-0.53l0.04-1.36l16.28,0.53L1634.42,413.58z M1601.86,412.51l-16.28-0.53l0.04-1.36l16.28,0.53L1601.86,412.51z
								 M1569.31,411.45l-16.28-0.53l0.04-1.36l16.28,0.53L1569.31,411.45z M1536.75,410.38l-16.28-0.53l0.04-1.36l16.28,0.53
								L1536.75,410.38z M1504.2,409.31l-16.28-0.53l0.04-1.36l16.28,0.53L1504.2,409.31z M1471.65,408.24l-16.28-0.53l0.04-1.36
								l16.28,0.53L1471.65,408.24z M1439.09,407.17l-16.28-0.53l0.04-1.36l16.28,0.53L1439.09,407.17z M1406.54,406.11l-16.28-0.53
								l0.04-1.36l16.28,0.53L1406.54,406.11z M1373.98,405.04l-16.28-0.53l0.04-1.36l16.28,0.53L1373.98,405.04z M1341.43,403.97
								l-16.28-0.53l0.04-1.36l16.28,0.53L1341.43,403.97z M1308.87,402.9l-16.28-0.53l0.04-1.36l16.28,0.53L1308.87,402.9z
								 M1276.32,401.84l-16.28-0.53l0.04-1.36l16.28,0.53L1276.32,401.84z M1243.77,400.77l-16.28-0.53l0.04-1.36l16.28,0.53
								L1243.77,400.77z M1211.21,399.7l-16.28-0.53l0.04-1.36l16.28,0.53L1211.21,399.7z M1178.66,398.63l-16.28-0.53l0.04-1.36
								l16.28,0.53L1178.66,398.63z M1146.1,397.57l-16.28-0.53l0.04-1.36l16.28,0.53L1146.1,397.57z M1113.55,396.5l-16.28-0.53
								l0.04-1.36l16.28,0.53L1113.55,396.5z M1081,395.43l-16.28-0.53l0.04-1.36l16.28,0.53L1081,395.43z M1048.44,394.36
								l-16.28-0.53l0.04-1.36l16.28,0.53L1048.44,394.36z M1015.89,393.29l-16.28-0.53l0.04-1.36l16.28,0.53L1015.89,393.29z
								 M983.33,392.23l-16.28-0.53l0.04-1.36l16.28,0.53L983.33,392.23z M950.78,391.16l-16.28-0.53l0.04-1.36l16.28,0.53
								L950.78,391.16z M918.23,390.09l-16.28-0.53l0.04-1.36l16.28,0.53L918.23,390.09z M885.67,389.02l-16.28-0.53l0.04-1.36
								l16.28,0.53L885.67,389.02z M853.12,387.96l-16.28-0.53l0.04-1.36l16.28,0.53L853.12,387.96z M820.57,386.89l-16.28-0.53
								l0.04-1.36l16.28,0.53L820.57,386.89z M788.01,385.82l-16.28-0.53l0.04-1.36l16.28,0.53L788.01,385.82z M755.46,384.75
								l-16.28-0.53l0.04-1.36l16.28,0.53L755.46,384.75z M722.9,383.69l-16.28-0.53l0.04-1.36l16.28,0.53L722.9,383.69z
								 M690.35,382.62l-16.28-0.53l0.04-1.36l16.28,0.53L690.35,382.62z M657.8,381.55l-16.28-0.53l0.04-1.36l16.28,0.53
								L657.8,381.55z"/>
						</defs>
						<clipPath id="SVGID_6_">
							<use xlink:href="#SVGID_5_"  overflow="visible"/>
						</clipPath>
						<g clip-path="url(#SVGID_6_)">
							
								<line id="_x2D_.elLine-_6_" fill="none" stroke="#012B48" stroke-width="3" stroke-miterlimit="10" stroke-dasharray="16.2857" x1="641.54" y1="380.34" x2="1733.78" y2="416.16"/>
						</g>
					</g>
					<g>
						<defs>
							<path id="SVGID_7_" d="M1415.74,631.13l-13.84-8.58l0.71-1.15l13.84,8.58L1415.74,631.13z M1388.05,613.97l-13.84-8.58
								l0.71-1.15l13.84,8.58L1388.05,613.97z M1360.37,596.81l-13.84-8.58l0.71-1.15l13.84,8.58L1360.37,596.81z M1332.68,579.65
								l-13.84-8.58l0.71-1.15l13.84,8.58L1332.68,579.65z M1305,562.5l-13.84-8.58l0.71-1.15l13.84,8.58L1305,562.5z
								 M1277.31,545.34l-13.84-8.58l0.71-1.15l13.84,8.58L1277.31,545.34z M1249.63,528.18l-13.84-8.58l0.71-1.15l13.84,8.58
								L1249.63,528.18z M1221.94,511.02l-13.84-8.58l0.71-1.15l13.84,8.58L1221.94,511.02z M1194.26,493.86l-13.84-8.58l0.71-1.15
								l13.84,8.58L1194.26,493.86z M1166.57,476.7l-13.84-8.58l0.71-1.15l13.84,8.58L1166.57,476.7z M1138.89,459.54l-13.84-8.58
								l0.71-1.15l13.84,8.58L1138.89,459.54z M1111.2,442.38l-13.84-8.58l0.71-1.15l13.84,8.58L1111.2,442.38z M1083.52,425.22
								l-13.84-8.58l0.71-1.15l13.84,8.58L1083.52,425.22z M1055.83,408.06l-13.84-8.58l0.71-1.15l13.84,8.58L1055.83,408.06z
								 M1028.15,390.9l-13.84-8.58l0.71-1.15l13.84,8.58L1028.15,390.9z M1000.46,373.75l-13.84-8.58l0.71-1.15l13.84,8.58
								L1000.46,373.75z M972.77,356.59l-13.84-8.58l0.71-1.15l13.84,8.58L972.77,356.59z M945.09,339.43l-13.84-8.58l0.71-1.15
								l13.84,8.58L945.09,339.43z M917.4,322.27l-13.84-8.58l0.71-1.15l13.84,8.58L917.4,322.27z M889.72,305.11l-13.84-8.58
								l0.71-1.15l13.84,8.58L889.72,305.11z M862.03,287.95l-13.84-8.58l0.71-1.15l13.84,8.58L862.03,287.95z M834.35,270.79
								l-13.84-8.58l0.71-1.15l13.84,8.58L834.35,270.79z M806.66,253.63l-13.84-8.58l0.71-1.15l13.84,8.58L806.66,253.63z
								 M778.98,236.47l-13.84-8.58l0.71-1.15l13.84,8.58L778.98,236.47z M751.29,219.31l-13.84-8.58l0.71-1.15l13.84,8.58
								L751.29,219.31z M723.61,202.16l-13.84-8.58l0.71-1.15l13.84,8.58L723.61,202.16z M695.92,185l-13.84-8.58l0.71-1.15
								l13.84,8.58L695.92,185z M668.24,167.84l-13.84-8.58l0.71-1.15l13.84,8.58L668.24,167.84z M640.55,150.68l-13.84-8.58
								l0.71-1.15l13.84,8.58L640.55,150.68z M612.87,133.52l-13.84-8.58l0.71-1.15l13.84,8.58L612.87,133.52z M585.18,116.36
								l-13.84-8.58l0.71-1.15l13.84,8.58L585.18,116.36z M557.5,99.2l-13.84-8.58l0.71-1.15l13.84,8.58L557.5,99.2z M529.81,82.04
								l-13.84-8.58l0.71-1.15l13.84,8.58L529.81,82.04z M502.13,64.88l-13.84-8.58l0.71-1.15l13.84,8.58L502.13,64.88z
								 M474.44,47.72l-13.84-8.58l0.71-1.15l13.84,8.58L474.44,47.72z M446.76,30.56l-13.84-8.58l0.71-1.15l13.84,8.58
								L446.76,30.56z M419.07,13.41l-13.84-8.58l0.71-1.15l13.84,8.58L419.07,13.41z M391.39-3.75l-13.84-8.58l0.71-1.15
								l13.84,8.58L391.39-3.75z M363.7-20.91l-13.84-8.58l0.71-1.15l13.84,8.58L363.7-20.91z M336.02-38.07l-13.84-8.58l0.71-1.15
								l13.84,8.58L336.02-38.07z M308.33-55.23l-13.84-8.58l0.71-1.15l13.84,8.58L308.33-55.23z M280.65-72.39l-13.84-8.58
								l0.71-1.15l13.84,8.58L280.65-72.39z M252.96-89.55l-13.84-8.58l0.71-1.15l13.84,8.58L252.96-89.55z M225.28-106.71
								l-13.84-8.58l0.71-1.15l13.84,8.58L225.28-106.71z M197.59-123.87l-13.84-8.58l0.71-1.15l13.84,8.58L197.59-123.87z
								 M169.91-141.02l-13.84-8.58l0.71-1.15l13.84,8.58L169.91-141.02z M142.22-158.18l-13.84-8.58l0.71-1.15l13.84,8.58
								L142.22-158.18z M114.54-175.34l-0.46-0.28l0.71-1.15l0.46,0.28L114.54-175.34z"/>
						</defs>
						<clipPath id="SVGID_8_">
							<use xlink:href="#SVGID_7_"  overflow="visible"/>
						</clipPath>
						<g clip-path="url(#SVGID_8_)">
							
								<line id="_x2D_.elLine-_5_" fill="none" stroke="#012B48" stroke-width="3" stroke-miterlimit="10" stroke-dasharray="16.2857" x1="1416.09" y1="630.55" x2="114.43" y2="-176.2"/>
						</g>
					</g>
					<g>
						<defs>
							<path id="SVGID_9_" d="M1720.89,1399.9l-1.36-0.05l0.66-16.27l1.36,0.05L1720.89,1399.9z M1722.21,1367.36l-1.36-0.05
								l0.66-16.27l1.36,0.05L1722.21,1367.36z M1723.53,1334.81l-1.36-0.05l0.66-16.27l1.36,0.05L1723.53,1334.81z
								 M1724.86,1302.27l-1.36-0.05l0.66-16.27l1.36,0.05L1724.86,1302.27z M1726.18,1269.72l-1.36-0.05l0.66-16.27l1.36,0.05
								L1726.18,1269.72z M1727.5,1237.18l-1.36-0.05l0.66-16.27l1.36,0.05L1727.5,1237.18z M1728.83,1204.63l-1.36-0.05l0.66-16.27
								l1.36,0.05L1728.83,1204.63z M1730.15,1172.09l-1.36-0.05l0.66-16.27l1.36,0.05L1730.15,1172.09z M1731.47,1139.54
								l-1.36-0.05l0.66-16.27l1.36,0.05L1731.47,1139.54z M1732.8,1107l-1.36-0.05l0.66-16.27l1.36,0.05L1732.8,1107z
								 M1734.12,1074.46l-1.36-0.06l0.66-16.27l1.36,0.05L1734.12,1074.46z M1735.44,1041.91l-1.36-0.05l0.66-16.27l1.36,0.06
								L1735.44,1041.91z M1736.77,1009.37l-1.36-0.05l0.66-16.27l1.36,0.06L1736.77,1009.37z M1738.09,976.82l-1.36-0.06
								l0.66-16.27l1.36,0.05L1738.09,976.82z M1739.41,944.28l-1.36-0.06l0.66-16.27l1.36,0.05L1739.41,944.28z M1740.74,911.73
								l-1.36-0.06l0.66-16.27l1.36,0.06L1740.74,911.73z M1742.06,879.19l-1.36-0.05l0.66-16.27l1.36,0.05L1742.06,879.19z
								 M1743.39,846.64l-1.36-0.06l0.66-16.27l1.36,0.05L1743.39,846.64z M1744.71,814.1l-1.36-0.05l0.66-16.27l1.36,0.06
								L1744.71,814.1z M1746.03,781.55l-1.36-0.05l0.66-16.27l1.36,0.05L1746.03,781.55z M1747.36,749.01l-1.36-0.06l0.66-16.27
								l1.36,0.05L1747.36,749.01z M1748.68,716.46l-1.36-0.06l0.66-16.27l1.36,0.05L1748.68,716.46z M1750,683.92l-1.36-0.05
								l0.66-16.27l1.36,0.06L1750,683.92z M1751.33,651.38l-1.36-0.05l0.66-16.27l1.36,0.06L1751.33,651.38z M1752.65,618.83
								l-1.36-0.06l0.66-16.27l1.36,0.05L1752.65,618.83z M1753.97,586.29l-1.36-0.05l0.66-16.27l1.36,0.06L1753.97,586.29z
								 M1755.3,553.74l-1.36-0.05l0.66-16.27l1.36,0.05L1755.3,553.74z M1756.62,521.2l-1.36-0.06l0.66-16.27l1.36,0.05
								L1756.62,521.2z M1757.94,488.65l-1.36-0.06l0.66-16.27l1.36,0.06L1757.94,488.65z M1759.27,456.11l-1.36-0.05l0.66-16.27
								l1.36,0.06L1759.27,456.11z M1760.59,423.56l-1.36-0.05l0.66-16.27l1.36,0.06L1760.59,423.56z M1761.91,391.02l-1.36-0.06
								l0.66-16.27l1.36,0.05L1761.91,391.02z M1763.24,358.47l-1.36-0.06l0.66-16.27l1.36,0.06L1763.24,358.47z M1764.56,325.93
								l-1.36-0.05l0.66-16.27l1.36,0.05L1764.56,325.93z M1765.88,293.39l-1.36-0.06l0.66-16.27l1.36,0.05L1765.88,293.39z
								 M1767.21,260.84l-1.36-0.06l0.66-16.27l1.36,0.06L1767.21,260.84z M1768.53,228.3l-1.36-0.05l0.66-16.27l1.36,0.06
								L1768.53,228.3z M1769.85,195.75l-1.36-0.06l0.66-16.27l1.36,0.05L1769.85,195.75z M1771.18,163.21l-1.36-0.06l0.66-16.27
								l1.36,0.05L1771.18,163.21z M1772.5,130.66l-1.36-0.06l0.66-16.27l1.36,0.06L1772.5,130.66z M1773.83,98.12l-1.36-0.05
								l0.66-16.27l1.36,0.06L1773.83,98.12z M1775.15,65.57l-1.36-0.06l0.66-16.27l1.36,0.05L1775.15,65.57z M1776.47,33.03
								l-1.36-0.05l0.66-16.27l1.36,0.06L1776.47,33.03z M1777.8,0.48l-1.36-0.05l0.66-16.27l1.36,0.06L1777.8,0.48z"/>
						</defs>
						<clipPath id="SVGID_10_">
							<use xlink:href="#SVGID_9_"  overflow="visible"/>
						</clipPath>
						<g clip-path="url(#SVGID_10_)">
							
								<line id="_x2D_.elLine-_4_" fill="none" stroke="#012B48" stroke-width="3" stroke-miterlimit="10" stroke-dasharray="16.2857" x1="1720.21" y1="1399.87" x2="1778.13" y2="-24.55"/>
						</g>
					</g>
					<g>
						<defs>
							<path id="SVGID_11_" d="M393.03,1276.36l-6.26-15.03l1.25-0.52l6.26,15.03L393.03,1276.36z M380.51,1246.29l-6.26-15.03
								l1.25-0.52l6.26,15.03L380.51,1246.29z M367.99,1216.22l-6.26-15.03l1.25-0.52l6.26,15.03L367.99,1216.22z M355.46,1186.16
								l-6.26-15.03l1.25-0.52l6.26,15.03L355.46,1186.16z M342.94,1156.09l-6.26-15.03l1.25-0.52l6.26,15.03L342.94,1156.09z
								 M330.42,1126.02l-6.26-15.03l1.25-0.52l6.26,15.03L330.42,1126.02z M317.9,1095.95l-6.26-15.03l1.25-0.52l6.26,15.03
								L317.9,1095.95z M305.37,1065.88l-6.26-15.03l1.25-0.52l6.26,15.03L305.37,1065.88z M292.85,1035.82l-6.26-15.03l1.25-0.52
								l6.26,15.03L292.85,1035.82z M280.33,1005.75l-6.26-15.03l1.25-0.52l6.26,15.03L280.33,1005.75z M267.81,975.68l-6.26-15.03
								l1.25-0.52l6.26,15.03L267.81,975.68z M255.28,945.61l-6.26-15.03l1.25-0.52l6.26,15.03L255.28,945.61z M242.76,915.54
								l-6.26-15.03l1.25-0.52l6.26,15.03L242.76,915.54z M230.24,885.48l-6.26-15.03l1.25-0.52l6.26,15.03L230.24,885.48z
								 M217.72,855.41l-6.26-15.03l1.25-0.52l6.26,15.03L217.72,855.41z M205.19,825.34l-6.26-15.03l1.25-0.52l6.26,15.03
								L205.19,825.34z M192.67,795.27l-6.26-15.03l1.25-0.52l6.26,15.03L192.67,795.27z M180.15,765.2l-6.26-15.03l1.25-0.52
								l6.26,15.03L180.15,765.2z M167.63,735.13l-6.26-15.03l1.25-0.52l6.26,15.03L167.63,735.13z M155.1,705.07l-6.26-15.03
								l1.25-0.52l6.26,15.03L155.1,705.07z M142.58,675l-6.26-15.03l1.25-0.52l6.26,15.03L142.58,675z M130.06,644.93l-6.26-15.03
								l1.25-0.52l6.26,15.03L130.06,644.93z M117.54,614.86l-6.26-15.03l1.25-0.52l6.26,15.03L117.54,614.86z M105.01,584.79
								l-6.26-15.03l1.25-0.52l6.26,15.03L105.01,584.79z M92.49,554.73l-6.26-15.03l1.25-0.52l6.26,15.03L92.49,554.73z
								 M79.97,524.66l-6.26-15.03l1.25-0.52l6.26,15.03L79.97,524.66z M67.45,494.59l-6.26-15.03l1.25-0.52l6.26,15.03
								L67.45,494.59z M54.92,464.52l-6.26-15.03l1.25-0.52L56.18,464L54.92,464.52z M42.4,434.45l-6.26-15.03l1.25-0.52l6.26,15.03
								L42.4,434.45z M29.88,404.39l-6.26-15.03l1.25-0.52l6.26,15.03L29.88,404.39z M17.36,374.32l-6.26-15.03l1.25-0.52
								l6.26,15.03L17.36,374.32z M4.83,344.25l-6.26-15.03l1.25-0.52l6.26,15.03L4.83,344.25z M-7.69,314.18l-6.26-15.03l1.25-0.52
								l6.26,15.03L-7.69,314.18z M-20.21,284.11l-6.26-15.03l1.25-0.52l6.26,15.03L-20.21,284.11z M-32.73,254.05l-6.26-15.03
								l1.25-0.52l6.26,15.03L-32.73,254.05z M-45.25,223.98l-6.26-15.03l1.25-0.52l6.26,15.03L-45.25,223.98z M-57.78,193.91
								l-6.26-15.03l1.25-0.52l6.26,15.03L-57.78,193.91z"/>
						</defs>
						<clipPath id="SVGID_12_">
							<use xlink:href="#SVGID_11_"  overflow="visible"/>
						</clipPath>
						<g clip-path="url(#SVGID_12_)">
							
								<line id="_x2D_.elLine-_3_" fill="none" stroke="#012B48" stroke-width="3" stroke-miterlimit="10" stroke-dasharray="16.2857" x1="393.66" y1="1276.1" x2="-67.24" y2="169.43"/>
						</g>
					</g>
					<g>
						<defs>
							<path id="SVGID_13_" d="M-971.61,1747.89l0-1.36l12.2-0.02l0,1.36L-971.61,1747.89z M-943.13,1747.84l0-1.36l16.29-0.03
								l0,1.36L-943.13,1747.84z M-910.55,1747.78l0-1.36l16.29-0.03l0,1.36L-910.55,1747.78z M-877.98,1747.72l0-1.36l16.29-0.03
								l0,1.36L-877.98,1747.72z M-845.41,1747.67l0-1.36l16.29-0.03l0,1.36L-845.41,1747.67z M-812.84,1747.61l0-1.36l16.29-0.03
								l0,1.36L-812.84,1747.61z M-780.27,1747.55l0-1.36l16.29-0.03l0,1.36L-780.27,1747.55z M-747.7,1747.49l0-1.36l16.29-0.03
								l0,1.36L-747.7,1747.49z M-715.13,1747.43l0-1.36l16.29-0.03l0,1.36L-715.13,1747.43z M-682.55,1747.37l0-1.36l16.29-0.03
								l0,1.36L-682.55,1747.37z M-649.98,1747.31l0-1.36l16.29-0.03l0,1.36L-649.98,1747.31z M-617.41,1747.25l0-1.36l16.29-0.03
								l0,1.36L-617.41,1747.25z M-584.84,1747.2l0-1.36l16.29-0.03l0,1.36L-584.84,1747.2z M-552.27,1747.14l0-1.36l16.29-0.03
								l0,1.36L-552.27,1747.14z M-519.7,1747.08l0-1.36l16.29-0.03l0,1.36L-519.7,1747.08z M-487.12,1747.02l0-1.36l16.29-0.03
								l0,1.36L-487.12,1747.02z M-454.55,1746.96l0-1.36l16.29-0.03l0,1.36L-454.55,1746.96z M-421.98,1746.9l0-1.36l16.29-0.03
								l0,1.36L-421.98,1746.9z M-389.41,1746.85l0-1.36l16.29-0.03l0,1.36L-389.41,1746.85z M-356.84,1746.79l0-1.36l16.29-0.03
								l0,1.36L-356.84,1746.79z M-324.27,1746.73l0-1.36l16.29-0.03l0,1.36L-324.27,1746.73z M-291.7,1746.67l0-1.36l16.29-0.03
								l0,1.36L-291.7,1746.67z M-259.12,1746.61l0-1.36l16.29-0.03l0,1.36L-259.12,1746.61z M-226.55,1746.55l0-1.36l16.29-0.03
								l0,1.36L-226.55,1746.55z M-193.98,1746.49l0-1.36l16.29-0.03l0,1.36L-193.98,1746.49z M-161.41,1746.44l0-1.36l16.29-0.03
								l0,1.36L-161.41,1746.44z M-128.84,1746.38l0-1.36l16.29-0.03l0,1.36L-128.84,1746.38z M-96.27,1746.32l0-1.36l16.29-0.03
								l0,1.36L-96.27,1746.32z M-63.7,1746.26l0-1.36l16.29-0.03l0,1.36L-63.7,1746.26z M-31.12,1746.2l0-1.36l16.29-0.03l0,1.36
								L-31.12,1746.2z M1.45,1746.14l0-1.36l16.29-0.03l0,1.36L1.45,1746.14z M34.02,1746.08l0-1.36l16.29-0.03l0,1.36
								L34.02,1746.08z M66.59,1746.03l0-1.36l16.29-0.03l0,1.36L66.59,1746.03z M99.16,1745.97l0-1.36l16.29-0.03l0,1.36
								L99.16,1745.97z M131.73,1745.91l0-1.36l16.29-0.03l0,1.36L131.73,1745.91z M164.3,1745.85l0-1.36l16.29-0.03l0,1.36
								L164.3,1745.85z M196.88,1745.79l0-1.36l16.29-0.03l0,1.36L196.88,1745.79z M229.45,1745.73l0-1.36l16.29-0.03l0,1.36
								L229.45,1745.73z M262.02,1745.67l0-1.36l16.29-0.03l0,1.36L262.02,1745.67z M294.59,1745.62l0-1.36l16.29-0.03l0,1.36
								L294.59,1745.62z M327.16,1745.56l0-1.36l16.29-0.03l0,1.36L327.16,1745.56z M359.73,1745.5l0-1.36l16.29-0.03l0,1.36
								L359.73,1745.5z M392.3,1745.44l0-1.36l16.29-0.03l0,1.36L392.3,1745.44z M424.88,1745.38l0-1.36l16.29-0.03l0,1.36
								L424.88,1745.38z M457.45,1745.32l0-1.36l16.29-0.03l0,1.36L457.45,1745.32z M490.02,1745.27l0-1.36l16.29-0.03l0,1.36
								L490.02,1745.27z M522.59,1745.21l0-1.36l16.29-0.03l0,1.36L522.59,1745.21z"/>
						</defs>
						<clipPath id="SVGID_14_">
							<use xlink:href="#SVGID_13_"  overflow="visible"/>
						</clipPath>
						<g clip-path="url(#SVGID_14_)">
							
								<line id="_x2D_.elLine-_2_" fill="none" stroke="#012B48" stroke-width="3" stroke-miterlimit="10" stroke-dasharray="16.2857" x1="538.87" y1="1744.5" x2="-971.61" y2="1747.21"/>
						</g>
					</g>
					<g>
						<defs>
							<path id="SVGID_15_" d="M640.21,1781.53l-16.29-0.02l0-1.36l16.29,0.02L640.21,1781.53z M607.64,1781.5l-16.29-0.02l0-1.36
								l16.29,0.02L607.64,1781.5z M575.07,1781.46l-16.29-0.02l0-1.36l16.29,0.02L575.07,1781.46z M542.5,1781.43l-16.29-0.02
								l0-1.36l16.29,0.02L542.5,1781.43z M509.93,1781.4l-16.29-0.02l0-1.36l16.29,0.02L509.93,1781.4z M477.36,1781.36
								l-16.29-0.02l0-1.36l16.29,0.02L477.36,1781.36z M444.78,1781.33l-16.29-0.02l0-1.36l16.29,0.02L444.78,1781.33z
								 M412.21,1781.29l-16.29-0.02l0-1.36l16.29,0.02L412.21,1781.29z M379.64,1781.26l-16.29-0.02l0-1.36l16.29,0.02
								L379.64,1781.26z M347.07,1781.22l-16.29-0.02l0-1.36l16.29,0.02L347.07,1781.22z M314.5,1781.19l-16.29-0.02l0-1.36
								l16.29,0.02L314.5,1781.19z M281.93,1781.16l-16.29-0.02l0-1.36l16.29,0.02L281.93,1781.16z M249.36,1781.12l-16.29-0.02
								l0-1.36l16.29,0.02L249.36,1781.12z M216.78,1781.09l-16.29-0.02l0-1.36l16.29,0.02L216.78,1781.09z M184.21,1781.05
								l-16.29-0.02l0-1.36l16.29,0.02L184.21,1781.05z M151.64,1781.02l-16.29-0.02l0-1.36l16.29,0.02L151.64,1781.02z
								 M119.07,1780.99l-16.29-0.02l0-1.36l16.29,0.02L119.07,1780.99z M86.5,1780.95l-16.29-0.02l0-1.36l16.29,0.02L86.5,1780.95z
								 M53.93,1780.92l-16.29-0.02l0-1.36l16.29,0.02L53.93,1780.92z M21.35,1780.88l-16.29-0.02l0-1.36l16.29,0.02L21.35,1780.88z
								 M-11.22,1780.85l-16.29-0.02l0-1.36l16.29,0.02L-11.22,1780.85z M-43.79,1780.82l-16.29-0.02l0-1.36l16.29,0.02
								L-43.79,1780.82z M-76.36,1780.78l-16.29-0.02l0-1.36l16.29,0.02L-76.36,1780.78z M-108.93,1780.75l-16.29-0.02l0-1.36
								l16.29,0.02L-108.93,1780.75z M-141.5,1780.71l-16.29-0.02l0-1.36l16.29,0.02L-141.5,1780.71z M-174.07,1780.68l-16.29-0.02
								l0-1.36l16.29,0.02L-174.07,1780.68z M-206.65,1780.65l-16.29-0.02l0-1.36l16.29,0.02L-206.65,1780.65z M-239.22,1780.61
								l-16.29-0.02l0-1.36l16.29,0.02L-239.22,1780.61z M-271.79,1780.58l-16.29-0.02l0-1.36l16.29,0.02L-271.79,1780.58z
								 M-304.36,1780.54l-16.29-0.02l0-1.36l16.29,0.02L-304.36,1780.54z M-336.93,1780.51l-16.29-0.02l0-1.36l16.29,0.02
								L-336.93,1780.51z M-369.5,1780.48l-16.29-0.02l0-1.36l16.29,0.02L-369.5,1780.48z M-402.07,1780.44l-16.29-0.02l0-1.36
								l16.29,0.02L-402.07,1780.44z M-434.65,1780.41l-16.29-0.02l0-1.36l16.29,0.02L-434.65,1780.41z M-467.22,1780.37
								l-16.29-0.02l0-1.36l16.29,0.02L-467.22,1780.37z M-499.79,1780.34l-16.29-0.02l0-1.36l16.29,0.02L-499.79,1780.34z
								 M-532.36,1780.31l-16.29-0.02l0-1.36l16.29,0.02L-532.36,1780.31z M-564.93,1780.27l-16.29-0.02l0-1.36l16.29,0.02
								L-564.93,1780.27z M-597.5,1780.24l-16.29-0.02l0-1.36l16.29,0.02L-597.5,1780.24z M-630.07,1780.2l-16.29-0.02l0-1.36
								l16.29,0.02L-630.07,1780.2z"/>
						</defs>
						<clipPath id="SVGID_16_">
							<use xlink:href="#SVGID_15_"  overflow="visible"/>
						</clipPath>
						<g clip-path="url(#SVGID_16_)">
							
								<line id="_x2D_.elLine-_1_" fill="none" stroke="#012B48" stroke-width="3" stroke-miterlimit="10" stroke-dasharray="16.2857" x1="640.21" y1="1780.85" x2="-658.56" y2="1779.49"/>
						</g>
					</g>
					<circle fill="#A4CD38" cx="1429.89" cy="629.56" r="8.82"/>
					<circle fill="#A4CD38" cx="1571.59" cy="721.29" r="8.82"/>
					<circle fill="#A4CD38" cx="1618.96" cy="738.13" r="8.82"/>
					<circle fill="#A4CD38" cx="1667.88" cy="1022.92" r="8.82"/>
					<circle fill="#A4CD38" cx="1734.42" cy="1399.84" r="8.82"/>
					<circle fill="#A4CD38" cx="1057.82" cy="1606.15" r="8.82"/>
					<circle fill="#A4CD38" cx="1732.41" cy="1627.59" r="8.82"/>
					<circle fill="#A4CD38" cx="1032.94" cy="500.59" r="8.82"/>
					<circle fill="#A4CD38" cx="865.76" cy="500.59" r="8.82"/>
					<circle fill="#A4CD38" cx="373.24" cy="290.89" r="8.82"/>
					<circle fill="#A4CD38" cx="385.84" cy="538.26" r="8.82"/>
					<circle fill="#A4CD38" cx="412.12" cy="1278.48" r="8.82"/>
					<circle fill="#A4CD38" cx="526.66" cy="1590.19" r="8.82"/>
					<circle fill="#A4CD38" cx="478.52" cy="1688.44" r="8.82"/>
					<circle fill="#A4CD38" cx="1999.64" cy="1696.49" r="8.82"/>
					<circle fill="#A4CD38" cx="1812.74" cy="1695.71" r="8.82"/>
					<circle fill="#A4CD38" cx="2319.47" cy="1698.26" r="8.82"/>
					<circle fill="#A4CD38" cx="2485.13" cy="1695.12" r="8.82"/>
					<circle fill="#A4CD38" cx="2602.63" cy="1736.32" r="8.82"/>
					<circle fill="#A4CD38" cx="1197.9" cy="1782.17" r="8.82"/>
					<circle fill="#A4CD38" cx="1126.19" cy="1741.45" r="8.82"/>
					<circle fill="#A4CD38" cx="955.29" cy="1780.57" r="8.82"/>
					<circle fill="#A4CD38" cx="554.56" cy="1744.07" r="8.82"/>
					<circle fill="#A4CD38" cx="655.08" cy="1780.57" r="8.82"/>
					<circle fill="#A4CD38" cx="1040.3" cy="1696.39" r="8.82"/>
					<circle fill="#A4CD38" cx="919.39" cy="1727.46" r="8.82"/>
					<circle fill="#A4CD38" cx="1844.52" cy="1794.67" r="8.82"/>
					<circle fill="#A4CD38" cx="2164.96" cy="1793.95" r="8.82"/>
					<circle fill="#A4CD38" cx="2474.87" cy="1792.84" r="8.82"/>
					<circle fill="#A4CD38" cx="2824.82" cy="1722.9" r="8.82"/>
					
						<circle id="_x2D_.elCircle-_9_" fill="none" stroke="#012B48" stroke-width="1.3571" stroke-miterlimit="10" cx="411.55" cy="1279.49" r="42.62"/>
					
						<circle id="_x2D_.elCircle-_8_" fill="none" stroke="#012B48" stroke-width="1.3571" stroke-miterlimit="10" cx="385.84" cy="538.26" r="42.62"/>
					
						<circle id="_x2D_.elCircle-_7_" fill="none" stroke="#012B48" stroke-width="1.3571" stroke-miterlimit="10" cx="373.24" cy="290.61" r="42.62"/>
					
						<circle id="_x2D_.elCircle-_6_" fill="none" stroke="#012B48" stroke-width="1.3571" stroke-miterlimit="10" cx="1621.61" cy="737.76" r="42.62"/>
					
						<circle id="_x2D_.elCircle-_5_" fill="none" stroke="#012B48" stroke-width="1.3571" stroke-miterlimit="10" cx="1999.67" cy="1696.41" r="42.62"/>
					
						<circle id="_x2D_.elCircle-_4_" fill="none" stroke="#012B48" stroke-width="1.3571" stroke-miterlimit="10" cx="2823.53" cy="1723.11" r="42.62"/>
					
						<circle id="_x2D_.elCircle-_3_" fill="none" stroke="#012B48" stroke-width="1.3571" stroke-miterlimit="10" cx="955.36" cy="1779.49" r="42.62"/>
					
						<circle id="_x2D_.elCircle-_2_" fill="none" stroke="#012B48" stroke-width="1.3571" stroke-miterlimit="10" cx="478.52" cy="1686.04" r="42.62"/>
					
						<circle id="_x2D_.elCircle-_1_" fill="none" stroke="#012B48" stroke-width="1.3571" stroke-miterlimit="10" cx="1734.98" cy="1402.49" r="42.62"/>
					
						<circle id="_x2D_.elCircle-" fill="none" stroke="#012B48" stroke-width="1.3571" stroke-miterlimit="10" cx="2474.87" cy="1793.51" r="42.62"/>
					<g id="laptopImage">
						
							<image overflow="visible" width="887" height="657" xlink:href="assets/img/TestProducts2/ProsaroPro.png"  transform="matrix(1.1698 0.0968 0.03 1.3639 523.876 617.5804)">
						</image>
					</g>
				</g>
				<rect fill="none" width="3840" height="2160"/>
			</g>
		</g>
	</g>
</g>
<rect fill="none" width="3840" height="2160"/>
</svg>
