<?xml version="1.0" encoding="utf-8"?>
<!-- Generator: Adobe Illustrator 24.2.1, SVG Export Plug-In . SVG Version: 6.00 Build 0)  -->
<svg version="1.1" id="laptopSvg" xmlns="http://www.w3.org/2000/svg" xmlns:xlink="http://www.w3.org/1999/xlink" x="0px" y="0px"
	 width="3840px" height="2160px" viewBox="0 0 3840 2160" enable-background="new 0 0 3840 2160" xml:space="preserve">
<g id="_x2D_.contentScene-">
	<g id="_x2D_.moveElements-">
		<g>
			<g>
				<text transform="matrix(1 0 0 1 2480.198 604.7725)"><tspan x="0" y="0" fill="#012B48" font-family="'HelveticaNeueLTStd-Bd'" font-size="85px">gives you plenty of ways to make  </tspan><tspan x="260.09" y="118" fill="#012B48" font-family="'HelveticaNeueLTStd-Bd'" font-size="85px"> smart agronomic choices.</tspan></text>
				<rect fill="none" width="3840" height="2160"/>
			</g>
		</g>
		<g>
			<g>
				<text transform="matrix(1 0 0 1 2033.3831 199.0849)" fill="#012B48" font-family="'HelveticaNeueLTStd-Bd'" font-size="85px">With our broad portfolio of eligible products,</text>
				<rect fill="none" width="3840" height="2160"/>
			</g>
		</g>
		<g>
			<g>
				<text transform="matrix(1 0 0 1 1409.3502 455.9384)"><tspan x="0" y="0" fill="#012B48" font-family="'HelveticaNeueLTStd-ThIt'" font-size="256px" letter-spacing="-2">Bayer PLUS </tspan><tspan x="1223.91" y="0" fill="#012B48" font-family="'HelveticaNeueLTStd-ThIt'" font-size="256px" letter-spacing="6">R</tspan><tspan x="1368.04" y="0" fill="#012B48" font-family="'HelveticaNeueLTStd-ThIt'" font-size="256px" letter-spacing="-2">ewards</tspan></text>
				<rect fill="none" width="3840" height="2160"/>
			</g>
		</g>
		<g>
			<g>
				<g>
					<polygon fill="#A4CD38" points="1790.34,1741.55 1836.33,1761.88 1777.38,1763.69 					"/>
					<polygon fill="#A4CD38" points="1872.9,1697.79 1926.19,1696.89 1926.19,1740.49 					"/>
					<polygon fill="#A4CD38" points="1726.36,1739.57 1727.52,1697.9 1798.41,1739.01 					"/>
					<polygon fill="#A4CD38" points="648.04,1777.52 885.64,1758.4 939.14,1779.49 					"/>
					<polygon fill="#A4CD38" points="1232.82,1782.25 1726.23,1762.21 1740.58,1785.1 					"/>
					<polygon fill="#A4CD38" points="494.93,1696.64 796.46,1724.79 485.06,1724.8 					"/>
					<polygon fill="#A4CD38" points="1658.84,1626.24 1773.08,1695.2 1671.33,1695.74 					"/>
					<polygon fill="#A4CD38" points="1720.85,1399.84 1718.84,1620.86 1647.12,1223.41 					"/>
					<polygon fill="#A4CD38" points="1566.53,680.47 1556.66,719.99 1420.39,633.57 					"/>
					<polygon fill="#A4CD38" points="1592.41,705.15 1604.09,736.78 1558.62,721.13 					"/>
					<polygon fill="#A4CD38" points="311.51,304.49 346.03,342.54 284.01,346.95 293.76,323.52 					"/>
					<polygon fill="#A4CD38" points="372.27,544.99 431.18,980.93 333.23,777.57 					"/>
					<polygon fill="#A4CD38" points="845.47,500.59 364.19,348.64 641.54,380.34 					"/>
					<polygon fill="#A4CD38" points="513.09,1588.85 463.23,1689.78 448.03,1666.23 398.55,1285.2 					"/>
					<polygon fill="#A4CD38" points="1726.17,1697.9 1726.34,1722.08 1122.91,1720.55 					"/>
					<polygon fill="#A4CD38" points="905.97,1697.59 965.57,1697.26 964.91,1726.13 					"/>
					<polygon fill="#A4CD38" points="1932.76,1761.54 2273.43,1739.83 2232.03,1757.55 					"/>
					<polygon fill="#A4CD38" points="2158.11,1793.95 2403.84,1754.62 2318.78,1792.98 					"/>
					<polygon fill="#A4CD38" points="2472.25,1696.92 2619.38,1697.01 2472.96,1722.9 					"/>
					<polygon fill="#A4CD38" points="2600.68,1737.16 2807.24,1735.02 2769.6,1749.45 					"/>
					<path fill="none" stroke="#012B48" stroke-width="1.3571" stroke-miterlimit="10" d="M379.53,294.14
						c-49.51-16.03-126.27,29.89-119.8,81.53L419.6,1651.53c5.15,41.11,40.6,71.64,82.02,70.63"/>
					<path fill="none" stroke="#08274B" stroke-width="1.3571" stroke-miterlimit="10" stroke-dasharray="16.2857" d="
						M1773.08,1695.2l-170.63-964.78c-4.8-25.58-23.2-46.49-47.96-54.51l-1179-381.77c-49.51-16.03-98.89,24.82-92.42,76.46
						l159.88,1275.86c3.42,27.26,20.16,49.87,43.12,61.71"/>
					<polyline fill="none" stroke="#012B48" stroke-width="1.0179" stroke-miterlimit="10" stroke-dasharray="16.2857" points="
						1567.89,681.83 1558.02,721.29 1415.23,630.81 1191.05,607.55 1018.65,502.4 849.97,500.02 641.51,380.28 346.03,342.54 
						359.67,290.89 					"/>
					
						<line fill="none" stroke="#012B48" stroke-width="1.0179" stroke-miterlimit="10" x1="346.03" y1="342.54" x2="311.51" y2="304.49"/>
					<polyline fill="none" stroke="#012B48" stroke-width="1.0179" stroke-miterlimit="10" stroke-dasharray="16.2857" points="
						346.03,342.54 284.01,346.95 372.27,538.26 334.02,777.09 432.16,985.07 397.07,1280.3 513.09,1588.85 461.33,1688.44 					"/>
					
						<line fill="none" stroke="#012B48" stroke-width="1.0179" stroke-miterlimit="10" x1="1592.41" y1="705.15" x2="1558.02" y2="721.29"/>
					<polyline fill="none" stroke="#012B48" stroke-width="1.0179" stroke-miterlimit="10" points="1558.02,721.29 1603.75,737.76 
						1586.6,882.38 1653.93,1021.47 1645.6,1215.47 1720.85,1399.84 1718.84,1627.59 1773.08,1695.2 					"/>
					
						<line fill="none" stroke="#08274B" stroke-width="1.0179" stroke-miterlimit="10" x1="585.88" y1="1591.36" x2="600.67" y2="1693.41"/>
					
						<line fill="none" stroke="#08274B" stroke-width="1.0179" stroke-miterlimit="10" x1="814.79" y1="1598.08" x2="826.89" y2="1694.75"/>
					
						<line fill="none" stroke="#08274B" stroke-width="1.0179" stroke-miterlimit="10" x1="1044.25" y1="1606.15" x2="1055.01" y2="1694.75"/>
					
						<line fill="none" stroke="#08274B" stroke-width="1.0179" stroke-miterlimit="10" x1="1240.17" y1="1611.71" x2="1250.92" y2="1696.28"/>
					
						<line fill="none" stroke="#08274B" stroke-width="1.0179" stroke-miterlimit="10" x1="1398.5" y1="1617.41" x2="1410.6" y2="1695.25"/>
					
						<line fill="none" stroke="#08274B" stroke-width="1.0179" stroke-miterlimit="10" x1="1539.03" y1="1621.92" x2="1551.13" y2="1697.07"/>
					
						<line fill="none" stroke="#08274B" stroke-width="1.0179" stroke-miterlimit="10" x1="1657.89" y1="1624.61" x2="1671.33" y2="1694.38"/>
					<polyline fill="none" stroke="#08274B" stroke-width="1.0179" stroke-miterlimit="10" stroke-dasharray="16.2857" points="
						1771.25,1692.43 1657.48,1626.24 1551.29,1696.24 1398.5,1619.52 1250.56,1693.55 1042.91,1607.42 827.56,1695.16 
						585.88,1591.36 463.23,1689.78 					"/>
					<polygon fill="none" stroke="#012B48" stroke-width="1.3571" stroke-miterlimit="10" points="513.09,1588.85 1718.84,1627.59 
						1558.02,721.29 346.03,342.54 					"/>
					<path fill="none" stroke="#012B48" stroke-width="1.3571" stroke-miterlimit="10" d="M710.77,1793.82h1912.3
						c17.93,0,35.72-3.12,52.59-9.21l163.29-59.9l-7.44-28.07H494.93l-9.87,28.16l175.36,60.6
						C676.62,1790.98,693.63,1793.82,710.77,1793.82z"/>
					
						<line fill="none" stroke="#012B48" stroke-width="1.3571" stroke-miterlimit="10" x1="2837.6" y1="1723.36" x2="1986.07" y2="1724.76"/>
					<polyline fill="none" stroke="#012B48" stroke-width="1.3571" stroke-miterlimit="10" points="2809.88,1734.97 
						1966.41,1741.75 1725,1739.57 538.52,1742.7 					"/>
					<polyline fill="none" stroke="#012B48" stroke-width="1.3571" stroke-miterlimit="10" points="1726.34,1723.44 1114.6,1720.99 
						1082.22,1726.42 804.48,1728.59 790.92,1723.25 486.08,1723.88 					"/>
					<polyline fill="none" stroke="#012B48" stroke-width="1.3571" stroke-miterlimit="10" points="2773.05,1749.45 
						1906.31,1762.43 1725,1762.43 574.83,1756.15 					"/>
					
						<line fill="none" stroke="#012B48" stroke-width="1.3571" stroke-miterlimit="10" x1="641.51" y1="1778.82" x2="1740.58" y2="1785.1"/>
					
						<line fill="none" stroke="#012B48" stroke-width="1.3571" stroke-miterlimit="10" x1="1092.41" y1="1740.93" x2="1080.28" y2="1726.08"/>
					
						<line fill="none" stroke="#012B48" stroke-width="1.3571" stroke-miterlimit="10" x1="805.67" y1="1728.46" x2="828.91" y2="1741.94"/>
					
						<line fill="none" stroke="#012B48" stroke-width="1.3571" stroke-miterlimit="10" x1="849.97" y1="1742.23" x2="941.72" y2="1780.57"/>
					
						<line fill="none" stroke="#012B48" stroke-width="1.3571" stroke-miterlimit="10" x1="1112.62" y1="1741.45" x2="1187.48" y2="1782.25"/>
					
						<line fill="none" stroke="#012B48" stroke-width="1.3571" stroke-miterlimit="10" x1="1026.73" y1="1696.39" x2="1027.34" y2="1726"/>
					
						<line fill="none" stroke="#012B48" stroke-width="1.3571" stroke-miterlimit="10" x1="965.57" y1="1697.26" x2="965.57" y2="1727.15"/>
					
						<line fill="none" stroke="#012B48" stroke-width="1.3571" stroke-miterlimit="10" x1="905.81" y1="1696.94" x2="905.82" y2="1727.46"/>
					
						<line fill="none" stroke="#012B48" stroke-width="1.3571" stroke-miterlimit="10" x1="1727.21" y1="1696.4" x2="1727.21" y2="1740.01"/>
					
						<line fill="none" stroke="#012B48" stroke-width="1.3571" stroke-miterlimit="10" x1="1799.17" y1="1697.05" x2="1799.17" y2="1740.66"/>
					
						<line fill="none" stroke="#012B48" stroke-width="1.3571" stroke-miterlimit="10" x1="1872.66" y1="1696.88" x2="1872.66" y2="1740.49"/>
					
						<line fill="none" stroke="#012B48" stroke-width="1.3571" stroke-miterlimit="10" x1="1926.19" y1="1695.54" x2="1926.19" y2="1740.49"/>
					
						<line fill="none" stroke="#012B48" stroke-width="1.3571" stroke-miterlimit="10" x1="1986.07" y1="1696.49" x2="1986.07" y2="1741.45"/>
					
						<line fill="none" stroke="#012B48" stroke-width="1.3571" stroke-miterlimit="10" x1="1978.7" y1="1741.83" x2="1840.21" y2="1793.51"/>
					
						<line fill="none" stroke="#012B48" stroke-width="1.3571" stroke-miterlimit="10" x1="1916.6" y1="1741.18" x2="1829.2" y2="1794.2"/>
					
						<line fill="none" stroke="#012B48" stroke-width="1.3571" stroke-miterlimit="10" x1="1861.8" y1="1740.5" x2="1800.1" y2="1794.53"/>
					<polyline fill="none" stroke="#012B48" stroke-width="1.3571" stroke-miterlimit="10" points="1790.34,1741.55 
						1777.38,1763.69 1775.81,1794.39 					"/>
					<polyline fill="none" stroke="#012B48" stroke-width="1.3571" stroke-miterlimit="10" points="1726.72,1740.66 
						1726.23,1762.21 1750.45,1794.67 					"/>
					
						<line fill="none" stroke="#012B48" stroke-width="1.3571" stroke-miterlimit="10" x1="2618.03" y1="1697.97" x2="2618.03" y2="1724.52"/>
					
						<line fill="none" stroke="#012B48" stroke-width="1.3571" stroke-miterlimit="10" x1="2811.25" y1="1696.34" x2="2811.25" y2="1722.9"/>
					
						<line fill="none" stroke="#012B48" stroke-width="1.3571" stroke-miterlimit="10" x1="2472.25" y1="1696.92" x2="2472.25" y2="1723.47"/>
					
						<line fill="none" stroke="#012B48" stroke-width="1.3571" stroke-miterlimit="10" x1="2305.9" y1="1698.26" x2="2305.9" y2="1724.82"/>
					
						<line fill="none" stroke="#012B48" stroke-width="1.3571" stroke-miterlimit="10" x1="2618" y1="1723.33" x2="2461.3" y2="1792.84"/>
					
						<line fill="none" stroke="#012B48" stroke-width="1.3571" stroke-miterlimit="10" x1="2471.55" y1="1724.16" x2="2317.55" y2="1793.67"/>
					
						<line fill="none" stroke="#012B48" stroke-width="1.3571" stroke-miterlimit="10" x1="2305.39" y1="1724.44" x2="2151.39" y2="1793.95"/>
					
						<line fill="none" stroke="#012B48" stroke-width="1.0179" stroke-miterlimit="10" x1="2811.25" y1="1722.9" x2="2618.03" y2="1697.97"/>
					<polyline fill="none" stroke="#012B48" stroke-width="1.0179" stroke-miterlimit="10" points="2830.59,1696.92 2811.25,1722.9 
						2590.41,1736.32 					"/>
					
						<line fill="none" stroke="#012B48" stroke-width="1.0179" stroke-miterlimit="10" x1="2618" y1="1698.26" x2="2472.96" y2="1722.9"/>
					
						<line fill="none" stroke="#012B48" stroke-width="1.0179" stroke-miterlimit="10" x1="2472.25" y1="1723.47" x2="2305.9" y2="1698.26"/>
					
						<line fill="none" stroke="#012B48" stroke-width="1.0179" stroke-miterlimit="10" x1="2305.63" y1="1697.9" x2="1986.22" y2="1723.68"/>
					
						<line fill="none" stroke="#012B48" stroke-width="1.0179" stroke-miterlimit="10" x1="1985.02" y1="1697.79" x2="1926.19" y2="1740.49"/>
					
						<line fill="none" stroke="#012B48" stroke-width="1.0179" stroke-miterlimit="10" x1="1926.19" y1="1740.49" x2="1872.9" y2="1697.79"/>
					
						<line fill="none" stroke="#012B48" stroke-width="1.0179" stroke-miterlimit="10" x1="1872.9" y1="1697.79" x2="1799.48" y2="1739.32"/>
					
						<line fill="none" stroke="#012B48" stroke-width="1.0179" stroke-miterlimit="10" x1="1798.41" y1="1739.01" x2="1727.52" y2="1697.9"/>
					
						<line fill="none" stroke="#012B48" stroke-width="1.0179" stroke-miterlimit="10" x1="2472.25" y1="1723.47" x2="2590.41" y2="1736.32"/>
					
						<line fill="none" stroke="#012B48" stroke-width="1.0179" stroke-miterlimit="10" x1="2471.55" y1="1724.16" x2="2275.93" y2="1738.84"/>
					
						<line fill="none" stroke="#012B48" stroke-width="1.0179" stroke-miterlimit="10" x1="2272.16" y1="1739.01" x2="1987.05" y2="1724.52"/>
					
						<line fill="none" stroke="#012B48" stroke-width="1.0179" stroke-miterlimit="10" x1="1025.94" y1="1697.69" x2="965.36" y2="1726.37"/>
					
						<line fill="none" stroke="#012B48" stroke-width="1.0179" stroke-miterlimit="10" x1="964.91" y1="1726.13" x2="905.97" y2="1697.59"/>
					
						<line fill="none" stroke="#012B48" stroke-width="1.0179" stroke-miterlimit="10" x1="1727.69" y1="1723.74" x2="1091.11" y2="1740.18"/>
					
						<line fill="none" stroke="#012B48" stroke-width="1.0179" stroke-miterlimit="10" x1="1089.69" y1="1740.18" x2="809.22" y2="1729.59"/>
					
						<line fill="none" stroke="#012B48" stroke-width="1.0179" stroke-miterlimit="10" x1="793.74" y1="1724.79" x2="538.52" y2="1742.87"/>
					
						<line fill="none" stroke="#012B48" stroke-width="1.0179" stroke-miterlimit="10" stroke-dasharray="16.2857" x1="882.6" y1="1756.29" x2="540.99" y2="1744.07"/>
					
						<line fill="none" stroke="#012B48" stroke-width="1.0179" stroke-miterlimit="10" x1="1112.62" y1="1741.45" x2="886.43" y2="1757.28"/>
					
						<line fill="none" stroke="#012B48" stroke-width="1.0179" stroke-miterlimit="10" stroke-dasharray="16.2857" x1="1725.56" y1="1761.32" x2="1116.16" y2="1742.54"/>
					
						<line fill="none" stroke="#012B48" stroke-width="1.0179" stroke-miterlimit="10" x1="1790.56" y1="1741.2" x2="1727.06" y2="1761.88"/>
					
						<line fill="none" stroke="#012B48" stroke-width="1.0179" stroke-miterlimit="10" x1="1836.33" y1="1761.88" x2="1788.99" y2="1741.2"/>
					
						<line fill="none" stroke="#012B48" stroke-width="1.0179" stroke-miterlimit="10" x1="1913.24" y1="1742.54" x2="1839.14" y2="1761.32"/>
					
						<line fill="none" stroke="#012B48" stroke-width="1.0179" stroke-miterlimit="10" x1="1915.26" y1="1741.2" x2="1918.62" y2="1761.88"/>
					<polyline fill="none" stroke="#012B48" stroke-width="1.0179" stroke-miterlimit="10" stroke-dasharray="16.2857" points="
						1923.77,1762.12 2271.01,1739.85 2403.84,1754.62 2586.82,1737.16 2769.6,1749.45 					"/>
					<polyline fill="none" stroke="#012B48" stroke-width="1.0179" stroke-miterlimit="10" stroke-dasharray="16.2857" points="
						2769.6,1749.45 2461.3,1792.84 2400.23,1755.94 2154.85,1792.39 1918.39,1763.48 					"/>
					<polyline fill="none" stroke="#012B48" stroke-width="1.0179" stroke-miterlimit="10" stroke-dasharray="16.2857" points="
						1727.06,1761.88 1775.81,1794.39 1836.33,1761.88 1829.2,1794.2 1918.39,1763.48 					"/>
					<polyline fill="none" stroke="#012B48" stroke-width="1.0179" stroke-miterlimit="10" stroke-dasharray="16.2857" points="
						1725.48,1763.48 1184.32,1782.17 885.64,1758.4 641.51,1778.82 					"/>
					<polygon fill="#012B48" points="346.03,342.54 1562.77,721.29 1718.84,1627.59 517.84,1590.19 					"/>
					<polygon opacity="0.05" fill="#FFFFFF" points="1718.84,1627.59 1558.02,722.63 346.03,342.54 					"/>
					
						<line id="_x2D_.elLine-_7_" fill="none" stroke="#012B48" stroke-width="1.3571" stroke-miterlimit="10" stroke-dasharray="16.2857" x1="1603.75" y1="737.76" x2="2377.05" y2="950.2"/>
					
						<line id="_x2D_.elLine-_6_" fill="none" stroke="#012B48" stroke-width="1.3571" stroke-miterlimit="10" stroke-dasharray="16.2857" x1="290.74" y1="346.95" x2="-765.79" y2="487.15"/>
					
						<line id="_x2D_.elLine-_5_" fill="none" stroke="#012B48" stroke-width="1.3571" stroke-miterlimit="10" stroke-dasharray="16.2857" x1="641.54" y1="380.34" x2="1733.78" y2="416.16"/>
					
						<line id="_x2D_.elLine-_4_" fill="none" stroke="#012B48" stroke-width="1.3571" stroke-miterlimit="10" stroke-dasharray="16.2857" x1="1416.09" y1="630.55" x2="114.43" y2="-176.2"/>
					
						<line id="_x2D_.elLine-_3_" fill="none" stroke="#012B48" stroke-width="1.3571" stroke-miterlimit="10" stroke-dasharray="16.2857" x1="1720.21" y1="1399.87" x2="1778.13" y2="-24.55"/>
					
						<line id="_x2D_.elLine-_2_" fill="none" stroke="#012B48" stroke-width="1.3571" stroke-miterlimit="10" stroke-dasharray="16.2857" x1="393.66" y1="1276.1" x2="-67.24" y2="169.43"/>
					
						<line id="_x2D_.elLine-_1_" fill="none" stroke="#012B48" stroke-width="1.3571" stroke-miterlimit="10" stroke-dasharray="16.2857" x1="538.87" y1="1744.5" x2="-971.61" y2="1747.21"/>
					
						<line id="_x2D_.elLine-" fill="none" stroke="#012B48" stroke-width="1.3571" stroke-miterlimit="10" stroke-dasharray="16.2857" x1="640.21" y1="1780.85" x2="-658.56" y2="1779.49"/>
					<circle fill="#A4CD38" cx="1429.89" cy="629.56" r="8.82"/>
					<circle fill="#A4CD38" cx="1571.59" cy="721.29" r="8.82"/>
					<circle fill="#A4CD38" cx="1618.96" cy="738.13" r="8.82"/>
					<circle fill="#A4CD38" cx="1667.88" cy="1022.92" r="8.82"/>
					<circle fill="#A4CD38" cx="1734.42" cy="1399.84" r="8.82"/>
					<circle fill="#A4CD38" cx="1057.82" cy="1606.15" r="8.82"/>
					<circle fill="#A4CD38" cx="1732.41" cy="1627.59" r="8.82"/>
					<circle fill="#A4CD38" cx="1032.94" cy="500.59" r="8.82"/>
					<circle fill="#A4CD38" cx="865.76" cy="500.59" r="8.82"/>
					<circle fill="#A4CD38" cx="373.24" cy="290.89" r="8.82"/>
					<circle fill="#A4CD38" cx="385.84" cy="538.26" r="8.82"/>
					<circle fill="#A4CD38" cx="412.12" cy="1278.48" r="8.82"/>
					<circle fill="#A4CD38" cx="526.66" cy="1590.19" r="8.82"/>
					<circle fill="#A4CD38" cx="478.52" cy="1688.44" r="8.82"/>
					<circle fill="#A4CD38" cx="1999.64" cy="1696.49" r="8.82"/>
					<circle fill="#A4CD38" cx="1812.74" cy="1695.71" r="8.82"/>
					<circle fill="#A4CD38" cx="2319.47" cy="1698.26" r="8.82"/>
					<circle fill="#A4CD38" cx="2485.13" cy="1695.12" r="8.82"/>
					<circle fill="#A4CD38" cx="2602.63" cy="1736.32" r="8.82"/>
					<circle fill="#A4CD38" cx="1197.9" cy="1782.17" r="8.82"/>
					<circle fill="#A4CD38" cx="1126.19" cy="1741.45" r="8.82"/>
					<circle fill="#A4CD38" cx="955.29" cy="1780.57" r="8.82"/>
					<circle fill="#A4CD38" cx="554.56" cy="1744.07" r="8.82"/>
					<circle fill="#A4CD38" cx="655.08" cy="1780.57" r="8.82"/>
					<circle fill="#A4CD38" cx="1040.3" cy="1696.39" r="8.82"/>
					<circle fill="#A4CD38" cx="919.39" cy="1727.46" r="8.82"/>
					<circle fill="#A4CD38" cx="1844.52" cy="1794.67" r="8.82"/>
					<circle fill="#A4CD38" cx="2164.96" cy="1793.95" r="8.82"/>
					<circle fill="#A4CD38" cx="2474.87" cy="1792.84" r="8.82"/>
					<circle fill="#A4CD38" cx="2824.82" cy="1722.9" r="8.82"/>
					
						<circle id="_x2D_.elCircle-_9_" fill="none" stroke="#012B48" stroke-width="1.3571" stroke-miterlimit="10" cx="411.55" cy="1279.49" r="42.62"/>
					
						<circle id="_x2D_.elCircle-_8_" fill="none" stroke="#012B48" stroke-width="1.3571" stroke-miterlimit="10" cx="385.84" cy="538.26" r="42.62"/>
					
						<circle id="_x2D_.elCircle-_7_" fill="none" stroke="#012B48" stroke-width="1.3571" stroke-miterlimit="10" cx="373.24" cy="290.61" r="42.62"/>
					
						<circle id="_x2D_.elCircle-_6_" fill="none" stroke="#012B48" stroke-width="1.3571" stroke-miterlimit="10" cx="1621.61" cy="737.76" r="42.62"/>
					
						<circle id="_x2D_.elCircle-_5_" fill="none" stroke="#012B48" stroke-width="1.3571" stroke-miterlimit="10" cx="1999.67" cy="1696.41" r="42.62"/>
					
						<circle id="_x2D_.elCircle-_4_" fill="none" stroke="#012B48" stroke-width="1.3571" stroke-miterlimit="10" cx="2823.53" cy="1723.11" r="42.62"/>
					
						<circle id="_x2D_.elCircle-_3_" fill="none" stroke="#012B48" stroke-width="1.3571" stroke-miterlimit="10" cx="955.36" cy="1779.49" r="42.62"/>
					
						<circle id="_x2D_.elCircle-_2_" fill="none" stroke="#012B48" stroke-width="1.3571" stroke-miterlimit="10" cx="478.52" cy="1686.04" r="42.62"/>
					
						<circle id="_x2D_.elCircle-_1_" fill="none" stroke="#012B48" stroke-width="1.3571" stroke-miterlimit="10" cx="1734.98" cy="1402.49" r="42.62"/>
					
						<circle id="_x2D_.elCircle-" fill="none" stroke="#012B48" stroke-width="1.3571" stroke-miterlimit="10" cx="2474.87" cy="1793.51" r="42.62"/>
					
						<image overflow="visible" width="887" height="657" xlink:href="../../img/TestProducts2/asgrow.png"  transform="matrix(1.3279 0 0 1.2948 466.0623 654.661)">
					</image>
				</g>
				<rect fill="none" width="3840" height="2160"/>
			</g>
		</g>
	</g>
</g>
<rect fill="none" width="3840" height="2160"/>
</svg>
