<?xml version="1.0" encoding="utf-8"?>
<!-- Generator: Adobe Illustrator 24.2.1, SVG Export Plug-In . SVG Version: 6.00 Build 0)  -->
<svg version="1.1" id="laptopSvg" xmlns="http://www.w3.org/2000/svg" xmlns:xlink="http://www.w3.org/1999/xlink" x="0px" y="0px"
	 width="3840px" height="2160px" viewBox="0 0 3840 2160" enable-background="new 0 0 3840 2160" xml:space="preserve">
<g id="_x2D_.contentScene-">
	<g id="_x2D_.moveElements-">
		<g>
			<g>
				<text transform="matrix(1 0 0 1 709.4944 1893.8561)" fill="#FFFFFF" font-family="'HelveticaNeueLTStd-Md'" font-size="88px">(There is one product that will have an extra line of text down here)</text>
				<rect fill="none" width="3840" height="2160"/>
			</g>
		</g>
		<g>
			<g>
				
					<text transform="matrix(1 0 0 1 2356.802 656.6199)" fill="#FFFFFF" font-family="'HelveticaNeueLTStd-ThIt'" font-size="301.3676px" letter-spacing="-3">solutions.</text>
				<rect fill="none" width="3840" height="2160"/>
			</g>
		</g>
		<g>
			<g>
				
					<text transform="matrix(1 0 0 1 1712.0229 411.1016)" fill="#FFFFFF" font-family="'HelveticaNeueLTStd-Bd'" font-size="101.58px">offers a wide range of weed management</text>
				<rect fill="none" width="3840" height="2160"/>
			</g>
		</g>
		<g>
			<g>
				<g>
					<path fill="#012B48" d="M1037.84,1638.2l125.73-710.89c3.54-18.85,17.09-34.26,35.34-40.17l848.56-285.04
						c36.48-11.81,93.04,22.03,88.28,60.07l-117.8,940.11c-3.8,30.29-29.92,52.79-60.44,52.04L1037.84,1638.2z"/>
					<path fill="#0099C6" d="M1020.64,1634.46l125.73-710.89c3.54-18.85,17.09-34.26,35.34-40.17l868.73-281.3
						c36.48-11.81,72.87,18.29,68.1,56.34l-117.8,940.11c-3.8,30.29-29.92,52.79-60.44,52.04L1020.64,1634.46z"/>
					<polygon opacity="0.14" fill="#012B48" points="1060.61,1584.64 1179.11,917.83 2072.15,637.77 					"/>
					<circle fill="#08274B" cx="2161.35" cy="1383.07" r="4.95"/>
					<circle fill="#08274B" cx="2192.51" cy="645.96" r="4.95"/>
					<circle fill="#08274B" cx="2003.73" cy="576.04" r="4.95"/>
					<circle fill="#08274B" cx="1350.62" cy="754.22" r="4.95"/>
					<circle fill="#08274B" cx="1287.73" cy="749.27" r="4.95"/>
					<circle fill="#08274B" cx="858.75" cy="1283.91" r="4.95"/>
					<circle fill="#08274B" cx="1012.52" cy="929.25" r="4.95"/>
					<circle fill="#08274B" cx="1283.52" cy="849.25" r="4.95"/>
					<circle fill="#08274B" cx="1179.11" cy="916.84" r="4.95"/>
					<circle fill="#08274B" cx="1171.84" cy="887.77" r="4.95"/>
					<circle fill="#08274B" cx="1153.76" cy="904.95" r="4.95"/>
					<circle fill="#08274B" cx="1144.2" cy="929.25" r="4.95"/>
					<circle fill="#08274B" cx="1158.98" cy="1035.51" r="4.95"/>
					<circle fill="#08274B" cx="1108.16" cy="1139.1" r="4.95"/>
					<circle fill="#08274B" cx="1114.3" cy="1282.04" r="4.95"/>
					<circle fill="#08274B" cx="1059.13" cy="1416.83" r="4.95"/>
					<circle fill="#08274B" cx="1895.41" cy="1557.95" r="4.95"/>
					<circle fill="#08274B" cx="1726.75" cy="1562.9" r="4.95"/>
					<circle fill="#08274B" cx="1557.67" cy="1568.84" r="4.95"/>
					<circle fill="#08274B" cx="1413.31" cy="1572.94" r="4.95"/>
					<circle fill="#08274B" cx="1296.64" cy="1577.14" r="4.95"/>
					<circle fill="#08274B" cx="1105.52" cy="1582.44" r="4.95"/>
					<circle fill="#08274B" cx="1060.61" cy="1584.64" r="4.95"/>
					<circle fill="#08274B" cx="1449.51" cy="833.03" r="4.95"/>
					<circle fill="#08274B" cx="1576" cy="754.22" r="4.95"/>
					<circle fill="#08274B" cx="1699.19" cy="754.22" r="4.95"/>
					<circle fill="#08274B" cx="1854.43" cy="665.57" r="4.95"/>
					<circle fill="#08274B" cx="2072.15" cy="637.77" r="4.95"/>
					<circle fill="#08274B" cx="2062.1" cy="599.71" r="4.95"/>
					<circle fill="#08274B" cx="2097.59" cy="609.73" r="4.95"/>
					<circle fill="#08274B" cx="2117.84" cy="641.01" r="4.95"/>
					<circle fill="#08274B" cx="2052.82" cy="781.98" r="4.95"/>
					<circle fill="#08274B" cx="2081" cy="957.96" r="4.95"/>
					<circle fill="#08274B" cx="2008.69" cy="1111.2" r="4.95"/>
					<circle fill="#08274B" cx="2033.45" cy="1327.4" r="4.95"/>
					<circle fill="#08274B" cx="1949.05" cy="1557.08" r="4.95"/>
					<circle fill="#08274B" cx="1984.52" cy="1629.48" r="4.95"/>
					<circle fill="#08274B" cx="1020.64" cy="1630.95" r="4.95"/>
					<polyline fill="none" stroke="#012B48" stroke-width="0.75" stroke-miterlimit="10" points="1171.84,887.77 1179.11,916.84 
						1284.31,850.18 1449.51,833.03 1576.53,755.55 1700.83,753.8 1854.43,665.57 2072.15,637.77 2062.1,599.71 					"/>
					
						<line fill="none" stroke="#012B48" stroke-width="0.75" stroke-miterlimit="10" x1="2072.15" y1="637.77" x2="2097.59" y2="609.73"/>
					<polyline fill="none" stroke="#012B48" stroke-width="0.75" stroke-miterlimit="10" points="2072.15,637.77 2117.84,641.01 
						2052.82,781.98 2081,957.96 2008.69,1111.2 2034.54,1328.74 1949.05,1556.09 1987.19,1629.48 					"/>
					
						<line fill="none" stroke="#012B48" stroke-width="0.75" stroke-miterlimit="10" x1="1153.76" y1="904.95" x2="1179.11" y2="916.84"/>
					<polyline fill="none" stroke="#012B48" stroke-width="0.75" stroke-miterlimit="10" points="1179.11,916.84 1145.41,928.98 
						1158.04,1035.54 1108.43,1138.03 1114.57,1280.97 1059.13,1416.83 1060.61,1584.64 1020.64,1634.46 					"/>
					
						<line fill="none" stroke="#08274B" stroke-width="0.75" stroke-miterlimit="10" x1="1895.41" y1="1557.95" x2="1884.52" y2="1633.14"/>
					
						<line fill="none" stroke="#08274B" stroke-width="0.75" stroke-miterlimit="10" x1="1726.75" y1="1562.9" x2="1717.83" y2="1634.13"/>
					
						<line fill="none" stroke="#08274B" stroke-width="0.75" stroke-miterlimit="10" x1="1557.67" y1="1568.84" x2="1549.75" y2="1634.13"/>
					
						<line fill="none" stroke="#08274B" stroke-width="0.75" stroke-miterlimit="10" x1="1413.31" y1="1572.94" x2="1405.39" y2="1635.25"/>
					
						<line fill="none" stroke="#08274B" stroke-width="0.75" stroke-miterlimit="10" x1="1296.64" y1="1577.14" x2="1287.73" y2="1634.49"/>
					
						<line fill="none" stroke="#08274B" stroke-width="0.75" stroke-miterlimit="10" x1="1193.1" y1="1580.46" x2="1184.18" y2="1635.84"/>
					
						<line fill="none" stroke="#08274B" stroke-width="0.75" stroke-miterlimit="10" x1="1105.52" y1="1582.44" x2="1095.61" y2="1633.86"/>
					<polyline fill="none" stroke="#08274B" stroke-width="0.75" stroke-miterlimit="10" points="1021.99,1632.42 1105.82,1583.65 
						1184.06,1635.23 1296.64,1578.69 1405.65,1633.25 1558.66,1569.78 1717.34,1634.43 1896.77,1558.94 1985.79,1630.47 					"/>
					<polygon fill="none" stroke="#012B48" stroke-miterlimit="10" points="1949.05,1556.09 1060.61,1584.64 1179.11,916.84 
						2072.15,637.77 					"/>
					<linearGradient id="SVGID_1_" gradientUnits="userSpaceOnUse" x1="1102.4854" y1="1635.5172" x2="1102.4854" y2="1707.1296">
						<stop  offset="0.3533" style="stop-color:#0099C6"/>
						<stop  offset="1" style="stop-color:#012B48"/>
					</linearGradient>
					<path fill="url(#SVGID_1_)" stroke="#012B48" stroke-miterlimit="10" d="M1803.39,1707.13H394.33
						c-13.21,0-26.32-2.3-38.75-6.79l-120.32-44.14l5.48-20.69h1721.69l7.27,20.75l-129.21,44.65
						C1828.56,1705.03,1816.02,1707.13,1803.39,1707.13z"/>
					<polygon fill="#08274B" points="1968.99,1654.78 1743.18,1654.78 1733.47,1658.74 1529.46,1656.76 1506.13,1652.8 
						1054.09,1655.48 1054.57,1667.39 864.18,1668.17 863.7,1656.31 234.93,1654.78 240.88,1634.4 1962.06,1634.4 					"/>
					<circle fill="#08274B" cx="917.3" cy="1488.18" r="4.95"/>
					<circle fill="#08274B" cx="848.84" cy="1461.61" r="4.95"/>
					<circle fill="#08274B" cx="628.24" cy="1514.1" r="4.95"/>
					<circle fill="#08274B" cx="421.87" cy="1540.81" r="4.95"/>
					<circle fill="#08274B" cx="276.46" cy="1504.2" r="4.95"/>
					<circle fill="#08274B" cx="153.84" cy="1650.85" r="4.95"/>
					<line fill="none" stroke="#012B48" stroke-miterlimit="10" x1="236.26" y1="1655.21" x2="863.7" y2="1656.24"/>
					<polyline fill="none" stroke="#012B48" stroke-miterlimit="10" points="256.69,1663.76 878.19,1668.76 1056.07,1667.15 
						1930.31,1669.46 					"/>
					<polyline fill="none" stroke="#012B48" stroke-miterlimit="10" points="1055.08,1655.26 1505.84,1653.46 1529.7,1657.46 
						1734.34,1659.06 1744.33,1655.13 1968.95,1655.59 					"/>
					<polyline fill="none" stroke="#012B48" stroke-miterlimit="10" points="283.82,1674.43 922.47,1684 1056.07,1684 
						1903.56,1679.37 					"/>
					<line fill="none" stroke="#012B48" stroke-miterlimit="10" x1="1854.43" y1="1696.07" x2="1044.58" y2="1700.7"/>
					<line fill="none" stroke="#012B48" stroke-miterlimit="10" x1="1522.18" y1="1668.15" x2="1531.12" y2="1657.21"/>
					<line fill="none" stroke="#012B48" stroke-miterlimit="10" x1="1733.47" y1="1658.97" x2="1716.35" y2="1668.9"/>
					<line fill="none" stroke="#012B48" stroke-miterlimit="10" x1="1700.83" y1="1669.11" x2="1633.22" y2="1697.37"/>
					<line fill="none" stroke="#012B48" stroke-miterlimit="10" x1="1507.29" y1="1668.54" x2="1452.13" y2="1698.6"/>
					<line fill="none" stroke="#012B48" stroke-miterlimit="10" x1="1570.58" y1="1635.34" x2="1570.13" y2="1657.15"/>
					<line fill="none" stroke="#012B48" stroke-miterlimit="10" x1="1615.64" y1="1635.98" x2="1615.64" y2="1658"/>
					<line fill="none" stroke="#012B48" stroke-miterlimit="10" x1="1659.68" y1="1635.74" x2="1659.67" y2="1658.23"/>
					<line fill="none" stroke="#012B48" stroke-miterlimit="10" x1="1054.44" y1="1635.34" x2="1054.44" y2="1667.48"/>
					<line fill="none" stroke="#012B48" stroke-miterlimit="10" x1="1001.42" y1="1635.82" x2="1001.42" y2="1667.96"/>
					<line fill="none" stroke="#012B48" stroke-miterlimit="10" x1="947.27" y1="1635.7" x2="947.27" y2="1667.83"/>
					<line fill="none" stroke="#012B48" stroke-miterlimit="10" x1="907.82" y1="1634.71" x2="907.82" y2="1667.83"/>
					<line fill="none" stroke="#012B48" stroke-miterlimit="10" x1="863.7" y1="1635.41" x2="863.7" y2="1668.54"/>
					<line fill="none" stroke="#012B48" stroke-miterlimit="10" x1="869.13" y1="1668.82" x2="971.18" y2="1706.9"/>
					<line fill="none" stroke="#012B48" stroke-miterlimit="10" x1="914.89" y1="1668.34" x2="979.29" y2="1707.41"/>
					<line fill="none" stroke="#012B48" stroke-miterlimit="10" x1="955.27" y1="1667.83" x2="1000.73" y2="1707.65"/>
					<polyline fill="none" stroke="#012B48" stroke-miterlimit="10" points="1007.92,1668.61 1017.47,1684.93 1018.63,1707.55 					
						"/>
					<polyline fill="none" stroke="#012B48" stroke-miterlimit="10" points="1054.8,1667.96 1055.16,1683.83 1037.32,1707.76 					
						"/>
					<line fill="none" stroke="#012B48" stroke-miterlimit="10" x1="398.05" y1="1636.5" x2="398.05" y2="1656.07"/>
					<line fill="none" stroke="#012B48" stroke-miterlimit="10" x1="255.67" y1="1635.3" x2="255.67" y2="1654.87"/>
					<line fill="none" stroke="#012B48" stroke-miterlimit="10" x1="505.46" y1="1635.72" x2="505.46" y2="1655.29"/>
					<line fill="none" stroke="#012B48" stroke-miterlimit="10" x1="628.04" y1="1636.71" x2="628.04" y2="1656.28"/>
					<line fill="none" stroke="#012B48" stroke-miterlimit="10" x1="398.07" y1="1655.19" x2="513.53" y2="1706.4"/>
					<line fill="none" stroke="#012B48" stroke-miterlimit="10" x1="505.98" y1="1655.8" x2="619.45" y2="1707.02"/>
					<line fill="none" stroke="#012B48" stroke-miterlimit="10" x1="628.41" y1="1656" x2="741.89" y2="1707.22"/>
					<circle fill="#08274B" cx="863.7" cy="1668.54" r="4.95"/>
					<circle fill="#08274B" cx="863.7" cy="1635.41" r="4.95"/>
					<circle fill="#08274B" cx="907.82" cy="1667.83" r="4.95"/>
					<circle fill="#08274B" cx="947.09" cy="1634.4" r="4.95"/>
					<circle fill="#08274B" cx="1001.42" cy="1634.83" r="4.95"/>
					<circle fill="#08274B" cx="907.82" cy="1634.71" r="4.95"/>
					<circle fill="#08274B" cx="947.27" cy="1667.83" r="4.95"/>
					<circle fill="#08274B" cx="863.7" cy="1656.24" r="4.95"/>
					<circle fill="#08274B" cx="628.04" cy="1636.71" r="4.95"/>
					<circle fill="#08274B" cx="628.04" cy="1656.28" r="4.95"/>
					<circle fill="#08274B" cx="505.98" cy="1634.4" r="4.95"/>
					<circle fill="#08274B" cx="505.98" cy="1655.8" r="4.95"/>
					<circle fill="#08274B" cx="398.05" cy="1634.52" r="4.95"/>
					<circle fill="#08274B" cx="419.39" cy="1664.76" r="4.95"/>
					<circle fill="#08274B" cx="446.55" cy="1676.26" r="4.95"/>
					<circle fill="#08274B" cx="555.87" cy="1678.24" r="4.95"/>
					<circle fill="#08274B" cx="652.9" cy="1666.74" r="4.95"/>
					<circle fill="#08274B" cx="682.45" cy="1680.22" r="4.95"/>
					<circle fill="#08274B" cx="913.4" cy="1683.59" r="4.95"/>
					<circle fill="#08274B" cx="942.13" cy="1685.18" r="4.95"/>
					<circle fill="#08274B" cx="971.96" cy="1683.18" r="4.95"/>
					<circle fill="#08274B" cx="1017.47" cy="1684.93" r="4.95"/>
					<circle fill="#08274B" cx="1054.55" cy="1683.59" r="4.95"/>
					<circle fill="#08274B" cx="1454.46" cy="1698.54" r="4.95"/>
					<circle fill="#08274B" cx="1484.66" cy="1681.02" r="4.95"/>
					<circle fill="#08274B" cx="1507.29" cy="1668.54" r="4.95"/>
					<circle fill="#08274B" cx="1673.96" cy="1680.2" r="4.95"/>
					<circle fill="#08274B" cx="1633.22" cy="1697.37" r="4.95"/>
					<circle fill="#08274B" cx="1716.35" cy="1668.9" r="4.95"/>
					<circle fill="#08274B" cx="1742.25" cy="1656.26" r="4.95"/>
					<circle fill="#08274B" cx="1928.49" cy="1670.47" r="4.95"/>
					<circle fill="#08274B" cx="1854.43" cy="1697.37" r="4.95"/>
					<circle fill="#08274B" cx="1616.14" cy="1657.25" r="4.95"/>
					<circle fill="#08274B" cx="1659.56" cy="1636.22" r="4.95"/>
					<circle fill="#08274B" cx="1570.58" cy="1635.34" r="4.95"/>
					<circle fill="#08274B" cx="1615.07" cy="1634.4" r="4.95"/>
					<circle fill="#08274B" cx="1570.13" cy="1657.15" r="4.95"/>
					<circle fill="#08274B" cx="1659.67" cy="1658.23" r="4.95"/>
					<circle fill="#08274B" cx="1018.63" cy="1707.55" r="4.95"/>
					<circle fill="#08274B" cx="978" cy="1707.76" r="4.95"/>
					<circle fill="#08274B" cx="741.89" cy="1707.22" r="4.95"/>
					<circle fill="#08274B" cx="614.5" cy="1706.4" r="4.95"/>
					<circle fill="#08274B" cx="513.53" cy="1706.4" r="4.95"/>
					<circle fill="#08274B" cx="529.01" cy="1666.97" r="4.95"/>
					<circle fill="#08274B" cx="255.67" cy="1654.87" r="4.95"/>
					<circle fill="#08274B" cx="286.37" cy="1674.43" r="4.95"/>
					<circle fill="#08274B" cx="1001.98" cy="1667.73" r="4.95"/>
					<circle fill="#08274B" cx="1054.44" cy="1635.34" r="4.95"/>
					<circle fill="#08274B" cx="1054.44" cy="1667.48" r="4.95"/>
					
						<line fill="none" stroke="#012B48" stroke-width="0.75" stroke-miterlimit="10" x1="255.67" y1="1654.87" x2="398.05" y2="1636.5"/>
					<polyline fill="none" stroke="#012B48" stroke-width="0.75" stroke-miterlimit="10" points="241.42,1635.72 255.67,1654.87 
						418.4,1664.76 					"/>
					
						<line fill="none" stroke="#012B48" stroke-width="0.75" stroke-miterlimit="10" x1="398.07" y1="1636.71" x2="504.94" y2="1654.87"/>
					
						<line fill="none" stroke="#012B48" stroke-width="0.75" stroke-miterlimit="10" x1="505.46" y1="1655.29" x2="628.04" y2="1636.71"/>
					
						<line fill="none" stroke="#012B48" stroke-width="0.75" stroke-miterlimit="10" x1="628.24" y1="1636.45" x2="863.59" y2="1655.44"/>
					
						<line fill="none" stroke="#012B48" stroke-width="0.75" stroke-miterlimit="10" x1="864.48" y1="1636.37" x2="907.82" y2="1667.83"/>
					
						<line fill="none" stroke="#012B48" stroke-width="0.75" stroke-miterlimit="10" x1="907.82" y1="1667.83" x2="947.09" y2="1636.37"/>
					
						<line fill="none" stroke="#012B48" stroke-width="0.75" stroke-miterlimit="10" x1="947.09" y1="1636.37" x2="1001.18" y2="1666.97"/>
					
						<line fill="none" stroke="#012B48" stroke-width="0.75" stroke-miterlimit="10" x1="1001.98" y1="1666.74" x2="1054.21" y2="1636.45"/>
					
						<line fill="none" stroke="#012B48" stroke-width="0.75" stroke-miterlimit="10" x1="505.46" y1="1655.29" x2="418.4" y2="1664.76"/>
					
						<line fill="none" stroke="#012B48" stroke-width="0.75" stroke-miterlimit="10" x1="505.98" y1="1655.8" x2="650.12" y2="1666.61"/>
					
						<line fill="none" stroke="#012B48" stroke-width="0.75" stroke-miterlimit="10" x1="652.9" y1="1666.74" x2="862.98" y2="1656.06"/>
					
						<line fill="none" stroke="#012B48" stroke-width="0.75" stroke-miterlimit="10" x1="1571.16" y1="1636.29" x2="1615.8" y2="1657.42"/>
					
						<line fill="none" stroke="#012B48" stroke-width="0.75" stroke-miterlimit="10" x1="1616.14" y1="1657.25" x2="1659.56" y2="1636.22"/>
					
						<line fill="none" stroke="#012B48" stroke-width="0.75" stroke-miterlimit="10" x1="1054.09" y1="1655.48" x2="1523.14" y2="1667.6"/>
					
						<line fill="none" stroke="#012B48" stroke-width="0.75" stroke-miterlimit="10" x1="1524.19" y1="1667.6" x2="1730.85" y2="1659.8"/>
					
						<line fill="none" stroke="#012B48" stroke-width="0.75" stroke-miterlimit="10" x1="1742.25" y1="1656.26" x2="1930.31" y2="1669.59"/>
					
						<line fill="none" stroke="#012B48" stroke-width="0.75" stroke-miterlimit="10" x1="1676.78" y1="1679.47" x2="1928.49" y2="1670.47"/>
					
						<line fill="none" stroke="#012B48" stroke-width="0.75" stroke-miterlimit="10" x1="1507.29" y1="1668.54" x2="1673.96" y2="1680.2"/>
					
						<line fill="none" stroke="#012B48" stroke-width="0.75" stroke-miterlimit="10" x1="1055.66" y1="1683.18" x2="1504.69" y2="1669.34"/>
					
						<line fill="none" stroke="#012B48" stroke-width="0.75" stroke-miterlimit="10" x1="1007.76" y1="1668.35" x2="1054.55" y2="1683.59"/>
					
						<line fill="none" stroke="#012B48" stroke-width="0.75" stroke-miterlimit="10" x1="974.04" y1="1683.59" x2="1008.91" y2="1668.35"/>
					
						<line fill="none" stroke="#012B48" stroke-width="0.75" stroke-miterlimit="10" x1="917.36" y1="1669.34" x2="971.96" y2="1683.18"/>
					
						<line fill="none" stroke="#012B48" stroke-width="0.75" stroke-miterlimit="10" x1="915.88" y1="1668.35" x2="913.4" y2="1683.59"/>
					<polyline fill="none" stroke="#012B48" stroke-width="0.75" stroke-miterlimit="10" points="909.61,1683.77 653.74,1667.36 
						555.87,1678.24 421.04,1665.38 286.37,1674.43 					"/>
					<polyline fill="none" stroke="#012B48" stroke-width="0.75" stroke-miterlimit="10" points="286.37,1674.43 513.53,1706.4 
						558.53,1679.21 739.34,1706.07 913.57,1684.77 					"/>
					<polyline fill="none" stroke="#012B48" stroke-width="0.75" stroke-miterlimit="10" points="913.57,1684.77 979.29,1707.41 
						974.04,1683.59 1018.63,1707.55 1054.55,1683.59 					"/>
					<polyline fill="none" stroke="#012B48" stroke-width="0.75" stroke-miterlimit="10" points="1055.71,1684.77 1454.46,1698.54 
						1674.54,1681.02 1854.43,1696.07 					"/>
				</g>
				<g id="laptopImage">
					
						<image overflow="visible" width="1320" height="1080" xlink:href="../../img/TestProducts/6_logos.png"  transform="matrix(0.7327 -0.0987 -0.0889 0.6886 1157.943 879.6055)">
					</image>
				</g>
				<rect fill="none" width="3840" height="2160"/>
			</g>
		</g>
		<g>
			<g>
				
					<text transform="matrix(1 0 0 1 2140.7881 293.1016)" fill="#FFFFFF" font-family="'HelveticaNeueLTStd-Bd'" font-size="101.58px">Our portfolio of corn herbicides</text>
				<rect fill="none" width="3840" height="2160"/>
			</g>
		</g>
	</g>
</g>
<rect fill="none" width="3840" height="2160"/>
</svg>
