<?xml version="1.0" encoding="utf-8"?>
<!-- Generator: Adobe Illustrator 24.2.1, SVG Export Plug-In . SVG Version: 6.00 Build 0)  -->
<svg version="1.1" id="asYouPlanSvg" xmlns="http://www.w3.org/2000/svg" xmlns:xlink="http://www.w3.org/1999/xlink" x="0px"
	 y="0px" width="3840px" height="2160px" viewBox="0 0 3840 2160" enable-background="new 0 0 3840 2160" xml:space="preserve">
<g id="_x2D_.contentScene-">
	<g id="_x2D_.moveElements-">
		<g>
			<g>
				
					<text transform="matrix(1 0 0 1 533.0665 790.8801)" fill="#012B48" font-family="'HelveticaNeueLTStd-ThIt'" font-size="310px" letter-spacing="7">Recommendations</text>
				<rect fill="none" width="3840" height="2160"/>
			</g>
		</g>
		<g>
			<g>
				<text transform="matrix(1 0 0 1 2045.7324 358.2896)"><tspan x="0" y="0" fill="#012B48" font-family="'HelveticaNeueLTStd-Bd'" font-size="140px" letter-spacing="1"> As you plan for it,</tspan><tspan x="184.65" y="155" fill="#012B48" font-family="'HelveticaNeueLTStd-Bd'" font-size="140px" letter-spacing="1">we have some </tspan></text>
				<rect fill="none" width="3840" height="2160"/>
			</g>
		</g>
		<g>
			<g>
				<path fill="none" stroke="#012B48" stroke-width="3" stroke-miterlimit="10" d="M2449.2,1673.99h-1299
					c-25.73,0-46.59-20.86-46.59-46.59V986.57c0-25.73,20.86-46.59,46.59-46.59h1299c25.73,0,46.59,20.86,46.59,46.59v640.83
					C2495.79,1653.13,2474.93,1673.99,2449.2,1673.99z"/>
				<path fill="none" stroke="#012B48" stroke-width="2" stroke-miterlimit="10" d="M1106.39,1264.81h34.21
					c21.18,0,38.35,17.17,38.35,38.35l0,0c0,21.18-17.17,38.35-38.35,38.35h-34.21"/>
				<circle fill="#012B48" cx="1159.4" cy="938.61" r="15.5"/>
				<circle fill="#012B48" cx="2059.58" cy="938.31" r="15.21"/>
				<circle fill="#012B48" cx="2161.25" cy="937.37" r="15.21"/>
				<circle fill="#012B48" cx="2437.61" cy="938.38" r="15.21"/>
				<circle fill="#012B48" cx="2495.1" cy="1289.22" r="14.79"/>
				<circle fill="#012B48" cx="2053.83" cy="1673.47" r="14.96"/>
				<circle fill="#012B48" cx="1554.79" cy="1671.59" r="15.21"/>
				<circle fill="#012B48" cx="1486.76" cy="1670.66" r="15.44"/>
				<circle fill="#012B48" cx="1101.11" cy="990.14" r="15.31"/>
				<circle fill="#012B48" cx="1103.78" cy="1182.15" r="15.21"/>
				<linearGradient id="SVGID_1_" gradientUnits="userSpaceOnUse" x1="2119.7124" y1="830.7081" x2="1779.4298" y2="1289.1943">
					<stop  offset="0.0803" style="stop-color:#A4CD38;stop-opacity:0.6"/>
					<stop  offset="1" style="stop-color:#9BC236;stop-opacity:0"/>
				</linearGradient>
				<path fill="url(#SVGID_1_)" d="M1145.56,939.98h1306.72c21.95-0.03,39.88,17.52,40.33,39.46l1.51,577.62l-1364.69-539.92
					C1089.53,999.62,1101.99,940.04,1145.56,939.98z"/>
				<rect fill="none" width="3840" height="2160"/>
			</g>
		</g>
		<g>
			<g>
				
					<line fill="none" stroke="#012B48" stroke-width="3" stroke-miterlimit="10" x1="2941.44" y1="1664.47" x2="2909.63" y2="1655.08"/>
				<circle fill="#012B48" cx="2274.89" cy="1894.76" r="10.03"/>
				<circle fill="#012B48" cx="2308.41" cy="1931.03" r="10.03"/>
				<circle fill="#012B48" cx="2365.42" cy="1860.57" r="10.03"/>
				<circle fill="#012B48" cx="2278.85" cy="1771.39" r="10.03"/>
				<circle fill="#012B48" cx="2274.89" cy="1726.9" r="10.03"/>
				<circle fill="#012B48" cx="2363.05" cy="1726.96" r="10.03"/>
				<circle fill="#012B48" cx="2318.43" cy="1679.57" r="10.03"/>
				<circle fill="#012B48" cx="2345.37" cy="1779.94" r="10.03"/>
				<circle fill="#012B48" cx="2422.07" cy="1891.96" r="10.03"/>
				<circle fill="#012B48" cx="2408.98" cy="1917.52" r="10.03"/>
				<circle fill="#012B48" cx="2452.71" cy="1962.07" r="10.03"/>
				<circle fill="#012B48" cx="2379.62" cy="1917.52" r="10.03"/>
				<circle fill="#012B48" cx="2383.1" cy="1982.12" r="10.03"/>
				<circle fill="#012B48" cx="2355.4" cy="1956.19" r="10.03"/>
				<circle fill="#012B48" cx="2527.52" cy="1923.15" r="10.03"/>
				<circle fill="#012B48" cx="2462.73" cy="1941.05" r="10.03"/>
				<circle fill="#012B48" cx="2550.81" cy="2024.38" r="10.03"/>
				<circle fill="#012B48" cx="2559.07" cy="1972.1" r="10.03"/>
				<circle fill="#012B48" cx="2635.88" cy="1962.07" r="10.03"/>
				<circle fill="#012B48" cx="2671.55" cy="2038.77" r="10.03"/>
				<circle fill="#012B48" cx="2734.14" cy="1976.66" r="10.03"/>
				<circle fill="#012B48" cx="2731.19" cy="2140.76" r="10.03"/>
				<circle fill="#012B48" cx="2752.6" cy="2258.76" r="10.03"/>
				<circle fill="#012B48" cx="2920.9" cy="2243.68" r="10.03"/>
				<circle fill="#012B48" cx="2856.84" cy="1999.32" r="10.03"/>
				<circle fill="#012B48" cx="2892.46" cy="1977.96" r="10.03"/>
				<circle fill="#012B48" cx="2928.6" cy="1840.52" r="10.03"/>
				<circle fill="#012B48" cx="2823.92" cy="1830.49" r="10.03"/>
				<circle fill="#012B48" cx="2708" cy="1904.78" r="10.03"/>
				<circle fill="#012B48" cx="2718.74" cy="1833.92" r="10.03"/>
				<circle fill="#012B48" cx="2654.5" cy="1771.39" r="10.03"/>
				<circle fill="#012B48" cx="2540.79" cy="1746.87" r="10.03"/>
				<circle fill="#012B48" cx="2491.91" cy="1799.99" r="10.03"/>
				<circle fill="#012B48" cx="2477.48" cy="1716.87" r="10.03"/>
				<circle fill="#012B48" cx="2492.23" cy="1644.31" r="10.03"/>
				<circle fill="#012B48" cx="2621.72" cy="1666.95" r="10.03"/>
				<circle fill="#012B48" cx="2708.72" cy="1721.61" r="10.03"/>
				<circle fill="#012B48" cx="2773.82" cy="1775.4" r="10.03"/>
				<circle fill="#012B48" cx="2892.46" cy="1730.62" r="10.03"/>
				<circle fill="#012B48" cx="2941.44" cy="1664.47" r="10.03"/>
				<circle fill="#012B48" cx="2909.63" cy="1656.93" r="10.03"/>
				<circle fill="#012B48" cx="2811.45" cy="1603.27" r="10.03"/>
				<circle fill="#012B48" cx="2702.65" cy="1619.34" r="10.03"/>
				<circle fill="#012B48" cx="2769.54" cy="1582.77" r="10.03"/>
				<circle fill="#012B48" cx="2769.54" cy="1582.77" r="10.03"/>
				<circle fill="#012B48" cx="2708" cy="1550.67" r="10.03"/>
				<circle fill="#012B48" cx="2773.31" cy="1485.02" r="10.03"/>
				<circle fill="#012B48" cx="2674.55" cy="1495.05" r="10.03"/>
				<circle fill="#012B48" cx="2664.52" cy="1420.06" r="10.03"/>
				<circle fill="#012B48" cx="2611.7" cy="1471.22" r="10.03"/>
				<circle fill="#012B48" cx="2617.93" cy="1410.04" r="10.03"/>
				<circle fill="#012B48" cx="2497.53" cy="1413.77" r="10.03"/>
				<circle fill="#012B48" cx="2571.86" cy="1548.69" r="10.03"/>
				<circle fill="#012B48" cx="2536.84" cy="1582.77" r="10.03"/>
				<circle fill="#012B48" cx="2422.07" cy="1582.77" r="10.03"/>
				<circle fill="#012B48" cx="2494.9" cy="1496.27" r="10.03"/>
				<circle fill="#012B48" cx="2393.12" cy="1514.82" r="10.03"/>
				<circle fill="#012B48" cx="2335.98" cy="1572.75" r="10.03"/>
				<circle fill="#012B48" cx="2325.96" cy="1456.14" r="10.03"/>
				<circle fill="#012B48" cx="2408.98" cy="1413.77" r="10.03"/>
				<circle fill="#012B48" cx="2373.07" cy="1314.3" r="10.03"/>
				<circle fill="#012B48" cx="2303.35" cy="1314.3" r="10.03"/>
				<circle fill="#012B48" cx="2258.8" cy="1377.86" r="10.03"/>
				<circle fill="#012B48" cx="2445.8" cy="1377.86" r="10.03"/>
				<circle fill="#012B48" cx="2350.81" cy="1603.27" r="10.03"/>
				<circle fill="#012B48" cx="2635.46" cy="1602.87" r="10.03"/>
				<circle fill="#012B48" cx="2393.12" cy="1696.82" r="10.03"/>
				<circle fill="#012B48" cx="2681.57" cy="2231.79" r="10.03"/>
				<circle fill="#012B48" cx="2679" cy="2300.42" r="10.03"/>
				<circle fill="#012B48" cx="2753.13" cy="2379.19" r="10.03"/>
				<circle fill="#012B48" cx="2967.72" cy="2459.06" r="10.03"/>
				<circle fill="#012B48" cx="2918.57" cy="2560.11" r="10.03"/>
				<circle fill="#012B48" cx="2578.07" cy="2194.27" r="10.03"/>
				<circle fill="#012B48" cx="2520.17" cy="2116.91" r="10.03"/>
				<circle fill="#012B48" cx="2595.39" cy="2290.4" r="10.03"/>
				<circle fill="#012B48" cx="2598.13" cy="2067.87" r="10.03"/>
				<polyline fill="none" stroke="#012B48" stroke-width="3" stroke-miterlimit="10" points="2920.11,2241.82 2731.19,2143.72 
					2596.53,2067.92 2462.73,1935.04 				"/>
				<polyline fill="none" stroke="#012B48" stroke-width="3" stroke-miterlimit="10" points="2594.75,2288.94 2578.69,2194.55 
					2596.53,2067.92 2671.44,2041.16 2634.88,1963.58 2708,1905.61 2825.72,1831.59 2890.83,1732.6 2911.34,1654.96 
					2766.86,1579.21 2708,1550.67 2672.33,1494.48 2666.98,1423.79 2610.8,1470.41 2571.01,1546.75 				"/>
				<polyline fill="none" stroke="#012B48" stroke-width="3" stroke-miterlimit="10" points="2938.64,1666.95 2893.38,1729.23 
					2774.89,1775.4 2717.81,1834.26 2702.65,1901.15 2856.05,1997.46 2903.24,2144.61 				"/>
				<polyline fill="none" stroke="#012B48" stroke-width="3" stroke-miterlimit="10" points="3234.13,2702.16 2752.6,2258.76 
					2687.49,2234.69 2578.69,2194.55 2522.98,2124.72 2483.56,2021.54 				"/>
				<polyline fill="none" stroke="#012B48" stroke-width="3" stroke-miterlimit="10" points="2666.93,2446.36 2683.24,2233.12 
					2731.19,2143.72 2669.96,2036.15 2705.87,1904.49 2654.15,1850.24 2542.13,1746.87 2487.05,1802.16 2424.96,1761.91 				"/>
				
					<line fill="none" stroke="#012B48" stroke-width="3" stroke-miterlimit="10" x1="3093.22" y1="2746.4" x2="2580.7" y2="2198.27"/>
				<polyline fill="none" stroke="#012B48" stroke-width="3" stroke-miterlimit="10" points="2520.17,2116.91 2551.24,2022.1 
					2559.07,1972.1 				"/>
				<polyline fill="none" stroke="#012B48" stroke-width="3" stroke-miterlimit="10" points="2462.98,1935.04 2528.4,1923.52 
					2540.79,1747.02 2473.46,1717.44 2394.98,1696.79 2419.95,1582.77 2350.81,1601.5 				"/>
				<polyline fill="none" stroke="#012B48" stroke-width="3" stroke-miterlimit="10" points="2621.15,1663.46 2492.23,1644.31 
					2474.35,1725.46 2485.89,1804.91 2446.51,1852.87 2527.86,1918.99 2559.96,1970.71 2634.88,1963.58 2654.5,1857.17 
					2654.5,1771.84 2774.96,1777.88 2823.74,1834.96 2856.05,1997.46 2734.76,1980.52 2734.76,2152.64 2752.6,2258.76 
					2754.38,2670.53 				"/>
				<polyline fill="none" stroke="#012B48" stroke-width="3" stroke-miterlimit="10" points="2715.65,1833.92 2655.81,1775.75 
					2542.55,1746.87 2492.23,1643.84 2420.3,1582.77 2339.4,1571.42 				"/>
				<polyline fill="none" stroke="#012B48" stroke-width="3" stroke-miterlimit="10" points="2826.22,1833.3 2920.11,1833.92 
					2892.41,1730.62 				"/>
				
					<line fill="none" stroke="#012B48" stroke-width="3" stroke-miterlimit="10" x1="2892.46" y1="1979.98" x2="2857.36" y2="1997.46"/>
				<polyline fill="none" stroke="#012B48" stroke-width="3" stroke-miterlimit="10" points="2811.45,1603.78 2774.89,1775.4 
					2708,1720.11 2654.5,1771.84 				"/>
				<polyline fill="none" stroke="#012B48" stroke-width="3" stroke-miterlimit="10" points="2921.27,1619.34 2812.62,1603.48 
					2773.31,1485.02 2708,1550.67 				"/>
				
					<line fill="none" stroke="#012B48" stroke-width="3" stroke-miterlimit="10" x1="2766.25" y1="1579.28" x2="2703.35" y2="1617.48"/>
				
					<line fill="none" stroke="#012B48" stroke-width="3" stroke-miterlimit="10" x1="2706.15" y1="1552.33" x2="2701.76" y2="1619.34"/>
				
					<line fill="none" stroke="#012B48" stroke-width="3" stroke-miterlimit="10" x1="2708" y1="1906.65" x2="2734.14" y2="1979.08"/>
				<polyline fill="none" stroke="#012B48" stroke-width="3" stroke-miterlimit="10" points="2752.6,2258.76 2920.9,2243.68 
					2967.98,2459.06 3059.73,2415.08 				"/>
				<polyline fill="none" stroke="#012B48" stroke-width="3" stroke-miterlimit="10" points="2753.13,2382.94 2967.72,2459.06 
					2830.68,2734.76 				"/>
				<polyline fill="none" stroke="#012B48" stroke-width="3" stroke-miterlimit="10" points="2571.86,1547.99 2708,1550.67 
					2636.66,1605.07 2701.76,1619.34 2707.58,1719.54 				"/>
				<polyline fill="none" stroke="#012B48" stroke-width="3" stroke-miterlimit="10" points="2497.07,1412.53 2612.43,1471.22 
					2617.93,1410.26 				"/>
				<polyline fill="none" stroke="#012B48" stroke-width="3" stroke-miterlimit="10" points="2511.61,1522.68 2610.8,1470.41 
					2672.33,1494.48 2769.54,1485.02 				"/>
				<polyline fill="none" stroke="#012B48" stroke-width="3" stroke-miterlimit="10" points="2573.42,1548.69 2632.75,1604.1 
					2590.91,1638.43 				"/>
				<polyline fill="none" stroke="#012B48" stroke-width="3" stroke-miterlimit="10" points="2522.86,1547.99 2569.16,1547.52 
					2549.34,1602.87 				"/>
				<polyline fill="none" stroke="#012B48" stroke-width="3" stroke-miterlimit="10" points="2379.62,1912.74 2406.57,1917.2 
					2448.71,1955.07 2423.79,1891.96 2449.87,1893.12 				"/>
				<polyline fill="none" stroke="#012B48" stroke-width="3" stroke-miterlimit="10" points="2428.32,1850.54 2422.63,1890.1 
					2389.63,1893.27 				"/>
				<polyline fill="none" stroke="#012B48" stroke-width="3" stroke-miterlimit="10" points="2283.5,1893.12 2368.81,1861.02 
					2427.29,1779.94 				"/>
				<polyline fill="none" stroke="#012B48" stroke-width="3" stroke-miterlimit="10" points="2438.8,1831.87 2368.81,1865.48 
					2384.28,1894.76 				"/>
				<polyline fill="none" stroke="#012B48" stroke-width="3" stroke-miterlimit="10" points="2318.43,1682.61 2363.77,1725.46 
					2350.39,1777.86 				"/>
				<polyline fill="none" stroke="#012B48" stroke-width="3" stroke-miterlimit="10" points="2393.12,1699.18 2364.16,1724.57 
					2278.85,1726.9 				"/>
				<polyline fill="none" stroke="#012B48" stroke-width="3" stroke-miterlimit="10" points="2341,1569.59 2390.52,1514.82 
					2446.51,1503.4 2491.71,1496.27 2420.3,1581.9 2536.84,1580.37 2493,1644.31 				"/>
				<polyline fill="none" stroke="#012B48" stroke-width="3" stroke-miterlimit="10" points="2494.9,1493.12 2408.98,1410.26 
					2390.52,1514.82 2321.81,1456.14 2318.43,1507.86 				"/>
				<polyline fill="none" stroke="#012B48" stroke-width="3" stroke-miterlimit="10" points="3327.94,2758.39 2921.73,2243.16 
					2893.27,2085.33 2893.27,1979.25 2924.32,1842.12 2942.43,1668.77 2924.32,1622.2 2877.74,1565.28 2774.25,1482.48 
					2675.93,1423.79 2619.01,1410.04 2492.23,1410.04 				"/>
				<polyline fill="none" stroke="#012B48" stroke-width="3" stroke-miterlimit="10" points="2800.12,2792.97 2616.2,2309.6 
					2587.96,2281.97 2538.8,2201.76 2507.75,2118.97 2466.36,1955.97 2440.48,1836.95 2424.96,1761.91 2349.92,1598.91 
					2303.35,1477.31 2303.35,1435.91 2261.95,1371.23 2300.77,1314.3 2370.62,1314.3 2437.89,1371.23 2492.23,1487.66 
					2549.15,1604.09 2624.18,1666.18 2707.5,1717.93 				"/>
				<polyline fill="none" stroke="#012B48" stroke-width="3" stroke-miterlimit="10" points="2375.72,1654.96 2318.88,1681.71 
					2274.89,1728.28 2274.89,1777.44 2358.72,1777.44 2411.51,1732.7 2333.89,1800.72 2308.53,1831.77 2274.89,1893.87 
					2311.38,1930.35 2386.15,1896.46 2440.48,1836.95 2386.15,1896.46 2357.69,1958.55 2380.97,1976.66 2453.42,1958.55 
					2462.73,1948.72 				"/>
				<polyline fill="none" stroke="#012B48" stroke-width="3" stroke-miterlimit="10" points="2303.35,1440.74 2321.81,1456.14 
					2408.98,1410.26 2408.98,1370.52 2376.92,1319.63 				"/>
				
					<line fill="none" stroke="#012B48" stroke-width="3" stroke-miterlimit="10" x1="2734.76" y1="1980.52" x2="2921.73" y2="2243.16"/>
				
					<line fill="none" stroke="#012B48" stroke-width="3" stroke-miterlimit="10" x1="2669.96" y1="2036.15" x2="2734.14" y2="1979.08"/>
				
					<line fill="none" stroke="#012B48" stroke-width="3" stroke-miterlimit="10" x1="2826.22" y1="1833.3" x2="2893.27" y2="1979.25"/>
				
					<line fill="none" stroke="#012B48" stroke-width="3" stroke-miterlimit="10" x1="2542.55" y1="1746.87" x2="2634.88" y2="1963.58"/>
				
					<line fill="none" stroke="#012B48" stroke-width="3" stroke-miterlimit="10" x1="2528.4" y1="1923.52" x2="2635.88" y2="1962.07"/>
				
					<line fill="none" stroke="#012B48" stroke-width="3" stroke-miterlimit="10" x1="2492.62" y1="1801.15" x2="2524.49" y2="1924.21"/>
				
					<line fill="none" stroke="#012B48" stroke-width="3" stroke-miterlimit="10" x1="2701.76" y1="1619.34" x2="2811.45" y2="1603.27"/>
				
					<line fill="none" stroke="#012B48" stroke-width="3" stroke-miterlimit="10" x1="2701.76" y1="1619.34" x2="2774.89" y2="1775.4"/>
				
					<line fill="none" stroke="#012B48" stroke-width="3" stroke-miterlimit="10" x1="2622.17" y1="1665.79" x2="2701.76" y2="1619.34"/>
				
					<line fill="none" stroke="#012B48" stroke-width="3" stroke-miterlimit="10" x1="2624.18" y1="1666.18" x2="2654.5" y2="1771.39"/>
				
					<line fill="none" stroke="#012B48" stroke-width="3" stroke-miterlimit="10" x1="2620.35" y1="1670.66" x2="2542.55" y2="1746.87"/>
				
					<line fill="none" stroke="#012B48" stroke-width="3" stroke-miterlimit="10" x1="2905.52" y1="1659.78" x2="2774.96" y2="1777.88"/>
				
					<line fill="none" stroke="#012B48" stroke-width="3" stroke-miterlimit="10" x1="2578.69" y1="2194.55" x2="2729.32" y2="2141.92"/>
				
					<line fill="none" stroke="#012B48" stroke-width="3" stroke-miterlimit="10" x1="2520.17" y1="2116.91" x2="2596.53" y2="2067.92"/>
				
					<line fill="none" stroke="#012B48" stroke-width="3" stroke-miterlimit="10" x1="2594.75" y1="2288.94" x2="2679" y2="2300.42"/>
				
					<line fill="none" stroke="#012B48" stroke-width="3" stroke-miterlimit="10" x1="2612.43" y1="1471.22" x2="2708" y2="1550.67"/>
				
					<line fill="none" stroke="#012B48" stroke-width="3" stroke-miterlimit="10" x1="2278.85" y1="1771.39" x2="2364.16" y2="1724.57"/>
				
					<line fill="none" stroke="#012B48" stroke-width="3" stroke-miterlimit="10" x1="2406.57" y1="1917.2" x2="2380.97" y2="1976.66"/>
				
					<line fill="none" stroke="#012B48" stroke-width="3" stroke-miterlimit="10" x1="2357.69" y1="1958.55" x2="2408.98" y2="1921"/>
				
					<line fill="none" stroke="#012B48" stroke-width="3" stroke-miterlimit="10" x1="2311.38" y1="1930.35" x2="2368.81" y2="1861.02"/>
				
					<line fill="none" stroke="#012B48" stroke-width="3" stroke-miterlimit="10" x1="2462.73" y1="1941.05" x2="2559.07" y2="1972.1"/>
				<polyline fill="none" stroke="#012B48" stroke-width="3" stroke-miterlimit="10" points="2634.88,1963.58 2598.13,2064.83 
					2559.07,1972.1 				"/>
				<circle fill="#012B48" cx="2494.06" cy="990.92" r="16.09"/>
				<rect fill="none" width="3840" height="2160"/>
			</g>
		</g>
	</g>
</g>
<rect fill="none" width="3840" height="2160"/>
</svg>
