<?xml version="1.0" encoding="utf-8"?>
<!-- Generator: Adobe Illustrator 24.2.1, SVG Export Plug-In . SVG Version: 6.00 Build 0)  -->
<svg version="1.1" id="barGraphSvg" xmlns="http://www.w3.org/2000/svg" xmlns:xlink="http://www.w3.org/1999/xlink" x="0px"
	 y="0px" width="3840px" height="2160px" viewBox="0 0 3840 2160" enable-background="new 0 0 3840 2160" xml:space="preserve">
<g id="_x2D_.contentScene-">
	<g id="_x2D_.moveElements-">
		<g>
			<g>
				<g>
					<polygon fill="none" stroke="#012B48" stroke-miterlimit="10" points="1425.02,2039.04 1425.02,1374.32 1698.64,1291.59 
						1700.64,2091.25 					"/>
					<polygon fill="none" stroke="#012B48" stroke-miterlimit="10" points="2109,1369.38 1699.96,1291.59 1699.96,2091.25 
						2109,2054.49 					"/>
					<polyline fill="none" stroke="#012B48" stroke-miterlimit="10" stroke-dasharray="12" points="1425.02,1374.32 
						1468.81,1466.72 1569.33,1332.19 1545.45,1606.63 1469.06,1465.46 1425.02,1644.7 1543.36,1608.83 1697.64,1565.35 
						1640.25,1361.95 1543.36,1608.83 					"/>
					<polyline fill="none" stroke="#012B48" stroke-miterlimit="10" points="1700.64,1291.59 1640.25,1361.95 1569.33,1332.19 					
						"/>
					<polyline fill="none" stroke="#012B48" stroke-miterlimit="10" points="1425.02,1644.7 1479.11,1782.57 1544.6,1609.27 
						1586.25,1721.68 1501.23,1834.27 1479.4,1784.91 1427.3,1929.04 1501.23,1834.91 1550.08,1961.32 1586.25,1721.61 
						1636.96,1842.87 1698.36,1754.95 1615.13,1675.02 1585.85,1720.19 					"/>
					<polyline fill="none" stroke="#012B48" stroke-miterlimit="10" points="1544.6,1609.27 1615.13,1675.02 1696.64,1566.35 					
						"/>
					<polyline fill="none" stroke="#012B48" stroke-miterlimit="10" stroke-dasharray="12" points="1698.66,1982.86 
						1636.96,1842.87 1551.83,1961.32 1699.66,1982.86 					"/>
					<polyline fill="none" stroke="#012B48" stroke-miterlimit="10" points="1425.02,1945.99 1551.6,1961.32 1425.02,2039.04 					
						"/>
					<line fill="none" stroke="#012B48" stroke-miterlimit="10" x1="1550.6" y1="1964.11" x2="1697.36" y2="2088.58"/>
					<polyline fill="none" stroke="#012B48" stroke-miterlimit="10" points="1700.64,1291.59 1848.12,1399.97 1927.68,1452.83 
						2109,1369.38 2020.55,1502.23 2108.28,1555.63 1966.55,1594.14 1927.68,1452.83 2020.55,1502.23 1991.94,1425.45 
						1955.72,1340.23 					"/>
					<polyline fill="none" stroke="#012B48" stroke-miterlimit="10" stroke-dasharray="12" points="2020.55,1502.23 
						1966.55,1594.14 1896.55,1587.27 1927.68,1452.83 1778.13,1527.51 1698.65,1295.97 					"/>
					<polyline fill="none" stroke="#012B48" stroke-miterlimit="10" points="1700.74,1564.35 1778.13,1527.51 1798.81,1574.61 
						1896.55,1587.27 1860.61,1752.7 1797.66,1573.1 1700.74,1565.35 1860.61,1752.7 1791.11,1851.29 1701.74,1566.35 					"/>
					<polyline fill="none" stroke="#012B48" stroke-miterlimit="10" stroke-dasharray="12" points="1966.55,1594.14 1860.61,1752.7 
						2000.42,1910.8 1966.55,1594.14 					"/>
					<polyline fill="none" stroke="#012B48" stroke-miterlimit="10" points="2107.58,1558.35 2000.42,1910.8 2107.13,1905.51 					
						"/>
					<polyline fill="none" stroke="#012B48" stroke-miterlimit="10" stroke-dasharray="12" points="1860.61,1752.7 1824.08,1935.38 
						1791.11,1851.29 1702.66,1982.86 1824.08,1941.38 1703.96,2087.25 1896.55,1971 1824.08,1941.38 1991.83,1912.86 
						1901.92,1971.54 2107.13,2039.19 2000.42,1910.8 					"/>
					<line fill="none" stroke="#012B48" stroke-miterlimit="10" x1="1896.55" y1="2073.58" x2="1896.55" y2="1971"/>
					<line fill="none" stroke="#012B48" stroke-miterlimit="10" x1="1955.72" y1="1340.23" x2="1848.12" y2="1399.97"/>
				</g>
				<g>
					<polygon fill="#A4CD38" points="1952.96,1544.74 1930.52,1590.6 1966.55,1594.14 					"/>
					<polygon fill="#A4CD38" points="2107.13,1905.51 2000.42,1910.8 2107.13,2039.19 					"/>
					<polygon fill="#A4CD38" points="1778.13,1527.51 1798.65,1574.37 1895.69,1586.91 					"/>
					<polygon fill="#A4CD38" points="1955.72,1340.23 1926.07,1452.37 1991.94,1425.45 					"/>
					<polygon fill="#A4CD38" points="1791.11,1851.29 1702.66,1982.86 1825.08,1940.38 					"/>
					<polygon fill="#A4CD38" points="1550.6,1964.11 1425.02,2039.04 1697.36,2088.58 					"/>
					<polygon fill="#A4CD38" points="1615.13,1675.02 1636.96,1842.87 1698.36,1754.95 					"/>
					<polygon fill="#A4CD38" points="1544.6,1609.27 1479.4,1784.91 1501.23,1834.91 					"/>
					<polygon fill="#A4CD38" points="1425.02,1374.32 1426.02,1638.27 1469.06,1465.46 					"/>
				</g>
				<g>
					<circle fill="#A4CD38" cx="1926.52" cy="1452.37" r="8.5"/>
					<circle fill="#A4CD38" cx="1859.44" cy="1752.24" r="8.5"/>
					<circle fill="#A4CD38" cx="1543.43" cy="1608.82" r="8.5"/>
					<circle fill="#A4CD38" cx="1588.1" cy="1719.76" r="8.5"/>
					<circle fill="#A4CD38" cx="1640.5" cy="1363.53" r="8.5"/>
					<circle fill="#A4CD38" cx="1701.9" cy="1292.64" r="8.5"/>
					<circle fill="#A4CD38" cx="1999.26" cy="1910.35" r="8.5"/>
					<circle fill="#A4CD38" cx="1900.76" cy="1971.08" r="8.5"/>
					<circle fill="#A4CD38" cx="1550.66" cy="1960.86" r="8.5"/>
					
						<line id="_x2D_.elLine-_13_" fill="none" stroke="#012B48" stroke-miterlimit="10" stroke-dasharray="12" x1="1699.96" y1="1294.63" x2="1699.96" y2="898.19"/>
					
						<line id="_x2D_.elLine-_12_" fill="none" stroke="#012B48" stroke-miterlimit="10" stroke-dasharray="12" x1="1455.13" y1="1364.9" x2="1017.3" y2="1510.64"/>
					
						<line id="_x2D_.elLine-" fill="none" stroke="#012B48" stroke-miterlimit="10" stroke-dasharray="12" x1="1425.02" y1="1367.47" x2="1425.02" y2="1141.02"/>
				</g>
				<g>
					<circle id="_x2D_.elCircle-_6_" fill="none" stroke="#012B48" stroke-miterlimit="10" cx="1702.66" cy="1291.07" r="37.37"/>
					<circle id="_x2D_.elCircle-_5_" fill="none" stroke="#012B48" stroke-miterlimit="10" cx="1542.16" cy="1609.66" r="37.37"/>
					<circle id="_x2D_.elCircle-_4_" fill="none" stroke="#012B48" stroke-miterlimit="10" cx="1550.6" cy="1960.86" r="37.37"/>
					<circle id="_x2D_.elCircle-_3_" fill="none" stroke="#012B48" stroke-miterlimit="10" cx="1999.26" cy="1905.6" r="37.37"/>
					<circle id="_x2D_.elCircle-" fill="none" stroke="#012B48" stroke-miterlimit="10" cx="1926.07" cy="1452.37" r="37.37"/>
				</g>
				<rect fill="none" width="3840" height="2160"/>
			</g>
		</g>
		<g>
			<g>
				<g>
					<polygon fill="none" stroke="#012B48" stroke-miterlimit="10" points="2110.96,882.73 2112.77,2056.95 2231.77,2064.95 
						2231.77,788.41 					"/>
					<polygon fill="none" stroke="#012B48" stroke-miterlimit="10" points="2411.41,875.2 2231.77,788.41 2230.43,2064.95 
						2412.54,2062.95 					"/>
					<polyline fill="none" stroke="#012B48" stroke-miterlimit="10" points="2228.88,794.06 2171.37,912.9 2110.96,882.73 
						2143.6,963.16 2171.37,912.9 2229.88,959.16 2161.69,993.33 2143.45,965.2 2113.18,1024.35 2162.83,994.67 2188.81,1069.56 
						2229.88,960.16 					"/>
					<polyline fill="none" stroke="#012B48" stroke-miterlimit="10" stroke-dasharray="12" points="2111.18,1024.35 
						2167.92,1147.29 2189.25,1072.52 2227.77,1272.66 2168.04,1143.92 2111.7,1372.18 2229.88,1275.41 2152.49,1459.8 
						2111.72,1375.93 					"/>
					<polyline fill="none" stroke="#012B48" stroke-miterlimit="10" points="2109.24,1556.86 2152.49,1459.8 2229.88,1641.58 
						2109.24,1556.86 2174.45,1761.97 2229.88,1642.92 					"/>
					<polyline fill="none" stroke="#012B48" stroke-miterlimit="10" points="2113.03,1892.05 2175.37,1761.01 2229.88,1935.86 
						2115.03,1903.58 					"/>
					<line fill="none" stroke="#012B48" stroke-miterlimit="10" x1="2230.88" y1="1935.86" x2="2112.77" y2="2058.95"/>
					<polyline fill="none" stroke="#012B48" stroke-miterlimit="10" stroke-dasharray="12" points="2406.41,875.2 2323.48,917.05 
						2233.76,792.56 2253.6,948.2 2324.48,916.95 2411.73,1030.2 2259.34,968.05 2253.6,948.2 2233.66,959.16 2259.34,967.24 
						2298.96,1180.26 2412.54,1032.7 2325.2,1371.33 2298.96,1181.35 2231.77,1274.66 2326.48,1373.73 2233.07,1640.73 
						2321.48,1595.37 2326.48,1373.73 2410.26,1552.86 2321.48,1595.37 2411.73,1812.07 2329.43,1872.26 2276.58,1748.18 
						2321.48,1595.37 					"/>
					<polyline fill="none" stroke="#012B48" stroke-miterlimit="10" points="2232.37,1643.65 2275.13,1748.73 2233.37,1933.86 
						2329.88,1871.78 2411.34,2063.09 2232.77,1936.86 					"/>
				</g>
				<g>
					<polygon fill="#A4CD38" points="2413.73,1030.2 2259.34,967.24 2298.96,1181.35 					"/>
					<polygon fill="#A4CD38" points="2143.6,963.16 2111.18,885.31 2111.18,1024.35 					"/>
					<polygon fill="#A4CD38" points="2152.45,1463.12 2113.03,1380.27 2113.03,1549.32 					"/>
					<polygon fill="#A4CD38" points="2321.48,1595.37 2276.17,1748.29 2331.34,1875.71 					"/>
					<polygon fill="#A4CD38" points="2411.73,2063.95 2230.88,1935.86 2230.43,2064.95 					"/>
				</g>
				<g>
					<circle fill="#A4CD38" cx="2326.23" cy="1373.33" r="8.5"/>
					<circle fill="#A4CD38" cx="2188.56" cy="1069.16" r="8.5"/>
					<circle fill="#A4CD38" cx="2231.08" cy="790.7" r="8.5"/>
					<circle fill="#A4CD38" cx="2324.23" cy="916.54" r="8.5"/>
					<circle fill="#A4CD38" cx="2174.2" cy="1763.12" r="8.5"/>
					<circle fill="#A4CD38" cx="2329.23" cy="1872.26" r="8.5"/>
					
						<line id="_x2D_.elLine-_11_" fill="none" stroke="#012B48" stroke-miterlimit="10" stroke-dasharray="12" x1="2111.18" y1="885.31" x2="2111.18" y2="598.86"/>
					
						<line id="_x2D_.elLine-_10_" fill="none" stroke="#012B48" stroke-miterlimit="10" stroke-dasharray="12" x1="2232.37" y1="822.5" x2="2232.37" y2="436.05"/>
					
						<line id="_x2D_.elLine-_9_" fill="none" stroke="#012B48" stroke-miterlimit="10" stroke-dasharray="12" x1="2124.92" y1="872.69" x2="1944.28" y2="990.31"/>
					
						<line id="_x2D_.elLine-_8_" fill="none" stroke="#012B48" stroke-miterlimit="10" stroke-dasharray="12" x1="2411.34" y1="925.15" x2="2411.34" y2="638.7"/>
					
						<line id="_x2D_.elLine-_7_" fill="none" stroke="#012B48" stroke-miterlimit="10" stroke-dasharray="12" x1="2487.09" y1="910.74" x2="2401.41" y2="870.39"/>
				</g>
				<g>
					<circle id="_x2D_.elCircle-_8_" fill="none" stroke="#012B48" stroke-miterlimit="10" cx="2326.23" cy="1369.82" r="37.37"/>
					<circle id="_x2D_.elCircle-_7_" fill="none" stroke="#012B48" stroke-miterlimit="10" cx="2229.88" cy="1639.5" r="37.37"/>
					<circle id="_x2D_.elCircle-_2_" fill="none" stroke="#012B48" stroke-miterlimit="10" cx="2231.77" cy="794.06" r="37.37"/>
					<circle id="_x2D_.elCircle-_1_" fill="none" stroke="#012B48" stroke-miterlimit="10" cx="2113.03" cy="881.25" r="37.37"/>
				</g>
				<rect fill="none" width="3840" height="2160"/>
			</g>
		</g>
		<g>
			<g>
				<g>
					<polygon fill="none" stroke="#012B48" stroke-miterlimit="10" points="2412.66,1022 2629,947 2625.34,2072.96 2412.66,2062.74 
											"/>
					<polygon fill="none" stroke="#012B48" stroke-miterlimit="10" points="2949.05,1028.13 2629.66,947 2626.66,2072.96 
						2950.05,2042.79 					"/>
					<polyline fill="none" stroke="#012B48" stroke-miterlimit="10" points="2626.11,1173.56 2530.66,985.3 2533.73,1110.85 
						2625.98,1174.06 2535.26,1236.04 2533.54,1110.17 2414.66,1024 2490.07,1260.21 2533.73,1235.87 2537.62,1401.49 
						2626.11,1176.68 					"/>
					<polyline fill="none" stroke="#012B48" stroke-miterlimit="10" stroke-dasharray="12" points="2625.81,1405.74 
						2536.79,1405.74 2490.07,1260.21 2414.66,1309.16 2536.79,1405.74 2625.16,1713.66 2497.73,1625.74 2536.79,1405.74 
						2413.6,1550.81 2497.73,1626.34 2416.14,2047.03 2623.87,1977.03 2562.07,1813.23 2417.14,2047.03 					"/>
					<polyline fill="none" stroke="#012B48" stroke-miterlimit="10" points="2625.16,1713.66 2562.07,1813.23 2497.73,1626.34 					
						"/>
					<polyline fill="none" stroke="#012B48" stroke-miterlimit="10" points="2629.66,947 2663.56,1159.87 2808.32,1112.17 
						2629.66,947 					"/>
					<polyline fill="none" stroke="#012B48" stroke-miterlimit="10" stroke-dasharray="12" points="2949.05,1028.13 
						2811.07,1112.17 2850.54,1003.36 					"/>
					<polyline fill="none" stroke="#012B48" stroke-miterlimit="10" stroke-dasharray="12" points="2629.98,1177.06 
						2663.81,1160.91 2688.83,1302.34 2806.32,1116.25 2757.77,1468.59 2717.15,1447.1 2689.24,1301.13 2628.66,1402.04 
						2717.15,1448.59 2739.94,1578.23 2628.13,1408.48 					"/>
					<polyline fill="none" stroke="#012B48" stroke-miterlimit="10" points="2948.45,1181.06 2809.52,1114.81 2950.45,1379.32 
						2822.11,1491.91 2808.72,1114.81 					"/>
					<polyline fill="none" stroke="#012B48" stroke-miterlimit="10" points="2822.52,1494.32 2758.52,1469.68 2741.69,1583.23 
						2822.11,1492.4 2893.34,1591.87 2947.75,1383.08 					"/>
					<polyline fill="none" stroke="#012B48" stroke-miterlimit="10" stroke-dasharray="12" points="2822.11,1494.98 
						2849.69,1759.81 2741.69,1581.32 2629.66,1715.79 2849.69,1762.81 2894.49,1593.76 2951.75,1676.08 2850.03,1760.76 
						2947.75,2031.91 2756.62,1856.23 2849.69,1762.81 					"/>
					<polyline fill="none" stroke="#012B48" stroke-miterlimit="10" points="2629.28,1717.34 2755.88,1856.28 2629.66,1973.99 
						2949.75,2040.91 					"/>
				</g>
				<g>
					<polygon fill="#A4CD38" points="2625.16,1713.66 2497.73,1626.34 2562.07,1813.23 					"/>
					<polygon fill="#A4CD38" points="2535.26,1236.04 2533.54,1110.17 2489.6,1259.75 					"/>
					<polygon fill="#A4CD38" points="2758.52,1469.68 2689.24,1301.13 2717.15,1448.59 					"/>
					<polygon fill="#A4CD38" points="2689.24,1301.13 2626.77,1180.15 2628.66,1402.04 					"/>
					<polygon fill="#A4CD38" points="2951.75,1676.08 2894.49,1593.76 2849.69,1759.81 					"/>
					<polygon fill="#A4CD38" points="2950.05,2042.79 2629.66,1973.99 2626.66,2072.96 					"/>
				</g>
				<g>
					<circle fill="#A4CD38" cx="2806.73" cy="1113.15" r="8.5"/>
					<circle fill="#A4CD38" cx="2823.73" cy="1494.98" r="8.5"/>
					<circle fill="#A4CD38" cx="2757.49" cy="1858.85" r="8.5"/>
					<circle fill="#A4CD38" cx="2689.64" cy="1298.02" r="8.5"/>
					<circle fill="#A4CD38" cx="2664.22" cy="1157.81" r="8.5"/>
					<circle fill="#A4CD38" cx="2626.77" cy="1174.62" r="8.5"/>
					<circle fill="#A4CD38" cx="2537.45" cy="1406.8" r="8.5"/>
					
						<line id="_x2D_.elLine-_6_" fill="none" stroke="#012B48" stroke-miterlimit="10" stroke-dasharray="12" x1="2629.66" y1="977.15" x2="2629.66" y2="690.7"/>
				</g>
				<g>
					<circle id="_x2D_.elCircle-_12_" fill="none" stroke="#012B48" stroke-miterlimit="10" cx="2806.73" cy="1112.17" r="37.37"/>
					<circle id="_x2D_.elCircle-_11_" fill="none" stroke="#012B48" stroke-miterlimit="10" cx="2629.28" cy="947" r="37.37"/>
					<circle id="_x2D_.elCircle-_10_" fill="none" stroke="#012B48" stroke-miterlimit="10" cx="2497.73" cy="1626.34" r="37.37"/>
					<circle id="_x2D_.elCircle-_9_" fill="none" stroke="#012B48" stroke-miterlimit="10" cx="2757.98" cy="1858.85" r="37.37"/>
				</g>
				<rect fill="none" width="3840" height="2160"/>
			</g>
		</g>
		<g>
			<g>
				<g>
					<polygon fill="none" stroke="#012B48" stroke-miterlimit="10" points="2947.34,368.09 3158.04,284.36 3156.04,2064.73 
						2947.34,2043.77 					"/>
					<polygon fill="none" stroke="#012B48" stroke-miterlimit="10" points="3158.72,284.36 3489.23,365.79 3489.23,2027.15 
						3156.04,2064.73 					"/>
					<polyline fill="none" stroke="#012B48" stroke-miterlimit="10" stroke-dasharray="12" points="2947.74,373.83 2995.19,543.88 
						3055.28,327.3 3156.04,474.94 3065.27,587.53 3055.53,330.17 					"/>
					<polyline fill="none" stroke="#012B48" stroke-miterlimit="10" points="2947.74,726.66 2996.34,542.92 3020.47,644.98 
						3065.27,589.02 3080.47,869.98 3018.82,649.44 2947.74,731.34 3079.47,871.32 3156.04,474.94 					"/>
					<polyline fill="none" stroke="#012B48" stroke-miterlimit="10" points="3156.04,781.71 3080.96,871.32 3156.04,1127.53 
						3064.13,1421.66 3081.06,872.81 2949.04,1034.47 2996.34,1194.38 3081.02,875.64 					"/>
					<polyline fill="none" stroke="#012B48" stroke-miterlimit="10" stroke-dasharray="12" points="2948.92,1380.59 
						2996.49,1190.96 3064.13,1421.66 2949.04,1382.07 3030.81,1592.85 3065.13,1420.85 3155.59,1912.58 3031.96,1594.34 
						2947.04,2041.9 3155.59,1913.7 					"/>
					<polyline fill="none" stroke="#012B48" stroke-miterlimit="10" points="3160.56,287.14 3245.66,394.51 3320.15,325.3 
						3375.49,561.11 3400.51,343.8 					"/>
					<polyline fill="none" stroke="#012B48" stroke-miterlimit="10" stroke-dasharray="12" points="3489.23,365.79 3375.49,561.11 
						3245.66,394.51 3160.04,474.94 3375.49,561.11 3269.79,859.83 3158.92,476.07 					"/>
					<polyline fill="none" stroke="#012B48" stroke-miterlimit="10" stroke-dasharray="12" points="3375.49,561.11 3487.49,813.43 
						3269.79,859.83 3415.7,1013.79 3486.4,816.07 					"/>
					<polyline fill="none" stroke="#012B48" stroke-miterlimit="10" points="3156.04,781.71 3269.79,859.83 3156.04,1127.53 
						3225.83,1156.96 3269.79,859.83 3340.87,1215.81 3414.55,1012.68 3487.4,1090.51 3342.87,1214.81 3225.83,1156.96 					"/>
					<polyline fill="none" stroke="#012B48" stroke-miterlimit="10" stroke-dasharray="12" points="3225.64,1157.85 
						3159.76,1581.34 3340.87,1215.81 3313.83,1568.34 3489.34,1552.96 3340.87,1215.81 					"/>
					<polyline fill="none" stroke="#012B48" stroke-miterlimit="10" points="3313.83,1568.34 3158.76,1586.85 3298.98,1796.83 
						3313.83,1568.34 					"/>
					<polyline fill="none" stroke="#012B48" stroke-miterlimit="10" points="3487.46,1555.85 3352.66,1878.11 3298.98,1796.83 
						3278.63,2045.9 3157.4,1588.85 					"/>
					<polyline fill="none" stroke="#012B48" stroke-miterlimit="10" stroke-dasharray="12" points="3156.76,1912.85 
						3278.77,2049.76 3352.19,1879.28 3487.46,2027.02 					"/>
				</g>
				<g>
					<polygon fill="#A4CD38" points="3064.13,1421.66 2949.04,1382.07 3030.81,1592.85 					"/>
					<polygon fill="#A4CD38" points="3245.66,394.51 3160.56,287.14 3159.76,473.53 					"/>
					<polygon fill="#A4CD38" points="3489.34,1552.96 3487.4,1090.51 3340.87,1215.81 					"/>
					<polygon fill="#A4CD38" points="3158.76,1121.13 3269.79,859.83 3158.04,781.71 					"/>
					<polygon fill="#A4CD38" points="3352.19,1879.28 3489.34,1552.96 3298.32,1796.52 					"/>
					<polygon fill="#A4CD38" points="3156.04,2064.73 3278.63,2049.9 3155.59,1913.7 					"/>
					<polygon fill="#A4CD38" points="2947.74,726.66 2996.34,542.92 2947.74,373.83 					"/>
					<polygon fill="#A4CD38" points="3488.4,816.07 3489.23,365.79 3377.64,561.11 					"/>
					<circle fill="#A4CD38" cx="3081.42" cy="872.53" r="8.5"/>
					<circle fill="#A4CD38" cx="3157.76" cy="285.14" r="8.5"/>
					<circle fill="#A4CD38" cx="3019.18" cy="649.16" r="8.5"/>
					<circle fill="#A4CD38" cx="3375.14" cy="561.11" r="8.5"/>
					<circle fill="#A4CD38" cx="3158.82" cy="1583.6" r="8.5"/>
					<circle fill="#A4CD38" cx="3064.18" cy="1423.11" r="8.5"/>
					<circle fill="#A4CD38" cx="3312.88" cy="1570.6" r="8.5"/>
					<circle fill="#A4CD38" cx="3155.82" cy="1915.11" r="8.5"/>
					<circle fill="#A4CD38" cx="3417.51" cy="1013.79" r="8.5"/>
				</g>
				<g>
					
						<line id="_x2D_.elLine-_5_" fill="none" stroke="#012B48" stroke-miterlimit="10" stroke-dasharray="12" x1="2947.04" y1="396.53" x2="2947.04" y2="141.08"/>
					
						<line id="_x2D_.elLine-_4_" fill="none" stroke="#012B48" stroke-miterlimit="10" stroke-dasharray="12" x1="2959.94" y1="363.75" x2="2724.1" y2="461.43"/>
					
						<line id="_x2D_.elLine-_3_" fill="none" stroke="#012B48" stroke-miterlimit="10" stroke-dasharray="12" x1="3157.59" y1="337.14" x2="3157.59" y2="20.7"/>
					
						<line id="_x2D_.elLine-_2_" fill="none" stroke="#012B48" stroke-miterlimit="10" stroke-dasharray="12" x1="3489.34" y1="470.53" x2="3489.34" y2="184.08"/>
					
						<line id="_x2D_.elLine-_1_" fill="none" stroke="#012B48" stroke-miterlimit="10" stroke-dasharray="12" x1="3737.05" y1="427.94" x2="3459.15" y2="358.49"/>
				</g>
				<g>
					<circle id="_x2D_.elCircle-_17_" fill="none" stroke="#012B48" stroke-miterlimit="10" cx="3155.59" cy="284.36" r="37.37"/>
					<circle id="_x2D_.elCircle-_16_" fill="none" stroke="#012B48" stroke-miterlimit="10" cx="3019.18" cy="649.16" r="37.37"/>
					<circle id="_x2D_.elCircle-_15_" fill="none" stroke="#012B48" stroke-miterlimit="10" cx="3269.79" cy="859.48" r="37.37"/>
					<circle id="_x2D_.elCircle-_14_" fill="none" stroke="#012B48" stroke-miterlimit="10" cx="3312.88" cy="1570.6" r="37.37"/>
					<circle id="_x2D_.elCircle-_13_" fill="none" stroke="#012B48" stroke-miterlimit="10" cx="3064.13" cy="1426.46" r="37.37"/>
				</g>
				<rect fill="none" width="3840" height="2160"/>
			</g>
		</g>
		<g>
			<g>
				<g>
					
						<line fill="none" stroke="#012B48" stroke-miterlimit="10" stroke-dasharray="12" x1="1424.96" y1="2041.33" x2="665.9" y2="2160.8"/>
					<polygon fill="none" stroke="#012B48" stroke-miterlimit="10" stroke-dasharray="12" points="1415,2075.88 1081.81,2145.63 
						1596.53,2110.75 					"/>
					<polygon fill="none" stroke="#012B48" stroke-miterlimit="10" points="2107.07,2090.88 1718.32,2145.63 2412.71,2160.8 					
						"/>
					<polygon fill="none" stroke="#012B48" stroke-miterlimit="10" stroke-dasharray="12" points="2739.73,2110.75 2400.79,2104.98 
						2915.32,2198.97 					"/>
					<path fill="none" stroke="#012B48" stroke-miterlimit="10" d="M3281.29,2093.55l-308.33,74.11c0,0,533.11-38.63,540-41.82
						C3519.85,2122.65,3281.29,2093.55,3281.29,2093.55z"/>
				</g>
				<rect fill="none" width="3840" height="2160"/>
			</g>
		</g>
		<g>
			<g>
				
					<text transform="matrix(1 0 0 1 171.3667 366.6353)" fill="#012B48" font-family="'HelveticaNeueLTStd-Hv'" font-size="140.0524px">You can earn a</text>
				<rect fill="none" width="3840" height="2160"/>
			</g>
		</g>
		<g>
			<g>
				
					<text transform="matrix(1 0 0 1 2320.0901 368.7358)" fill="#012B48" font-family="'HelveticaNeueLTStd-Hv'" font-size="140.0524px">Bonus</text>
				<rect fill="none" width="3840" height="2160"/>
			</g>
		</g>
		<g>
			<g>
				
					<text transform="matrix(1 0 0 1 1189.7046 727.2461)" fill="#012B48" font-family="'HelveticaNeueLTStd-ThIt'" font-size="701.4755px" letter-spacing="-41">10</text>
				
					<text transform="matrix(1 0 0 1 1958.6494 497.4268)" fill="#012B48" font-family="'HelveticaNeueLTStd-ThIt'" font-size="437.3498px" letter-spacing="-25">%</text>
				<rect fill="none" width="3840" height="2160"/>
			</g>
		</g>
	</g>
</g>
<rect fill="none" width="3840" height="2160"/>
</svg>
