<?xml version="1.0" encoding="utf-8"?>
<!-- Generator: Adobe Illustrator 24.1.2, SVG Export Plug-In . SVG Version: 6.00 Build 0)  -->
<svg version="1.1" id="DotsRectScena1Svg" xmlns="http://www.w3.org/2000/svg" xmlns:xlink="http://www.w3.org/1999/xlink" x="0px"
	 y="0px" width="1920px" height="1080px" viewBox="0 0 1920 1080" enable-background="new 0 0 1920 1080" xml:space="preserve">
<g id="_x2D_.contForPoint-">
	<g id="_x2D_.moveElements-_2_" opacity="0.17">
		<rect id="_x2D_.contForPointB-_8_" x="629.25" y="243.38" opacity="0.33" fill="#0010B9" width="627.36" height="340.94"/>
		<rect id="_x2D_.contForPointB-_7_" x="1349.54" y="179" opacity="0.33" fill="#0010B9" width="698.44" height="379.57"/>
		<rect id="_x2D_.contForPointB-_6_" x="-182.9" y="269.95" opacity="0.33" fill="#0010B9" width="528.63" height="287.28"/>
		<rect x="-0.5" y="0.5" fill="none" width="1920" height="1079"/>
	</g>
	<g id="_x2D_.moveElements-_1_" opacity="0.43">
		<rect id="_x2D_.contForPointB-_5_" x="13" y="299.94" opacity="0.33" fill="#0010B9" width="718.81" height="390.64"/>
		<rect id="_x2D_.contForPointB-_4_" x="1296.57" y="285.66" opacity="0.33" fill="#0010B9" width="688.43" height="374.13"/>
		<rect id="_x2D_.contForPointB-_3_" x="617.12" y="510.54" opacity="0.33" fill="#0010B9" width="735.55" height="399.73"/>
		<rect x="-0.5" y="0.5" fill="none" width="1920" height="1079"/>
	</g>
	<g id="_x2D_.moveElements-">
		<rect id="_x2D_.contForPointB-_2_" x="-835" y="381.52" opacity="0.33" fill="#0010B9" width="1356.15" height="737.01"/>
		<rect id="_x2D_.contForPointB-_1_" x="48.57" y="925.94" opacity="0.33" fill="#0010B9" width="1356.15" height="737.01"/>
		<rect id="_x2D_.contForPointB-" x="320.07" y="410" opacity="0.33" fill="#0010B9" width="1356.15" height="737.01"/>
		<rect id="_x2D_.contForPointA-" x="1133.82" y="-44.5" opacity="0.33" fill="#0010B9" width="1701.48" height="1210.04"/>
		<rect x="-0.5" y="0.5" fill="none" width="1920" height="1079"/>
	</g>
</g>
<rect x="-0.5" y="0.5" fill="none" width="1920" height="1079"/>
</svg>
