<?xml version="1.0" encoding="utf-8"?>
<!-- Generator: Adobe Illustrator 24.1.2, SVG Export Plug-In . SVG Version: 6.00 Build 0)  -->
<svg version="1.1" id="dotAndLineBSvg" xmlns="http://www.w3.org/2000/svg" xmlns:xlink="http://www.w3.org/1999/xlink" x="0px"
	 y="0px" width="3224px" height="1365px" viewBox="0 0 3224 1365" enable-background="new 0 0 3224 1365" xml:space="preserve">
<g opacity="0.5">
	<g id="_x2D_.lines-">
		<polyline fill="none" stroke="#012B48" stroke-miterlimit="10" stroke-dasharray="12" stroke-dashoffset="1" points="
			814.5,450.11 767.1,442.98 553.64,396.11 211.5,524.8 		"/>
		<polyline fill="none" stroke="#012B48" stroke-miterlimit="10" stroke-dasharray="12" stroke-dashoffset="1" points="
			670.39,599.99 532.51,526.66 467.1,761.16 670.39,608.98 572.13,1048.84 467.1,761.16 440.11,1055.02 257.46,979.03 467.1,761.16 
			269.32,702.86 532.51,544.64 		"/>
		<polyline fill="none" stroke="#012B48" stroke-miterlimit="10" stroke-dasharray="12" stroke-dashoffset="1" points="
			313.13,779.15 211.5,552.55 139.49,1004.97 257.46,979.03 223.36,599.99 		"/>
		<polyline fill="none" stroke="#012B48" stroke-miterlimit="10" stroke-dasharray="12" stroke-dashoffset="1" points="
			139.49,1004.97 62.14,1052.16 350.67,1233.98 257.46,979.03 		"/>
		<polyline fill="none" stroke="#012B48" stroke-miterlimit="10" stroke-dasharray="12" stroke-dashoffset="1" points="
			431.12,1076.2 366.74,1226.04 572.13,1057.02 679.38,1094.94 382.06,1226.04 		"/>
		<polyline fill="none" stroke="#012B48" stroke-miterlimit="10" stroke-dasharray="12" stroke-dashoffset="1" points="
			572.13,1057.02 791.49,835.14 679.38,1094.94 721.12,1095.16 791.49,835.14 717.17,743.17 788.24,800.17 1019.4,802.44 
			989.1,643.26 		"/>
		<polyline fill="none" stroke="#012B48" stroke-miterlimit="10" stroke-dasharray="12" stroke-dashoffset="1" points="
			814.5,1226.04 721.12,1095.16 1019.4,802.44 1114.66,1266.43 1214.57,811.28 1336.52,1169.12 1134.57,1313.91 		"/>
		
			<line fill="none" stroke="#012B48" stroke-miterlimit="10" stroke-dasharray="12" stroke-dashoffset="1" x1="791.49" y1="835.14" x2="1109.81" y2="1242.8"/>
		<polyline fill="none" stroke="#012B48" stroke-miterlimit="10" stroke-dasharray="12" stroke-dashoffset="1" points="
			791.49,835.14 1019.4,802.44 1214.57,811.28 		"/>
		<polyline fill="none" stroke="#012B48" stroke-miterlimit="10" stroke-dasharray="12" stroke-dashoffset="1" points="
			1336.52,1177.97 1527.66,1111.31 1459.77,868.13 		"/>
		<polyline fill="none" stroke="#012B48" stroke-miterlimit="10" stroke-dasharray="12" stroke-dashoffset="1" points="
			1599.83,1209.74 1527.66,1111.31 1923.94,1155.91 1949.21,1217.4 2066.4,1093.28 1923.94,1155.91 1674.62,915.23 1612.74,433.06 
			1599.83,261.76 1332.15,312.94 		"/>
		
			<line fill="none" stroke="#012B48" stroke-miterlimit="10" stroke-dasharray="12" stroke-dashoffset="1" x1="1527.66" y1="1111.31" x2="1674.62" y2="915.23"/>
		<polyline fill="none" stroke="#012B48" stroke-miterlimit="10" stroke-dasharray="12" stroke-dashoffset="1" points="
			1937.15,1129.33 2141.76,915.23 2383.75,872.66 2337.55,1155.91 2066.4,1093.28 2383.75,872.66 		"/>
		<polyline fill="none" stroke="#012B48" stroke-miterlimit="10" stroke-dasharray="12" stroke-dashoffset="1" points="
			2066.4,1093.28 2107.04,1229.19 2337.55,1155.91 2225.06,1275.62 		"/>
		<polyline fill="none" stroke="#012B48" stroke-miterlimit="10" stroke-dasharray="12" stroke-dashoffset="1" points="
			1996.14,971.23 1903.26,872.72 1970.69,836.39 		"/>
		<polyline fill="none" stroke="#012B48" stroke-miterlimit="10" stroke-dasharray="12" stroke-dashoffset="1" points="
			2056.74,807.74 2141.76,915.23 2337.55,776.21 2197.38,713.02 		"/>
		<polyline fill="none" stroke="#012B48" stroke-miterlimit="10" stroke-dasharray="12" stroke-dashoffset="1" points="
			2151.92,692.7 2225.06,577.97 2125.05,511.83 		"/>
		<polygon fill="none" stroke="#012B48" stroke-miterlimit="10" stroke-dasharray="12" stroke-dashoffset="1" points="
			2002.72,282.57 1969.07,401.91 2030.4,360.64 		"/>
		<polyline fill="none" stroke="#012B48" stroke-miterlimit="10" stroke-dasharray="12" stroke-dashoffset="1" points="
			2337.55,776.21 2383.75,872.66 2484.03,821.44 2525.49,658.51 2473.87,626.12 		"/>
		<polyline fill="none" stroke="#012B48" stroke-miterlimit="10" stroke-dasharray="12" stroke-dashoffset="1" points="
			2383.75,872.66 2603.72,813.28 2631.38,965.05 2661.31,821.44 2639.29,778.37 2551.03,441.87 2487.99,449.83 2639.29,778.37 		"/>
		<polyline fill="none" stroke="#012B48" stroke-miterlimit="10" stroke-dasharray="12" stroke-dashoffset="1" points="
			2337.55,1155.91 2458.37,1014.42 2631.38,965.05 2753.85,1134.76 2686.59,983.09 2882.34,995.14 2753.85,1134.76 2534.4,1226.85 
					"/>
		<polyline fill="none" stroke="#012B48" stroke-miterlimit="10" stroke-dasharray="12" stroke-dashoffset="1" points="
			2686.59,983.09 2840.29,864.86 2639.29,778.37 2806.32,692.7 2796.16,643.13 2751.17,423.03 2639.82,786.37 2796.16,643.13 
			3173.72,603.11 2806.32,692.7 2840.29,864.86 3160.96,602.6 2882.34,995.14 3052.53,1020.46 3154.64,607.76 		"/>
		<polyline fill="none" stroke="#012B48" stroke-miterlimit="10" stroke-dasharray="12" stroke-dashoffset="1" points="
			2393.85,1243.83 2458.37,1014.42 2753.85,1134.77 2715.55,1300.13 		"/>
		<polyline fill="none" stroke="#012B48" stroke-miterlimit="10" stroke-dasharray="12" stroke-dashoffset="1" points="
			3041.5,992.73 2749.78,427.57 3154.64,607.76 2886.93,371.94 2749.78,427.57 2854.26,236.21 2886.93,371.94 3025.88,126.6 		"/>
		<polyline fill="none" stroke="#012B48" stroke-miterlimit="10" stroke-dasharray="12" stroke-dashoffset="1" points="
			2796.16,643.13 2886.93,371.94 3052.53,1020.46 3108.49,1210.51 		"/>
		
			<line fill="none" stroke="#012B48" stroke-miterlimit="10" stroke-dasharray="12" stroke-dashoffset="1" x1="876.87" y1="70" x2="1124.62" y2="464.53"/>
	</g>
	<g id="_x2D_.dots-">
		<circle fill="#012B48" cx="876.87" cy="70" r="19.91"/>
		<circle fill="#012B48" cx="767.1" cy="442.98" r="11.93"/>
		<circle fill="#012B48" cx="814.5" cy="450.11" r="17.12"/>
		<circle fill="#012B48" cx="553.64" cy="396.11" r="11.86"/>
		<circle fill="#012B48" cx="211.5" cy="524.8" r="6.79"/>
		<circle fill="#012B48" cx="62.14" cy="1052.16" r="17.12"/>
		<circle fill="#012B48" cx="139.49" cy="1004.97" r="14.08"/>
		<circle fill="#012B48" cx="257.46" cy="979.03" r="6.79"/>
		<circle fill="#012B48" cx="330.4" cy="790.05" r="15.38"/>
		<circle fill="#012B48" cx="467.1" cy="761.16" r="17.99"/>
		<circle fill="#012B48" cx="532.51" cy="535.65" r="3.93"/>
		<circle fill="#012B48" cx="670.39" cy="599.99" r="14.25"/>
		<circle fill="#012B48" cx="440.11" cy="1055.02" r="8.99"/>
		<circle fill="#012B48" cx="788.24" cy="800.17" r="3.93"/>
		<circle fill="#012B48" cx="791.49" cy="835.14" r="20.27"/>
		<circle fill="#012B48" cx="717.17" cy="743.17" r="15.01"/>
		<circle fill="#012B48" cx="989.1" cy="643.26" r="9.95"/>
		<circle fill="#012B48" cx="1019.4" cy="802.44" r="16.55"/>
		<circle fill="#012B48" cx="1214.57" cy="811.28" r="8.84"/>
		<circle fill="#012B48" cx="1336.52" cy="1177.97" r="3.78"/>
		<circle fill="#012B48" cx="572.13" cy="1057.02" r="19.44"/>
		<circle fill="#012B48" cx="679.38" cy="1094.94" r="14.18"/>
		<circle fill="#012B48" cx="721.12" cy="1095.16" r="13.89"/>
		<circle fill="#012B48" cx="1332.15" cy="312.94" r="18.47"/>
		<circle fill="#012B48" cx="1459.77" cy="868.13" r="13.21"/>
		<circle fill="#012B48" cx="1674.62" cy="915.23" r="8.15"/>
		<circle fill="#012B48" cx="1903.26" cy="872.72" r="18.47"/>
		<circle fill="#012B48" cx="1970.69" cy="836.39" r="10.16"/>
		<circle fill="#012B48" cx="2337.55" cy="776.21" r="5.09"/>
		<circle fill="#012B48" cx="2484.03" cy="821.44" r="15.42"/>
		<circle fill="#012B48" cx="2603.72" cy="813.28" r="10.16"/>
		<circle fill="#012B48" cx="2661.31" cy="821.44" r="5.09"/>
		<circle fill="#012B48" cx="2806.32" cy="692.7" r="15.42"/>
		<circle fill="#012B48" cx="2796.16" cy="643.13" r="10.16"/>
		<circle fill="#012B48" cx="2840.29" cy="864.86" r="8.9"/>
		<circle fill="#012B48" cx="2686.59" cy="983.09" r="15.42"/>
		<circle fill="#012B48" cx="2753.85" cy="1134.76" r="12.93"/>
		<circle fill="#012B48" cx="2882.34" cy="995.14" r="5.97"/>
		<circle fill="#012B48" cx="3052.54" cy="1020.46" r="16.3"/>
		<circle fill="#012B48" cx="2473.87" cy="626.12" r="10.16"/>
		<circle fill="#012B48" cx="2551.03" cy="441.87" r="5.09"/>
		<circle fill="#012B48" cx="2487.99" cy="449.83" r="23.37"/>
		<circle fill="#012B48" cx="2751.17" cy="423.03" r="18.12"/>
		<circle fill="#012B48" cx="3025.88" cy="126.6" r="13.05"/>
		<circle fill="#012B48" cx="2525.49" cy="658.51" r="20.64"/>
		<circle fill="#012B48" cx="2197.38" cy="713.02" r="10.16"/>
		<circle fill="#012B48" cx="2151.92" cy="692.7" r="5.09"/>
		<circle fill="#012B48" cx="2225.06" cy="577.97" r="20.18"/>
		<circle fill="#012B48" cx="2123.41" cy="508.83" r="10.27"/>
		<circle fill="#012B48" cx="2056.74" cy="807.74" r="8.64"/>
		<circle fill="#012B48" cx="2141.76" cy="915.23" r="18.96"/>
		<circle fill="#012B48" cx="2383.75" cy="872.66" r="17.77"/>
		<circle fill="#012B48" cx="1923.94" cy="1155.91" r="8.15"/>
		<circle fill="#012B48" cx="2066.4" cy="1093.28" r="18.47"/>
		<circle fill="#012B48" cx="1996.14" cy="971.23" r="9.18"/>
		<circle fill="#012B48" cx="2337.55" cy="1155.91" r="4.12"/>
		<circle fill="#012B48" cx="2458.37" cy="1014.42" r="20.76"/>
		<circle fill="#012B48" cx="2631.38" cy="965.05" r="15.51"/>
		<circle fill="#012B48" cx="2639.29" cy="778.37" r="12.6"/>
		<circle fill="#012B48" cx="2452.5" cy="983.09" r="14.9"/>
		<circle fill="#012B48" cx="1527.66" cy="1111.31" r="18.02"/>
		<circle fill="#012B48" cx="1124.62" cy="464.53" r="4.89"/>
		<circle fill="#012B48" cx="1599.83" cy="261.76" r="18.17"/>
		<circle fill="#012B48" cx="2002.72" cy="277.27" r="15.51"/>
		<circle fill="#012B48" cx="1969.07" cy="401.91" r="8.17"/>
		<circle fill="#012B48" cx="2030.4" cy="360.64" r="16.56"/>
		<circle fill="#012B48" cx="2071.05" cy="241.27" r="9.65"/>
		<circle fill="#012B48" cx="2270.92" cy="167.59" r="4.58"/>
		<circle fill="#012B48" cx="1614.18" cy="218.96" r="14.61"/>
		<circle fill="#012B48" cx="1612.74" cy="433.06" r="12.91"/>
	</g>
	<g id="_x2D_.rectBgAnim-">
		<polygon fill="#00C0F2" points="947.08,1000.38 1194.51,1247.8 1379.74,1139.64 		"/>
		<polygon fill="#00C0F2" points="2750.29,473 2997.72,720.43 3182.95,612.26 		"/>
		<polygon fill="#00C0F2" points="154,801.85 179.69,939.76 255.4,970.86 		"/>
		<polygon fill="#00C0F2" points="2164.15,936.02 2189.84,1073.93 2265.55,1105.03 		"/>
	</g>
</g>
</svg>
