<?xml version="1.0" encoding="utf-8"?>
<!-- Generator: Adobe Illustrator 24.1.2, SVG Export Plug-In . SVG Version: 6.00 Build 0)  -->
<svg version="1.1" id="dotAndLineASvg" xmlns="http://www.w3.org/2000/svg" xmlns:xlink="http://www.w3.org/1999/xlink" x="0px"
	 y="0px" width="3224px" height="2370px" viewBox="0 0 3224 2370" enable-background="new 0 0 3224 2370" xml:space="preserve">
<g opacity="0.5">
	<g id="_x2D_.dotAndLine-">
		<g id="_x2D_.lines-">
			<polyline fill="none" stroke="#012B48" stroke-miterlimit="10" stroke-dasharray="12" stroke-dashoffset="1" points="
				815,1455.38 767.6,1448.24 554.14,1401.38 212,1530.06 			"/>
			<polyline fill="none" stroke="#012B48" stroke-miterlimit="10" stroke-dasharray="12" stroke-dashoffset="1" points="
				670.89,1605.25 533.01,1531.92 467.6,1766.42 670.89,1614.25 572.63,2054.1 467.6,1766.42 440.61,2060.28 257.96,1984.3 
				467.6,1766.42 269.82,1708.12 533.01,1549.91 			"/>
			<polyline fill="none" stroke="#012B48" stroke-miterlimit="10" stroke-dasharray="12" stroke-dashoffset="1" points="
				313.63,1784.41 212,1557.82 139.99,2010.23 257.96,1984.3 223.86,1605.25 			"/>
			<polyline fill="none" stroke="#012B48" stroke-miterlimit="10" stroke-dasharray="12" stroke-dashoffset="1" points="
				139.99,2010.23 62.64,2057.42 351.17,2239.24 257.96,1984.3 			"/>
			<polyline fill="none" stroke="#012B48" stroke-miterlimit="10" stroke-dasharray="12" stroke-dashoffset="1" points="
				431.62,2081.47 367.24,2231.3 572.63,2062.28 679.88,2100.2 382.56,2231.3 			"/>
			<polyline fill="none" stroke="#012B48" stroke-miterlimit="10" stroke-dasharray="12" stroke-dashoffset="1" points="
				572.63,2062.28 791.99,1840.4 679.88,2100.2 721.62,2100.42 791.99,1840.4 717.67,1748.43 788.74,1805.43 1019.9,1807.7 
				989.6,1648.53 			"/>
			<polyline fill="none" stroke="#012B48" stroke-miterlimit="10" stroke-dasharray="12" stroke-dashoffset="1" points="815,2231.3 
				721.62,2100.42 1019.9,1807.7 1115.16,2271.69 1215.07,1816.54 1337.02,2174.39 1135.07,2319.18 			"/>
			
				<line fill="none" stroke="#012B48" stroke-miterlimit="10" stroke-dasharray="12" stroke-dashoffset="1" x1="791.99" y1="1840.4" x2="1110.31" y2="2248.06"/>
			<polyline fill="none" stroke="#012B48" stroke-miterlimit="10" stroke-dasharray="12" stroke-dashoffset="1" points="
				791.99,1840.4 1019.9,1807.7 1215.07,1816.55 			"/>
			<polyline fill="none" stroke="#012B48" stroke-miterlimit="10" stroke-dasharray="12" stroke-dashoffset="1" points="
				1337.02,2183.23 1528.16,2116.57 1460.27,1873.39 			"/>
			<polyline fill="none" stroke="#012B48" stroke-miterlimit="10" stroke-dasharray="12" stroke-dashoffset="1" points="
				1600.33,2215.01 1528.16,2116.57 1924.44,2161.17 1949.71,2222.67 2066.9,2098.55 1924.44,2161.17 1675.12,1920.5 
				1613.24,1438.33 1600.33,1267.03 1332.65,1318.2 			"/>
			
				<line fill="none" stroke="#012B48" stroke-miterlimit="10" stroke-dasharray="12" stroke-dashoffset="1" x1="1528.16" y1="2116.57" x2="1675.12" y2="1920.5"/>
			<polyline fill="none" stroke="#012B48" stroke-miterlimit="10" stroke-dasharray="12" stroke-dashoffset="1" points="
				1937.65,2134.59 2142.26,1920.5 2384.25,1877.92 2338.05,2161.17 2066.9,2098.55 2384.25,1877.92 			"/>
			<polyline fill="none" stroke="#012B48" stroke-miterlimit="10" stroke-dasharray="12" stroke-dashoffset="1" points="
				2066.9,2098.55 2107.54,2234.45 2338.05,2161.17 2225.56,2280.88 			"/>
			<polyline fill="none" stroke="#012B48" stroke-miterlimit="10" stroke-dasharray="12" stroke-dashoffset="1" points="
				1996.64,1976.49 1903.76,1877.99 1971.19,1841.65 			"/>
			<polyline fill="none" stroke="#012B48" stroke-miterlimit="10" stroke-dasharray="12" stroke-dashoffset="1" points="
				2057.24,1813 2142.26,1920.5 2338.05,1781.47 2197.88,1718.28 			"/>
			<polyline fill="none" stroke="#012B48" stroke-miterlimit="10" stroke-dasharray="12" stroke-dashoffset="1" points="
				2152.42,1697.97 2225.56,1583.24 2125.55,1517.09 			"/>
			<polygon fill="none" stroke="#012B48" stroke-miterlimit="10" stroke-dasharray="12" stroke-dashoffset="1" points="
				2003.22,1287.83 1969.57,1407.17 2030.9,1365.9 			"/>
			<polyline fill="none" stroke="#012B48" stroke-miterlimit="10" stroke-dasharray="12" stroke-dashoffset="1" points="
				2338.05,1781.47 2384.25,1877.92 2484.53,1826.7 2525.99,1663.78 2474.37,1631.38 			"/>
			<polyline fill="none" stroke="#012B48" stroke-miterlimit="10" stroke-dasharray="12" stroke-dashoffset="1" points="
				2384.25,1877.92 2604.22,1818.54 2631.88,1970.31 2661.81,1826.7 2639.79,1783.64 2551.53,1447.13 2488.49,1455.09 
				2639.79,1783.64 			"/>
			<polyline fill="none" stroke="#012B48" stroke-miterlimit="10" stroke-dasharray="12" stroke-dashoffset="1" points="
				2338.05,2161.17 2458.87,2019.68 2631.88,1970.31 2754.35,2140.03 2687.09,1988.35 2882.84,2000.41 2754.35,2140.03 
				2534.9,2232.11 			"/>
			<polyline fill="none" stroke="#012B48" stroke-miterlimit="10" stroke-dasharray="12" stroke-dashoffset="1" points="
				2687.09,1988.35 2840.79,1870.12 2639.79,1783.64 2806.82,1697.97 2796.66,1648.39 2751.67,1428.29 2640.32,1791.63 
				2796.66,1648.39 3174.22,1608.37 2806.82,1697.97 2840.79,1870.12 3161.46,1607.86 2882.84,2000.41 3053.04,2025.72 
				3155.14,1613.02 			"/>
			<polyline fill="none" stroke="#012B48" stroke-miterlimit="10" stroke-dasharray="12" stroke-dashoffset="1" points="
				2394.35,2249.09 2458.87,2019.68 2754.35,2140.03 2716.05,2305.39 			"/>
			<polyline fill="none" stroke="#012B48" stroke-miterlimit="10" stroke-dasharray="12" stroke-dashoffset="1" points="3042,1998 
				2750.28,1432.83 3155.14,1613.02 2887.43,1377.2 2750.28,1432.83 2854.76,1241.47 2887.43,1377.2 3026.38,1131.86 
				2816.98,945.05 2854.76,1226.54 			"/>
			<polyline fill="none" stroke="#012B48" stroke-miterlimit="10" stroke-dasharray="12" stroke-dashoffset="1" points="
				2796.66,1648.39 2887.43,1377.2 3053.04,2025.72 3108.99,2215.77 			"/>
			<polyline fill="none" stroke="#012B48" stroke-miterlimit="10" stroke-dasharray="12" stroke-dashoffset="1" points="
				2816.98,945.05 2947.52,640.14 2699.94,582.19 			"/>
			
				<line fill="none" stroke="#012B48" stroke-miterlimit="10" stroke-dasharray="12" stroke-dashoffset="1" x1="3171.03" y1="406.2" x2="2770.57" y2="417.82"/>
			<polyline fill="none" stroke="#012B48" stroke-miterlimit="10" stroke-dasharray="12" stroke-dashoffset="1" points="
				2610.47,233.55 2471.07,413.55 2501.2,573.61 			"/>
			<polyline fill="none" stroke="#012B48" stroke-miterlimit="10" stroke-dasharray="12" stroke-dashoffset="1" points="
				2152.43,372.16 2471.07,413.55 2271.15,573.61 			"/>
			
				<line fill="none" stroke="#012B48" stroke-miterlimit="10" stroke-dasharray="12" stroke-dashoffset="1" x1="2273.15" y1="600.61" x2="2200.44" y2="862.91"/>
			<polyline fill="none" stroke="#012B48" stroke-miterlimit="10" stroke-dasharray="12" stroke-dashoffset="1" points="
				2126.53,68.15 2291.33,220.71 2014.82,305.47 2042.47,164.49 2282.75,220.71 			"/>
			
				<line fill="none" stroke="#012B48" stroke-miterlimit="10" stroke-dasharray="12" stroke-dashoffset="1" x1="877.37" y1="1075.26" x2="1125.12" y2="1469.79"/>
		</g>
		<g id="_x2D_.dots-">
			<circle fill="#012B48" cx="877.37" cy="1075.26" r="19.91"/>
			<circle fill="#012B48" cx="767.6" cy="1448.24" r="19.94"/>
			<circle fill="#012B48" cx="815" cy="1455.38" r="16.62"/>
			<circle fill="#012B48" cx="554.14" cy="1401.38" r="16.62"/>
			<circle fill="#012B48" cx="212" cy="1530.06" r="14.8"/>
			<circle fill="#012B48" cx="62.64" cy="2057.42" r="11.86"/>
			<circle fill="#012B48" cx="139.99" cy="2010.23" r="11.14"/>
			<circle fill="#012B48" cx="257.96" cy="1984.3" r="7.1"/>
			<circle fill="#012B48" cx="330.9" cy="1795.31" r="5.37"/>
			<circle fill="#012B48" cx="467.6" cy="1766.42" r="15.05"/>
			<circle fill="#012B48" cx="533.01" cy="1540.91" r="8.99"/>
			<circle fill="#012B48" cx="670.89" cy="1605.25" r="11.93"/>
			<circle fill="#012B48" cx="440.61" cy="2060.28" r="13.75"/>
			<circle fill="#012B48" cx="788.74" cy="1805.43" r="13.75"/>
			<circle fill="#012B48" cx="791.99" cy="1840.4" r="17.95"/>
			<circle fill="#012B48" cx="717.67" cy="1748.43" r="15.01"/>
			<circle fill="#012B48" cx="989.6" cy="1648.53" r="12.07"/>
			<circle fill="#012B48" cx="1019.9" cy="1807.7" r="6.53"/>
			<circle fill="#012B48" cx="1215.07" cy="1816.54" r="4.09"/>
			<circle fill="#012B48" cx="1337.02" cy="2183.23" r="5.9"/>
			<circle fill="#012B48" cx="572.63" cy="2062.28" r="14.18"/>
			<circle fill="#012B48" cx="679.88" cy="2100.2" r="17.12"/>
			<circle fill="#012B48" cx="721.62" cy="2100.42" r="23.71"/>
			<circle fill="#012B48" cx="1332.65" cy="1318.2" r="17.97"/>
			<circle fill="#012B48" cx="1460.27" cy="1873.39" r="16.15"/>
			<circle fill="#012B48" cx="1675.12" cy="1920.5" r="13.21"/>
			<circle fill="#012B48" cx="1903.76" cy="1877.99" r="10.27"/>
			<circle fill="#012B48" cx="1971.19" cy="1841.65" r="5.4"/>
			<circle fill="#012B48" cx="2338.05" cy="1781.47" r="5.4"/>
			<circle fill="#012B48" cx="2484.53" cy="1826.7" r="7.22"/>
			<circle fill="#012B48" cx="2604.22" cy="1818.54" r="10.16"/>
			<circle fill="#012B48" cx="2661.81" cy="1826.7" r="13.1"/>
			<circle fill="#012B48" cx="2806.82" cy="1697.97" r="14.91"/>
			<circle fill="#012B48" cx="2796.66" cy="1648.39" r="14.91"/>
			<circle fill="#012B48" cx="2887.43" cy="1377.2" r="13.1"/>
			<circle fill="#012B48" cx="2816.98" cy="945.05" r="10.16"/>
			<circle fill="#012B48" cx="2947.52" cy="640.14" r="11.38"/>
			<circle fill="#012B48" cx="2770.57" cy="417.82" r="12.36"/>
			<circle fill="#012B48" cx="2699.94" cy="582.19" r="3.82"/>
			<circle fill="#012B48" cx="2501.2" cy="573.61" r="5.64"/>
			<circle fill="#012B48" cx="2271.15" cy="573.61" r="8.58"/>
			<circle fill="#012B48" cx="2197.88" cy="862.91" r="11.51"/>
			<circle fill="#012B48" cx="2152.43" cy="372.16" r="13.33"/>
			<circle fill="#012B48" cx="2014.82" cy="305.47" r="13.33"/>
			<circle fill="#012B48" cx="2291.33" cy="220.71" r="11.51"/>
			<circle fill="#012B48" cx="2042.47" cy="164.49" r="11.95"/>
			<circle fill="#012B48" cx="2471.07" cy="413.55" r="9.91"/>
			<circle fill="#012B48" cx="2126.53" cy="68.15" r="12.57"/>
			<circle fill="#012B48" cx="2610.47" cy="233.55" r="8.09"/>
			<circle fill="#012B48" cx="2273.15" cy="600.61" r="9.91"/>
			<circle fill="#012B48" cx="2840.79" cy="1870.12" r="13.96"/>
			<circle fill="#012B48" cx="2687.09" cy="1988.35" r="13.1"/>
			<circle fill="#012B48" cx="2754.35" cy="2140.03" r="17.69"/>
			<circle fill="#012B48" cx="2882.84" cy="2000.41" r="15.8"/>
			<circle fill="#012B48" cx="3053.04" cy="2025.72" r="13.98"/>
			<circle fill="#012B48" cx="2474.37" cy="1631.38" r="10.16"/>
			<circle fill="#012B48" cx="2551.53" cy="1447.13" r="7.22"/>
			<circle fill="#012B48" cx="2488.49" cy="1455.09" r="13.36"/>
			<circle fill="#012B48" cx="2751.67" cy="1428.29" r="13.36"/>
			<circle fill="#012B48" cx="3026.38" cy="1131.86" r="15.18"/>
			<circle fill="#012B48" cx="2525.99" cy="1663.78" r="15.38"/>
			<circle fill="#012B48" cx="2197.88" cy="1718.28" r="13.1"/>
			<circle fill="#012B48" cx="2152.42" cy="1697.97" r="14.91"/>
			<circle fill="#012B48" cx="2225.56" cy="1583.24" r="19.67"/>
			<circle fill="#012B48" cx="2123.91" cy="1514.09" r="13.21"/>
			<circle fill="#012B48" cx="2057.24" cy="1813" r="13.7"/>
			<circle fill="#012B48" cx="2142.26" cy="1920.5" r="10.76"/>
			<circle fill="#012B48" cx="2384.25" cy="1877.92" r="13.01"/>
			<circle fill="#012B48" cx="1924.44" cy="2161.17" r="8.46"/>
			<circle fill="#012B48" cx="2066.9" cy="2098.55" r="10.27"/>
			<circle fill="#012B48" cx="1996.64" cy="1976.49" r="9.18"/>
			<circle fill="#012B48" cx="2338.05" cy="2161.17" r="12.12"/>
			<circle fill="#012B48" cx="2458.87" cy="2019.68" r="20.26"/>
			<circle fill="#012B48" cx="2631.88" cy="1970.31" r="20.26"/>
			<circle fill="#012B48" cx="2639.79" cy="1783.64" r="20.61"/>
			<circle fill="#012B48" cx="2453" cy="1988.35" r="9.64"/>
			<circle fill="#012B48" cx="1528.16" cy="2116.57" r="15.09"/>
			<circle fill="#012B48" cx="1125.12" cy="1469.79" r="5.2"/>
			<circle fill="#012B48" cx="1600.33" cy="1267.03" r="8.16"/>
			<circle fill="#012B48" cx="2003.22" cy="1282.54" r="12.57"/>
			<circle fill="#012B48" cx="1969.57" cy="1407.17" r="13.24"/>
			<circle fill="#012B48" cx="2030.9" cy="1365.9" r="14.24"/>
			<circle fill="#012B48" cx="2071.55" cy="1246.53" r="14.4"/>
			<circle fill="#012B48" cx="2271.42" cy="1172.85" r="14.4"/>
			<circle fill="#012B48" cx="1614.68" cy="1224.22" r="12.29"/>
			<circle fill="#012B48" cx="1613.24" cy="1438.33" r="12.91"/>
		</g>
	</g>
	<g id="_x2D_.rectBgAnim-">
		<polygon fill="#00C0F2" points="2246.02,94 2501.8,349.78 2693.28,237.96 		"/>
		<polygon fill="#00C0F2" points="1285.61,1966.56 1541.39,2222.34 1732.88,2110.53 		"/>
		<polygon fill="#00C0F2" points="2747.73,1923.35 3003.51,2179.13 3195,2067.32 		"/>
		<polygon fill="#00C0F2" points="299.24,1820.21 325.8,1962.78 404.07,1994.92 		"/>
	</g>
</g>
</svg>
