<?xml version="1.0" encoding="utf-8"?>
<!-- Generator: Adobe Illustrator 24.2.1, SVG Export Plug-In . SVG Version: 6.00 Build 0)  -->
<svg version="1.1" id="andThoseChoicesBgSvg" xmlns="http://www.w3.org/2000/svg" xmlns:xlink="http://www.w3.org/1999/xlink"
	 x="0px" y="0px" width="3840px" height="2160px" viewBox="0 0 3840 2160" enable-background="new 0 0 3840 2160"
	 xml:space="preserve">
<g id="_x2D_.bgScene-">
	<rect id="_x2D_.bgColor-" x="-7.43" y="-14" fill="#F2F2F2" width="3860" height="2188.53"/>
	<g id="_x2D_.moveElements-">
		<g>
			<g>
				<polygon fill="#00C0F2" points="633.27,-26.25 -5.43,-463.54 -5.43,2002.35 				"/>
				<rect x="-5.43" y="-25.96" fill="none" width="3859.51" height="2188.66"/>
			</g>
		</g>
		<g>
			<g>
				<polygon fill="#A4CD38" points="3856.08,268.96 3330.12,2162.7 4307.89,2225.68 				"/>
				<rect x="-5.43" y="-25.96" fill="none" width="3859.51" height="2188.66"/>
			</g>
		</g>
	</g>
</g>
<g id="_x2D_.lineBG-_2_">
	<polygon fill="#012B48" points="-35.57,1637.03 -40.08,1634.29 850.4,-98.22 854.91,-95.48 	"/>
	<rect x="-5.43" y="-25.96" fill="none" width="3859.51" height="2188.66"/>
</g>
<g id="_x2D_.lineBG-_1_">
	
		<rect x="3704.85" y="-144" transform="matrix(0.9969 0.0783 -0.0783 0.9969 95.9447 -286.9755)" fill="#012B48" width="5.28" height="2448"/>
	<rect x="-5.43" y="-25.96" fill="none" width="3859.51" height="2188.66"/>
</g>
<g id="_x2D_.lineBG-">
	<polygon fill="#A4CD38" points="2663.29,2327.67 2658.54,2325.38 4144.24,31.52 4148.99,33.82 	"/>
	<rect x="-5.43" y="-25.96" fill="none" width="3859.51" height="2188.66"/>
</g>
<rect x="-5.43" y="-25.96" fill="none" width="3859.51" height="2188.66"/>
</svg>
