<?xml version="1.0" encoding="utf-8"?>
<!-- Generator: Adobe Illustrator 24.2.1, SVG Export Plug-In . SVG Version: 6.00 Build 0)  -->
<svg version="1.1" id="andThoseChoicesSvg" xmlns="http://www.w3.org/2000/svg" xmlns:xlink="http://www.w3.org/1999/xlink" x="0px"
	 y="0px" width="3840px" height="2160px" viewBox="0 0 3840 2160" enable-background="new 0 0 3840 2160" xml:space="preserve">
<g id="_x2D_.contentScene-">
	<g id="_x2D_.moveElements-_2_">
		<g>
			<g>
				
					<line fill="none" stroke="#08274B" stroke-width="2" stroke-miterlimit="10" x1="2017.4" y1="1284.56" x2="3219.85" y2="1277.65"/>
				<circle fill="#08274B" cx="2009.77" cy="1284.56" r="8.66"/>
				<circle fill="#08274B" cx="3219.85" cy="1277.65" r="8.66"/>
				<rect fill="none" width="3840" height="2149.45"/>
			</g>
		</g>
		<g>
			<g>
				
					<line fill="none" stroke="#08274B" stroke-width="2" stroke-miterlimit="10" x1="2724.54" y1="1529.41" x2="2730.07" y2="1564.2"/>
				
					<line fill="none" stroke="#08274B" stroke-width="2" stroke-miterlimit="10" x1="2856.07" y1="1475.75" x2="2878.36" y2="1527.39"/>
				<polyline fill="none" stroke="#08274B" stroke-width="2" stroke-miterlimit="10" points="2798.69,1294.63 2844.55,1371.99 
					2745.77,1374.15 2807.59,1421.19 2690.09,1445.17 2722.96,1529.23 2663.69,1546.28 2655.22,1683.75 2655.22,1749.37 
					2520.81,1821.34 				"/>
				<polyline fill="none" stroke="#08274B" stroke-width="2" stroke-miterlimit="10" points="2297.5,1870.02 2369.46,1859.44 
					2420.16,1850.97 2428.73,1757.84 2511.28,1637.18 2521.78,1709.15 2530.33,1749.37 2520.81,1821.34 2420.16,1850.97 
					2346.18,1925.06 2272.09,1937.76 				"/>
				<polyline fill="none" stroke="#08274B" stroke-width="2" stroke-miterlimit="10" points="2961.57,1293.73 2994.96,1369.89 
					2883.83,1429.08 2818.78,1433.15 2855.37,1474.2 2786.46,1546.28 2720.84,1569.45 2659.09,1620.87 				"/>
				<polyline fill="none" stroke="#08274B" stroke-width="2" stroke-miterlimit="10" points="2914.49,1320.82 2885.94,1423.78 
					2914.49,1486.61 				"/>
				<polyline fill="none" stroke="#08274B" stroke-width="2" stroke-miterlimit="10" points="2814.64,1433.15 2761.06,1522.88 
					2732.83,1565.21 2767.05,1647.77 2657.71,1747.72 				"/>
				<polyline fill="none" stroke="#08274B" stroke-width="2" stroke-miterlimit="10" points="2900.21,1510.81 2797.04,1590.44 
					2732.83,1565.21 				"/>
				
					<line fill="none" stroke="#08274B" stroke-width="2" stroke-miterlimit="10" x1="2826.19" y1="1614.96" x2="2768.88" y2="1646.38"/>
				<polyline fill="none" stroke="#08274B" stroke-width="2" stroke-miterlimit="10" points="2398.45,1926.03 2520.81,1821.34 
					2541.49,1899.59 				"/>
				<polyline fill="none" stroke="#08274B" stroke-width="2" stroke-miterlimit="10" points="2523.43,1822.72 2685.44,1784.55 
					2768.88,1645.5 				"/>
				
					<line fill="none" stroke="#08274B" stroke-width="2" stroke-miterlimit="10" x1="2657.71" y1="1749.13" x2="2546" y2="1896.07"/>
				<polyline fill="none" stroke="#08274B" stroke-width="2" stroke-miterlimit="10" points="2578.2,1634.82 2523.43,1705.89 
					2608.77,1714.44 2654.13,1747.24 				"/>
				<polyline fill="none" stroke="#08274B" stroke-width="2" stroke-miterlimit="10" points="2580.49,1635.8 2656.11,1623.76 
					2608.77,1714.44 2531.48,1758.89 				"/>
				
					<line fill="none" stroke="#08274B" stroke-width="2" stroke-miterlimit="10" x1="2430.29" y1="1757.51" x2="2517.96" y2="1818.49"/>
				<polyline fill="none" stroke="#08274B" stroke-width="2" stroke-miterlimit="10" points="2881.3,1524.62 2885.44,1431.71 
					2857.45,1472.23 				"/>
				<polyline fill="none" stroke="#08274B" stroke-width="2" stroke-miterlimit="10" points="2920.63,1319.12 2991.37,1371.09 
					3001.3,1289.59 				"/>
				
					<line fill="none" stroke="#08274B" stroke-width="2" stroke-miterlimit="10" x1="2786.46" y1="1546.28" x2="2798.92" y2="1590.12"/>
				<polyline fill="none" stroke="#08274B" stroke-width="2" stroke-miterlimit="10" points="3021.71,1331.09 3027.78,1356.36 
					2977.61,1395.06 				"/>
				
					<line fill="none" stroke="#08274B" stroke-width="2" stroke-miterlimit="10" x1="2579.02" y1="1637.18" x2="2608.29" y2="1715.09"/>
				
					<line fill="none" stroke="#08274B" stroke-width="2" stroke-miterlimit="10" x1="2658.01" y1="1622.75" x2="2767.05" y2="1647.77"/>
				
					<line fill="none" stroke="#08274B" stroke-width="2" stroke-miterlimit="10" x1="2798.92" y1="1590.12" x2="2768.88" y2="1645.5"/>
				
					<line fill="none" stroke="#08274B" stroke-width="2" stroke-miterlimit="10" x1="2798.92" y1="1590.12" x2="2826.19" y2="1614.96"/>
				<line fill="none" stroke="#08274B" stroke-width="2" stroke-miterlimit="10" x1="2786.46" y1="1546.8" x2="2878.36" y2="1525"/>
				
					<line fill="none" stroke="#08274B" stroke-width="2" stroke-miterlimit="10" x1="2818.78" y1="1433.15" x2="2786.46" y2="1546.8"/>
				<polyline fill="none" stroke="#08274B" stroke-width="2" stroke-miterlimit="10" points="2521.68,1706.43 2430.53,1758.89 
					2531.48,1758.89 				"/>
				
					<line fill="none" stroke="#08274B" stroke-width="2" stroke-miterlimit="10" x1="2531.48" y1="1758.89" x2="2647.45" y2="1747.72"/>
				<polyline fill="none" stroke="#08274B" stroke-width="3" stroke-miterlimit="10" points="1290.33,2349.47 2131.73,1789.2 
					2196.21,1694.02 2269.9,1635.68 2309.82,1574.27 2309.82,1485.22 2309.82,1426.88 2272.97,1390.03 2190.07,1347.05 
					2211.56,1313.27 2276.04,1288.71 2368.16,1334.76 2426.5,1433.02 2447.99,1500.57 2472.56,1534.35 2521.69,1549.7 
					2552.39,1469.87 2552.39,1343.98 2616.87,1288.71 2693.64,1307.13 2647.58,1377.75 2645.12,1497.35 2721.27,1405.39 
					2761.19,1337.83 2804.18,1288.71 2862.52,1288.71 2880.94,1325.55 2749.21,1507.79 2923.93,1310.2 2973.06,1288.71 
					3016.05,1288.71 3045.22,1297 2862.52,1561.98 2727.41,1755.43 2647.58,1816.84 2541.49,1899.59 2397.33,1927.38 2285.26,1998 
					1859.99,2380.74 				"/>
				<polyline fill="none" stroke="#08274B" stroke-width="3" stroke-miterlimit="10" points="2858.13,1569.45 3067.77,1304.86 
					3045.22,1288.71 3016.05,1288.71 				"/>
				<circle fill="#08274B" cx="2541.49" cy="1897.26" r="8.66"/>
				<circle fill="#08274B" cx="2686.13" cy="1784.44" r="8.66"/>
				<circle fill="#08274B" cx="2768.88" cy="1646.38" r="8.66"/>
				<circle fill="#08274B" cx="2826.19" cy="1614.96" r="8.66"/>
				<circle fill="#08274B" cx="2798.92" cy="1590.12" r="8.66"/>
				<circle fill="#08274B" cx="2786.46" cy="1546.8" r="8.66"/>
				<circle fill="#08274B" cx="2730.07" cy="1564.2" r="8.66"/>
				<circle fill="#08274B" cx="2856.07" cy="1475.75" r="8.66"/>
				<circle fill="#08274B" cx="2878.36" cy="1525" r="8.66"/>
				<circle fill="#08274B" cx="2887.01" cy="1424.5" r="8.66"/>
				<circle fill="#08274B" cx="2814.64" cy="1431.71" r="8.66"/>
				<circle fill="#08274B" cx="2914.49" cy="1319.43" r="8.66"/>
				<circle fill="#08274B" cx="2960.97" cy="1289.59" r="8.66"/>
				<circle fill="#08274B" cx="3001.3" cy="1285.97" r="8.66"/>
				<circle fill="#08274B" cx="2992.65" cy="1369.64" r="8.66"/>
				<circle fill="#08274B" cx="3027.78" cy="1356.36" r="8.66"/>
				<circle fill="#08274B" cx="2844.55" cy="1374" r="8.66"/>
				<circle fill="#08274B" cx="2520.81" cy="1821.34" r="8.66"/>
				<circle fill="#08274B" cx="2530.33" cy="1755.12" r="8.66"/>
				<circle fill="#08274B" cx="2616.94" cy="1800.27" r="8.66"/>
				<circle fill="#08274B" cx="2656.11" cy="1747.72" r="8.66"/>
				<circle fill="#08274B" cx="2608.29" cy="1715.09" r="8.66"/>
				<circle fill="#08274B" cx="2658.01" cy="1623.76" r="8.66"/>
				<rect fill="none" width="3840" height="2149.45"/>
			</g>
		</g>
		<g>
			<g>
				<polyline fill="none" stroke="#08274B" stroke-width="2" stroke-miterlimit="10" points="2647.14,1378.3 2619.15,1398.82 
					2615,1450.91 2579.02,1505.95 2631.94,1580.03 2579.02,1637.18 2512.37,1638.56 				"/>
				
					<line fill="none" stroke="#08274B" stroke-width="2" stroke-miterlimit="10" x1="2566.82" y1="1333.61" x2="2617.77" y2="1397.08"/>
				<polyline fill="none" stroke="#08274B" stroke-width="2" stroke-miterlimit="10" points="2581.24,1507.05 2641.61,1505.28 
					2719.93,1525 				"/>
				
					<line fill="none" stroke="#08274B" stroke-width="2" stroke-miterlimit="10" x1="2615.91" y1="1450.39" x2="2644.46" y2="1472.23"/>
				<polyline fill="none" stroke="#08274B" stroke-width="2" stroke-miterlimit="10" points="2616.94,1399.57 2552.95,1474.42 
					2578.52,1505.77 				"/>
				<polyline fill="none" stroke="#08274B" stroke-width="2" stroke-miterlimit="10" points="2578.2,1509.61 2513.81,1580.77 
					2578.2,1634.82 				"/>
				<polyline fill="none" stroke="#08274B" stroke-width="2" stroke-miterlimit="10" points="2798.92,1298.29 2798.92,1378 
					2809.74,1420.3 				"/>
				
					<line fill="none" stroke="#08274B" stroke-width="2" stroke-miterlimit="10" x1="2724.54" y1="1528" x2="2749.97" y2="1506.66"/>
				<polyline fill="none" stroke="#08274B" stroke-width="2" stroke-miterlimit="10" points="2643.08,1505.58 2661.86,1548.1 
					2632.76,1579.62 				"/>
				
					<line fill="none" stroke="#08274B" stroke-width="2" stroke-miterlimit="10" x1="2722.69" y1="1530.86" x2="2658.01" y2="1618.34"/>
				
					<line fill="none" stroke="#08274B" stroke-width="2" stroke-miterlimit="10" x1="2513.81" y1="1582.15" x2="2511.28" y2="1637.18"/>
				
					<line fill="none" stroke="#08274B" stroke-width="2" stroke-miterlimit="10" x1="2513.81" y1="1580.77" x2="2631.94" y2="1580.03"/>
				
					<line fill="none" stroke="#08274B" stroke-width="2" stroke-miterlimit="10" x1="2579.02" y1="1505.95" x2="2663.69" y2="1546.28"/>
				
					<line fill="none" stroke="#08274B" stroke-width="2" stroke-miterlimit="10" x1="2616.87" y1="1293.58" x2="2617.77" y2="1392.57"/>
				
					<line fill="none" stroke="#08274B" stroke-width="2" stroke-miterlimit="10" x1="2618.13" y1="1291.79" x2="2646.15" y2="1374.69"/>
				<polyline fill="none" stroke="#08274B" stroke-width="3" stroke-miterlimit="10" points="2383.37,1571.27 2269.9,1635.68 
					2253.04,1673.17 2318.54,1695.45 2408.83,1678.52 2479.53,1643.53 2517.63,1569.45 2521.78,1546.28 				"/>
				<circle fill="#08274B" cx="2798.92" cy="1374" r="8.66"/>
				<circle fill="#08274B" cx="2798.69" cy="1294.63" r="8.66"/>
				<circle fill="#08274B" cx="2741.49" cy="1374" r="8.66"/>
				<circle fill="#08274B" cx="2807.57" cy="1420.3" r="8.66"/>
				<circle fill="#08274B" cx="2691.34" cy="1444" r="8.66"/>
				<circle fill="#08274B" cx="2724.54" cy="1527.39" r="8.66"/>
				<circle fill="#08274B" cx="2644.46" cy="1501.57" r="8.66"/>
				<circle fill="#08274B" cx="2579.02" cy="1505.95" r="8.66"/>
				<circle fill="#08274B" cx="2615.91" cy="1450.39" r="8.66"/>
				<circle fill="#08274B" cx="2617.77" cy="1397.08" r="8.66"/>
				<circle fill="#08274B" cx="2616.87" cy="1290.45" r="8.66"/>
				<circle fill="#08274B" cx="2550.15" cy="1472.23" r="8.66"/>
				<circle fill="#08274B" cx="2565.44" cy="1330.85" r="8.66"/>
				<circle fill="#08274B" cx="2647.45" cy="1379.38" r="8.66"/>
				<circle fill="#08274B" cx="2512.15" cy="1581.46" r="8.66"/>
				<circle fill="#08274B" cx="2511.28" cy="1637.18" r="8.66"/>
				<circle fill="#08274B" cx="2661.86" cy="1546.8" r="8.66"/>
				<circle fill="#08274B" cx="2521.68" cy="1706.43" r="8.66"/>
				<circle fill="#08274B" cx="2578.2" cy="1634.82" r="8.66"/>
				<circle fill="#08274B" cx="2632.76" cy="1579.62" r="8.66"/>
				<rect fill="none" width="3840" height="2149.45"/>
			</g>
		</g>
		<g>
			<g>
				<polyline fill="none" stroke="#08274B" stroke-width="2" stroke-miterlimit="10" points="1737.3,2054.28 2077,1948.43 
					2164.14,1806.7 2242.46,1784.55 2297.5,1749.37 2297.5,1709.15 				"/>
				<polyline fill="none" stroke="#08274B" stroke-width="2" stroke-miterlimit="10" points="2008.39,2247.73 2098.52,2013.96 
					2185.31,1952.57 2223.04,1969.51 2272.09,1937.76 2297.5,1870.02 2284.8,1784.55 2297.5,1749.37 				"/>
				<polyline fill="none" stroke="#08274B" stroke-width="2" stroke-miterlimit="10" points="2368.16,1334.76 2318.54,1408.58 
					2401.21,1472.08 2386.4,1569.45 2318.54,1693.42 				"/>
				
					<line fill="none" stroke="#08274B" stroke-width="2" stroke-miterlimit="10" x1="2239.29" y1="1326.03" x2="2317.19" y2="1407.86"/>
				
					<line fill="none" stroke="#08274B" stroke-width="2" stroke-miterlimit="10" x1="2243.37" y1="1326.03" x2="2365.41" y2="1336.15"/>
				
					<line fill="none" stroke="#08274B" stroke-width="2" stroke-miterlimit="10" x1="2425.15" y1="1435.86" x2="2401.21" y2="1469.46"/>
				<polyline fill="none" stroke="#08274B" stroke-width="2" stroke-miterlimit="10" points="2448.75,1505.47 2444.61,1614.96 
					2484.74,1630.67 				"/>
				<polyline fill="none" stroke="#08274B" stroke-width="2" stroke-miterlimit="10" points="2447.99,1500.57 2385.84,1572.21 
					2444.43,1613.4 				"/>
				<polyline fill="none" stroke="#08274B" stroke-width="2" stroke-miterlimit="10" points="2244.75,1784.47 2216,1847.8 
					2296.91,1869.61 				"/>
				<polyline fill="none" stroke="#08274B" stroke-width="2" stroke-miterlimit="10" points="2253.69,1675.14 2243.37,1782.41 
					2191.34,1756.13 2135.65,1787.47 				"/>
				
					<line fill="none" stroke="#08274B" stroke-width="2" stroke-miterlimit="10" x1="2134.27" y1="1787.97" x2="2164.38" y2="1805.37"/>
				
					<line fill="none" stroke="#08274B" stroke-width="2" stroke-miterlimit="10" x1="2298.86" y1="1873.43" x2="2345.68" y2="1923.17"/>
				<polyline fill="none" stroke="#08274B" stroke-width="2" stroke-miterlimit="10" points="2455.51,1658.2 2425.15,1725.03 
					2393.81,1736.18 2365.41,1852.03 2427.97,1760.45 				"/>
				
					<line fill="none" stroke="#08274B" stroke-width="2" stroke-miterlimit="10" x1="2285.85" y1="1782.44" x2="2362.64" y2="1857.56"/>
				
					<line fill="none" stroke="#08274B" stroke-width="2" stroke-miterlimit="10" x1="2430.53" y1="1758.29" x2="2456.28" y2="1655.1"/>
				<polyline fill="none" stroke="#08274B" stroke-width="2" stroke-miterlimit="10" points="2300.24,1712 2392.75,1737.52 
					2408.83,1678.52 				"/>
				<polyline fill="none" stroke="#08274B" stroke-width="2" stroke-miterlimit="10" points="2193.29,1346.78 2238.79,1328.08 
					2288.62,1405.46 				"/>
				
					<line fill="none" stroke="#08274B" stroke-width="2" stroke-miterlimit="10" x1="2240.52" y1="1326.35" x2="2295.53" y2="1297.86"/>
				<polyline fill="none" stroke="#08274B" stroke-width="2" stroke-miterlimit="10" points="2322.27,1410.62 2311.67,1486.61 
					2397.08,1474.23 				"/>
				<polyline fill="none" stroke="#08274B" stroke-width="2" stroke-miterlimit="10" points="2313.05,1489.52 2385.49,1569.45 
					2311.81,1572.21 				"/>
				<polyline fill="none" stroke="#08274B" stroke-width="2" stroke-miterlimit="10" points="1975.4,1980.09 1737.3,2162.13 
					1737.3,2284.02 				"/>
				
					<line fill="none" stroke="#08274B" stroke-width="2" stroke-miterlimit="10" x1="2296.2" y1="1873.43" x2="2187.13" y2="1951.57"/>
				
					<line fill="none" stroke="#08274B" stroke-width="2" stroke-miterlimit="10" x1="2344.97" y1="1926.7" x2="2268.02" y2="2012.37"/>
				<polyline fill="none" stroke="#08274B" stroke-width="2" stroke-miterlimit="10" points="2098.73,2014.87 1901.67,2206.58 
					1768.32,2284.02 				"/>
				
					<line fill="none" stroke="#08274B" stroke-width="2" stroke-miterlimit="10" x1="1740.98" y1="2164.51" x2="1904.73" y2="2203.64"/>
				<polyline fill="none" stroke="#08274B" stroke-width="2" stroke-miterlimit="10" points="2273.55,1937.55 2248.9,2028.69 
					2186.38,1953.84 				"/>
				
					<line fill="none" stroke="#08274B" stroke-width="2" stroke-miterlimit="10" x1="2224.44" y1="1969.3" x2="2250.28" y2="2026.18"/>
				
					<line fill="none" stroke="#08274B" stroke-width="2" stroke-miterlimit="10" x1="1892.29" y1="1951.57" x2="2073.71" y2="1948.81"/>
				
					<line fill="none" stroke="#08274B" stroke-width="2" stroke-miterlimit="10" x1="2076.62" y1="1948.81" x2="2186.49" y2="1951.57"/>
				
					<line fill="none" stroke="#08274B" stroke-width="2" stroke-miterlimit="10" x1="2216.78" y1="1850.27" x2="2079.39" y2="1947.43"/>
				
					<line fill="none" stroke="#08274B" stroke-width="2" stroke-miterlimit="10" x1="1734.18" y1="2164.51" x2="1287.32" y2="2353.11"/>
				
					<line fill="none" stroke="#08274B" stroke-width="2" stroke-miterlimit="10" x1="2297.48" y1="1710.84" x2="2317.19" y2="1695.64"/>
				
					<line fill="none" stroke="#08274B" stroke-width="2" stroke-miterlimit="10" x1="2443.41" y1="1615.34" x2="2409.03" y2="1676.49"/>
				
					<line fill="none" stroke="#08274B" stroke-width="2" stroke-miterlimit="10" x1="2191.91" y1="1755.53" x2="2253.04" y2="1673.76"/>
				
					<line fill="none" stroke="#08274B" stroke-width="2" stroke-miterlimit="10" x1="2076.62" y1="1947.43" x2="2098.52" y2="2013.96"/>
				<line fill="none" stroke="#08274B" stroke-width="2" stroke-miterlimit="10" x1="2077" y1="1948.43" x2="2296.2" y2="1869.61"/>
				
					<line fill="none" stroke="#08274B" stroke-width="2" stroke-miterlimit="10" x1="2242.46" y1="1784.55" x2="2285.85" y2="1784.44"/>
				
					<line fill="none" stroke="#08274B" stroke-width="2" stroke-miterlimit="10" x1="2242.46" y1="1784.55" x2="2296.2" y2="1869.61"/>
				
					<line fill="none" stroke="#08274B" stroke-width="2" stroke-miterlimit="10" x1="2098.73" y1="2014.87" x2="2248.95" y2="2030.46"/>
				
					<line fill="none" stroke="#08274B" stroke-width="2" stroke-miterlimit="10" x1="1972.2" y1="1983.12" x2="2098.73" y2="2014.87"/>
				
					<line fill="none" stroke="#08274B" stroke-width="2" stroke-miterlimit="10" x1="1972.2" y1="1983.12" x2="1904.73" y2="2203.64"/>
				
					<line fill="none" stroke="#08274B" stroke-width="2" stroke-miterlimit="10" x1="2164.74" y1="1805.37" x2="1892.2" y2="1951.18"/>
				<line fill="none" stroke="#08274B" stroke-width="2" stroke-miterlimit="10" x1="2164.74" y1="1805.37" x2="2216" y2="1847.8"/>
				
					<line fill="none" stroke="#08274B" stroke-width="2" stroke-miterlimit="10" x1="2191.91" y1="1758.66" x2="2164.74" y2="1805.37"/>
				
					<line fill="none" stroke="#08274B" stroke-width="2" stroke-miterlimit="10" x1="2253.04" y1="1673.17" x2="2196.21" y2="1694.02"/>
				
					<line fill="none" stroke="#08274B" stroke-width="2" stroke-miterlimit="10" x1="2196.21" y1="1694.02" x2="2191.91" y2="1755.53"/>
				<polyline fill="none" stroke="#08274B" stroke-width="2" stroke-miterlimit="10" points="2253.69,1675.14 2297.5,1709.15 
					2242.46,1786.94 				"/>
				
					<line fill="none" stroke="#08274B" stroke-width="2" stroke-miterlimit="10" x1="2297.5" y1="1749.37" x2="2392.75" y2="1737.52"/>
				
					<line fill="none" stroke="#08274B" stroke-width="2" stroke-miterlimit="10" x1="2297.5" y1="1749.37" x2="2365.41" y2="1857.56"/>
				
					<line fill="none" stroke="#08274B" stroke-width="2" stroke-miterlimit="10" x1="2392.75" y1="1737.52" x2="2430.53" y2="1758.89"/>
				
					<line fill="none" stroke="#08274B" stroke-width="2" stroke-miterlimit="10" x1="2322.27" y1="1410.62" x2="2426.5" y2="1433.02"/>
				
					<line fill="none" stroke="#08274B" stroke-width="2" stroke-miterlimit="10" x1="2397.08" y1="1474.23" x2="2448.93" y2="1501.57"/>
				
					<line fill="none" stroke="#08274B" stroke-width="2" stroke-miterlimit="10" x1="2269.9" y1="1635.68" x2="2318.54" y2="1693.42"/>
				
					<line fill="none" stroke="#08274B" stroke-width="2" stroke-miterlimit="10" x1="2420.16" y1="1850.97" x2="2398.45" y2="1926.03"/>
				
					<line fill="none" stroke="#08274B" stroke-width="2" stroke-miterlimit="10" x1="2346.18" y1="1925.06" x2="2397.33" y2="1927.38"/>
				
					<line fill="none" stroke="#08274B" stroke-width="2" stroke-miterlimit="10" x1="2318.54" y1="1695.45" x2="2392.75" y2="1737.52"/>
				
					<line fill="none" stroke="#08274B" stroke-width="2" stroke-miterlimit="10" x1="2408.83" y1="1678.52" x2="2425.15" y2="1725.03"/>
				
					<line fill="none" stroke="#08274B" stroke-width="2" stroke-miterlimit="10" x1="2383.37" y1="1571.27" x2="2404.75" y2="1673.76"/>
				
					<line fill="none" stroke="#08274B" stroke-width="2" stroke-miterlimit="10" x1="1737.3" y1="2054.28" x2="1737.3" y2="2162.13"/>
				
					<line fill="none" stroke="#08274B" stroke-width="2" stroke-miterlimit="10" x1="1904.73" y1="2203.64" x2="2008.39" y2="2247.73"/>
				<circle fill="#08274B" cx="2248.95" cy="2030.46" r="8.66"/>
				<circle fill="#08274B" cx="2273.55" cy="1937.55" r="8.66"/>
				<circle fill="#08274B" cx="2224.44" cy="1969.3" r="8.66"/>
				<circle fill="#08274B" cx="2187.13" cy="1951.57" r="8.66"/>
				<circle fill="#08274B" cx="2098.73" cy="2014.87" r="8.66"/>
				<circle fill="#08274B" cx="2076.62" cy="1947.43" r="8.66"/>
				<circle fill="#08274B" cx="1972.2" cy="1983.12" r="8.66"/>
				<circle fill="#08274B" cx="1737.3" cy="2164.51" r="8.66"/>
				<circle fill="#08274B" cx="1288.03" cy="2350.85" r="8.66"/>
				<circle fill="#08274B" cx="1904.73" cy="2203.64" r="8.66"/>
				<circle fill="#08274B" cx="2008.39" cy="2247.73" r="8.66"/>
				<circle fill="#08274B" cx="1892.29" cy="1951.57" r="8.66"/>
				<circle fill="#08274B" cx="1737.3" cy="2054.28" r="8.66"/>
				<circle fill="#08274B" cx="2216.78" cy="1850.27" r="8.66"/>
				<circle fill="#08274B" cx="2296.2" cy="1869.61" r="8.66"/>
				<circle fill="#08274B" cx="2344.97" cy="1923.17" r="8.66"/>
				<circle fill="#08274B" cx="2397.33" cy="1927.38" r="8.66"/>
				<circle fill="#08274B" cx="2454.13" cy="1656.82" r="8.66"/>
				<circle fill="#08274B" cx="2406.88" cy="1678.21" r="8.66"/>
				<circle fill="#08274B" cx="2425.15" cy="1725.03" r="8.66"/>
				<circle fill="#08274B" cx="2444.61" cy="1613.4" r="8.66"/>
				<circle fill="#08274B" cx="2383.93" cy="1569.45" r="8.66"/>
				<circle fill="#08274B" cx="2318.54" cy="1693.42" r="8.66"/>
				<circle fill="#08274B" cx="2297.5" cy="1710.84" r="8.66"/>
				<circle fill="#08274B" cx="2253.04" cy="1672.71" r="8.66"/>
				<circle fill="#08274B" cx="2309.89" cy="1574.6" r="8.66"/>
				<circle fill="#08274B" cx="2268.02" cy="1634.82" r="8.66"/>
				<circle fill="#08274B" cx="2398.45" cy="1472.23" r="8.66"/>
				<circle fill="#08274B" cx="2426.22" cy="1433.15" r="8.66"/>
				<circle fill="#08274B" cx="2448.93" cy="1501.57" r="8.66"/>
				<circle fill="#08274B" cx="2311.81" cy="1486.61" r="8.66"/>
				<circle fill="#08274B" cx="2320.47" cy="1407.86" r="8.66"/>
				<circle fill="#08274B" cx="2365.41" cy="1334.76" r="8.66"/>
				<circle fill="#08274B" cx="2294.51" cy="1294.63" r="8.66"/>
				<circle fill="#08274B" cx="2189.9" cy="1348.16" r="8.66"/>
				<circle fill="#08274B" cx="2241.67" cy="1328.08" r="8.66"/>
				<circle fill="#08274B" cx="2285.85" cy="1403.72" r="8.66"/>
				<circle fill="#08274B" cx="2421.75" cy="1850.27" r="8.66"/>
				<circle fill="#08274B" cx="2285.85" cy="1784.44" r="8.66"/>
				<circle fill="#08274B" cx="2297.5" cy="1749.37" r="8.66"/>
				<circle fill="#08274B" cx="2242.46" cy="1784.55" r="8.66"/>
				<circle fill="#08274B" cx="2164.38" cy="1805.37" r="8.66"/>
				<circle fill="#08274B" cx="2191.91" cy="1755.53" r="8.66"/>
				<circle fill="#08274B" cx="2131.55" cy="1786.36" r="8.66"/>
				<circle fill="#08274B" cx="2365.41" cy="1857.56" r="8.66"/>
				<circle fill="#08274B" cx="2430.53" cy="1758.89" r="8.66"/>
				<circle fill="#08274B" cx="2392.59" cy="1737.52" r="8.66"/>
				<rect fill="none" width="3840" height="2149.45"/>
			</g>
		</g>
	</g>
	<g id="_x2D_.moveElements-_1_">
		<g>
			<g>
				<polyline fill="#A4CD38" stroke="#08274B" stroke-width="2" stroke-miterlimit="10" points="2122.9,907.97 2079.39,907.97 
					2040.31,880.57 2033.96,863.52 2009.77,836.54 1980.85,830.19 2001.11,814.31 2051.88,822.25 2090.07,839.71 2122.9,871.46 				
					"/>
				<polyline fill="none" stroke="#08274B" stroke-width="2" stroke-miterlimit="10" points="2107.39,885.75 2079.39,861.14 
					2051.88,841.3 2018.43,830.19 				"/>
				<circle fill="#08274B" cx="1980.85" cy="830.19" r="8.66"/>
				<circle fill="#08274B" cx="2001.11" cy="814.31" r="8.66"/>
				<circle fill="#08274B" cx="2046.47" cy="821.53" r="8.66"/>
				<circle fill="#08274B" cx="2092.33" cy="838.84" r="8.66"/>
				<circle fill="#08274B" cx="2123.8" cy="871.91" r="8.66"/>
				<circle fill="#08274B" cx="2122.9" cy="907.97" r="8.66"/>
				<circle fill="#08274B" cx="2078.45" cy="907.97" r="8.66"/>
				<circle fill="#08274B" cx="2037.81" cy="880.57" r="8.66"/>
				<rect fill="none" width="3840" height="2149.45"/>
			</g>
		</g>
		<g>
			<g>
				<polyline fill="none" stroke="#08274B" stroke-width="2" stroke-miterlimit="10" points="2493.64,1188.21 2466.56,1147.52 
					2426.22,1147.52 2452.79,1175.44 2471.07,1211.29 2493.64,1210.13 				"/>
				<polyline fill="none" stroke="#08274B" stroke-width="2" stroke-miterlimit="10" points="2496.47,1175.44 2526.94,1131.99 
					2531.04,1175.44 2516.93,1206.58 2499.29,1210.13 				"/>
				<path fill="#A4CD38" stroke="#08274B" stroke-width="2" stroke-miterlimit="10" d="M2435.95,877.81c0,0,21.71,14.29,48.79-22.23
					c27.08-36.51,54.25-71.44,54.25-71.44l11.16-63.5l-76.03,23.81l-38.17,41.28l-22.77,52.39"/>
				<polyline fill="#A4CD38" stroke="#08274B" stroke-width="2" stroke-miterlimit="10" points="2389.79,830.19 2386.86,758.75 
					2408.83,693.66 2421.75,761.92 2413.18,830.19 				"/>
				<polyline fill="#A4CD38" stroke="#08274B" stroke-width="2" stroke-miterlimit="10" points="2365.41,800.61 2336.32,761.92 
					2273.55,741.28 2256.45,730.17 2140.21,720.65 2164.38,741.28 2224.44,774.62 2253.69,838.12 2359.88,907.97 				"/>
				<polyline fill="none" stroke="#08274B" stroke-width="2" stroke-miterlimit="10" points="2365.41,852.41 2336.32,814.31 
					2288.84,787.32 2240.29,761.92 2208.12,742.87 				"/>
				<polyline fill="#A4CD38" stroke="#08274B" stroke-width="2" stroke-miterlimit="10" points="2365.41,1054.82 2336.32,1036.06 
					2288.84,1023.86 2239.29,1007.99 2268.02,1045.3 2327.2,1090.54 2353.63,1084.51 				"/>
				<polyline fill="none" stroke="#08274B" stroke-width="2" stroke-miterlimit="10" points="2413.18,864.71 2443.41,814.31 
					2519.94,761.92 				"/>
				
					<line fill="none" stroke="#08274B" stroke-width="2" stroke-miterlimit="10" x1="2345.68" y1="1065.14" x2="2287.54" y2="1045.3"/>
				
					<line fill="none" stroke="#08274B" stroke-width="2" stroke-miterlimit="10" x1="2389.79" y1="885.75" x2="2383.93" y2="1223.89"/>
				
					<line fill="none" stroke="#08274B" stroke-width="2" stroke-miterlimit="10" x1="2413.18" y1="885.75" x2="2413.18" y2="1212.78"/>
				<circle fill="#08274B" cx="2252.03" cy="838.84" r="8.66"/>
				<circle fill="#08274B" cx="2223.04" cy="779.21" r="8.66"/>
				<circle fill="#08274B" cx="2140.21" cy="720.65" r="8.66"/>
				<circle fill="#08274B" cx="2260.69" cy="729.3" r="8.66"/>
				<circle fill="#08274B" cx="2337.02" cy="761.89" r="8.66"/>
				<circle fill="#08274B" cx="2365.41" cy="800.61" r="8.66"/>
				<circle fill="#08274B" cx="2389.29" cy="758.27" r="8.66"/>
				<circle fill="#08274B" cx="2409.87" cy="693.66" r="8.66"/>
				<circle fill="#08274B" cx="2421.75" cy="761.92" r="8.66"/>
				<circle fill="#08274B" cx="2474.12" cy="744.46" r="8.66"/>
				<circle fill="#08274B" cx="2550.15" cy="720.65" r="8.66"/>
				<circle fill="#08274B" cx="2537.35" cy="783.29" r="8.66"/>
				<circle fill="#08274B" cx="2465.47" cy="880.57" r="8.66"/>
				<circle fill="#08274B" cx="2413.09" cy="866.62" r="8.66"/>
				<circle fill="#08274B" cx="2363.03" cy="852.41" r="8.66"/>
				<circle fill="#08274B" cx="2337.02" cy="813.32" r="8.66"/>
				<circle fill="#08274B" cx="2208.12" cy="744.46" r="8.66"/>
				<circle fill="#08274B" cx="2239.29" cy="1007.99" r="8.66"/>
				<circle fill="#08274B" cx="2268.02" cy="1045.3" r="8.66"/>
				<circle fill="#08274B" cx="2323.81" cy="1090.54" r="8.66"/>
				<circle fill="#08274B" cx="2354.37" cy="1081.88" r="8.66"/>
				<circle fill="#08274B" cx="2364.8" cy="1055.22" r="8.66"/>
				<circle fill="#08274B" cx="2337.02" cy="1039.54" r="8.66"/>
				<circle fill="#08274B" cx="2413.18" cy="1211.29" r="8.66"/>
				<circle fill="#08274B" cx="2496.03" cy="1210.13" r="8.66"/>
				<circle fill="#08274B" cx="2452.79" cy="1175.44" r="8.66"/>
				<circle fill="#08274B" cx="2526.94" cy="1131.99" r="8.66"/>
				<circle fill="#08274B" cx="2531.04" cy="1176.29" r="8.66"/>
				<circle fill="#08274B" cx="2383.78" cy="1221.31" r="8.66"/>
				<circle fill="#08274B" cx="2444.14" cy="813.32" r="8.66"/>
				<circle fill="#08274B" cx="2519.94" cy="761.89" r="8.66"/>
				<circle fill="#08274B" cx="2408.91" cy="830.19" r="8.66"/>
				<circle fill="#08274B" cx="2389.29" cy="830.19" r="8.66"/>
				<circle fill="#08274B" cx="2359.88" cy="907.97" r="8.66"/>
				<circle fill="#08274B" cx="2220.4" cy="1188.21" r="8.66"/>
				<circle fill="#08274B" cx="2220.4" cy="1223.89" r="8.66"/>
				<circle fill="#08274B" cx="2306.49" cy="1184.1" r="8.66"/>
				<circle fill="#08274B" cx="2311.67" cy="1219.94" r="8.66"/>
				<circle fill="#08274B" cx="2354.37" cy="1219.94" r="8.66"/>
				<circle fill="#08274B" cx="2356.75" cy="1159.3" r="8.66"/>
				<circle fill="#08274B" cx="2378.2" cy="1099.2" r="8.66"/>
				<circle fill="#08274B" cx="2417.56" cy="1107.86" r="8.66"/>
				<circle fill="#08274B" cx="2401.21" cy="857.97" r="8.66"/>
				<rect fill="none" width="3840" height="2149.45"/>
			</g>
		</g>
		<g>
			<g>
				<polyline fill="none" stroke="#08274B" stroke-width="2" stroke-miterlimit="10" points="2676.01,1192.75 2641.89,1184.1 
					2627.14,1147.52 2676.01,1167.96 				"/>
				<polyline fill="none" stroke="#08274B" stroke-width="2" stroke-miterlimit="10" points="2691.34,1143.28 2694.94,1113.65 
					2744.83,1073.8 2741.49,1116.51 2708.65,1150.64 				"/>
				
					<line fill="none" stroke="#08274B" stroke-width="2" stroke-miterlimit="10" x1="2699.99" y1="1167.96" x2="2699.99" y2="1227.45"/>
				
					<line fill="none" stroke="#08274B" stroke-width="2" stroke-miterlimit="10" x1="2682.68" y1="1184.1" x2="2682.68" y2="1227.45"/>
				
					<line fill="none" stroke="#08274B" stroke-width="2" stroke-miterlimit="10" x1="2599.63" y1="957.19" x2="2599.63" y2="1223.89"/>
				
					<line fill="none" stroke="#08274B" stroke-width="2" stroke-miterlimit="10" x1="2615.91" y1="957.19" x2="2616.94" y2="1223.89"/>
				<path fill="none" stroke="#08274B" stroke-width="2" stroke-miterlimit="10" d="M2624.57,898.45l22.56-40.48
					c0,0,24.55-7.14,30.34-27.78c5.79-20.64,17.31-32.54,17.31-32.54l5.2,82.92l-40.9,51.22"/>
				<polyline fill="none" stroke="#08274B" stroke-width="2" stroke-miterlimit="10" points="2618.63,880.57 2618.63,846.06 
					2587.68,823.84 2546,823.84 2569.54,857.97 2569.54,895.27 2592.29,907.97 				"/>
				<polyline fill="none" stroke="#08274B" stroke-width="2" stroke-miterlimit="10" points="2582.31,1036.06 2552.95,1000.05 
					2457.59,1007.99 2430.53,1000.05 2447.99,1036.06 2474.12,1072.28 2558.81,1090.54 2582.31,1081.02 				"/>
				<polyline fill="none" stroke="#08274B" stroke-width="2" stroke-miterlimit="10" points="2626.42,1045.3 2686.13,1000.05 
					2760.22,1000.05 2727.3,1049.27 2632.76,1072.28 				"/>
				<polyline fill="none" stroke="#08274B" stroke-width="2" stroke-miterlimit="10" points="2579.75,1055.22 2517.96,1055.22 
					2474.12,1036.06 				"/>
				<polyline fill="none" stroke="#08274B" stroke-width="2" stroke-miterlimit="10" points="2632.76,919.09 2658.01,891.7 
					2677.48,864.71 				"/>
				<polyline fill="none" stroke="#08274B" stroke-width="2" stroke-miterlimit="10" points="2599.63,891.7 2593.8,861.14 
					2578.2,846.06 				"/>
				
					<line fill="none" stroke="#08274B" stroke-width="2" stroke-miterlimit="10" x1="2632.76" y1="1055.22" x2="2707.08" y2="1023.86"/>
				<circle fill="#08274B" cx="2437.18" cy="1000.05" r="8.66"/>
				<circle fill="#08274B" cx="2474.19" cy="1073.23" r="8.66"/>
				<circle fill="#08274B" cx="2556.78" cy="1092.81" r="8.66"/>
				<circle fill="#08274B" cx="2579.75" cy="1081.88" r="8.66"/>
				<circle fill="#08274B" cx="2598.57" cy="1218.79" r="8.66"/>
				<circle fill="#08274B" cx="2616.94" cy="1221.31" r="8.66"/>
				<circle fill="#08274B" cx="2676.01" cy="1188.21" r="8.66"/>
				<circle fill="#08274B" cx="2642.15" cy="1184.1" r="8.66"/>
				<circle fill="#08274B" cx="2632.76" cy="1147.52" r="8.66"/>
				<circle fill="#08274B" cx="2677.48" cy="1167.96" r="8.66"/>
				<circle fill="#08274B" cx="2694.94" cy="1147.52" r="8.66"/>
				<circle fill="#08274B" cx="2699.99" cy="1167.96" r="8.66"/>
				<circle fill="#08274B" cx="2703.6" cy="1222.44" r="8.66"/>
				<circle fill="#08274B" cx="2681.03" cy="1222.44" r="8.66"/>
				<circle fill="#08274B" cx="2694.94" cy="1116.51" r="8.66"/>
				<circle fill="#08274B" cx="2744.83" cy="1079.11" r="8.66"/>
				<circle fill="#08274B" cx="2736.5" cy="1116.51" r="8.66"/>
				<circle fill="#08274B" cx="2578.2" cy="1030.88" r="8.66"/>
				<circle fill="#08274B" cx="2554.66" cy="999.33" r="8.66"/>
				<circle fill="#08274B" cx="2592.29" cy="907.97" r="8.66"/>
				<circle fill="#08274B" cx="2568.78" cy="889.22" r="8.66"/>
				<circle fill="#08274B" cx="2546" cy="823.84" r="8.66"/>
				<circle fill="#08274B" cx="2586.1" cy="823.84" r="8.66"/>
				<circle fill="#08274B" cx="2624.57" cy="847.5" r="8.66"/>
				<circle fill="#08274B" cx="2616.19" cy="880.57" r="8.66"/>
				<circle fill="#08274B" cx="2578.2" cy="846.06" r="8.66"/>
				<circle fill="#08274B" cx="2594.76" cy="863.25" r="8.66"/>
				<circle fill="#08274B" cx="2600.95" cy="891.7" r="8.66"/>
				<circle fill="#08274B" cx="2624.57" cy="897.88" r="8.66"/>
				<circle fill="#08274B" cx="2647.45" cy="857.97" r="8.66"/>
				<circle fill="#08274B" cx="2670.56" cy="838.84" r="8.66"/>
				<circle fill="#08274B" cx="2693.32" cy="797.64" r="8.66"/>
				<circle fill="#08274B" cx="2699.99" cy="883.05" r="8.66"/>
				<circle fill="#08274B" cx="2661.9" cy="925.83" r="8.66"/>
				<circle fill="#08274B" cx="2677.48" cy="864.71" r="8.66"/>
				<circle fill="#08274B" cx="2632.76" cy="919.09" r="8.66"/>
				<circle fill="#08274B" cx="2703.6" cy="1023.86" r="8.66"/>
				<circle fill="#08274B" cx="2633.23" cy="1054.82" r="8.66"/>
				<circle fill="#08274B" cx="2627.14" cy="1044.72" r="8.66"/>
				<circle fill="#08274B" cx="2633.23" cy="1073.23" r="8.66"/>
				<circle fill="#08274B" cx="2727.52" cy="1049.27" r="8.66"/>
				<circle fill="#08274B" cx="2760.21" cy="1001.24" r="8.66"/>
				<circle fill="#08274B" cx="2684.66" cy="1000.05" r="8.66"/>
				<circle fill="#08274B" cx="2457.59" cy="1007.99" r="8.66"/>
				<circle fill="#08274B" cx="2474.12" cy="1036.06" r="8.66"/>
				<circle fill="#08274B" cx="2519.8" cy="1055.22" r="8.66"/>
				<circle fill="#08274B" cx="2577.44" cy="1056.38" r="8.66"/>
				<rect fill="none" width="3840" height="2149.45"/>
			</g>
		</g>
		<g>
			<g>
				
					<line fill="none" stroke="#08274B" stroke-width="2" stroke-miterlimit="10" x1="2831.61" y1="1167.96" x2="2831.61" y2="1223.89"/>
				
					<line fill="none" stroke="#08274B" stroke-width="2" stroke-miterlimit="10" x1="2849.71" y1="1171.06" x2="2849.71" y2="1219.94"/>
				<polyline fill="none" stroke="#08274B" stroke-width="2" stroke-miterlimit="10" points="2844.72,1147.52 2844.72,1121.41 
					2816.52,1085.21 2816,1116.51 2827.44,1159.3 				"/>
				<polyline fill="none" stroke="#08274B" stroke-width="2" stroke-miterlimit="10" points="2853.21,1147.52 2864.07,1122.25 
					2892.74,1112.22 2920.63,1122.25 2894.1,1147.52 2852.93,1167.96 				"/>
				
					<line fill="none" stroke="#08274B" stroke-width="2" stroke-miterlimit="10" x1="2790.26" y1="949.25" x2="2790.26" y2="1212.78"/>
				
					<line fill="none" stroke="#08274B" stroke-width="2" stroke-miterlimit="10" x1="2807.34" y1="949.25" x2="2809.74" y2="1212.78"/>
				<polyline fill="none" stroke="#08274B" stroke-miterlimit="10" points="2786.46,877.81 2760.22,852.41 2768.88,814.31 
					2741.49,761.92 2798.92,800.61 2827.02,852.41 2814.64,880.57 				"/>
				<polyline fill="none" stroke="#08274B" stroke-miterlimit="10" points="2777.8,901.62 2736.17,864.71 2736.17,907.97 
					2768.88,938.14 2784.26,931.79 				"/>
				<polyline fill="none" stroke="#08274B" stroke-miterlimit="10" points="2823.29,895.27 2844.55,877.81 2887.01,877.81 
					2900.21,895.27 2867.22,907.97 2816.52,925.44 				"/>
				<polyline fill="none" stroke="#08274B" stroke-miterlimit="10" points="2798.92,877.81 2795.11,846.06 2784.26,813.32 				"/>
				<line fill="none" stroke="#08274B" stroke-miterlimit="10" x1="2817.54" y1="907.97" x2="2858.37" y2="891.9"/>
				<circle fill="#08274B" cx="2791.73" cy="1218.79" r="8.66"/>
				<circle fill="#08274B" cx="2807.34" cy="1218.79" r="8.66"/>
				<circle fill="#08274B" cx="2831.61" cy="1215.24" r="8.66"/>
				<circle fill="#08274B" cx="2849.71" cy="1215.24" r="8.66"/>
				<circle fill="#08274B" cx="2835.68" cy="1170.13" r="8.66"/>
				<circle fill="#08274B" cx="2825.18" cy="1156.53" r="8.66"/>
				<circle fill="#08274B" cx="2844.72" cy="1150.64" r="8.66"/>
				<circle fill="#08274B" cx="2867.02" cy="1122.25" r="8.66"/>
				<circle fill="#08274B" cx="2918.68" cy="1122.44" r="8.66"/>
				<circle fill="#08274B" cx="2894.1" cy="1148.75" r="8.66"/>
				<circle fill="#08274B" cx="2847.59" cy="1166.78" r="8.66"/>
				<circle fill="#08274B" cx="2816.52" cy="1085.21" r="8.66"/>
				<circle fill="#08274B" cx="2768.88" cy="940.44" r="8.66"/>
				<circle fill="#08274B" cx="2736.17" cy="906.54" r="8.66"/>
				<circle fill="#08274B" cx="2736.17" cy="863.25" r="8.66"/>
				<circle fill="#08274B" cx="2777.53" cy="901.43" r="8.66"/>
				<circle fill="#08274B" cx="2786.46" cy="877.81" r="8.66"/>
				<circle fill="#08274B" cx="2760.22" cy="852.41" r="8.66"/>
				<circle fill="#08274B" cx="2768.88" cy="814.31" r="8.66"/>
				<circle fill="#08274B" cx="2741.49" cy="761.92" r="8.66"/>
				<circle fill="#08274B" cx="2798.69" cy="800.61" r="8.66"/>
				<circle fill="#08274B" cx="2827.41" cy="852.41" r="8.66"/>
				<circle fill="#08274B" cx="2816.52" cy="880.57" r="8.66"/>
				<circle fill="#08274B" cx="2784.26" cy="814.31" r="8.66"/>
				<circle fill="#08274B" cx="2800.39" cy="877.81" r="8.66"/>
				<circle fill="#08274B" cx="2827.02" cy="892.77" r="8.66"/>
				<circle fill="#08274B" cx="2844.55" cy="877.81" r="8.66"/>
				<circle fill="#08274B" cx="2885.44" cy="875.28" r="8.66"/>
				<circle fill="#08274B" cx="2901.39" cy="892.77" r="8.66"/>
				<circle fill="#08274B" cx="2818.75" cy="925.83" r="8.66"/>
				<circle fill="#08274B" cx="2818.78" cy="906.54" r="8.66"/>
				<circle fill="#08274B" cx="2858.37" cy="889.22" r="8.66"/>
				<rect fill="none" width="3840" height="2149.45"/>
			</g>
		</g>
		<g>
			<g>
				
					<line fill="none" stroke="#08274B" stroke-width="2" stroke-miterlimit="10" x1="3073.62" y1="1179.4" x2="3073.62" y2="1221.31"/>
				
					<line fill="none" stroke="#08274B" stroke-width="2" stroke-miterlimit="10" x1="3086.33" y1="1167.96" x2="3087.22" y2="1227.45"/>
				<polyline fill="none" stroke="#08274B" stroke-width="2" stroke-miterlimit="10" points="3086.33,1143.28 3067.77,1092.81 
					3020.07,1072.28 3032.7,1116.51 3060.23,1143.28 3069.91,1155.28 				"/>
				
					<line fill="none" stroke="#08274B" stroke-width="2" stroke-miterlimit="10" x1="2977.61" y1="877.81" x2="2977.61" y2="1223.89"/>
				
					<line fill="none" stroke="#08274B" stroke-width="2" stroke-miterlimit="10" x1="2992.65" y1="877.81" x2="3001.3" y2="1212.78"/>
				<polyline fill="none" stroke="#08274B" stroke-width="2" stroke-miterlimit="10" points="2977.61,841.3 2952.31,790.5 
					2885.94,749.22 2895.67,814.31 2931.77,871.46 2969.63,871.46 				"/>
				<polyline fill="none" stroke="#08274B" stroke-width="2" stroke-miterlimit="10" points="2977.61,800.61 2977.61,774.62 
					2996.97,749.22 2996.97,706.36 3045.22,749.22 3045.22,800.61 3009.96,830.19 3001.3,857.97 				"/>
				<polyline fill="none" stroke="#08274B" stroke-width="2" stroke-miterlimit="10" points="2962.95,1000.05 2952.31,979.41 
					2900.21,957.19 2835.89,957.19 2864.73,1007.99 2914.49,1045.3 2960.97,1045.3 				"/>
				<polyline fill="none" stroke="#08274B" stroke-width="2" stroke-miterlimit="10" points="3009.96,1007.99 3051.58,957.19 
					3110.31,968.3 3162.7,949.25 3126.19,1045.3 3051.58,1065.14 3011.41,1045.3 				"/>
				<polyline fill="none" stroke="#08274B" stroke-width="2" stroke-miterlimit="10" points="2992.65,846.06 2994.96,800.61 
					3011.41,773.03 3019.12,749.22 				"/>
				
					<line fill="none" stroke="#08274B" stroke-width="2" stroke-miterlimit="10" x1="2960.97" y1="846.06" x2="2931.77" y2="821.24"/>
				<polyline fill="none" stroke="#08274B" stroke-width="2" stroke-miterlimit="10" points="3011.41,1023.86 3057.93,1023.86 
					3115.08,1001.24 				"/>
				
					<line fill="none" stroke="#08274B" stroke-width="2" stroke-miterlimit="10" x1="2960.97" y1="1023.86" x2="2885.44" y2="987.35"/>
				<circle fill="#08274B" cx="2978.28" cy="1219.94" r="8.66"/>
				<circle fill="#08274B" cx="3001.3" cy="1215.24" r="8.66"/>
				<circle fill="#08274B" cx="3073.62" cy="1175.44" r="8.66"/>
				<circle fill="#08274B" cx="3034.26" cy="1113.78" r="8.66"/>
				<circle fill="#08274B" cx="3020.07" cy="1073.23" r="8.66"/>
				<circle fill="#08274B" cx="3086.03" cy="1140.09" r="8.66"/>
				<circle fill="#08274B" cx="3068.89" cy="1154.8" r="8.66"/>
				<circle fill="#08274B" cx="3089.56" cy="1219.94" r="8.66"/>
				<circle fill="#08274B" cx="2969.63" cy="871.46" r="8.66"/>
				<circle fill="#08274B" cx="2931.77" cy="869.15" r="8.66"/>
				<circle fill="#08274B" cx="2894.1" cy="810.34" r="8.66"/>
				<circle fill="#08274B" cx="2885.44" cy="749.22" r="8.66"/>
				<circle fill="#08274B" cx="2952.31" cy="788.98" r="8.66"/>
				<circle fill="#08274B" cx="2980.81" cy="843.75" r="8.66"/>
				<circle fill="#08274B" cx="2931.35" cy="822.97" r="8.66"/>
				<circle fill="#08274B" cx="2960.97" cy="846.06" r="8.66"/>
				<circle fill="#08274B" cx="2976.81" cy="797.64" r="8.66"/>
				<circle fill="#08274B" cx="2976.81" cy="774.63" r="8.66"/>
				<circle fill="#08274B" cx="2996.97" cy="749.61" r="8.66"/>
				<circle fill="#08274B" cx="2996.97" cy="706.36" r="8.66"/>
				<circle fill="#08274B" cx="3045.22" cy="749.22" r="8.66"/>
				<circle fill="#08274B" cx="3045.22" cy="800.61" r="8.66"/>
				<circle fill="#08274B" cx="3009.96" cy="830.19" r="8.66"/>
				<circle fill="#08274B" cx="2999.38" cy="860.5" r="8.66"/>
				<circle fill="#08274B" cx="3018.62" cy="753.12" r="8.66"/>
				<circle fill="#08274B" cx="2996.97" cy="801.68" r="8.66"/>
				<circle fill="#08274B" cx="2992.65" cy="846.06" r="8.66"/>
				<circle fill="#08274B" cx="2836.07" cy="957.19" r="8.66"/>
				<circle fill="#08274B" cx="2900.21" cy="956.39" r="8.66"/>
				<circle fill="#08274B" cx="2952.31" cy="978.69" r="8.66"/>
				<circle fill="#08274B" cx="3051.58" cy="956.47" r="8.66"/>
				<circle fill="#08274B" cx="3011.41" cy="1007.2" r="8.66"/>
				<circle fill="#08274B" cx="3009.96" cy="1022.23" r="8.66"/>
				<circle fill="#08274B" cx="3060.23" cy="1023.29" r="8.66"/>
				<circle fill="#08274B" cx="3115.63" cy="1001.24" r="8.66"/>
				<circle fill="#08274B" cx="3109.99" cy="970.04" r="8.66"/>
				<circle fill="#08274B" cx="3162.7" cy="949.1" r="8.66"/>
				<circle fill="#08274B" cx="3124.29" cy="1044.72" r="8.66"/>
				<circle fill="#08274B" cx="3053.87" cy="1065.14" r="8.66"/>
				<circle fill="#08274B" cx="3011.41" cy="1046.56" r="8.66"/>
				<circle fill="#08274B" cx="2962.95" cy="1001.24" r="8.66"/>
				<circle fill="#08274B" cx="2885.44" cy="987.35" r="8.66"/>
				<circle fill="#08274B" cx="2959.14" cy="1023.86" r="8.66"/>
				<circle fill="#08274B" cx="2960.97" cy="1045.64" r="8.66"/>
				<circle fill="#08274B" cx="2918.17" cy="1044.72" r="8.66"/>
				<circle fill="#08274B" cx="2861.58" cy="1007.2" r="8.66"/>
				<rect fill="none" width="3840" height="2149.45"/>
			</g>
		</g>
		<g>
			<g>
				
					<line fill="none" stroke="#08274B" stroke-width="2" stroke-miterlimit="10" x1="3211.2" y1="931.79" x2="3211.2" y2="1212.78"/>
				
					<line fill="none" stroke="#08274B" stroke-width="2" stroke-miterlimit="10" x1="3194.45" y1="931.79" x2="3194.45" y2="1212.78"/>
				<polyline fill="none" stroke="#08274B" stroke-width="2" stroke-miterlimit="10" points="3228.51,857.97 3242.08,842.89 
					3235.3,797.64 3162.7,761.92 3180.17,797.64 3188.1,861.14 				"/>
				<polyline fill="none" stroke="#08274B" stroke-width="2" stroke-miterlimit="10" points="3183.34,885.75 3140.48,857.97 
					3078.56,901.43 3113.49,915.91 3130.95,925.44 3162.7,907.97 3183.34,925.44 				"/>
				<polyline fill="none" stroke="#08274B" stroke-width="2" stroke-miterlimit="10" points="3228.51,891.7 3269.07,865.9 
					3257.96,907.97 3228.51,931.79 				"/>
				<polyline fill="none" stroke="#08274B" stroke-width="2" stroke-miterlimit="10" points="3211.2,852.41 3219.85,821.24 
					3202.39,800.61 				"/>
				<circle fill="#08274B" cx="3192" cy="1215.24" r="8.66"/>
				<circle fill="#08274B" cx="3211.05" cy="1215.24" r="8.66"/>
				<circle fill="#08274B" cx="3078.56" cy="901.62" r="8.66"/>
				<circle fill="#08274B" cx="3141.6" cy="860.22" r="8.66"/>
				<circle fill="#08274B" cx="3183.34" cy="886.47" r="8.66"/>
				<circle fill="#08274B" cx="3185.8" cy="857.97" r="8.66"/>
				<circle fill="#08274B" cx="3177.14" cy="797.64" r="8.66"/>
				<circle fill="#08274B" cx="3162.7" cy="761.92" r="8.66"/>
				<circle fill="#08274B" cx="3233.42" cy="797.64" r="8.66"/>
				<circle fill="#08274B" cx="3242.08" cy="845.56" r="8.66"/>
				<circle fill="#08274B" cx="3219.85" cy="862.8" r="8.66"/>
				<circle fill="#08274B" cx="3228.51" cy="891.7" r="8.66"/>
				<circle fill="#08274B" cx="3269.07" cy="864.71" r="8.66"/>
				<circle fill="#08274B" cx="3257.45" cy="907.97" r="8.66"/>
				<circle fill="#08274B" cx="3228.44" cy="927.74" r="8.66"/>
				<circle fill="#08274B" cx="3211.12" cy="852.41" r="8.66"/>
				<circle fill="#08274B" cx="3219.78" cy="819" r="8.66"/>
				<circle fill="#08274B" cx="3202.39" cy="801.68" r="8.66"/>
				<circle fill="#08274B" cx="3183.34" cy="925.44" r="8.66"/>
				<circle fill="#08274B" cx="3162.7" cy="905.2" r="8.66"/>
				<circle fill="#08274B" cx="3130.95" cy="925.44" r="8.66"/>
				<rect fill="none" width="3840" height="2149.45"/>
			</g>
		</g>
	</g>
	<g id="_x2D_.moveElements-">
		<g>
			<g>
				<text transform="matrix(1 0 0 1 737.9336 366.9648)" fill="#012B48" font-family="'HelveticaNeueLTStd-Bd'" font-size="148px">And those choices</text>
				<rect fill="none" width="3840" height="2149.45"/>
			</g>
		</g>
		<g>
			<g>
				
					<text transform="matrix(1 0 0 1 1168.3945 667.3359)" fill="#012B48" font-family="'HelveticaNeueLTStd-ThIt'" font-size="321.3157px" letter-spacing="-1">paid off.</text>
				<rect fill="none" width="3840" height="2149.45"/>
			</g>
		</g>
	</g>
</g>
<rect fill="none" width="3840" height="2149.45"/>
</svg>
