<?xml version="1.0" encoding="utf-8"?>
<!-- Generator: Adobe Illustrator 24.2.1, SVG Export Plug-In . SVG Version: 6.00 Build 0)  -->
<svg version="1.1" id="justSpendSomeBgSvg" xmlns="http://www.w3.org/2000/svg" xmlns:xlink="http://www.w3.org/1999/xlink" x="0px"
	 y="0px" width="3840px" height="2160px" viewBox="0 0 3840 2160" enable-background="new 0 0 3840 2160" xml:space="preserve">
<rect id="_x2D_.bgColor-" fill="#012B48" width="3840" height="2172.4"/>
<g id="_x2D_.bgScene-">
	<g id="_x2D_.moveElements-">
		<g>
			<polygon display="none" fill="#FFFFFF" points="3736.89,2187.6 256.89,2187.6 256.89,2045.71 256.89,29.06 3736.89,29.06 			"/>
			<g>
				<polygon fill="#A4CD38" points="3894.4,-591.82 2965.66,2441.37 3873.67,2230.65 				"/>
				<rect x="9.26" y="11.58" fill="none" width="3830.74" height="2148.42"/>
			</g>
		</g>
		<g>
			<g>
				<polygon fill="#00C0F2" points="555.59,-102.89 15.94,-466.38 -83.11,1355.71 				"/>
				<rect x="9.26" y="11.58" fill="none" width="3830.74" height="2148.42"/>
			</g>
		</g>
	</g>
</g>
<g id="_x2D_.lineBG-_1_">
	<g>
		
			<rect x="2477.8" y="1120.43" transform="matrix(0.0783 -0.9969 0.9969 0.0783 2292.3418 4725.5688)" fill="#012B48" width="2448" height="5.28"/>
		<rect x="9.26" y="11.58" fill="none" width="3830.74" height="2148.42"/>
	</g>
</g>
<g id="_x2D_.lineBG-">
	<g>
		<polygon fill="#FFFFFF" points="-121.25,2130.09 -125.76,2127.35 454.72,-55.15 459.23,-52.41 		"/>
		<rect x="9.26" y="11.58" fill="none" width="3830.74" height="2148.42"/>
	</g>
</g>
<rect x="9.26" y="11.58" fill="none" width="3830.74" height="2148.42"/>
</svg>
