<?xml version="1.0" encoding="utf-8"?>
<!-- Generator: Adobe Illustrator 24.2.1, SVG Export Plug-In . SVG Version: 6.00 Build 0)  -->
<svg version="1.1" id="justSpendSomeSvg" xmlns="http://www.w3.org/2000/svg" xmlns:xlink="http://www.w3.org/1999/xlink" x="0px"
	 y="0px" width="3840px" height="2160px" viewBox="0 0 3840 2160" enable-background="new 0 0 3840 2160" xml:space="preserve">
<g id="_x2D_.contentScene-">
	<g id="_x2D_.moveElements-">
		<g>
			<g>
				<polygon fill="#DEDFE1" points="2681.32,1637.23 2886.69,1668.54 2875.46,1669.06 2682.37,1639.79 				"/>
				<polygon fill="#E5E6E8" points="2800.6,1935.48 2886.17,1926.13 2883.69,1924.13 2799.19,1933.08 				"/>
				<polygon fill="#E5E6E8" points="2798.41,1931.31 2876.97,1922.96 2874.5,1920.96 2797,1928.91 				"/>
				<polygon fill="#DEDFE1" points="2685.21,1626.32 2890.57,1658.63 2890.35,1661.15 2686.25,1630.88 				"/>
				<polygon fill="#EEEFEF" points="2763.39,1782.3 2807.32,1783.17 2813.33,1784.81 2762.45,1784.12 				"/>
				<rect x="2760.37" y="1788.03" fill="#EEEFEF" width="53.62" height="2.19"/>
				<rect x="2779.81" y="1783.91" fill="#EEEFEF" width="2.1" height="4.12"/>
				<rect x="2792.81" y="1783.91" fill="#EEEFEF" width="2.1" height="4.12"/>
				<rect x="2796.81" y="1783.91" fill="#EEEFEF" width="2.1" height="4.12"/>
				<polygon fill="#E5E6E7" points="2753.36,1707.13 2807.54,1710.13 2808.94,1783.74 2807.06,1783.32 2805.48,1712.11 
					2752.95,1709.81 				"/>
				<polygon fill="#DEDFE1" points="2757.05,1778.62 2798.64,1778.96 2797.46,1715.31 2799.64,1715.31 2800.79,1780.9 
					2756.91,1780.7 				"/>
				<polygon fill="#E5E6E7" points="2815.43,1711.65 2859.61,1715.65 2862,1785.26 2860.13,1784.84 2857.54,1717.63 
					2815.02,1714.33 				"/>
				<polygon fill="#DEDFE1" points="2818.11,1780.14 2852.71,1780.48 2850.52,1720.83 2852.71,1720.83 2854.86,1782.41 
					2817.97,1782.22 				"/>
				<polygon fill="#DEDFE1" points="2814.99,1712.09 2816.8,1712 2819.45,1790.13 2817.8,1790.13 				"/>
				<polygon fill="#EEEFEF" points="2817.99,1783.2 2861.92,1784.08 2868.93,1785.72 2818.05,1785.03 				"/>
				<rect x="2818.97" y="1787.93" fill="#EEEFEF" width="52.62" height="2.19"/>
				<rect x="2838.42" y="1784.82" fill="#EEEFEF" width="2.1" height="4.12"/>
				<rect x="2851.42" y="1784.82" fill="#EEEFEF" width="2.1" height="4.12"/>
				<rect x="2855.42" y="1784.82" fill="#EEEFEF" width="2.1" height="4.12"/>
				<polygon fill="#E5E6E7" points="2815.72,1717.99 2858.65,1721.83 2858.65,1719.63 2815.72,1715.89 				"/>
				<polygon fill="#959AA1" points="2892.74,1924.59 2878.3,1924.59 2870.55,1668.19 2881.43,1668.76 				"/>
				<path fill="none" stroke="#FFFFFF" stroke-width="2" stroke-miterlimit="10" d="M2886.52,1667.74l8.55,254.14
					c0,0-3.43,3.29-9.58,3.29c-3.8,0-9.58-2.29-9.58-2.29l-8.55-255.14"/>
				
					<ellipse transform="matrix(0.9996 -0.0272 0.0272 0.9996 -48.326 78.9865)" fill="#FDFDFD" cx="2884.08" cy="1818.83" rx="2.16" ry="50.48"/>
				<rect fill="none" width="3840" height="2160"/>
			</g>
		</g>
		<g>
			<g>
				<polygon fill="#DEDFE1" points="2673.42,1783.54 2675.23,1783.45 2675.07,1787.53 2673.43,1787.53 				"/>
				<polygon fill="#959AA1" points="500.09,1958.57 489.53,1959.57 480.32,1957.57 504.31,1621.23 518.96,1620.9 				"/>
				<path fill="none" stroke="#FFFFFF" stroke-width="2" stroke-miterlimit="10" d="M522.87,1620.7l-20.07,335.68
					c0,0-6.99,3.85-14.13,3.85c-4.41,0-11.13-4.7-11.13-4.7l23.07-333.84"/>
				
					<ellipse transform="matrix(0.0614 -0.9981 0.9981 0.0614 -1367.6819 2217.2688)" fill="#FDFDFD" cx="495.03" cy="1835.8" rx="59.07" ry="2.51"/>
				<rect x="2604.01" y="1786.67" fill="#EEEFEF" width="70.96" height="2.19"/>
				<polygon fill="#EEEFEF" points="2604.03,1780.94 2668.96,1781.81 2674.97,1783.45 2603.09,1782.76 				"/>
				<polygon fill="#E5E6E7" points="2605.31,1789.09 2602.88,1789.35 2601.22,1693.42 2603.21,1694.34 				"/>
				<rect x="2628.45" y="1782.55" fill="#EEEFEF" width="2.1" height="4.12"/>
				<rect x="2632.45" y="1782.55" fill="#EEEFEF" width="2.1" height="4.12"/>
				<rect x="2652.21" y="1783.14" fill="#EEEFEF" width="2.1" height="4.12"/>
				<polygon fill="#E5E6E7" points="2602,1692.77 2668.18,1698.77 2669.58,1782.38 2667.71,1781.96 2666.12,1700.75 
					2601.59,1695.45 				"/>
				<polygon fill="#DEDFE1" points="2604.69,1775.26 2655.28,1775.6 2654.1,1703.95 2656.28,1703.95 2657.43,1777.54 
					2604.55,1777.34 				"/>
				<polygon fill="#DEDFE1" points="2746.32,1784.65 2748.13,1784.56 2747.98,1788.64 2746.33,1788.64 				"/>
				<rect x="2685.92" y="1787.77" fill="#EEEFEF" width="61.96" height="2.19"/>
				<polygon fill="#EEEFEF" points="2685.93,1782.04 2741.87,1782.92 2747.88,1784.56 2685,1783.87 				"/>
				<polygon fill="#E5E6E7" points="2687.22,1789.2 2684.78,1789.45 2681.13,1699.53 2683.11,1700.44 				"/>
				<polygon fill="#E5E6E7" points="2683.2,1707.22 2740.34,1711.24 2740.34,1709.03 2683.2,1705.12 				"/>
				<rect x="2701.36" y="1783.66" fill="#EEEFEF" width="2.1" height="4.12"/>
				<rect x="2705.36" y="1783.66" fill="#EEEFEF" width="2.1" height="4.12"/>
				<rect x="2725.11" y="1784.24" fill="#EEEFEF" width="2.1" height="4.12"/>
				<polygon fill="#E5E6E7" points="2682.91,1699.88 2742.09,1704.88 2743.49,1783.48 2741.61,1783.07 2740.02,1706.85 
					2682.5,1702.56 				"/>
				<polygon fill="#DEDFE1" points="2685.59,1777.37 2730.19,1777.71 2729,1710.06 2731.19,1710.06 2732.34,1779.64 
					2685.46,1779.45 				"/>
				<rect x="2755.37" y="1788.03" fill="#EEEFEF" width="54.62" height="2.19"/>
				<polygon fill="#EEEFEF" points="2755.39,1782.3 2799.32,1783.17 2805.33,1784.81 2755.45,1784.12 				"/>
				<polygon fill="#E5E6E7" points="2757.67,1789.45 2755.24,1789.71 2752.58,1706.78 2754.57,1707.7 				"/>
				<polygon fill="#E5E6E7" points="2752.65,1713.47 2805.58,1716.31 2805.58,1714.11 2752.65,1711.38 				"/>
				<polygon fill="#DEDFE1" points="2487.56,1607.51 2802.93,1655.82 2791.71,1656.34 2488.61,1612.07 				"/>
				<polygon fill="#DEDFE1" points="2493.51,1595.28 2808.8,1646.1 2797.58,1647.62 2493.51,1601.2 				"/>
				<polygon fill="#E5E6E8" points="2536.23,1964.83 2807.79,1934.48 2805.31,1932.48 2534.81,1962.43 				"/>
				<polygon fill="#E5E6E8" points="2534.04,1960.66 2806.6,1930.31 2804.12,1928.31 2532.62,1958.25 				"/>
				<polygon fill="#E5E6E7" points="2602.29,1700.11 2667.44,1705.13 2667.44,1702.93 2602.29,1698.02 				"/>
				<polygon fill="#FFFFFF" points="648.39,1573.67 435.79,1608.92 436.06,1617.17 653.9,1580.74 				"/>
				<polygon fill="#FFFFFF" points="437.77,1620.82 644.37,1586.93 644.81,1591.72 438.3,1626.36 				"/>
				<polygon fill="#FFFFFF" points="533.16,1618.67 652.22,1597.52 657.66,1602.32 531.69,1623.21 				"/>
				<polygon fill="#DEDFE1" points="880.68,1964.71 880.68,1967.29 514.57,1957.21 515.09,1955.73 				"/>
				<rect fill="none" width="3840" height="2160"/>
			</g>
		</g>
		<g>
			<g>
				<polygon fill="#DEDFE1" points="2220.68,1995.81 2220.68,1999.74 794.57,1965.21 795.09,1962.73 				"/>
				<polygon fill="#FFFFFF" points="1218.39,1476.67 595.79,1582.92 588.06,1591.17 1218.36,1487.67 				"/>
				<polygon fill="#FFFFFF" points="581.77,1596.82 1217.83,1490.66 1218.27,1495.46 582.3,1602.36 				"/>
				<polygon fill="#FFFFFF" points="582.16,1609.67 1242.22,1497.52 1247.66,1502.32 582.69,1615.21 				"/>
				<rect x="2520.93" y="1785.35" fill="#EEEFEF" width="71.96" height="2.19"/>
				<polygon fill="#EEEFEF" points="2520.95,1779.62 2586.88,1780.5 2592.89,1782.14 2520.01,1781.44 				"/>
				<polygon fill="#E5E6E7" points="2521.23,1787.77 2518.8,1788.03 2517.14,1684.11 2519.13,1686.02 				"/>
				<polygon fill="#E5E6E7" points="2518.21,1691.8 2583.36,1696.81 2583.36,1694.61 2518.21,1689.7 				"/>
				<rect x="2544.37" y="1781.24" fill="#EEEFEF" width="2.1" height="4.12"/>
				<polygon fill="#E5E6E7" points="2517.92,1684.46 2585.1,1690.46 2586.5,1781.06 2584.63,1780.65 2583.04,1692.43 
					2517.52,1687.13 				"/>
				<polygon fill="#DEDFE1" points="2520.61,1773.95 2571.2,1774.28 2570.02,1695.64 2572.2,1695.64 2573.35,1776.22 
					2520.47,1776.03 				"/>
				<rect x="2407.93" y="1784.35" fill="#EEEFEF" width="96.96" height="2.19"/>
				<polygon fill="#EEEFEF" points="2408.95,1778.62 2498.88,1779.5 2504.81,1780.48 2407.94,1779.79 				"/>
				<polygon fill="#E5E6E7" points="2410.23,1784.77 2407.8,1785.03 2405.14,1673.11 2407.13,1675.02 				"/>
				<polygon fill="#E5E6E7" points="2406.21,1683.8 2495.36,1689.81 2495.36,1687.61 2406.21,1681.7 				"/>
				<rect x="2456.37" y="1780.24" fill="#EEEFEF" width="2.1" height="4.12"/>
				<rect x="2450.96" y="1779.77" fill="#EEEFEF" width="2.1" height="5.12"/>
				<rect x="2474.8" y="1780.24" fill="#EEEFEF" width="2.1" height="4.12"/>
				<polygon fill="#E5E6E7" points="2405.92,1673.46 2497.1,1681.46 2498.5,1780.06 2496.63,1779.65 2495.04,1683.43 
					2405.52,1676.13 				"/>
				<polygon fill="#DEDFE1" points="2408.61,1771.95 2483.2,1772.28 2482.02,1688.64 2484.2,1688.64 2485.35,1774.22 
					2408.47,1774.03 				"/>
				<polygon fill="#E5E6E7" points="2281.7,1786.6 2279.26,1786.85 2276.61,1661.93 2278.59,1663.84 				"/>
				<rect x="2279.59" y="1784.25" fill="#EEEFEF" width="105.96" height="2.19"/>
				<polygon fill="#EEEFEF" points="2280.6,1777.52 2377.54,1778.4 2385.55,1779.04 2279.67,1778.34 				"/>
				<polygon fill="#E5E6E7" points="2277.87,1669.7 2374.01,1677.71 2374.01,1675.51 2277.87,1667.6 				"/>
				<rect x="2335.03" y="1778.14" fill="#EEEFEF" width="2.1" height="6.12"/>
				<rect x="2329.62" y="1778.67" fill="#EEEFEF" width="2.1" height="6.12"/>
				<rect x="2353.46" y="1778.14" fill="#EEEFEF" width="2.1" height="6.12"/>
				<polygon fill="#E5E6E7" points="2276.58,1661.36 2375.76,1669.36 2377.16,1778.96 2375.28,1778.55 2373.69,1671.33 
					2276.17,1664.03 				"/>
				<polygon fill="#DEDFE1" points="2280.26,1769.85 2361.86,1770.18 2360.68,1676.53 2362.86,1676.53 2364.01,1772.12 
					2280.13,1771.93 				"/>
				<polygon fill="#E5E6E8" points="2272.97,1998.23 2562.53,1961.88 2560.05,1959.88 2271.56,1995.83 				"/>
				<polyline fill="#E5E6E8" points="2561.34,1957.71 2558.86,1955.71 2269.37,1991.66 2270.78,1994.06 				"/>
				<polygon fill="#FFFFFF" points="1219.36,1468.6 1218.64,1498.99 1233.94,1499.88 1234.28,1467.98 				"/>
				<polygon fill="#FFFFFF" points="1280.85,1499.65 1280.85,1505.03 1218.64,1498.99 1234.82,1495.04 				"/>
				<polygon fill="#FFFFFF" points="1239.71,1490.08 1239.19,1493.02 1279.56,1496.92 1279.28,1494.2 				"/>
				<polygon fill="#FFFFFF" points="1239.48,1474.9 1239.78,1485.09 2254.22,1563.32 2247.33,1554.63 				"/>
				
					<rect x="1493.73" y="1742.3" fill="none" stroke="#FFFFFF" stroke-width="2" stroke-miterlimit="10" width="51.46" height="111.26"/>
				
					<rect x="1552.38" y="1742.3" fill="none" stroke="#FFFFFF" stroke-width="2" stroke-miterlimit="10" width="51.46" height="111.26"/>
				
					<rect x="1486.91" y="1733.28" fill="none" stroke="#FFFFFF" stroke-width="2" stroke-miterlimit="10" width="118.46" height="131.26"/>
				
					<rect x="1312.1" y="1742.3" fill="none" stroke="#FFFFFF" stroke-width="2" stroke-miterlimit="10" width="43.46" height="111.26"/>
				
					<rect x="1134.73" y="1744.32" fill="none" stroke="#FFFFFF" stroke-width="2" stroke-miterlimit="10" width="43.46" height="107.26"/>
				
					<rect x="1186.15" y="1745.53" fill="none" stroke="#FFFFFF" stroke-width="2" stroke-miterlimit="10" width="45.46" height="107.26"/>
				
					<rect x="1365" y="1743.89" fill="none" stroke="#FFFFFF" stroke-width="2" stroke-miterlimit="10" width="49.46" height="111.26"/>
				
					<rect x="1304.28" y="1735.28" fill="none" stroke="#FFFFFF" stroke-width="2" stroke-miterlimit="10" width="111.46" height="129.26"/>
				
					<rect x="1122.76" y="1736.93" fill="none" stroke="#FFFFFF" stroke-width="2" stroke-miterlimit="10" width="111.46" height="125.26"/>
				
					<rect x="845.51" y="1744.37" fill="none" stroke="#FFFFFF" stroke-width="2" stroke-miterlimit="10" width="50.46" height="105.26"/>
				<polygon fill="none" stroke="#FFFFFF" stroke-width="2" stroke-miterlimit="10" points="895.23,1874.5 825.77,1873.5 
					825.77,1856.24 895.23,1856.24 				"/>
				<polygon fill="none" stroke="#FFFFFF" stroke-width="2" stroke-miterlimit="10" points="778.48,1871.97 709.02,1869.97 
					709.02,1853.71 778.48,1854.71 				"/>
				<polygon fill="none" stroke="#FFFFFF" stroke-width="2" stroke-miterlimit="10" points="778.74,1854.14 715.29,1853.14 
					732.29,1848.87 782.74,1848.87 				"/>
				<polygon fill="none" stroke="#FFFFFF" stroke-width="2" stroke-miterlimit="10" points="895.23,1855.14 829.77,1855.14 
					845.77,1848.87 896.23,1848.87 				"/>
				
					<rect x="732.44" y="1743.79" fill="none" stroke="#FFFFFF" stroke-width="2" stroke-miterlimit="10" width="50.46" height="105.26"/>
				
					<rect x="1477.57" y="1867.01" fill="none" stroke="#FFFFFF" stroke-width="2" stroke-miterlimit="10" width="128.79" height="23.43"/>
				
					<rect x="1290.49" y="1865.44" fill="none" stroke="#FFFFFF" stroke-width="2" stroke-miterlimit="10" width="123.79" height="23.43"/>
				
					<rect x="1110.23" y="1862.61" fill="none" stroke="#FFFFFF" stroke-width="2" stroke-miterlimit="10" width="121.79" height="23.43"/>
				
					<rect x="957.74" y="1739.88" fill="none" stroke="#FFFFFF" stroke-width="2" stroke-miterlimit="10" width="60.22" height="47.1"/>
				
					<rect x="962.52" y="1746.4" fill="none" stroke="#FFFFFF" stroke-width="2" stroke-miterlimit="10" width="54.36" height="35.52"/>
				<polygon fill="#959AA1" points="2263.67,2001.74 2227.1,2001.74 2229.1,1576.96 2256.67,1577.96 				"/>
				<path fill="none" stroke="#FFFFFF" stroke-width="2" stroke-miterlimit="10" d="M2269.57,1576.18v422.56c0,0-14.64,4-24.27,4
					s-24.27-4-24.27-4v-422.56"/>
				<ellipse fill="#FDFDFD" cx="2251.59" cy="1817.17" rx="5.48" ry="88.1"/>
				<polygon fill="#FFFFFF" points="1285.51,1494.68 1285.51,1504 2258.18,1579.21 2255.72,1570.9 				"/>
				<polygon fill="#DEDFE1" points="2258,1578.67 2568.21,1623.68 2568.84,1619.99 2255.65,1570.85 				"/>
				<polygon fill="#DEDFE1" points="2254.22,1563.32 2577.21,1614.03 2577.21,1609.11 2247.33,1554.63 				"/>
				<polygon opacity="0.21" fill="#FFFFFF" points="1283.91,1497.88 1271.47,1766.13 2194.45,1791.81 2192.71,1570.67 				"/>
				<rect x="2548.37" y="1781.24" fill="#EEEFEF" width="2.1" height="4.12"/>
				<rect x="2570.13" y="1781.82" fill="#EEEFEF" width="2.1" height="4.12"/>
				<rect fill="none" width="3840" height="2160"/>
			</g>
		</g>
		<g>
			<g>
				<path opacity="0.25" fill="#FFFFFF" d="M2855.98,1444.39h-58.65c-35.57,0-64.4-28.83-64.4-64.4V905.43
					c0-35.57,28.83-64.4,64.4-64.4h58.65c35.57,0,64.4,28.83,64.4,64.4v474.55C2920.39,1415.55,2891.55,1444.39,2855.98,1444.39z"/>
				<polygon opacity="0.44" fill="#FFFFFF" points="2825.77,848.6 2783.65,832.16 2825.77,815.72 2867.89,832.16 				"/>
				
					<ellipse fill="none" stroke="#FFFFFF" stroke-width="2" stroke-miterlimit="10" cx="2829.82" cy="846.51" rx="123.37" ry="71.21"/>
				<path fill="none" stroke="#FFFFFF" stroke-width="2" stroke-miterlimit="10" d="M2923.53,897.89
					c16.81,12.17,26.85,27.59,26.85,44.36c0,39.33-55.23,71.21-123.37,71.21c-68.13,0-123.37-31.88-123.37-71.21
					c0-18.21,11.84-34.82,31.32-47.42"/>
				<path fill="none" stroke="#FFFFFF" stroke-width="0.5" stroke-miterlimit="10" d="M2922.28,871.32
					c16.81,12.17,26.85,27.59,26.85,44.36c0,39.33-55.23,71.21-123.37,71.21c-68.13,0-123.37-31.88-123.37-71.21
					c0-18.21,11.84-34.82,31.32-47.42"/>
				<path fill="none" stroke="#FFFFFF" stroke-width="0.5" stroke-miterlimit="10" d="M2922.28,886.13
					c16.81,12.17,26.85,27.59,26.85,44.36c0,39.33-55.23,71.21-123.37,71.21c-68.13,0-123.37-31.88-123.37-71.21
					c0-18.21,11.84-34.82,31.32-47.42"/>
				<path fill="none" stroke="#FFFFFF" stroke-width="0.5" stroke-miterlimit="10" d="M2922.28,916.07
					c16.81,12.17,26.85,27.59,26.85,44.36c0,39.33-55.23,71.21-123.37,71.21c-68.13,0-123.37-31.88-123.37-71.21
					c0-18.21,11.84-34.82,31.32-47.42"/>
				<path fill="none" stroke="#FFFFFF" stroke-width="0.5" stroke-miterlimit="10" d="M2922.28,930.63
					c16.81,12.17,26.85,27.59,26.85,44.36c0,39.33-55.23,71.21-123.37,71.21c-68.13,0-123.37-31.88-123.37-71.21
					c0-18.21,11.84-34.82,31.32-47.42"/>
				<path fill="none" stroke="#FFFFFF" stroke-width="0.5" stroke-miterlimit="10" d="M2922.28,948.16
					c16.81,12.17,26.85,27.59,26.85,44.36c0,39.33-55.23,71.21-123.37,71.21c-68.13,0-123.37-31.88-123.37-71.21
					c0-18.21,11.84-34.82,31.32-47.42"/>
				<path fill="none" stroke="#FFFFFF" stroke-width="0.5" stroke-miterlimit="10" d="M2922.28,964.15
					c16.81,12.17,26.85,27.59,26.85,44.36c0,39.33-55.23,71.21-123.37,71.21c-68.13,0-123.37-31.88-123.37-71.21
					c0-18.21,11.84-34.82,31.32-47.42"/>
				<path fill="none" stroke="#FFFFFF" stroke-width="0.5" stroke-miterlimit="10" d="M2922.28,1000.35
					c16.81,12.17,26.85,27.59,26.85,44.36c0,39.33-55.23,71.21-123.37,71.21c-68.13,0-123.37-31.88-123.37-71.21
					c0-18.21,11.84-34.82,31.32-47.42"/>
				<path fill="none" stroke="#FFFFFF" stroke-width="0.5" stroke-miterlimit="10" d="M2922.28,1018.99
					c16.81,12.17,26.85,27.59,26.85,44.36c0,39.33-55.23,71.21-123.37,71.21c-68.13,0-123.37-31.88-123.37-71.21
					c0-18.21,11.84-34.82,31.32-47.42"/>
				<path fill="none" stroke="#FFFFFF" stroke-width="0.5" stroke-miterlimit="10" d="M2922.28,1033.83
					c16.81,12.17,26.85,27.59,26.85,44.36c0,39.33-55.23,71.21-123.37,71.21c-68.13,0-123.37-31.88-123.37-71.21
					c0-18.21,11.84-34.82,31.32-47.42"/>
				<path fill="none" stroke="#FFFFFF" stroke-width="0.5" stroke-miterlimit="10" d="M2922.28,1047.78
					c16.81,12.17,26.85,27.59,26.85,44.36c0,39.33-55.23,71.21-123.37,71.21c-68.13,0-123.37-31.88-123.37-71.21
					c0-18.21,11.84-34.82,31.32-47.42"/>
				<path fill="none" stroke="#FFFFFF" stroke-width="0.5" stroke-miterlimit="10" d="M2922.28,1075.21
					c16.81,12.17,26.85,27.59,26.85,44.36c0,39.33-55.23,71.21-123.37,71.21c-68.13,0-123.37-31.88-123.37-71.21
					c0-18.21,11.84-34.82,31.32-47.42"/>
				<path fill="none" stroke="#FFFFFF" stroke-width="0.5" stroke-miterlimit="10" d="M2922.28,856.75
					c16.81,12.17,26.85,27.59,26.85,44.36c0,39.33-55.23,71.21-123.37,71.21c-68.13,0-123.37-31.88-123.37-71.21
					c0-18.21,11.84-34.82,31.32-47.42"/>
				<path fill="none" stroke="#FFFFFF" stroke-width="0.5" stroke-miterlimit="10" d="M2922.28,844.09
					c16.81,12.17,26.85,27.59,26.85,44.36c0,39.33-55.23,71.21-123.37,71.21c-68.13,0-123.37-31.88-123.37-71.21
					c0-18.21,11.84-34.82,31.32-47.42"/>
				<path fill="none" stroke="#FFFFFF" stroke-width="0.5" stroke-miterlimit="10" d="M2922.28,829.98
					c16.81,12.17,26.85,27.59,26.85,44.36c0,39.33-55.23,71.21-123.37,71.21c-68.13,0-123.37-31.88-123.37-71.21
					c0-18.21,11.84-34.82,31.32-47.42"/>
				<path fill="none" stroke="#FFFFFF" stroke-width="0.5" stroke-miterlimit="10" d="M2922.28,812
					c16.81,12.17,26.85,27.59,26.85,44.36c0,39.33-55.23,71.21-123.37,71.21c-68.13,0-123.37-31.88-123.37-71.21
					c0-18.21,11.84-34.82,31.32-47.42"/>
				<path fill="none" stroke="#FFFFFF" stroke-width="0.5" stroke-miterlimit="10" d="M2923.53,1143.31
					c16.81,12.17,26.85,27.59,26.85,44.36c0,39.33-55.23,71.21-123.37,71.21c-68.13,0-123.37-31.88-123.37-71.21
					c0-18.21,11.84-34.82,31.32-47.42"/>
				<path fill="none" stroke="#FFFFFF" stroke-width="0.5" stroke-miterlimit="10" d="M2923.53,1158.13
					c16.81,12.17,26.85,27.59,26.85,44.36c0,39.33-55.23,71.21-123.37,71.21c-68.13,0-123.37-31.88-123.37-71.21
					c0-18.21,11.84-34.82,31.32-47.42"/>
				<path fill="none" stroke="#FFFFFF" stroke-width="0.5" stroke-miterlimit="10" d="M2923.53,1181.07
					c16.81,12.17,26.85,27.59,26.85,44.36c0,39.33-55.23,71.21-123.37,71.21c-68.13,0-123.37-31.88-123.37-71.21
					c0-18.21,11.84-34.82,31.32-47.42"/>
				<path fill="none" stroke="#FFFFFF" stroke-width="0.5" stroke-miterlimit="10" d="M2923.53,1195.63
					c16.81,12.17,26.85,27.59,26.85,44.36c0,39.33-55.23,71.21-123.37,71.21c-68.13,0-123.37-31.88-123.37-71.21
					c0-18.21,11.84-34.82,31.32-47.42"/>
				<path fill="none" stroke="#FFFFFF" stroke-width="0.5" stroke-miterlimit="10" d="M2923.53,1213.16
					c16.81,12.17,26.85,27.59,26.85,44.36c0,39.33-55.23,71.21-123.37,71.21c-68.13,0-123.37-31.88-123.37-71.21
					c0-18.21,11.84-34.82,31.32-47.42"/>
				<path fill="none" stroke="#FFFFFF" stroke-width="0.5" stroke-miterlimit="10" d="M2923.53,1229.15
					c16.81,12.17,26.85,27.59,26.85,44.36c0,39.33-55.23,71.21-123.37,71.21c-68.13,0-123.37-31.88-123.37-71.21
					c0-18.21,11.84-34.82,31.32-47.42"/>
				<path fill="none" stroke="#FFFFFF" stroke-width="0.5" stroke-miterlimit="10" d="M2923.53,1264.35
					c16.81,12.17,26.85,27.59,26.85,44.36c0,39.33-55.23,71.21-123.37,71.21c-68.13,0-123.37-31.88-123.37-71.21
					c0-18.21,11.84-34.82,31.32-47.42"/>
				<path fill="none" stroke="#FFFFFF" stroke-width="0.5" stroke-miterlimit="10" d="M2923.53,1282.99
					c16.81,12.17,26.85,27.59,26.85,44.36c0,39.33-55.23,71.21-123.37,71.21c-68.13,0-123.37-31.88-123.37-71.21
					c0-18.21,11.84-34.82,31.32-47.42"/>
				<path fill="none" stroke="#FFFFFF" stroke-width="0.5" stroke-miterlimit="10" d="M2923.53,1297.83
					c16.81,12.17,26.85,27.59,26.85,44.36c0,39.33-55.23,71.21-123.37,71.21c-68.13,0-123.37-31.88-123.37-71.21
					c0-18.21,11.84-34.82,31.32-47.42"/>
				<path fill="none" stroke="#FFFFFF" stroke-width="0.5" stroke-miterlimit="10" d="M2923.53,1311.78
					c16.81,12.17,26.85,27.59,26.85,44.36c0,39.33-55.23,71.21-123.37,71.21c-68.13,0-123.37-31.88-123.37-71.21
					c0-18.21,11.84-34.82,31.32-47.42"/>
				<path fill="none" stroke="#FFFFFF" stroke-width="0.5" stroke-miterlimit="10" d="M2923.53,1128.75
					c16.81,12.17,26.85,27.59,26.85,44.36c0,39.33-55.23,71.21-123.37,71.21c-68.13,0-123.37-31.88-123.37-71.21
					c0-18.21,11.84-34.82,31.32-47.42"/>
				<path fill="none" stroke="#FFFFFF" stroke-width="0.5" stroke-miterlimit="10" d="M2923.53,1116.09
					c16.81,12.17,26.85,27.59,26.85,44.36c0,39.33-55.23,71.21-123.37,71.21c-68.13,0-123.37-31.88-123.37-71.21
					c0-18.21,11.84-34.82,31.32-47.42"/>
				<path fill="none" stroke="#FFFFFF" stroke-width="0.5" stroke-miterlimit="10" d="M2923.53,1101.98
					c16.81,12.17,26.85,27.59,26.85,44.36c0,39.33-55.23,71.21-123.37,71.21c-68.13,0-123.37-31.88-123.37-71.21
					c0-18.21,11.84-34.82,31.32-47.42"/>
				<path fill="none" stroke="#FFFFFF" stroke-width="0.5" stroke-miterlimit="10" d="M2923.53,1084
					c16.81,12.17,26.85,27.59,26.85,44.36c0,39.33-55.23,71.21-123.37,71.21c-68.13,0-123.37-31.88-123.37-71.21
					c0-18.21,11.84-34.82,31.32-47.42"/>
				<path fill="none" stroke="#FFFFFF" stroke-width="2" stroke-miterlimit="10" d="M2922.98,986.99
					c15.65,11.94,24.94,26.81,24.94,42.94c0,39.33-55.23,71.21-123.37,71.21c-68.13,0-123.37-31.88-123.37-71.21
					c0-16.96,10.27-32.53,27.4-44.76"/>
				<path fill="none" stroke="#FFFFFF" stroke-width="2" stroke-miterlimit="10" d="M2927.82,1068.91
					c14.22,11.61,22.57,25.78,22.57,41.07c0,39.33-55.23,71.21-123.37,71.21c-68.13,0-123.37-31.88-123.37-71.21
					c0-13.29,6.31-25.73,17.28-36.37"/>
				<path fill="none" stroke="#FFFFFF" stroke-width="2" stroke-miterlimit="10" d="M2924.21,1153.84
					c15.96,12,25.44,27.02,25.44,43.32c0,39.33-55.23,71.21-123.37,71.21c-68.13,0-123.37-31.88-123.37-71.21
					c0-16.55,9.78-31.78,26.18-43.87"/>
				<path fill="none" stroke="#FFFFFF" stroke-width="2" stroke-miterlimit="10" d="M2923.51,1241
					c16.22,12.06,25.88,27.2,25.88,43.65c0,39.33-55.23,71.21-123.37,71.21c-68.13,0-123.37-31.88-123.37-71.21
					c0-16.54,9.77-31.76,26.15-43.85"/>
				<path fill="none" stroke="#FFFFFF" stroke-width="2" stroke-miterlimit="10" d="M2921.69,1329.61
					c17.48,12.29,27.97,28.02,27.97,45.16c0,39.33-55.23,71.21-123.37,71.21c-68.13,0-123.37-31.88-123.37-71.21
					c0-17.05,10.38-32.71,27.7-44.97"/>
				
					<line fill="none" stroke="#FFFFFF" stroke-width="2" stroke-miterlimit="10" x1="2705.65" y1="853.43" x2="2705.65" y2="1409.51"/>
				<line fill="none" stroke="#FFFFFF" stroke-width="2" stroke-miterlimit="10" x1="2945" y1="823.1" x2="2945" y2="1395.19"/>
				<line fill="none" stroke="#FFFFFF" stroke-miterlimit="10" x1="2827.02" y1="847.01" x2="2827.02" y2="1403.09"/>
				<path fill="none" stroke="#FFFFFF" stroke-miterlimit="10" d="M2822.79,1446.6l44.77,104.82l-0.2,23.83
					c0,0,19.43,5.08,33.21,0.33c13.79-4.75,18.85-14.58,18.85-14.58l-0.1-21.2l26.67-146.16"/>
				<path fill="none" stroke="#FFFFFF" stroke-miterlimit="10" d="M2841.42,1446.13l37.58,96.47v18.56c0,0,8.24,2.49,19.02-1.01
					c6.28-2.04,9.22-8.71,9.22-8.71l-0.54-13.07l22.45-122.94"/>
				<path fill="none" stroke="#FFFFFF" stroke-miterlimit="10" d="M2818.72,1445.98l-34.53,109.86l1,18.26
					c0,0-10.64,10.34-29.07,6.32c-13.98-3.05-22.65-17.18-22.65-17.18l0.4-16.79l-28.21-136.93"/>
				<path fill="none" stroke="#FFFFFF" stroke-miterlimit="10" d="M2885.11,1344.08l-27.53,132.86l1,18.26
					c0,0-12.68,14.34-34.07,14.32c-14.31-0.02-28.65-15.18-28.65-15.18l0.4-16.79l-34.29-134.93"/>
				<path fill="none" stroke="#FFFFFF" stroke-miterlimit="10" d="M2870.16,1331.03l-26.77,135.16l0.75,17.36
					c0,0-6.35,11.38-17.17,10.66c-10.76-0.71-17.09-14.34-17.09-14.34l0.3-15.96l-32.85-134.27"/>
				<path fill="none" stroke="#FFFFFF" stroke-miterlimit="10" d="M2801.9,1446.32l-31.71,98.51l-1.13,19.4
					c0,0-4.16,4.09-11.13,2.04c-6.97-2.04-11.49-8.17-11.49-8.17l0.62-15.83l-24.68-128.06"/>
				<polyline fill="none" stroke="#FFFFFF" stroke-width="2" stroke-miterlimit="10" points="2756.99,1173.66 2745.39,1176.64 
					2728.28,1171.89 2740.59,1169.21 				"/>
				<polyline fill="none" stroke="#FFFFFF" stroke-width="2" stroke-miterlimit="10" points="2756.99,1184.45 2745.39,1187.43 
					2728.28,1182.69 2740.59,1180.01 				"/>
				<polyline fill="none" stroke="#FFFFFF" stroke-width="2" stroke-miterlimit="10" points="2756.99,1194.64 2745.39,1197.61 
					2728.28,1192.87 2740.59,1190.19 				"/>
				<polyline fill="none" stroke="#FFFFFF" stroke-width="2" stroke-miterlimit="10" points="2756.99,1204.83 2745.39,1207.81 
					2728.28,1203.07 2740.59,1200.39 				"/>
				<polyline fill="none" stroke="#FFFFFF" stroke-width="2" stroke-miterlimit="10" points="2756.99,1213.85 2745.39,1216.83 
					2728.28,1212.08 2740.59,1209.4 				"/>
				<polyline fill="none" stroke="#FFFFFF" stroke-width="2" stroke-miterlimit="10" points="2756.99,1224.7 2745.39,1227.67 
					2728.28,1222.93 2740.59,1220.25 				"/>
				<polyline fill="none" stroke="#FFFFFF" stroke-width="2" stroke-miterlimit="10" points="2756.99,1235.49 2745.39,1238.47 
					2728.28,1233.72 2740.59,1231.04 				"/>
				<polyline fill="none" stroke="#FFFFFF" stroke-width="2" stroke-miterlimit="10" points="2756.99,1246.28 2745.39,1249.26 
					2728.28,1244.51 2740.59,1241.83 				"/>
				<polyline fill="none" stroke="#FFFFFF" stroke-width="2" stroke-miterlimit="10" points="2756.99,1256.46 2745.39,1259.44 
					2728.28,1254.7 2740.59,1252.02 				"/>
				<polyline fill="none" stroke="#FFFFFF" stroke-width="2" stroke-miterlimit="10" points="2756.99,1266.64 2745.39,1269.62 
					2728.28,1264.88 2740.59,1262.2 				"/>
				<polyline fill="none" stroke="#FFFFFF" stroke-width="2" stroke-miterlimit="10" points="2756.99,1276.17 2745.39,1279.14 
					2728.28,1274.4 2740.59,1271.72 				"/>
				<polyline fill="none" stroke="#FFFFFF" stroke-width="2" stroke-miterlimit="10" points="2756.99,1286.3 2745.39,1289.28 
					2728.28,1284.53 2740.59,1281.86 				"/>
				<polyline fill="none" stroke="#FFFFFF" stroke-width="2" stroke-miterlimit="10" points="2756.99,1297.04 2745.39,1300.02 
					2728.28,1295.28 2740.59,1292.6 				"/>
				<polyline fill="none" stroke="#FFFFFF" stroke-width="2" stroke-miterlimit="10" points="2756.99,1307.52 2745.39,1310.5 
					2728.28,1305.75 2740.59,1303.07 				"/>
				<polyline fill="none" stroke="#FFFFFF" stroke-width="2" stroke-miterlimit="10" points="2756.99,1317.7 2745.39,1320.68 
					2728.28,1315.94 2740.59,1313.26 				"/>
				<polyline fill="none" stroke="#FFFFFF" stroke-width="2" stroke-miterlimit="10" points="2756.99,1327.89 2745.39,1330.86 
					2728.28,1326.12 2740.59,1323.44 				"/>
				<polyline fill="none" stroke="#FFFFFF" stroke-width="2" stroke-miterlimit="10" points="2756.99,1337.47 2745.39,1340.45 
					2728.28,1335.71 2740.59,1333.03 				"/>
				<polyline fill="none" stroke="#FFFFFF" stroke-width="2" stroke-miterlimit="10" points="2756.99,1347.71 2745.39,1350.69 
					2728.28,1345.94 2740.59,1343.26 				"/>
				<polyline fill="none" stroke="#FFFFFF" stroke-width="2" stroke-miterlimit="10" points="2756.99,1357.95 2745.39,1360.92 
					2728.28,1356.18 2740.59,1353.5 				"/>
				<polyline fill="none" stroke="#FFFFFF" stroke-width="2" stroke-miterlimit="10" points="2756.99,1368.74 2745.39,1371.71 
					2728.28,1366.97 2740.59,1364.29 				"/>
				<polyline fill="none" stroke="#FFFFFF" stroke-width="2" stroke-miterlimit="10" points="2756.99,1379.53 2745.39,1382.51 
					2728.28,1377.76 2740.59,1375.08 				"/>
				<polyline fill="none" stroke="#FFFFFF" stroke-width="2" stroke-miterlimit="10" points="2756.99,1390.32 2745.39,1393.3 
					2728.28,1388.55 2740.59,1385.87 				"/>
				<polyline fill="none" stroke="#FFFFFF" stroke-width="2" stroke-miterlimit="10" points="2756.99,1400.5 2745.39,1403.48 
					2728.28,1398.74 2740.59,1396.06 				"/>
				<polyline fill="none" stroke="#FFFFFF" stroke-width="2" stroke-miterlimit="10" points="2756.99,1411.25 2745.39,1414.22 
					2728.28,1409.48 2740.59,1406.8 				"/>
				<polyline fill="none" stroke="#FFFFFF" stroke-width="2" stroke-miterlimit="10" points="2756.99,1421.99 2745.39,1424.97 
					2728.28,1420.22 2740.59,1417.54 				"/>
				<polyline fill="none" stroke="#FFFFFF" stroke-width="2" stroke-miterlimit="10" points="2756.99,1432.12 2745.39,1435.1 
					2728.28,1430.36 2740.59,1427.68 				"/>
				<polyline fill="none" stroke="#FFFFFF" stroke-width="2" stroke-miterlimit="10" points="2756.99,904.4 2745.39,907.38 
					2728.28,902.64 2740.59,899.96 				"/>
				<polyline fill="none" stroke="#FFFFFF" stroke-width="2" stroke-miterlimit="10" points="2756.99,915.2 2745.39,918.17 
					2728.28,913.43 2740.59,910.75 				"/>
				<polyline fill="none" stroke="#FFFFFF" stroke-width="2" stroke-miterlimit="10" points="2756.99,925.38 2745.39,928.36 
					2728.28,923.61 2740.59,920.93 				"/>
				<polyline fill="none" stroke="#FFFFFF" stroke-width="2" stroke-miterlimit="10" points="2756.99,935.58 2745.39,938.55 
					2728.28,933.81 2740.59,931.13 				"/>
				<polyline fill="none" stroke="#FFFFFF" stroke-width="2" stroke-miterlimit="10" points="2756.99,944.59 2745.39,947.57 
					2728.28,942.83 2740.59,940.15 				"/>
				<polyline fill="none" stroke="#FFFFFF" stroke-width="2" stroke-miterlimit="10" points="2756.99,955.44 2745.39,958.42 
					2728.28,953.67 2740.59,950.99 				"/>
				<polyline fill="none" stroke="#FFFFFF" stroke-width="2" stroke-miterlimit="10" points="2756.99,966.23 2745.39,969.21 
					2728.28,964.46 2740.59,961.79 				"/>
				<polyline fill="none" stroke="#FFFFFF" stroke-width="2" stroke-miterlimit="10" points="2756.99,977.02 2745.39,980 
					2728.28,975.26 2740.59,972.58 				"/>
				<polyline fill="none" stroke="#FFFFFF" stroke-width="2" stroke-miterlimit="10" points="2756.99,987.2 2745.39,990.18 
					2728.28,985.44 2740.59,982.76 				"/>
				<polyline fill="none" stroke="#FFFFFF" stroke-width="2" stroke-miterlimit="10" points="2756.99,997.39 2745.39,1000.36 
					2728.28,995.62 2740.59,992.94 				"/>
				<polyline fill="none" stroke="#FFFFFF" stroke-width="2" stroke-miterlimit="10" points="2756.99,1006.91 2745.39,1009.89 
					2728.28,1005.14 2740.59,1002.46 				"/>
				<polyline fill="none" stroke="#FFFFFF" stroke-width="2" stroke-miterlimit="10" points="2756.99,1017.04 2745.39,1020.02 
					2728.28,1015.28 2740.59,1012.6 				"/>
				<polyline fill="none" stroke="#FFFFFF" stroke-width="2" stroke-miterlimit="10" points="2756.99,1027.79 2745.39,1030.76 
					2728.28,1026.02 2740.59,1023.34 				"/>
				<polyline fill="none" stroke="#FFFFFF" stroke-width="2" stroke-miterlimit="10" points="2756.99,1038.26 2745.39,1041.24 
					2728.28,1036.49 2740.59,1033.81 				"/>
				<polyline fill="none" stroke="#FFFFFF" stroke-width="2" stroke-miterlimit="10" points="2756.99,1048.44 2745.39,1051.42 
					2728.28,1046.68 2740.59,1044 				"/>
				<polyline fill="none" stroke="#FFFFFF" stroke-width="2" stroke-miterlimit="10" points="2756.99,1058.63 2745.39,1061.61 
					2728.28,1056.86 2740.59,1054.18 				"/>
				<polyline fill="none" stroke="#FFFFFF" stroke-width="2" stroke-miterlimit="10" points="2756.99,1068.21 2745.39,1071.19 
					2728.28,1066.45 2740.59,1063.77 				"/>
				<polyline fill="none" stroke="#FFFFFF" stroke-width="2" stroke-miterlimit="10" points="2756.99,1078.45 2745.39,1081.43 
					2728.28,1076.68 2740.59,1074.01 				"/>
				<polyline fill="none" stroke="#FFFFFF" stroke-width="2" stroke-miterlimit="10" points="2756.99,1088.69 2745.39,1091.67 
					2728.28,1086.92 2740.59,1084.24 				"/>
				<polyline fill="none" stroke="#FFFFFF" stroke-width="2" stroke-miterlimit="10" points="2756.99,1099.48 2745.39,1102.46 
					2728.28,1097.71 2740.59,1095.03 				"/>
				<polyline fill="none" stroke="#FFFFFF" stroke-width="2" stroke-miterlimit="10" points="2756.99,1110.27 2745.39,1113.25 
					2728.28,1108.5 2740.59,1105.83 				"/>
				<polyline fill="none" stroke="#FFFFFF" stroke-width="2" stroke-miterlimit="10" points="2756.99,1121.06 2745.39,1124.04 
					2728.28,1119.3 2740.59,1116.62 				"/>
				<polyline fill="none" stroke="#FFFFFF" stroke-width="2" stroke-miterlimit="10" points="2756.99,1131.24 2745.39,1134.22 
					2728.28,1129.48 2740.59,1126.8 				"/>
				<polyline fill="none" stroke="#FFFFFF" stroke-width="2" stroke-miterlimit="10" points="2756.99,1141.99 2745.39,1144.97 
					2728.28,1140.22 2740.59,1137.54 				"/>
				<polyline fill="none" stroke="#FFFFFF" stroke-width="2" stroke-miterlimit="10" points="2756.99,1152.73 2745.39,1155.71 
					2728.28,1150.97 2740.59,1148.29 				"/>
				<polyline fill="none" stroke="#FFFFFF" stroke-width="2" stroke-miterlimit="10" points="2756.99,1162.87 2745.39,1165.84 
					2728.28,1161.1 2740.59,1158.42 				"/>
				<polygon fill="none" stroke="#FFFFFF" stroke-width="2" stroke-miterlimit="10" points="2827.33,865.04 2785.21,848.6 
					2827.33,832.16 2869.44,848.6 				"/>
				<polygon fill="none" stroke="#FFFFFF" stroke-miterlimit="10" points="2825.77,848.6 2783.65,832.16 2825.77,815.72 
					2867.89,832.16 				"/>
				<rect fill="none" width="3840" height="2160"/>
			</g>
		</g>
		<g>
			<g>
				<path opacity="0.25" fill="#FFFFFF" d="M3117.98,1554.39h-58.65c-35.57,0-64.4-28.83-64.4-64.4v-474.55
					c0-35.57,28.83-64.4,64.4-64.4h58.65c35.57,0,64.4,28.83,64.4,64.4v474.55C3182.39,1525.55,3153.55,1554.39,3117.98,1554.39z"/>
				<polygon opacity="0.44" fill="#FFFFFF" points="3087.77,958.6 3045.65,942.16 3087.77,925.72 3129.89,942.16 				"/>
				
					<ellipse fill="none" stroke="#FFFFFF" stroke-width="2" stroke-miterlimit="10" cx="3091.82" cy="956.51" rx="123.37" ry="71.21"/>
				<path fill="none" stroke="#FFFFFF" stroke-width="2" stroke-miterlimit="10" d="M3185.53,1007.89
					c16.81,12.17,26.85,27.59,26.85,44.36c0,39.33-55.23,71.21-123.37,71.21c-68.13,0-123.37-31.88-123.37-71.21
					c0-18.21,11.84-34.82,31.32-47.42"/>
				<path fill="none" stroke="#FFFFFF" stroke-width="0.5" stroke-miterlimit="10" d="M3184.28,981.32
					c16.81,12.17,26.85,27.59,26.85,44.36c0,39.33-55.23,71.21-123.37,71.21c-68.13,0-123.37-31.88-123.37-71.21
					c0-18.21,11.84-34.82,31.32-47.42"/>
				<path fill="none" stroke="#FFFFFF" stroke-width="0.5" stroke-miterlimit="10" d="M3184.28,996.13
					c16.81,12.17,26.85,27.59,26.85,44.36c0,39.33-55.23,71.21-123.37,71.21c-68.13,0-123.37-31.88-123.37-71.21
					c0-18.21,11.84-34.82,31.32-47.42"/>
				<path fill="none" stroke="#FFFFFF" stroke-width="0.5" stroke-miterlimit="10" d="M3184.28,1026.07
					c16.81,12.17,26.85,27.59,26.85,44.36c0,39.33-55.23,71.21-123.37,71.21c-68.13,0-123.37-31.88-123.37-71.21
					c0-18.21,11.84-34.82,31.32-47.42"/>
				<path fill="none" stroke="#FFFFFF" stroke-width="0.5" stroke-miterlimit="10" d="M3184.28,1040.63
					c16.81,12.17,26.85,27.59,26.85,44.36c0,39.33-55.23,71.21-123.37,71.21c-68.13,0-123.37-31.88-123.37-71.21
					c0-18.21,11.84-34.82,31.32-47.42"/>
				<path fill="none" stroke="#FFFFFF" stroke-width="0.5" stroke-miterlimit="10" d="M3184.28,1058.16
					c16.81,12.17,26.85,27.59,26.85,44.36c0,39.33-55.23,71.21-123.37,71.21c-68.13,0-123.37-31.88-123.37-71.21
					c0-18.21,11.84-34.82,31.32-47.42"/>
				<path fill="none" stroke="#FFFFFF" stroke-width="0.5" stroke-miterlimit="10" d="M3184.28,1074.15
					c16.81,12.17,26.85,27.59,26.85,44.36c0,39.33-55.23,71.21-123.37,71.21c-68.13,0-123.37-31.88-123.37-71.21
					c0-18.21,11.84-34.82,31.32-47.42"/>
				<path fill="none" stroke="#FFFFFF" stroke-width="0.5" stroke-miterlimit="10" d="M3184.28,1110.35
					c16.81,12.17,26.85,27.59,26.85,44.36c0,39.33-55.23,71.21-123.37,71.21c-68.13,0-123.37-31.88-123.37-71.21
					c0-18.21,11.84-34.82,31.32-47.42"/>
				<path fill="none" stroke="#FFFFFF" stroke-width="0.5" stroke-miterlimit="10" d="M3184.28,1128.99
					c16.81,12.17,26.85,27.59,26.85,44.36c0,39.33-55.23,71.21-123.37,71.21c-68.13,0-123.37-31.88-123.37-71.21
					c0-18.21,11.84-34.82,31.32-47.42"/>
				<path fill="none" stroke="#FFFFFF" stroke-width="0.5" stroke-miterlimit="10" d="M3184.28,1143.83
					c16.81,12.17,26.85,27.59,26.85,44.36c0,39.33-55.23,71.21-123.37,71.21c-68.13,0-123.37-31.88-123.37-71.21
					c0-18.21,11.84-34.82,31.32-47.42"/>
				<path fill="none" stroke="#FFFFFF" stroke-width="0.5" stroke-miterlimit="10" d="M3184.28,1157.78
					c16.81,12.17,26.85,27.59,26.85,44.36c0,39.33-55.23,71.21-123.37,71.21c-68.13,0-123.37-31.88-123.37-71.21
					c0-18.21,11.84-34.82,31.32-47.42"/>
				<path fill="none" stroke="#FFFFFF" stroke-width="0.5" stroke-miterlimit="10" d="M3184.28,1185.21
					c16.81,12.17,26.85,27.59,26.85,44.36c0,39.33-55.23,71.21-123.37,71.21c-68.13,0-123.37-31.88-123.37-71.21
					c0-18.21,11.84-34.82,31.32-47.42"/>
				<path fill="none" stroke="#FFFFFF" stroke-width="0.5" stroke-miterlimit="10" d="M3184.28,966.75
					c16.81,12.17,26.85,27.59,26.85,44.36c0,39.33-55.23,71.21-123.37,71.21c-68.13,0-123.37-31.88-123.37-71.21
					c0-18.21,11.84-34.82,31.32-47.42"/>
				<path fill="none" stroke="#FFFFFF" stroke-width="0.5" stroke-miterlimit="10" d="M3184.28,954.09
					c16.81,12.17,26.85,27.59,26.85,44.36c0,39.33-55.23,71.21-123.37,71.21c-68.13,0-123.37-31.88-123.37-71.21
					c0-18.21,11.84-34.82,31.32-47.42"/>
				<path fill="none" stroke="#FFFFFF" stroke-width="0.5" stroke-miterlimit="10" d="M3184.28,939.98
					c16.81,12.17,26.85,27.59,26.85,44.36c0,39.33-55.23,71.21-123.37,71.21c-68.13,0-123.37-31.88-123.37-71.21
					c0-18.21,11.84-34.82,31.32-47.42"/>
				<path fill="none" stroke="#FFFFFF" stroke-width="0.5" stroke-miterlimit="10" d="M3184.28,922
					c16.81,12.17,26.85,27.59,26.85,44.36c0,39.33-55.23,71.21-123.37,71.21c-68.13,0-123.37-31.88-123.37-71.21
					c0-18.21,11.84-34.82,31.32-47.42"/>
				<path fill="none" stroke="#FFFFFF" stroke-width="0.5" stroke-miterlimit="10" d="M3185.53,1253.31
					c16.81,12.17,26.85,27.59,26.85,44.36c0,39.33-55.23,71.21-123.37,71.21c-68.13,0-123.37-31.88-123.37-71.21
					c0-18.21,11.84-34.82,31.32-47.42"/>
				<path fill="none" stroke="#FFFFFF" stroke-width="0.5" stroke-miterlimit="10" d="M3185.53,1268.13
					c16.81,12.17,26.85,27.59,26.85,44.36c0,39.33-55.23,71.21-123.37,71.21c-68.13,0-123.37-31.88-123.37-71.21
					c0-18.21,11.84-34.82,31.32-47.42"/>
				<path fill="none" stroke="#FFFFFF" stroke-width="0.5" stroke-miterlimit="10" d="M3185.53,1291.07
					c16.81,12.17,26.85,27.59,26.85,44.36c0,39.33-55.23,71.21-123.37,71.21c-68.13,0-123.37-31.88-123.37-71.21
					c0-18.21,11.84-34.82,31.32-47.42"/>
				<path fill="none" stroke="#FFFFFF" stroke-width="0.5" stroke-miterlimit="10" d="M3185.53,1305.63
					c16.81,12.17,26.85,27.59,26.85,44.36c0,39.33-55.23,71.21-123.37,71.21c-68.13,0-123.37-31.88-123.37-71.21
					c0-18.21,11.84-34.82,31.32-47.42"/>
				<path fill="none" stroke="#FFFFFF" stroke-width="0.5" stroke-miterlimit="10" d="M3185.53,1323.16
					c16.81,12.17,26.85,27.59,26.85,44.36c0,39.33-55.23,71.21-123.37,71.21c-68.13,0-123.37-31.88-123.37-71.21
					c0-18.21,11.84-34.82,31.32-47.42"/>
				<path fill="none" stroke="#FFFFFF" stroke-width="0.5" stroke-miterlimit="10" d="M3185.53,1339.15
					c16.81,12.17,26.85,27.59,26.85,44.36c0,39.33-55.23,71.21-123.37,71.21c-68.13,0-123.37-31.88-123.37-71.21
					c0-18.21,11.84-34.82,31.32-47.42"/>
				<path fill="none" stroke="#FFFFFF" stroke-width="0.5" stroke-miterlimit="10" d="M3185.53,1374.35
					c16.81,12.17,26.85,27.59,26.85,44.36c0,39.33-55.23,71.21-123.37,71.21c-68.13,0-123.37-31.88-123.37-71.21
					c0-18.21,11.84-34.82,31.32-47.42"/>
				<path fill="none" stroke="#FFFFFF" stroke-width="0.5" stroke-miterlimit="10" d="M3185.53,1392.99
					c16.81,12.17,26.85,27.59,26.85,44.36c0,39.33-55.23,71.21-123.37,71.21c-68.13,0-123.37-31.88-123.37-71.21
					c0-18.21,11.84-34.82,31.32-47.42"/>
				<path fill="none" stroke="#FFFFFF" stroke-width="0.5" stroke-miterlimit="10" d="M3185.53,1407.83
					c16.81,12.17,26.85,27.59,26.85,44.36c0,39.33-55.23,71.21-123.37,71.21c-68.13,0-123.37-31.88-123.37-71.21
					c0-18.21,11.84-34.82,31.32-47.42"/>
				<path fill="none" stroke="#FFFFFF" stroke-width="0.5" stroke-miterlimit="10" d="M3185.53,1421.78
					c16.81,12.17,26.85,27.59,26.85,44.36c0,39.33-55.23,71.21-123.37,71.21c-68.13,0-123.37-31.88-123.37-71.21
					c0-18.21,11.84-34.82,31.32-47.42"/>
				<path fill="none" stroke="#FFFFFF" stroke-width="0.5" stroke-miterlimit="10" d="M3185.53,1238.75
					c16.81,12.17,26.85,27.59,26.85,44.36c0,39.33-55.23,71.21-123.37,71.21c-68.13,0-123.37-31.88-123.37-71.21
					c0-18.21,11.84-34.82,31.32-47.42"/>
				<path fill="none" stroke="#FFFFFF" stroke-width="0.5" stroke-miterlimit="10" d="M3185.53,1226.09
					c16.81,12.17,26.85,27.59,26.85,44.36c0,39.33-55.23,71.21-123.37,71.21c-68.13,0-123.37-31.88-123.37-71.21
					c0-18.21,11.84-34.82,31.32-47.42"/>
				<path fill="none" stroke="#FFFFFF" stroke-width="0.5" stroke-miterlimit="10" d="M3185.53,1211.98
					c16.81,12.17,26.85,27.59,26.85,44.36c0,39.33-55.23,71.21-123.37,71.21c-68.13,0-123.37-31.88-123.37-71.21
					c0-18.21,11.84-34.82,31.32-47.42"/>
				<path fill="none" stroke="#FFFFFF" stroke-width="0.5" stroke-miterlimit="10" d="M3185.53,1194
					c16.81,12.17,26.85,27.59,26.85,44.36c0,39.33-55.23,71.21-123.37,71.21c-68.13,0-123.37-31.88-123.37-71.21
					c0-18.21,11.84-34.82,31.32-47.42"/>
				<path fill="none" stroke="#FFFFFF" stroke-width="2" stroke-miterlimit="10" d="M3184.98,1096.99
					c15.65,11.94,24.94,26.81,24.94,42.94c0,39.33-55.23,71.21-123.37,71.21c-68.13,0-123.37-31.88-123.37-71.21
					c0-16.96,10.27-32.53,27.4-44.76"/>
				<path fill="none" stroke="#FFFFFF" stroke-width="2" stroke-miterlimit="10" d="M3189.82,1178.91
					c14.22,11.61,22.57,25.78,22.57,41.07c0,39.33-55.23,71.21-123.37,71.21c-68.13,0-123.37-31.88-123.37-71.21
					c0-13.29,6.31-25.73,17.28-36.37"/>
				<path fill="none" stroke="#FFFFFF" stroke-width="2" stroke-miterlimit="10" d="M3186.21,1263.84
					c15.96,12,25.44,27.02,25.44,43.32c0,39.33-55.23,71.21-123.37,71.21c-68.13,0-123.37-31.88-123.37-71.21
					c0-16.55,9.78-31.78,26.18-43.87"/>
				<path fill="none" stroke="#FFFFFF" stroke-width="2" stroke-miterlimit="10" d="M3185.51,1351
					c16.22,12.06,25.88,27.2,25.88,43.65c0,39.33-55.23,71.21-123.37,71.21c-68.13,0-123.37-31.88-123.37-71.21
					c0-16.54,9.77-31.76,26.15-43.85"/>
				<path fill="none" stroke="#FFFFFF" stroke-width="2" stroke-miterlimit="10" d="M3183.69,1439.61
					c17.48,12.29,27.97,28.02,27.97,45.16c0,39.33-55.23,71.21-123.37,71.21c-68.13,0-123.37-31.88-123.37-71.21
					c0-17.05,10.38-32.71,27.7-44.97"/>
				
					<line fill="none" stroke="#FFFFFF" stroke-width="2" stroke-miterlimit="10" x1="2967.65" y1="963.43" x2="2967.65" y2="1519.51"/>
				<line fill="none" stroke="#FFFFFF" stroke-width="2" stroke-miterlimit="10" x1="3207" y1="933.1" x2="3207" y2="1505.19"/>
				<line fill="none" stroke="#FFFFFF" stroke-miterlimit="10" x1="3089.02" y1="957.01" x2="3089.02" y2="1513.09"/>
				<path fill="none" stroke="#FFFFFF" stroke-miterlimit="10" d="M3084.79,1556.6l44.77,103.82l-1.2,20.83
					c0,0,20.43,7.08,34.21,2.33c13.79-4.75,18.85-12.58,18.85-12.58l-0.1-21.2l26.67-146.16"/>
				<path fill="none" stroke="#FFFFFF" stroke-miterlimit="10" d="M3103.42,1556.13l37.58,96.47v18.56c0,0,8.24,2.49,19.02-1.01
					c6.28-2.04,9.22-8.71,9.22-8.71l-0.54-13.07l22.45-122.94"/>
				<path fill="none" stroke="#FFFFFF" stroke-miterlimit="10" d="M3080.72,1555.98l-34.53,109.86l1,18.26
					c0,0-10.64,10.34-29.07,6.32c-13.98-3.05-22.65-17.18-22.65-17.18l0.4-16.79l-28.21-136.93"/>
				<path fill="none" stroke="#FFFFFF" stroke-miterlimit="10" d="M3147.11,1454.08l-27.53,132.86l1,18.26
					c0,0-12.68,14.34-34.07,14.32c-14.31-0.02-28.65-15.18-28.65-15.18l0.4-16.79l-34.29-134.93"/>
				<path fill="none" stroke="#FFFFFF" stroke-miterlimit="10" d="M3132.16,1441.03l-26.77,135.16l0.75,17.36
					c0,0-6.35,11.38-17.17,10.66c-10.76-0.71-17.09-14.34-17.09-14.34l0.3-15.96l-32.85-134.27"/>
				<path fill="none" stroke="#FFFFFF" stroke-miterlimit="10" d="M3063.9,1556.32l-31.71,98.51l-1.13,19.4
					c0,0-4.16,4.09-11.13,2.04c-6.97-2.04-11.49-8.17-11.49-8.17l0.62-15.83l-24.68-128.06"/>
				<polyline fill="none" stroke="#FFFFFF" stroke-width="2" stroke-miterlimit="10" points="3018.99,1283.66 3007.39,1286.64 
					2990.28,1281.89 3002.59,1279.21 				"/>
				<polyline fill="none" stroke="#FFFFFF" stroke-width="2" stroke-miterlimit="10" points="3018.99,1294.45 3007.39,1297.43 
					2990.28,1292.69 3002.59,1290.01 				"/>
				<polyline fill="none" stroke="#FFFFFF" stroke-width="2" stroke-miterlimit="10" points="3018.99,1304.64 3007.39,1307.61 
					2990.28,1302.87 3002.59,1300.19 				"/>
				<polyline fill="none" stroke="#FFFFFF" stroke-width="2" stroke-miterlimit="10" points="3018.99,1314.83 3007.39,1317.81 
					2990.28,1313.07 3002.59,1310.39 				"/>
				<polyline fill="none" stroke="#FFFFFF" stroke-width="2" stroke-miterlimit="10" points="3018.99,1323.85 3007.39,1326.83 
					2990.28,1322.08 3002.59,1319.4 				"/>
				<polyline fill="none" stroke="#FFFFFF" stroke-width="2" stroke-miterlimit="10" points="3018.99,1334.7 3007.39,1337.67 
					2990.28,1332.93 3002.59,1330.25 				"/>
				<polyline fill="none" stroke="#FFFFFF" stroke-width="2" stroke-miterlimit="10" points="3018.99,1345.49 3007.39,1348.47 
					2990.28,1343.72 3002.59,1341.04 				"/>
				<polyline fill="none" stroke="#FFFFFF" stroke-width="2" stroke-miterlimit="10" points="3018.99,1356.28 3007.39,1359.26 
					2990.28,1354.51 3002.59,1351.83 				"/>
				<polyline fill="none" stroke="#FFFFFF" stroke-width="2" stroke-miterlimit="10" points="3018.99,1366.46 3007.39,1369.44 
					2990.28,1364.7 3002.59,1362.02 				"/>
				<polyline fill="none" stroke="#FFFFFF" stroke-width="2" stroke-miterlimit="10" points="3018.99,1376.64 3007.39,1379.62 
					2990.28,1374.88 3002.59,1372.2 				"/>
				<polyline fill="none" stroke="#FFFFFF" stroke-width="2" stroke-miterlimit="10" points="3018.99,1386.17 3007.39,1389.14 
					2990.28,1384.4 3002.59,1381.72 				"/>
				<polyline fill="none" stroke="#FFFFFF" stroke-width="2" stroke-miterlimit="10" points="3018.99,1396.3 3007.39,1399.28 
					2990.28,1394.53 3002.59,1391.86 				"/>
				<polyline fill="none" stroke="#FFFFFF" stroke-width="2" stroke-miterlimit="10" points="3018.99,1407.04 3007.39,1410.02 
					2990.28,1405.28 3002.59,1402.6 				"/>
				<polyline fill="none" stroke="#FFFFFF" stroke-width="2" stroke-miterlimit="10" points="3018.99,1417.52 3007.39,1420.5 
					2990.28,1415.75 3002.59,1413.07 				"/>
				<polyline fill="none" stroke="#FFFFFF" stroke-width="2" stroke-miterlimit="10" points="3018.99,1427.7 3007.39,1430.68 
					2990.28,1425.94 3002.59,1423.26 				"/>
				<polyline fill="none" stroke="#FFFFFF" stroke-width="2" stroke-miterlimit="10" points="3018.99,1437.89 3007.39,1440.86 
					2990.28,1436.12 3002.59,1433.44 				"/>
				<polyline fill="none" stroke="#FFFFFF" stroke-width="2" stroke-miterlimit="10" points="3018.99,1447.47 3007.39,1450.45 
					2990.28,1445.71 3002.59,1443.03 				"/>
				<polyline fill="none" stroke="#FFFFFF" stroke-width="2" stroke-miterlimit="10" points="3018.99,1457.71 3007.39,1460.69 
					2990.28,1455.94 3002.59,1453.26 				"/>
				<polyline fill="none" stroke="#FFFFFF" stroke-width="2" stroke-miterlimit="10" points="3018.99,1467.95 3007.39,1470.92 
					2990.28,1466.18 3002.59,1463.5 				"/>
				<polyline fill="none" stroke="#FFFFFF" stroke-width="2" stroke-miterlimit="10" points="3018.99,1478.74 3007.39,1481.71 
					2990.28,1476.97 3002.59,1474.29 				"/>
				<polyline fill="none" stroke="#FFFFFF" stroke-width="2" stroke-miterlimit="10" points="3018.99,1489.53 3007.39,1492.51 
					2990.28,1487.76 3002.59,1485.08 				"/>
				<polyline fill="none" stroke="#FFFFFF" stroke-width="2" stroke-miterlimit="10" points="3018.99,1500.32 3007.39,1503.3 
					2990.28,1498.55 3002.59,1495.87 				"/>
				<polyline fill="none" stroke="#FFFFFF" stroke-width="2" stroke-miterlimit="10" points="3018.99,1510.5 3007.39,1513.48 
					2990.28,1508.74 3002.59,1506.06 				"/>
				<polyline fill="none" stroke="#FFFFFF" stroke-width="2" stroke-miterlimit="10" points="3018.99,1521.25 3007.39,1524.22 
					2990.28,1519.48 3002.59,1516.8 				"/>
				<polyline fill="none" stroke="#FFFFFF" stroke-width="2" stroke-miterlimit="10" points="3018.99,1531.99 3007.39,1534.97 
					2990.28,1530.22 3002.59,1527.54 				"/>
				<polyline fill="none" stroke="#FFFFFF" stroke-width="2" stroke-miterlimit="10" points="3018.99,1542.12 3007.39,1545.1 
					2990.28,1540.36 3002.59,1537.68 				"/>
				<polyline fill="none" stroke="#FFFFFF" stroke-width="2" stroke-miterlimit="10" points="3018.99,1014.4 3007.39,1017.38 
					2990.28,1012.64 3002.59,1009.96 				"/>
				<polyline fill="none" stroke="#FFFFFF" stroke-width="2" stroke-miterlimit="10" points="3018.99,1025.2 3007.39,1028.17 
					2990.28,1023.43 3002.59,1020.75 				"/>
				<polyline fill="none" stroke="#FFFFFF" stroke-width="2" stroke-miterlimit="10" points="3018.99,1035.38 3007.39,1038.36 
					2990.28,1033.61 3002.59,1030.93 				"/>
				<polyline fill="none" stroke="#FFFFFF" stroke-width="2" stroke-miterlimit="10" points="3018.99,1045.58 3007.39,1048.55 
					2990.28,1043.81 3002.59,1041.13 				"/>
				<polyline fill="none" stroke="#FFFFFF" stroke-width="2" stroke-miterlimit="10" points="3018.99,1054.59 3007.39,1057.57 
					2990.28,1052.83 3002.59,1050.15 				"/>
				<polyline fill="none" stroke="#FFFFFF" stroke-width="2" stroke-miterlimit="10" points="3018.99,1065.44 3007.39,1068.42 
					2990.28,1063.67 3002.59,1060.99 				"/>
				<polyline fill="none" stroke="#FFFFFF" stroke-width="2" stroke-miterlimit="10" points="3018.99,1076.23 3007.39,1079.21 
					2990.28,1074.46 3002.59,1071.79 				"/>
				<polyline fill="none" stroke="#FFFFFF" stroke-width="2" stroke-miterlimit="10" points="3018.99,1087.02 3007.39,1090 
					2990.28,1085.26 3002.59,1082.58 				"/>
				<polyline fill="none" stroke="#FFFFFF" stroke-width="2" stroke-miterlimit="10" points="3018.99,1097.2 3007.39,1100.18 
					2990.28,1095.44 3002.59,1092.76 				"/>
				<polyline fill="none" stroke="#FFFFFF" stroke-width="2" stroke-miterlimit="10" points="3018.99,1107.39 3007.39,1110.36 
					2990.28,1105.62 3002.59,1102.94 				"/>
				<polyline fill="none" stroke="#FFFFFF" stroke-width="2" stroke-miterlimit="10" points="3018.99,1116.91 3007.39,1119.89 
					2990.28,1115.14 3002.59,1112.46 				"/>
				<polyline fill="none" stroke="#FFFFFF" stroke-width="2" stroke-miterlimit="10" points="3018.99,1127.04 3007.39,1130.02 
					2990.28,1125.28 3002.59,1122.6 				"/>
				<polyline fill="none" stroke="#FFFFFF" stroke-width="2" stroke-miterlimit="10" points="3018.99,1137.79 3007.39,1140.76 
					2990.28,1136.02 3002.59,1133.34 				"/>
				<polyline fill="none" stroke="#FFFFFF" stroke-width="2" stroke-miterlimit="10" points="3018.99,1148.26 3007.39,1151.24 
					2990.28,1146.49 3002.59,1143.81 				"/>
				<polyline fill="none" stroke="#FFFFFF" stroke-width="2" stroke-miterlimit="10" points="3018.99,1158.44 3007.39,1161.42 
					2990.28,1156.68 3002.59,1154 				"/>
				<polyline fill="none" stroke="#FFFFFF" stroke-width="2" stroke-miterlimit="10" points="3018.99,1168.63 3007.39,1171.61 
					2990.28,1166.86 3002.59,1164.18 				"/>
				<polyline fill="none" stroke="#FFFFFF" stroke-width="2" stroke-miterlimit="10" points="3018.99,1178.21 3007.39,1181.19 
					2990.28,1176.45 3002.59,1173.77 				"/>
				<polyline fill="none" stroke="#FFFFFF" stroke-width="2" stroke-miterlimit="10" points="3018.99,1188.45 3007.39,1191.43 
					2990.28,1186.68 3002.59,1184.01 				"/>
				<polyline fill="none" stroke="#FFFFFF" stroke-width="2" stroke-miterlimit="10" points="3018.99,1198.69 3007.39,1201.67 
					2990.28,1196.92 3002.59,1194.24 				"/>
				<polyline fill="none" stroke="#FFFFFF" stroke-width="2" stroke-miterlimit="10" points="3018.99,1209.48 3007.39,1212.46 
					2990.28,1207.71 3002.59,1205.03 				"/>
				<polyline fill="none" stroke="#FFFFFF" stroke-width="2" stroke-miterlimit="10" points="3018.99,1220.27 3007.39,1223.25 
					2990.28,1218.5 3002.59,1215.83 				"/>
				<polyline fill="none" stroke="#FFFFFF" stroke-width="2" stroke-miterlimit="10" points="3018.99,1231.06 3007.39,1234.04 
					2990.28,1229.3 3002.59,1226.62 				"/>
				<polyline fill="none" stroke="#FFFFFF" stroke-width="2" stroke-miterlimit="10" points="3018.99,1241.24 3007.39,1244.22 
					2990.28,1239.48 3002.59,1236.8 				"/>
				<polyline fill="none" stroke="#FFFFFF" stroke-width="2" stroke-miterlimit="10" points="3018.99,1251.99 3007.39,1254.97 
					2990.28,1250.22 3002.59,1247.54 				"/>
				<polyline fill="none" stroke="#FFFFFF" stroke-width="2" stroke-miterlimit="10" points="3018.99,1262.73 3007.39,1265.71 
					2990.28,1260.97 3002.59,1258.29 				"/>
				<polyline fill="none" stroke="#FFFFFF" stroke-width="2" stroke-miterlimit="10" points="3018.99,1272.87 3007.39,1275.84 
					2990.28,1271.1 3002.59,1268.42 				"/>
				<polygon fill="none" stroke="#FFFFFF" stroke-width="2" stroke-miterlimit="10" points="3089.33,975.04 3047.21,958.6 
					3089.33,942.16 3131.44,958.6 				"/>
				<polygon fill="none" stroke="#FFFFFF" stroke-miterlimit="10" points="3087.77,958.6 3045.65,942.16 3087.77,925.72 
					3129.89,942.16 				"/>
				<rect fill="none" width="3840" height="2160"/>
			</g>
		</g>
		<g>
			<g>
				<path opacity="0.25" fill="#FFFFFF" d="M3385.98,1644.39h-58.65c-35.57,0-64.4-28.83-64.4-64.4v-474.55
					c0-35.57,28.83-64.4,64.4-64.4h58.65c35.57,0,64.4,28.83,64.4,64.4v474.55C3450.39,1615.55,3421.55,1644.39,3385.98,1644.39z"/>
				<polygon opacity="0.44" fill="#FFFFFF" points="3355.77,1048.6 3313.65,1032.16 3355.77,1015.72 3397.89,1032.16 				"/>
				
					<ellipse fill="none" stroke="#FFFFFF" stroke-width="2" stroke-miterlimit="10" cx="3359.82" cy="1046.51" rx="123.37" ry="71.21"/>
				<path fill="none" stroke="#FFFFFF" stroke-width="2" stroke-miterlimit="10" d="M3453.53,1097.89
					c16.81,12.17,26.85,27.59,26.85,44.36c0,39.33-55.23,71.21-123.37,71.21c-68.13,0-123.37-31.88-123.37-71.21
					c0-18.21,11.84-34.82,31.32-47.42"/>
				<path fill="none" stroke="#FFFFFF" stroke-width="0.5" stroke-miterlimit="10" d="M3452.28,1071.32
					c16.81,12.17,26.85,27.59,26.85,44.36c0,39.33-55.23,71.21-123.37,71.21c-68.13,0-123.37-31.88-123.37-71.21
					c0-18.21,11.84-34.82,31.32-47.42"/>
				<path fill="none" stroke="#FFFFFF" stroke-width="0.5" stroke-miterlimit="10" d="M3452.28,1086.13
					c16.81,12.17,26.85,27.59,26.85,44.36c0,39.33-55.23,71.21-123.37,71.21c-68.13,0-123.37-31.88-123.37-71.21
					c0-18.21,11.84-34.82,31.32-47.42"/>
				<path fill="none" stroke="#FFFFFF" stroke-width="0.5" stroke-miterlimit="10" d="M3452.28,1116.07
					c16.81,12.17,26.85,27.59,26.85,44.36c0,39.33-55.23,71.21-123.37,71.21c-68.13,0-123.37-31.88-123.37-71.21
					c0-18.21,11.84-34.82,31.32-47.42"/>
				<path fill="none" stroke="#FFFFFF" stroke-width="0.5" stroke-miterlimit="10" d="M3452.28,1130.63
					c16.81,12.17,26.85,27.59,26.85,44.36c0,39.33-55.23,71.21-123.37,71.21c-68.13,0-123.37-31.88-123.37-71.21
					c0-18.21,11.84-34.82,31.32-47.42"/>
				<path fill="none" stroke="#FFFFFF" stroke-width="0.5" stroke-miterlimit="10" d="M3452.28,1148.16
					c16.81,12.17,26.85,27.59,26.85,44.36c0,39.33-55.23,71.21-123.37,71.21c-68.13,0-123.37-31.88-123.37-71.21
					c0-18.21,11.84-34.82,31.32-47.42"/>
				<path fill="none" stroke="#FFFFFF" stroke-width="0.5" stroke-miterlimit="10" d="M3452.28,1164.15
					c16.81,12.17,26.85,27.59,26.85,44.36c0,39.33-55.23,71.21-123.37,71.21c-68.13,0-123.37-31.88-123.37-71.21
					c0-18.21,11.84-34.82,31.32-47.42"/>
				<path fill="none" stroke="#FFFFFF" stroke-width="0.5" stroke-miterlimit="10" d="M3452.28,1200.35
					c16.81,12.17,26.85,27.59,26.85,44.36c0,39.33-55.23,71.21-123.37,71.21c-68.13,0-123.37-31.88-123.37-71.21
					c0-18.21,11.84-34.82,31.32-47.42"/>
				<path fill="none" stroke="#FFFFFF" stroke-width="0.5" stroke-miterlimit="10" d="M3452.28,1218.99
					c16.81,12.17,26.85,27.59,26.85,44.36c0,39.33-55.23,71.21-123.37,71.21c-68.13,0-123.37-31.88-123.37-71.21
					c0-18.21,11.84-34.82,31.32-47.42"/>
				<path fill="none" stroke="#FFFFFF" stroke-width="0.5" stroke-miterlimit="10" d="M3452.28,1233.83
					c16.81,12.17,26.85,27.59,26.85,44.36c0,39.33-55.23,71.21-123.37,71.21c-68.13,0-123.37-31.88-123.37-71.21
					c0-18.21,11.84-34.82,31.32-47.42"/>
				<path fill="none" stroke="#FFFFFF" stroke-width="0.5" stroke-miterlimit="10" d="M3452.28,1247.78
					c16.81,12.17,26.85,27.59,26.85,44.36c0,39.33-55.23,71.21-123.37,71.21c-68.13,0-123.37-31.88-123.37-71.21
					c0-18.21,11.84-34.82,31.32-47.42"/>
				<path fill="none" stroke="#FFFFFF" stroke-width="0.5" stroke-miterlimit="10" d="M3452.28,1275.21
					c16.81,12.17,26.85,27.59,26.85,44.36c0,39.33-55.23,71.21-123.37,71.21c-68.13,0-123.37-31.88-123.37-71.21
					c0-18.21,11.84-34.82,31.32-47.42"/>
				<path fill="none" stroke="#FFFFFF" stroke-width="0.5" stroke-miterlimit="10" d="M3452.28,1056.75
					c16.81,12.17,26.85,27.59,26.85,44.36c0,39.33-55.23,71.21-123.37,71.21c-68.13,0-123.37-31.88-123.37-71.21
					c0-18.21,11.84-34.82,31.32-47.42"/>
				<path fill="none" stroke="#FFFFFF" stroke-width="0.5" stroke-miterlimit="10" d="M3452.28,1044.09
					c16.81,12.17,26.85,27.59,26.85,44.36c0,39.33-55.23,71.21-123.37,71.21c-68.13,0-123.37-31.88-123.37-71.21
					c0-18.21,11.84-34.82,31.32-47.42"/>
				<path fill="none" stroke="#FFFFFF" stroke-width="0.5" stroke-miterlimit="10" d="M3452.28,1029.98
					c16.81,12.17,26.85,27.59,26.85,44.36c0,39.33-55.23,71.21-123.37,71.21c-68.13,0-123.37-31.88-123.37-71.21
					c0-18.21,11.84-34.82,31.32-47.42"/>
				<path fill="none" stroke="#FFFFFF" stroke-width="0.5" stroke-miterlimit="10" d="M3452.28,1012
					c16.81,12.17,26.85,27.59,26.85,44.36c0,39.33-55.23,71.21-123.37,71.21c-68.13,0-123.37-31.88-123.37-71.21
					c0-18.21,11.84-34.82,31.32-47.42"/>
				<path fill="none" stroke="#FFFFFF" stroke-width="0.5" stroke-miterlimit="10" d="M3453.53,1343.31
					c16.81,12.17,26.85,27.59,26.85,44.36c0,39.33-55.23,71.21-123.37,71.21c-68.13,0-123.37-31.88-123.37-71.21
					c0-18.21,11.84-34.82,31.32-47.42"/>
				<path fill="none" stroke="#FFFFFF" stroke-width="0.5" stroke-miterlimit="10" d="M3453.53,1358.13
					c16.81,12.17,26.85,27.59,26.85,44.36c0,39.33-55.23,71.21-123.37,71.21c-68.13,0-123.37-31.88-123.37-71.21
					c0-18.21,11.84-34.82,31.32-47.42"/>
				<path fill="none" stroke="#FFFFFF" stroke-width="0.5" stroke-miterlimit="10" d="M3453.53,1381.07
					c16.81,12.17,26.85,27.59,26.85,44.36c0,39.33-55.23,71.21-123.37,71.21c-68.13,0-123.37-31.88-123.37-71.21
					c0-18.21,11.84-34.82,31.32-47.42"/>
				<path fill="none" stroke="#FFFFFF" stroke-width="0.5" stroke-miterlimit="10" d="M3453.53,1395.63
					c16.81,12.17,26.85,27.59,26.85,44.36c0,39.33-55.23,71.21-123.37,71.21c-68.13,0-123.37-31.88-123.37-71.21
					c0-18.21,11.84-34.82,31.32-47.42"/>
				<path fill="none" stroke="#FFFFFF" stroke-width="0.5" stroke-miterlimit="10" d="M3453.53,1413.16
					c16.81,12.17,26.85,27.59,26.85,44.36c0,39.33-55.23,71.21-123.37,71.21c-68.13,0-123.37-31.88-123.37-71.21
					c0-18.21,11.84-34.82,31.32-47.42"/>
				<path fill="none" stroke="#FFFFFF" stroke-width="0.5" stroke-miterlimit="10" d="M3453.53,1429.15
					c16.81,12.17,26.85,27.59,26.85,44.36c0,39.33-55.23,71.21-123.37,71.21c-68.13,0-123.37-31.88-123.37-71.21
					c0-18.21,11.84-34.82,31.32-47.42"/>
				<path fill="none" stroke="#FFFFFF" stroke-width="0.5" stroke-miterlimit="10" d="M3453.53,1464.35
					c16.81,12.17,26.85,27.59,26.85,44.36c0,39.33-55.23,71.21-123.37,71.21c-68.13,0-123.37-31.88-123.37-71.21
					c0-18.21,11.84-34.82,31.32-47.42"/>
				<path fill="none" stroke="#FFFFFF" stroke-width="0.5" stroke-miterlimit="10" d="M3453.53,1482.99
					c16.81,12.17,26.85,27.59,26.85,44.36c0,39.33-55.23,71.21-123.37,71.21c-68.13,0-123.37-31.88-123.37-71.21
					c0-18.21,11.84-34.82,31.32-47.42"/>
				<path fill="none" stroke="#FFFFFF" stroke-width="0.5" stroke-miterlimit="10" d="M3453.53,1497.83
					c16.81,12.17,26.85,27.59,26.85,44.36c0,39.33-55.23,71.21-123.37,71.21c-68.13,0-123.37-31.88-123.37-71.21
					c0-18.21,11.84-34.82,31.32-47.42"/>
				<path fill="none" stroke="#FFFFFF" stroke-width="0.5" stroke-miterlimit="10" d="M3453.53,1511.78
					c16.81,12.17,26.85,27.59,26.85,44.36c0,39.33-55.23,71.21-123.37,71.21c-68.13,0-123.37-31.88-123.37-71.21
					c0-18.21,11.84-34.82,31.32-47.42"/>
				<path fill="none" stroke="#FFFFFF" stroke-width="0.5" stroke-miterlimit="10" d="M3453.53,1328.75
					c16.81,12.17,26.85,27.59,26.85,44.36c0,39.33-55.23,71.21-123.37,71.21c-68.13,0-123.37-31.88-123.37-71.21
					c0-18.21,11.84-34.82,31.32-47.42"/>
				<path fill="none" stroke="#FFFFFF" stroke-width="0.5" stroke-miterlimit="10" d="M3453.53,1316.09
					c16.81,12.17,26.85,27.59,26.85,44.36c0,39.33-55.23,71.21-123.37,71.21c-68.13,0-123.37-31.88-123.37-71.21
					c0-18.21,11.84-34.82,31.32-47.42"/>
				<path fill="none" stroke="#FFFFFF" stroke-width="0.5" stroke-miterlimit="10" d="M3453.53,1301.98
					c16.81,12.17,26.85,27.59,26.85,44.36c0,39.33-55.23,71.21-123.37,71.21c-68.13,0-123.37-31.88-123.37-71.21
					c0-18.21,11.84-34.82,31.32-47.42"/>
				<path fill="none" stroke="#FFFFFF" stroke-width="0.5" stroke-miterlimit="10" d="M3453.53,1284
					c16.81,12.17,26.85,27.59,26.85,44.36c0,39.33-55.23,71.21-123.37,71.21c-68.13,0-123.37-31.88-123.37-71.21
					c0-18.21,11.84-34.82,31.32-47.42"/>
				<path fill="none" stroke="#FFFFFF" stroke-width="2" stroke-miterlimit="10" d="M3452.98,1186.99
					c15.65,11.94,24.94,26.81,24.94,42.94c0,39.33-55.23,71.21-123.37,71.21c-68.13,0-123.37-31.88-123.37-71.21
					c0-16.96,10.27-32.53,27.4-44.76"/>
				<path fill="none" stroke="#FFFFFF" stroke-width="2" stroke-miterlimit="10" d="M3457.82,1268.91
					c14.22,11.61,22.57,25.78,22.57,41.07c0,39.33-55.23,71.21-123.37,71.21c-68.13,0-123.37-31.88-123.37-71.21
					c0-13.29,6.31-25.73,17.28-36.37"/>
				<path fill="none" stroke="#FFFFFF" stroke-width="2" stroke-miterlimit="10" d="M3454.21,1353.84
					c15.96,12,25.44,27.02,25.44,43.32c0,39.33-55.23,71.21-123.37,71.21c-68.13,0-123.37-31.88-123.37-71.21
					c0-16.55,9.78-31.78,26.18-43.87"/>
				<path fill="none" stroke="#FFFFFF" stroke-width="2" stroke-miterlimit="10" d="M3453.51,1441
					c16.22,12.06,25.88,27.2,25.88,43.65c0,39.33-55.23,71.21-123.37,71.21c-68.13,0-123.37-31.88-123.37-71.21
					c0-16.54,9.77-31.76,26.15-43.85"/>
				<path fill="none" stroke="#FFFFFF" stroke-width="2" stroke-miterlimit="10" d="M3451.69,1529.61
					c17.48,12.29,27.97,28.02,27.97,45.16c0,39.33-55.23,71.21-123.37,71.21c-68.13,0-123.37-31.88-123.37-71.21
					c0-17.05,10.38-32.71,27.7-44.97"/>
				
					<line fill="none" stroke="#FFFFFF" stroke-width="2" stroke-miterlimit="10" x1="3235.65" y1="1053.43" x2="3235.65" y2="1609.51"/>
				<line fill="none" stroke="#FFFFFF" stroke-width="2" stroke-miterlimit="10" x1="3475" y1="1023.1" x2="3475" y2="1595.19"/>
				<line fill="none" stroke="#FFFFFF" stroke-miterlimit="10" x1="3357.02" y1="1047.01" x2="3357.02" y2="1603.09"/>
				<path fill="none" stroke="#FFFFFF" stroke-miterlimit="10" d="M3352.79,1646.6l44.77,103.82l-0.2,20.83
					c0,0,19.43,7.08,33.21,2.33c13.79-4.75,18.85-12.58,18.85-12.58l-0.1-21.2l26.67-146.16"/>
				<path fill="none" stroke="#FFFFFF" stroke-miterlimit="10" d="M3371.42,1646.13l37.58,96.47v18.56c0,0,8.24,2.49,19.02-1.01
					c6.28-2.04,9.22-8.71,9.22-8.71l-0.54-13.07l22.45-122.94"/>
				<path fill="none" stroke="#FFFFFF" stroke-miterlimit="10" d="M3415.11,1544.08l-27.53,132.86l1,18.26
					c0,0-12.68,14.34-34.07,14.32c-14.31-0.02-28.65-15.18-28.65-15.18l0.4-16.79l-34.29-134.93"/>
				<path fill="none" stroke="#FFFFFF" stroke-miterlimit="10" d="M3400.16,1531.03l-26.77,135.16l0.75,17.36
					c0,0-6.35,11.38-17.17,10.66c-10.76-0.71-17.09-14.34-17.09-14.34l0.3-15.96l-32.85-134.27"/>
				<path fill="none" stroke="#FFFFFF" stroke-miterlimit="10" d="M3331.9,1646.32l-31.71,98.51l-1.13,19.4
					c0,0-4.16,4.09-11.13,2.04c-6.97-2.04-11.49-8.17-11.49-8.17l0.62-15.83l-24.68-128.06"/>
				<polyline fill="none" stroke="#FFFFFF" stroke-width="2" stroke-miterlimit="10" points="3286.99,1373.66 3275.39,1376.64 
					3258.28,1371.89 3270.59,1369.21 				"/>
				<polyline fill="none" stroke="#FFFFFF" stroke-width="2" stroke-miterlimit="10" points="3286.99,1384.45 3275.39,1387.43 
					3258.28,1382.69 3270.59,1380.01 				"/>
				<polyline fill="none" stroke="#FFFFFF" stroke-width="2" stroke-miterlimit="10" points="3286.99,1394.64 3275.39,1397.61 
					3258.28,1392.87 3270.59,1390.19 				"/>
				<polyline fill="none" stroke="#FFFFFF" stroke-width="2" stroke-miterlimit="10" points="3286.99,1404.83 3275.39,1407.81 
					3258.28,1403.07 3270.59,1400.39 				"/>
				<polyline fill="none" stroke="#FFFFFF" stroke-width="2" stroke-miterlimit="10" points="3286.99,1413.85 3275.39,1416.83 
					3258.28,1412.08 3270.59,1409.4 				"/>
				<polyline fill="none" stroke="#FFFFFF" stroke-width="2" stroke-miterlimit="10" points="3286.99,1424.7 3275.39,1427.67 
					3258.28,1422.93 3270.59,1420.25 				"/>
				<polyline fill="none" stroke="#FFFFFF" stroke-width="2" stroke-miterlimit="10" points="3286.99,1435.49 3275.39,1438.47 
					3258.28,1433.72 3270.59,1431.04 				"/>
				<polyline fill="none" stroke="#FFFFFF" stroke-width="2" stroke-miterlimit="10" points="3286.99,1446.28 3275.39,1449.26 
					3258.28,1444.51 3270.59,1441.83 				"/>
				<polyline fill="none" stroke="#FFFFFF" stroke-width="2" stroke-miterlimit="10" points="3286.99,1456.46 3275.39,1459.44 
					3258.28,1454.7 3270.59,1452.02 				"/>
				<polyline fill="none" stroke="#FFFFFF" stroke-width="2" stroke-miterlimit="10" points="3286.99,1466.64 3275.39,1469.62 
					3258.28,1464.88 3270.59,1462.2 				"/>
				<polyline fill="none" stroke="#FFFFFF" stroke-width="2" stroke-miterlimit="10" points="3286.99,1476.17 3275.39,1479.14 
					3258.28,1474.4 3270.59,1471.72 				"/>
				<polyline fill="none" stroke="#FFFFFF" stroke-width="2" stroke-miterlimit="10" points="3286.99,1486.3 3275.39,1489.28 
					3258.28,1484.53 3270.59,1481.86 				"/>
				<polyline fill="none" stroke="#FFFFFF" stroke-width="2" stroke-miterlimit="10" points="3286.99,1497.04 3275.39,1500.02 
					3258.28,1495.28 3270.59,1492.6 				"/>
				<polyline fill="none" stroke="#FFFFFF" stroke-width="2" stroke-miterlimit="10" points="3286.99,1507.52 3275.39,1510.5 
					3258.28,1505.75 3270.59,1503.07 				"/>
				<polyline fill="none" stroke="#FFFFFF" stroke-width="2" stroke-miterlimit="10" points="3286.99,1517.7 3275.39,1520.68 
					3258.28,1515.94 3270.59,1513.26 				"/>
				<polyline fill="none" stroke="#FFFFFF" stroke-width="2" stroke-miterlimit="10" points="3286.99,1527.89 3275.39,1530.86 
					3258.28,1526.12 3270.59,1523.44 				"/>
				<polyline fill="none" stroke="#FFFFFF" stroke-width="2" stroke-miterlimit="10" points="3286.99,1537.47 3275.39,1540.45 
					3258.28,1535.71 3270.59,1533.03 				"/>
				<polyline fill="none" stroke="#FFFFFF" stroke-width="2" stroke-miterlimit="10" points="3286.99,1547.71 3275.39,1550.69 
					3258.28,1545.94 3270.59,1543.26 				"/>
				<polyline fill="none" stroke="#FFFFFF" stroke-width="2" stroke-miterlimit="10" points="3286.99,1557.95 3275.39,1560.92 
					3258.28,1556.18 3270.59,1553.5 				"/>
				<polyline fill="none" stroke="#FFFFFF" stroke-width="2" stroke-miterlimit="10" points="3286.99,1568.74 3275.39,1571.71 
					3258.28,1566.97 3270.59,1564.29 				"/>
				<polyline fill="none" stroke="#FFFFFF" stroke-width="2" stroke-miterlimit="10" points="3286.99,1579.53 3275.39,1582.51 
					3258.28,1577.76 3270.59,1575.08 				"/>
				<polyline fill="none" stroke="#FFFFFF" stroke-width="2" stroke-miterlimit="10" points="3286.99,1590.32 3275.39,1593.3 
					3258.28,1588.55 3270.59,1585.87 				"/>
				<polyline fill="none" stroke="#FFFFFF" stroke-width="2" stroke-miterlimit="10" points="3286.99,1600.5 3275.39,1603.48 
					3258.28,1598.74 3270.59,1596.06 				"/>
				<polyline fill="none" stroke="#FFFFFF" stroke-width="2" stroke-miterlimit="10" points="3286.99,1611.25 3275.39,1614.22 
					3258.28,1609.48 3270.59,1606.8 				"/>
				<polyline fill="none" stroke="#FFFFFF" stroke-width="2" stroke-miterlimit="10" points="3286.99,1621.99 3275.39,1624.97 
					3258.28,1620.22 3270.59,1617.54 				"/>
				<polyline fill="none" stroke="#FFFFFF" stroke-width="2" stroke-miterlimit="10" points="3286.99,1632.12 3275.39,1635.1 
					3258.28,1630.36 3270.59,1627.68 				"/>
				<polyline fill="none" stroke="#FFFFFF" stroke-width="2" stroke-miterlimit="10" points="3286.99,1104.4 3275.39,1107.38 
					3258.28,1102.64 3270.59,1099.96 				"/>
				<polyline fill="none" stroke="#FFFFFF" stroke-width="2" stroke-miterlimit="10" points="3286.99,1115.2 3275.39,1118.17 
					3258.28,1113.43 3270.59,1110.75 				"/>
				<polyline fill="none" stroke="#FFFFFF" stroke-width="2" stroke-miterlimit="10" points="3286.99,1125.38 3275.39,1128.36 
					3258.28,1123.61 3270.59,1120.93 				"/>
				<polyline fill="none" stroke="#FFFFFF" stroke-width="2" stroke-miterlimit="10" points="3286.99,1135.58 3275.39,1138.55 
					3258.28,1133.81 3270.59,1131.13 				"/>
				<polyline fill="none" stroke="#FFFFFF" stroke-width="2" stroke-miterlimit="10" points="3286.99,1144.59 3275.39,1147.57 
					3258.28,1142.83 3270.59,1140.15 				"/>
				<polyline fill="none" stroke="#FFFFFF" stroke-width="2" stroke-miterlimit="10" points="3286.99,1155.44 3275.39,1158.42 
					3258.28,1153.67 3270.59,1150.99 				"/>
				<polyline fill="none" stroke="#FFFFFF" stroke-width="2" stroke-miterlimit="10" points="3286.99,1166.23 3275.39,1169.21 
					3258.28,1164.46 3270.59,1161.79 				"/>
				<polyline fill="none" stroke="#FFFFFF" stroke-width="2" stroke-miterlimit="10" points="3286.99,1177.02 3275.39,1180 
					3258.28,1175.26 3270.59,1172.58 				"/>
				<polyline fill="none" stroke="#FFFFFF" stroke-width="2" stroke-miterlimit="10" points="3286.99,1187.2 3275.39,1190.18 
					3258.28,1185.44 3270.59,1182.76 				"/>
				<polyline fill="none" stroke="#FFFFFF" stroke-width="2" stroke-miterlimit="10" points="3286.99,1197.39 3275.39,1200.36 
					3258.28,1195.62 3270.59,1192.94 				"/>
				<polyline fill="none" stroke="#FFFFFF" stroke-width="2" stroke-miterlimit="10" points="3286.99,1206.91 3275.39,1209.89 
					3258.28,1205.14 3270.59,1202.46 				"/>
				<polyline fill="none" stroke="#FFFFFF" stroke-width="2" stroke-miterlimit="10" points="3286.99,1217.04 3275.39,1220.02 
					3258.28,1215.28 3270.59,1212.6 				"/>
				<polyline fill="none" stroke="#FFFFFF" stroke-width="2" stroke-miterlimit="10" points="3286.99,1227.79 3275.39,1230.76 
					3258.28,1226.02 3270.59,1223.34 				"/>
				<polyline fill="none" stroke="#FFFFFF" stroke-width="2" stroke-miterlimit="10" points="3286.99,1238.26 3275.39,1241.24 
					3258.28,1236.49 3270.59,1233.81 				"/>
				<polyline fill="none" stroke="#FFFFFF" stroke-width="2" stroke-miterlimit="10" points="3286.99,1248.44 3275.39,1251.42 
					3258.28,1246.68 3270.59,1244 				"/>
				<polyline fill="none" stroke="#FFFFFF" stroke-width="2" stroke-miterlimit="10" points="3286.99,1258.63 3275.39,1261.61 
					3258.28,1256.86 3270.59,1254.18 				"/>
				<polyline fill="none" stroke="#FFFFFF" stroke-width="2" stroke-miterlimit="10" points="3286.99,1268.21 3275.39,1271.19 
					3258.28,1266.45 3270.59,1263.77 				"/>
				<polyline fill="none" stroke="#FFFFFF" stroke-width="2" stroke-miterlimit="10" points="3286.99,1278.45 3275.39,1281.43 
					3258.28,1276.68 3270.59,1274.01 				"/>
				<polyline fill="none" stroke="#FFFFFF" stroke-width="2" stroke-miterlimit="10" points="3286.99,1288.69 3275.39,1291.67 
					3258.28,1286.92 3270.59,1284.24 				"/>
				<polyline fill="none" stroke="#FFFFFF" stroke-width="2" stroke-miterlimit="10" points="3286.99,1299.48 3275.39,1302.46 
					3258.28,1297.71 3270.59,1295.03 				"/>
				<polyline fill="none" stroke="#FFFFFF" stroke-width="2" stroke-miterlimit="10" points="3286.99,1310.27 3275.39,1313.25 
					3258.28,1308.5 3270.59,1305.83 				"/>
				<polyline fill="none" stroke="#FFFFFF" stroke-width="2" stroke-miterlimit="10" points="3286.99,1321.06 3275.39,1324.04 
					3258.28,1319.3 3270.59,1316.62 				"/>
				<polyline fill="none" stroke="#FFFFFF" stroke-width="2" stroke-miterlimit="10" points="3286.99,1331.24 3275.39,1334.22 
					3258.28,1329.48 3270.59,1326.8 				"/>
				<polyline fill="none" stroke="#FFFFFF" stroke-width="2" stroke-miterlimit="10" points="3286.99,1341.99 3275.39,1344.97 
					3258.28,1340.22 3270.59,1337.54 				"/>
				<polyline fill="none" stroke="#FFFFFF" stroke-width="2" stroke-miterlimit="10" points="3286.99,1352.73 3275.39,1355.71 
					3258.28,1350.97 3270.59,1348.29 				"/>
				<polyline fill="none" stroke="#FFFFFF" stroke-width="2" stroke-miterlimit="10" points="3286.99,1362.87 3275.39,1365.84 
					3258.28,1361.1 3270.59,1358.42 				"/>
				<polygon fill="none" stroke="#FFFFFF" stroke-width="2" stroke-miterlimit="10" points="3357.33,1065.04 3315.21,1048.6 
					3357.33,1032.16 3399.44,1048.6 				"/>
				<polygon fill="none" stroke="#FFFFFF" stroke-miterlimit="10" points="3355.77,1048.6 3313.65,1032.16 3355.77,1015.72 
					3397.89,1032.16 				"/>
				<path fill="none" stroke="#FFFFFF" stroke-miterlimit="10" d="M3348.72,1645.98l-34.53,109.86l1,18.26
					c0,0-10.64,10.34-29.07,6.32c-13.98-3.05-22.65-17.18-22.65-17.18l-0.53-17.8l-27.28-135.93"/>
				<rect fill="none" width="3840" height="2160"/>
			</g>
		</g>
		<g>
			<g>
				
					<text transform="matrix(1 0 0 1 523.1484 371.6616)" fill="#FFFFFF" font-family="'HelveticaNeueLTStd-Hv'" font-size="141.043px">Just spend some or all of your rewards</text>
				<rect fill="none" width="3840" height="2160"/>
			</g>
		</g>
		<g>
			<g>
				
					<text transform="matrix(1 0 0 1 518.6421 694.9395)" fill="#FFFFFF" font-family="'HelveticaNeueLTStd-ThIt'" font-size="334.8035px">at your retailer</text>
				<rect fill="none" width="3840" height="2160"/>
			</g>
		</g>
	</g>
</g>
<rect fill="none" width="3840" height="2160"/>
</svg>
