<?xml version="1.0" encoding="utf-8"?>
<!-- Generator: Adobe Illustrator 24.2.1, SVG Export Plug-In . SVG Version: 6.00 Build 0)  -->
<svg version="1.1" id="thankYouAndBgSvg" xmlns="http://www.w3.org/2000/svg" xmlns:xlink="http://www.w3.org/1999/xlink" x="0px"
	 y="0px" width="3840px" height="2160px" viewBox="0 0 3840 2160" enable-background="new 0 0 3840 2160" xml:space="preserve">
<rect id="_x2D_.bgColor-" x="-7.43" y="-14" fill="#FFFFFF" width="3860" height="2188.53"/>
<g id="_x2D_.bgScene-">
	<g id="_x2D_.moveElements-">
		<g>
			<g>
				<polygon fill="#00C0F2" points="4000.49,-153.04 2606.63,-42.74 803.38,2255.13 3852.57,2264.32 				"/>
				<rect fill="none" width="3840" height="2187.72"/>
			</g>
		</g>
		<g>
			<g>
				<polygon fill="#A4CD38" points="498.53,-56.53 -236.11,-153.04 -81.56,769.4 				"/>
				<rect fill="none" width="3840" height="2187.72"/>
			</g>
		</g>
		<g>
			<g>
				<polygon fill="#4DC7E6" points="1433.09,1449.34 1097.51,1881.34 1299.72,2157 2120.29,1492.29 2215.06,1263.88 				"/>
				<polyline fill="none" stroke="#A4CD38" stroke-width="16" stroke-miterlimit="10" points="2123.29,1492.29 1299.72,2157 
					1097.51,1881.34 				"/>
				
					<line fill="none" stroke="#A4CD38" stroke-width="16" stroke-miterlimit="10" x1="1157.65" y1="1974.53" x2="971.89" y2="2209.17"/>
				<line fill="none" stroke="#A4CD38" stroke-width="16" stroke-miterlimit="10" x1="1682.7" y1="1846.76" x2="1682.7" y2="2160"/>
				<rect fill="none" width="3840" height="2187.72"/>
			</g>
		</g>
		<g>
			<g>
				<polygon fill="#4DC7E6" points="1767.66,1029.33 1636.82,1187.57 1610.4,1403.71 2219.32,1273.9 2501.64,517.45 				"/>
				
					<line fill="none" stroke="#A4CD38" stroke-width="16" stroke-miterlimit="10" x1="2521.52" y1="505.68" x2="1851.48" y2="2174.53"/>
				<polyline fill="none" stroke="#A4CD38" stroke-width="16" stroke-miterlimit="10" points="2129.34,561.55 2221.85,696 
					2521.52,505.68 2648.16,202.36 				"/>
				<path fill="none" stroke="#A4CD38" stroke-width="16" stroke-miterlimit="10" d="M2183.13,1295.89"/>
				<polyline fill="none" stroke="#A4CD38" stroke-width="16" stroke-miterlimit="10" points="1636.82,1187.57 1603.04,1412.57 
					2212.54,1262.42 				"/>
				
					<line fill="none" stroke="#A4CD38" stroke-width="16" stroke-miterlimit="10" x1="2224.85" y1="693" x2="1767.66" y2="1029.33"/>
				
					<line fill="none" stroke="#A4CD38" stroke-width="16" stroke-miterlimit="10" x1="1603.04" y1="1412.57" x2="1433.09" y2="1449.34"/>
				<rect fill="none" width="3840" height="2187.72"/>
			</g>
		</g>
		<g>
			<g>
				<polygon fill="#4DC7E6" points="2464.01,1083.52 2533.01,2090.5 3512.08,1130.73 3371.36,992.13 				"/>
				
					<line fill="none" stroke="#A4CD38" stroke-width="16" stroke-miterlimit="10" x1="3503.34" y1="1134.27" x2="2448.53" y2="2174.53"/>
				
					<line fill="none" stroke="#A4CD38" stroke-width="16" stroke-miterlimit="10" x1="2448.53" y1="687.48" x2="2521.52" y2="2098.87"/>
				
					<line fill="none" stroke="#A4CD38" stroke-width="16" stroke-miterlimit="10" x1="3149.46" y1="1479.21" x2="2871.69" y2="2187.72"/>
				
					<line fill="none" stroke="#A4CD38" stroke-width="16" stroke-miterlimit="10" x1="3032.67" y1="1779.77" x2="3318.69" y2="2174.53"/>
				<rect fill="none" width="3840" height="2187.72"/>
			</g>
		</g>
		<g>
			<g>
				<polygon fill="#4DC7E6" points="3314.81,1316.07 3623.9,2145.81 3708.47,1356.66 3512.08,1130.73 				"/>
				<polyline fill="none" stroke="#A4CD38" stroke-width="16" stroke-miterlimit="10" points="3314.81,1321.07 3625.17,2157 
					3713.56,1351.95 				"/>
				<rect fill="none" width="3840" height="2187.72"/>
			</g>
		</g>
		<g>
			<g>
				<polygon fill="#4DC7E6" points="2648.16,202.36 2448.53,687.48 2479.46,1070.71 3366.31,981.44 				"/>
				
					<line fill="none" stroke="#A4CD38" stroke-width="16" stroke-miterlimit="10" x1="2648.16" y1="202.36" x2="3863.45" y2="1513.68"/>
				
					<line fill="none" stroke="#A4CD38" stroke-width="16" stroke-miterlimit="10" x1="2473.46" y1="1074.71" x2="3366.79" y2="986.18"/>
				<rect fill="none" width="3840" height="2187.72"/>
			</g>
		</g>
		<g>
			<g>
				<polygon fill="#4DC7E6" points="2771.88,-74.91 2648.16,202.36 3579.64,1207.44 3316.25,16.62 3113.9,-51.94 				"/>
				<line fill="none" stroke="#A4CD38" stroke-width="16" stroke-miterlimit="10" x1="3566.96" y1="-28.96" x2="3863.45" y2="377"/>
				
					<line fill="none" stroke="#A4CD38" stroke-width="16" stroke-miterlimit="10" x1="3255.81" y1="-8.25" x2="3707.39" y2="163.32"/>
				
					<line fill="none" stroke="#A4CD38" stroke-width="16" stroke-miterlimit="10" x1="3316.25" y1="16.62" x2="3590.05" y2="1225.26"/>
				
					<line fill="none" stroke="#A4CD38" stroke-width="16" stroke-miterlimit="10" x1="2648.16" y1="202.36" x2="2771.88" y2="-74.91"/>
				<rect fill="none" width="3840" height="2187.72"/>
			</g>
		</g>
	</g>
</g>
<g id="_x2D_.lineBG-">
	<g>
		<polygon fill="#A4CD38" points="-85.57,1637.03 -90.08,1634.29 530.4,-98.22 534.91,-95.48 		"/>
		<rect fill="none" width="3840" height="2187.72"/>
	</g>
</g>
<rect fill="none" width="3840" height="2187.72"/>
</svg>
