<?xml version="1.0" encoding="utf-8"?>
<!-- Generator: Adobe Illustrator 24.2.1, SVG Export Plug-In . SVG Version: 6.00 Build 0)  -->
<svg version="1.1" id="thankYouAndSvg" xmlns="http://www.w3.org/2000/svg" xmlns:xlink="http://www.w3.org/1999/xlink" x="0px"
	 y="0px" width="3840px" height="2160px" viewBox="0 0 3840 2160" enable-background="new 0 0 3840 2160" xml:space="preserve">
<g id="_x2D_.contentScene-">
	<g id="_x2D_.moveElements-">
		<g>
			<g>
				<circle fill="#A4CD38" cx="2613.95" cy="1728.17" r="6.5"/>
				<circle fill="#A4CD38" cx="2198.6" cy="1443.35" r="6.5"/>
				<circle fill="#A4CD38" cx="2332.7" cy="1446.28" r="6.5"/>
				<circle fill="#A4CD38" cx="2454.1" cy="1427.82" r="6.5"/>
				<circle fill="#A4CD38" cx="2272.86" cy="1312.89" r="6.5"/>
				<circle fill="#A4CD38" cx="2369.28" cy="1292.99" r="6.5"/>
				<circle fill="#A4CD38" cx="2414.97" cy="1343.38" r="6.5"/>
				<circle fill="#A4CD38" cx="2538.6" cy="1257.54" r="6.5"/>
				<circle fill="#A4CD38" cx="2522.99" cy="1340.66" r="6.5"/>
				<circle fill="#A4CD38" cx="2516.49" cy="1443.35" r="6.5"/>
				<circle fill="#A4CD38" cx="2494.25" cy="1553.26" r="6.5"/>
				<circle fill="#A4CD38" cx="2375.78" cy="1546.76" r="6.5"/>
				<circle fill="#A4CD38" cx="2399.06" cy="1606.95" r="6.5"/>
				<circle fill="#A4CD38" cx="2558.98" cy="1655.87" r="6.5"/>
				<circle fill="#A4CD38" cx="2515.05" cy="1608.02" r="6.5"/>
				<circle fill="#A4CD38" cx="2304.98" cy="1708.46" r="6.5"/>
				<circle fill="#A4CD38" cx="2222.08" cy="1677.78" r="6.5"/>
				<circle fill="#A4CD38" cx="2454.1" cy="1688.75" r="6.5"/>
				<polygon fill="#A4CD38" points="2428.18,1273.55 2414.97,1341.73 2496.69,1308.84 				"/>
				<polygon fill="#A4CD38" points="2524.71,1340.66 2538.06,1403.84 2603.65,1346.54 				"/>
				<polygon fill="#A4CD38" points="2453.94,1488.96 2490.16,1549.98 2501.77,1491.3 				"/>
				<polygon fill="#A4CD38" points="2458.9,1650.9 2516.49,1688.75 2515.05,1608.99 				"/>
				<polygon fill="#A4CD38" points="2517.19,1687.74 2613.95,1726.46 2555.98,1657.21 				"/>
				<polygon fill="#A4CD38" points="2371.41,1728.61 2468.22,1728.17 2382.64,1691.97 				"/>
				<polygon fill="#A4CD38" points="2234.11,1378.26 2283.84,1400.49 2296.55,1363.02 				"/>
				<polygon fill="#A4CD38" points="2209.91,1442.84 2329.41,1441.86 2320.6,1424.62 				"/>
				<polygon fill="#A4CD38" points="2277.35,1266.44 2316.29,1311.61 2370,1293.25 				"/>
				<path fill="#A4CD38" d="M2303.68,1533c0,0-37.7,27-46.78,36.25c-9.46,9.64-32.92,36.63-32.92,36.63l93.89,38.08L2303.68,1533z"
					/>
				<g>
					<g>
						<path fill="none" stroke="#012B48" d="M2195.2,1446.73c-10.67-143.95,83.74-221.54,213.88-221.45
							c122.53,0.08,205.91,61.05,203.76,158.78c-3.08,139.9-148.93,178.96-211.46,220.86c22.67-1.7,218.71,0,218.71,0v126.48
							h-435.04c-2.9-48.58,6.23-86.33,30.88-120.41c42.05-58.73,110.72-99.35,179.08-139.53c26.1-15.95,67.69-33.03,67.08-70
							c-0.58-35.08-20.38-56.96-54.46-57.33c-53.68-0.58-75.43,40.98-73.98,102.6H2195.2z"/>
					</g>
				</g>
				<g>
					<g>
						<path fill="none" stroke="#012B48" stroke-dasharray="12" d="M2191.53,1450.72c-10.76-145.2,78.98-229.82,215.73-229.82
							c123.59,0,210.79,61.73,209.82,163.37c-1.32,138.58-160.59,191.2-203.63,217.4c22.87-1.71,209.86,0,209.86,0v134.02h-442.02
							c-2.92-49,4.14-88.16,29-122.53c44.3-66.61,117.69-105.54,182.77-145.03c26.33-16.09,65.51-29.02,65.51-66.31
							c0-46.07-31.57-53.18-52.78-54.6c-43.84-2.93-72.35,38.23-69.24,103.5H2191.53z"/>
					</g>
				</g>
				<polyline fill="none" stroke="#012B48" points="2198.6,1443.35 2320.68,1425.48 2329.41,1441.86 				"/>
				<polyline fill="none" stroke="#012B48" stroke-dasharray="12" points="2198.6,1443.35 2248.28,1404.09 2320.68,1425.48 
					2283.38,1400.8 2335.27,1397.3 				"/>
				<polyline fill="none" stroke="#012B48" stroke-dasharray="12" points="2234.02,1378.86 2283.84,1400.73 2248.78,1404.57 
					2234.02,1378.42 2200.06,1413.96 2248.4,1404.13 				"/>
				<polyline fill="none" stroke="#012B48" points="2283.84,1400.49 2296.55,1363.02 2338.48,1387.41 2272.35,1310.98 
					2256.51,1346.5 2211.75,1352.44 				"/>
				<path fill="none" stroke="#012B48" d="M2296.55,1358.56"/>
				<line fill="none" stroke="#012B48" x1="2296.5" y1="1363.25" x2="2270.67" y2="1311.61"/>
				<line fill="none" stroke="#012B48" x1="2270.67" y1="1311.61" x2="2223.99" y2="1323.36"/>
				<polyline fill="none" stroke="#012B48" stroke-dasharray="12" points="2356.29,1356.81 2272.12,1310.3 2316.29,1311.61 
					2356.29,1356.81 2370.59,1294.39 2316.29,1311.61 2277.35,1266.44 2272.12,1310.3 2209.91,1353.1 2232.92,1377.19 
					2256.51,1346.5 2296.55,1362.95 2234.11,1378.26 				"/>
				<polyline fill="none" stroke="#012B48" stroke-dasharray="12" points="2278.93,1264.92 2370,1293.25 2351.39,1235.71 
					2404.55,1260.18 2370.64,1292.18 2428.18,1273.55 2405.15,1259.84 2434.76,1230.62 2427.63,1272.89 2497.84,1307.56 
					2434.76,1230.62 				"/>
				<polyline fill="none" stroke="#012B48" points="2381.12,1344.28 2371.19,1294.46 2414.97,1341.73 2426.94,1273.57 				"/>
				<polyline fill="none" stroke="#012B48" points="2414.97,1341.73 2496.69,1308.84 2454.51,1358.56 2515.98,1342.88 
					2524.71,1340.66 2497.84,1307.76 2537.88,1260.94 2524.16,1339.58 2573.53,1290 				"/>
				<polyline fill="none" stroke="#012B48" points="2464.95,1380.57 2524.58,1340.73 2538.42,1402.99 2603.65,1346.54 
					2525.33,1340.66 				"/>
				<polyline fill="none" stroke="#012B48" points="2463.91,1380.25 2538.6,1402.99 2465.02,1402.99 				"/>
				<polyline fill="none" stroke="#012B48" stroke-dasharray="12" points="2605.8,1400.49 2538.42,1402.99 2593.23,1454.55 
					2465,1411.81 2518.13,1445.77 2591.52,1455.15 				"/>
				<polyline fill="none" stroke="#012B48" stroke-dasharray="12" points="2519.18,1445.86 2457.8,1429.41 2501.77,1491.3 
					2519.18,1446.94 2555.98,1502.81 2501.52,1491.87 2490.16,1549.98 2452.86,1488 2503.21,1491.84 				"/>
				<polyline fill="none" stroke="#012B48" points="2457.23,1430.6 2453.94,1488.96 2398.63,1474.86 2488.47,1551.06 
					2416.11,1528.04 2397.99,1474.89 2374.98,1543.95 2417.14,1528.16 2392.25,1608.02 2374.98,1544.61 2308.04,1567.1 
					2303.68,1534.08 2374.89,1543.93 				"/>
				<polyline fill="none" stroke="#012B48" stroke-dasharray="12" points="2391.87,1606.43 2308.11,1567.1 2318.49,1643.77 
					2391.91,1608.71 2389.77,1630.61 2410.06,1627.84 2392.85,1608.74 2418.35,1625.12 2514.29,1608.02 2458.9,1650.9 
					2516.49,1688.75 2514.27,1609.88 				"/>
				<polyline fill="none" stroke="#012B48" stroke-dasharray="12" points="2389.15,1631.16 2318.49,1643.77 2382.64,1691.97 
					2443.54,1664.06 2410.15,1627.93 2419.86,1625.78 2459.31,1651.43 				"/>
				<line fill="none" stroke="#012B48" x1="2389.15" y1="1631.16" x2="2382.64" y2="1691.97"/>
				<polyline fill="none" stroke="#012B48" points="2458.55,1651.36 2443.88,1663.71 2516.39,1688.75 2452.86,1688.75 
					2443.81,1665.34 				"/>
				<polyline fill="none" stroke="#012B48" points="2452.86,1688.75 2382.67,1691.97 2468.22,1728.17 2453.63,1690.73 				"/>
				<polyline fill="none" stroke="#012B48" stroke-dasharray="12" points="2470.96,1726.46 2515.64,1688.75 2613.95,1726.46 
					2555.98,1657.21 2612.88,1611.14 				"/>
				<polyline fill="none" stroke="#012B48" points="2515.05,1608.99 2555.79,1657.3 2517.19,1687.74 				"/>
				<polyline fill="none" stroke="#012B48" points="2382.64,1691.97 2371.41,1728.61 2304.52,1707.39 2382.64,1691.97 				"/>
				<polyline fill="none" stroke="#012B48" points="2318.49,1644.07 2305.6,1707.49 2265.4,1681.48 2317.87,1643.95 
					2244.72,1641.17 2223.74,1608.99 				"/>
				<polyline fill="none" stroke="#012B48" points="2243.57,1641.58 2206.87,1637.88 2224.15,1661.56 2245.79,1641.07 
					2265.4,1681.57 2224.88,1661.39 2221.27,1679.42 2264.14,1681.48 				"/>
				<polyline fill="none" stroke="#012B48" points="2193.62,1677.78 2220.79,1679.92 2204.24,1696.45 2190.01,1710.29 
					2200.75,1710.29 2204.72,1696.7 2264.39,1682.46 				"/>
				<polyline fill="none" stroke="#012B48" points="2204.72,1696.7 2304.98,1707.49 2200.75,1710.29 2189.89,1727.53 
					2304.98,1707.49 				"/>
				<line fill="none" stroke="#012B48" x1="2226.13" y1="1606.95" x2="2316.29" y2="1643.77"/>
				<line fill="none" stroke="#012B48" x1="2320.6" y1="1424.62" x2="2332.7" y2="1398.01"/>
				<circle id="_x2D_.elCircle-_11_" fill="none" stroke="#012B48" cx="2198.6" cy="1440.57" r="23.5"/>
				<circle id="_x2D_.elCircle-_12_" fill="none" stroke="#012B48" cx="2369.28" cy="1292.99" r="23.5"/>
				<circle id="_x2D_.elCircle-_13_" fill="none" stroke="#012B48" cx="2538.6" cy="1257.32" r="23.5"/>
				<circle id="_x2D_.elCircle-_14_" fill="none" stroke="#012B48" cx="2516.39" cy="1443.35" r="23.5"/>
				<circle id="_x2D_.elCircle-_15_" fill="none" stroke="#012B48" cx="2375.78" cy="1540.38" r="23.5"/>
				<circle id="_x2D_.elCircle-_16_" fill="none" stroke="#012B48" cx="2223.99" cy="1675.07" r="23.5"/>
				<circle id="_x2D_.elCircle-_17_" fill="none" stroke="#012B48" cx="2453.94" cy="1684.28" r="23.5"/>
				<circle id="_x2D_.elCircle-_18_" fill="none" stroke="#012B48" cx="2516.18" cy="1610.99" r="23.5"/>
				
					<line id="_x2D_.elLine-_8_" fill="none" stroke="#012B48" stroke-dasharray="12" x1="2348.03" y1="1230.62" x2="2269.66" y2="892.51"/>
				
					<line id="_x2D_.elLine-_29_" fill="none" stroke="#012B48" stroke-dasharray="12" x1="2278.56" y1="1254.13" x2="2303.68" y2="986.72"/>
				
					<line id="_x2D_.elLine-_9_" fill="none" stroke="#012B48" stroke-dasharray="12" x1="2436.91" y1="1228.19" x2="2843.64" y2="884.08"/>
				
					<line id="_x2D_.elLine-_28_" fill="none" stroke="#012B48" stroke-dasharray="12" x1="2430.02" y1="1220.9" x2="2369.28" y2="1120.42"/>
				
					<line id="_x2D_.elLine-_27_" fill="none" stroke="#012B48" stroke-dasharray="12" x1="2593.23" y1="1454.55" x2="2689.74" y2="1563.02"/>
				
					<line id="_x2D_.elLine-_26_" fill="none" stroke="#012B48" stroke-dasharray="12" x1="2565.48" y1="1503.2" x2="2704.49" y2="1519.47"/>
				
					<line id="_x2D_.elLine-_25_" fill="none" stroke="#012B48" stroke-dasharray="12" x1="2515.05" y1="1608.02" x2="2680.99" y2="1580.64"/>
				
					<line id="_x2D_.elLine-_10_" fill="none" stroke="#012B48" stroke-dasharray="12" x1="2470.96" y1="1726.46" x2="2223.99" y2="1934.21"/>
				
					<line id="_x2D_.elLine-_24_" fill="none" stroke="#012B48" stroke-dasharray="12" x1="2468.22" y1="1728.17" x2="2696.65" y2="1838.47"/>
				<rect fill="none" width="3840" height="2160"/>
			</g>
		</g>
		<g>
			<g>
				<circle fill="#A4CD38" cx="2704.34" cy="1641.72" r="6.5"/>
				<circle fill="#A4CD38" cx="2763.84" cy="1709.12" r="6.5"/>
				<circle fill="#A4CD38" cx="2852.56" cy="1608.58" r="6.5"/>
				<circle fill="#A4CD38" cx="2650.06" cy="1732.06" r="6.5"/>
				<circle fill="#A4CD38" cx="2856.24" cy="1474" r="6.5"/>
				<circle fill="#A4CD38" cx="2998.76" cy="1404.62" r="6.5"/>
				<circle fill="#A4CD38" cx="2958" cy="1304.3" r="6.5"/>
				<circle fill="#A4CD38" cx="2875.14" cy="1345.01" r="6.5"/>
				<circle fill="#A4CD38" cx="2735.28" cy="1265.68" r="6.5"/>
				<circle fill="#A4CD38" cx="2756.71" cy="1364.89" r="6.5"/>
				<circle fill="#A4CD38" cx="2744.01" cy="1402.12" r="6.5"/>
				<circle fill="#A4CD38" cx="2656.56" cy="1412.95" r="6.5"/>
				<circle fill="#A4CD38" cx="2964.59" cy="1491.33" r="6.5"/>
				<circle fill="#A4CD38" cx="2976.16" cy="1690.6" r="6.5"/>
				<circle fill="#A4CD38" cx="2903.98" cy="1668.49" r="6.5"/>
				<path fill="#A4CD38" d="M2763.84,1534.63c0,0-37.7,27-46.78,36.25c-9.46,9.64-32.92,36.63-32.92,36.63l93.89,38.08
					L2763.84,1534.63z"/>
				<polygon fill="#A4CD38" points="2929.21,1414.98 2978.3,1447.4 3051.69,1456.78 				"/>
				<polygon fill="#A4CD38" points="2877.31,1529.79 2852.56,1608.58 2948.63,1552.69 				"/>
				<polygon fill="#A4CD38" points="2776.46,1313.24 2816.45,1358.44 2830.76,1296.03 				"/>
				<polygon fill="#A4CD38" points="2887.8,1274.52 2958,1309.19 2894.93,1232.25 				"/>
				<polygon fill="#A4CD38" points="2716.68,1348.13 2694.28,1379.9 2756.71,1364.65 				"/>
				<polygon fill="#A4CD38" points="2708.95,1406.2 2658.77,1444.98 2780.76,1426.25 				"/>
				<polygon fill="#A4CD38" points="2974.46,1609.66 2919.06,1652.53 2976.16,1690.6 				"/>
				<polygon fill="#A4CD38" points="2849.93,1632.24 2842.8,1693.6 2903.71,1665.7 				"/>
				<polygon fill="#A4CD38" points="3015.96,1658.93 3075.04,1730.24 3074.92,1612.62 				"/>
				<g>
					<g>
						<path fill="none" stroke="#012B48" stroke-dasharray="12" d="M2655.37,1448.36c-10.67-143.95,83.74-221.54,213.88-221.45
							c122.53,0.08,205.91,61.05,203.76,158.78c-3.08,139.9-148.93,178.96-211.46,220.86c22.67-1.7,218.71,0,218.71,0v126.48
							h-435.04c-2.9-48.58,6.23-86.33,30.88-120.41c42.05-58.73,110.72-99.35,179.08-139.53c26.1-15.95,67.69-33.03,67.08-70
							c-0.59-35.08-20.38-56.96-54.46-57.33c-53.68-0.58-75.43,40.98-73.98,102.6H2655.37z"/>
					</g>
				</g>
				<g>
					<g>
						<path fill="none" stroke="#012B48" d="M2651.69,1452.35c-10.76-145.2,78.98-229.82,215.73-229.82
							c123.59,0,210.79,61.73,209.82,163.37c-1.32,138.58-160.59,191.2-203.63,217.4c22.87-1.71,209.86,0,209.86,0v134.02h-442.02
							c-2.92-49,4.14-88.16,29-122.53c44.3-66.61,117.69-105.54,182.77-145.03c26.33-16.09,65.51-29.02,65.51-66.31
							c0-46.07-31.57-53.18-52.78-54.6c-43.84-2.93-72.35,38.23-69.24,103.5H2651.69z"/>
					</g>
				</g>
				<polyline fill="none" stroke="#012B48" points="2658.77,1444.98 2780.85,1427.11 2789.58,1443.5 				"/>
				<polyline fill="none" stroke="#012B48" points="2658.77,1444.98 2708.45,1405.72 2780.85,1427.11 2743.55,1402.43 
					2795.44,1398.93 				"/>
				<polyline fill="none" stroke="#012B48" points="2694.19,1380.49 2744.01,1402.36 2708.95,1406.2 2694.19,1380.06 
					2660.23,1415.59 2708.56,1405.77 				"/>
				<polyline fill="none" stroke="#012B48" points="2744.01,1402.12 2756.71,1364.65 2798.64,1389.04 2732.51,1312.62 
					2716.68,1348.13 2671.91,1354.07 				"/>
				<path fill="none" stroke="#012B48" d="M2756.71,1360.2"/>
				<line fill="none" stroke="#012B48" x1="2756.67" y1="1364.89" x2="2730.84" y2="1313.24"/>
				<line fill="none" stroke="#012B48" x1="2730.84" y1="1313.24" x2="2684.15" y2="1324.99"/>
				<polyline fill="none" stroke="#012B48" stroke-dasharray="12" points="2816.45,1358.44 2732.28,1311.93 2776.46,1313.24 
					2816.45,1358.44 2830.76,1296.03 2776.46,1313.24 2737.52,1268.08 2732.28,1311.93 2670.08,1354.73 2693.09,1378.82 
					2716.68,1348.13 2756.71,1364.58 2694.28,1379.9 				"/>
				<polyline fill="none" stroke="#012B48" stroke-dasharray="12" points="2739.1,1266.55 2830.16,1294.88 2811.56,1237.34 
					2864.72,1261.81 2830.8,1293.81 2888.35,1275.18 2865.31,1261.47 2894.93,1232.25 2887.8,1274.52 2958,1309.19 2894.93,1232.25 
									"/>
				<polyline fill="none" stroke="#012B48" points="2841.28,1345.92 2831.35,1296.09 2875.14,1343.36 2887.11,1275.21 				"/>
				<polyline fill="none" stroke="#012B48" points="2875.14,1343.36 2956.86,1310.47 2914.67,1360.2 2976.15,1344.52 
					2984.88,1342.29 2958,1309.39 2998.04,1262.57 2984.33,1341.21 3033.69,1291.63 				"/>
				<polyline fill="none" stroke="#012B48" stroke-dasharray="12" points="2925.12,1382.2 2984.74,1342.37 2998.59,1404.62 
					3063.81,1348.18 2985.5,1342.29 				"/>
				<polyline fill="none" stroke="#012B48" points="2924.07,1381.89 2998.76,1404.62 2925.19,1404.62 				"/>
				<polyline fill="none" stroke="#012B48" points="3065.96,1402.12 2998.59,1404.62 3053.39,1456.18 2925.16,1413.44 
					2978.3,1447.4 3051.69,1456.78 				"/>
				<polyline fill="none" stroke="#012B48" stroke-dasharray="12" points="2979.35,1447.5 2917.97,1431.04 2961.94,1492.93 
					2979.35,1448.57 3016.14,1504.45 2961.68,1493.5 2950.33,1551.61 2913.03,1489.64 2963.37,1493.48 				"/>
				<polyline fill="none" stroke="#012B48" points="2917.39,1432.23 2914.1,1490.6 2858.8,1476.5 2948.63,1552.69 2876.28,1529.68 
					2858.16,1476.52 2835.15,1545.58 2877.31,1529.79 2852.42,1609.66 2835.15,1546.24 2768.21,1568.73 2763.84,1535.71 
					2835.05,1545.56 				"/>
				<polyline fill="none" stroke="#012B48" stroke-dasharray="12" points="2852.03,1608.06 2768.28,1568.73 2778.65,1645.4 
					2852.08,1610.35 2849.93,1632.24 2870.23,1629.47 2853.02,1610.37 2878.52,1626.76 2974.46,1609.66 2919.06,1652.53 
					2976.65,1690.38 2974.44,1611.51 				"/>
				<polyline fill="none" stroke="#012B48" points="2849.31,1632.79 2778.65,1645.4 2842.8,1693.6 2903.71,1665.7 2870.32,1629.57 
					2880.03,1627.41 2919.47,1653.06 				"/>
				<line fill="none" stroke="#012B48" x1="2849.31" y1="1632.79" x2="2842.8" y2="1693.6"/>
				<polyline fill="none" stroke="#012B48" stroke-dasharray="12" points="2918.72,1652.99 2904.05,1665.34 2976.56,1690.38 
					2913.03,1690.38 2903.98,1666.98 				"/>
				<polyline fill="none" stroke="#012B48" points="2913.03,1690.38 2842.84,1693.6 2928.39,1729.81 2913.8,1692.37 				"/>
				<polyline fill="none" stroke="#012B48" points="2975.21,1610.62 3015.96,1658.93 2977.36,1689.37 				"/>
				<polyline fill="none" stroke="#012B48" stroke-dasharray="12" points="2842.8,1693.6 2831.58,1730.24 2764.69,1709.02 
					2842.8,1693.6 				"/>
				<polyline fill="none" stroke="#012B48" stroke-dasharray="12" points="2778.65,1645.7 2765.76,1709.12 2725.57,1683.11 
					2778.04,1645.59 2704.88,1642.8 2683.9,1610.62 				"/>
				<polyline fill="none" stroke="#012B48" points="2703.74,1643.21 2667.04,1639.51 2684.32,1663.19 2705.96,1642.71 
					2725.57,1683.2 2685.05,1663.02 2681.44,1681.05 2724.31,1683.11 				"/>
				<polyline fill="none" stroke="#012B48" points="2653.78,1679.41 2680.96,1681.56 2664.41,1698.08 2650.17,1711.92 
					2660.92,1711.92 2664.89,1698.33 2724.56,1684.09 				"/>
				<polyline fill="none" stroke="#012B48" stroke-dasharray="12" points="2664.89,1698.33 2765.15,1709.12 2660.92,1711.92 
					2650.06,1729.17 2765.15,1709.12 				"/>
				<line fill="none" stroke="#012B48" x1="2686.29" y1="1608.58" x2="2776.46" y2="1645.4"/>
				<line fill="none" stroke="#012B48" x1="2780.76" y1="1426.25" x2="2792.87" y2="1399.64"/>
				<polyline fill="none" stroke="#012B48" points="3077.92,1610.62 3015.6,1658.84 3075.04,1730.24 2977.16,1691.86 				"/>
				<line fill="none" stroke="#012B48" x1="2976.65" y1="1690.38" x2="2928.39" y2="1729.81"/>
				<circle id="_x2D_.elCircle-_26_" fill="none" stroke="#012B48" cx="2744.01" cy="1402.12" r="23.5"/>
				<circle id="_x2D_.elCircle-_25_" fill="none" stroke="#012B48" cx="2739.1" cy="1270.72" r="23.5"/>
				<circle id="_x2D_.elCircle-_24_" fill="none" stroke="#012B48" cx="3005.26" cy="1405.48" r="23.5"/>
				<circle id="_x2D_.elCircle-_23_" fill="none" stroke="#012B48" cx="2859.23" cy="1476.8" r="23.5"/>
				<circle id="_x2D_.elCircle-_22_" fill="none" stroke="#012B48" cx="2702.12" cy="1639.51" r="23.5"/>
				<circle id="_x2D_.elCircle-_21_" fill="none" stroke="#012B48" cx="2763.84" cy="1711.29" r="23.5"/>
				<circle id="_x2D_.elCircle-_20_" fill="none" stroke="#012B48" cx="2971.09" cy="1614.82" r="23.5"/>
				<circle id="_x2D_.elCircle-_19_" fill="none" stroke="#012B48" cx="2971.09" cy="1690.6" r="23.5"/>
				
					<line id="_x2D_.elLine-_11_" fill="none" stroke="#012B48" stroke-dasharray="12" x1="2617.06" y1="1734.79" x2="2881.64" y2="2065.29"/>
				
					<line id="_x2D_.elLine-_35_" fill="none" stroke="#012B48" stroke-dasharray="12" x1="2811.19" y1="1233.76" x2="2617.71" y2="1157.63"/>
				
					<line id="_x2D_.elLine-_13_" fill="none" stroke="#012B48" stroke-dasharray="12" x1="2897.48" y1="1225.45" x2="3280.54" y2="919.8"/>
				
					<line id="_x2D_.elLine-_14_" fill="none" stroke="#012B48" stroke-dasharray="12" x1="2897.48" y1="1225.45" x2="2724.56" y2="885.71"/>
				
					<line id="_x2D_.elLine-_30_" fill="none" stroke="#012B48" stroke-dasharray="12" x1="3069.27" y1="1348.02" x2="3317.31" y2="1350.43"/>
				
					<line id="_x2D_.elLine-_31_" fill="none" stroke="#012B48" stroke-dasharray="12" x1="3069.27" y1="1348.02" x2="3262.16" y2="1176.78"/>
				
					<line id="_x2D_.elLine-_32_" fill="none" stroke="#012B48" stroke-dasharray="12" x1="3016.14" y1="1504.45" x2="3075.04" y2="1582.27"/>
				
					<line id="_x2D_.elLine-_15_" fill="none" stroke="#012B48" stroke-dasharray="12" x1="3016.14" y1="1504.45" x2="3271.35" y2="1551.61"/>
				
					<line id="_x2D_.elLine-_12_" fill="none" stroke="#012B48" stroke-dasharray="12" x1="2831.58" y1="1730.24" x2="2696.3" y2="2192.82"/>
				
					<line id="_x2D_.elLine-_33_" fill="none" stroke="#012B48" stroke-dasharray="12" x1="2816.11" y1="1236.24" x2="2775.58" y2="1059.3"/>
				
					<line id="_x2D_.elLine-_34_" fill="none" stroke="#012B48" stroke-dasharray="12" x1="2831.58" y1="1733.24" x2="3078.04" y2="1842.25"/>
				<rect fill="none" width="3840" height="2160"/>
			</g>
		</g>
		<g>
			<g>
				<circle fill="#A4CD38" cx="1818.7" cy="1334.98" r="6.5"/>
				<circle fill="#A4CD38" cx="1839.53" cy="1404" r="6.5"/>
				<circle fill="#A4CD38" cx="1788.68" cy="1442.02" r="6.5"/>
				<circle fill="#A4CD38" cx="1825.77" cy="1486.75" r="6.5"/>
				<circle fill="#A4CD38" cx="1916.37" cy="1724.27" r="6.5"/>
				<circle fill="#A4CD38" cx="1970.61" cy="1614.52" r="6.5"/>
				<circle fill="#A4CD38" cx="2064.17" cy="1612.37" r="6.5"/>
				<circle fill="#A4CD38" cx="2114.58" cy="1648.56" r="6.5"/>
				<circle fill="#A4CD38" cx="2161.04" cy="1432.47" r="6.5"/>
				<circle fill="#A4CD38" cx="2057.67" cy="1410.5" r="6.5"/>
				<circle fill="#A4CD38" cx="2026.07" cy="1445.47" r="6.5"/>
				<circle fill="#A4CD38" cx="2043.79" cy="1326.84" r="6.5"/>
				<circle fill="#A4CD38" cx="1988.14" cy="1226.2" r="6.5"/>
				<circle fill="#A4CD38" cx="1927.73" cy="1334.98" r="6.5"/>
				<line fill="none" stroke="#012B48" stroke-dasharray="12" x1="1834.59" y1="1262.67" x2="1663.57" y2="1196.17"/>
				<path fill="#A4CD38" d="M1902.48,1592.35l-83.55,15.72l-0.23,65.72l62.37-13.8l55.4-43.26c0,0-16.11-5.74-21.87-10.67
					C1908.84,1601.13,1902.48,1592.35,1902.48,1592.35z"/>
				<polygon fill="#A4CD38" points="1828.01,1378.1 1842.53,1404 1882.19,1414.31 				"/>
				<polygon fill="#A4CD38" points="1871.61,1305.45 1857.33,1333.34 1909.87,1348.48 				"/>
				<polygon fill="#A4CD38" points="1919.03,1226.2 1896.54,1261.78 1934.91,1266.07 				"/>
				<polygon fill="#A4CD38" points="2114.24,1418.99 2032.57,1445.47 2097.23,1455.03 				"/>
				<polygon fill="#A4CD38" points="2083.55,1364.51 2061.67,1409.79 2148.18,1372.59 				"/>
				<polygon fill="#A4CD38" points="2157.04,1541.72 2073.2,1509.85 2077.54,1553.27 				"/>
				<polygon fill="#A4CD38" points="1982.24,1682.78 1970.61,1621.02 1928.35,1685.27 				"/>
				<polygon fill="#A4CD38" points="1810.7,1552.84 1878.92,1503.47 1787.65,1513.87 				"/>
				<polygon fill="#A4CD38" points="1819.48,1608.21 1810.7,1552.84 1753.92,1551.99 				"/>
				<polyline fill="none" stroke="#012B48" points="1988.14,1226.2 1935.48,1265.69 1976.59,1273.22 1961.81,1330.45 
					1935.48,1266.33 1928.35,1333.34 1896.54,1261.78 1919.03,1226.2 1934.91,1266.07 				"/>
				<polyline fill="none" stroke="#012B48" points="1976.59,1273.25 1988.14,1225.76 1996.91,1309 1976.69,1274.71 				"/>
				<polyline fill="none" stroke="#012B48" stroke-dasharray="12" points="1988.14,1226.2 2042.98,1330.45 1996.91,1309.61 
					2004.59,1355.21 2042.94,1330.12 2083.55,1364.51 2006.85,1357.03 				"/>
				<polyline fill="none" stroke="#012B48" points="2054.5,1250.23 2043.79,1328.86 2102.7,1289.01 				"/>
				<polyline fill="none" stroke="#012B48" stroke-dasharray="12" points="2043.52,1330.12 2149.34,1371.85 2083.55,1364.51 
					2060.51,1410.45 2148.18,1372.59 2114.83,1418.36 2059.99,1410.51 2023.86,1399.3 				"/>
				<polyline fill="none" stroke="#012B48" points="2059.9,1411.17 2030.37,1444.95 2114.24,1418.99 2096.74,1455.33 
					2159.79,1431.85 2114.93,1418.53 				"/>
				<polyline fill="none" stroke="#012B48" points="2097.69,1455.33 2029.3,1445.26 2072.17,1509.85 2097.23,1455.03 				"/>
				<polyline fill="none" stroke="#012B48" stroke-dasharray="12" points="2161.04,1432.47 2073.2,1509.85 2157.04,1541.72 
					2077.49,1552.53 2072.17,1509.85 2027.15,1536.06 2077.54,1553.27 2064.95,1612.37 2026.07,1536.22 				"/>
				<polyline fill="none" stroke="#012B48" stroke-dasharray="12" points="2157.25,1542.44 2064.95,1612.37 2112.64,1648.66 
					2054.23,1654.42 2064.95,1612.37 2012.27,1584.9 2054.23,1654.42 1988.14,1723.12 2012.2,1584.47 				"/>
				<polyline fill="none" stroke="#012B48" points="1971.96,1617.81 1996.08,1672.34 2456.16,1682.55 2446.7,1617.81 
					1928.35,1685.27 1981.42,1682.55 				"/>
				<polyline fill="none" stroke="#012B48" stroke-dasharray="12" points="1982.24,1682.78 1987.02,1723.34 1927.35,1684.93 
					1935.6,1617.81 1881.11,1660.41 1918.23,1722.04 1927.28,1685.27 1881.11,1660.45 				"/>
				<polyline fill="none" stroke="#012B48" stroke-dasharray="12" points="1902.28,1592.04 1819.48,1608.21 1880.04,1503.2 
					1811.8,1553.11 1819.48,1608.21 1753.92,1551.99 1810.7,1552.84 1749.25,1518.54 1787.65,1513.87 1811.8,1553.11 				"/>
				<polyline fill="none" stroke="#012B48" stroke-dasharray="12" points="1787.99,1513.85 1878.92,1503.47 1828.26,1488.12 
					1787.65,1513.87 1746.31,1474.75 1828.45,1487.84 1791.23,1464.51 1746.88,1474.12 1790.96,1442.02 1790.69,1464.72 
					1878.92,1445.26 1828.55,1487.8 1878.92,1473.84 				"/>
				<polyline fill="none" stroke="#012B48" stroke-dasharray="12" points="1747.11,1438.46 1792.06,1441.98 1757.02,1381.14 
					1805.54,1425.3 1791.3,1441.98 1878.92,1445.26 1805.56,1425.52 1843.34,1403.08 1757.02,1381.14 1829.08,1378.4 
					1842.52,1402.74 1882.19,1414.31 				"/>
				<polyline fill="none" stroke="#012B48" points="1757.02,1381.14 1818.96,1336.23 1828.01,1378.1 1891.06,1376.21 
					1819.53,1334.98 1857.05,1333.34 1891.29,1376.14 				"/>
				<polyline fill="none" stroke="#012B48" stroke-dasharray="12" points="1782.18,1326.57 1819.69,1334.98 1834.29,1263.52 
					1857.33,1333.34 1871.61,1305.45 1834.59,1262.67 1876.25,1275.84 1872.16,1305.11 1909.87,1348.48 				"/>
				<polyline fill="none" stroke="#012B48" points="1884.5,1236.37 1896.54,1261.78 1875.98,1276.36 1928.42,1334.98 				"/>
				<polyline fill="none" stroke="#012B48" points="1818.93,1608.07 1818.93,1673.5 1881.07,1660.34 				"/>
				<g>
					<g>
						<path fill="none" stroke="#012B48" stroke-dasharray="12" d="M1954.15,1217.88c91.49,0,213.96,62.68,213.96,256.47
							c0,193.79-122.47,256.47-213.24,256.47c-90.77,0-213.24-62.68-213.24-256.47C1741.63,1280.56,1864.1,1217.88,1954.15,1217.88z
							 M1954.48,1614.52c70.23,0,71.52-88.82,71.52-139.77c0-49.57-1.29-139.77-70.15-139.77c-70.92,0-73.67,88.13-73.67,139.77
							C1882.19,1525.01,1884.94,1614.52,1954.48,1614.52z"/>
					</g>
				</g>
				<g>
					<g>
						<path fill="none" stroke="#012B48" d="M1953.95,1212.19c93.44,0,218.52,64.01,218.52,261.93
							c0,197.92-125.08,261.93-217.79,261.93s-217.79-64.01-217.79-261.93C1736.9,1276.2,1861.98,1212.19,1953.95,1212.19z
							 M1954.41,1610.22c68.07,0,69.33-86.09,69.33-135.48c0-48.05-1.25-135.48-67.99-135.48c-68.74,0-71.41,85.43-71.41,135.48
							C1884.34,1523.46,1887.01,1610.22,1954.41,1610.22z"/>
					</g>
				</g>
				<circle id="_x2D_.elCircle-_10_" fill="none" stroke="#012B48" cx="1986.75" cy="1223.31" r="23.5"/>
				<circle id="_x2D_.elCircle-_9_" fill="none" stroke="#012B48" cx="1787.65" cy="1442.02" r="23.5"/>
				<circle id="_x2D_.elCircle-_8_" fill="none" stroke="#012B48" cx="2070.67" cy="1612.37" r="23.5"/>
				<circle id="_x2D_.elCircle-_7_" fill="none" stroke="#012B48" cx="1915.1" cy="1727.36" r="23.5"/>
				<circle id="_x2D_.elCircle-_6_" fill="none" stroke="#012B48" cx="2029.3" cy="1442.02" r="23.5"/>
				<circle id="_x2D_.elCircle-_5_" fill="none" stroke="#012B48" cx="2102.7" cy="1285.68" r="23.5"/>
				
					<line id="_x2D_.elLine-_5_" fill="none" stroke="#012B48" stroke-dasharray="12" x1="1918.23" y1="1722.04" x2="2114.24" y2="2024.94"/>
				
					<line id="_x2D_.elLine-_23_" fill="none" stroke="#012B48" stroke-dasharray="12" x1="1909.87" y1="1736.69" x2="1795.18" y2="1967.49"/>
				
					<line id="_x2D_.elLine-_22_" fill="none" stroke="#012B48" stroke-dasharray="12" x1="1834.92" y1="1262.38" x2="1870.73" y2="1091.97"/>
				
					<line id="_x2D_.elLine-_7_" fill="none" stroke="#012B48" stroke-dasharray="12" x1="1988.14" y1="1219.7" x2="1915.73" y2="1036.09"/>
				
					<line id="_x2D_.elLine-_21_" fill="none" stroke="#012B48" stroke-dasharray="12" x1="1987.02" y1="1723.34" x2="2231.09" y2="1820.43"/>
				
					<line id="_x2D_.elLine-_6_" fill="none" stroke="#012B48" stroke-dasharray="12" x1="1987.02" y1="1723.34" x2="1768.69" y2="1926.9"/>
				
					<line id="_x2D_.elLine-_20_" fill="none" stroke="#012B48" stroke-dasharray="12" x1="2108.08" y1="1283.05" x2="2291.19" y2="1167.83"/>
				<rect fill="none" width="3840" height="2160"/>
			</g>
		</g>
		<g>
			<g>
				<circle fill="#A4CD38" cx="1293.06" cy="1727.39" r="6.5"/>
				<circle fill="#A4CD38" cx="1367.42" cy="1681.57" r="6.5"/>
				<circle fill="#A4CD38" cx="1492.57" cy="1608.99" r="6.5"/>
				<circle fill="#A4CD38" cx="1545.86" cy="1664.56" r="6.5"/>
				<circle fill="#A4CD38" cx="1556.28" cy="1688.07" r="6.5"/>
				<circle fill="#A4CD38" cx="1618.47" cy="1688.75" r="6.5"/>
				<circle fill="#A4CD38" cx="1717.37" cy="1608.02" r="6.5"/>
				<circle fill="#A4CD38" cx="1662.58" cy="1505.99" r="6.5"/>
				<circle fill="#A4CD38" cx="1499.07" cy="1473.39" r="6.5"/>
				<circle fill="#A4CD38" cx="1619.91" cy="1446.28" r="6.5"/>
				<circle fill="#A4CD38" cx="1626.41" cy="1340.66" r="6.5"/>
				<circle fill="#A4CD38" cx="1598.45" cy="1307.74" r="6.5"/>
				<circle fill="#A4CD38" cx="1537.86" cy="1228.62" r="6.5"/>
				<circle fill="#A4CD38" cx="1374.53" cy="1311.61" r="6.5"/>
				<circle fill="#A4CD38" cx="1421.91" cy="1425.67" r="6.5"/>
				<circle fill="#A4CD38" cx="1302.02" cy="1443.35" r="6.5"/>
				<circle fill="#A4CD38" cx="1310.29" cy="1637.88" r="6.5"/>
				<g>
					
						<text transform="matrix(1 0 0 1 1267.3885 1728.1733)" fill="none" stroke="#012B48" font-family="'HelveticaNeueLTStd-Blk'" font-size="706.7555px">2</text>
				</g>
				<g>
					<g>
						<path fill="none" stroke="#012B48" stroke-dasharray="12" d="M1298.62,1446.73c-10.67-143.95,83.73-221.54,213.88-221.45
							c122.53,0.08,205.91,61.05,203.76,158.78c-3.08,139.9-148.93,178.96-211.46,220.86c22.67-1.7,218.71,0,218.71,0v126.48
							h-435.04c-2.9-48.58,6.23-86.33,30.88-120.41c42.05-58.73,110.72-99.35,179.08-139.53c26.1-15.95,67.69-33.03,67.08-70
							c-0.59-35.08-20.38-56.96-54.46-57.33c-53.68-0.58-75.43,40.98-73.98,102.6H1298.62z"/>
					</g>
				</g>
				<g>
					<g>
						<path fill="none" stroke="#012B48" stroke-dasharray="12" d="M1294.95,1450.72c-10.76-145.2,78.98-229.82,215.73-229.82
							c123.59,0,210.79,61.73,209.82,163.37c-1.32,138.58-160.59,191.2-203.63,217.4c22.87-1.71,209.86,0,209.86,0v134.02h-442.02
							c-2.92-49,4.14-88.16,29-122.53c44.3-66.61,117.69-105.54,182.78-145.03c26.33-16.09,65.51-29.02,65.51-66.31
							c0-46.07-31.57-53.18-52.78-54.6c-43.84-2.93-72.35,38.23-69.24,103.5H1294.95z"/>
					</g>
				</g>
				<path fill="#A4CD38" d="M1407.1,1533c0,0-37.7,27-46.78,36.25c-9.46,9.64-32.92,36.63-32.92,36.63l93.89,38.08L1407.1,1533z"/>
				<polygon fill="#A4CD38" points="1628.41,1341.16 1568.37,1380.57 1641.84,1402.99 				"/>
				<polygon fill="#A4CD38" points="1530.36,1273.57 1474.61,1293.46 1518.39,1341.73 				"/>
				<polygon fill="#A4CD38" points="1337.44,1378.86 1303.48,1413.96 1353.47,1404.81 				"/>
				<polygon fill="#A4CD38" points="1350.47,1404.81 1304.52,1442.35 1421.91,1425.67 				"/>
				<polygon fill="#A4CD38" points="1605.19,1491.3 1557.36,1488.96 1593.58,1549.98 				"/>
				<polygon fill="#A4CD38" points="1486.05,1691.97 1476.3,1726.31 1568.78,1727.34 				"/>
				<polygon fill="#A4CD38" points="1619.47,1608.99 1659.4,1657.21 1717.37,1609.02 				"/>
				<polyline fill="none" stroke="#012B48" points="1302.02,1443.35 1424.1,1425.48 1432.83,1441.86 				"/>
				<polyline fill="none" stroke="#012B48" points="1302.02,1443.35 1351.7,1404.09 1424.1,1425.48 1386.8,1400.8 1438.69,1397.3 
									"/>
				<polyline fill="none" stroke="#012B48" points="1337.44,1378.86 1387.26,1400.73 1352.2,1404.57 1337.44,1378.42 
					1303.48,1413.96 1351.82,1404.13 				"/>
				<polyline fill="none" stroke="#012B48" points="1387.26,1400.49 1399.97,1363.02 1441.9,1387.41 1375.77,1310.98 
					1359.93,1346.5 1315.17,1352.44 				"/>
				<path fill="none" stroke="#012B48" d="M1399.97,1358.56"/>
				<line fill="none" stroke="#012B48" x1="1399.92" y1="1363.25" x2="1374.09" y2="1311.61"/>
				<line fill="none" stroke="#012B48" x1="1374.09" y1="1311.61" x2="1327.4" y2="1323.36"/>
				<polyline fill="none" stroke="#012B48" stroke-dasharray="12" points="1459.7,1356.81 1375.54,1310.3 1419.71,1311.61 
					1459.7,1356.81 1474.01,1294.39 1419.71,1311.61 1380.77,1266.44 1375.54,1310.3 1313.33,1353.1 1336.34,1377.19 
					1359.93,1346.5 1399.97,1362.95 1337.53,1378.26 				"/>
				<polyline fill="none" stroke="#012B48" points="1382.35,1264.92 1473.42,1293.25 1454.81,1235.71 1507.97,1260.18 
					1474.06,1292.18 1531.6,1273.55 1508.56,1259.84 1538.18,1230.62 1531.05,1272.89 1601.26,1307.56 1538.18,1230.62 				"/>
				<polyline fill="none" stroke="#012B48" points="1484.54,1344.28 1474.61,1294.46 1518.39,1341.73 1530.36,1273.57 				"/>
				<polyline fill="none" stroke="#012B48" stroke-dasharray="12" points="1518.39,1341.73 1600.11,1308.84 1557.93,1358.56 
					1619.4,1342.88 1628.13,1340.66 1601.26,1307.76 1641.3,1260.94 1627.58,1339.58 1676.94,1290 				"/>
				<polyline fill="none" stroke="#012B48" points="1568.37,1380.57 1628,1340.73 1641.84,1402.99 1707.07,1346.54 1628.75,1340.66 
									"/>
				<polyline fill="none" stroke="#012B48" points="1567.33,1380.25 1642.02,1402.99 1568.44,1402.99 				"/>
				<polyline fill="none" stroke="#012B48" stroke-dasharray="12" points="1709.22,1400.49 1641.84,1402.99 1696.65,1454.55 
					1568.42,1411.81 1621.55,1445.77 1694.94,1455.15 				"/>
				<polyline fill="none" stroke="#012B48" points="1622.6,1445.86 1561.22,1429.41 1605.19,1491.3 1622.6,1446.94 1659.4,1502.81 
					1604.94,1491.87 1593.58,1549.98 1556.28,1488 1606.63,1491.84 				"/>
				<polyline fill="none" stroke="#012B48" stroke-dasharray="12" points="1560.65,1430.6 1557.36,1488.96 1502.05,1474.86 
					1591.89,1551.06 1519.53,1528.04 1501.41,1474.89 1478.4,1543.95 1520.56,1528.16 1495.67,1608.02 1478.4,1544.61 
					1411.46,1567.1 1407.1,1534.08 1478.31,1543.93 				"/>
				<polyline fill="none" stroke="#012B48" stroke-dasharray="12" points="1495.29,1606.43 1411.53,1567.1 1421.91,1643.77 
					1495.33,1608.71 1493.18,1630.61 1513.48,1627.84 1496.27,1608.74 1521.77,1625.12 1617.71,1608.02 1562.32,1650.9 
					1619.91,1688.75 1617.69,1609.88 				"/>
				<polyline fill="none" stroke="#012B48" points="1492.57,1631.16 1421.91,1643.77 1486.05,1691.97 1546.96,1664.06 
					1513.57,1627.93 1523.28,1625.78 1562.73,1651.43 				"/>
				<line fill="none" stroke="#012B48" x1="1492.57" y1="1631.16" x2="1486.05" y2="1691.97"/>
				<polyline fill="none" stroke="#012B48" points="1561.97,1651.36 1547.3,1663.71 1619.81,1688.75 1556.28,1688.75 
					1547.23,1665.34 				"/>
				<polyline fill="none" stroke="#012B48" points="1556.28,1688.75 1486.09,1691.97 1571.64,1728.17 1557.05,1690.73 				"/>
				<polyline fill="none" stroke="#012B48" points="1574.38,1726.46 1619.06,1688.75 1717.37,1726.46 1659.4,1657.21 
					1716.3,1611.14 				"/>
				<polyline fill="none" stroke="#012B48" points="1618.47,1608.99 1659.21,1657.3 1620.61,1687.74 				"/>
				<polyline fill="none" stroke="#012B48" points="1421.91,1644.07 1409.02,1707.49 1368.82,1681.48 1421.29,1643.95 
					1348.14,1641.17 1327.16,1608.99 				"/>
				<polyline fill="none" stroke="#012B48" points="1346.99,1641.58 1310.29,1637.88 1327.57,1661.56 1349.21,1641.07 
					1368.82,1681.57 1328.3,1661.39 1324.69,1679.42 1367.56,1681.48 				"/>
				<polyline fill="none" stroke="#012B48" stroke-dasharray="12" points="1297.04,1677.78 1324.21,1679.92 1307.66,1696.45 
					1293.43,1710.29 1304.17,1710.29 1308.14,1696.7 1367.81,1682.46 				"/>
				<polyline fill="none" stroke="#012B48" stroke-dasharray="12" points="1308.14,1696.7 1408.4,1707.49 1304.17,1710.29 
					1293.31,1727.53 1408.4,1707.49 				"/>
				<line fill="none" stroke="#012B48" x1="1329.55" y1="1606.95" x2="1419.71" y2="1643.77"/>
				<line fill="none" stroke="#012B48" x1="1424.02" y1="1424.62" x2="1436.12" y2="1398.01"/>
				<polygon fill="none" stroke="#012B48" stroke-dasharray="12" points="1409.02,1707.49 1486.05,1691.97 1475.09,1729.58 				"/>
				<circle id="_x2D_.elCircle-_4_" fill="none" stroke="#012B48" cx="1538.22" cy="1230.35" r="23.5"/>
				<circle id="_x2D_.elCircle-_3_" fill="none" stroke="#012B48" cx="1599.26" cy="1308.11" r="23.5"/>
				<circle id="_x2D_.elCircle-_2_" fill="none" stroke="#012B48" cx="1499.49" cy="1473.39" r="23.5"/>
				<circle id="_x2D_.elCircle-_1_" fill="none" stroke="#012B48" cx="1545.23" cy="1664.37" r="23.5"/>
				<circle id="_x2D_.elCircle-" fill="none" stroke="#012B48" cx="1295.52" cy="1721.67" r="23.5"/>
				
					<line id="_x2D_.elLine-_19_" fill="none" stroke="#012B48" stroke-dasharray="12" x1="1297.39" y1="1735.69" x2="667.6" y2="1735.69"/>
				
					<line id="_x2D_.elLine-_18_" fill="none" stroke="#012B48" stroke-dasharray="12" x1="1726.73" y1="1603.18" x2="1726.73" y2="1486.76"/>
				
					<line id="_x2D_.elLine-" fill="none" stroke="#012B48" stroke-dasharray="12" x1="1312.79" y1="1352.8" x2="983.18" y2="1584.17"/>
				
					<line id="_x2D_.elLine-_1_" fill="none" stroke="#012B48" stroke-dasharray="12" x1="1643.23" y1="1257.54" x2="1676.94" y2="1032.09"/>
				
					<line id="_x2D_.elLine-_17_" fill="none" stroke="#012B48" stroke-dasharray="12" x1="1647" y1="1254.13" x2="1767.29" y2="1125.36"/>
				
					<line id="_x2D_.elLine-_16_" fill="none" stroke="#012B48" stroke-dasharray="12" x1="1480.28" y1="1731.58" x2="2256.86" y2="1955.66"/>
				
					<line id="_x2D_.elLine-_2_" fill="none" stroke="#012B48" stroke-dasharray="12" x1="1293.43" y1="1710.29" x2="912.71" y2="1708.46"/>
				
					<line id="_x2D_.elLine-_3_" fill="none" stroke="#012B48" stroke-dasharray="12" x1="1313.33" y1="1353.1" x2="1160.11" y2="1091.66"/>
				
					<line id="_x2D_.elLine-_4_" fill="none" stroke="#012B48" stroke-dasharray="12" x1="1571.64" y1="1728.17" x2="1367.81" y2="1974.81"/>
				<rect fill="none" width="3840" height="2160"/>
			</g>
		</g>
		<g>
			<g>
				<text transform="matrix(1 0 0 1 799.1019 806.1126)" fill="#012B48" font-family="'HelveticaNeueLTStd-Bd'" font-size="148px">And good luck in</text>
				<rect fill="none" width="3840" height="2160"/>
			</g>
		</g>
		<g>
			<g>
				
					<text transform="matrix(1 0 0 1 798.0677 604.6439)" fill="#012B48" font-family="'HelveticaNeueLTStd-ThIt'" font-size="321.3157px" letter-spacing="5">Thank you,</text>
				<rect fill="none" width="3840" height="2160"/>
			</g>
		</g>
	</g>
</g>
<rect fill="none" width="3840" height="2160"/>
</svg>
