<?xml version="1.0" encoding="utf-8"?>
<!-- Generator: Adobe Illustrator 24.2.1, SVG Export Plug-In . SVG Version: 6.00 Build 0)  -->
<svg version="1.1" id="_x32_022Season2Svg" xmlns="http://www.w3.org/2000/svg" xmlns:xlink="http://www.w3.org/1999/xlink" x="0px"
	 y="0px" width="3840px" height="2160px" viewBox="0 0 3840 2160" enable-background="new 0 0 3840 2160" xml:space="preserve">
<rect fill="none" width="3840" height="2160"/>
<g id="_x2D_.contentScene-_1_">
	<g id="_x2D_.contForPoint-" opacity="0.3">
		<g id="_x2D_.moveElements-_2_">
			<g>
				<g>
					<rect id="_x2D_.contForPointB-_3_" x="1946.82" y="1603.72" opacity="0.33" fill="#0010B9" width="2038.6" height="1112.56"/>
					<rect id="_x2D_.contForPointB-_4_" x="-794.8" y="-125.65" opacity="0.33" fill="#0010B9" width="1941.97" height="1059.83"/>
					<rect id="_x2D_.contForPointB-_2_" x="-121.28" y="1332.66" opacity="0.33" fill="#0010B9" width="2157.7" height="1177.56"/>
					<rect id="_x2D_.contForPointB-_1_" x="-1047.17" y="902.38" opacity="0.33" fill="#0010B9" width="1867.28" height="1019.07"/>
					<rect x="0" y="1.89" fill="none" width="3836.96" height="2158.11"/>
				</g>
			</g>
		</g>
	</g>
	<g id="_x2D_.moveElements-_1_">
		<g>
			<g>
				<circle fill="#A4CD38" cx="2668.15" cy="1645.59" r="6.5"/>
				<circle fill="#A4CD38" cx="2252.8" cy="1360.76" r="6.5"/>
				<circle fill="#A4CD38" cx="2386.9" cy="1363.7" r="6.5"/>
				<circle fill="#A4CD38" cx="2508.3" cy="1345.23" r="6.5"/>
				<circle fill="#A4CD38" cx="2327.06" cy="1230.3" r="6.5"/>
				<circle fill="#A4CD38" cx="2423.48" cy="1210.4" r="6.5"/>
				<circle fill="#A4CD38" cx="2469.17" cy="1260.79" r="6.5"/>
				<circle fill="#A4CD38" cx="2592.8" cy="1174.96" r="6.5"/>
				<circle fill="#A4CD38" cx="2577.18" cy="1258.07" r="6.5"/>
				<circle fill="#A4CD38" cx="2570.68" cy="1360.76" r="6.5"/>
				<circle fill="#A4CD38" cx="2548.45" cy="1470.67" r="6.5"/>
				<circle fill="#A4CD38" cx="2429.98" cy="1464.17" r="6.5"/>
				<circle fill="#A4CD38" cx="2453.26" cy="1524.37" r="6.5"/>
				<circle fill="#A4CD38" cx="2613.18" cy="1573.29" r="6.5"/>
				<circle fill="#A4CD38" cx="2569.25" cy="1525.44" r="6.5"/>
				<circle fill="#A4CD38" cx="2359.18" cy="1625.87" r="6.5"/>
				<circle fill="#A4CD38" cx="2276.28" cy="1595.19" r="6.5"/>
				<circle fill="#A4CD38" cx="2508.3" cy="1606.16" r="6.5"/>
				<polygon fill="#A4CD38" points="2482.38,1190.97 2469.17,1259.14 2550.89,1226.25 				"/>
				<polygon fill="#A4CD38" points="2578.91,1258.07 2592.25,1321.26 2657.85,1263.96 				"/>
				<polygon fill="#A4CD38" points="2508.14,1406.38 2544.36,1467.4 2555.97,1408.71 				"/>
				<polygon fill="#A4CD38" points="2513.09,1568.32 2570.68,1606.16 2569.25,1526.4 				"/>
				<polygon fill="#A4CD38" points="2571.39,1605.15 2668.15,1643.87 2610.18,1574.62 				"/>
				<polygon fill="#A4CD38" points="2425.61,1646.02 2522.42,1645.59 2436.83,1609.38 				"/>
				<polygon fill="#A4CD38" points="2288.31,1295.68 2338.04,1317.9 2350.75,1280.43 				"/>
				<polygon fill="#A4CD38" points="2264.11,1360.25 2383.61,1359.28 2374.8,1342.03 				"/>
				<polygon fill="#A4CD38" points="2331.55,1183.86 2370.49,1229.03 2424.2,1210.66 				"/>
				<path fill="#A4CD38" d="M2357.88,1450.42c0,0-37.7,27-46.78,36.25c-9.46,9.64-32.92,36.63-32.92,36.63l93.89,38.08
					L2357.88,1450.42z"/>
				<g>
					<g>
						<path fill="none" stroke="#012B48" d="M2249.4,1364.15c-10.67-143.95,83.74-221.54,213.88-221.45
							c122.53,0.08,205.91,61.05,203.76,158.78c-3.08,139.9-148.93,178.96-211.46,220.86c22.67-1.7,218.71,0,218.71,0v126.48
							h-435.04c-2.9-48.58,6.23-86.33,30.88-120.41c42.05-58.73,110.72-99.35,179.08-139.53c26.1-15.95,67.69-33.03,67.08-70
							c-0.59-35.08-20.38-56.96-54.46-57.33c-53.68-0.58-75.43,40.98-73.98,102.6H2249.4z"/>
					</g>
				</g>
				<g>
					<g>
						<path fill="none" stroke="#012B48" stroke-dasharray="12" d="M2245.73,1368.13c-10.76-145.2,78.98-229.82,215.73-229.82
							c123.59,0,210.79,61.73,209.82,163.37c-1.32,138.58-160.59,191.2-203.63,217.4c22.87-1.71,209.86,0,209.86,0v134.02h-442.02
							c-2.92-49,4.14-88.16,29-122.53c44.3-66.61,117.69-105.54,182.77-145.03c26.33-16.09,65.51-29.02,65.51-66.31
							c0-46.07-31.57-53.18-52.78-54.6c-43.84-2.93-72.35,38.23-69.24,103.5H2245.73z"/>
					</g>
				</g>
				<polyline fill="none" stroke="#012B48" points="2252.8,1360.76 2374.88,1342.89 2383.61,1359.28 				"/>
				<polyline fill="none" stroke="#012B48" stroke-dasharray="12" points="2252.8,1360.76 2302.48,1321.5 2374.88,1342.89 
					2337.58,1318.21 2389.47,1314.71 				"/>
				<polyline fill="none" stroke="#012B48" stroke-dasharray="12" points="2288.22,1296.27 2338.04,1318.14 2302.98,1321.98 
					2288.22,1295.84 2254.26,1331.37 2302.59,1321.55 				"/>
				<polyline fill="none" stroke="#012B48" points="2338.04,1317.9 2350.75,1280.43 2392.68,1304.82 2326.54,1228.4 
					2310.71,1263.91 2265.95,1269.85 				"/>
				<path fill="none" stroke="#012B48" d="M2350.75,1275.98"/>
				<line fill="none" stroke="#012B48" x1="2350.7" y1="1280.67" x2="2324.87" y2="1229.03"/>
				<line fill="none" stroke="#012B48" x1="2324.87" y1="1229.03" x2="2278.18" y2="1240.78"/>
				<polyline fill="none" stroke="#012B48" stroke-dasharray="12" points="2410.48,1274.22 2326.32,1227.71 2370.49,1229.03 
					2410.48,1274.22 2424.79,1211.81 2370.49,1229.03 2331.55,1183.86 2326.32,1227.71 2264.11,1270.52 2287.12,1294.6 
					2310.71,1263.91 2350.75,1280.37 2288.31,1295.68 				"/>
				<polyline fill="none" stroke="#012B48" stroke-dasharray="12" points="2333.13,1182.33 2424.2,1210.66 2405.59,1153.12 
					2458.75,1177.6 2424.84,1209.59 2482.38,1190.97 2459.34,1177.25 2488.96,1148.04 2481.83,1190.3 2552.04,1224.97 
					2488.96,1148.04 				"/>
				<polyline fill="none" stroke="#012B48" points="2435.31,1261.7 2425.38,1211.88 2469.17,1259.14 2481.14,1190.99 				"/>
				<polyline fill="none" stroke="#012B48" points="2469.17,1259.14 2550.89,1226.25 2508.71,1275.98 2570.18,1260.3 
					2578.91,1258.07 2552.04,1225.18 2592.08,1178.35 2578.36,1257 2627.72,1207.42 				"/>
				<polyline fill="none" stroke="#012B48" points="2519.15,1297.99 2578.78,1258.15 2592.62,1320.41 2657.85,1263.96 
					2579.53,1258.07 				"/>
				<polyline fill="none" stroke="#012B48" points="2518.11,1297.67 2592.8,1320.41 2519.22,1320.41 				"/>
				<polyline fill="none" stroke="#012B48" stroke-dasharray="12" points="2659.99,1317.9 2592.62,1320.41 2647.43,1371.96 
					2519.2,1329.23 2572.33,1363.19 2645.72,1372.57 				"/>
				<polyline fill="none" stroke="#012B48" stroke-dasharray="12" points="2573.38,1363.28 2512,1346.82 2555.97,1408.71 
					2573.38,1364.35 2610.18,1420.23 2555.72,1409.28 2544.36,1467.4 2507.06,1405.42 2557.41,1409.26 				"/>
				<polyline fill="none" stroke="#012B48" points="2511.43,1348.01 2508.14,1406.38 2452.83,1392.28 2542.67,1468.47 
					2470.31,1445.46 2452.19,1392.3 2429.18,1461.36 2471.34,1445.57 2446.45,1525.44 2429.18,1462.03 2362.24,1484.52 
					2357.88,1451.49 2429.09,1461.34 				"/>
				<polyline fill="none" stroke="#012B48" stroke-dasharray="12" points="2446.07,1523.84 2362.31,1484.52 2372.69,1561.19 
					2446.11,1526.13 2443.96,1548.02 2464.26,1545.26 2447.05,1526.15 2472.55,1542.54 2568.49,1525.44 2513.09,1568.32 
					2570.68,1606.16 2568.47,1527.29 				"/>
				<polyline fill="none" stroke="#012B48" stroke-dasharray="12" points="2443.35,1548.57 2372.69,1561.19 2436.83,1609.38 
					2497.74,1581.48 2464.35,1545.35 2474.06,1543.19 2513.51,1568.84 				"/>
				<line fill="none" stroke="#012B48" x1="2443.35" y1="1548.57" x2="2436.83" y2="1609.38"/>
				<polyline fill="none" stroke="#012B48" points="2512.75,1568.77 2498.08,1581.12 2570.59,1606.16 2507.06,1606.16 
					2498.01,1582.76 				"/>
				<polyline fill="none" stroke="#012B48" points="2507.06,1606.16 2436.87,1609.38 2522.42,1645.59 2507.83,1608.15 				"/>
				<polyline fill="none" stroke="#012B48" stroke-dasharray="12" points="2525.16,1643.87 2569.84,1606.16 2668.15,1643.87 
					2610.18,1574.62 2667.08,1528.55 				"/>
				<polyline fill="none" stroke="#012B48" points="2569.25,1526.4 2609.99,1574.71 2571.39,1605.15 				"/>
				<polyline fill="none" stroke="#012B48" points="2436.83,1609.38 2425.61,1646.02 2358.72,1624.8 2436.83,1609.38 				"/>
				<polyline fill="none" stroke="#012B48" points="2372.69,1561.48 2359.8,1624.9 2319.6,1598.89 2372.07,1561.37 2298.92,1558.58 
					2277.94,1526.4 				"/>
				<polyline fill="none" stroke="#012B48" points="2297.77,1558.99 2261.07,1555.29 2278.35,1578.98 2299.99,1558.49 
					2319.6,1598.98 2279.08,1578.81 2275.47,1596.84 2318.34,1598.89 				"/>
				<polyline fill="none" stroke="#012B48" points="2247.82,1595.19 2274.99,1597.34 2258.44,1613.86 2244.21,1627.7 
					2254.95,1627.7 2258.92,1614.11 2318.59,1599.88 				"/>
				<polyline fill="none" stroke="#012B48" points="2258.92,1614.11 2359.18,1624.9 2254.95,1627.7 2244.09,1644.95 2359.18,1624.9 
									"/>
				<line fill="none" stroke="#012B48" x1="2280.32" y1="1524.37" x2="2370.49" y2="1561.19"/>
				<line fill="none" stroke="#012B48" x1="2374.8" y1="1342.03" x2="2386.9" y2="1315.42"/>
				<circle id="_x2D_.elCircle-_11_" fill="none" stroke="#012B48" cx="2252.8" cy="1357.98" r="23.5"/>
				<circle id="_x2D_.elCircle-_12_" fill="none" stroke="#012B48" cx="2423.48" cy="1210.4" r="23.5"/>
				<circle id="_x2D_.elCircle-_13_" fill="none" stroke="#012B48" cx="2592.8" cy="1174.73" r="23.5"/>
				<circle id="_x2D_.elCircle-_14_" fill="none" stroke="#012B48" cx="2570.59" cy="1360.76" r="23.5"/>
				<circle id="_x2D_.elCircle-_15_" fill="none" stroke="#012B48" cx="2429.98" cy="1457.79" r="23.5"/>
				<circle id="_x2D_.elCircle-_16_" fill="none" stroke="#012B48" cx="2278.18" cy="1592.48" r="23.5"/>
				<circle id="_x2D_.elCircle-_17_" fill="none" stroke="#012B48" cx="2508.14" cy="1601.69" r="23.5"/>
				<circle id="_x2D_.elCircle-_18_" fill="none" stroke="#012B48" cx="2570.38" cy="1528.4" r="23.5"/>
				<g>
					<defs>
						<path id="SVGID_1_" d="M2401.74,1148.15l-2.71-11.69l0.97-0.23l2.71,11.69L2401.74,1148.15z M2396.32,1124.77l-2.71-11.69
							l0.97-0.23l2.71,11.69L2396.32,1124.77z M2390.9,1101.39l-2.71-11.69l0.97-0.23l2.71,11.69L2390.9,1101.39z M2385.48,1078.01
							l-2.71-11.69l0.97-0.23l2.71,11.69L2385.48,1078.01z M2380.06,1054.63l-2.71-11.69l0.97-0.23l2.71,11.69L2380.06,1054.63z
							 M2374.64,1031.25l-2.71-11.69l0.97-0.23l2.71,11.69L2374.64,1031.25z M2369.23,1007.87l-2.71-11.69l0.97-0.23l2.71,11.69
							L2369.23,1007.87z M2363.81,984.49l-2.71-11.69l0.97-0.23l2.71,11.69L2363.81,984.49z M2358.39,961.11l-2.71-11.69l0.97-0.23
							l2.71,11.69L2358.39,961.11z M2352.97,937.73l-2.71-11.69l0.97-0.23l2.71,11.69L2352.97,937.73z M2347.55,914.35l-2.71-11.69
							l0.97-0.23l2.71,11.69L2347.55,914.35z M2342.13,890.97l-2.71-11.69l0.97-0.23l2.71,11.69L2342.13,890.97z M2336.71,867.59
							L2334,855.9l0.97-0.23l2.71,11.69L2336.71,867.59z M2331.29,844.21l-2.71-11.69l0.97-0.23l2.71,11.69L2331.29,844.21z
							 M2325.87,820.83l-2.5-10.79l0.97-0.23l2.5,10.79L2325.87,820.83z"/>
					</defs>
					<clipPath id="SVGID_2_">
						<use xlink:href="#SVGID_1_"  overflow="visible"/>
					</clipPath>
					<g clip-path="url(#SVGID_2_)">
						
							<line id="_x2D_.elLine-_29_" fill="none" stroke="#012B48" stroke-width="3" stroke-dasharray="12" x1="2402.23" y1="1148.04" x2="2323.86" y2="809.92"/>
					</g>
				</g>
				<g>
					<defs>
						<path id="SVGID_3_" d="M2333.26,1171.59l-1-0.09l1.12-11.95l1,0.09L2333.26,1171.59z M2335.5,1147.69l-1-0.09l1.12-11.95
							l1,0.09L2335.5,1147.69z M2337.75,1123.8l-1-0.09l1.12-11.95l1,0.09L2337.75,1123.8z M2339.99,1099.9l-1-0.09l1.12-11.95
							l1,0.09L2339.99,1099.9z M2342.24,1076.01l-1-0.09l1.12-11.95l1,0.09L2342.24,1076.01z M2344.48,1052.11l-1-0.09l1.12-11.95
							l1,0.09L2344.48,1052.11z M2346.73,1028.22l-1-0.09l1.12-11.95l1,0.09L2346.73,1028.22z M2348.97,1004.32l-1-0.09l1.12-11.95
							l1,0.09L2348.97,1004.32z M2351.21,980.43l-1-0.09l1.12-11.95l1,0.09L2351.21,980.43z M2353.46,956.53l-1-0.09l1.12-11.95
							l1,0.09L2353.46,956.53z M2355.7,932.64l-1-0.09l1.12-11.95l1,0.09L2355.7,932.64z M2357.95,908.74l-1-0.09l0.43-4.56l1,0.09
							L2357.95,908.74z"/>
					</defs>
					<clipPath id="SVGID_4_">
						<use xlink:href="#SVGID_3_"  overflow="visible"/>
					</clipPath>
					<g clip-path="url(#SVGID_4_)">
						
							<line id="_x2D_.elLine-_28_" fill="none" stroke="#012B48" stroke-width="3" stroke-dasharray="12" x1="2332.76" y1="1171.54" x2="2357.88" y2="904.13"/>
					</g>
				</g>
				<g>
					<defs>
						<path id="SVGID_5_" d="M2491.43,1145.99l-0.65-0.76l9.16-7.75l0.65,0.76L2491.43,1145.99z M2509.75,1130.49l-0.65-0.76
							l9.16-7.75l0.65,0.76L2509.75,1130.49z M2528.08,1114.99l-0.65-0.76l9.16-7.75l0.65,0.76L2528.08,1114.99z M2546.4,1099.49
							l-0.65-0.76l9.16-7.75l0.65,0.76L2546.4,1099.49z M2564.72,1083.98l-0.65-0.76l9.16-7.75l0.65,0.76L2564.72,1083.98z
							 M2583.04,1068.48l-0.65-0.76l9.16-7.75l0.65,0.76L2583.04,1068.48z M2601.36,1052.98l-0.65-0.76l9.16-7.75l0.65,0.76
							L2601.36,1052.98z M2619.69,1037.48l-0.65-0.76l9.16-7.75l0.65,0.76L2619.69,1037.48z M2638.01,1021.98l-0.65-0.76l9.16-7.75
							l0.65,0.76L2638.01,1021.98z M2656.33,1006.48l-0.65-0.76l9.16-7.75l0.65,0.76L2656.33,1006.48z M2674.65,990.98l-0.65-0.76
							l9.16-7.75l0.65,0.76L2674.65,990.98z M2692.98,975.47l-0.65-0.76l9.16-7.75l0.65,0.76L2692.98,975.47z M2711.3,959.97
							l-0.65-0.76l9.16-7.75l0.65,0.76L2711.3,959.97z M2729.62,944.47l-0.65-0.76l9.16-7.75l0.65,0.76L2729.62,944.47z
							 M2747.94,928.97l-0.65-0.76l9.16-7.75l0.65,0.76L2747.94,928.97z M2766.27,913.47l-0.65-0.76l9.16-7.75l0.65,0.76
							L2766.27,913.47z M2784.59,897.97l-0.65-0.76l9.16-7.75l0.65,0.76L2784.59,897.97z M2802.91,882.47l-0.65-0.76l9.16-7.75
							l0.65,0.76L2802.91,882.47z M2821.23,866.96l-0.65-0.76l9.16-7.75l0.65,0.76L2821.23,866.96z M2839.55,851.46l-0.65-0.76
							l9.16-7.75l0.65,0.76L2839.55,851.46z M2857.88,835.96l-0.65-0.76l9.16-7.75l0.65,0.76L2857.88,835.96z M2876.2,820.46
							l-0.65-0.76l9.16-7.75l0.65,0.76L2876.2,820.46z M2894.52,804.96l-0.65-0.76l3.64-3.08l0.65,0.76L2894.52,804.96z"/>
					</defs>
					<clipPath id="SVGID_6_">
						<use xlink:href="#SVGID_5_"  overflow="visible"/>
					</clipPath>
					<g clip-path="url(#SVGID_6_)">
						
							<line id="_x2D_.elLine-_27_" fill="none" stroke="#012B48" stroke-width="3" stroke-dasharray="12" x1="2491.11" y1="1145.61" x2="2897.84" y2="801.5"/>
					</g>
				</g>
				<g>
					<defs>
						<path id="SVGID_7_" d="M2483.79,1138.57l-6.21-10.27l0.86-0.52l6.21,10.27L2483.79,1138.57z M2471.38,1118.03l-6.21-10.27
							l0.86-0.52l6.21,10.27L2471.38,1118.03z M2458.96,1097.49l-6.21-10.27l0.86-0.52l6.21,10.27L2458.96,1097.49z
							 M2446.54,1076.96l-6.21-10.27l0.86-0.52l6.21,10.27L2446.54,1076.96z M2434.13,1056.42l-6.21-10.27l0.86-0.52l6.21,10.27
							L2434.13,1056.42z"/>
					</defs>
					<clipPath id="SVGID_8_">
						<use xlink:href="#SVGID_7_"  overflow="visible"/>
					</clipPath>
					<g clip-path="url(#SVGID_8_)">
						
							<line id="_x2D_.elLine-_26_" fill="none" stroke="#012B48" stroke-width="3" stroke-dasharray="12" x1="2484.22" y1="1138.31" x2="2423.48" y2="1037.84"/>
					</g>
				</g>
				<g>
					<defs>
						<path id="SVGID_9_" d="M2743.56,1480.77l-0.79-0.89l0.75-0.66l0.79,0.89L2743.56,1480.77z M2734.79,1470.91l-7.98-8.97
							l0.75-0.67l7.98,8.97L2734.79,1470.91z M2718.84,1452.98l-7.98-8.96l0.75-0.67l7.98,8.96L2718.84,1452.98z M2702.89,1435.05
							l-7.98-8.96l0.75-0.67l7.98,8.96L2702.89,1435.05z M2686.93,1417.12l-7.98-8.97l0.75-0.67l7.98,8.97L2686.93,1417.12z
							 M2670.98,1399.19l-7.98-8.97l0.75-0.67l7.98,8.97L2670.98,1399.19z M2655.03,1381.26l-7.98-8.97l0.75-0.67l7.98,8.97
							L2655.03,1381.26z"/>
					</defs>
					<clipPath id="SVGID_10_">
						<use xlink:href="#SVGID_9_"  overflow="visible"/>
					</clipPath>
					<g clip-path="url(#SVGID_10_)">
						
							<line id="_x2D_.elLine-_21_" fill="none" stroke="#012B48" stroke-width="3" stroke-dasharray="12" x1="2647.43" y1="1371.96" x2="2743.94" y2="1480.43"/>
					</g>
				</g>
				<g>
					<defs>
						<path id="SVGID_11_" d="M2750.73,1436.46l-11.92-1.4l0.12-0.99l11.92,1.4L2750.73,1436.46z M2726.89,1433.67l-11.92-1.4
							l0.12-0.99l11.92,1.4L2726.89,1433.67z M2703.05,1430.88l-11.92-1.39l0.12-0.99l11.92,1.39L2703.05,1430.88z M2679.22,1428.09
							l-11.92-1.39l0.12-0.99l11.92,1.39L2679.22,1428.09z M2655.38,1425.3l-11.92-1.4l0.12-0.99l11.92,1.4L2655.38,1425.3z
							 M2631.54,1422.51l-11.92-1.4l0.12-0.99l11.92,1.4L2631.54,1422.51z"/>
					</defs>
					<clipPath id="SVGID_12_">
						<use xlink:href="#SVGID_11_"  overflow="visible"/>
					</clipPath>
					<g clip-path="url(#SVGID_12_)">
						
							<line id="_x2D_.elLine-_14_" fill="none" stroke="#012B48" stroke-width="3" stroke-dasharray="12" x1="2619.68" y1="1420.62" x2="2758.69" y2="1436.89"/>
					</g>
				</g>
				<g>
					<defs>
						<path id="SVGID_13_" d="M2569.33,1525.93l-0.16-0.99l11.84-1.95l0.16,0.99L2569.33,1525.93z M2593.01,1522.02l-0.16-0.99
							l11.84-1.95l0.16,0.99L2593.01,1522.02z M2616.69,1518.12l-0.16-0.99l11.84-1.95l0.16,0.99L2616.69,1518.12z M2640.37,1514.21
							l-0.16-0.99l11.84-1.95l0.16,0.99L2640.37,1514.21z M2664.04,1510.3l-0.16-0.99l11.84-1.95l0.16,0.99L2664.04,1510.3z
							 M2687.72,1506.39l-0.16-0.99l11.84-1.95l0.16,0.99L2687.72,1506.39z M2711.4,1502.49l-0.16-0.99l11.84-1.95l0.16,0.99
							L2711.4,1502.49z M2735.08,1498.58l-0.16-0.99l0.18-0.03l0.16,0.99L2735.08,1498.58z"/>
					</defs>
					<clipPath id="SVGID_14_">
						<use xlink:href="#SVGID_13_"  overflow="visible"/>
					</clipPath>
					<g clip-path="url(#SVGID_14_)">
						
							<line id="_x2D_.elLine-_13_" fill="none" stroke="#012B48" stroke-width="3" stroke-dasharray="12" x1="2569.25" y1="1525.44" x2="2735.18" y2="1498.05"/>
					</g>
				</g>
				<g>
					<defs>
						<path id="SVGID_15_" d="M2278.51,1852.01l-0.64-0.77l8.21-6.91l0.64,0.77L2278.51,1852.01z M2295.9,1837.37l-0.64-0.77
							l9.18-7.72l0.64,0.77L2295.9,1837.37z M2314.27,1821.92l-0.64-0.77l9.18-7.72l0.64,0.77L2314.27,1821.92z M2332.64,1806.47
							l-0.64-0.77l9.18-7.72l0.64,0.77L2332.64,1806.47z M2351,1791.02l-0.64-0.77l9.18-7.72l0.64,0.77L2351,1791.02z
							 M2369.37,1775.58l-0.64-0.77l9.18-7.72l0.64,0.77L2369.37,1775.58z M2387.74,1760.13l-0.64-0.77l9.18-7.72l0.64,0.77
							L2387.74,1760.13z M2406.1,1744.68l-0.64-0.77l9.18-7.72l0.64,0.77L2406.1,1744.68z M2424.47,1729.23l-0.64-0.77l9.18-7.72
							l0.64,0.77L2424.47,1729.23z M2442.83,1713.78l-0.64-0.77l9.18-7.72l0.64,0.77L2442.83,1713.78z M2461.2,1698.33l-0.64-0.77
							l9.18-7.72l0.64,0.77L2461.2,1698.33z M2479.57,1682.88l-0.64-0.77l9.18-7.72l0.64,0.77L2479.57,1682.88z M2497.93,1667.43
							l-0.64-0.77l9.18-7.72l0.64,0.77L2497.93,1667.43z M2516.3,1651.98l-0.64-0.77l9.18-7.72l0.64,0.77L2516.3,1651.98z"/>
					</defs>
					<clipPath id="SVGID_16_">
						<use xlink:href="#SVGID_15_"  overflow="visible"/>
					</clipPath>
					<g clip-path="url(#SVGID_16_)">
						
							<line id="_x2D_.elLine-_12_" fill="none" stroke="#012B48" stroke-width="3" stroke-dasharray="12" x1="2525.16" y1="1643.87" x2="2278.18" y2="1851.62"/>
					</g>
				</g>
				<g>
					<defs>
						<path id="SVGID_17_" d="M2749.13,1755.61l-10.81-5.22l0.44-0.9l10.81,5.22L2749.13,1755.61z M2727.52,1745.17l-10.81-5.22
							l0.44-0.9l10.81,5.22L2727.52,1745.17z M2705.91,1734.74l-10.81-5.22l0.44-0.9l10.81,5.22L2705.91,1734.74z M2684.3,1724.3
							l-10.81-5.22l0.44-0.9l10.81,5.22L2684.3,1724.3z M2662.68,1713.87l-10.81-5.22l0.44-0.9l10.81,5.22L2662.68,1713.87z
							 M2641.07,1703.43l-10.81-5.22l0.44-0.9l10.81,5.22L2641.07,1703.43z M2619.46,1693l-10.81-5.22l0.44-0.9l10.81,5.22
							L2619.46,1693z M2597.85,1682.56l-10.81-5.22l0.44-0.9l10.81,5.22L2597.85,1682.56z M2576.23,1672.13l-10.81-5.22l0.44-0.9
							l10.81,5.22L2576.23,1672.13z M2554.62,1661.69l-10.81-5.22l0.44-0.9l10.81,5.22L2554.62,1661.69z M2533.01,1651.26
							l-10.81-5.22l0.44-0.9l10.81,5.22L2533.01,1651.26z"/>
					</defs>
					<clipPath id="SVGID_18_">
						<use xlink:href="#SVGID_17_"  overflow="visible"/>
					</clipPath>
					<g clip-path="url(#SVGID_18_)">
						
							<line id="_x2D_.elLine-_11_" fill="none" stroke="#012B48" stroke-width="3" stroke-dasharray="12" x1="2522.42" y1="1645.59" x2="2750.85" y2="1755.88"/>
					</g>
				</g>
				<rect x="176.18" y="-514.29" fill="none" width="3840" height="2160"/>
			</g>
		</g>
		<g>
			<g>
				<circle fill="#A4CD38" cx="2758.54" cy="1559.14" r="6.5"/>
				<circle fill="#A4CD38" cx="2818.04" cy="1626.53" r="6.5"/>
				<circle fill="#A4CD38" cx="2906.76" cy="1526" r="6.5"/>
				<circle fill="#A4CD38" cx="2704.26" cy="1649.48" r="6.5"/>
				<circle fill="#A4CD38" cx="2910.44" cy="1391.41" r="6.5"/>
				<circle fill="#A4CD38" cx="3052.96" cy="1322.04" r="6.5"/>
				<circle fill="#A4CD38" cx="3012.2" cy="1221.71" r="6.5"/>
				<circle fill="#A4CD38" cx="2929.34" cy="1262.42" r="6.5"/>
				<circle fill="#A4CD38" cx="2789.48" cy="1183.09" r="6.5"/>
				<circle fill="#A4CD38" cx="2810.91" cy="1282.3" r="6.5"/>
				<circle fill="#A4CD38" cx="2798.21" cy="1319.54" r="6.5"/>
				<circle fill="#A4CD38" cx="2710.76" cy="1330.36" r="6.5"/>
				<circle fill="#A4CD38" cx="3018.78" cy="1408.74" r="6.5"/>
				<circle fill="#A4CD38" cx="3030.36" cy="1608.02" r="6.5"/>
				<circle fill="#A4CD38" cx="2958.18" cy="1585.91" r="6.5"/>
				<path fill="#A4CD38" d="M2818.04,1452.05c0,0-37.7,27-46.78,36.25c-9.46,9.64-32.92,36.63-32.92,36.63l93.89,38.08
					L2818.04,1452.05z"/>
				<polygon fill="#A4CD38" points="2983.41,1332.39 3032.5,1364.82 3105.88,1374.2 				"/>
				<polygon fill="#A4CD38" points="2931.51,1447.2 2906.76,1526 3002.83,1470.1 				"/>
				<polygon fill="#A4CD38" points="2830.66,1230.66 2870.65,1275.86 2884.96,1213.44 				"/>
				<polygon fill="#A4CD38" points="2942,1191.93 3012.2,1226.6 2949.13,1149.67 				"/>
				<polygon fill="#A4CD38" points="2770.87,1265.54 2748.48,1297.31 2810.91,1282.07 				"/>
				<polygon fill="#A4CD38" points="2763.15,1323.61 2712.97,1362.4 2834.96,1343.67 				"/>
				<polygon fill="#A4CD38" points="3028.66,1527.07 2973.26,1569.95 3030.36,1608.02 				"/>
				<polygon fill="#A4CD38" points="2904.13,1549.65 2897,1611.02 2957.9,1583.11 				"/>
				<polygon fill="#A4CD38" points="3070.16,1576.35 3129.23,1647.66 3129.12,1530.04 				"/>
				<g>
					<g>
						<path fill="none" stroke="#012B48" stroke-dasharray="12" d="M2709.56,1365.78c-10.67-143.95,83.74-221.54,213.88-221.45
							c122.53,0.08,205.91,61.05,203.76,158.78c-3.08,139.9-148.93,178.96-211.46,220.86c22.67-1.7,218.71,0,218.71,0v126.48
							h-435.04c-2.9-48.58,6.23-86.33,30.88-120.41c42.05-58.73,110.72-99.35,179.08-139.53c26.1-15.95,67.69-33.03,67.08-70
							c-0.59-35.08-20.38-56.96-54.46-57.33c-53.68-0.58-75.43,40.98-73.98,102.6H2709.56z"/>
					</g>
				</g>
				<g>
					<g>
						<path fill="none" stroke="#012B48" d="M2705.89,1369.76c-10.76-145.2,78.98-229.82,215.73-229.82
							c123.59,0,210.79,61.73,209.82,163.37c-1.32,138.58-160.59,191.2-203.63,217.4c22.87-1.71,209.86,0,209.86,0v134.02h-442.02
							c-2.92-49,4.14-88.16,29-122.53c44.3-66.61,117.69-105.54,182.77-145.03c26.33-16.09,65.51-29.02,65.51-66.31
							c0-46.07-31.57-53.18-52.78-54.6c-43.84-2.93-72.35,38.23-69.24,103.5H2705.89z"/>
					</g>
				</g>
				<polyline fill="none" stroke="#012B48" points="2712.97,1362.4 2835.05,1344.53 2843.78,1360.91 				"/>
				<polyline fill="none" stroke="#012B48" points="2712.97,1362.4 2762.65,1323.13 2835.05,1344.53 2797.75,1319.84 
					2849.64,1316.35 				"/>
				<polyline fill="none" stroke="#012B48" points="2748.39,1297.9 2798.21,1319.78 2763.15,1323.61 2748.39,1297.47 
					2714.43,1333.01 2762.76,1323.18 				"/>
				<polyline fill="none" stroke="#012B48" points="2798.21,1319.54 2810.91,1282.07 2852.84,1306.45 2786.71,1230.03 
					2770.87,1265.54 2726.11,1271.49 				"/>
				<path fill="none" stroke="#012B48" d="M2810.91,1277.61"/>
				<line fill="none" stroke="#012B48" x1="2810.87" y1="1282.3" x2="2785.04" y2="1230.66"/>
				<line fill="none" stroke="#012B48" x1="2785.04" y1="1230.66" x2="2738.35" y2="1242.41"/>
				<polyline fill="none" stroke="#012B48" stroke-dasharray="12" points="2870.65,1275.86 2786.48,1229.35 2830.66,1230.66 
					2870.65,1275.86 2884.96,1213.44 2830.66,1230.66 2791.72,1185.49 2786.48,1229.35 2724.28,1272.15 2747.29,1296.24 
					2770.87,1265.54 2810.91,1282 2748.48,1297.31 				"/>
				<polyline fill="none" stroke="#012B48" stroke-dasharray="12" points="2793.3,1183.96 2884.36,1212.3 2865.76,1154.75 
					2918.92,1179.23 2885,1211.22 2942.55,1192.6 2919.51,1178.89 2949.13,1149.67 2942,1191.93 3012.2,1226.6 2949.13,1149.67 				
					"/>
				<polyline fill="none" stroke="#012B48" points="2895.48,1263.33 2885.55,1213.51 2929.34,1260.78 2941.31,1192.62 				"/>
				<polyline fill="none" stroke="#012B48" points="2929.34,1260.78 3011.06,1227.88 2968.87,1277.61 3030.35,1261.93 
					3039.08,1259.7 3012.2,1226.81 3052.24,1179.98 3038.53,1258.63 3087.89,1209.05 				"/>
				<polyline fill="none" stroke="#012B48" stroke-dasharray="12" points="2979.32,1299.62 3038.94,1259.78 3052.79,1322.04 
					3118.01,1265.59 3039.7,1259.7 				"/>
				<polyline fill="none" stroke="#012B48" points="2978.27,1299.3 3052.96,1322.04 2979.39,1322.04 				"/>
				<polyline fill="none" stroke="#012B48" points="3120.16,1319.54 3052.79,1322.04 3107.59,1373.59 2979.36,1330.86 
					3032.5,1364.82 3105.88,1374.2 				"/>
				<polyline fill="none" stroke="#012B48" stroke-dasharray="12" points="3033.55,1364.91 2972.16,1348.46 3016.14,1410.34 
					3033.55,1365.98 3070.34,1421.86 3015.88,1410.91 3004.52,1469.03 2967.23,1407.05 3017.57,1410.89 				"/>
				<polyline fill="none" stroke="#012B48" points="2971.59,1349.64 2968.3,1408.01 2913,1393.91 3002.83,1470.1 2930.48,1447.09 
					2912.35,1393.93 2889.34,1463 2931.51,1447.2 2906.62,1527.07 2889.34,1463.66 2822.41,1486.15 2818.04,1453.12 
					2889.25,1462.97 				"/>
				<polyline fill="none" stroke="#012B48" stroke-dasharray="12" points="2906.23,1525.48 2822.48,1486.15 2832.85,1562.82 
					2906.28,1527.76 2904.13,1549.65 2924.42,1546.89 2907.22,1527.78 2932.72,1544.17 3028.66,1527.07 2973.26,1569.95 
					3030.85,1607.79 3028.63,1528.93 				"/>
				<polyline fill="none" stroke="#012B48" points="2903.51,1550.2 2832.85,1562.82 2897,1611.02 2957.9,1583.11 2924.52,1546.98 
					2934.23,1544.82 2973.67,1570.47 				"/>
				<line fill="none" stroke="#012B48" x1="2903.51" y1="1550.2" x2="2897" y2="1611.02"/>
				<polyline fill="none" stroke="#012B48" stroke-dasharray="12" points="2972.92,1570.41 2958.25,1582.76 3030.76,1607.79 
					2967.23,1607.79 2958.18,1584.39 				"/>
				<polyline fill="none" stroke="#012B48" points="2967.23,1607.79 2897.03,1611.02 2982.59,1647.22 2968,1609.78 				"/>
				<polyline fill="none" stroke="#012B48" points="3029.41,1528.04 3070.16,1576.35 3031.56,1606.79 				"/>
				<polyline fill="none" stroke="#012B48" stroke-dasharray="12" points="2897,1611.02 2885.78,1647.66 2818.89,1626.43 
					2897,1611.02 				"/>
				<polyline fill="none" stroke="#012B48" stroke-dasharray="12" points="2832.85,1563.12 2819.96,1626.53 2779.77,1600.53 
					2832.23,1563 2759.08,1560.21 2738.1,1528.04 				"/>
				<polyline fill="none" stroke="#012B48" points="2757.94,1560.62 2721.24,1556.92 2738.51,1580.61 2760.16,1560.12 
					2779.77,1600.62 2739.25,1580.44 2735.63,1598.47 2778.51,1600.53 				"/>
				<polyline fill="none" stroke="#012B48" points="2707.98,1596.82 2735.15,1598.97 2718.61,1615.49 2704.37,1629.34 
					2715.11,1629.34 2719.09,1615.75 2778.76,1601.51 				"/>
				<polyline fill="none" stroke="#012B48" stroke-dasharray="12" points="2719.09,1615.75 2819.35,1626.53 2715.11,1629.34 
					2704.26,1646.58 2819.35,1626.53 				"/>
				<line fill="none" stroke="#012B48" x1="2740.49" y1="1526" x2="2830.66" y2="1562.82"/>
				<line fill="none" stroke="#012B48" x1="2834.96" y1="1343.67" x2="2847.07" y2="1317.05"/>
				<polyline fill="none" stroke="#012B48" points="3132.12,1528.04 3069.8,1576.26 3129.23,1647.66 3031.36,1609.27 				"/>
				<line fill="none" stroke="#012B48" x1="3030.85" y1="1607.79" x2="2982.59" y2="1647.22"/>
				<circle id="_x2D_.elCircle-_26_" fill="none" stroke="#012B48" cx="2798.21" cy="1319.54" r="23.5"/>
				<circle id="_x2D_.elCircle-_25_" fill="none" stroke="#012B48" cx="2793.3" cy="1188.14" r="23.5"/>
				<circle id="_x2D_.elCircle-_24_" fill="none" stroke="#012B48" cx="3059.46" cy="1322.89" r="23.5"/>
				<circle id="_x2D_.elCircle-_23_" fill="none" stroke="#012B48" cx="2913.43" cy="1394.21" r="23.5"/>
				<circle id="_x2D_.elCircle-_22_" fill="none" stroke="#012B48" cx="2756.32" cy="1556.92" r="23.5"/>
				<circle id="_x2D_.elCircle-_21_" fill="none" stroke="#012B48" cx="2818.04" cy="1628.7" r="23.5"/>
				<circle id="_x2D_.elCircle-_20_" fill="none" stroke="#012B48" cx="3025.28" cy="1532.23" r="23.5"/>
				<circle id="_x2D_.elCircle-_19_" fill="none" stroke="#012B48" cx="3025.28" cy="1608.02" r="23.5"/>
				<g>
					<defs>
						<path id="SVGID_19_" d="M2933.35,1980.4l-7.5-9.37l0.78-0.63l7.5,9.37L2933.35,1980.4z M2918.35,1961.66l-7.5-9.37l0.78-0.63
							l7.5,9.37L2918.35,1961.66z M2903.35,1942.93l-7.5-9.37l0.78-0.63l7.5,9.37L2903.35,1942.93z M2888.36,1924.19l-7.5-9.37
							l0.78-0.63l7.5,9.37L2888.36,1924.19z M2873.36,1905.45l-7.5-9.37l0.78-0.63l7.5,9.37L2873.36,1905.45z M2858.36,1886.72
							l-7.5-9.37l0.78-0.63l7.5,9.37L2858.36,1886.72z M2843.36,1867.98l-7.5-9.37l0.78-0.63l7.5,9.37L2843.36,1867.98z
							 M2828.36,1849.25l-7.5-9.37l0.78-0.63l7.5,9.37L2828.36,1849.25z M2813.36,1830.51l-7.5-9.37l0.78-0.63l7.5,9.37
							L2813.36,1830.51z M2798.36,1811.77l-7.5-9.37l0.78-0.63l7.5,9.37L2798.36,1811.77z M2783.36,1793.04l-7.5-9.37l0.78-0.63
							l7.5,9.37L2783.36,1793.04z M2768.37,1774.3l-7.5-9.37l0.78-0.63l7.5,9.37L2768.37,1774.3z M2753.37,1755.57l-7.5-9.37
							l0.78-0.63l7.5,9.37L2753.37,1755.57z M2738.37,1736.83l-7.5-9.37l0.78-0.63l7.5,9.37L2738.37,1736.83z M2723.37,1718.09
							l-7.5-9.37l0.78-0.63l7.5,9.37L2723.37,1718.09z M2708.37,1699.36l-7.5-9.37l0.78-0.63l7.5,9.37L2708.37,1699.36z
							 M2693.37,1680.62l-7.5-9.37l0.78-0.63l7.5,9.37L2693.37,1680.62z M2678.37,1661.89l-7.5-9.37l0.78-0.63l7.5,9.37
							L2678.37,1661.89z"/>
					</defs>
					<clipPath id="SVGID_20_">
						<use xlink:href="#SVGID_19_"  overflow="visible"/>
					</clipPath>
					<g clip-path="url(#SVGID_20_)">
						
							<line id="_x2D_.elLine-_35_" fill="none" stroke="#012B48" stroke-width="3" stroke-dasharray="12" x1="2671.26" y1="1652.21" x2="2935.84" y2="1982.7"/>
					</g>
				</g>
				<g>
					<defs>
						<path id="SVGID_21_" d="M2865.21,1151.64l-11.17-4.39l0.37-0.93l11.17,4.39L2865.21,1151.64z M2842.88,1142.85l-11.17-4.39
							l0.37-0.93l11.17,4.39L2842.88,1142.85z M2820.54,1134.07l-11.17-4.39l0.37-0.93l11.17,4.39L2820.54,1134.07z
							 M2798.21,1125.28l-11.17-4.39l0.37-0.93l11.17,4.39L2798.21,1125.28z M2775.88,1116.49l-11.17-4.39l0.37-0.93l11.17,4.39
							L2775.88,1116.49z M2753.54,1107.7l-11.17-4.39l0.37-0.93l11.17,4.39L2753.54,1107.7z M2731.21,1098.91l-11.17-4.39l0.37-0.93
							l11.17,4.39L2731.21,1098.91z M2708.88,1090.13l-11.17-4.39l0.37-0.93l11.17,4.39L2708.88,1090.13z M2686.54,1081.34
							l-11.17-4.39l0.37-0.93l11.17,4.39L2686.54,1081.34z"/>
					</defs>
					<clipPath id="SVGID_22_">
						<use xlink:href="#SVGID_21_"  overflow="visible"/>
					</clipPath>
					<g clip-path="url(#SVGID_22_)">
						
							<line id="_x2D_.elLine-_34_" fill="none" stroke="#012B48" stroke-width="3" stroke-dasharray="12" x1="2865.39" y1="1151.18" x2="2671.91" y2="1075.04"/>
					</g>
				</g>
				<g>
					<defs>
						<path id="SVGID_23_" d="M2951.99,1143.25l-0.62-0.78l9.38-7.48l0.62,0.78L2951.99,1143.25z M2970.75,1128.29l-0.62-0.78
							l9.38-7.48l0.62,0.78L2970.75,1128.29z M2989.51,1113.32l-0.62-0.78l9.38-7.48l0.62,0.78L2989.51,1113.32z M3008.27,1098.35
							l-0.62-0.78l9.38-7.48l0.62,0.78L3008.27,1098.35z M3027.03,1083.38l-0.62-0.78l9.38-7.48l0.62,0.78L3027.03,1083.38z
							 M3045.79,1068.41l-0.62-0.78l9.38-7.48l0.62,0.78L3045.79,1068.41z M3064.55,1053.44l-0.62-0.78l9.38-7.48l0.62,0.78
							L3064.55,1053.44z M3083.31,1038.47l-0.62-0.78l9.38-7.48l0.62,0.78L3083.31,1038.47z M3102.07,1023.5l-0.62-0.78l9.38-7.48
							l0.62,0.78L3102.07,1023.5z M3120.83,1008.54l-0.62-0.78l9.38-7.48l0.62,0.78L3120.83,1008.54z M3139.59,993.57l-0.62-0.78
							l9.38-7.48l0.62,0.78L3139.59,993.57z M3158.35,978.6l-0.62-0.78l9.38-7.48l0.62,0.78L3158.35,978.6z M3177.11,963.63
							l-0.62-0.78l9.38-7.48l0.62,0.78L3177.11,963.63z M3195.87,948.66l-0.62-0.78l9.38-7.48l0.62,0.78L3195.87,948.66z
							 M3214.63,933.69l-0.62-0.78l9.38-7.48l0.62,0.78L3214.63,933.69z M3233.39,918.72l-0.62-0.78l9.38-7.48l0.62,0.78
							L3233.39,918.72z M3252.15,903.75l-0.62-0.78l9.38-7.48l0.62,0.78L3252.15,903.75z M3270.91,888.79l-0.62-0.78l9.38-7.48
							l0.62,0.78L3270.91,888.79z M3289.67,873.82l-0.62-0.78l9.38-7.48l0.62,0.78L3289.67,873.82z M3308.43,858.85l-0.62-0.78
							l9.38-7.48l0.62,0.78L3308.43,858.85z M3327.19,843.88l-0.62-0.78l7.87-6.28l0.62,0.78L3327.19,843.88z"/>
					</defs>
					<clipPath id="SVGID_24_">
						<use xlink:href="#SVGID_23_"  overflow="visible"/>
					</clipPath>
					<g clip-path="url(#SVGID_24_)">
						
							<line id="_x2D_.elLine-_33_" fill="none" stroke="#012B48" stroke-width="3" stroke-dasharray="12" x1="2951.68" y1="1142.86" x2="3334.74" y2="837.21"/>
					</g>
				</g>
				<g>
					<defs>
						<path id="SVGID_25_" d="M2951.23,1143.09l-5.44-10.69l0.89-0.45l5.44,10.69L2951.23,1143.09z M2940.35,1121.7l-5.44-10.69
							l0.89-0.45l5.44,10.69L2940.35,1121.7z M2929.46,1100.31l-5.44-10.69l0.89-0.45l5.44,10.69L2929.46,1100.31z M2918.57,1078.92
							l-5.44-10.69l0.89-0.45l5.44,10.69L2918.57,1078.92z M2907.69,1057.53l-5.44-10.69l0.89-0.45l5.44,10.69L2907.69,1057.53z
							 M2896.8,1036.15l-5.44-10.69l0.89-0.45l5.44,10.69L2896.8,1036.15z M2885.91,1014.76l-5.44-10.69l0.89-0.45l5.44,10.69
							L2885.91,1014.76z M2875.03,993.37l-5.44-10.69l0.89-0.45l5.44,10.69L2875.03,993.37z M2864.14,971.98l-5.44-10.69l0.89-0.45
							l5.44,10.69L2864.14,971.98z M2853.25,950.59l-5.44-10.69l0.89-0.45l5.44,10.69L2853.25,950.59z M2842.37,929.2l-5.44-10.69
							l0.89-0.45l5.44,10.69L2842.37,929.2z M2831.48,907.81l-5.44-10.69l0.89-0.45l5.44,10.69L2831.48,907.81z M2820.59,886.42
							l-5.44-10.69l0.89-0.45l5.44,10.69L2820.59,886.42z M2809.71,865.04l-5.44-10.69l0.89-0.45l5.44,10.69L2809.71,865.04z
							 M2798.82,843.65l-5.44-10.69l0.89-0.45l5.44,10.69L2798.82,843.65z M2787.93,822.26l-5.44-10.69l0.89-0.45l5.44,10.69
							L2787.93,822.26z"/>
					</defs>
					<clipPath id="SVGID_26_">
						<use xlink:href="#SVGID_25_"  overflow="visible"/>
					</clipPath>
					<g clip-path="url(#SVGID_26_)">
						
							<line id="_x2D_.elLine-_32_" fill="none" stroke="#012B48" stroke-width="3" stroke-dasharray="12" x1="2951.68" y1="1142.86" x2="2778.76" y2="803.13"/>
					</g>
				</g>
				<g>
					<defs>
						<path id="SVGID_27_" d="M3371.5,1268.34l-8.05-0.08l0.01-1l8.05,0.08L3371.5,1268.34z M3351.46,1268.15l-12-0.12l0.01-1
							l12,0.12L3351.46,1268.15z M3327.46,1267.92l-12-0.12l0.01-1l12,0.12L3327.46,1267.92z M3303.46,1267.68l-12-0.12l0.01-1
							l12,0.12L3303.46,1267.68z M3279.46,1267.45l-12-0.12l0.01-1l12,0.12L3279.46,1267.45z M3255.46,1267.22l-12-0.12l0.01-1
							l12,0.12L3255.46,1267.22z M3231.46,1266.99l-12-0.12l0.01-1l12,0.12L3231.46,1266.99z M3207.46,1266.75l-12-0.12l0.01-1
							l12,0.12L3207.46,1266.75z M3183.46,1266.52l-12-0.12l0.01-1l12,0.12L3183.46,1266.52z M3159.46,1266.29l-12-0.12l0.01-1
							l12,0.12L3159.46,1266.29z M3135.46,1266.05l-12-0.12l0.01-1l12,0.12L3135.46,1266.05z"/>
					</defs>
					<clipPath id="SVGID_28_">
						<use xlink:href="#SVGID_27_"  overflow="visible"/>
					</clipPath>
					<g clip-path="url(#SVGID_28_)">
						
							<line id="_x2D_.elLine-_31_" fill="none" stroke="#012B48" stroke-width="3" stroke-dasharray="12" x1="3123.47" y1="1265.44" x2="3371.51" y2="1267.84"/>
					</g>
				</g>
				<g>
					<defs>
						<path id="SVGID_29_" d="M3123.8,1265.81l-0.66-0.75l8.97-7.97l0.66,0.75L3123.8,1265.81z M3141.75,1249.88l-0.66-0.75
							l8.97-7.97l0.66,0.75L3141.75,1249.88z M3159.7,1233.94l-0.66-0.75l8.97-7.97l0.66,0.75L3159.7,1233.94z M3177.65,1218.01
							l-0.66-0.75l8.97-7.97l0.66,0.75L3177.65,1218.01z M3195.59,1202.08l-0.66-0.75l8.97-7.97l0.66,0.75L3195.59,1202.08z
							 M3213.54,1186.14l-0.66-0.75l8.97-7.97l0.66,0.75L3213.54,1186.14z M3231.49,1170.21l-0.66-0.75l8.97-7.97l0.66,0.75
							L3231.49,1170.21z M3249.44,1154.28l-0.66-0.75l8.97-7.97l0.66,0.75L3249.44,1154.28z M3267.38,1138.34l-0.66-0.75l8.97-7.97
							l0.66,0.75L3267.38,1138.34z M3285.33,1122.41l-0.66-0.75l8.97-7.97l0.66,0.75L3285.33,1122.41z M3303.28,1106.48l-0.66-0.75
							l8.97-7.97l0.66,0.75L3303.28,1106.48z"/>
					</defs>
					<clipPath id="SVGID_30_">
						<use xlink:href="#SVGID_29_"  overflow="visible"/>
					</clipPath>
					<g clip-path="url(#SVGID_30_)">
						
							<line id="_x2D_.elLine-_30_" fill="none" stroke="#012B48" stroke-width="3" stroke-dasharray="12" x1="3123.47" y1="1265.44" x2="3316.36" y2="1094.19"/>
					</g>
				</g>
				<g>
					<defs>
						<path id="SVGID_31_" d="M3128.84,1499.99l-0.96-1.27l0.8-0.6l0.96,1.27L3128.84,1499.99z M3120.63,1489.15l-7.24-9.57l0.8-0.6
							l7.24,9.57L3120.63,1489.15z M3106.15,1470.01l-7.24-9.57l0.8-0.6l7.24,9.57L3106.15,1470.01z M3091.67,1450.87l-7.24-9.57
							l0.8-0.6l7.24,9.57L3091.67,1450.87z M3077.18,1431.73l-7.24-9.57l0.8-0.6l7.24,9.57L3077.18,1431.73z"/>
					</defs>
					<clipPath id="SVGID_32_">
						<use xlink:href="#SVGID_31_"  overflow="visible"/>
					</clipPath>
					<g clip-path="url(#SVGID_32_)">
						
							<line id="_x2D_.elLine-_15_" fill="none" stroke="#012B48" stroke-width="3" stroke-dasharray="12" x1="3070.34" y1="1421.86" x2="3129.23" y2="1499.69"/>
					</g>
				</g>
				<g>
					<defs>
						<path id="SVGID_33_" d="M3318.05,1468.15l-11.8-2.18l0.18-0.98l11.8,2.18L3318.05,1468.15z M3294.45,1463.79l-11.8-2.18
							l0.18-0.98l11.8,2.18L3294.45,1463.79z M3270.85,1459.43l-11.8-2.18l0.18-0.98l11.8,2.18L3270.85,1459.43z M3247.25,1455.07
							l-11.8-2.18l0.18-0.98l11.8,2.18L3247.25,1455.07z M3223.65,1450.7l-11.8-2.18l0.18-0.98l11.8,2.18L3223.65,1450.7z
							 M3200.05,1446.34l-11.8-2.18l0.18-0.98l11.8,2.18L3200.05,1446.34z M3176.45,1441.98l-11.8-2.18l0.18-0.98l11.8,2.18
							L3176.45,1441.98z M3152.85,1437.62l-11.8-2.18l0.18-0.98l11.8,2.18L3152.85,1437.62z M3129.25,1433.26l-11.8-2.18l0.18-0.98
							l11.8,2.18L3129.25,1433.26z M3105.65,1428.89l-11.8-2.18l0.18-0.98l11.8,2.18L3105.65,1428.89z M3082.05,1424.53l-11.8-2.18
							l0.18-0.98l11.8,2.18L3082.05,1424.53z"/>
					</defs>
					<clipPath id="SVGID_34_">
						<use xlink:href="#SVGID_33_"  overflow="visible"/>
					</clipPath>
					<g clip-path="url(#SVGID_34_)">
						
							<line id="_x2D_.elLine-_20_" fill="none" stroke="#012B48" stroke-width="3" stroke-dasharray="12" x1="3070.34" y1="1421.86" x2="3325.55" y2="1469.03"/>
					</g>
				</g>
				<g>
					<defs>
						<path id="SVGID_35_" d="M2750.98,2110.38l-0.96-0.28l0.55-1.88l0.96,0.28L2750.98,2110.38z M2754.9,2096.98l-0.96-0.28
							l3.37-11.52l0.96,0.28L2754.9,2096.98z M2761.63,2073.95l-0.96-0.28l3.37-11.52l0.96,0.28L2761.63,2073.95z M2768.37,2050.91
							l-0.96-0.28l3.37-11.52l0.96,0.28L2768.37,2050.91z M2775.11,2027.88l-0.96-0.28l3.37-11.52l0.96,0.28L2775.11,2027.88z
							 M2781.84,2004.84l-0.96-0.28l3.37-11.52l0.96,0.28L2781.84,2004.84z M2788.58,1981.81l-0.96-0.28l3.37-11.52l0.96,0.28
							L2788.58,1981.81z M2795.32,1958.77l-0.96-0.28l3.37-11.52l0.96,0.28L2795.32,1958.77z M2802.05,1935.73l-0.96-0.28
							l3.37-11.52l0.96,0.28L2802.05,1935.73z M2808.79,1912.7l-0.96-0.28l3.37-11.52l0.96,0.28L2808.79,1912.7z M2815.53,1889.66
							l-0.96-0.28l3.37-11.52l0.96,0.28L2815.53,1889.66z M2822.26,1866.63l-0.96-0.28l3.37-11.52l0.96,0.28L2822.26,1866.63z
							 M2829,1843.59l-0.96-0.28l3.37-11.52l0.96,0.28L2829,1843.59z M2835.74,1820.56l-0.96-0.28l3.37-11.52l0.96,0.28
							L2835.74,1820.56z M2842.47,1797.52l-0.96-0.28l3.37-11.52l0.96,0.28L2842.47,1797.52z M2849.21,1774.49l-0.96-0.28
							l3.37-11.52l0.96,0.28L2849.21,1774.49z M2855.95,1751.45l-0.96-0.28l3.37-11.52l0.96,0.28L2855.95,1751.45z M2862.68,1728.42
							l-0.96-0.28l3.37-11.52l0.96,0.28L2862.68,1728.42z M2869.42,1705.38l-0.96-0.28l3.37-11.52l0.96,0.28L2869.42,1705.38z
							 M2876.16,1682.35l-0.96-0.28l3.37-11.52l0.96,0.28L2876.16,1682.35z M2882.89,1659.31l-0.96-0.28l3.37-11.52l0.96,0.28
							L2882.89,1659.31z"/>
					</defs>
					<clipPath id="SVGID_36_">
						<use xlink:href="#SVGID_35_"  overflow="visible"/>
					</clipPath>
					<g clip-path="url(#SVGID_36_)">
						
							<line id="_x2D_.elLine-_7_" fill="none" stroke="#012B48" stroke-width="3" stroke-dasharray="12" x1="2885.78" y1="1647.66" x2="2750.5" y2="2110.24"/>
					</g>
				</g>
				<g>
					<defs>
						<path id="SVGID_37_" d="M2869.82,1153.77l-2.68-11.7l0.97-0.22l2.68,11.7L2869.82,1153.77z M2864.46,1130.37l-2.68-11.7
							l0.97-0.22l2.68,11.7L2864.46,1130.37z M2859.1,1106.98l-2.68-11.7l0.97-0.22l2.68,11.7L2859.1,1106.98z M2853.74,1083.58
							l-2.68-11.7l0.97-0.22l2.68,11.7L2853.74,1083.58z M2848.38,1060.19l-2.68-11.7l0.97-0.22l2.68,11.7L2848.38,1060.19z
							 M2843.03,1036.8l-2.68-11.7l0.97-0.22l2.68,11.7L2843.03,1036.8z M2837.67,1013.4l-2.68-11.7l0.97-0.22l2.68,11.7
							L2837.67,1013.4z M2832.31,990.01l-2.68-11.7l0.97-0.22l2.68,11.7L2832.31,990.01z"/>
					</defs>
					<clipPath id="SVGID_38_">
						<use xlink:href="#SVGID_37_"  overflow="visible"/>
					</clipPath>
					<g clip-path="url(#SVGID_38_)">
						
							<line id="_x2D_.elLine-_6_" fill="none" stroke="#012B48" stroke-width="3" stroke-dasharray="12" x1="2870.31" y1="1153.66" x2="2829.78" y2="976.72"/>
					</g>
				</g>
				<g>
					<defs>
						<path id="SVGID_39_" d="M3132.03,1760.12l-5.02-2.22l0.4-0.91l5.02,2.22L3132.03,1760.12z M3116.04,1753.05l-10.97-4.85
							l0.4-0.91l10.97,4.85L3116.04,1753.05z M3094.09,1743.34l-10.97-4.85l0.4-0.91l10.97,4.85L3094.09,1743.34z M3072.14,1733.63
							l-10.97-4.85l0.4-0.91l10.97,4.85L3072.14,1733.63z M3050.19,1723.92l-10.97-4.85l0.4-0.91l10.97,4.85L3050.19,1723.92z
							 M3028.25,1714.22l-10.97-4.85l0.4-0.91l10.97,4.85L3028.25,1714.22z M3006.3,1704.51l-10.97-4.85l0.4-0.91l10.97,4.85
							L3006.3,1704.51z M2984.35,1694.8l-10.97-4.85l0.4-0.91l10.97,4.85L2984.35,1694.8z M2962.4,1685.09l-10.97-4.85l0.4-0.91
							l10.97,4.85L2962.4,1685.09z M2940.45,1675.38l-10.97-4.85l0.4-0.91l10.97,4.85L2940.45,1675.38z M2918.5,1665.67l-10.97-4.85
							l0.4-0.91l10.97,4.85L2918.5,1665.67z M2896.55,1655.97l-10.97-4.85l0.4-0.91l10.97,4.85L2896.55,1655.97z"/>
					</defs>
					<clipPath id="SVGID_40_">
						<use xlink:href="#SVGID_39_"  overflow="visible"/>
					</clipPath>
					<g clip-path="url(#SVGID_40_)">
						
							<line id="_x2D_.elLine-_5_" fill="none" stroke="#012B48" stroke-width="3" stroke-dasharray="12" x1="2885.78" y1="1650.66" x2="3132.23" y2="1759.67"/>
					</g>
				</g>
				<rect x="176.18" y="-514.29" fill="none" width="3840" height="2160"/>
			</g>
		</g>
		<g>
			<g>
				<circle fill="#A4CD38" cx="1872.9" cy="1252.4" r="6.5"/>
				<circle fill="#A4CD38" cx="1893.73" cy="1321.41" r="6.5"/>
				<circle fill="#A4CD38" cx="1842.88" cy="1359.44" r="6.5"/>
				<circle fill="#A4CD38" cx="1879.96" cy="1404.16" r="6.5"/>
				<circle fill="#A4CD38" cx="1970.57" cy="1641.68" r="6.5"/>
				<circle fill="#A4CD38" cx="2024.81" cy="1531.93" r="6.5"/>
				<circle fill="#A4CD38" cx="2118.37" cy="1529.79" r="6.5"/>
				<circle fill="#A4CD38" cx="2168.78" cy="1565.97" r="6.5"/>
				<circle fill="#A4CD38" cx="2215.24" cy="1349.89" r="6.5"/>
				<circle fill="#A4CD38" cx="2111.87" cy="1327.91" r="6.5"/>
				<circle fill="#A4CD38" cx="2080.27" cy="1362.89" r="6.5"/>
				<circle fill="#A4CD38" cx="2097.99" cy="1244.26" r="6.5"/>
				<circle fill="#A4CD38" cx="2042.34" cy="1143.61" r="6.5"/>
				<circle fill="#A4CD38" cx="1981.93" cy="1252.4" r="6.5"/>
				<g>
					<defs>
						<path id="SVGID_41_" d="M1888.6,1180.55l-11.18-4.35l0.36-0.93l11.18,4.35L1888.6,1180.55z M1866.24,1171.85l-11.18-4.35
							l0.36-0.93l11.18,4.35L1866.24,1171.85z M1843.87,1163.16l-11.18-4.35l0.36-0.93l11.18,4.35L1843.87,1163.16z M1821.5,1154.46
							l-11.18-4.35l0.36-0.93l11.18,4.35L1821.5,1154.46z M1799.13,1145.76l-11.18-4.35l0.36-0.93l11.19,4.35L1799.13,1145.76z
							 M1776.76,1137.06l-11.18-4.35l0.36-0.93l11.18,4.35L1776.76,1137.06z M1754.39,1128.37l-11.18-4.35l0.36-0.93l11.18,4.35
							L1754.39,1128.37z M1732.03,1119.67l-11.18-4.35l0.36-0.93l11.18,4.35L1732.03,1119.67z"/>
					</defs>
					<clipPath id="SVGID_42_">
						<use xlink:href="#SVGID_41_"  overflow="visible"/>
					</clipPath>
					
						<line id="_x2D_.elLine-" clip-path="url(#SVGID_42_)" fill="none" stroke="#012B48" stroke-width="3" stroke-dasharray="12" x1="1888.79" y1="1180.09" x2="1717.77" y2="1113.59"/>
				</g>
				<path fill="#A4CD38" d="M1956.68,1509.77l-83.55,15.72l-0.23,65.72l62.37-13.8l55.4-43.26c0,0-16.11-5.74-21.87-10.67
					C1963.04,1518.54,1956.68,1509.77,1956.68,1509.77z"/>
				<polygon fill="#A4CD38" points="1882.2,1295.52 1896.73,1321.41 1936.39,1331.72 				"/>
				<polygon fill="#A4CD38" points="1925.81,1222.87 1911.53,1250.76 1964.07,1265.9 				"/>
				<polygon fill="#A4CD38" points="1973.23,1143.61 1950.74,1179.19 1989.11,1183.49 				"/>
				<polygon fill="#A4CD38" points="2168.44,1336.4 2086.77,1362.89 2151.43,1372.44 				"/>
				<polygon fill="#A4CD38" points="2137.75,1281.92 2115.87,1327.21 2202.38,1290.01 				"/>
				<polygon fill="#A4CD38" points="2211.24,1459.13 2127.4,1427.26 2131.74,1470.69 				"/>
				<polygon fill="#A4CD38" points="2036.44,1600.2 2024.81,1538.43 1982.55,1602.69 				"/>
				<polygon fill="#A4CD38" points="1864.9,1470.26 1933.12,1420.88 1841.85,1431.29 				"/>
				<polygon fill="#A4CD38" points="1873.68,1525.63 1864.9,1470.26 1808.11,1469.41 				"/>
				<polyline fill="none" stroke="#012B48" points="2042.34,1143.61 1989.68,1183.1 2030.79,1190.64 2016.01,1247.87 
					1989.68,1183.74 1982.55,1250.76 1950.74,1179.19 1973.23,1143.61 1989.11,1183.49 				"/>
				<polyline fill="none" stroke="#012B48" points="2030.79,1190.67 2042.34,1143.18 2051.11,1226.41 2030.89,1192.12 				"/>
				<polyline fill="none" stroke="#012B48" stroke-dasharray="12" points="2042.34,1143.61 2097.18,1247.87 2051.11,1227.03 
					2058.79,1272.63 2097.14,1247.53 2137.75,1281.92 2061.05,1274.44 				"/>
				<polyline fill="none" stroke="#012B48" points="2108.7,1167.64 2097.99,1246.28 2156.9,1206.42 				"/>
				<polyline fill="none" stroke="#012B48" stroke-dasharray="12" points="2097.72,1247.53 2203.54,1289.27 2137.75,1281.92 
					2114.71,1327.87 2202.38,1290.01 2169.03,1335.77 2114.19,1327.92 2078.06,1316.72 				"/>
				<polyline fill="none" stroke="#012B48" points="2114.09,1328.59 2084.57,1362.36 2168.44,1336.4 2150.93,1372.75 
					2213.99,1349.27 2169.13,1335.94 				"/>
				<polyline fill="none" stroke="#012B48" points="2151.89,1372.75 2083.49,1362.67 2126.37,1427.26 2151.43,1372.44 				"/>
				<polyline fill="none" stroke="#012B48" stroke-dasharray="12" points="2215.24,1349.89 2127.4,1427.26 2211.24,1459.13 
					2131.69,1469.95 2126.37,1427.26 2081.35,1453.48 2131.74,1470.69 2119.15,1529.79 2080.27,1453.64 				"/>
				<polyline fill="none" stroke="#012B48" stroke-dasharray="12" points="2211.45,1459.85 2119.15,1529.79 2166.84,1566.08 
					2108.43,1571.83 2119.15,1529.79 2066.47,1502.32 2108.43,1571.83 2042.34,1640.53 2066.4,1501.88 				"/>
				<polyline fill="none" stroke="#012B48" points="2026.16,1535.22 2050.28,1589.76 2510.36,1599.97 2500.9,1535.22 
					1982.55,1602.69 2035.62,1599.97 				"/>
				<polyline fill="none" stroke="#012B48" stroke-dasharray="12" points="2036.44,1600.2 2041.22,1640.76 1981.55,1602.34 
					1989.8,1535.22 1935.31,1577.83 1972.43,1639.45 1981.48,1602.69 1935.31,1577.87 				"/>
				<polyline fill="none" stroke="#012B48" stroke-dasharray="12" points="1956.48,1509.46 1873.68,1525.63 1934.24,1420.62 
					1866,1470.53 1873.68,1525.63 1808.11,1469.41 1864.9,1470.26 1803.45,1435.95 1841.85,1431.29 1866,1470.53 				"/>
				<polyline fill="none" stroke="#012B48" stroke-dasharray="12" points="1842.19,1431.27 1933.12,1420.88 1882.46,1405.53 
					1841.85,1431.29 1800.5,1392.17 1882.65,1405.26 1845.43,1381.93 1801.08,1391.54 1845.16,1359.44 1844.89,1382.13 
					1933.12,1362.67 1882.75,1405.21 1933.12,1391.25 				"/>
				<polyline fill="none" stroke="#012B48" stroke-dasharray="12" points="1801.3,1355.87 1846.26,1359.39 1811.22,1298.56 
					1859.74,1342.71 1845.5,1359.39 1933.12,1362.67 1859.76,1342.94 1897.54,1320.5 1811.22,1298.56 1883.28,1295.81 
					1896.72,1320.15 1936.39,1331.72 				"/>
				<polyline fill="none" stroke="#012B48" points="1811.22,1298.56 1873.15,1253.65 1882.2,1295.52 1945.26,1293.62 
					1873.73,1252.4 1911.25,1250.76 1945.48,1293.55 				"/>
				<polyline fill="none" stroke="#012B48" stroke-dasharray="12" points="1836.38,1243.98 1873.89,1252.4 1888.49,1180.93 
					1911.53,1250.76 1925.81,1222.87 1888.79,1180.09 1930.45,1193.25 1926.36,1222.52 1964.07,1265.9 				"/>
				<polyline fill="none" stroke="#012B48" points="1938.7,1153.78 1950.74,1179.19 1930.18,1193.77 1982.62,1252.4 				"/>
				<polyline fill="none" stroke="#012B48" points="1873.13,1525.49 1873.13,1590.92 1935.27,1577.75 				"/>
				<g>
					<g>
						<path fill="none" stroke="#012B48" stroke-dasharray="12" d="M2008.35,1135.29c91.49,0,213.96,62.68,213.96,256.47
							c0,193.79-122.47,256.47-213.24,256.47c-90.77,0-213.24-62.68-213.24-256.47C1795.83,1197.97,1918.3,1135.29,2008.35,1135.29z
							 M2008.68,1531.93c70.23,0,71.52-88.82,71.52-139.77c0-49.57-1.29-139.77-70.15-139.77c-70.92,0-73.67,88.13-73.67,139.77
							C1936.39,1442.43,1939.14,1531.93,2008.68,1531.93z"/>
					</g>
				</g>
				<g>
					<g>
						<path fill="none" stroke="#012B48" d="M2008.15,1129.6c93.44,0,218.52,64.01,218.52,261.93
							c0,197.92-125.08,261.93-217.79,261.93c-92.71,0-217.79-64.01-217.79-261.93C1791.09,1193.61,1916.17,1129.6,2008.15,1129.6z
							 M2008.61,1527.64c68.07,0,69.33-86.09,69.33-135.48c0-48.05-1.25-135.48-67.99-135.48c-68.74,0-71.41,85.43-71.41,135.48
							C1938.54,1440.88,1941.21,1527.64,2008.61,1527.64z"/>
					</g>
				</g>
				<circle id="_x2D_.elCircle-_10_" fill="none" stroke="#012B48" cx="2040.95" cy="1140.72" r="23.5"/>
				<circle id="_x2D_.elCircle-_9_" fill="none" stroke="#012B48" cx="1841.85" cy="1359.44" r="23.5"/>
				<circle id="_x2D_.elCircle-_8_" fill="none" stroke="#012B48" cx="2124.87" cy="1529.79" r="23.5"/>
				<circle id="_x2D_.elCircle-_7_" fill="none" stroke="#012B48" cx="1969.3" cy="1644.77" r="23.5"/>
				<circle id="_x2D_.elCircle-_6_" fill="none" stroke="#012B48" cx="2083.49" cy="1359.44" r="23.5"/>
				<circle id="_x2D_.elCircle-_5_" fill="none" stroke="#012B48" cx="2156.9" cy="1203.09" r="23.5"/>
				<g>
					<defs>
						<path id="SVGID_43_" d="M2168.02,1942.62l-0.43-0.67l0.84-0.54l0.43,0.67L2168.02,1942.62z M2161.07,1931.89l-6.52-10.07
							l0.84-0.54l6.52,10.07L2161.07,1931.89z M2148.03,1911.74l-6.52-10.07l0.84-0.54l6.52,10.07L2148.03,1911.74z
							 M2134.99,1891.59l-6.52-10.07l0.84-0.54l6.52,10.07L2134.99,1891.59z M2121.95,1871.44l-6.52-10.07l0.84-0.54l6.52,10.07
							L2121.95,1871.44z M2108.92,1851.29l-6.52-10.08l0.84-0.54l6.52,10.08L2108.92,1851.29z M2095.88,1831.14l-6.52-10.08
							l0.84-0.54l6.52,10.08L2095.88,1831.14z M2082.84,1810.99l-6.52-10.07l0.84-0.54l6.52,10.07L2082.84,1810.99z M2069.8,1790.84
							l-6.52-10.07l0.84-0.54l6.52,10.07L2069.8,1790.84z M2056.76,1770.69l-6.52-10.07l0.84-0.54l6.52,10.07L2056.76,1770.69z
							 M2043.72,1750.54l-6.52-10.08l0.84-0.54l6.52,10.08L2043.72,1750.54z M2030.68,1730.39l-6.52-10.08l0.84-0.54l6.52,10.08
							L2030.68,1730.39z M2017.64,1710.24l-6.52-10.08l0.84-0.54l6.52,10.08L2017.64,1710.24z M2004.61,1690.09l-6.52-10.07
							l0.84-0.54l6.52,10.07L2004.61,1690.09z M1991.57,1669.94l-6.52-10.07l0.84-0.54l6.52,10.07L1991.57,1669.94z M1978.53,1649.8
							l-6.52-10.07l0.84-0.54l6.52,10.07L1978.53,1649.8z"/>
					</defs>
					<clipPath id="SVGID_44_">
						<use xlink:href="#SVGID_43_"  overflow="visible"/>
					</clipPath>
					<g clip-path="url(#SVGID_44_)">
						
							<line id="_x2D_.elLine-_42_" fill="none" stroke="#012B48" stroke-width="3" stroke-dasharray="12" x1="1972.43" y1="1639.45" x2="2168.44" y2="1942.35"/>
					</g>
				</g>
				<g>
					<defs>
						<path id="SVGID_45_" d="M1852.38,1880l-0.9-0.45l5.34-10.75l0.9,0.45L1852.38,1880z M1863.06,1858.51l-0.9-0.45l5.34-10.75
							l0.9,0.45L1863.06,1858.51z M1873.74,1837.01l-0.9-0.45l5.34-10.75l0.9,0.45L1873.74,1837.01z M1884.42,1815.52l-0.9-0.45
							l5.34-10.75l0.9,0.45L1884.42,1815.52z M1895.1,1794.03l-0.9-0.45l5.34-10.75l0.9,0.45L1895.1,1794.03z M1905.78,1772.53
							l-0.9-0.45l5.34-10.75l0.9,0.45L1905.78,1772.53z M1916.46,1751.04l-0.9-0.45l5.34-10.75l0.9,0.45L1916.46,1751.04z
							 M1927.14,1729.55l-0.9-0.45l5.34-10.75l0.9,0.45L1927.14,1729.55z M1937.82,1708.06l-0.89-0.45l5.34-10.75l0.9,0.45
							L1937.82,1708.06z M1948.5,1686.56l-0.9-0.45l5.34-10.75l0.9,0.45L1948.5,1686.56z M1959.18,1665.07l-0.9-0.45l5.34-10.75
							l0.9,0.45L1959.18,1665.07z"/>
					</defs>
					<clipPath id="SVGID_46_">
						<use xlink:href="#SVGID_45_"  overflow="visible"/>
					</clipPath>
					<g clip-path="url(#SVGID_46_)">
						
							<line id="_x2D_.elLine-_41_" fill="none" stroke="#012B48" stroke-width="3" stroke-dasharray="12" x1="1964.07" y1="1654.1" x2="1849.38" y2="1884.91"/>
					</g>
				</g>
				<g>
					<defs>
						<path id="SVGID_47_" d="M1889.61,1179.9l-0.98-0.21l2.47-11.74l0.98,0.21L1889.61,1179.9z M1894.55,1156.41l-0.98-0.21
							l2.47-11.74l0.98,0.21L1894.55,1156.41z M1899.48,1132.92l-0.98-0.21l2.47-11.74l0.98,0.21L1899.48,1132.92z M1904.42,1109.43
							l-0.98-0.21l2.47-11.74l0.98,0.21L1904.42,1109.43z M1909.35,1085.95l-0.98-0.21l2.47-11.74l0.98,0.21L1909.35,1085.95z
							 M1914.29,1062.46l-0.98-0.21l2.47-11.74l0.98,0.21L1914.29,1062.46z M1919.22,1038.97l-0.98-0.21l2.47-11.74l0.98,0.21
							L1919.22,1038.97z M1924.16,1015.48l-0.98-0.21l1.26-6l0.98,0.21L1924.16,1015.48z"/>
					</defs>
					<clipPath id="SVGID_48_">
						<use xlink:href="#SVGID_47_"  overflow="visible"/>
					</clipPath>
					<g clip-path="url(#SVGID_48_)">
						
							<line id="_x2D_.elLine-_40_" fill="none" stroke="#012B48" stroke-width="3" stroke-dasharray="12" x1="1889.12" y1="1179.79" x2="1924.93" y2="1009.38"/>
					</g>
				</g>
				<g>
					<defs>
						<path id="SVGID_49_" d="M2041.87,1137.3l-4.4-11.16l0.93-0.37l4.4,11.16L2041.87,1137.3z M2033.07,1114.97l-4.4-11.16
							l0.93-0.37l4.4,11.16L2033.07,1114.97z M2024.26,1092.64l-4.4-11.16l0.93-0.37l4.4,11.16L2024.26,1092.64z M2015.46,1070.32
							l-4.4-11.16l0.93-0.37l4.4,11.16L2015.46,1070.32z M2006.65,1047.99l-4.4-11.16l0.93-0.37l4.4,11.16L2006.65,1047.99z
							 M1997.85,1025.66l-4.4-11.16l0.93-0.37l4.4,11.16L1997.85,1025.66z M1989.04,1003.34l-4.4-11.16l0.93-0.37l4.4,11.16
							L1989.04,1003.34z M1980.24,981.01l-4.4-11.16l0.93-0.37l4.4,11.16L1980.24,981.01z M1971.43,958.68l-1.97-5l0.93-0.37l1.97,5
							L1971.43,958.68z"/>
					</defs>
					<clipPath id="SVGID_50_">
						<use xlink:href="#SVGID_49_"  overflow="visible"/>
					</clipPath>
					<g clip-path="url(#SVGID_50_)">
						
							<line id="_x2D_.elLine-_39_" fill="none" stroke="#012B48" stroke-width="3" stroke-dasharray="12" x1="2042.34" y1="1137.11" x2="1969.93" y2="953.5"/>
					</g>
				</g>
				<g>
					<defs>
						<path id="SVGID_51_" d="M2275.19,1734.36l-11.15-4.44l0.37-0.93l11.15,4.44L2275.19,1734.36z M2252.89,1725.49l-11.15-4.44
							l0.37-0.93l11.15,4.44L2252.89,1725.49z M2230.59,1716.62l-11.15-4.44l0.37-0.93l11.15,4.44L2230.59,1716.62z
							 M2208.29,1707.75l-11.15-4.44l0.37-0.93l11.15,4.44L2208.29,1707.75z M2185.99,1698.88l-11.15-4.43l0.37-0.93l11.15,4.43
							L2185.99,1698.88z M2163.68,1690.01l-11.15-4.44l0.37-0.93l11.15,4.44L2163.68,1690.01z M2141.38,1681.14l-11.15-4.44
							l0.37-0.93l11.15,4.44L2141.38,1681.14z M2119.08,1672.27l-11.15-4.44l0.37-0.93l11.15,4.44L2119.08,1672.27z M2096.78,1663.4
							l-11.15-4.44l0.37-0.93l11.15,4.44L2096.78,1663.4z M2074.48,1654.53l-11.15-4.43l0.37-0.93l11.15,4.43L2074.48,1654.53z
							 M2052.18,1645.66l-11.15-4.44l0.37-0.93l11.15,4.44L2052.18,1645.66z"/>
					</defs>
					<clipPath id="SVGID_52_">
						<use xlink:href="#SVGID_51_"  overflow="visible"/>
					</clipPath>
					<g clip-path="url(#SVGID_52_)">
						
							<line id="_x2D_.elLine-_38_" fill="none" stroke="#012B48" stroke-width="3" stroke-dasharray="12" x1="2041.22" y1="1640.76" x2="2285.29" y2="1737.84"/>
					</g>
				</g>
				<g>
					<defs>
						<path id="SVGID_53_" d="M1823.23,1844.68l-0.68-0.73l7.68-7.16l0.68,0.73L1823.23,1844.68z M1839.69,1829.34l-0.68-0.73
							l8.78-8.18l0.68,0.73L1839.69,1829.34z M1857.24,1812.97l-0.68-0.73l8.78-8.18l0.68,0.73L1857.24,1812.97z M1874.8,1796.6
							l-0.68-0.73l8.78-8.18l0.68,0.73L1874.8,1796.6z M1892.35,1780.24l-0.68-0.73l8.78-8.18l0.68,0.73L1892.35,1780.24z
							 M1909.9,1763.87l-0.68-0.73l8.78-8.18l0.68,0.73L1909.9,1763.87z M1927.46,1747.5l-0.68-0.73l8.78-8.18l0.68,0.73
							L1927.46,1747.5z M1945.01,1731.14l-0.68-0.73l8.78-8.18l0.68,0.73L1945.01,1731.14z M1962.57,1714.77l-0.68-0.73l8.78-8.18
							l0.68,0.73L1962.57,1714.77z M1980.12,1698.4l-0.68-0.73l8.78-8.18l0.68,0.73L1980.12,1698.4z M1997.67,1682.04l-0.68-0.73
							l8.78-8.18l0.68,0.73L1997.67,1682.04z M2015.23,1665.67l-0.68-0.73l8.78-8.18l0.68,0.73L2015.23,1665.67z M2032.78,1649.31
							l-0.68-0.73l8.78-8.18l0.68,0.73L2032.78,1649.31z"/>
					</defs>
					<clipPath id="SVGID_54_">
						<use xlink:href="#SVGID_53_"  overflow="visible"/>
					</clipPath>
					<g clip-path="url(#SVGID_54_)">
						
							<line id="_x2D_.elLine-_37_" fill="none" stroke="#012B48" stroke-width="3" stroke-dasharray="12" x1="2041.22" y1="1640.76" x2="1822.89" y2="1844.31"/>
					</g>
				</g>
				<g>
					<defs>
						<path id="SVGID_55_" d="M2162.55,1200.89l-0.53-0.85l10.16-6.39l0.53,0.85L2162.55,1200.89z M2182.86,1188.11l-0.53-0.85
							l10.16-6.39l0.53,0.85L2182.86,1188.11z M2203.18,1175.32l-0.53-0.85l10.16-6.39l0.53,0.85L2203.18,1175.32z M2223.49,1162.54
							l-0.53-0.85l10.16-6.39l0.53,0.85L2223.49,1162.54z M2243.8,1149.76l-0.53-0.85l10.16-6.39l0.53,0.85L2243.8,1149.76z
							 M2264.12,1136.98l-0.53-0.85l10.16-6.39l0.53,0.85L2264.12,1136.98z M2284.43,1124.2l-0.53-0.85l10.16-6.39l0.53,0.85
							L2284.43,1124.2z M2304.74,1111.42l-0.53-0.85l10.16-6.39l0.53,0.85L2304.74,1111.42z M2325.05,1098.63l-0.53-0.85l10.16-6.39
							l0.53,0.85L2325.05,1098.63z M2345.37,1085.85l-0.53-0.85l0.29-0.18l0.53,0.85L2345.37,1085.85z"/>
					</defs>
					<clipPath id="SVGID_56_">
						<use xlink:href="#SVGID_55_"  overflow="visible"/>
					</clipPath>
					<g clip-path="url(#SVGID_56_)">
						
							<line id="_x2D_.elLine-_36_" fill="none" stroke="#012B48" stroke-width="3" stroke-dasharray="12" x1="2162.28" y1="1200.46" x2="2345.39" y2="1085.25"/>
					</g>
				</g>
				<rect x="176.18" y="-514.29" fill="none" width="3840" height="2160"/>
			</g>
		</g>
		<g>
			<g>
				<circle fill="#A4CD38" cx="1347.26" cy="1644.8" r="6.5"/>
				<circle fill="#A4CD38" cx="1421.62" cy="1598.98" r="6.5"/>
				<circle fill="#A4CD38" cx="1546.77" cy="1526.4" r="6.5"/>
				<circle fill="#A4CD38" cx="1600.06" cy="1581.98" r="6.5"/>
				<circle fill="#A4CD38" cx="1610.48" cy="1605.48" r="6.5"/>
				<circle fill="#A4CD38" cx="1672.66" cy="1606.16" r="6.5"/>
				<circle fill="#A4CD38" cx="1771.57" cy="1525.44" r="6.5"/>
				<circle fill="#A4CD38" cx="1716.78" cy="1423.4" r="6.5"/>
				<circle fill="#A4CD38" cx="1553.27" cy="1390.8" r="6.5"/>
				<circle fill="#A4CD38" cx="1674.1" cy="1363.7" r="6.5"/>
				<circle fill="#A4CD38" cx="1680.6" cy="1258.07" r="6.5"/>
				<circle fill="#A4CD38" cx="1652.65" cy="1225.15" r="6.5"/>
				<circle fill="#A4CD38" cx="1592.06" cy="1146.04" r="6.5"/>
				<circle fill="#A4CD38" cx="1428.73" cy="1229.03" r="6.5"/>
				<circle fill="#A4CD38" cx="1476.11" cy="1343.09" r="6.5"/>
				<circle fill="#A4CD38" cx="1356.22" cy="1360.76" r="6.5"/>
				<circle fill="#A4CD38" cx="1364.49" cy="1555.29" r="6.5"/>
				<g>
					
						<text transform="matrix(1 0 0 1 1321.5879 1645.5878)" fill="none" stroke="#012B48" font-family="'HelveticaNeueLTStd-Blk'" font-size="706.7555px">2</text>
				</g>
				<g>
					<g>
						<path fill="none" stroke="#012B48" stroke-dasharray="12" d="M1352.82,1364.15c-10.67-143.95,83.73-221.54,213.88-221.45
							c122.53,0.08,205.91,61.05,203.76,158.78c-3.08,139.9-148.93,178.96-211.46,220.86c22.67-1.7,218.71,0,218.71,0v126.48
							h-435.04c-2.9-48.58,6.23-86.33,30.88-120.41c42.05-58.73,110.72-99.35,179.08-139.53c26.1-15.95,67.69-33.03,67.08-70
							c-0.58-35.08-20.38-56.96-54.46-57.33c-53.68-0.58-75.43,40.98-73.98,102.6H1352.82z"/>
					</g>
				</g>
				<g>
					<g>
						<path fill="none" stroke="#012B48" stroke-dasharray="12" d="M1349.15,1368.13c-10.76-145.2,78.98-229.82,215.73-229.82
							c123.59,0,210.79,61.73,209.82,163.37c-1.32,138.58-160.59,191.2-203.63,217.4c22.87-1.71,209.86,0,209.86,0v134.02h-442.02
							c-2.92-49,4.14-88.16,29-122.53c44.3-66.61,117.69-105.54,182.77-145.03c26.33-16.09,65.51-29.02,65.51-66.31
							c0-46.07-31.57-53.18-52.78-54.6c-43.84-2.93-72.35,38.23-69.24,103.5H1349.15z"/>
					</g>
				</g>
				<path fill="#A4CD38" d="M1461.3,1450.42c0,0-37.7,27-46.78,36.25c-9.46,9.64-32.92,36.63-32.92,36.63l93.89,38.08
					L1461.3,1450.42z"/>
				<polygon fill="#A4CD38" points="1682.6,1258.57 1622.57,1297.99 1696.04,1320.41 				"/>
				<polygon fill="#A4CD38" points="1584.56,1190.99 1528.8,1210.88 1572.59,1259.14 				"/>
				<polygon fill="#A4CD38" points="1391.64,1296.27 1357.68,1331.37 1407.67,1322.23 				"/>
				<polygon fill="#A4CD38" points="1404.67,1322.23 1358.72,1359.76 1476.11,1343.09 				"/>
				<polygon fill="#A4CD38" points="1659.39,1408.71 1611.56,1406.38 1647.78,1467.4 				"/>
				<polygon fill="#A4CD38" points="1540.25,1609.38 1530.49,1643.73 1622.98,1644.76 				"/>
				<polygon fill="#A4CD38" points="1673.66,1526.4 1713.59,1574.62 1771.57,1526.44 				"/>
				<polyline fill="none" stroke="#012B48" points="1356.22,1360.76 1478.3,1342.89 1487.03,1359.28 				"/>
				<polyline fill="none" stroke="#012B48" points="1356.22,1360.76 1405.9,1321.5 1478.3,1342.89 1441,1318.21 1492.89,1314.71 
									"/>
				<polyline fill="none" stroke="#012B48" points="1391.64,1296.27 1441.46,1318.14 1406.4,1321.98 1391.64,1295.84 
					1357.68,1331.37 1406.01,1321.55 				"/>
				<polyline fill="none" stroke="#012B48" points="1441.46,1317.9 1454.17,1280.43 1496.1,1304.82 1429.96,1228.4 1414.13,1263.91 
					1369.37,1269.85 				"/>
				<path fill="none" stroke="#012B48" d="M1454.17,1275.98"/>
				<line fill="none" stroke="#012B48" x1="1454.12" y1="1280.67" x2="1428.29" y2="1229.03"/>
				<line fill="none" stroke="#012B48" x1="1428.29" y1="1229.03" x2="1381.6" y2="1240.78"/>
				<polyline fill="none" stroke="#012B48" stroke-dasharray="12" points="1513.9,1274.22 1429.74,1227.71 1473.91,1229.03 
					1513.9,1274.22 1528.21,1211.81 1473.91,1229.03 1434.97,1183.86 1429.74,1227.71 1367.53,1270.52 1390.54,1294.6 
					1414.13,1263.91 1454.17,1280.37 1391.73,1295.68 				"/>
				<polyline fill="none" stroke="#012B48" points="1436.55,1182.33 1527.62,1210.66 1509.01,1153.12 1562.17,1177.6 
					1528.26,1209.59 1585.8,1190.97 1562.76,1177.25 1592.38,1148.04 1585.25,1190.3 1655.46,1224.97 1592.38,1148.04 				"/>
				<polyline fill="none" stroke="#012B48" points="1538.73,1261.7 1528.8,1211.88 1572.59,1259.14 1584.56,1190.99 				"/>
				<polyline fill="none" stroke="#012B48" stroke-dasharray="12" points="1572.59,1259.14 1654.31,1226.25 1612.13,1275.98 
					1673.6,1260.3 1682.33,1258.07 1655.46,1225.18 1695.5,1178.35 1681.78,1257 1731.14,1207.42 				"/>
				<polyline fill="none" stroke="#012B48" points="1622.57,1297.99 1682.19,1258.15 1696.04,1320.41 1761.27,1263.96 
					1682.95,1258.07 				"/>
				<polyline fill="none" stroke="#012B48" points="1621.53,1297.67 1696.21,1320.41 1622.64,1320.41 				"/>
				<polyline fill="none" stroke="#012B48" stroke-dasharray="12" points="1763.41,1317.9 1696.04,1320.41 1750.85,1371.96 
					1622.62,1329.23 1675.75,1363.19 1749.14,1372.57 				"/>
				<polyline fill="none" stroke="#012B48" points="1676.8,1363.28 1615.42,1346.82 1659.39,1408.71 1676.8,1364.35 
					1713.59,1420.23 1659.14,1409.28 1647.78,1467.4 1610.48,1405.42 1660.83,1409.26 				"/>
				<polyline fill="none" stroke="#012B48" stroke-dasharray="12" points="1614.85,1348.01 1611.56,1406.38 1556.25,1392.28 
					1646.09,1468.47 1573.73,1445.46 1555.61,1392.3 1532.6,1461.36 1574.76,1445.57 1549.87,1525.44 1532.6,1462.03 
					1465.66,1484.52 1461.3,1451.49 1532.51,1461.34 				"/>
				<polyline fill="none" stroke="#012B48" stroke-dasharray="12" points="1549.49,1523.84 1465.73,1484.52 1476.11,1561.19 
					1549.53,1526.13 1547.38,1548.02 1567.68,1545.26 1550.47,1526.15 1575.97,1542.54 1671.91,1525.44 1616.51,1568.32 
					1674.1,1606.16 1671.89,1527.29 				"/>
				<polyline fill="none" stroke="#012B48" points="1546.77,1548.57 1476.11,1561.19 1540.25,1609.38 1601.16,1581.48 
					1567.77,1545.35 1577.48,1543.19 1616.93,1568.84 				"/>
				<line fill="none" stroke="#012B48" x1="1546.77" y1="1548.57" x2="1540.25" y2="1609.38"/>
				<polyline fill="none" stroke="#012B48" points="1616.17,1568.77 1601.5,1581.12 1674.01,1606.16 1610.48,1606.16 
					1601.43,1582.76 				"/>
				<polyline fill="none" stroke="#012B48" points="1610.48,1606.16 1540.29,1609.38 1625.84,1645.59 1611.25,1608.15 				"/>
				<polyline fill="none" stroke="#012B48" points="1628.58,1643.87 1673.26,1606.16 1771.57,1643.87 1713.59,1574.62 
					1770.5,1528.55 				"/>
				<polyline fill="none" stroke="#012B48" points="1672.66,1526.4 1713.41,1574.71 1674.81,1605.15 				"/>
				<polyline fill="none" stroke="#012B48" points="1476.11,1561.48 1463.22,1624.9 1423.02,1598.89 1475.49,1561.37 
					1402.34,1558.58 1381.36,1526.4 				"/>
				<polyline fill="none" stroke="#012B48" points="1401.19,1558.99 1364.49,1555.29 1381.77,1578.98 1403.41,1558.49 
					1423.02,1598.98 1382.5,1578.81 1378.89,1596.84 1421.76,1598.89 				"/>
				<polyline fill="none" stroke="#012B48" stroke-dasharray="12" points="1351.24,1595.19 1378.41,1597.34 1361.86,1613.86 
					1347.62,1627.7 1358.37,1627.7 1362.34,1614.11 1422.01,1599.88 				"/>
				<polyline fill="none" stroke="#012B48" stroke-dasharray="12" points="1362.34,1614.11 1462.6,1624.9 1358.37,1627.7 
					1347.51,1644.95 1462.6,1624.9 				"/>
				<line fill="none" stroke="#012B48" x1="1383.74" y1="1524.37" x2="1473.91" y2="1561.19"/>
				<line fill="none" stroke="#012B48" x1="1478.22" y1="1342.03" x2="1490.32" y2="1315.42"/>
				<polygon fill="none" stroke="#012B48" stroke-dasharray="12" points="1463.22,1624.9 1540.25,1609.38 1529.28,1647 				"/>
				<circle id="_x2D_.elCircle-_4_" fill="none" stroke="#012B48" cx="1592.42" cy="1147.77" r="23.5"/>
				<circle id="_x2D_.elCircle-_3_" fill="none" stroke="#012B48" cx="1653.46" cy="1225.53" r="23.5"/>
				<circle id="_x2D_.elCircle-_2_" fill="none" stroke="#012B48" cx="1553.69" cy="1390.8" r="23.5"/>
				<circle id="_x2D_.elCircle-_1_" fill="none" stroke="#012B48" cx="1599.43" cy="1581.79" r="23.5"/>
				<circle id="_x2D_.elCircle-" fill="none" stroke="#012B48" cx="1349.72" cy="1639.09" r="23.5"/>
				<g>
					<defs>
						<path id="SVGID_57_" d="M1351.59,1653.61h-12v-1h12V1653.61z M1327.59,1653.61h-12v-1h12V1653.61z M1303.59,1653.61h-12v-1h12
							V1653.61z M1279.59,1653.61h-12v-1h12V1653.61z M1255.59,1653.61h-12v-1h12V1653.61z M1231.59,1653.61h-12v-1h12V1653.61z
							 M1207.59,1653.61h-12v-1h12V1653.61z M1183.59,1653.61h-12v-1h12V1653.61z M1159.59,1653.61h-12v-1h12V1653.61z
							 M1135.59,1653.61h-12v-1h12V1653.61z M1111.59,1653.61h-12v-1h12V1653.61z M1087.59,1653.61h-12v-1h12V1653.61z
							 M1063.59,1653.61h-12v-1h12V1653.61z M1039.59,1653.61h-12v-1h12V1653.61z M1015.59,1653.61h-12v-1h12V1653.61z
							 M991.59,1653.61h-12v-1h12V1653.61z M967.59,1653.61h-12v-1h12V1653.61z M943.59,1653.61h-12v-1h12V1653.61z M919.59,1653.61
							h-12v-1h12V1653.61z M895.59,1653.61h-12v-1h12V1653.61z M871.59,1653.61h-12v-1h12V1653.61z M847.59,1653.61h-12v-1h12
							V1653.61z M823.59,1653.61h-12v-1h12V1653.61z M799.59,1653.61h-12v-1h12V1653.61z M775.59,1653.61h-12v-1h12V1653.61z
							 M751.59,1653.61h-12v-1h12V1653.61z M727.59,1653.61h-5.79v-1h5.79V1653.61z"/>
					</defs>
					<clipPath id="SVGID_58_">
						<use xlink:href="#SVGID_57_"  overflow="visible"/>
					</clipPath>
					<g clip-path="url(#SVGID_58_)">
						
							<line id="_x2D_.elLine-_45_" fill="none" stroke="#012B48" stroke-width="3" stroke-dasharray="12" x1="1351.59" y1="1653.11" x2="721.8" y2="1653.11"/>
					</g>
				</g>
				<g>
					<defs>
						<path id="SVGID_59_" d="M1781.43,1520.59h-1v-12h1V1520.59z M1781.43,1496.59h-1v-12h1V1496.59z M1781.43,1472.59h-1v-12h1
							V1472.59z M1781.43,1448.59h-1v-12h1V1448.59z M1781.43,1424.59h-1v-12h1V1424.59z"/>
					</defs>
					<clipPath id="SVGID_60_">
						<use xlink:href="#SVGID_59_"  overflow="visible"/>
					</clipPath>
					<g clip-path="url(#SVGID_60_)">
						
							<line id="_x2D_.elLine-_19_" fill="none" stroke="#012B48" stroke-width="3" stroke-dasharray="12" x1="1780.93" y1="1520.59" x2="1780.93" y2="1404.18"/>
					</g>
				</g>
				<g>
					<defs>
						<path id="SVGID_61_" d="M1043.16,1498.13l-0.57-0.82l9.82-6.89l0.57,0.82L1043.16,1498.13z M1062.8,1484.34l-0.57-0.82
							l9.82-6.89l0.57,0.82L1062.8,1484.34z M1082.45,1470.55l-0.57-0.82l9.82-6.89l0.57,0.82L1082.45,1470.55z M1102.09,1456.77
							l-0.57-0.82l9.82-6.89l0.57,0.82L1102.09,1456.77z M1121.74,1442.98l-0.57-0.82l9.82-6.89l0.57,0.82L1121.74,1442.98z
							 M1141.38,1429.19l-0.57-0.82l9.82-6.89l0.57,0.82L1141.38,1429.19z M1161.02,1415.4l-0.57-0.82l9.82-6.89l0.57,0.82
							L1161.02,1415.4z M1180.67,1401.61l-0.57-0.82l9.82-6.89l0.57,0.82L1180.67,1401.61z M1200.31,1387.82l-0.57-0.82l9.82-6.89
							l0.57,0.82L1200.31,1387.82z M1219.95,1374.03l-0.57-0.82l9.82-6.89l0.57,0.82L1219.95,1374.03z M1239.6,1360.24l-0.57-0.82
							l9.82-6.89l0.57,0.82L1239.6,1360.24z M1259.24,1346.46l-0.57-0.82l9.82-6.89l0.57,0.82L1259.24,1346.46z M1278.88,1332.67
							l-0.57-0.82l9.82-6.89l0.57,0.82L1278.88,1332.67z M1298.53,1318.88l-0.57-0.82l9.82-6.89l0.57,0.82L1298.53,1318.88z
							 M1318.17,1305.09l-0.57-0.82l9.82-6.89l0.57,0.82L1318.17,1305.09z M1337.82,1291.3l-0.57-0.82l9.82-6.89l0.57,0.82
							L1337.82,1291.3z M1357.46,1277.51l-0.57-0.82l9.82-6.89l0.57,0.82L1357.46,1277.51z"/>
					</defs>
					<clipPath id="SVGID_62_">
						<use xlink:href="#SVGID_61_"  overflow="visible"/>
					</clipPath>
					<g clip-path="url(#SVGID_62_)">
						
							<line id="_x2D_.elLine-_18_" fill="none" stroke="#012B48" stroke-width="3" stroke-dasharray="12" x1="1366.99" y1="1270.21" x2="1037.37" y2="1501.58"/>
					</g>
				</g>
				<g>
					<defs>
						<path id="SVGID_63_" d="M1697.92,1175.03l-0.99-0.15l1.77-11.87l0.99,0.15L1697.92,1175.03z M1701.47,1151.29l-0.99-0.15
							l1.77-11.87l0.99,0.15L1701.47,1151.29z M1705.02,1127.56l-0.99-0.15l1.77-11.87l0.99,0.15L1705.02,1127.56z M1708.57,1103.82
							l-0.99-0.15l1.77-11.87l0.99,0.15L1708.57,1103.82z M1712.12,1080.09l-0.99-0.15l1.77-11.87l0.99,0.15L1712.12,1080.09z
							 M1715.67,1056.35l-0.99-0.15l1.77-11.87l0.99,0.15L1715.67,1056.35z M1719.22,1032.61l-0.99-0.15l1.77-11.87l0.99,0.15
							L1719.22,1032.61z M1722.77,1008.88l-0.99-0.15l1.77-11.87l0.99,0.15L1722.77,1008.88z M1726.32,985.14l-0.99-0.15l1.77-11.87
							l0.99,0.15L1726.32,985.14z M1729.87,961.41l-0.99-0.15l1.77-11.83l0.99,0.15L1729.87,961.41z"/>
					</defs>
					<clipPath id="SVGID_64_">
						<use xlink:href="#SVGID_63_"  overflow="visible"/>
					</clipPath>
					<g clip-path="url(#SVGID_64_)">
						
							<line id="_x2D_.elLine-_17_" fill="none" stroke="#012B48" stroke-width="3" stroke-dasharray="12" x1="1697.43" y1="1174.96" x2="1731.14" y2="949.5"/>
					</g>
				</g>
				<g>
					<defs>
						<path id="SVGID_65_" d="M1701.56,1171.88l-0.73-0.68l8.19-8.77l0.73,0.68L1701.56,1171.88z M1717.95,1154.34l-0.73-0.68
							l8.19-8.77l0.73,0.68L1717.95,1154.34z M1734.33,1136.81l-0.73-0.68l8.19-8.77l0.73,0.68L1734.33,1136.81z M1750.71,1119.27
							l-0.73-0.68l8.19-8.77l0.73,0.68L1750.71,1119.27z M1767.1,1101.73l-0.73-0.68l8.19-8.77l0.73,0.68L1767.1,1101.73z
							 M1783.48,1084.19l-0.73-0.68l8.19-8.77l0.73,0.68L1783.48,1084.19z M1799.86,1066.65l-0.73-0.68l8.19-8.77l0.73,0.68
							L1799.86,1066.65z M1816.25,1049.12l-0.73-0.68l5.61-6l0.73,0.68L1816.25,1049.12z"/>
					</defs>
					<clipPath id="SVGID_66_">
						<use xlink:href="#SVGID_65_"  overflow="visible"/>
					</clipPath>
					<g clip-path="url(#SVGID_66_)">
						
							<line id="_x2D_.elLine-_16_" fill="none" stroke="#012B48" stroke-width="3" stroke-dasharray="12" x1="1701.2" y1="1171.54" x2="1821.49" y2="1042.77"/>
					</g>
				</g>
				<g>
					<defs>
						<path id="SVGID_67_" d="M2306.83,1872.37l-11.53-3.33l0.28-0.96l11.53,3.33L2306.83,1872.37z M2283.77,1865.72l-11.53-3.33
							l0.28-0.96l11.53,3.33L2283.77,1865.72z M2260.71,1859.06l-11.53-3.33l0.28-0.96l11.53,3.33L2260.71,1859.06z
							 M2237.65,1852.41l-11.53-3.33l0.28-0.96l11.53,3.33L2237.65,1852.41z M2214.59,1845.76l-11.53-3.33l0.28-0.96l11.53,3.33
							L2214.59,1845.76z M2191.53,1839.1l-11.53-3.33l0.28-0.96l11.53,3.33L2191.53,1839.1z M2168.47,1832.45l-11.53-3.33l0.28-0.96
							l11.53,3.33L2168.47,1832.45z M2145.41,1825.8l-11.53-3.33l0.28-0.96l11.53,3.33L2145.41,1825.8z M2122.35,1819.14
							l-11.53-3.33l0.28-0.96l11.53,3.33L2122.35,1819.14z M2099.29,1812.49l-11.53-3.33l0.28-0.96l11.53,3.33L2099.29,1812.49z
							 M2076.24,1805.83l-11.53-3.33l0.28-0.96l11.53,3.33L2076.24,1805.83z M2053.18,1799.18l-11.53-3.33l0.28-0.96l11.53,3.33
							L2053.18,1799.18z M2030.12,1792.53l-11.53-3.33l0.28-0.96l11.53,3.33L2030.12,1792.53z M2007.06,1785.87l-11.53-3.33
							l0.28-0.96l11.53,3.33L2007.06,1785.87z M1984,1779.22l-11.53-3.33l0.28-0.96l11.53,3.33L1984,1779.22z M1960.94,1772.57
							l-11.53-3.33l0.28-0.96l11.53,3.33L1960.94,1772.57z M1937.88,1765.91l-11.53-3.33l0.28-0.96l11.53,3.33L1937.88,1765.91z
							 M1914.82,1759.26l-11.53-3.33l0.28-0.96l11.53,3.33L1914.82,1759.26z M1891.76,1752.61l-11.53-3.33l0.28-0.96l11.53,3.33
							L1891.76,1752.61z M1868.7,1745.95l-11.53-3.33l0.28-0.96l11.53,3.33L1868.7,1745.95z M1845.64,1739.3l-11.53-3.33l0.28-0.96
							l11.53,3.33L1845.64,1739.3z M1822.58,1732.65l-11.53-3.33l0.28-0.96l11.53,3.33L1822.58,1732.65z M1799.52,1725.99
							l-11.53-3.33l0.28-0.96l11.53,3.33L1799.52,1725.99z M1776.46,1719.34l-11.53-3.33l0.28-0.96l11.53,3.33L1776.46,1719.34z
							 M1753.41,1712.69l-11.53-3.33l0.28-0.96l11.53,3.33L1753.41,1712.69z M1730.35,1706.03l-11.53-3.33l0.28-0.96l11.53,3.33
							L1730.35,1706.03z M1707.29,1699.38l-11.53-3.33l0.28-0.96l11.53,3.33L1707.29,1699.38z M1684.23,1692.72l-11.53-3.33
							l0.28-0.96l11.53,3.33L1684.23,1692.72z M1661.17,1686.07l-11.53-3.33l0.28-0.96l11.53,3.33L1661.17,1686.07z
							 M1638.11,1679.42l-11.53-3.33l0.28-0.96l11.53,3.33L1638.11,1679.42z M1615.05,1672.76l-11.53-3.33l0.28-0.96l11.53,3.33
							L1615.05,1672.76z M1591.99,1666.11l-11.53-3.33l0.28-0.96l11.53,3.33L1591.99,1666.11z M1568.93,1659.46l-11.53-3.33
							l0.28-0.96l11.53,3.33L1568.93,1659.46z M1545.87,1652.8l-11.53-3.33l0.28-0.96l11.53,3.33L1545.87,1652.8z"/>
					</defs>
					<clipPath id="SVGID_68_">
						<use xlink:href="#SVGID_67_"  overflow="visible"/>
					</clipPath>
					<g clip-path="url(#SVGID_68_)">
						
							<line id="_x2D_.elLine-_4_" fill="none" stroke="#012B48" stroke-width="3" stroke-dasharray="12" x1="1534.48" y1="1649" x2="2311.06" y2="1873.07"/>
					</g>
				</g>
				<g>
					<defs>
						<path id="SVGID_69_" d="M1347.62,1628.2l-12-0.06l0-1l12,0.06L1347.62,1628.2z M1323.62,1628.09l-12-0.06l0-1l12,0.06
							L1323.62,1628.09z M1299.62,1627.97l-12-0.06l0-1l12,0.06L1299.62,1627.97z M1275.62,1627.86l-12-0.06l0-1l12,0.06
							L1275.62,1627.86z M1251.62,1627.74l-12-0.06l0-1l12,0.06L1251.62,1627.74z M1227.62,1627.63l-12-0.06l0-1l12,0.06
							L1227.62,1627.63z M1203.62,1627.51l-12-0.06l0-1l12,0.06L1203.62,1627.51z M1179.62,1627.4l-12-0.06l0-1l12,0.06
							L1179.62,1627.4z M1155.63,1627.28l-12-0.06l0-1l12,0.06L1155.63,1627.28z M1131.63,1627.17l-12-0.06l0-1l12,0.06
							L1131.63,1627.17z M1107.63,1627.05l-12-0.06l0-1l12,0.06L1107.63,1627.05z M1083.63,1626.94l-12-0.06l0-1l12,0.06
							L1083.63,1626.94z M1059.63,1626.82l-12-0.06l0-1l12,0.06L1059.63,1626.82z M1035.63,1626.7l-12-0.06l0-1l12,0.06
							L1035.63,1626.7z M1011.63,1626.59l-12-0.06l0-1l12,0.06L1011.63,1626.59z M987.63,1626.47l-12-0.06l0-1l12,0.06
							L987.63,1626.47z"/>
					</defs>
					<clipPath id="SVGID_70_">
						<use xlink:href="#SVGID_69_"  overflow="visible"/>
					</clipPath>
					<g clip-path="url(#SVGID_70_)">
						
							<line id="_x2D_.elLine-_3_" fill="none" stroke="#012B48" stroke-width="3" stroke-dasharray="12" x1="1347.62" y1="1627.7" x2="966.91" y2="1625.87"/>
					</g>
				</g>
				<g>
					<defs>
						<path id="SVGID_71_" d="M1367.1,1270.77l-6.07-10.35l0.86-0.51l6.07,10.35L1367.1,1270.77z M1354.96,1250.06l-6.07-10.35
							l0.86-0.51l6.07,10.35L1354.96,1250.06z M1342.83,1229.36l-6.07-10.35l0.86-0.51l6.07,10.35L1342.83,1229.36z
							 M1330.69,1208.65l-6.07-10.35l0.86-0.51l6.07,10.35L1330.69,1208.65z M1318.56,1187.94l-6.07-10.35l0.86-0.51l6.07,10.35
							L1318.56,1187.94z M1306.42,1167.24l-6.07-10.35l0.86-0.51l6.07,10.35L1306.42,1167.24z M1294.29,1146.53l-6.07-10.35
							l0.86-0.51l6.07,10.35L1294.29,1146.53z M1282.16,1125.83l-6.07-10.35l0.86-0.51l6.07,10.35L1282.16,1125.83z
							 M1270.02,1105.12l-6.07-10.35l0.86-0.51l6.07,10.35L1270.02,1105.12z M1257.89,1084.41l-6.07-10.35l0.86-0.51l6.07,10.35
							L1257.89,1084.41z M1245.75,1063.71l-6.07-10.35l0.86-0.51l6.07,10.35L1245.75,1063.71z M1233.62,1043l-6.07-10.35l0.86-0.51
							l6.07,10.35L1233.62,1043z M1221.48,1022.29l-6.07-10.35l0.86-0.51l6.07,10.35L1221.48,1022.29z"/>
					</defs>
					<clipPath id="SVGID_72_">
						<use xlink:href="#SVGID_71_"  overflow="visible"/>
					</clipPath>
					<g clip-path="url(#SVGID_72_)">
						
							<line id="_x2D_.elLine-_2_" fill="none" stroke="#012B48" stroke-width="3" stroke-dasharray="12" x1="1367.53" y1="1270.52" x2="1214.31" y2="1009.07"/>
					</g>
				</g>
				<g>
					<defs>
						<path id="SVGID_73_" d="M1422.4,1892.54l-0.77-0.64l5.07-6.13l0.77,0.64L1422.4,1892.54z M1435.11,1877.15l-0.77-0.64
							l7.64-9.25l0.77,0.64L1435.11,1877.15z M1450.4,1858.65l-0.77-0.64l7.64-9.25l0.77,0.64L1450.4,1858.65z M1465.69,1840.15
							l-0.77-0.64l7.64-9.25l0.77,0.64L1465.69,1840.15z M1480.98,1821.65l-0.77-0.64l7.64-9.25l0.77,0.64L1480.98,1821.65z
							 M1496.27,1803.16l-0.77-0.64l7.64-9.25l0.77,0.64L1496.27,1803.16z M1511.56,1784.66l-0.77-0.64l7.64-9.25l0.77,0.64
							L1511.56,1784.66z M1526.85,1766.16l-0.77-0.64l7.64-9.25l0.77,0.64L1526.85,1766.16z M1542.13,1747.66l-0.77-0.64l7.64-9.25
							l0.77,0.64L1542.13,1747.66z M1557.42,1729.16l-0.77-0.64l7.64-9.25l0.77,0.64L1557.42,1729.16z M1572.71,1710.66l-0.77-0.64
							l7.64-9.25l0.77,0.64L1572.71,1710.66z M1588,1692.16l-0.77-0.64l7.64-9.25l0.77,0.64L1588,1692.16z M1603.29,1673.66
							l-0.77-0.64l7.64-9.25l0.77,0.64L1603.29,1673.66z M1618.58,1655.16l-0.77-0.64l7.64-9.25l0.77,0.64L1618.58,1655.16z"/>
					</defs>
					<clipPath id="SVGID_74_">
						<use xlink:href="#SVGID_73_"  overflow="visible"/>
					</clipPath>
					<g clip-path="url(#SVGID_74_)">
						
							<line id="_x2D_.elLine-_1_" fill="none" stroke="#012B48" stroke-width="3" stroke-dasharray="12" x1="1625.84" y1="1645.59" x2="1422.01" y2="1892.22"/>
					</g>
				</g>
				<rect x="176.18" y="-514.29" fill="none" width="3840" height="2160"/>
			</g>
		</g>
		<g>
			<g>
				<text transform="matrix(1 0 0 1 724.0387 650.9802)"><tspan x="0" y="0" fill="#012B48" font-family="'HelveticaNeueLTStd-Bd'" font-size="145px" letter-spacing="-1">Here are some products that could</tspan><tspan x="981.35" y="174" fill="#012B48" font-family="'HelveticaNeueLTStd-Bd'" font-size="145px" letter-spacing="-1">help you get there in</tspan></text>
				<rect fill="none" width="3840" height="2160"/>
			</g>
		</g>
		<g>
			<g>
				<rect fill="none" width="3840" height="2160"/>
			</g>
		</g>
	</g>
</g>
</svg>
