<?xml version="1.0" encoding="utf-8"?>
<!-- Generator: Adobe Illustrator 24.2.1, SVG Export Plug-In . SVG Version: 6.00 Build 0)  -->
<svg version="1.1" id="_x32_022Season2Svg" xmlns="http://www.w3.org/2000/svg" xmlns:xlink="http://www.w3.org/1999/xlink" x="0px"
	 y="0px" width="3840px" height="2160px" viewBox="0 0 3840 2160" enable-background="new 0 0 3840 2160" xml:space="preserve">
<g id="_x2D_.contentScene-">
	<g id="_x2D_.moveElements-">
		<g>
			<g>
				<circle fill="#012B48" cx="1595.34" cy="1518.89" r="2.52"/>
				<circle fill="#012B48" cx="1662.99" cy="1505.07" r="2.52"/>
				<circle fill="#012B48" cx="1724.35" cy="1502.25" r="2.52"/>
				<circle fill="#012B48" cx="1716.44" cy="1480.45" r="2.52"/>
				<circle fill="#012B48" cx="1729.98" cy="1469.58" r="2.52"/>
				<circle fill="#012B48" cx="1779.87" cy="1502.54" r="2.52"/>
				<circle fill="#012B48" cx="1814.45" cy="1474.7" r="2.52"/>
				<circle fill="#012B48" cx="1865.91" cy="1432.56" r="2.52"/>
				<circle fill="#012B48" cx="1865.91" cy="1537.09" r="2.52"/>
				<circle fill="#012B48" cx="1870.47" cy="1540.46" r="2.52"/>
				<circle fill="#012B48" cx="1873" cy="1542.98" r="2.52"/>
				<circle fill="#012B48" cx="1870.47" cy="1429.19" r="2.52"/>
				<circle fill="#012B48" cx="1873.29" cy="1426.67" r="2.52"/>
				<circle fill="#012B48" cx="1777.75" cy="1431.72" r="2.52"/>
				<circle fill="#012B48" cx="1777.34" cy="1428.45" r="2.52"/>
				<circle fill="#012B48" cx="1777.34" cy="1425.93" r="2.52"/>
				<circle fill="#012B48" cx="1694.34" cy="1446.87" r="2.52"/>
				<circle fill="#012B48" cx="1686.38" cy="1449.39" r="2.52"/>
				<circle fill="#012B48" cx="1668.68" cy="1451.93" r="2.52"/>
				<circle fill="#012B48" cx="1671.2" cy="1431.62" r="2.52"/>
				<circle fill="#012B48" cx="1680.18" cy="1428.45" r="2.52"/>
				<circle fill="#012B48" cx="1688.91" cy="1425.93" r="2.52"/>
				<circle fill="#012B48" cx="1597.87" cy="1395.96" r="2.52"/>
				<circle fill="#012B48" cx="1655.93" cy="1375.85" r="2.52"/>
				<circle fill="#012B48" cx="1593.15" cy="1366.45" r="2.52"/>
				<circle fill="#012B48" cx="1591.47" cy="1363.38" r="2.52"/>
				<circle fill="#012B48" cx="1589.88" cy="1359.92" r="2.52"/>
				<circle fill="#012B48" cx="1571.85" cy="1379.23" r="2.52"/>
				<circle fill="#012B48" cx="1569.38" cy="1376.86" r="2.52"/>
				<circle fill="#012B48" cx="1567.45" cy="1374.26" r="2.52"/>
				<circle fill="#012B48" cx="1523.99" cy="1430.97" r="2.52"/>
				<circle fill="#012B48" cx="1521.47" cy="1429.19" r="2.52"/>
				<circle fill="#012B48" cx="1518.94" cy="1426.67" r="2.52"/>
				<circle fill="#012B48" cx="1509.4" cy="1456.72" r="2.52"/>
				<circle fill="#012B48" cx="1505.64" cy="1454.2" r="2.52"/>
				<circle fill="#012B48" cx="1502.17" cy="1452.19" r="2.52"/>
				<circle fill="#012B48" cx="1495.73" cy="1493.05" r="2.52"/>
				<circle fill="#012B48" cx="1492.4" cy="1491.73" r="2.52"/>
				<circle fill="#012B48" cx="1489.03" cy="1490.93" r="2.52"/>
				<circle fill="#012B48" cx="1489.88" cy="1521.42" r="2.52"/>
				<circle fill="#012B48" cx="1493.21" cy="1521.42" r="2.52"/>
				<circle fill="#012B48" cx="1486.51" cy="1521.42" r="2.52"/>
				<circle fill="#012B48" cx="1692.39" cy="1362.44" r="2.52"/>
				<circle fill="#012B48" cx="1676.25" cy="1314.9" r="2.52"/>
				<circle fill="#012B48" cx="1673.72" cy="1311.64" r="2.52"/>
				<circle fill="#012B48" cx="1671.27" cy="1309.12" r="2.52"/>
				<circle fill="#012B48" cx="1724.35" cy="1326.86" r="2.52"/>
				<circle fill="#012B48" cx="1757.99" cy="1382.69" r="2.52"/>
				<circle fill="#012B48" cx="1759.87" cy="1386.15" r="2.52"/>
				<circle fill="#012B48" cx="1761.45" cy="1388.68" r="2.52"/>
				<circle fill="#012B48" cx="1766.64" cy="1329.38" r="2.52"/>
				<circle fill="#012B48" cx="1814.29" cy="1339.93" r="2.52"/>
				<circle fill="#012B48" cx="1816.98" cy="1342.45" r="2.52"/>
				<circle fill="#012B48" cx="1819.5" cy="1344.97" r="2.52"/>
				<circle fill="#012B48" cx="1782.47" cy="1289.11" r="2.52"/>
				<circle fill="#012B48" cx="1728.46" cy="1274.9" r="2.52"/>
				<circle fill="#012B48" cx="1725.94" cy="1273.46" r="2.52"/>
				<circle fill="#012B48" cx="1723.41" cy="1272.38" r="2.52"/>
				<circle fill="#012B48" cx="1734.92" cy="1260.96" r="2.52"/>
				<circle fill="#012B48" cx="1731.92" cy="1260.96" r="2.52"/>
				<circle fill="#012B48" cx="1728.77" cy="1261.07" r="2.52"/>
				<circle fill="#012B48" cx="1734.98" cy="1252.56" r="2.52"/>
				<circle fill="#012B48" cx="1732.45" cy="1252.56" r="2.52"/>
				<circle fill="#012B48" cx="1729.87" cy="1252.56" r="2.52"/>
				<circle fill="#012B48" cx="1846.58" cy="1298.14" r="2.52"/>
				<circle fill="#012B48" cx="1849.11" cy="1300.66" r="2.52"/>
				<circle fill="#012B48" cx="1851.63" cy="1302.16" r="2.52"/>
				<circle fill="#012B48" cx="1799.27" cy="1252.56" r="2.52"/>
				<circle fill="#012B48" cx="1860.51" cy="1250.03" r="2.52"/>
				<circle fill="#012B48" cx="1863.97" cy="1250.03" r="2.52"/>
				<circle fill="#012B48" cx="1866.93" cy="1250.37" r="2.52"/>
				<circle fill="#012B48" cx="1855.46" cy="1203.78" r="2.52"/>
				<circle fill="#012B48" cx="1859.36" cy="1203.14" r="2.52"/>
				<circle fill="#012B48" cx="1864.41" cy="1203.14" r="2.52"/>
				<circle fill="#012B48" cx="1786.21" cy="1198.09" r="2.52"/>
				<circle fill="#012B48" cx="1830.29" cy="1153.13" r="2.52"/>
				<circle fill="#012B48" cx="1833.86" cy="1150.61" r="2.52"/>
				<circle fill="#012B48" cx="1836.39" cy="1149.02" r="2.52"/>
				<circle fill="#012B48" cx="1799.14" cy="1127.49" r="2.52"/>
				<circle fill="#012B48" cx="1800.79" cy="1124.82" r="2.52"/>
				<circle fill="#012B48" cx="1803.32" cy="1122.29" r="2.52"/>
				<circle fill="#012B48" cx="1764.11" cy="1168.56" r="2.52"/>
				<circle fill="#012B48" cx="1724.06" cy="1214.68" r="2.52"/>
				<circle fill="#012B48" cx="1721.54" cy="1217.2" r="2.52"/>
				<circle fill="#012B48" cx="1719.01" cy="1219.72" r="2.52"/>
				<circle fill="#012B48" cx="1691.15" cy="1199.03" r="2.52"/>
				<circle fill="#012B48" cx="1691.15" cy="1201.55" r="2.52"/>
				<circle fill="#012B48" cx="1691.15" cy="1204.08" r="2.52"/>
				<circle fill="#012B48" cx="1701.7" cy="1139.47" r="2.52"/>
				<circle fill="#012B48" cx="1708.43" cy="1101.94" r="2.52"/>
				<circle fill="#012B48" cx="1708.43" cy="1098.39" r="2.52"/>
				<circle fill="#012B48" cx="1708.43" cy="1094.75" r="2.52"/>
				<circle fill="#012B48" cx="1682.24" cy="1127.34" r="2.52"/>
				<circle fill="#012B48" cx="1635.99" cy="1106.99" r="2.52"/>
				<circle fill="#012B48" cx="1634.4" cy="1102.88" r="2.52"/>
				<circle fill="#012B48" cx="1632.82" cy="1098.39" r="2.52"/>
				<circle fill="#012B48" cx="1652.46" cy="1156.59" r="2.52"/>
				<circle fill="#012B48" cx="1661.32" cy="1201.26" r="2.52"/>
				<circle fill="#012B48" cx="1662.29" cy="1203.14" r="2.52"/>
				<circle fill="#012B48" cx="1664.16" cy="1206.31" r="2.52"/>
				<circle fill="#012B48" cx="1640.44" cy="1213.14" r="2.52"/>
				<circle fill="#012B48" cx="1642.97" cy="1216.26" r="2.52"/>
				<circle fill="#012B48" cx="1645.49" cy="1218.79" r="2.52"/>
				<circle fill="#012B48" cx="1606.67" cy="1172.71" r="2.52"/>
				<circle fill="#012B48" cx="1571.21" cy="1132.39" r="2.52"/>
				<circle fill="#012B48" cx="1568.68" cy="1128.43" r="2.52"/>
				<circle fill="#012B48" cx="1566.41" cy="1125.9" r="2.52"/>
				<circle fill="#012B48" cx="1566.41" cy="1172.16" r="2.52"/>
				<circle fill="#012B48" cx="1588.94" cy="1217.84" r="2.52"/>
				<circle fill="#012B48" cx="1552.52" cy="1201.26" r="2.52"/>
				<circle fill="#012B48" cx="1532.41" cy="1230.95" r="2.52"/>
				<circle fill="#012B48" cx="1545.83" cy="1255.08" r="2.52"/>
				<circle fill="#012B48" cx="1608.13" cy="1272.21" r="2.52"/>
				<circle fill="#012B48" cx="1576.66" cy="1250.37" r="2.52"/>
				<circle fill="#012B48" cx="1620" cy="1247.51" r="2.52"/>
				<circle fill="#012B48" cx="1624.4" cy="1249.14" r="2.52"/>
				<circle fill="#012B48" cx="1626.93" cy="1250.37" r="2.52"/>
				<circle fill="#012B48" cx="1624.4" cy="1237.97" r="2.52"/>
				<circle fill="#012B48" cx="1627.86" cy="1238.78" r="2.52"/>
				<circle fill="#012B48" cx="1630.66" cy="1240.49" r="2.52"/>
				<circle fill="#012B48" cx="1617.48" cy="1287.82" r="2.52"/>
				<circle fill="#012B48" cx="1620.18" cy="1290.78" r="2.52"/>
				<circle fill="#012B48" cx="1622.52" cy="1292.87" r="2.52"/>
				<circle fill="#012B48" cx="1502.17" cy="1263.49" r="2.52"/>
				<circle fill="#012B48" cx="1498.62" cy="1263.49" r="2.52"/>
				<circle fill="#012B48" cx="1495.16" cy="1263.73" r="2.52"/>
				<circle fill="#012B48" cx="1502.17" cy="1286.58" r="2.52"/>
				<circle fill="#012B48" cx="1498.62" cy="1290.35" r="2.52"/>
				<circle fill="#012B48" cx="1496.09" cy="1292.87" r="2.52"/>
				<circle fill="#012B48" cx="1512.06" cy="1208.74" r="2.52"/>
				<circle fill="#012B48" cx="1508.2" cy="1207.59" r="2.52"/>
				<circle fill="#012B48" cx="1504.7" cy="1206.22" r="2.52"/>
				<circle fill="#012B48" cx="1524.36" cy="1182.98" r="2.52"/>
				<circle fill="#012B48" cx="1520.25" cy="1181.16" r="2.52"/>
				<circle fill="#012B48" cx="1517.11" cy="1178.63" r="2.52"/>
				<circle fill="#012B48" cx="1733.37" cy="1233.61" r="2.52"/>
				<circle fill="#012B48" cx="1729.87" cy="1234.7" r="2.52"/>
				<circle fill="#012B48" cx="1727.34" cy="1236.14" r="2.52"/>
				<circle fill="#012B48" cx="1737.77" cy="1537.09" r="2.52"/>
				<circle fill="#012B48" cx="1737.77" cy="1540.46" r="2.52"/>
				<circle fill="#012B48" cx="1737.77" cy="1542.98" r="2.52"/>
				<circle fill="#012B48" cx="1653.4" cy="1537.09" r="2.52"/>
				<circle fill="#012B48" cx="1653.4" cy="1540.46" r="2.52"/>
				<circle fill="#012B48" cx="1653.4" cy="1542.98" r="2.52"/>
				<circle fill="#012B48" cx="1561.55" cy="1495.98" r="2.52"/>
				<circle fill="#012B48" cx="1606.39" cy="1463.11" r="2.52"/>
				<circle fill="#012B48" cx="1542.32" cy="1460.59" r="2.52"/>
				<circle fill="#012B48" cx="1524.64" cy="1479.42" r="2.52"/>
				<circle fill="#012B48" cx="1522.12" cy="1495.57" r="2.52"/>
				<circle fill="#012B48" cx="1506.88" cy="1509.4" r="2.52"/>
				<circle fill="#012B48" cx="1504.35" cy="1521.42" r="2.52"/>
				<circle fill="#012B48" cx="1493.21" cy="1536.71" r="2.52"/>
				<circle fill="#012B48" cx="1489.75" cy="1539.61" r="2.52"/>
				<circle fill="#012B48" cx="1487.36" cy="1542.13" r="2.52"/>
				<g>
					<g>
						<path fill="none" stroke="#012B48" d="M1502.17,1287.82c-6.79-117.96,66.7-185.89,182.18-185.89
							c104.37,0,175.39,43.85,175.39,135.25c0,109.93-107.46,144.51-188.36,193.92v0.62h194.53v104.99h-372.39
							c-2.47-41.38,9.88-77.2,30.88-106.22c35.82-50.02,97.58-82.75,152.54-116.1c22.23-13.59,58.05-30.88,58.05-62.37
							c0-38.91-22.85-52.49-51.88-52.49c-49.41,0-66.08,35.82-64.84,88.31H1502.17z"/>
					</g>
				</g>
				<g>
					<g>
						<path fill="none" stroke="#012B48" d="M1499.2,1290.78c-9.32-125.79,73.17-193.58,186.89-193.51
							c107.07,0.07,179.92,53.34,178.04,138.74c-2.69,122.24-130.14,156.38-184.78,192.99c19.81-1.48,191.11,0,191.11,0v110.52
							h-380.14c-2.53-42.45,5.44-75.44,26.98-105.21c36.74-51.32,96.75-86.81,156.48-121.92c22.81-13.94,59.15-28.87,58.61-61.17
							c-0.51-30.65-17.81-49.77-47.58-50.1c-46.91-0.51-65.91,35.81-64.64,89.66H1499.2z"/>
					</g>
				</g>
				<g>
					<g>
						<path fill="none" stroke="#012B48" d="M1495.99,1294.26c-9.4-126.87,69.01-200.82,188.51-200.82
							c107.99,0,184.19,53.94,183.35,142.76c-1.15,121.1-140.32,167.07-177.94,189.97c19.98-1.5,183.38,0,183.38,0v117.11h-386.24
							c-2.56-42.81,3.61-77.04,25.34-107.07c38.71-58.2,102.84-92.22,159.71-126.73c23-14.06,57.24-25.36,57.24-57.95
							c0-40.26-27.59-46.47-46.12-47.71c-38.31-2.56-63.22,33.41-60.5,90.44H1495.99z"/>
					</g>
				</g>
				<polyline fill="none" stroke="#012B48" points="1502.17,1287.82 1608.85,1272.21 1616.48,1286.52 				"/>
				<polyline fill="none" stroke="#012B48" points="1502.17,1287.82 1545.59,1253.52 1608.85,1272.21 1576.26,1250.64 
					1621.6,1247.58 				"/>
				<polyline fill="none" stroke="#012B48" points="1533.13,1231.47 1576.66,1250.58 1546.03,1253.94 1533.13,1231.09 
					1503.45,1262.14 1545.69,1253.56 				"/>
				<polyline fill="none" stroke="#012B48" points="1576.66,1250.37 1587.76,1217.63 1624.4,1238.94 1566.61,1172.16 
					1552.78,1203.19 1513.66,1208.39 				"/>
				<path fill="none" stroke="#012B48" d="M1587.76,1213.74"/>
				<line fill="none" stroke="#012B48" x1="1587.72" y1="1217.84" x2="1565.15" y2="1172.71"/>
				<line fill="none" stroke="#012B48" x1="1565.15" y1="1172.71" x2="1524.36" y2="1182.98"/>
				<polyline fill="none" stroke="#012B48" points="1639.96,1212.2 1566.41,1171.56 1605.02,1172.71 1639.96,1212.2 
					1652.46,1157.66 1605.02,1172.71 1570.99,1133.24 1566.41,1171.56 1512.06,1208.96 1532.17,1230.01 1552.78,1203.19 
					1587.76,1217.57 1533.21,1230.95 				"/>
				<polyline fill="none" stroke="#012B48" points="1572.37,1131.91 1651.94,1156.66 1635.69,1106.38 1682.14,1127.77 
					1652.5,1155.73 1702.78,1139.45 1682.66,1127.47 1708.54,1101.94 1702.31,1138.87 1763.65,1169.17 1708.54,1101.94 				"/>
				<polyline fill="none" stroke="#012B48" points="1661.66,1201.26 1652.98,1157.72 1691.24,1199.03 1701.7,1139.47 				"/>
				<polyline fill="none" stroke="#012B48" points="1691.24,1199.03 1762.65,1170.28 1725.79,1213.74 1779.51,1200.03 
					1787.14,1198.09 1763.65,1169.35 1798.64,1128.43 1786.66,1197.15 1829.79,1153.83 				"/>
				<polyline fill="none" stroke="#012B48" points="1734.92,1232.97 1787.02,1198.16 1799.12,1252.56 1856.11,1203.23 
					1787.67,1198.09 				"/>
				<polyline fill="none" stroke="#012B48" points="1734,1232.69 1799.27,1252.56 1734.98,1252.56 				"/>
				<polyline fill="none" stroke="#012B48" points="1857.99,1250.37 1799.12,1252.56 1847,1297.61 1734.96,1260.27 1781.38,1289.94 
					1845.51,1298.14 				"/>
				<polyline fill="none" stroke="#012B48" points="1782.3,1290.02 1728.67,1275.64 1767.09,1329.72 1782.3,1290.96 
					1814.45,1339.78 1766.87,1330.22 1756.94,1381 1724.35,1326.84 1768.34,1330.2 				"/>
				<polyline fill="none" stroke="#012B48" points="1728.17,1276.68 1725.29,1327.68 1676.96,1315.36 1755.46,1381.94 
					1692.24,1361.83 1676.4,1315.38 1656.3,1375.73 1693.14,1361.93 1671.39,1431.72 1656.3,1376.31 1597.81,1395.96 
					1593.99,1367.1 1656.22,1375.71 				"/>
				<polyline fill="none" stroke="#012B48" points="1671.05,1430.32 1597.87,1395.96 1606.93,1462.95 1671.09,1432.32 
					1669.22,1451.45 1686.95,1449.04 1671.91,1432.34 1694.2,1446.66 1778.03,1431.72 1729.62,1469.18 1779.95,1502.25 
					1778.01,1433.34 				"/>
				<polyline fill="none" stroke="#012B48" points="1668.68,1451.93 1606.93,1462.95 1662.99,1505.07 1716.2,1480.69 
					1687.03,1449.11 1695.52,1447.23 1729.98,1469.64 				"/>
				<line fill="none" stroke="#012B48" x1="1668.68" y1="1451.93" x2="1662.99" y2="1505.07"/>
				<polyline fill="none" stroke="#012B48" points="1729.32,1469.58 1716.5,1480.38 1779.87,1502.25 1724.35,1502.25 
					1716.44,1481.8 				"/>
				<polyline fill="none" stroke="#012B48" points="1724.35,1502.25 1663.02,1505.07 1737.77,1536.71 1725.02,1503.99 				"/>
				<polyline fill="none" stroke="#012B48" points="1740.17,1535.21 1779.21,1502.25 1865.12,1535.21 1814.45,1474.7 
					1864.18,1434.44 				"/>
				<polyline fill="none" stroke="#012B48" points="1778.69,1432.56 1814.29,1474.78 1780.57,1501.37 				"/>
				<polyline fill="none" stroke="#012B48" points="1662.99,1505.07 1653.18,1537.09 1594.73,1518.54 1662.99,1505.07 				"/>
				<polyline fill="none" stroke="#012B48" points="1606.93,1463.21 1595.67,1518.63 1560.54,1495.9 1606.39,1463.11 
					1542.47,1460.68 1524.14,1432.56 				"/>
				<polyline fill="none" stroke="#012B48" points="1541.47,1461.04 1509.4,1457.8 1524.5,1478.5 1543.41,1460.6 1560.54,1495.98 
					1525.14,1478.35 1521.98,1494.11 1559.45,1495.9 				"/>
				<polyline fill="none" stroke="#012B48" points="1497.82,1492.67 1521.56,1494.55 1507.11,1508.98 1494.66,1521.08 
					1504.05,1521.08 1507.53,1509.2 1559.67,1496.76 				"/>
				<polyline fill="none" stroke="#012B48" points="1507.53,1509.2 1595.13,1518.63 1504.05,1521.08 1494.57,1536.15 
					1595.13,1518.63 				"/>
				<line fill="none" stroke="#012B48" x1="1526.23" y1="1430.78" x2="1605.02" y2="1462.95"/>
				<path fill="#012B48" d="M1593.99,1366.16c0,0-32.94,23.59-40.88,31.67c-8.27,8.42-28.77,32-28.77,32l82.04,33.27
					L1593.99,1366.16z"/>
				<line fill="none" stroke="#012B48" x1="1608.78" y1="1271.46" x2="1619.35" y2="1248.2"/>
				<rect fill="none" width="3840" height="2160"/>
			</g>
		</g>
		<g>
			<g>
				<circle fill="#012B48" cx="2396.89" cy="1518.89" r="2.52"/>
				<circle fill="#012B48" cx="2464.54" cy="1505.07" r="2.52"/>
				<circle fill="#012B48" cx="2525.9" cy="1502.25" r="2.52"/>
				<circle fill="#012B48" cx="2518" cy="1480.45" r="2.52"/>
				<circle fill="#012B48" cx="2531.54" cy="1469.58" r="2.52"/>
				<circle fill="#012B48" cx="2581.42" cy="1502.54" r="2.52"/>
				<circle fill="#012B48" cx="2616.01" cy="1474.7" r="2.52"/>
				<circle fill="#012B48" cx="2667.47" cy="1432.56" r="2.52"/>
				<circle fill="#012B48" cx="2667.47" cy="1537.09" r="2.52"/>
				<circle fill="#012B48" cx="2672.03" cy="1540.46" r="2.52"/>
				<circle fill="#012B48" cx="2674.55" cy="1542.98" r="2.52"/>
				<circle fill="#012B48" cx="2672.03" cy="1429.19" r="2.52"/>
				<circle fill="#012B48" cx="2674.84" cy="1426.67" r="2.52"/>
				<circle fill="#012B48" cx="2579.3" cy="1431.72" r="2.52"/>
				<circle fill="#012B48" cx="2578.89" cy="1428.45" r="2.52"/>
				<circle fill="#012B48" cx="2578.89" cy="1425.93" r="2.52"/>
				<circle fill="#012B48" cx="2495.89" cy="1446.87" r="2.52"/>
				<circle fill="#012B48" cx="2487.93" cy="1449.39" r="2.52"/>
				<circle fill="#012B48" cx="2470.23" cy="1451.93" r="2.52"/>
				<circle fill="#012B48" cx="2472.75" cy="1431.62" r="2.52"/>
				<circle fill="#012B48" cx="2481.73" cy="1428.45" r="2.52"/>
				<circle fill="#012B48" cx="2490.46" cy="1425.93" r="2.52"/>
				<circle fill="#012B48" cx="2399.42" cy="1395.96" r="2.52"/>
				<circle fill="#012B48" cx="2457.48" cy="1375.85" r="2.52"/>
				<circle fill="#012B48" cx="2394.7" cy="1366.45" r="2.52"/>
				<circle fill="#012B48" cx="2393.02" cy="1363.38" r="2.52"/>
				<circle fill="#012B48" cx="2391.43" cy="1359.92" r="2.52"/>
				<circle fill="#012B48" cx="2373.4" cy="1379.23" r="2.52"/>
				<circle fill="#012B48" cx="2370.93" cy="1376.86" r="2.52"/>
				<circle fill="#012B48" cx="2369" cy="1374.26" r="2.52"/>
				<circle fill="#012B48" cx="2325.55" cy="1430.97" r="2.52"/>
				<circle fill="#012B48" cx="2323.02" cy="1429.19" r="2.52"/>
				<circle fill="#012B48" cx="2320.5" cy="1426.67" r="2.52"/>
				<circle fill="#012B48" cx="2310.95" cy="1456.72" r="2.52"/>
				<circle fill="#012B48" cx="2307.19" cy="1454.2" r="2.52"/>
				<circle fill="#012B48" cx="2303.73" cy="1452.19" r="2.52"/>
				<circle fill="#012B48" cx="2297.29" cy="1493.05" r="2.52"/>
				<circle fill="#012B48" cx="2293.96" cy="1491.73" r="2.52"/>
				<circle fill="#012B48" cx="2290.58" cy="1490.93" r="2.52"/>
				<circle fill="#012B48" cx="2291.43" cy="1521.42" r="2.52"/>
				<circle fill="#012B48" cx="2294.76" cy="1521.42" r="2.52"/>
				<circle fill="#012B48" cx="2288.06" cy="1521.42" r="2.52"/>
				<circle fill="#012B48" cx="2493.94" cy="1362.44" r="2.52"/>
				<circle fill="#012B48" cx="2477.8" cy="1314.9" r="2.52"/>
				<circle fill="#012B48" cx="2475.28" cy="1311.64" r="2.52"/>
				<circle fill="#012B48" cx="2472.82" cy="1309.12" r="2.52"/>
				<circle fill="#012B48" cx="2525.9" cy="1326.86" r="2.52"/>
				<circle fill="#012B48" cx="2559.54" cy="1382.69" r="2.52"/>
				<circle fill="#012B48" cx="2561.42" cy="1386.15" r="2.52"/>
				<circle fill="#012B48" cx="2563" cy="1388.68" r="2.52"/>
				<circle fill="#012B48" cx="2568.19" cy="1329.38" r="2.52"/>
				<circle fill="#012B48" cx="2615.85" cy="1339.93" r="2.52"/>
				<circle fill="#012B48" cx="2618.53" cy="1342.45" r="2.52"/>
				<circle fill="#012B48" cx="2621.05" cy="1344.97" r="2.52"/>
				<circle fill="#012B48" cx="2584.02" cy="1289.11" r="2.52"/>
				<circle fill="#012B48" cx="2530.01" cy="1274.9" r="2.52"/>
				<circle fill="#012B48" cx="2527.49" cy="1273.46" r="2.52"/>
				<circle fill="#012B48" cx="2524.97" cy="1272.38" r="2.52"/>
				<circle fill="#012B48" cx="2536.47" cy="1260.96" r="2.52"/>
				<circle fill="#012B48" cx="2533.48" cy="1260.96" r="2.52"/>
				<circle fill="#012B48" cx="2530.32" cy="1261.07" r="2.52"/>
				<circle fill="#012B48" cx="2536.53" cy="1252.56" r="2.52"/>
				<circle fill="#012B48" cx="2534" cy="1252.56" r="2.52"/>
				<circle fill="#012B48" cx="2531.42" cy="1252.56" r="2.52"/>
				<circle fill="#012B48" cx="2648.14" cy="1298.14" r="2.52"/>
				<circle fill="#012B48" cx="2650.66" cy="1300.66" r="2.52"/>
				<circle fill="#012B48" cx="2653.18" cy="1302.16" r="2.52"/>
				<circle fill="#012B48" cx="2600.82" cy="1252.56" r="2.52"/>
				<circle fill="#012B48" cx="2662.06" cy="1250.03" r="2.52"/>
				<circle fill="#012B48" cx="2665.53" cy="1250.03" r="2.52"/>
				<circle fill="#012B48" cx="2668.48" cy="1250.37" r="2.52"/>
				<circle fill="#012B48" cx="2657.01" cy="1203.78" r="2.52"/>
				<circle fill="#012B48" cx="2660.91" cy="1203.14" r="2.52"/>
				<circle fill="#012B48" cx="2665.96" cy="1203.14" r="2.52"/>
				<circle fill="#012B48" cx="2587.76" cy="1198.09" r="2.52"/>
				<circle fill="#012B48" cx="2631.84" cy="1153.13" r="2.52"/>
				<circle fill="#012B48" cx="2635.42" cy="1150.61" r="2.52"/>
				<circle fill="#012B48" cx="2637.94" cy="1149.02" r="2.52"/>
				<circle fill="#012B48" cx="2600.69" cy="1127.49" r="2.52"/>
				<circle fill="#012B48" cx="2602.35" cy="1124.82" r="2.52"/>
				<circle fill="#012B48" cx="2604.87" cy="1122.29" r="2.52"/>
				<circle fill="#012B48" cx="2565.66" cy="1168.56" r="2.52"/>
				<circle fill="#012B48" cx="2525.61" cy="1214.68" r="2.52"/>
				<circle fill="#012B48" cx="2523.09" cy="1217.2" r="2.52"/>
				<circle fill="#012B48" cx="2520.56" cy="1219.72" r="2.52"/>
				<circle fill="#012B48" cx="2492.7" cy="1199.03" r="2.52"/>
				<circle fill="#012B48" cx="2492.7" cy="1201.55" r="2.52"/>
				<circle fill="#012B48" cx="2492.7" cy="1204.08" r="2.52"/>
				<circle fill="#012B48" cx="2503.25" cy="1139.47" r="2.52"/>
				<circle fill="#012B48" cx="2509.98" cy="1101.94" r="2.52"/>
				<circle fill="#012B48" cx="2509.98" cy="1098.39" r="2.52"/>
				<circle fill="#012B48" cx="2509.98" cy="1094.75" r="2.52"/>
				<circle fill="#012B48" cx="2483.79" cy="1127.34" r="2.52"/>
				<circle fill="#012B48" cx="2437.54" cy="1106.99" r="2.52"/>
				<circle fill="#012B48" cx="2435.95" cy="1102.88" r="2.52"/>
				<circle fill="#012B48" cx="2434.37" cy="1098.39" r="2.52"/>
				<circle fill="#012B48" cx="2454.01" cy="1156.59" r="2.52"/>
				<circle fill="#012B48" cx="2462.87" cy="1201.26" r="2.52"/>
				<circle fill="#012B48" cx="2463.84" cy="1203.14" r="2.52"/>
				<circle fill="#012B48" cx="2465.72" cy="1206.31" r="2.52"/>
				<circle fill="#012B48" cx="2441.99" cy="1213.14" r="2.52"/>
				<circle fill="#012B48" cx="2444.52" cy="1216.26" r="2.52"/>
				<circle fill="#012B48" cx="2447.04" cy="1218.79" r="2.52"/>
				<circle fill="#012B48" cx="2408.22" cy="1172.71" r="2.52"/>
				<circle fill="#012B48" cx="2372.76" cy="1132.39" r="2.52"/>
				<circle fill="#012B48" cx="2370.23" cy="1128.43" r="2.52"/>
				<circle fill="#012B48" cx="2367.97" cy="1125.9" r="2.52"/>
				<circle fill="#012B48" cx="2367.97" cy="1172.16" r="2.52"/>
				<circle fill="#012B48" cx="2390.49" cy="1217.84" r="2.52"/>
				<circle fill="#012B48" cx="2354.07" cy="1201.26" r="2.52"/>
				<circle fill="#012B48" cx="2333.96" cy="1230.95" r="2.52"/>
				<circle fill="#012B48" cx="2347.38" cy="1255.08" r="2.52"/>
				<circle fill="#012B48" cx="2409.68" cy="1272.21" r="2.52"/>
				<circle fill="#012B48" cx="2378.21" cy="1250.37" r="2.52"/>
				<circle fill="#012B48" cx="2421.55" cy="1247.51" r="2.52"/>
				<circle fill="#012B48" cx="2425.95" cy="1249.14" r="2.52"/>
				<circle fill="#012B48" cx="2428.48" cy="1250.37" r="2.52"/>
				<circle fill="#012B48" cx="2425.95" cy="1237.97" r="2.52"/>
				<circle fill="#012B48" cx="2429.42" cy="1238.78" r="2.52"/>
				<circle fill="#012B48" cx="2432.21" cy="1240.49" r="2.52"/>
				<circle fill="#012B48" cx="2419.03" cy="1287.82" r="2.52"/>
				<circle fill="#012B48" cx="2421.73" cy="1290.78" r="2.52"/>
				<circle fill="#012B48" cx="2424.08" cy="1292.87" r="2.52"/>
				<circle fill="#012B48" cx="2303.73" cy="1263.49" r="2.52"/>
				<circle fill="#012B48" cx="2300.17" cy="1263.49" r="2.52"/>
				<circle fill="#012B48" cx="2296.71" cy="1263.73" r="2.52"/>
				<circle fill="#012B48" cx="2303.73" cy="1286.58" r="2.52"/>
				<circle fill="#012B48" cx="2300.17" cy="1290.35" r="2.52"/>
				<circle fill="#012B48" cx="2297.65" cy="1292.87" r="2.52"/>
				<circle fill="#012B48" cx="2313.61" cy="1208.74" r="2.52"/>
				<circle fill="#012B48" cx="2309.76" cy="1207.59" r="2.52"/>
				<circle fill="#012B48" cx="2306.25" cy="1206.22" r="2.52"/>
				<circle fill="#012B48" cx="2325.91" cy="1182.98" r="2.52"/>
				<circle fill="#012B48" cx="2321.8" cy="1181.16" r="2.52"/>
				<circle fill="#012B48" cx="2318.66" cy="1178.63" r="2.52"/>
				<circle fill="#012B48" cx="2534.92" cy="1233.61" r="2.52"/>
				<circle fill="#012B48" cx="2531.42" cy="1234.7" r="2.52"/>
				<circle fill="#012B48" cx="2528.89" cy="1236.14" r="2.52"/>
				<circle fill="#012B48" cx="2539.32" cy="1537.09" r="2.52"/>
				<circle fill="#012B48" cx="2539.32" cy="1540.46" r="2.52"/>
				<circle fill="#012B48" cx="2539.32" cy="1542.98" r="2.52"/>
				<circle fill="#012B48" cx="2454.95" cy="1537.09" r="2.52"/>
				<circle fill="#012B48" cx="2454.95" cy="1540.46" r="2.52"/>
				<circle fill="#012B48" cx="2454.95" cy="1542.98" r="2.52"/>
				<circle fill="#012B48" cx="2363.11" cy="1495.98" r="2.52"/>
				<circle fill="#012B48" cx="2407.95" cy="1463.11" r="2.52"/>
				<circle fill="#012B48" cx="2343.88" cy="1460.59" r="2.52"/>
				<circle fill="#012B48" cx="2326.19" cy="1479.42" r="2.52"/>
				<circle fill="#012B48" cx="2323.67" cy="1495.57" r="2.52"/>
				<circle fill="#012B48" cx="2308.43" cy="1509.4" r="2.52"/>
				<circle fill="#012B48" cx="2305.91" cy="1521.42" r="2.52"/>
				<circle fill="#012B48" cx="2294.76" cy="1536.71" r="2.52"/>
				<circle fill="#012B48" cx="2291.3" cy="1539.61" r="2.52"/>
				<circle fill="#012B48" cx="2288.91" cy="1542.13" r="2.52"/>
				<g>
					<g>
						<path fill="none" stroke="#012B48" d="M2303.72,1287.82c-6.79-117.96,66.7-185.89,182.18-185.89
							c104.37,0,175.39,43.85,175.39,135.25c0,109.93-107.46,144.51-188.36,193.92v0.62h194.53v104.99h-372.39
							c-2.47-41.38,9.88-77.2,30.88-106.22c35.82-50.02,97.58-82.75,152.54-116.1c22.23-13.59,58.05-30.88,58.05-62.37
							c0-38.91-22.85-52.49-51.88-52.49c-49.41,0-66.08,35.82-64.84,88.31H2303.72z"/>
					</g>
				</g>
				<g>
					<g>
						<path fill="none" stroke="#012B48" d="M2300.75,1290.78c-9.32-125.79,73.17-193.58,186.89-193.51
							c107.07,0.07,179.92,53.34,178.04,138.74c-2.69,122.24-130.14,156.38-184.78,192.99c19.81-1.48,191.11,0,191.11,0v110.52
							h-380.14c-2.53-42.45,5.44-75.44,26.98-105.21c36.74-51.32,96.75-86.81,156.48-121.92c22.81-13.94,59.15-28.87,58.61-61.17
							c-0.51-30.65-17.81-49.77-47.58-50.1c-46.91-0.51-65.91,35.81-64.64,89.66H2300.75z"/>
					</g>
				</g>
				<g>
					<g>
						<path fill="none" stroke="#012B48" d="M2297.55,1294.26c-9.4-126.87,69.01-200.82,188.51-200.82
							c107.99,0,184.19,53.94,183.35,142.76c-1.15,121.1-140.32,167.07-177.94,189.97c19.98-1.5,183.38,0,183.38,0v117.11H2288.6
							c-2.56-42.81,3.61-77.04,25.34-107.07c38.71-58.2,102.84-92.22,159.71-126.73c23-14.06,57.24-25.36,57.24-57.95
							c0-40.26-27.59-46.47-46.12-47.71c-38.31-2.56-63.22,33.41-60.5,90.44H2297.55z"/>
					</g>
				</g>
				<polyline fill="none" stroke="#012B48" points="2303.73,1287.82 2410.4,1272.21 2418.03,1286.52 				"/>
				<polyline fill="none" stroke="#012B48" points="2303.73,1287.82 2347.14,1253.52 2410.4,1272.21 2377.81,1250.64 
					2423.15,1247.58 				"/>
				<polyline fill="none" stroke="#012B48" points="2334.68,1231.47 2378.21,1250.58 2347.58,1253.94 2334.68,1231.09 2305,1262.14 
					2347.24,1253.56 				"/>
				<polyline fill="none" stroke="#012B48" points="2378.21,1250.37 2389.31,1217.63 2425.95,1238.94 2368.17,1172.16 
					2354.33,1203.19 2315.21,1208.39 				"/>
				<path fill="none" stroke="#012B48" d="M2389.31,1213.74"/>
				<line fill="none" stroke="#012B48" x1="2389.27" y1="1217.84" x2="2366.7" y2="1172.71"/>
				<line fill="none" stroke="#012B48" x1="2366.7" y1="1172.71" x2="2325.91" y2="1182.98"/>
				<polyline fill="none" stroke="#012B48" points="2441.51,1212.2 2367.97,1171.56 2406.57,1172.71 2441.51,1212.2 
					2454.01,1157.66 2406.57,1172.71 2372.54,1133.24 2367.97,1171.56 2313.61,1208.96 2333.72,1230.01 2354.33,1203.19 
					2389.31,1217.57 2334.76,1230.95 				"/>
				<polyline fill="none" stroke="#012B48" points="2373.92,1131.91 2453.5,1156.66 2437.24,1106.38 2483.69,1127.77 
					2454.05,1155.73 2504.34,1139.45 2484.21,1127.47 2510.09,1101.94 2503.86,1138.87 2565.2,1169.17 2510.09,1101.94 				"/>
				<polyline fill="none" stroke="#012B48" points="2463.21,1201.26 2454.53,1157.72 2492.79,1199.03 2503.25,1139.47 				"/>
				<polyline fill="none" stroke="#012B48" points="2492.79,1199.03 2564.2,1170.28 2527.34,1213.74 2581.06,1200.03 
					2588.69,1198.09 2565.2,1169.35 2600.19,1128.43 2588.21,1197.15 2631.34,1153.83 				"/>
				<polyline fill="none" stroke="#012B48" points="2536.47,1232.97 2588.57,1198.16 2600.67,1252.56 2657.66,1203.23 
					2589.23,1198.09 				"/>
				<polyline fill="none" stroke="#012B48" points="2535.56,1232.69 2600.82,1252.56 2536.53,1252.56 				"/>
				<polyline fill="none" stroke="#012B48" points="2659.54,1250.37 2600.67,1252.56 2648.56,1297.61 2536.51,1260.27 
					2582.94,1289.94 2647.06,1298.14 				"/>
				<polyline fill="none" stroke="#012B48" points="2583.85,1290.02 2530.22,1275.64 2568.64,1329.72 2583.85,1290.96 
					2616.01,1339.78 2568.42,1330.22 2558.49,1381 2525.9,1326.84 2569.9,1330.2 				"/>
				<polyline fill="none" stroke="#012B48" points="2529.72,1276.68 2526.84,1327.68 2478.52,1315.36 2557.02,1381.94 
					2493.79,1361.83 2477.95,1315.38 2457.85,1375.73 2494.69,1361.93 2472.94,1431.72 2457.85,1376.31 2399.36,1395.96 
					2395.54,1367.1 2457.77,1375.71 				"/>
				<polyline fill="none" stroke="#012B48" points="2472.61,1430.32 2399.42,1395.96 2408.48,1462.95 2472.65,1432.32 
					2470.77,1451.45 2488.5,1449.04 2473.46,1432.34 2495.75,1446.66 2579.58,1431.72 2531.18,1469.18 2581.5,1502.25 
					2579.56,1433.34 				"/>
				<polyline fill="none" stroke="#012B48" points="2470.23,1451.93 2408.48,1462.95 2464.54,1505.07 2517.76,1480.69 
					2488.58,1449.11 2497.07,1447.23 2531.54,1469.64 				"/>
				<line fill="none" stroke="#012B48" x1="2470.23" y1="1451.93" x2="2464.54" y2="1505.07"/>
				<polyline fill="none" stroke="#012B48" points="2530.88,1469.58 2518.06,1480.38 2581.42,1502.25 2525.9,1502.25 2518,1481.8 
									"/>
				<polyline fill="none" stroke="#012B48" points="2525.9,1502.25 2464.57,1505.07 2539.32,1536.71 2526.58,1503.99 				"/>
				<polyline fill="none" stroke="#012B48" points="2541.72,1535.21 2580.76,1502.25 2666.67,1535.21 2616.01,1474.7 
					2665.73,1434.44 				"/>
				<polyline fill="none" stroke="#012B48" points="2580.24,1432.56 2615.85,1474.78 2582.12,1501.37 				"/>
				<polyline fill="none" stroke="#012B48" points="2464.54,1505.07 2454.73,1537.09 2396.28,1518.54 2464.54,1505.07 				"/>
				<polyline fill="none" stroke="#012B48" points="2408.48,1463.21 2397.22,1518.63 2362.1,1495.9 2407.95,1463.11 
					2344.02,1460.68 2325.69,1432.56 				"/>
				<polyline fill="none" stroke="#012B48" points="2343.02,1461.04 2310.95,1457.8 2326.05,1478.5 2344.96,1460.6 2362.1,1495.98 
					2326.69,1478.35 2323.53,1494.11 2361,1495.9 				"/>
				<polyline fill="none" stroke="#012B48" points="2299.37,1492.67 2323.12,1494.55 2308.66,1508.98 2296.22,1521.08 
					2305.6,1521.08 2309.08,1509.2 2361.22,1496.76 				"/>
				<polyline fill="none" stroke="#012B48" points="2309.08,1509.2 2396.68,1518.63 2305.6,1521.08 2296.12,1536.15 
					2396.68,1518.63 				"/>
				<line fill="none" stroke="#012B48" x1="2327.78" y1="1430.78" x2="2406.57" y2="1462.95"/>
				<path fill="#012B48" d="M2395.54,1366.16c0,0-32.94,23.59-40.88,31.67c-8.27,8.42-28.77,32-28.77,32l82.04,33.27
					L2395.54,1366.16z"/>
				<line fill="none" stroke="#012B48" x1="2410.33" y1="1271.46" x2="2420.91" y2="1248.2"/>
				<rect fill="none" width="3840" height="2160"/>
			</g>
		</g>
		<g>
			<g>
				<polyline fill="none" stroke="#012B48" points="2113.4,1104.46 2067.39,1138.97 2103.31,1145.56 2090.39,1195.56 
					2067.39,1139.53 2061.16,1198.09 2033.36,1135.55 2053.01,1104.46 2066.89,1139.31 				"/>
				<polyline fill="none" stroke="#012B48" points="2103.31,1145.58 2113.4,1104.09 2121.07,1176.81 2103.39,1146.85 				"/>
				<polyline fill="none" stroke="#012B48" points="2113.4,1104.46 2161.32,1195.56 2121.07,1177.35 2127.78,1217.2 
					2161.28,1195.27 2196.77,1225.32 2129.75,1218.79 				"/>
				<polyline fill="none" stroke="#012B48" points="2171.39,1125.46 2162.03,1194.18 2213.5,1159.35 				"/>
				<polyline fill="none" stroke="#012B48" points="2161.79,1195.27 2254.26,1231.74 2196.77,1225.32 2176.64,1265.47 
					2253.24,1232.38 2224.11,1272.38 2176.18,1265.52 2144.61,1255.73 				"/>
				<polyline fill="none" stroke="#012B48" points="2176.1,1266.1 2150.3,1295.61 2223.59,1272.93 2208.29,1304.69 2263.39,1284.17 
					2224.19,1272.52 				"/>
				<polyline fill="none" stroke="#012B48" points="2209.13,1304.69 2149.36,1295.88 2186.83,1352.32 2208.72,1304.42 				"/>
				<polyline fill="none" stroke="#012B48" points="2264.48,1284.71 2187.72,1352.32 2260.99,1380.17 2191.48,1389.62 
					2186.83,1352.32 2147.49,1375.23 2191.52,1390.26 2180.51,1441.91 2146.55,1375.37 				"/>
				<polyline fill="none" stroke="#012B48" points="2261.17,1380.8 2180.51,1441.91 2222.19,1473.62 2171.15,1478.65 
					2180.51,1441.91 2134.49,1417.9 2171.15,1478.65 2113.4,1538.68 2134.43,1417.52 				"/>
				<polyline fill="none" stroke="#012B48" points="2099.26,1446.66 2120.34,1494.31 2107.53,1503.23 2099.26,1446.66 
					2061.16,1505.61 2107.53,1503.23 				"/>
				<polyline fill="none" stroke="#012B48" points="2108.25,1503.43 2112.42,1538.87 2060.28,1505.31 2067.49,1446.66 
					2019.88,1483.88 2052.31,1537.73 2060.22,1505.61 2019.88,1483.92 				"/>
				<polyline fill="none" stroke="#012B48" points="2038.37,1424.15 1966.02,1438.27 2018.94,1346.51 1959.31,1390.13 
					1966.02,1438.27 1908.73,1389.15 1958.35,1389.89 1904.66,1359.91 1938.21,1355.84 1959.31,1390.13 				"/>
				<polyline fill="none" stroke="#012B48" points="1938.51,1355.82 2017.96,1346.74 1973.69,1333.33 1938.21,1355.84 
					1902.08,1321.65 1973.86,1333.09 1941.34,1312.7 1902.58,1321.1 1941.1,1293.05 1940.86,1312.88 2017.96,1295.88 
					1973.95,1333.05 2017.96,1320.85 				"/>
				<polyline fill="none" stroke="#012B48" points="1902.78,1289.94 1942.06,1293.02 1911.45,1239.86 1953.84,1278.44 
					1941.4,1293.02 2017.96,1295.88 1953.86,1278.64 1986.87,1259.03 1911.45,1239.86 1974.41,1237.46 1986.15,1258.73 
					2020.82,1268.84 				"/>
				<polyline fill="none" stroke="#012B48" points="1911.45,1239.86 1965.57,1200.61 1973.47,1237.2 2028.57,1235.54 
					1966.06,1199.52 1998.85,1198.09 2028.77,1235.48 				"/>
				<polyline fill="none" stroke="#012B48" points="1933.43,1192.17 1966.2,1199.52 1978.96,1137.07 1999.09,1198.09 
					2011.57,1173.72 1979.22,1136.34 2015.63,1147.84 2012.05,1173.42 2045.01,1211.32 				"/>
				<polyline fill="none" stroke="#012B48" points="2022.84,1113.35 2033.36,1135.55 2015.39,1148.3 2061.21,1199.52 				"/>
				<polyline fill="none" stroke="#012B48" points="1965.55,1438.15 1965.55,1495.32 2019.84,1483.82 				"/>
				<path fill="#012B48" d="M2038.55,1424.41l-73.01,13.74l-0.2,57.43l54.5-12.06l48.41-37.8c0,0-14.08-5.01-19.11-9.33
					C2044.1,1432.08,2038.55,1424.41,2038.55,1424.41z"/>
				<g>
					<g>
						<path fill="none" stroke="#012B48" d="M2083.48,1101.94c78.43,0,183.42,53.73,183.42,219.85s-104.99,219.85-182.8,219.85
							c-77.81,0-182.8-53.73-182.8-219.85S2006.29,1101.94,2083.48,1101.94z M2083.48,1447.16c62.99,0,66.08-79.67,66.08-125.37
							c0-44.46-3.09-125.37-64.84-125.37c-63.61,0-66.08,79.05-66.08,125.37C2018.64,1366.87,2021.11,1447.16,2083.48,1447.16z"/>
					</g>
				</g>
				<g>
					<g>
						<path fill="none" stroke="#012B48" d="M2083.7,1097.2c79.95,0,186.96,54.77,186.96,224.1c0,169.34-107.02,224.1-186.33,224.1
							c-79.32,0-186.33-54.77-186.33-224.1C1898,1151.96,2005.01,1097.2,2083.7,1097.2z M2083.99,1443.78
							c61.37,0,62.5-77.61,62.5-122.13c0-43.32-1.13-122.13-61.29-122.13c-61.97,0-64.37,77.01-64.37,122.13
							C2020.82,1365.57,2023.23,1443.78,2083.99,1443.78z"/>
					</g>
				</g>
				<g>
					<g>
						<path fill="none" stroke="#012B48" d="M2083.52,1092.22c81.65,0,190.95,55.93,190.95,228.88
							c0,172.95-109.3,228.88-190.31,228.88c-81.01,0-190.3-55.93-190.3-228.88C1893.86,1148.16,2003.16,1092.22,2083.52,1092.22z
							 M2083.93,1440.03c59.48,0,60.58-75.23,60.58-118.39c0-41.99-1.1-118.39-59.41-118.39c-60.07,0-62.4,74.65-62.4,118.39
							C2022.7,1364.22,2025.03,1440.03,2083.93,1440.03z"/>
					</g>
				</g>
				<circle fill="#012B48" cx="2017.96" cy="1295.88" r="2.52"/>
				<circle fill="#012B48" cx="2020.49" cy="1295.88" r="2.52"/>
				<circle fill="#012B48" cx="2023.01" cy="1295.88" r="2.52"/>
				<circle fill="#012B48" cx="2017.96" cy="1320.71" r="2.52"/>
				<circle fill="#012B48" cx="2020.49" cy="1320.71" r="2.52"/>
				<circle fill="#012B48" cx="2023.01" cy="1320.71" r="2.52"/>
				<circle fill="#012B48" cx="2019.84" cy="1346.51" r="2.52"/>
				<circle fill="#012B48" cx="2022.37" cy="1346.51" r="2.52"/>
				<circle fill="#012B48" cx="2024.89" cy="1346.51" r="2.52"/>
				<circle fill="#012B48" cx="1959.31" cy="1390.13" r="2.52"/>
				<circle fill="#012B48" cx="1974.17" cy="1333.07" r="2.52"/>
				<circle fill="#012B48" cx="1941.34" cy="1312.7" r="2.52"/>
				<circle fill="#012B48" cx="1938.51" cy="1355.82" r="2.52"/>
				<circle fill="#012B48" cx="1902.08" cy="1321.65" r="2.52"/>
				<circle fill="#012B48" cx="1898" cy="1321.3" r="2.52"/>
				<circle fill="#012B48" cx="1893.86" cy="1320.71" r="2.52"/>
				<circle fill="#012B48" cx="1903.67" cy="1359.84" r="2.52"/>
				<circle fill="#012B48" cx="1899.56" cy="1359.84" r="2.52"/>
				<circle fill="#012B48" cx="1895.47" cy="1360.78" r="2.52"/>
				<circle fill="#012B48" cx="1907.18" cy="1388.43" r="2.52"/>
				<circle fill="#012B48" cx="1965.55" cy="1437.5" r="2.52"/>
				<circle fill="#012B48" cx="1964.61" cy="1495.32" r="2.52"/>
				<circle fill="#012B48" cx="1962.08" cy="1497.85" r="2.52"/>
				<circle fill="#012B48" cx="1959.56" cy="1500.37" r="2.52"/>
				<circle fill="#012B48" cx="2020.49" cy="1484.32" r="2.52"/>
				<circle fill="#012B48" cx="2038.37" cy="1424.15" r="2.52"/>
				<circle fill="#012B48" cx="2040.9" cy="1421.89" r="2.52"/>
				<circle fill="#012B48" cx="2043.42" cy="1419.36" r="2.52"/>
				<circle fill="#012B48" cx="2068.25" cy="1445.72" r="2.52"/>
				<circle fill="#012B48" cx="2060.22" cy="1505.61" r="2.52"/>
				<circle fill="#012B48" cx="2052.53" cy="1538.68" r="2.52"/>
				<circle fill="#012B48" cx="2052.53" cy="1542.88" r="2.52"/>
				<circle fill="#012B48" cx="2052.53" cy="1547.09" r="2.52"/>
				<circle fill="#012B48" cx="2113.4" cy="1539.41" r="2.52"/>
				<circle fill="#012B48" cx="2113.4" cy="1542.88" r="2.52"/>
				<circle fill="#012B48" cx="2113.4" cy="1547.09" r="2.52"/>
				<circle fill="#012B48" cx="2107.53" cy="1503.23" r="2.52"/>
				<circle fill="#012B48" cx="2120.34" cy="1492.77" r="2.52"/>
				<circle fill="#012B48" cx="2099.26" cy="1444.78" r="2.52"/>
				<circle fill="#012B48" cx="2099.26" cy="1440.97" r="2.52"/>
				<circle fill="#012B48" cx="2099.26" cy="1438.44" r="2.52"/>
				<circle fill="#012B48" cx="2133.29" cy="1416.84" r="2.52"/>
				<circle fill="#012B48" cx="2130.76" cy="1415.27" r="2.52"/>
				<circle fill="#012B48" cx="2128.24" cy="1414.32" r="2.52"/>
				<circle fill="#012B48" cx="2171.15" cy="1478.65" r="2.52"/>
				<circle fill="#012B48" cx="2180.19" cy="1441.91" r="2.52"/>
				<circle fill="#012B48" cx="2222.19" cy="1473.62" r="2.52"/>
				<circle fill="#012B48" cx="2226.26" cy="1476.13" r="2.52"/>
				<circle fill="#012B48" cx="2230.34" cy="1478.65" r="2.52"/>
				<circle fill="#012B48" cx="2191.48" cy="1389.62" r="2.52"/>
				<circle fill="#012B48" cx="2261.17" cy="1380.8" r="2.52"/>
				<circle fill="#012B48" cx="2265.91" cy="1380.8" r="2.52"/>
				<circle fill="#012B48" cx="2270.66" cy="1380.8" r="2.52"/>
				<circle fill="#012B48" cx="2146.55" cy="1375.37" r="2.52"/>
				<circle fill="#012B48" cx="2144.02" cy="1375.37" r="2.52"/>
				<circle fill="#012B48" cx="2140.48" cy="1375.37" r="2.52"/>
				<circle fill="#012B48" cx="2187.11" cy="1352.32" r="2.52"/>
				<circle fill="#012B48" cx="2208.72" cy="1304.42" r="2.52"/>
				<circle fill="#012B48" cx="2264.48" cy="1284.71" r="2.52"/>
				<circle fill="#012B48" cx="2268.44" cy="1284.71" r="2.52"/>
				<circle fill="#012B48" cx="2273.19" cy="1284.71" r="2.52"/>
				<circle fill="#012B48" cx="2223.58" cy="1272.38" r="2.52"/>
				<circle fill="#012B48" cx="2176.72" cy="1266.1" r="2.52"/>
				<circle fill="#012B48" cx="2254.26" cy="1231.3" r="2.52"/>
				<circle fill="#012B48" cx="2258.65" cy="1230.03" r="2.52"/>
				<circle fill="#012B48" cx="2261.17" cy="1228.78" r="2.52"/>
				<circle fill="#012B48" cx="2196.53" cy="1225.32" r="2.52"/>
				<circle fill="#012B48" cx="2144.31" cy="1255.02" r="2.52"/>
				<circle fill="#012B48" cx="2141.5" cy="1256.39" r="2.52"/>
				<circle fill="#012B48" cx="2138.97" cy="1258.92" r="2.52"/>
				<circle fill="#012B48" cx="2128.02" cy="1217.81" r="2.52"/>
				<circle fill="#012B48" cx="2161.28" cy="1195.27" r="2.52"/>
				<circle fill="#012B48" cx="2121.07" cy="1176.81" r="2.52"/>
				<circle fill="#012B48" cx="2090.63" cy="1196.7" r="2.52"/>
				<circle fill="#012B48" cx="2090.63" cy="1199.52" r="2.52"/>
				<circle fill="#012B48" cx="2090.63" cy="1203.26" r="2.52"/>
				<circle fill="#012B48" cx="2103.39" cy="1146.85" r="2.52"/>
				<circle fill="#012B48" cx="2113.4" cy="1104.46" r="2.52"/>
				<circle fill="#012B48" cx="2113.4" cy="1099.5" r="2.52"/>
				<circle fill="#012B48" cx="2067.39" cy="1138.97" r="2.52"/>
				<circle fill="#012B48" cx="2053.01" cy="1104.46" r="2.52"/>
				<circle fill="#012B48" cx="2033.36" cy="1135.55" r="2.52"/>
				<circle fill="#012B48" cx="2015.39" cy="1148.3" r="2.52"/>
				<circle fill="#012B48" cx="1978.96" cy="1135.55" r="2.52"/>
				<circle fill="#012B48" cx="1975.5" cy="1133.03" r="2.52"/>
				<circle fill="#012B48" cx="1972.98" cy="1129.57" r="2.52"/>
				<circle fill="#012B48" cx="2011.57" cy="1173.72" r="2.52"/>
				<circle fill="#012B48" cx="2045.01" cy="1211.32" r="2.52"/>
				<circle fill="#012B48" cx="2047.53" cy="1213.84" r="2.52"/>
				<circle fill="#012B48" cx="2050.06" cy="1216.37" r="2.52"/>
				<circle fill="#012B48" cx="2029.9" cy="1236.18" r="2.52"/>
				<circle fill="#012B48" cx="2032.42" cy="1237.46" r="2.52"/>
				<circle fill="#012B48" cx="2034.95" cy="1239.35" r="2.52"/>
				<circle fill="#012B48" cx="1998.85" cy="1198.09" r="2.52"/>
				<circle fill="#012B48" cx="1966.06" cy="1199.52" r="2.52"/>
				<circle fill="#012B48" cx="1910.51" cy="1239.86" r="2.52"/>
				<circle fill="#012B48" cx="1907.05" cy="1238.92" r="2.52"/>
				<circle fill="#012B48" cx="1903.67" cy="1290.53" r="2.52"/>
				<circle fill="#012B48" cx="1899.56" cy="1290.53" r="2.52"/>
				<circle fill="#012B48" cx="1895.47" cy="1290.53" r="2.52"/>
				<circle fill="#012B48" cx="1953.86" cy="1278.64" r="2.52"/>
				<circle fill="#012B48" cx="1903.67" cy="1237.46" r="2.52"/>
				<circle fill="#012B48" cx="1974.17" cy="1236.83" r="2.52"/>
				<circle fill="#012B48" cx="1986.87" cy="1259.03" r="2.52"/>
				<circle fill="#012B48" cx="2020.82" cy="1268.84" r="2.52"/>
				<circle fill="#012B48" cx="2023.34" cy="1269.85" r="2.52"/>
				<circle fill="#012B48" cx="2025.54" cy="1271.36" r="2.52"/>
				<circle fill="#012B48" cx="1930.91" cy="1191.65" r="2.52"/>
				<circle fill="#012B48" cx="1926.96" cy="1190.22" r="2.52"/>
				<circle fill="#012B48" cx="1922.85" cy="1189.13" r="2.52"/>
				<circle fill="#012B48" cx="2053.01" cy="1099.5" r="2.52"/>
				<circle fill="#012B48" cx="2053.01" cy="1094.27" r="2.52"/>
				<circle fill="#012B48" cx="2022.84" cy="1112.41" r="2.52"/>
				<circle fill="#012B48" cx="2020.82" cy="1108.3" r="2.52"/>
				<circle fill="#012B48" cx="2018.29" cy="1104.46" r="2.52"/>
				<circle fill="#012B48" cx="2061.21" cy="1200.73" r="2.52"/>
				<circle fill="#012B48" cx="2062.34" cy="1203.63" r="2.52"/>
				<circle fill="#012B48" cx="2063.74" cy="1207.27" r="2.52"/>
				<circle fill="#012B48" cx="2113.4" cy="1094.27" r="2.52"/>
				<circle fill="#012B48" cx="2213.5" cy="1159.35" r="2.52"/>
				<circle fill="#012B48" cx="2217.61" cy="1156.83" r="2.52"/>
				<circle fill="#012B48" cx="2221.25" cy="1154.3" r="2.52"/>
				<circle fill="#012B48" cx="2171.39" cy="1125.46" r="2.52"/>
				<circle fill="#012B48" cx="2173.91" cy="1121.84" r="2.52"/>
				<circle fill="#012B48" cx="2176.72" cy="1118.12" r="2.52"/>
				<circle fill="#012B48" cx="2125.49" cy="1220.33" r="2.52"/>
				<circle fill="#012B48" cx="2122.97" cy="1222.86" r="2.52"/>
				<circle fill="#012B48" cx="2149.36" cy="1296.19" r="2.52"/>
				<circle fill="#012B48" cx="2146.84" cy="1296.19" r="2.52"/>
				<circle fill="#012B48" cx="2144.31" cy="1296.19" r="2.52"/>
				<circle fill="#012B48" cx="2068.25" cy="1441.91" r="2.52"/>
				<circle fill="#012B48" cx="2069.19" cy="1438.44" r="2.52"/>
				<circle fill="#012B48" cx="1903.67" cy="1389.87" r="2.52"/>
				<circle fill="#012B48" cx="1900.52" cy="1390.95" r="2.52"/>
				<circle fill="#012B48" cx="1941.1" cy="1293.05" r="2.52"/>
				<rect fill="none" width="3840" height="2160"/>
			</g>
		</g>
		<g>
			<g>
				<circle fill="#012B48" cx="2801.07" cy="1518.89" r="2.52"/>
				<circle fill="#012B48" cx="2868.71" cy="1505.07" r="2.52"/>
				<circle fill="#012B48" cx="2930.07" cy="1502.25" r="2.52"/>
				<circle fill="#012B48" cx="2922.17" cy="1480.45" r="2.52"/>
				<circle fill="#012B48" cx="2935.71" cy="1469.58" r="2.52"/>
				<circle fill="#012B48" cx="2985.59" cy="1502.54" r="2.52"/>
				<circle fill="#012B48" cx="3020.18" cy="1474.7" r="2.52"/>
				<circle fill="#012B48" cx="3071.64" cy="1432.56" r="2.52"/>
				<circle fill="#012B48" cx="3071.64" cy="1537.09" r="2.52"/>
				<circle fill="#012B48" cx="3076.2" cy="1540.46" r="2.52"/>
				<circle fill="#012B48" cx="3078.72" cy="1542.98" r="2.52"/>
				<circle fill="#012B48" cx="3076.2" cy="1429.19" r="2.52"/>
				<circle fill="#012B48" cx="3079.01" cy="1426.67" r="2.52"/>
				<circle fill="#012B48" cx="2983.47" cy="1431.72" r="2.52"/>
				<circle fill="#012B48" cx="2983.07" cy="1428.45" r="2.52"/>
				<circle fill="#012B48" cx="2983.07" cy="1425.93" r="2.52"/>
				<circle fill="#012B48" cx="2900.06" cy="1446.87" r="2.52"/>
				<circle fill="#012B48" cx="2892.1" cy="1449.39" r="2.52"/>
				<circle fill="#012B48" cx="2874.4" cy="1451.93" r="2.52"/>
				<circle fill="#012B48" cx="2876.93" cy="1431.62" r="2.52"/>
				<circle fill="#012B48" cx="2885.9" cy="1428.45" r="2.52"/>
				<circle fill="#012B48" cx="2894.63" cy="1425.93" r="2.52"/>
				<circle fill="#012B48" cx="2803.59" cy="1395.96" r="2.52"/>
				<circle fill="#012B48" cx="2861.65" cy="1375.85" r="2.52"/>
				<circle fill="#012B48" cx="2798.87" cy="1366.45" r="2.52"/>
				<circle fill="#012B48" cx="2797.19" cy="1363.38" r="2.52"/>
				<circle fill="#012B48" cx="2795.61" cy="1359.92" r="2.52"/>
				<circle fill="#012B48" cx="2777.57" cy="1379.23" r="2.52"/>
				<circle fill="#012B48" cx="2775.1" cy="1376.86" r="2.52"/>
				<circle fill="#012B48" cx="2773.17" cy="1374.26" r="2.52"/>
				<circle fill="#012B48" cx="2729.72" cy="1430.97" r="2.52"/>
				<circle fill="#012B48" cx="2727.19" cy="1429.19" r="2.52"/>
				<circle fill="#012B48" cx="2724.67" cy="1426.67" r="2.52"/>
				<circle fill="#012B48" cx="2715.13" cy="1456.72" r="2.52"/>
				<circle fill="#012B48" cx="2711.36" cy="1454.2" r="2.52"/>
				<circle fill="#012B48" cx="2707.9" cy="1452.19" r="2.52"/>
				<circle fill="#012B48" cx="2701.46" cy="1493.05" r="2.52"/>
				<circle fill="#012B48" cx="2698.13" cy="1491.73" r="2.52"/>
				<circle fill="#012B48" cx="2694.75" cy="1490.93" r="2.52"/>
				<circle fill="#012B48" cx="2695.6" cy="1521.42" r="2.52"/>
				<circle fill="#012B48" cx="2698.93" cy="1521.42" r="2.52"/>
				<circle fill="#012B48" cx="2692.23" cy="1521.42" r="2.52"/>
				<circle fill="#012B48" cx="2898.12" cy="1362.44" r="2.52"/>
				<circle fill="#012B48" cx="2881.97" cy="1314.9" r="2.52"/>
				<circle fill="#012B48" cx="2879.45" cy="1311.64" r="2.52"/>
				<circle fill="#012B48" cx="2876.99" cy="1309.12" r="2.52"/>
				<circle fill="#012B48" cx="2930.07" cy="1326.86" r="2.52"/>
				<circle fill="#012B48" cx="2963.71" cy="1382.69" r="2.52"/>
				<circle fill="#012B48" cx="2965.59" cy="1386.15" r="2.52"/>
				<circle fill="#012B48" cx="2967.17" cy="1388.68" r="2.52"/>
				<circle fill="#012B48" cx="2972.36" cy="1329.38" r="2.52"/>
				<circle fill="#012B48" cx="3020.02" cy="1339.93" r="2.52"/>
				<circle fill="#012B48" cx="3022.7" cy="1342.45" r="2.52"/>
				<circle fill="#012B48" cx="3025.23" cy="1344.97" r="2.52"/>
				<circle fill="#012B48" cx="2988.19" cy="1289.11" r="2.52"/>
				<circle fill="#012B48" cx="2934.19" cy="1274.9" r="2.52"/>
				<circle fill="#012B48" cx="2931.66" cy="1273.46" r="2.52"/>
				<circle fill="#012B48" cx="2929.14" cy="1272.38" r="2.52"/>
				<circle fill="#012B48" cx="2940.64" cy="1260.96" r="2.52"/>
				<circle fill="#012B48" cx="2937.65" cy="1260.96" r="2.52"/>
				<circle fill="#012B48" cx="2934.49" cy="1261.07" r="2.52"/>
				<circle fill="#012B48" cx="2940.7" cy="1252.56" r="2.52"/>
				<circle fill="#012B48" cx="2938.17" cy="1252.56" r="2.52"/>
				<circle fill="#012B48" cx="2935.59" cy="1252.56" r="2.52"/>
				<circle fill="#012B48" cx="3052.31" cy="1298.14" r="2.52"/>
				<circle fill="#012B48" cx="3054.83" cy="1300.66" r="2.52"/>
				<circle fill="#012B48" cx="3057.36" cy="1302.16" r="2.52"/>
				<circle fill="#012B48" cx="3004.99" cy="1252.56" r="2.52"/>
				<circle fill="#012B48" cx="3066.23" cy="1250.03" r="2.52"/>
				<circle fill="#012B48" cx="3069.7" cy="1250.03" r="2.52"/>
				<circle fill="#012B48" cx="3072.66" cy="1250.37" r="2.52"/>
				<circle fill="#012B48" cx="3061.19" cy="1203.78" r="2.52"/>
				<circle fill="#012B48" cx="3065.08" cy="1203.14" r="2.52"/>
				<circle fill="#012B48" cx="3070.13" cy="1203.14" r="2.52"/>
				<circle fill="#012B48" cx="2991.93" cy="1198.09" r="2.52"/>
				<circle fill="#012B48" cx="3036.01" cy="1153.13" r="2.52"/>
				<circle fill="#012B48" cx="3039.59" cy="1150.61" r="2.52"/>
				<circle fill="#012B48" cx="3042.11" cy="1149.02" r="2.52"/>
				<circle fill="#012B48" cx="3004.86" cy="1127.49" r="2.52"/>
				<circle fill="#012B48" cx="3006.52" cy="1124.82" r="2.52"/>
				<circle fill="#012B48" cx="3009.04" cy="1122.29" r="2.52"/>
				<circle fill="#012B48" cx="2969.83" cy="1168.56" r="2.52"/>
				<circle fill="#012B48" cx="2929.78" cy="1214.68" r="2.52"/>
				<circle fill="#012B48" cx="2927.26" cy="1217.2" r="2.52"/>
				<circle fill="#012B48" cx="2924.73" cy="1219.72" r="2.52"/>
				<circle fill="#012B48" cx="2896.87" cy="1199.03" r="2.52"/>
				<circle fill="#012B48" cx="2896.87" cy="1201.55" r="2.52"/>
				<circle fill="#012B48" cx="2896.87" cy="1204.08" r="2.52"/>
				<circle fill="#012B48" cx="2907.42" cy="1139.47" r="2.52"/>
				<circle fill="#012B48" cx="2914.15" cy="1101.94" r="2.52"/>
				<circle fill="#012B48" cx="2914.15" cy="1098.39" r="2.52"/>
				<circle fill="#012B48" cx="2914.15" cy="1094.75" r="2.52"/>
				<circle fill="#012B48" cx="2887.96" cy="1127.34" r="2.52"/>
				<circle fill="#012B48" cx="2841.71" cy="1106.99" r="2.52"/>
				<circle fill="#012B48" cx="2840.12" cy="1102.88" r="2.52"/>
				<circle fill="#012B48" cx="2838.54" cy="1098.39" r="2.52"/>
				<circle fill="#012B48" cx="2858.19" cy="1156.59" r="2.52"/>
				<circle fill="#012B48" cx="2867.04" cy="1201.26" r="2.52"/>
				<circle fill="#012B48" cx="2868.01" cy="1203.14" r="2.52"/>
				<circle fill="#012B48" cx="2869.89" cy="1206.31" r="2.52"/>
				<circle fill="#012B48" cx="2846.16" cy="1213.14" r="2.52"/>
				<circle fill="#012B48" cx="2848.69" cy="1216.26" r="2.52"/>
				<circle fill="#012B48" cx="2851.21" cy="1218.79" r="2.52"/>
				<circle fill="#012B48" cx="2812.4" cy="1172.71" r="2.52"/>
				<circle fill="#012B48" cx="2776.93" cy="1132.39" r="2.52"/>
				<circle fill="#012B48" cx="2774.41" cy="1128.43" r="2.52"/>
				<circle fill="#012B48" cx="2772.14" cy="1125.9" r="2.52"/>
				<circle fill="#012B48" cx="2772.14" cy="1172.16" r="2.52"/>
				<circle fill="#012B48" cx="2794.66" cy="1217.84" r="2.52"/>
				<circle fill="#012B48" cx="2758.24" cy="1201.26" r="2.52"/>
				<circle fill="#012B48" cx="2738.13" cy="1230.95" r="2.52"/>
				<circle fill="#012B48" cx="2751.55" cy="1255.08" r="2.52"/>
				<circle fill="#012B48" cx="2813.85" cy="1272.21" r="2.52"/>
				<circle fill="#012B48" cx="2782.38" cy="1250.37" r="2.52"/>
				<circle fill="#012B48" cx="2825.72" cy="1247.51" r="2.52"/>
				<circle fill="#012B48" cx="2830.12" cy="1249.14" r="2.52"/>
				<circle fill="#012B48" cx="2832.65" cy="1250.37" r="2.52"/>
				<circle fill="#012B48" cx="2830.12" cy="1237.97" r="2.52"/>
				<circle fill="#012B48" cx="2833.59" cy="1238.78" r="2.52"/>
				<circle fill="#012B48" cx="2836.38" cy="1240.49" r="2.52"/>
				<circle fill="#012B48" cx="2823.2" cy="1287.82" r="2.52"/>
				<circle fill="#012B48" cx="2825.91" cy="1290.78" r="2.52"/>
				<circle fill="#012B48" cx="2828.25" cy="1292.87" r="2.52"/>
				<circle fill="#012B48" cx="2707.9" cy="1263.49" r="2.52"/>
				<circle fill="#012B48" cx="2704.34" cy="1263.49" r="2.52"/>
				<circle fill="#012B48" cx="2700.88" cy="1263.73" r="2.52"/>
				<circle fill="#012B48" cx="2707.9" cy="1286.58" r="2.52"/>
				<circle fill="#012B48" cx="2704.34" cy="1290.35" r="2.52"/>
				<circle fill="#012B48" cx="2701.82" cy="1292.87" r="2.52"/>
				<circle fill="#012B48" cx="2717.78" cy="1208.74" r="2.52"/>
				<circle fill="#012B48" cx="2713.93" cy="1207.59" r="2.52"/>
				<circle fill="#012B48" cx="2710.42" cy="1206.22" r="2.52"/>
				<circle fill="#012B48" cx="2730.08" cy="1182.98" r="2.52"/>
				<circle fill="#012B48" cx="2725.97" cy="1181.16" r="2.52"/>
				<circle fill="#012B48" cx="2722.83" cy="1178.63" r="2.52"/>
				<circle fill="#012B48" cx="2939.09" cy="1233.61" r="2.52"/>
				<circle fill="#012B48" cx="2935.59" cy="1234.7" r="2.52"/>
				<circle fill="#012B48" cx="2933.07" cy="1236.14" r="2.52"/>
				<circle fill="#012B48" cx="2943.49" cy="1537.09" r="2.52"/>
				<circle fill="#012B48" cx="2943.49" cy="1540.46" r="2.52"/>
				<circle fill="#012B48" cx="2943.49" cy="1542.98" r="2.52"/>
				<circle fill="#012B48" cx="2859.12" cy="1537.09" r="2.52"/>
				<circle fill="#012B48" cx="2859.12" cy="1540.46" r="2.52"/>
				<circle fill="#012B48" cx="2859.12" cy="1542.98" r="2.52"/>
				<circle fill="#012B48" cx="2767.28" cy="1495.98" r="2.52"/>
				<circle fill="#012B48" cx="2812.12" cy="1463.11" r="2.52"/>
				<circle fill="#012B48" cx="2748.05" cy="1460.59" r="2.52"/>
				<circle fill="#012B48" cx="2730.36" cy="1479.42" r="2.52"/>
				<circle fill="#012B48" cx="2727.84" cy="1495.57" r="2.52"/>
				<circle fill="#012B48" cx="2712.6" cy="1509.4" r="2.52"/>
				<circle fill="#012B48" cx="2710.08" cy="1521.42" r="2.52"/>
				<circle fill="#012B48" cx="2698.93" cy="1536.71" r="2.52"/>
				<circle fill="#012B48" cx="2695.47" cy="1539.61" r="2.52"/>
				<circle fill="#012B48" cx="2693.08" cy="1542.13" r="2.52"/>
				<g>
					<g>
						<path fill="none" stroke="#012B48" d="M2707.9,1287.82c-6.79-117.96,66.7-185.89,182.18-185.89
							c104.37,0,175.39,43.85,175.39,135.25c0,109.93-107.46,144.51-188.36,193.92v0.62h194.53v104.99h-372.39
							c-2.47-41.38,9.88-77.2,30.88-106.22c35.82-50.02,97.58-82.75,152.54-116.1c22.23-13.59,58.05-30.88,58.05-62.37
							c0-38.91-22.85-52.49-51.88-52.49c-49.41,0-66.08,35.82-64.84,88.31H2707.9z"/>
					</g>
				</g>
				<g>
					<g>
						<path fill="none" stroke="#012B48" d="M2704.93,1290.78c-9.32-125.79,73.17-193.58,186.89-193.51
							c107.07,0.07,179.92,53.34,178.04,138.74c-2.69,122.24-130.14,156.38-184.78,192.99c19.81-1.48,191.11,0,191.11,0v110.52
							h-380.14c-2.53-42.45,5.44-75.44,26.98-105.21c36.74-51.32,96.75-86.81,156.48-121.92c22.81-13.94,59.15-28.87,58.61-61.17
							c-0.51-30.65-17.81-49.77-47.58-50.1c-46.91-0.51-65.91,35.81-64.64,89.66H2704.93z"/>
					</g>
				</g>
				<g>
					<g>
						<path fill="none" stroke="#012B48" d="M2701.72,1294.26c-9.4-126.87,69.01-200.82,188.51-200.82
							c107.99,0,184.19,53.94,183.35,142.76c-1.15,121.1-140.32,167.07-177.94,189.97c19.98-1.5,183.38,0,183.38,0v117.11h-386.24
							c-2.56-42.81,3.61-77.04,25.34-107.07c38.71-58.2,102.84-92.22,159.71-126.73c23-14.06,57.24-25.36,57.24-57.95
							c0-40.26-27.58-46.47-46.12-47.71c-38.31-2.56-63.22,33.41-60.5,90.44H2701.72z"/>
					</g>
				</g>
				<polyline fill="none" stroke="#012B48" points="2707.9,1287.82 2814.57,1272.21 2822.2,1286.52 				"/>
				<polyline fill="none" stroke="#012B48" points="2707.9,1287.82 2751.31,1253.52 2814.57,1272.21 2781.98,1250.64 
					2827.33,1247.58 				"/>
				<polyline fill="none" stroke="#012B48" points="2738.85,1231.47 2782.38,1250.58 2751.75,1253.94 2738.85,1231.09 
					2709.17,1262.14 2751.41,1253.56 				"/>
				<polyline fill="none" stroke="#012B48" points="2782.38,1250.37 2793.49,1217.63 2830.12,1238.94 2772.34,1172.16 
					2758.5,1203.19 2719.39,1208.39 				"/>
				<path fill="none" stroke="#012B48" d="M2793.49,1213.74"/>
				<line fill="none" stroke="#012B48" x1="2793.45" y1="1217.84" x2="2770.87" y2="1172.71"/>
				<line fill="none" stroke="#012B48" x1="2770.87" y1="1172.71" x2="2730.08" y2="1182.98"/>
				<polyline fill="none" stroke="#012B48" points="2845.68,1212.2 2772.14,1171.56 2810.74,1172.71 2845.68,1212.2 
					2858.19,1157.66 2810.74,1172.71 2776.71,1133.24 2772.14,1171.56 2717.78,1208.96 2737.89,1230.01 2758.5,1203.19 
					2793.49,1217.57 2738.93,1230.95 				"/>
				<polyline fill="none" stroke="#012B48" points="2778.09,1131.91 2857.67,1156.66 2841.41,1106.38 2887.86,1127.77 
					2858.23,1155.73 2908.51,1139.45 2888.38,1127.47 2914.26,1101.94 2908.03,1138.87 2969.37,1169.17 2914.26,1101.94 				"/>
				<polyline fill="none" stroke="#012B48" points="2867.38,1201.26 2858.7,1157.72 2896.97,1199.03 2907.42,1139.47 				"/>
				<polyline fill="none" stroke="#012B48" points="2896.97,1199.03 2968.38,1170.28 2931.51,1213.74 2985.23,1200.03 
					2992.86,1198.09 2969.37,1169.35 3004.36,1128.43 2992.38,1197.15 3035.51,1153.83 				"/>
				<polyline fill="none" stroke="#012B48" points="2940.64,1232.97 2992.74,1198.16 3004.84,1252.56 3061.83,1203.23 
					2993.4,1198.09 				"/>
				<polyline fill="none" stroke="#012B48" points="2939.73,1232.69 3004.99,1252.56 2940.7,1252.56 				"/>
				<polyline fill="none" stroke="#012B48" points="3063.71,1250.37 3004.84,1252.56 3052.73,1297.61 2940.68,1260.27 
					2987.11,1289.94 3051.23,1298.14 				"/>
				<polyline fill="none" stroke="#012B48" points="2988.03,1290.02 2934.39,1275.64 2972.81,1329.72 2988.03,1290.96 
					3020.18,1339.78 2972.59,1330.22 2962.66,1381 2930.07,1326.84 2974.07,1330.2 				"/>
				<polyline fill="none" stroke="#012B48" points="2933.89,1276.68 2931.01,1327.68 2882.69,1315.36 2961.19,1381.94 
					2897.96,1361.83 2882.13,1315.38 2862.02,1375.73 2898.86,1361.93 2877.11,1431.72 2862.02,1376.31 2803.53,1395.96 
					2799.72,1367.1 2861.94,1375.71 				"/>
				<polyline fill="none" stroke="#012B48" points="2876.78,1430.32 2803.59,1395.96 2812.66,1462.95 2876.82,1432.32 
					2874.94,1451.45 2892.67,1449.04 2877.64,1432.34 2899.92,1446.66 2983.75,1431.72 2935.35,1469.18 2985.67,1502.25 
					2983.73,1433.34 				"/>
				<polyline fill="none" stroke="#012B48" points="2874.4,1451.93 2812.66,1462.95 2868.71,1505.07 2921.93,1480.69 
					2892.75,1449.11 2901.24,1447.23 2935.71,1469.64 				"/>
				<line fill="none" stroke="#012B48" x1="2874.4" y1="1451.93" x2="2868.71" y2="1505.07"/>
				<polyline fill="none" stroke="#012B48" points="2935.05,1469.58 2922.23,1480.38 2985.59,1502.25 2930.07,1502.25 
					2922.17,1481.8 				"/>
				<polyline fill="none" stroke="#012B48" points="2930.07,1502.25 2868.74,1505.07 2943.49,1536.71 2930.75,1503.99 				"/>
				<polyline fill="none" stroke="#012B48" points="2945.89,1535.21 2984.93,1502.25 3070.84,1535.21 3020.18,1474.7 
					3069.9,1434.44 				"/>
				<polyline fill="none" stroke="#012B48" points="2984.41,1432.56 3020.02,1474.78 2986.29,1501.37 				"/>
				<polyline fill="none" stroke="#012B48" points="2868.71,1505.07 2858.9,1537.09 2800.45,1518.54 2868.71,1505.07 				"/>
				<polyline fill="none" stroke="#012B48" points="2812.66,1463.21 2801.39,1518.63 2766.27,1495.9 2812.12,1463.11 
					2748.19,1460.68 2729.86,1432.56 				"/>
				<polyline fill="none" stroke="#012B48" points="2747.2,1461.04 2715.13,1457.8 2730.22,1478.5 2749.13,1460.6 2766.27,1495.98 
					2730.86,1478.35 2727.71,1494.11 2765.17,1495.9 				"/>
				<polyline fill="none" stroke="#012B48" points="2703.54,1492.67 2727.29,1494.55 2712.83,1508.98 2700.39,1521.08 
					2709.78,1521.08 2713.25,1509.2 2765.39,1496.76 				"/>
				<polyline fill="none" stroke="#012B48" points="2713.25,1509.2 2800.85,1518.63 2709.78,1521.08 2700.29,1536.15 
					2800.85,1518.63 				"/>
				<line fill="none" stroke="#012B48" x1="2731.95" y1="1430.78" x2="2810.74" y2="1462.95"/>
				<path fill="#012B48" d="M2799.72,1366.16c0,0-32.94,23.59-40.88,31.67c-8.27,8.42-28.77,32-28.77,32l82.04,33.27
					L2799.72,1366.16z"/>
				<line fill="none" stroke="#012B48" x1="2814.5" y1="1271.46" x2="2825.08" y2="1248.2"/>
				<rect fill="none" width="3840" height="2160"/>
			</g>
		</g>
		<g>
			<g>
				<text transform="matrix(1 0 0 1 1083.2994 837.8738)"><tspan x="0" y="0" fill="#FFFFFF" font-family="'HelveticaNeueLTStd-Md'" font-size="145px" letter-spacing="-1">Here are some products that could</tspan><tspan x="814.6" y="174" fill="#FFFFFF" font-family="'HelveticaNeueLTStd-Md'" font-size="145px" letter-spacing="-1">help you get there in</tspan></text>
				<rect fill="none" width="3840" height="2160"/>
			</g>
		</g>
	</g>
</g>
<rect fill="none" width="3840" height="2160"/>
</svg>
