<?xml version="1.0" encoding="utf-8"?>
<!-- Generator: Adobe Illustrator 24.2.1, SVG Export Plug-In . SVG Version: 6.00 Build 0)  -->
<svg version="1.1" id="considerBgSvg" xmlns="http://www.w3.org/2000/svg" xmlns:xlink="http://www.w3.org/1999/xlink" x="0px"
	 y="0px" width="3480px" height="2160px" viewBox="0 0 3480 2160" enable-background="new 0 0 3480 2160" xml:space="preserve">
<polygon id="_x2D_.bgColor-" fill="#F2F2F2" points="3481.91,2157.29 0.02,2157.29 0.02,2.12 3481.91,0.12 "/>
<g id="_x2D_.bgScene-">
	<g id="_x2D_.moveElements-">
		<g>
			<g>
				<polygon opacity="0.59" fill="#00C0F2" points="3199.05,650.22 3247.38,1448.3 2908.21,1497.56 				"/>
				<rect x="-207.88" y="-9.51" fill="none" width="3687.88" height="2166.8"/>
			</g>
		</g>
		<g>
			<g>
				<polygon opacity="0.25" fill="#FFFFFF" points="-80.63,556.32 -80.63,1490.45 -55.95,1497.56 274.42,553.59 				"/>
				<rect x="-207.88" y="-9.51" fill="none" width="3687.88" height="2166.8"/>
			</g>
		</g>
		<g>
			<g>
				<polygon opacity="0.59" fill="#012B48" points="112.84,57.56 34.28,802.61 353.54,195.93 				"/>
				<rect x="-207.88" y="-9.51" fill="none" width="3687.88" height="2166.8"/>
			</g>
		</g>
	</g>
</g>
<g id="_x2D_.lineBG-_1_">
	<g>
		
			<line fill="#F2F2F2" stroke="#012B48" stroke-width="5" stroke-miterlimit="10" x1="519.78" y1="-68.3" x2="-255.92" y2="1865.56"/>
		<rect x="-207.88" y="-9.51" fill="none" width="3687.88" height="2166.8"/>
	</g>
</g>
<g id="_x2D_.lineBG-">
	<g>
		
			<line fill="#012B48" stroke="#012B48" stroke-width="5" stroke-miterlimit="10" x1="3165.15" y1="2266.07" x2="3511.32" y2="-47.55"/>
		<rect x="-207.88" y="-9.51" fill="none" width="3687.88" height="2166.8"/>
	</g>
</g>
<rect x="-207.88" y="-9.51" fill="none" width="3687.88" height="2166.8"/>
</svg>
