<?xml version="1.0" encoding="utf-8"?>
<!-- Generator: Adobe Illustrator 24.2.1, SVG Export Plug-In . SVG Version: 6.00 Build 0)  -->
<svg version="1.1" id="considerBgSvg" xmlns="http://www.w3.org/2000/svg" xmlns:xlink="http://www.w3.org/1999/xlink" x="0px"
	 y="0px" width="3480px" height="2160px" viewBox="0 0 3480 2160" enable-background="new 0 0 3480 2160" xml:space="preserve">
<polygon id="_x2D_.bgColor-" fill="#A4CD38" points="3481.91,2157.29 0.02,2157.29 0.02,2.12 3481.91,0.12 "/>
<g id="_x2D_.bgScene-">
	<g id="_x2D_.moveElements-">
		<g>
			<g>
				<polygon fill="#00C0F2" points="3717.1,140.99 3836.74,2116.51 2997.18,2238.46 				"/>
				<rect x="-207.88" y="-9.51" fill="none" width="3687.88" height="2166.8"/>
			</g>
		</g>
		<g>
			<g>
				<polygon opacity="0.25" fill="#FFFFFF" points="-197.88,0.49 -197.88,2189.47 -140.06,2206.14 634.11,-5.9 				"/>
				<rect x="-207.88" y="-9.51" fill="none" width="3687.88" height="2166.8"/>
			</g>
		</g>
		<g>
			<g>
				<polygon fill="#012B48" points="-33.34,-329.55 -193.54,1189.72 457.48,-47.4 				"/>
				<rect x="-207.88" y="-9.51" fill="none" width="3687.88" height="2166.8"/>
			</g>
		</g>
	</g>
</g>
<g id="_x2D_.lineBG-_1_">
	<g>
		<polygon fill="#012B48" points="-253.5,1866.73 -258.25,1864.43 517.45,-69.43 522.2,-67.13 		"/>
		<rect x="-207.88" y="-9.51" fill="none" width="3687.88" height="2166.8"/>
	</g>
</g>
<g id="_x2D_.lineBG-">
	<g>
		<polygon fill="#012B48" points="3167.95,2267.43 3163.2,2265.13 3508.89,-48.73 3513.64,-46.43 		"/>
		<rect x="-207.88" y="-9.51" fill="none" width="3687.88" height="2166.8"/>
	</g>
</g>
<rect x="-207.88" y="-9.51" fill="none" width="3687.88" height="2166.8"/>
</svg>
